<svg width="300" height="191" viewBox="0 0 300 191" fill="none" xmlns="http://www.w3.org/2000/svg">
<g clip-path="url(#clip0_35554_330680)">
<path d="M265.736 116.309L269.223 110.968C269.373 110.739 269.309 110.433 269.08 110.283L266.266 108.437C266.075 108.312 265.998 108.071 266.076 107.855C266.725 106.06 267.064 104.199 267.112 102.344C267.118 102.114 267.277 101.918 267.502 101.871L270.797 101.181C271.064 101.125 271.235 100.863 271.179 100.596L269.877 94.3474C269.821 94.0798 269.559 93.9083 269.293 93.9643L265.998 94.654C265.773 94.7011 265.549 94.585 265.452 94.3769C264.667 92.6962 263.613 91.127 262.302 89.7416C262.144 89.5748 262.118 89.3237 262.243 89.1315L264.085 86.3113C264.234 86.0826 264.17 85.776 263.942 85.6263L258.612 82.1311C258.384 81.9814 258.078 82.0456 257.929 82.2744L256.087 85.0946C255.962 85.2867 255.721 85.3634 255.506 85.285C253.715 84.6353 251.858 84.2946 250.006 84.2468C249.777 84.2409 249.582 84.0818 249.535 83.8566L248.846 80.5542C248.79 80.2865 248.529 80.115 248.262 80.171L242.028 81.4762C241.76 81.5322 241.589 81.7945 241.645 82.0615L242.333 85.364C242.381 85.5892 242.265 85.8132 242.057 85.9104C240.38 86.6974 238.814 87.7538 237.432 89.0678C237.265 89.2258 237.015 89.2523 236.823 89.1268L234.009 87.281C233.78 87.1313 233.475 87.1956 233.325 87.4243L229.838 92.7652C229.688 92.9939 229.752 93.3005 229.98 93.4502L232.795 95.296C232.986 95.4215 233.063 95.6626 232.985 95.8784C232.336 97.6734 231.997 99.5345 231.949 101.39C231.943 101.62 231.784 101.815 231.559 101.862L228.264 102.552C227.997 102.608 227.826 102.871 227.882 103.138L229.184 109.386C229.24 109.653 229.502 109.825 229.768 109.769L233.063 109.079C233.288 109.032 233.512 109.148 233.609 109.356C234.394 111.037 235.448 112.606 236.759 113.991C236.917 114.158 236.943 114.409 236.818 114.601L234.976 117.421C234.827 117.65 234.891 117.957 235.119 118.106L240.449 121.601C240.677 121.751 240.983 121.687 241.132 121.458L242.974 118.638C243.099 118.446 243.34 118.369 243.555 118.448C245.346 119.097 247.203 119.437 249.055 119.486C249.284 119.492 249.479 119.651 249.526 119.876L250.215 123.179C250.271 123.447 250.532 123.618 250.799 123.562L257.033 122.257C257.3 122.201 257.472 121.939 257.416 121.672L256.728 118.369C256.68 118.143 256.796 117.919 257.004 117.822C258.681 117.035 260.247 115.979 261.629 114.665C261.796 114.507 262.046 114.48 262.238 114.606L265.052 116.452C265.28 116.601 265.586 116.537 265.736 116.308V116.309ZM244.053 110.268C239.67 107.393 238.016 100.906 240.884 96.5133C243.752 92.1209 250.666 90.541 255.049 93.4154C259.432 96.2899 260.831 103.004 257.962 107.396C255.094 111.789 248.436 113.142 244.053 110.267L244.053 110.268Z" fill="white"/>
<path d="M262.63 91.2012C262.505 91.3934 262.531 91.6446 262.689 91.8114C264 93.1967 265.054 94.7654 265.839 96.4467C265.937 96.6548 266.161 96.7709 266.385 96.7237L269.68 96.034C269.947 95.978 270.209 96.1496 270.264 96.4172L271.255 101.173C271.342 101.063 271.385 100.92 271.355 100.771L270.052 94.5231C269.997 94.2555 269.735 94.0839 269.468 94.1399L266.173 94.8297C265.948 94.8768 265.725 94.7607 265.628 94.5526C264.962 93.1266 264.09 91.789 263.044 90.5681L262.63 91.2018V91.2012Z" fill="white"/>
<path d="M241.819 82.236L242.13 83.728C242.199 83.639 242.294 83.5694 242.413 83.5441L248.648 82.2389C248.915 82.1829 249.177 82.3545 249.232 82.6221L249.92 85.9245C249.967 86.1497 250.163 86.3089 250.392 86.3147C252.243 86.3631 254.1 86.7032 255.892 87.3529C256.107 87.4313 256.347 87.3546 256.473 87.1625L258.314 84.3423C258.464 84.1135 258.77 84.0493 258.998 84.199L263.726 87.2998L264.259 86.4851C264.408 86.2564 264.344 85.9498 264.116 85.8001L258.786 82.3049C258.558 82.1552 258.252 82.2195 258.103 82.4482L256.261 85.2684C256.136 85.4606 255.895 85.5372 255.68 85.4588C253.889 84.8092 252.031 84.4684 250.18 84.4207C249.951 84.4148 249.756 84.2556 249.709 84.0304L249.02 80.728C248.964 80.4604 248.703 80.2888 248.436 80.3448L242.202 81.65C241.934 81.706 241.763 81.9683 241.819 82.2354L241.819 82.236Z" fill="white"/>
<path d="M233.714 89.4934C233.863 89.2647 234.169 89.2004 234.397 89.3502L237.211 91.1959C237.403 91.322 237.654 91.2955 237.82 91.1369C239.202 89.8229 240.768 88.7665 242.445 87.9796C242.653 87.8823 242.769 87.6577 242.722 87.4331L242.41 85.9375C242.363 85.9976 242.307 86.0513 242.234 86.0855C240.557 86.8725 238.991 87.9288 237.608 89.2429C237.442 89.4008 237.191 89.4274 237 89.3018L234.185 87.4561C233.957 87.3063 233.651 87.3706 233.502 87.5993L230.014 92.9402C229.865 93.169 229.929 93.4755 230.157 93.6252L230.758 94.0196L233.714 89.4934H233.714Z" fill="white"/>
<path d="M250.696 123.965C250.286 123.965 249.917 123.678 249.83 123.26L249.141 119.957C249.132 119.911 249.093 119.88 249.043 119.879C247.115 119.829 245.224 119.472 243.42 118.817C243.374 118.8 243.325 118.815 243.3 118.854L241.458 121.674C241.328 121.872 241.13 122.008 240.898 122.057C240.667 122.105 240.43 122.06 240.232 121.93L234.903 118.435C234.705 118.306 234.569 118.106 234.521 117.874C234.473 117.642 234.517 117.405 234.647 117.207L236.488 114.387C236.514 114.348 236.508 114.298 236.473 114.262C235.153 112.867 234.069 111.273 233.252 109.523C233.231 109.478 233.186 109.454 233.141 109.464L229.845 110.154C229.368 110.254 228.898 109.946 228.798 109.467L227.495 103.218C227.447 102.986 227.492 102.749 227.621 102.551C227.751 102.353 227.95 102.217 228.181 102.168L231.477 101.479C231.522 101.469 231.553 101.429 231.555 101.38C231.605 99.4485 231.961 97.5526 232.614 95.7452C232.631 95.698 232.617 95.6497 232.578 95.6244L229.764 93.7786C229.566 93.6489 229.43 93.4497 229.382 93.2174C229.334 92.9851 229.378 92.7482 229.508 92.5501L232.995 87.2092C233.125 87.0111 233.324 86.8749 233.555 86.8266C233.787 86.7782 234.024 86.823 234.221 86.9527L237.035 88.7985C237.074 88.8238 237.124 88.8179 237.16 88.7837C238.552 87.4609 240.143 86.3744 241.888 85.5556C241.933 85.5344 241.957 85.4902 241.947 85.4448L241.259 82.1424C241.159 81.6637 241.467 81.1927 241.945 81.0924L248.18 79.7873C248.411 79.7389 248.648 79.7837 248.845 79.9134C249.043 80.0431 249.179 80.2424 249.227 80.4746L249.915 83.7771C249.925 83.8224 249.964 83.8537 250.014 83.8555C251.942 83.9056 253.834 84.2628 255.637 84.9172C255.683 84.9343 255.732 84.9195 255.757 84.8812L257.599 82.061C257.728 81.8629 257.927 81.7268 258.159 81.6784C258.391 81.6301 258.627 81.6749 258.825 81.8046L264.154 85.2997C264.352 85.4294 264.488 85.6287 264.536 85.861C264.584 86.0932 264.54 86.3302 264.41 86.5283L262.568 89.3485C262.543 89.3874 262.549 89.4375 262.584 89.4735C263.904 90.8676 264.988 92.4622 265.805 94.2119C265.826 94.2567 265.871 94.2809 265.916 94.2709L269.212 93.5811C269.443 93.5328 269.68 93.5776 269.878 93.7073C270.075 93.837 270.211 94.0362 270.26 94.2685L271.562 100.517C271.662 100.995 271.354 101.466 270.877 101.567L267.581 102.256C267.535 102.266 267.504 102.305 267.503 102.355C267.453 104.287 267.097 106.182 266.444 107.989C266.427 108.036 266.441 108.085 266.48 108.11L269.294 109.956C269.492 110.086 269.628 110.285 269.676 110.517C269.724 110.749 269.68 110.986 269.55 111.184L266.063 116.525C265.933 116.723 265.734 116.86 265.503 116.908C265.271 116.956 265.034 116.911 264.837 116.782L262.023 114.936C261.984 114.911 261.934 114.917 261.898 114.951C260.507 116.274 258.915 117.36 257.169 118.179C257.124 118.201 257.1 118.245 257.11 118.29L257.798 121.593C257.847 121.825 257.802 122.062 257.673 122.261C257.543 122.459 257.344 122.595 257.113 122.643L250.878 123.948C250.817 123.961 250.757 123.967 250.697 123.967L250.696 123.965ZM243.381 118.025C243.483 118.025 243.586 118.043 243.687 118.079C245.411 118.705 247.22 119.046 249.063 119.094C249.477 119.105 249.824 119.394 249.908 119.796L250.596 123.099C250.608 123.155 250.662 123.191 250.717 123.179L256.952 121.874C256.986 121.867 257.006 121.846 257.017 121.83C257.027 121.813 257.038 121.787 257.031 121.752L256.343 118.449C256.259 118.047 256.462 117.643 256.837 117.467C258.507 116.684 260.028 115.645 261.358 114.381C261.658 114.095 262.108 114.054 262.451 114.278L265.265 116.124C265.294 116.143 265.323 116.143 265.342 116.139C265.361 116.134 265.387 116.124 265.407 116.094L268.894 110.753C268.914 110.724 268.913 110.695 268.909 110.676C268.905 110.657 268.894 110.631 268.865 110.611L266.051 108.766C265.708 108.54 265.566 108.111 265.707 107.721C266.331 105.993 266.672 104.18 266.72 102.333C266.731 101.919 267.019 101.571 267.421 101.486L270.717 100.797C270.772 100.785 270.807 100.731 270.796 100.675L269.494 94.4271C269.487 94.3929 269.465 94.3728 269.45 94.3622C269.433 94.3516 269.407 94.3404 269.373 94.3475L266.077 95.0372C265.675 95.1215 265.272 94.9181 265.097 94.5426C264.315 92.869 263.278 91.3445 262.017 90.0111C261.732 89.7104 261.69 89.26 261.914 88.9164L263.756 86.0962C263.775 86.0667 263.774 86.0378 263.771 86.0189C263.767 86.0001 263.756 85.9735 263.727 85.9541L258.397 82.4589C258.368 82.4395 258.339 82.4406 258.32 82.4442C258.301 82.4483 258.275 82.4589 258.255 82.4884L256.414 85.3092C256.189 85.6529 255.761 85.7949 255.371 85.6534C253.647 85.028 251.838 84.6867 249.995 84.6383C249.581 84.6277 249.234 84.3389 249.15 83.9362L248.462 80.6338C248.455 80.5996 248.434 80.5796 248.418 80.569C248.402 80.5583 248.375 80.5471 248.341 80.5542L242.106 81.8594C242.051 81.8712 242.015 81.9254 242.027 81.9808L242.715 85.2832C242.799 85.6859 242.596 86.0897 242.221 86.2654C240.551 87.0488 239.03 88.0869 237.7 89.352C237.4 89.6373 236.95 89.6798 236.607 89.4546L233.793 87.6088C233.764 87.5894 233.735 87.5906 233.716 87.5941C233.697 87.5982 233.671 87.6088 233.651 87.6383L230.164 92.9792C230.144 93.0087 230.145 93.0376 230.149 93.0565C230.153 93.0753 230.164 93.1019 230.193 93.1213L233.007 94.9671C233.35 95.1922 233.492 95.6214 233.351 96.0117C232.727 97.7395 232.386 99.5522 232.338 101.4C232.327 101.814 232.039 102.162 231.637 102.246L228.342 102.936C228.308 102.943 228.288 102.964 228.277 102.98C228.267 102.997 228.255 103.023 228.263 103.057L229.565 109.306C229.577 109.361 229.631 109.396 229.686 109.385L232.981 108.695C233.383 108.611 233.786 108.815 233.961 109.19C234.743 110.864 235.78 112.388 237.041 113.722C237.326 114.022 237.368 114.473 237.144 114.816L235.302 117.637C235.283 117.666 235.284 117.695 235.287 117.714C235.291 117.733 235.302 117.759 235.331 117.779L240.661 121.274C240.69 121.293 240.718 121.292 240.738 121.289C240.757 121.284 240.783 121.274 240.803 121.244L242.644 118.424C242.811 118.169 243.089 118.026 243.38 118.026L243.381 118.025Z" fill="#0A0909"/>
<path d="M249.514 112.355C247.549 112.355 245.562 111.802 243.798 110.646C241.458 109.111 239.855 106.755 239.283 104.012C238.711 101.269 239.24 98.4663 240.771 96.1218C243.933 91.2814 250.434 89.9202 255.264 93.0882C260.094 96.2562 261.452 102.771 258.291 107.612C256.284 110.684 252.931 112.355 249.515 112.355H249.514ZM244.227 109.989C248.696 112.92 254.711 111.661 257.636 107.182C260.56 102.704 259.304 96.6754 254.835 93.745C250.366 90.8139 244.351 92.0731 241.426 96.5516C240.01 98.721 239.52 101.314 240.05 103.851C240.579 106.389 242.062 108.569 244.227 109.989Z" fill="#0A0909"/>
<path d="M111.06 44.5718L114.548 39.2309C114.697 39.0022 114.633 38.6956 114.405 38.5459L111.591 36.7002C111.399 36.5746 111.322 36.3335 111.401 36.1177C112.049 34.3227 112.388 32.4616 112.436 30.6064C112.442 30.3765 112.601 30.1808 112.826 30.1337L116.121 29.4439C116.388 29.3879 116.559 29.1256 116.504 28.8586L115.201 22.6104C115.145 22.3427 114.884 22.1712 114.617 22.2272L111.322 22.9169C111.097 22.9641 110.874 22.8479 110.776 22.6399C109.991 20.9592 108.937 19.3899 107.626 18.0046C107.468 17.8377 107.442 17.5866 107.567 17.3944L109.409 14.5742C109.558 14.3455 109.494 14.039 109.266 13.8892L103.936 10.394C103.708 10.2443 103.402 10.3086 103.253 10.5373L101.411 13.3575C101.286 13.5497 101.045 13.6263 100.83 13.5479C99.0388 12.8983 97.1818 12.5575 95.3306 12.5098C95.1012 12.5039 94.9059 12.3447 94.8588 12.1195L94.1706 8.81712C94.1147 8.54948 93.8529 8.37793 93.5865 8.43394L87.3518 9.7391C87.0847 9.79511 86.9135 10.0574 86.9694 10.3245L87.6577 13.6269C87.7047 13.8521 87.5888 14.0761 87.3812 14.1734C85.7041 14.9604 84.1382 16.0168 82.7559 17.3308C82.5894 17.4887 82.3388 17.5153 82.1471 17.3897L79.3329 15.544C79.1047 15.3942 78.7988 15.4585 78.6494 15.6872L75.1618 21.0281C75.0124 21.2569 75.0765 21.5634 75.3047 21.7132L78.1188 23.5589C78.3106 23.6845 78.3871 23.9256 78.3088 24.1413C77.6606 25.9364 77.3212 27.7974 77.2729 29.6526C77.2671 29.8825 77.1082 30.0782 76.8835 30.1254L73.5882 30.8151C73.3212 30.8711 73.15 31.1335 73.2059 31.4005L74.5082 37.6487C74.5641 37.9163 74.8259 38.0879 75.0924 38.0319L78.3876 37.3421C78.6124 37.295 78.8359 37.4111 78.9329 37.6192C79.7182 39.2999 80.7724 40.8692 82.0835 42.2539C82.2412 42.4207 82.2677 42.6719 82.1424 42.864L80.3006 45.6842C80.1512 45.913 80.2153 46.2195 80.4435 46.3692L85.7729 49.8644C86.0012 50.0142 86.3071 49.9499 86.4565 49.7212L88.2982 46.901C88.4235 46.7088 88.6641 46.6322 88.8794 46.7106C90.6706 47.3602 92.5277 47.7003 94.3788 47.7487C94.6082 47.7546 94.8035 47.9137 94.8506 48.1389L95.5388 51.4419C95.5947 51.7096 95.8565 51.8811 96.1229 51.8251L102.358 50.52C102.625 50.464 102.796 50.2016 102.74 49.9346L102.052 46.6316C102.005 46.4064 102.121 46.1824 102.328 46.0851C104.005 45.2981 105.571 44.2417 106.954 42.9277C107.12 42.7697 107.371 42.7432 107.562 42.8688L110.376 44.7145C110.605 44.8642 110.911 44.8 111.06 44.5713V44.5718ZM89.3771 38.5306C84.9941 35.6561 83.3394 29.1686 86.2077 24.7762C89.0759 20.3838 95.99 18.8039 100.372 21.6784C104.755 24.5528 106.154 31.2667 103.286 35.6591C100.418 40.0515 93.7594 41.405 89.3765 38.53L89.3771 38.5306Z" fill="#D3D8EB"/>
<path d="M107.954 19.4637C107.829 19.6559 107.855 19.907 108.013 20.0738C109.324 21.4592 110.378 23.0279 111.164 24.7091C111.261 24.9172 111.485 25.0334 111.709 24.9862L115.004 24.2965C115.271 24.2405 115.533 24.412 115.588 24.6796L116.58 29.4358C116.666 29.325 116.71 29.1823 116.679 29.0337L115.377 22.7856C115.321 22.5179 115.059 22.3464 114.793 22.4024L111.497 23.0921C111.273 23.1393 111.049 23.0231 110.952 22.815C110.286 21.389 109.414 20.0514 108.368 18.8306L107.954 19.4643V19.4637Z" fill="white"/>
<path d="M87.1428 10.4991L87.454 11.9912C87.5234 11.9022 87.6187 11.8326 87.7375 11.8073L93.9722 10.5021C94.2393 10.4461 94.501 10.6176 94.5563 10.8853L95.2446 14.1877C95.2916 14.4129 95.4869 14.572 95.7163 14.5779C97.5675 14.6263 99.4246 14.9664 101.216 15.6161C101.432 15.6945 101.672 15.6178 101.797 15.4256L103.639 12.6054C103.788 12.3767 104.094 12.3125 104.322 12.4622L109.05 15.563L109.583 14.7483C109.732 14.5196 109.668 14.213 109.44 14.0633L104.11 10.5681C103.882 10.4184 103.576 10.4826 103.427 10.7114L101.585 13.5316C101.46 13.7237 101.219 13.8004 101.004 13.722C99.2128 13.0723 97.3557 12.7316 95.5046 12.6839C95.2752 12.678 95.0799 12.5188 95.0328 12.2936L94.3446 8.99119C94.2887 8.72355 94.0269 8.55201 93.7604 8.60801L87.5257 9.91318C87.2587 9.96918 87.0875 10.2315 87.1434 10.4986L87.1428 10.4991Z" fill="white"/>
<path d="M79.034 17.7559C79.1834 17.5271 79.4893 17.4629 79.7175 17.6126L82.5316 19.4583C82.7234 19.5845 82.974 19.558 83.1405 19.3994C84.5228 18.0854 86.0881 17.029 87.7658 16.242C87.9734 16.1447 88.0893 15.9201 88.0422 15.6955L87.7305 14.2C87.6834 14.2601 87.6269 14.3137 87.554 14.3479C85.8769 15.1349 84.311 16.1913 82.9287 17.5053C82.7622 17.6633 82.5116 17.6898 82.3199 17.5643L79.5057 15.7185C79.2775 15.5688 78.9716 15.633 78.8222 15.8618L75.3346 21.2027C75.1852 21.4314 75.2493 21.738 75.4775 21.8877L76.0787 22.2821L79.0346 17.7559H79.034Z" fill="white"/>
<path d="M96.0185 52.2285C95.8479 52.2285 95.6815 52.1789 95.5356 52.0834C95.3379 51.9537 95.2021 51.7545 95.1538 51.5222L94.4656 48.2198C94.4562 48.1744 94.4168 48.1432 94.3668 48.1414C92.4391 48.0913 90.5479 47.7341 88.7444 47.0797C88.6974 47.0626 88.6491 47.0774 88.6238 47.1163L86.7821 49.9365C86.5144 50.3456 85.965 50.4611 85.5562 50.1929L80.2268 46.6977C80.0291 46.568 79.8932 46.3688 79.845 46.1365C79.7968 45.9048 79.8415 45.6678 79.9709 45.4692L81.8126 42.649C81.8379 42.6101 81.8321 42.56 81.7974 42.524C80.4774 41.1298 79.3932 39.5352 78.5762 37.7856C78.555 37.7407 78.5109 37.7166 78.465 37.7266L75.1697 38.4163C74.9379 38.4647 74.7015 38.4199 74.5038 38.2902C74.3062 38.1605 74.1703 37.9612 74.1221 37.729L72.8197 31.4808C72.7715 31.2485 72.8162 31.0115 72.9456 30.8135C73.075 30.6154 73.2738 30.4792 73.5056 30.4309L76.8009 29.7412C76.8462 29.7317 76.8774 29.6922 76.8791 29.6421C76.9291 27.7103 77.2856 25.815 77.9385 24.0076C77.9556 23.9605 77.9409 23.9121 77.9021 23.8868L75.0879 22.041C74.8903 21.9113 74.7544 21.7121 74.7062 21.4798C74.6579 21.2475 74.7026 21.0106 74.8321 20.8125L78.3197 15.4716C78.4491 15.2735 78.6479 15.1373 78.8797 15.089C79.1115 15.0406 79.3479 15.0854 79.5456 15.2151L82.3597 17.0609C82.3985 17.0862 82.4485 17.0803 82.4844 17.0455C83.8756 15.7227 85.4668 14.6368 87.2126 13.8174C87.2574 13.7962 87.2815 13.752 87.2721 13.706L86.5838 10.4036C86.4838 9.9249 86.7915 9.45389 87.2691 9.35367L93.5038 8.0485C93.7356 8.00016 93.9721 8.04497 94.1697 8.17466C94.3674 8.30435 94.5032 8.5036 94.5515 8.73587L95.2397 12.0383C95.2491 12.0837 95.2885 12.1149 95.3385 12.1167C97.2662 12.1668 99.1574 12.524 100.961 13.1784C101.007 13.1955 101.056 13.1807 101.081 13.1418L102.923 10.3216C103.053 10.1236 103.251 9.98739 103.483 9.93905C103.715 9.89071 103.951 9.93551 104.149 10.0652L109.479 13.5604C109.887 13.828 110.002 14.3792 109.734 14.7883L107.893 17.6085C107.867 17.6474 107.873 17.6975 107.908 17.7335C109.228 19.1277 110.312 20.7223 111.129 22.472C111.15 22.5168 111.194 22.5403 111.24 22.5315L114.536 21.8418C114.767 21.7934 115.004 21.8382 115.201 21.9679C115.399 22.0976 115.535 22.2969 115.583 22.5291L116.886 28.7773C116.986 29.256 116.678 29.727 116.2 29.8272L112.904 30.5169C112.859 30.5264 112.828 30.5659 112.826 30.616C112.776 32.5478 112.42 34.4431 111.767 36.2505C111.75 36.2976 111.764 36.346 111.803 36.3713L114.617 38.2171C115.026 38.4847 115.141 39.0359 114.873 39.445L111.386 44.7859C111.256 44.984 111.057 45.1202 110.826 45.1685C110.594 45.2169 110.357 45.1721 110.16 45.0424L107.346 43.1966C107.307 43.1713 107.257 43.1772 107.221 43.212C105.83 44.5348 104.239 45.6207 102.493 46.4401C102.448 46.4613 102.424 46.5061 102.433 46.5515L103.121 49.8539C103.221 50.3326 102.914 50.8036 102.436 50.9038L96.2015 52.209C96.1409 52.222 96.0791 52.2279 96.0185 52.2279V52.2285ZM88.705 46.288C88.8068 46.288 88.9103 46.3057 89.0115 46.3422C90.7356 46.9677 92.5444 47.309 94.3879 47.3574C94.8015 47.368 95.1485 47.6568 95.2326 48.0595L95.9209 51.3619C95.9279 51.3961 95.9491 51.4161 95.965 51.4267C95.9809 51.4373 96.0074 51.4485 96.0421 51.4415L102.277 50.1363C102.332 50.1245 102.367 50.0703 102.356 50.0149L101.668 46.7124C101.584 46.3098 101.787 45.906 102.161 45.7303C103.831 44.9469 105.353 43.9082 106.683 42.6437C106.983 42.3584 107.433 42.3165 107.776 42.5411L110.59 44.3868C110.619 44.4063 110.648 44.4051 110.667 44.4016C110.686 44.3975 110.712 44.3868 110.731 44.3574L114.219 39.0164C114.239 38.987 114.237 38.9581 114.234 38.9392C114.23 38.9204 114.219 38.8938 114.19 38.8744L111.376 37.0286C111.033 36.8034 110.891 36.3743 111.032 35.984C111.656 34.2562 111.997 32.4434 112.045 30.5959C112.056 30.1815 112.344 29.8337 112.746 29.7494L116.041 29.0597C116.075 29.0526 116.095 29.0314 116.106 29.0155C116.116 28.9996 116.127 28.9724 116.12 28.9382L114.818 22.6901C114.811 22.6559 114.79 22.6358 114.774 22.6252C114.758 22.6146 114.731 22.6034 114.697 22.6105L111.401 23.3002C111 23.3839 110.597 23.1811 110.421 22.8056C109.64 21.132 108.603 19.6075 107.341 18.2741C107.057 17.9734 107.015 17.523 107.239 17.1794L109.081 14.3592C109.112 14.312 109.099 14.2483 109.051 14.2171L103.722 10.7219C103.693 10.7025 103.664 10.7036 103.645 10.7072C103.626 10.7113 103.6 10.7219 103.58 10.7514L101.739 13.5716C101.514 13.9153 101.086 14.0573 100.696 13.9159C98.9721 13.2904 97.1632 12.9491 95.3197 12.9007C94.9062 12.8901 94.5591 12.6013 94.475 12.1986L93.7868 8.89621C93.7797 8.86202 93.7585 8.84198 93.7426 8.83137C93.7268 8.82076 93.7003 8.80956 93.6656 8.81663L87.4309 10.1218C87.3756 10.1336 87.3403 10.1878 87.3515 10.2432L88.0397 13.5456C88.1238 13.9483 87.9209 14.3521 87.5462 14.5278C85.8762 15.3112 84.355 16.3499 83.0244 17.6144C82.7244 17.8997 82.275 17.9416 81.9321 17.717L79.1179 15.8713C79.0885 15.8518 79.0597 15.853 79.0409 15.8565C79.0221 15.8601 78.9956 15.8713 78.9762 15.9007L75.4885 21.2417C75.4691 21.2711 75.4703 21.3 75.4738 21.3189C75.4779 21.3377 75.4885 21.3643 75.5179 21.3837L78.3321 23.2295C78.675 23.4547 78.8168 23.8838 78.6756 24.2741C78.0515 26.0019 77.7109 27.8146 77.6626 29.6622C77.6521 30.0766 77.3638 30.4244 76.9621 30.5087L73.6668 31.1984C73.6115 31.2102 73.5762 31.2644 73.5874 31.3198L74.8897 37.568C74.8968 37.6022 74.9179 37.6223 74.9338 37.6329C74.9503 37.6435 74.9768 37.6547 75.0109 37.6476L78.3068 36.9579C78.7085 36.8742 79.1115 37.077 79.2868 37.4525C80.0685 39.1261 81.105 40.6506 82.3668 41.984C82.6515 42.2847 82.6932 42.7351 82.4691 43.0787L80.6274 45.8989C80.6079 45.9284 80.6091 45.9573 80.6127 45.9762C80.6168 45.995 80.6274 46.0215 80.6568 46.041L85.9862 49.5362C86.0156 49.5556 86.0444 49.5545 86.0632 49.5509C86.0821 49.5468 86.1085 49.5362 86.1279 49.5067L87.9697 46.6865C88.1362 46.4318 88.4144 46.288 88.7056 46.288H88.705Z" fill="#0A0909"/>
<path d="M94.8361 40.6175C92.8702 40.6175 90.8838 40.0646 89.1197 38.908C84.2897 35.7399 82.932 29.2247 86.0926 24.3843C89.2538 19.5439 95.7549 18.1827 100.585 21.3507C102.925 22.8852 104.528 25.2414 105.1 27.9844C105.671 30.7274 105.143 33.5299 103.611 35.8744C101.605 38.9469 98.252 40.6175 94.8355 40.6175H94.8361ZM89.5485 38.2512C94.0173 41.1823 100.033 39.9231 102.957 35.4446C104.374 33.2752 104.863 30.6826 104.334 28.1447C103.805 25.6069 102.321 23.4269 100.157 22.0074C95.6879 19.0764 89.6726 20.3356 86.7479 24.814C83.8232 29.2925 85.0797 35.3208 89.5485 38.2518V38.2512Z" fill="#0A0909"/>
<path d="M146.987 164.08L147.717 157.739C147.748 157.467 147.554 157.222 147.283 157.191L143.942 156.804C143.714 156.777 143.538 156.596 143.512 156.368C143.289 154.472 142.761 152.656 141.974 150.976C141.877 150.768 141.931 150.522 142.111 150.379L144.748 148.283C144.962 148.113 144.998 147.802 144.828 147.588L140.871 142.586C140.701 142.372 140.391 142.336 140.177 142.506L137.54 144.602C137.36 144.745 137.108 144.742 136.928 144.599C135.474 143.449 133.83 142.52 132.039 141.87C131.823 141.792 131.688 141.579 131.714 141.351L132.1 138.002C132.131 137.73 131.937 137.485 131.665 137.454L125.338 136.722C125.067 136.691 124.822 136.885 124.791 137.157L124.405 140.505C124.379 140.733 124.198 140.91 123.971 140.936C122.078 141.16 120.267 141.689 118.59 142.477C118.382 142.575 118.137 142.52 117.994 142.34L115.902 139.697C115.733 139.483 115.422 139.447 115.209 139.617L110.218 143.583C110.005 143.753 109.969 144.064 110.138 144.278L112.23 146.921C112.372 147.102 112.37 147.354 112.227 147.535C111.08 148.991 110.152 150.638 109.504 152.434C109.425 152.65 109.214 152.786 108.985 152.76L105.644 152.373C105.373 152.342 105.128 152.536 105.097 152.808L104.367 159.149C104.335 159.421 104.53 159.666 104.801 159.697L108.142 160.084C108.37 160.11 108.545 160.291 108.572 160.52C108.795 162.416 109.323 164.232 110.11 165.912C110.207 166.12 110.152 166.366 109.973 166.509L107.335 168.605C107.122 168.775 107.086 169.086 107.255 169.3L111.213 174.302C111.382 174.516 111.693 174.552 111.907 174.382L114.545 172.286C114.725 172.143 114.977 172.146 115.157 172.288C116.61 173.439 118.254 174.368 120.045 175.018C120.261 175.096 120.397 175.309 120.371 175.537L119.985 178.886C119.954 179.157 120.148 179.403 120.419 179.434L126.746 180.166C127.017 180.197 127.262 180.003 127.293 179.731L127.679 176.383C127.705 176.154 127.886 175.978 128.114 175.952C130.006 175.728 131.818 175.199 133.494 174.411C133.702 174.313 133.948 174.368 134.09 174.547L136.182 177.191C136.351 177.405 136.662 177.441 136.875 177.272L141.866 173.305C142.08 173.136 142.115 172.824 141.946 172.61L139.854 169.966C139.712 169.786 139.715 169.534 139.857 169.353C141.005 167.897 141.932 166.25 142.581 164.454C142.659 164.238 142.871 164.102 143.099 164.128L146.44 164.515C146.711 164.546 146.956 164.351 146.987 164.08H146.987ZM124.901 168.414C119.697 167.812 115.318 162.754 115.918 157.54C116.519 152.325 121.994 147.809 127.197 148.411C132.401 149.013 136.653 154.388 136.052 159.602C135.452 164.816 130.104 169.016 124.901 168.414Z" fill="#BFD166"/>
<path d="M132.984 143.027C132.957 143.255 133.093 143.467 133.309 143.546C135.101 144.196 136.744 145.125 138.198 146.275C138.378 146.418 138.63 146.421 138.81 146.278L141.447 144.182C141.661 144.012 141.971 144.048 142.141 144.262L145.153 148.069C145.181 147.931 145.156 147.784 145.062 147.665L141.104 142.664C140.935 142.45 140.624 142.414 140.411 142.584L137.773 144.68C137.593 144.823 137.341 144.82 137.161 144.677C135.928 143.702 134.551 142.897 133.07 142.275L132.984 143.027V143.027Z" fill="white"/>
<path d="M110.373 144.355L111.318 145.55C111.34 145.439 111.394 145.334 111.489 145.258L116.48 141.292C116.693 141.122 117.004 141.158 117.173 141.372L119.265 144.016C119.407 144.196 119.653 144.25 119.861 144.152C121.537 143.364 123.35 142.835 125.241 142.611C125.469 142.584 125.65 142.409 125.676 142.181L126.062 138.832C126.093 138.56 126.338 138.366 126.609 138.397L132.223 139.047L132.334 138.079C132.365 137.808 132.171 137.562 131.9 137.531L125.573 136.799C125.301 136.768 125.057 136.962 125.025 137.234L124.64 140.582C124.613 140.811 124.433 140.987 124.205 141.013C122.313 141.237 120.501 141.766 118.824 142.554C118.617 142.652 118.371 142.597 118.228 142.418L116.137 139.774C115.967 139.56 115.657 139.524 115.443 139.694L110.453 143.66C110.239 143.83 110.203 144.141 110.373 144.355Z" fill="white"/>
<path d="M106.367 154.484C106.399 154.212 106.644 154.017 106.914 154.048L110.256 154.435C110.483 154.462 110.696 154.326 110.774 154.109C111.422 152.314 112.349 150.666 113.497 149.21C113.64 149.029 113.643 148.777 113.5 148.597L112.553 147.399C112.538 147.474 112.512 147.547 112.462 147.611C111.314 149.068 110.386 150.715 109.738 152.51C109.66 152.727 109.448 152.862 109.22 152.836L105.879 152.45C105.607 152.418 105.363 152.613 105.332 152.885L104.601 159.226C104.57 159.497 104.764 159.743 105.035 159.774L105.749 159.856L106.367 154.483V154.484Z" fill="white"/>
<path d="M126.801 180.561C126.768 180.561 126.734 180.559 126.699 180.555L120.372 179.823C120.137 179.796 119.926 179.678 119.779 179.493C119.632 179.307 119.566 179.075 119.594 178.84L119.979 175.491C119.985 175.445 119.957 175.403 119.91 175.386C118.106 174.732 116.425 173.793 114.912 172.596C114.873 172.565 114.822 172.564 114.786 172.593L112.148 174.689C111.962 174.837 111.731 174.903 111.496 174.876C111.261 174.849 111.051 174.731 110.904 174.546L106.946 169.544C106.642 169.161 106.707 168.602 107.089 168.298L109.727 166.202C109.764 166.173 109.774 166.123 109.752 166.079C108.934 164.329 108.405 162.474 108.181 160.565C108.175 160.516 108.14 160.479 108.094 160.473L104.753 160.087C104.518 160.06 104.308 159.942 104.161 159.757C104.014 159.571 103.948 159.339 103.975 159.103L104.705 152.763C104.732 152.528 104.849 152.316 105.035 152.169C105.22 152.022 105.451 151.956 105.686 151.983L109.028 152.37C109.073 152.375 109.116 152.347 109.132 152.3C109.785 150.493 110.722 148.807 111.916 147.291C111.947 147.252 111.948 147.201 111.919 147.165L109.828 144.521C109.681 144.336 109.615 144.104 109.642 143.868C109.669 143.633 109.786 143.422 109.971 143.275L114.962 139.308C115.344 139.004 115.902 139.069 116.205 139.452L118.297 142.096C118.326 142.132 118.375 142.142 118.42 142.121C120.166 141.3 122.016 140.77 123.921 140.546C123.971 140.54 124.008 140.505 124.013 140.459L124.399 137.111C124.455 136.625 124.895 136.275 125.38 136.331L131.707 137.064C131.942 137.091 132.152 137.208 132.299 137.394C132.446 137.579 132.512 137.811 132.485 138.047L132.099 141.395C132.094 141.441 132.122 141.484 132.169 141.5C133.972 142.154 135.654 143.093 137.167 144.29C137.206 144.321 137.256 144.322 137.293 144.293L139.931 142.197C140.314 141.893 140.872 141.958 141.175 142.341L145.132 147.342C145.436 147.725 145.371 148.285 144.989 148.588L142.351 150.685C142.315 150.714 142.305 150.763 142.326 150.808C143.145 152.557 143.674 154.412 143.898 156.321C143.904 156.371 143.938 156.407 143.984 156.412L147.325 156.799C147.56 156.826 147.771 156.944 147.918 157.129C148.065 157.315 148.131 157.547 148.104 157.782L147.373 164.123C147.317 164.609 146.878 164.959 146.392 164.902L143.051 164.516C143.005 164.511 142.962 164.539 142.946 164.585C142.294 166.393 141.356 168.078 140.162 169.594C140.131 169.633 140.13 169.684 140.159 169.72L142.251 172.364C142.398 172.55 142.464 172.781 142.436 173.017C142.409 173.252 142.292 173.463 142.107 173.611L137.116 177.577C136.734 177.881 136.176 177.816 135.873 177.433L133.781 174.79C133.752 174.753 133.703 174.743 133.658 174.764C131.912 175.585 130.062 176.115 128.157 176.339C128.108 176.345 128.071 176.38 128.065 176.426L127.679 179.775C127.628 180.226 127.244 180.56 126.801 180.56L126.801 180.561ZM114.845 171.787C115.039 171.787 115.234 171.851 115.397 171.98C116.844 173.125 118.452 174.023 120.176 174.648C120.565 174.789 120.804 175.173 120.757 175.581L120.371 178.93C120.367 178.965 120.381 178.99 120.393 179.005C120.405 179.021 120.426 179.039 120.461 179.044L126.788 179.776C126.844 179.782 126.895 179.742 126.902 179.685L127.288 176.337C127.335 175.929 127.655 175.61 128.065 175.561C129.886 175.346 131.656 174.84 133.326 174.055C133.701 173.879 134.14 173.981 134.395 174.303L136.486 176.947C136.508 176.975 136.536 176.983 136.555 176.986C136.574 176.988 136.602 176.986 136.63 176.964L141.621 172.998C141.665 172.962 141.672 172.898 141.637 172.854L139.545 170.21C139.29 169.887 139.291 169.435 139.548 169.11C140.691 167.66 141.586 166.048 142.21 164.32C142.351 163.93 142.733 163.691 143.141 163.738L146.482 164.124C146.538 164.131 146.589 164.09 146.596 164.034L147.326 157.693C147.331 157.659 147.317 157.633 147.305 157.618C147.294 157.603 147.272 157.584 147.237 157.58L143.896 157.193C143.488 157.146 143.17 156.826 143.122 156.414C142.907 154.588 142.401 152.815 141.618 151.142C141.442 150.766 141.545 150.326 141.866 150.07L144.504 147.974C144.531 147.952 144.539 147.925 144.542 147.906C144.544 147.886 144.542 147.858 144.521 147.83L140.563 142.829C140.528 142.785 140.464 142.777 140.419 142.812L137.782 144.909C137.46 145.165 137.009 145.163 136.684 144.906C135.237 143.761 133.629 142.863 131.905 142.238C131.516 142.097 131.277 141.714 131.324 141.305L131.71 137.957C131.714 137.922 131.701 137.897 131.688 137.881C131.676 137.866 131.655 137.847 131.62 137.843L125.293 137.111C125.236 137.104 125.186 137.145 125.179 137.201L124.794 140.549C124.746 140.958 124.426 141.277 124.016 141.325C122.195 141.54 120.425 142.047 118.755 142.831C118.381 143.008 117.941 142.905 117.686 142.583L115.595 139.94C115.573 139.912 115.545 139.904 115.526 139.901C115.508 139.899 115.479 139.901 115.451 139.923L110.461 143.89C110.416 143.925 110.409 143.989 110.444 144.033L112.536 146.677C112.791 146.999 112.79 147.452 112.534 147.777C111.391 149.227 110.495 150.839 109.871 152.567C109.731 152.957 109.348 153.197 108.94 153.149L105.599 152.763C105.564 152.759 105.539 152.772 105.524 152.785C105.508 152.796 105.489 152.818 105.485 152.853L104.755 159.194C104.751 159.228 104.764 159.254 104.776 159.269C104.788 159.284 104.81 159.303 104.845 159.307L108.186 159.694C108.594 159.741 108.912 160.062 108.96 160.473C109.175 162.299 109.681 164.072 110.464 165.745C110.639 166.121 110.537 166.561 110.216 166.817L107.578 168.913C107.551 168.935 107.542 168.962 107.54 168.981C107.538 169.001 107.54 169.029 107.561 169.057L111.519 174.058C111.541 174.086 111.568 174.094 111.587 174.096C111.606 174.099 111.635 174.096 111.662 174.075L114.3 171.978C114.461 171.851 114.653 171.787 114.846 171.787L114.845 171.787Z" fill="#0A0909"/>
<path d="M126.061 168.936C125.656 168.936 125.248 168.913 124.84 168.866C122.063 168.544 119.576 167.158 117.838 164.962C116.1 162.766 115.32 160.024 115.641 157.24C115.961 154.456 117.345 151.964 119.536 150.223C121.727 148.482 124.464 147.7 127.241 148.021C130.019 148.343 132.506 149.729 134.244 151.925C135.981 154.121 136.761 156.863 136.441 159.647C136.12 162.431 134.737 164.923 132.546 166.664C130.677 168.149 128.411 168.936 126.061 168.936ZM126.021 148.735C123.847 148.735 121.751 149.464 120.022 150.838C117.995 152.449 116.715 154.755 116.418 157.33C116.122 159.906 116.844 162.443 118.451 164.474C120.059 166.506 122.36 167.789 124.93 168.086C127.5 168.383 130.031 167.66 132.058 166.048C134.086 164.437 135.366 162.132 135.662 159.556C135.958 156.981 135.237 154.443 133.629 152.412C132.021 150.381 129.721 149.098 127.151 148.801C126.773 148.757 126.395 148.735 126.021 148.735H126.021Z" fill="#0A0909"/>
<path d="M226.235 161.532L227.326 156.126C227.372 155.894 227.223 155.669 226.992 155.622L224.143 155.045C223.949 155.005 223.811 154.837 223.805 154.638C223.751 152.989 223.428 151.387 222.873 149.882C222.805 149.696 222.869 149.488 223.035 149.378L225.459 147.765C225.655 147.635 225.709 147.369 225.578 147.172L222.535 142.577C222.404 142.38 222.139 142.326 221.943 142.457L219.519 144.069C219.353 144.179 219.137 144.158 218.992 144.022C217.825 142.926 216.477 142.005 214.982 141.315C214.802 141.231 214.7 141.039 214.739 140.843L215.315 137.989C215.362 137.757 215.212 137.532 214.982 137.484L209.587 136.392C209.356 136.345 209.131 136.495 209.084 136.726L208.508 139.581C208.469 139.775 208.3 139.914 208.102 139.92C206.457 139.974 204.858 140.298 203.357 140.854C203.171 140.923 202.963 140.858 202.853 140.692L201.245 138.263C201.114 138.066 200.849 138.012 200.653 138.143L196.067 141.193C195.87 141.324 195.817 141.589 195.948 141.786L197.556 144.215C197.666 144.381 197.645 144.598 197.509 144.743C196.415 145.913 195.496 147.264 194.808 148.762C194.725 148.943 194.532 149.044 194.338 149.005L191.489 148.428C191.258 148.382 191.033 148.531 190.986 148.762L189.895 154.169C189.849 154.4 189.998 154.626 190.229 154.673L193.078 155.25C193.272 155.289 193.41 155.458 193.416 155.657C193.47 157.305 193.793 158.908 194.348 160.412C194.416 160.598 194.352 160.807 194.186 160.916L191.762 162.528C191.566 162.659 191.512 162.925 191.643 163.122L194.686 167.717C194.817 167.914 195.082 167.968 195.278 167.837L197.702 166.225C197.868 166.115 198.084 166.136 198.229 166.272C199.396 167.368 200.744 168.289 202.239 168.979C202.419 169.063 202.52 169.255 202.482 169.45L201.906 172.305C201.859 172.537 202.009 172.762 202.239 172.809L207.634 173.902C207.865 173.949 208.09 173.799 208.137 173.568L208.713 170.713C208.752 170.519 208.92 170.38 209.119 170.374C210.764 170.32 212.363 169.996 213.864 169.44C214.05 169.371 214.258 169.436 214.368 169.602L215.976 172.031C216.107 172.228 216.372 172.282 216.568 172.151L221.154 169.101C221.35 168.97 221.404 168.705 221.273 168.508L219.665 166.078C219.555 165.913 219.576 165.696 219.712 165.551C220.806 164.381 221.725 163.03 222.413 161.532C222.496 161.351 222.689 161.25 222.883 161.289L225.732 161.866C225.963 161.912 226.188 161.763 226.235 161.532V161.532ZM206.903 163.649C202.466 162.75 199.063 158.075 199.96 153.629C200.858 149.183 205.9 145.694 210.337 146.593C214.773 147.492 218.043 152.43 217.146 156.876C216.249 161.322 211.339 164.547 206.902 163.648L206.903 163.649Z" fill="#D3D8EB"/>
<path d="M215.712 142.381C215.672 142.576 215.774 142.769 215.954 142.852C217.449 143.542 218.797 144.463 219.964 145.56C220.109 145.695 220.326 145.717 220.491 145.607L222.915 143.995C223.112 143.864 223.376 143.917 223.507 144.114L225.823 147.612C225.857 147.496 225.847 147.367 225.774 147.258L222.731 142.662C222.6 142.465 222.336 142.412 222.139 142.543L219.715 144.155C219.55 144.265 219.333 144.244 219.189 144.108C218.198 143.178 217.071 142.383 215.841 141.74L215.712 142.381Z" fill="white"/>
<path d="M196.145 141.87L196.872 142.968C196.899 142.874 196.953 142.788 197.041 142.73L201.627 139.68C201.823 139.549 202.088 139.603 202.219 139.8L203.827 142.229C203.937 142.395 204.144 142.459 204.331 142.39C205.832 141.835 207.431 141.511 209.076 141.457C209.274 141.451 209.443 141.312 209.482 141.118L210.058 138.263C210.104 138.031 210.33 137.881 210.561 137.928L215.347 138.898L215.513 138.073C215.56 137.842 215.41 137.617 215.18 137.569L209.785 136.477C209.554 136.43 209.329 136.58 209.282 136.811L208.706 139.666C208.667 139.86 208.499 139.999 208.3 140.005C206.655 140.059 205.056 140.383 203.555 140.938C203.369 141.007 203.162 140.943 203.052 140.777L201.443 138.348C201.312 138.151 201.047 138.097 200.851 138.228L196.265 141.278C196.069 141.409 196.015 141.674 196.146 141.871L196.145 141.87Z" fill="white"/>
<path d="M191.96 150.299C192.007 150.067 192.232 149.917 192.463 149.964L195.312 150.542C195.506 150.581 195.699 150.479 195.782 150.299C196.471 148.8 197.389 147.45 198.484 146.279C198.62 146.134 198.64 145.918 198.531 145.752L197.803 144.652C197.784 144.716 197.756 144.776 197.709 144.828C196.614 145.998 195.696 147.348 195.007 148.847C194.924 149.027 194.731 149.129 194.537 149.09L191.688 148.513C191.457 148.466 191.232 148.616 191.185 148.847L190.094 154.253C190.048 154.485 190.197 154.711 190.428 154.757L191.037 154.88L191.961 150.299H191.96Z" fill="white"/>
<path d="M207.718 174.395C207.658 174.395 207.597 174.389 207.536 174.377L202.141 173.284C201.65 173.184 201.33 172.702 201.43 172.209L201.997 169.402C200.505 168.708 199.137 167.784 197.928 166.655L195.544 168.241C195.126 168.519 194.56 168.404 194.282 167.986L191.239 163.39C191.105 163.187 191.057 162.944 191.105 162.705C191.154 162.466 191.292 162.26 191.494 162.126L193.878 160.54C193.31 158.985 192.992 157.363 192.934 155.716L190.132 155.148C189.894 155.1 189.688 154.961 189.554 154.758C189.42 154.555 189.372 154.312 189.421 154.073L190.511 148.667C190.611 148.174 191.091 147.854 191.584 147.954L194.385 148.522C195.078 147.027 196 145.656 197.126 144.444L195.544 142.054C195.41 141.852 195.362 141.608 195.41 141.369C195.458 141.131 195.597 140.925 195.799 140.79L200.385 137.74C200.587 137.606 200.83 137.558 201.068 137.607C201.307 137.655 201.512 137.793 201.646 137.996L203.228 140.386C204.78 139.816 206.399 139.498 208.042 139.439L208.609 136.632C208.657 136.393 208.795 136.187 208.998 136.053C209.2 135.918 209.443 135.87 209.681 135.919L215.076 137.012C215.568 137.111 215.887 137.594 215.787 138.086L215.221 140.894C216.712 141.587 218.081 142.511 219.29 143.641L221.674 142.055C221.877 141.921 222.12 141.873 222.358 141.921C222.596 141.969 222.801 142.108 222.935 142.311L225.979 146.907C226.113 147.109 226.161 147.353 226.112 147.592C226.064 147.83 225.926 148.036 225.724 148.17L223.34 149.756C223.908 151.311 224.226 152.934 224.284 154.581L227.086 155.148C227.324 155.197 227.53 155.335 227.664 155.538C227.798 155.741 227.845 155.984 227.797 156.223L226.707 161.63C226.607 162.122 226.127 162.442 225.634 162.343L222.832 161.775C222.14 163.27 221.218 164.641 220.092 165.853L221.674 168.243C221.808 168.445 221.856 168.689 221.808 168.928C221.76 169.166 221.621 169.372 221.419 169.506L216.833 172.557C216.415 172.834 215.85 172.72 215.572 172.301L213.99 169.911C212.438 170.482 210.819 170.8 209.175 170.858L208.609 173.666C208.561 173.905 208.422 174.111 208.22 174.245C208.069 174.345 207.896 174.397 207.719 174.397L207.718 174.395ZM202.388 172.346L207.672 173.416L208.237 170.617C208.321 170.202 208.676 169.903 209.101 169.889C210.669 169.838 212.214 169.534 213.694 168.985C214.092 168.838 214.534 168.981 214.768 169.333L216.345 171.715L220.837 168.728L219.26 166.346C219.026 165.993 219.066 165.53 219.357 165.22C220.435 164.066 221.315 162.757 221.972 161.329C222.15 160.942 222.562 160.731 222.976 160.814L225.77 161.38L226.838 156.085L224.044 155.519C223.631 155.435 223.332 155.08 223.318 154.653C223.267 153.082 222.964 151.533 222.417 150.05C222.27 149.65 222.412 149.208 222.764 148.974L225.141 147.393L222.16 142.891L219.783 144.473C219.431 144.707 218.97 144.666 218.66 144.375C217.508 143.294 216.202 142.412 214.777 141.754C214.391 141.576 214.18 141.162 214.264 140.748L214.828 137.948L209.544 136.878L208.98 139.677C208.896 140.092 208.541 140.391 208.116 140.405C206.548 140.456 205.002 140.76 203.522 141.309C203.124 141.456 202.682 141.313 202.449 140.96L200.871 138.578L196.38 141.566L197.957 143.948C198.191 144.3 198.151 144.764 197.86 145.074C196.781 146.228 195.901 147.537 195.245 148.965C195.067 149.352 194.654 149.563 194.241 149.48L191.447 148.914L190.379 154.209L193.172 154.775C193.586 154.859 193.884 155.215 193.898 155.641C193.95 157.212 194.253 158.762 194.8 160.244C194.947 160.644 194.804 161.086 194.452 161.32L192.075 162.901L195.057 167.403L197.434 165.821C197.785 165.587 198.248 165.628 198.557 165.919C199.708 167 201.015 167.882 202.44 168.54C202.825 168.718 203.037 169.132 202.953 169.546L202.388 172.346Z" fill="#0A0909"/>
<path d="M208.613 164.36C208.011 164.36 207.401 164.3 206.789 164.176C201.821 163.169 198.597 158.3 199.601 153.322C200.605 148.343 205.464 145.112 210.432 146.118C215.399 147.125 218.624 151.994 217.619 156.972C216.739 161.337 212.895 164.359 208.613 164.359V164.36ZM206.98 163.227C211.425 164.127 215.773 161.236 216.672 156.781C217.571 152.326 214.685 147.969 210.24 147.068C205.795 146.167 201.447 149.059 200.548 153.514C199.649 157.969 202.535 162.326 206.98 163.227V163.227Z" fill="#0A0909"/>
<path d="M212.371 40.4615V14.9323C212.371 13.2882 213.701 11.9553 215.342 11.9553H243.316C244.957 11.9553 246.287 13.2882 246.287 14.9323V52.0529C246.287 53.6971 244.957 55.0299 243.316 55.0299H223.748L212.372 40.4615H212.371Z" fill="#BFD166"/>
<path d="M213.998 42.0166V16.4875C213.998 14.8433 215.328 13.5105 216.969 13.5105H244.944C245.118 13.5105 245.578 13.5329 245.744 13.5617C245.315 12.447 244.138 11.897 242.875 11.897L215.789 11.9247C214.148 11.9247 212.373 13.1886 212.373 14.8327L212 40.2121L223.117 54.727H223.924L213.998 42.0166Z" fill="white"/>
<path d="M243.318 55.4225H223.749C223.532 55.4225 223.357 55.2468 223.357 55.0299C223.357 54.8129 223.532 54.6373 223.749 54.6373H243.318C244.739 54.6373 245.896 53.4777 245.896 52.0529V14.9323C245.896 13.5074 244.739 12.3479 243.318 12.3479H215.343C213.921 12.3479 212.764 13.5074 212.764 14.9323V40.2121C212.764 40.429 212.589 40.6047 212.372 40.6047C212.156 40.6047 211.98 40.429 211.98 40.2121V14.9323C211.98 13.0747 213.489 11.5632 215.342 11.5632H243.317C245.17 11.5632 246.679 13.0747 246.679 14.9323V52.0529C246.679 53.9104 245.17 55.4219 243.317 55.4219L243.318 55.4225Z" fill="#0A0909"/>
<path d="M240.379 18.23H218.282C218.066 18.23 217.891 18.0544 217.891 17.8374C217.891 17.6205 218.066 17.4448 218.282 17.4448H240.379C240.595 17.4448 240.771 17.6205 240.771 17.8374C240.771 18.0544 240.595 18.23 240.379 18.23Z" fill="#0A0909"/>
<path d="M240.379 26.0574H218.282C218.066 26.0574 217.891 25.8818 217.891 25.6648C217.891 25.4479 218.066 25.2722 218.282 25.2722H240.379C240.595 25.2722 240.771 25.4479 240.771 25.6648C240.771 25.8818 240.595 26.0574 240.379 26.0574Z" fill="#0A0909"/>
<path d="M240.379 33.8848H218.282C218.066 33.8848 217.891 33.7092 217.891 33.4922C217.891 33.2753 218.066 33.0996 218.282 33.0996H240.379C240.595 33.0996 240.771 33.2753 240.771 33.4922C240.771 33.7092 240.595 33.8848 240.379 33.8848Z" fill="#0A0909"/>
<path d="M240.379 41.713H222.818C222.601 41.713 222.426 41.5373 222.426 41.3203C222.426 41.1034 222.601 40.9277 222.818 40.9277H240.379C240.595 40.9277 240.77 41.1034 240.77 41.3203C240.77 41.5373 240.595 41.713 240.379 41.713Z" fill="#0A0909"/>
<path d="M235.113 42.3077V19.8894C235.113 18.2452 236.443 16.9124 238.084 16.9124H266.059C267.699 16.9124 269.029 18.2452 269.029 19.8894V57.01C269.029 58.6541 267.699 59.987 266.059 59.987H246.49L235.114 42.3077H235.113Z" fill="white"/>
<path d="M266.06 60.3798H250.597C250.381 60.3798 250.206 60.2041 250.206 59.9872C250.206 59.7702 250.381 59.5945 250.597 59.5945H266.06C267.481 59.5945 268.639 58.435 268.639 57.0101V19.8895C268.639 18.4647 267.481 17.3051 266.06 17.3051H238.085C236.663 17.3051 235.506 18.4647 235.506 19.8895V42.3079C235.506 42.5248 235.331 42.7005 235.114 42.7005C234.898 42.7005 234.723 42.5248 234.723 42.3079V19.8895C234.723 18.032 236.231 16.5205 238.084 16.5205H266.059C267.913 16.5205 269.421 18.032 269.421 19.8895V57.0101C269.421 58.8677 267.913 60.3792 266.059 60.3792L266.06 60.3798Z" fill="#0A0909"/>
<path d="M263.121 23.1871H241.025C240.808 23.1871 240.633 23.0114 240.633 22.7945C240.633 22.5775 240.808 22.4019 241.025 22.4019H263.121C263.338 22.4019 263.513 22.5775 263.513 22.7945C263.513 23.0114 263.338 23.1871 263.121 23.1871Z" fill="#0A0909"/>
<path d="M263.121 31.0145H241.025C240.808 31.0145 240.633 30.8388 240.633 30.6219C240.633 30.4049 240.808 30.2292 241.025 30.2292H263.121C263.338 30.2292 263.513 30.4049 263.513 30.6219C263.513 30.8388 263.338 31.0145 263.121 31.0145Z" fill="#0A0909"/>
<path d="M263.121 38.8421H241.025C240.808 38.8421 240.633 38.6664 240.633 38.4495C240.633 38.2326 240.808 38.0569 241.025 38.0569H263.121C263.338 38.0569 263.513 38.2326 263.513 38.4495C263.513 38.6664 263.338 38.8421 263.121 38.8421Z" fill="#0A0909"/>
<path d="M263.121 46.67H245.56C245.343 46.67 245.168 46.4943 245.168 46.2774C245.168 46.0604 245.343 45.8848 245.56 45.8848H263.121C263.337 45.8848 263.513 46.0604 263.513 46.2774C263.513 46.4943 263.337 46.67 263.121 46.67Z" fill="#0A0909"/>
<path d="M263.12 54.4976H246.489C246.273 54.4976 246.098 54.322 246.098 54.105C246.098 53.8881 246.273 53.7124 246.489 53.7124H263.12C263.336 53.7124 263.512 53.8881 263.512 54.105C263.512 54.322 263.336 54.4976 263.12 54.4976Z" fill="#0A0909"/>
<path d="M244.251 30.3926H63.6584C60.7361 30.3926 58.3672 32.7666 58.3672 35.6952V158.715C58.3672 161.643 60.7361 164.017 63.6584 164.017H244.251C247.174 164.017 249.542 161.643 249.542 158.715V35.6952C249.542 32.7666 247.174 30.3926 244.251 30.3926Z" fill="white"/>
<path d="M118.255 56.7147H75.7199C75.5034 56.7147 75.3281 56.539 75.3281 56.3221C75.3281 56.1051 75.5034 55.9294 75.7199 55.9294H118.255C118.472 55.9294 118.647 56.1051 118.647 56.3221C118.647 56.539 118.472 56.7147 118.255 56.7147Z" fill="#0A0909"/>
<path d="M212.694 56.7147H192.13C191.914 56.7147 191.738 56.539 191.738 56.3221C191.738 56.1051 191.914 55.9294 192.13 55.9294H212.694C212.91 55.9294 213.085 56.1051 213.085 56.3221C213.085 56.539 212.91 56.7147 212.694 56.7147Z" fill="#0A0909"/>
<path d="M130.885 147.018H104.72C104.503 147.018 104.328 146.842 104.328 146.626C104.328 146.409 104.503 146.233 104.72 146.233H130.885C131.102 146.233 131.277 146.409 131.277 146.626C131.277 146.842 131.102 147.018 130.885 147.018Z" fill="#0A0909"/>
<path d="M147.255 138.388H104.72C104.503 138.388 104.328 138.212 104.328 137.995C104.328 137.778 104.503 137.603 104.72 137.603H147.255C147.472 137.603 147.647 137.778 147.647 137.995C147.647 138.212 147.472 138.388 147.255 138.388Z" fill="#0A0909"/>
<path d="M249.543 41.9098V35.6952C249.543 32.7665 247.174 30.3926 244.252 30.3926H63.6584C60.736 30.3926 58.3672 32.7665 58.3672 35.6952V41.9098H249.542H249.543Z" fill="#BFD166"/>
<path d="M241.705 38.2501C242.37 37.5831 242.37 36.5018 241.705 35.8349C241.039 35.1679 239.96 35.1679 239.295 35.8349C238.629 36.5018 238.629 37.5831 239.295 38.2501C239.96 38.917 241.039 38.917 241.705 38.2501Z" fill="#D3D8EB"/>
<path d="M233.357 38.2496C234.023 37.5826 234.023 36.5013 233.357 35.8344C232.692 35.1674 231.613 35.1674 230.947 35.8344C230.282 36.5013 230.282 37.5827 230.947 38.2496C231.613 38.9165 232.692 38.9165 233.357 38.2496Z" fill="white"/>
<path d="M223.805 39.0896C222.678 39.0896 221.762 38.1711 221.762 37.0422C221.762 35.9133 222.678 34.9949 223.805 34.9949C224.931 34.9949 225.848 35.9133 225.848 37.0422C225.848 38.1711 224.931 39.0896 223.805 39.0896ZM223.805 35.6734C223.052 35.6734 222.439 36.2877 222.439 37.0422C222.439 37.7968 223.052 38.4111 223.805 38.4111C224.558 38.4111 225.171 37.7968 225.171 37.0422C225.171 36.2877 224.558 35.6734 223.805 35.6734Z" fill="#0A0909"/>
<path d="M61.1825 41.9097V38.5537C61.1825 35.625 63.5513 33.2511 66.4731 33.2511H247.067C247.732 33.2511 248.367 33.3796 248.953 33.6042C248.074 31.8964 246.301 30.7268 244.251 30.7268H63.6584C60.736 30.7268 58.3672 33.1007 58.3672 36.0288V41.9091H61.1819L61.1825 41.9097Z" fill="white"/>
<path d="M244.252 164.018H63.6584C60.736 164.018 58.3672 161.644 58.3672 158.715V157.188H249.542V158.715C249.542 161.644 247.174 164.018 244.251 164.018H244.252Z" fill="#D3D8EB"/>
<path d="M61.9231 158.715V157.188H58.3672V158.715C58.3672 161.644 60.736 164.018 63.6584 164.018H67.2142C64.2919 164.018 61.9231 161.644 61.9231 158.715Z" fill="white"/>
<path d="M244.252 164.41H63.6589C60.5254 164.41 57.9766 161.855 57.9766 158.715V35.6951C57.9766 32.5548 60.526 30.0005 63.6589 30.0005H244.252C247.386 30.0005 249.935 32.5548 249.935 35.6951V158.715C249.935 161.855 247.386 164.41 244.252 164.41ZM63.6589 30.7851C60.9571 30.7851 58.7595 32.9875 58.7595 35.6951V158.715C58.7595 161.423 60.9571 163.625 63.6589 163.625H244.252C246.954 163.625 249.152 161.423 249.152 158.715V35.6951C249.152 32.9875 246.954 30.7851 244.252 30.7851H63.6589Z" fill="#0A0909"/>
<path d="M249.542 157.58H58.4582C58.2417 157.58 58.0664 157.404 58.0664 157.188C58.0664 156.971 58.2417 156.795 58.4582 156.795H249.542C249.759 156.795 249.934 156.971 249.934 157.188C249.934 157.404 249.759 157.58 249.542 157.58Z" fill="#0A0909"/>
<path d="M249.544 42.3018H58.3683C58.1519 42.3018 57.9766 42.1261 57.9766 41.9092C57.9766 41.6923 58.1519 41.5166 58.3683 41.5166H249.544C249.76 41.5166 249.935 41.6923 249.935 41.9092C249.935 42.1261 249.76 42.3018 249.544 42.3018H249.544Z" fill="#0A0909"/>
<path d="M46.7777 92.6151L74.2507 92.7689C75.3895 92.7689 76.3124 93.6938 76.3124 94.8351V127.663C76.3124 128.804 75.3895 129.729 74.2507 129.729H26.593C25.4542 129.729 24.5312 128.804 24.5312 127.663V94.6813C24.5312 93.54 25.4542 92.6151 26.593 92.6151L37.9018 92.3958L46.7777 92.6151Z" fill="white"/>
<path d="M74.2512 130.122H26.5942C25.2412 130.122 24.1406 129.019 24.1406 127.663V94.8351C24.1406 93.4792 25.2412 92.3763 26.5942 92.3763L37.8977 92.2224C37.8977 92.2224 37.9012 92.2224 37.903 92.2224C38.1165 92.2224 38.2912 92.3945 38.2942 92.6097C38.2971 92.8267 38.1242 93.0047 37.9083 93.0076L26.5994 93.1615C25.673 93.1615 24.9236 93.9125 24.9236 94.8357V127.664C24.9236 128.587 25.673 129.338 26.5942 129.338H74.2518C75.173 129.338 75.9224 128.587 75.9224 127.664V94.8357C75.9224 93.9125 75.173 93.1615 74.2518 93.1615H51.1989C50.9824 93.1615 50.8071 92.9858 50.8071 92.7689C50.8071 92.5519 50.9824 92.3763 51.1989 92.3763H74.2518C75.6047 92.3763 76.7053 93.4792 76.7053 94.8351V127.663C76.7053 129.019 75.6047 130.122 74.2518 130.122H74.2512Z" fill="#0A0909"/>
<path d="M35.1486 117.92C38.7105 117.92 41.598 115.026 41.598 111.456C41.598 107.887 38.7105 104.993 35.1486 104.993C31.5867 104.993 28.6992 107.887 28.6992 111.456C28.6992 115.026 31.5867 117.92 35.1486 117.92Z" fill="white"/>
<path d="M30.4563 111.833C30.4563 108.264 33.3439 105.37 36.9057 105.37C37.061 105.37 37.2133 105.382 37.3663 105.393C36.6739 105.138 35.9292 104.992 35.1486 104.992C31.5869 104.992 28.6992 107.886 28.6992 111.456C28.6992 115.025 31.3416 117.658 34.688 117.895C32.2204 116.988 30.4563 114.62 30.4563 111.833V111.833Z" fill="white"/>
<path d="M35.1492 118.312C31.3774 118.312 28.3086 115.236 28.3086 111.456C28.3086 107.676 31.3774 104.601 35.1492 104.601C38.9209 104.601 41.9898 107.676 41.9898 111.456C41.9898 115.236 38.9209 118.312 35.1492 118.312ZM35.1492 105.385C31.8086 105.385 29.0915 108.108 29.0915 111.456C29.0915 114.803 31.8092 117.526 35.1492 117.526C38.4892 117.526 41.2068 114.803 41.2068 111.456C41.2068 108.108 38.4892 105.385 35.1492 105.385Z" fill="#0A0909"/>
<path d="M69.791 105.986H65.7316C65.5151 105.986 65.3398 105.81 65.3398 105.594C65.3398 105.377 65.5151 105.201 65.7316 105.201H69.791C70.0075 105.201 70.1828 105.377 70.1828 105.594C70.1828 105.81 70.0075 105.986 69.791 105.986Z" fill="#0A0909"/>
<path d="M62.9056 105.986H45.4621C45.2456 105.986 45.0703 105.81 45.0703 105.594C45.0703 105.377 45.2456 105.201 45.4621 105.201H62.9056C63.1221 105.201 63.2974 105.377 63.2974 105.594C63.2974 105.81 63.1221 105.986 62.9056 105.986Z" fill="#0A0909"/>
<path d="M69.6397 111.395H45.4621C45.2456 111.395 45.0703 111.219 45.0703 111.002C45.0703 110.785 45.2456 110.61 45.4621 110.61H69.6397C69.8562 110.61 70.0315 110.785 70.0315 111.002C70.0315 111.219 69.8562 111.395 69.6397 111.395Z" fill="#0A0909"/>
<path d="M69.3591 116.816H61.0597C60.8433 116.816 60.668 116.64 60.668 116.423C60.668 116.206 60.8433 116.031 61.0597 116.031H69.3591C69.5756 116.031 69.7509 116.206 69.7509 116.423C69.7509 116.64 69.5756 116.816 69.3591 116.816Z" fill="#0A0909"/>
<path d="M58.8091 116.816H45.4621C45.2456 116.816 45.0703 116.64 45.0703 116.423C45.0703 116.206 45.2456 116.031 45.4621 116.031H58.8091C59.0256 116.031 59.2009 116.206 59.2009 116.423C59.2009 116.64 59.0256 116.816 58.8091 116.816Z" fill="#0A0909"/>
<path d="M67.598 122.315H45.4621C45.2456 122.315 45.0703 122.14 45.0703 121.923C45.0703 121.706 45.2456 121.53 45.4621 121.53H67.598C67.8144 121.53 67.9897 121.706 67.9897 121.923C67.9897 122.14 67.8144 122.315 67.598 122.315Z" fill="#0A0909"/>
<path d="M33.0553 114.263C32.9559 114.263 32.8565 114.226 32.78 114.15C32.6265 113.997 32.6253 113.749 32.7771 113.595L37.5483 108.765C37.7006 108.611 37.9483 108.61 38.1018 108.762C38.2553 108.915 38.2565 109.163 38.1047 109.317L33.3336 114.147C33.2571 114.224 33.1559 114.263 33.0553 114.263V114.263Z" fill="#0A0909"/>
<path d="M37.8513 114.239C37.7519 114.239 37.6525 114.202 37.576 114.126L32.7566 109.344C32.6031 109.191 32.6019 108.943 32.7536 108.789C32.906 108.635 33.1536 108.634 33.3072 108.786L38.1266 113.568C38.2801 113.721 38.2813 113.969 38.1295 114.123C38.0531 114.2 37.9519 114.239 37.8513 114.239V114.239Z" fill="#0A0909"/>
<path d="M38.2456 42.1573L65.1474 41.8425C66.2862 41.8425 67.2092 42.7675 67.2092 43.9088V64.5356C67.2092 65.6769 66.2862 66.6018 65.1474 66.6018H16.425C15.2862 66.6018 14.3633 65.6769 14.3633 64.5356V43.9088C14.3633 42.7675 15.2862 41.8425 16.425 41.8425H29.3698L38.2456 42.1573Z" fill="#BFD166"/>
<path d="M16.795 46.0835C16.795 44.9422 17.7179 44.0172 18.8567 44.0172H66.9826V43.7266C66.9826 42.5853 66.0597 41.6604 64.9208 41.6604H16.1985C15.0597 41.6604 14.4602 42.6708 14.4602 43.8121L14.1367 64.3534C14.1367 65.4947 15.0597 66.4197 16.1985 66.4197H16.7955V46.0835H16.795Z" fill="white"/>
<path d="M65.1485 66.9944H16.4262C15.0732 66.9944 13.9727 65.8915 13.9727 64.5356V43.9088C13.9727 42.5529 15.0732 41.45 16.4262 41.45H29.3709C29.5874 41.45 29.7627 41.6256 29.7627 41.8426C29.7627 42.0595 29.5874 42.2352 29.3709 42.2352H16.4262C15.505 42.2352 14.7556 42.9862 14.7556 43.9094V64.5362C14.7556 65.4594 15.505 66.2104 16.4262 66.2104H65.1485C66.0697 66.2104 66.8191 65.4594 66.8191 64.5362V43.9094C66.8191 42.9862 66.0697 42.2352 65.1485 42.2352H38.4944C38.2779 42.2352 38.1027 42.0595 38.1027 41.8426C38.1027 41.6256 38.2779 41.45 38.4944 41.45H65.1485C66.5015 41.45 67.6021 42.5529 67.6021 43.9088V64.5356C67.6021 65.8915 66.5015 66.9944 65.1485 66.9944Z" fill="#0A0909"/>
<path d="M24.9807 60.7355C28.5426 60.7355 31.4301 57.8418 31.4301 54.2722C31.4301 50.7026 28.5426 47.8088 24.9807 47.8088C21.4188 47.8088 18.5312 50.7026 18.5312 54.2722C18.5312 57.8418 21.4188 60.7355 24.9807 60.7355Z" fill="white"/>
<path d="M22.6022 57.313C22.5028 57.313 22.4034 57.2753 22.3269 57.1992C22.1734 57.0465 22.1722 56.7983 22.324 56.6445L27.424 51.4822C27.5763 51.3283 27.824 51.3271 27.9775 51.4792C28.131 51.6319 28.1322 51.8801 27.9804 52.034L22.8804 57.1963C22.804 57.2735 22.7028 57.3124 22.6022 57.3124V57.313Z" fill="#BFD166"/>
<path d="M27.7299 57.2876C27.6305 57.2876 27.5311 57.2498 27.4546 57.1738L22.3035 52.0628C22.1499 51.9101 22.1488 51.6619 22.3005 51.5081C22.4529 51.3542 22.7005 51.353 22.854 51.5051L28.0052 56.6161C28.1588 56.7688 28.1599 57.017 28.0082 57.1709C27.9317 57.2481 27.8305 57.287 27.7299 57.287V57.2876Z" fill="#BFD166"/>
<path d="M20.2883 54.6496C20.2883 51.0801 23.176 48.1862 26.7377 48.1862C26.893 48.1862 27.0454 48.1986 27.1983 48.2092C26.506 47.9545 25.7613 47.8083 24.9807 47.8083C21.4189 47.8083 18.5312 50.7022 18.5312 54.2717C18.5312 57.8412 21.1736 60.4739 24.5201 60.7115C22.0524 59.8042 20.2883 57.4362 20.2883 54.649V54.6496Z" fill="white"/>
<path d="M24.9773 61.1277C21.2055 61.1277 18.1367 58.0523 18.1367 54.2724C18.1367 50.4924 21.2055 47.417 24.9773 47.417C28.7491 47.417 31.8179 50.4924 31.8179 54.2724C31.8179 58.0523 28.7491 61.1277 24.9773 61.1277ZM24.9773 48.201C21.6367 48.201 18.9197 50.9246 18.9197 54.2718C18.9197 57.619 21.6373 60.3425 24.9773 60.3425C28.3173 60.3425 31.035 57.619 31.035 54.2718C31.035 50.9246 28.3173 48.201 24.9773 48.201Z" fill="#0A0909"/>
<path d="M60.685 51.0572H50.4191C50.2026 51.0572 50.0273 50.8815 50.0273 50.6646C50.0273 50.4476 50.2026 50.272 50.4191 50.272H60.685C60.9015 50.272 61.0768 50.4476 61.0768 50.6646C61.0768 50.8815 60.9015 51.0572 60.685 51.0572Z" fill="#0A0909"/>
<path d="M45.6232 51.0572H36.9308C36.7144 51.0572 36.5391 50.8815 36.5391 50.6646C36.5391 50.4476 36.7144 50.272 36.9308 50.272H45.6232C45.8397 50.272 46.0149 50.4476 46.0149 50.6646C46.0149 50.8815 45.8397 51.0572 45.6232 51.0572Z" fill="#0A0909"/>
<path d="M55.3108 56.4652H36.9308C36.7144 56.4652 36.5391 56.2895 36.5391 56.0725C36.5391 55.8556 36.7144 55.6799 36.9308 55.6799H55.3108C55.5273 55.6799 55.7026 55.8556 55.7026 56.0725C55.7026 56.2895 55.5273 56.4652 55.3108 56.4652Z" fill="#0A0909"/>
<path d="M169.032 40.0996C175.47 33.648 175.47 23.1879 169.032 16.7363C162.594 10.2848 152.157 10.2847 145.719 16.7363C139.281 23.1879 139.281 33.648 145.719 40.0996C152.157 46.5512 162.594 46.5512 169.032 40.0996Z" fill="#D3D8EB"/>
<path d="M170.039 17.8431C167.182 15.4592 163.509 14.0255 159.5 14.0255C150.396 14.0255 143.014 21.4214 143.014 30.5452C143.014 34.5615 144.444 38.2442 146.823 41.1092C143.197 38.0797 140.891 33.5187 140.891 28.4177C140.891 19.2939 148.271 11.8979 157.375 11.8979C162.465 11.8979 167.017 14.2094 170.039 17.8431Z" fill="white"/>
<path d="M157.376 45.3654C152.859 45.3654 148.612 43.6028 145.418 40.4018C142.224 37.2007 140.465 32.9445 140.465 28.4177C140.465 23.8909 142.224 19.6346 145.418 16.4336C148.612 13.2326 152.859 11.47 157.376 11.47C161.893 11.47 166.14 13.2326 169.334 16.4336C172.528 19.6346 174.288 23.8909 174.288 28.4177C174.288 32.9445 172.529 37.2007 169.334 40.4018C166.14 43.6028 161.893 45.3654 157.376 45.3654ZM157.376 12.3242C148.521 12.3242 141.317 19.5438 141.317 28.4177C141.317 37.2915 148.521 44.5112 157.376 44.5112C166.231 44.5112 173.435 37.2915 173.435 28.4177C173.435 19.5438 166.231 12.3242 157.376 12.3242Z" fill="#0A0909"/>
<path d="M152.028 35.0177C151.92 35.0177 151.811 34.9764 151.728 34.8939C151.561 34.7277 151.559 34.4577 151.725 34.2897L163.921 21.9442C164.087 21.7768 164.357 21.775 164.524 21.9413C164.691 22.1075 164.693 22.3775 164.527 22.5455L152.331 34.891C152.247 34.9753 152.138 35.0177 152.028 35.0177Z" fill="#0A0909"/>
<path d="M164.288 34.9558C164.18 34.9558 164.071 34.9145 163.988 34.832L151.669 22.6098C151.502 22.4435 151.5 22.1735 151.666 22.0055C151.832 21.8381 152.102 21.8363 152.269 22.0026L164.588 34.2248C164.755 34.391 164.757 34.661 164.591 34.829C164.508 34.9133 164.398 34.9558 164.288 34.9558Z" fill="#0A0909"/>
<path d="M231.584 110.345H269.717C270.628 110.345 271.367 111.086 271.367 111.999V148.397C271.367 149.31 270.628 150.051 269.717 150.051H231.584C230.673 150.051 229.934 149.31 229.934 148.397V111.999C229.934 111.086 230.673 110.345 231.584 110.345Z" fill="white"/>
<path d="M269.718 150.442H231.584C230.459 150.442 229.543 149.524 229.543 148.396V111.998C229.543 110.87 230.459 109.952 231.584 109.952H269.718C270.843 109.952 271.759 110.87 271.759 111.998V148.396C271.759 149.524 270.843 150.442 269.718 150.442ZM231.584 110.738C230.891 110.738 230.326 111.304 230.326 111.999V148.397C230.326 149.093 230.891 149.658 231.584 149.658H269.718C270.412 149.658 270.976 149.092 270.976 148.397V111.999C270.976 111.303 270.411 110.738 269.718 110.738H231.584Z" fill="#0A0909"/>
<path d="M245.1 123.285H238.088C237.826 123.285 237.613 123.071 237.613 122.809V115.782C237.613 115.52 237.826 115.306 238.088 115.306H245.1C245.362 115.306 245.574 115.52 245.574 115.782V122.809C245.574 123.071 245.362 123.285 245.1 123.285ZM238.396 122.5H244.791V116.091H238.396V122.5Z" fill="#0A0909"/>
<path d="M245.1 133.9H238.088C237.826 133.9 237.613 133.687 237.613 133.424V126.397C237.613 126.135 237.826 125.922 238.088 125.922H245.1C245.362 125.922 245.574 126.135 245.574 126.397V133.424C245.574 133.687 245.362 133.9 245.1 133.9ZM238.396 133.115H244.791V126.706H238.396V133.115Z" fill="#0A0909"/>
<path d="M245.1 145.089H238.088C237.826 145.089 237.613 144.875 237.613 144.613V137.586C237.613 137.324 237.826 137.11 238.088 137.11H245.1C245.362 137.11 245.574 137.324 245.574 137.586V144.613C245.574 144.875 245.362 145.089 245.1 145.089ZM238.396 144.304H244.791V137.895H238.396V144.304Z" fill="#0A0909"/>
<path d="M263.301 117.99H250.892C250.675 117.99 250.5 117.814 250.5 117.597C250.5 117.38 250.675 117.205 250.892 117.205H263.301C263.517 117.205 263.692 117.38 263.692 117.597C263.692 117.814 263.517 117.99 263.301 117.99Z" fill="#0A0909"/>
<path d="M262.518 120.982H250.892C250.675 120.982 250.5 120.806 250.5 120.589C250.5 120.372 250.675 120.196 250.892 120.196H262.518C262.735 120.196 262.91 120.372 262.91 120.589C262.91 120.806 262.735 120.982 262.518 120.982Z" fill="#0A0909"/>
<path d="M263.299 128.207H258.755C258.539 128.207 258.363 128.031 258.363 127.814C258.363 127.598 258.539 127.422 258.755 127.422H263.299C263.515 127.422 263.69 127.598 263.69 127.814C263.69 128.031 263.515 128.207 263.299 128.207Z" fill="#0A0909"/>
<path d="M256.163 128.207H250.892C250.675 128.207 250.5 128.031 250.5 127.814C250.5 127.598 250.675 127.422 250.892 127.422H256.163C256.379 127.422 256.555 127.598 256.555 127.814C256.555 128.031 256.379 128.207 256.163 128.207Z" fill="#0A0909"/>
<path d="M263.301 131.198H250.892C250.675 131.198 250.5 131.023 250.5 130.806C250.5 130.589 250.675 130.413 250.892 130.413H263.301C263.517 130.413 263.692 130.589 263.692 130.806C263.692 131.023 263.517 131.198 263.301 131.198Z" fill="#0A0909"/>
<path d="M263.3 139.842H259.986C259.769 139.842 259.594 139.666 259.594 139.449C259.594 139.233 259.769 139.057 259.986 139.057H263.3C263.516 139.057 263.691 139.233 263.691 139.449C263.691 139.666 263.516 139.842 263.3 139.842Z" fill="#0A0909"/>
<path d="M257.096 139.842H250.892C250.675 139.842 250.5 139.666 250.5 139.449C250.5 139.233 250.675 139.057 250.892 139.057H257.096C257.312 139.057 257.488 139.233 257.488 139.449C257.488 139.666 257.312 139.842 257.096 139.842Z" fill="#0A0909"/>
<path d="M255.968 142.833H250.892C250.675 142.833 250.5 142.658 250.5 142.441C250.5 142.224 250.675 142.048 250.892 142.048H255.968C256.185 142.048 256.36 142.224 256.36 142.441C256.36 142.658 256.185 142.833 255.968 142.833Z" fill="#0A0909"/>
<path d="M239.622 121.683C239.522 121.683 239.423 121.645 239.346 121.569C239.193 121.417 239.192 121.168 239.343 121.015L243.286 117.024C243.438 116.87 243.686 116.869 243.839 117.021C243.993 117.174 243.994 117.422 243.842 117.576L239.9 121.566C239.823 121.644 239.722 121.682 239.622 121.682V121.683Z" fill="#BFD166"/>
<path d="M243.584 121.663C243.485 121.663 243.385 121.625 243.309 121.549L239.327 117.598C239.173 117.446 239.172 117.197 239.324 117.043C239.476 116.89 239.724 116.888 239.877 117.041L243.859 120.991C244.013 121.144 244.014 121.392 243.862 121.546C243.786 121.623 243.685 121.662 243.584 121.662V121.663Z" fill="#BFD166"/>
<path d="M239.622 132.298C239.522 132.298 239.423 132.261 239.346 132.185C239.193 132.032 239.192 131.784 239.343 131.63L243.286 127.639C243.438 127.486 243.686 127.484 243.839 127.636C243.993 127.789 243.994 128.037 243.842 128.191L239.9 132.182C239.823 132.259 239.722 132.298 239.622 132.298V132.298Z" fill="#BFD166"/>
<path d="M243.584 132.278C243.485 132.278 243.385 132.24 243.309 132.164L239.327 128.213C239.173 128.061 239.172 127.813 239.324 127.659C239.476 127.505 239.724 127.504 239.877 127.656L243.859 131.607C244.013 131.759 244.014 132.007 243.862 132.161C243.786 132.239 243.685 132.277 243.584 132.277V132.278Z" fill="#BFD166"/>
<path d="M239.622 143.488C239.522 143.488 239.423 143.45 239.346 143.374C239.193 143.221 239.192 142.973 239.343 142.819L243.286 138.829C243.438 138.675 243.686 138.674 243.839 138.826C243.993 138.979 243.994 139.227 243.842 139.381L239.9 143.371C239.823 143.448 239.722 143.487 239.622 143.487V143.488Z" fill="#BFD166"/>
<path d="M243.584 143.468C243.485 143.468 243.385 143.43 243.309 143.354L239.327 139.403C239.173 139.25 239.172 139.002 239.324 138.848C239.476 138.694 239.724 138.693 239.877 138.845L243.859 142.796C244.013 142.949 244.014 143.197 243.862 143.351C243.786 143.428 243.685 143.467 243.584 143.467V143.468Z" fill="#BFD166"/>
<path d="M30.1083 154.067C29.8913 154.285 29.5371 154.285 29.3195 154.067C29.1018 153.849 29.1018 153.494 29.3195 153.277C29.5371 153.059 29.8907 153.059 30.1083 153.277C30.326 153.494 30.3265 153.85 30.1089 154.067H30.1083Z" fill="#0A0909"/>
<path d="M34.3349 149.831C34.1178 150.049 33.7637 150.049 33.546 149.831C33.3284 149.613 33.3284 149.258 33.546 149.041C33.7637 148.823 34.1172 148.823 34.3343 149.041C34.5513 149.258 34.5525 149.614 34.3349 149.831Z" fill="#0A0909"/>
<path d="M38.5614 145.594C38.3438 145.812 37.9903 145.812 37.7726 145.594C37.555 145.376 37.555 145.021 37.7726 144.803C37.9903 144.585 38.3438 144.586 38.5608 144.803C38.7785 145.021 38.7791 145.376 38.5614 145.594V145.594Z" fill="#0A0909"/>
<path d="M34.2872 158.257C34.0701 158.475 33.716 158.475 33.499 158.257C33.2819 158.039 33.2813 157.685 33.499 157.467C33.7166 157.249 34.0701 157.25 34.2878 157.467C34.5054 157.685 34.5054 158.039 34.2878 158.258L34.2872 158.257Z" fill="#0A0909"/>
<path d="M38.5177 154.021C38.3006 154.238 37.9465 154.238 37.7294 154.021C37.5124 153.803 37.5118 153.449 37.7294 153.231C37.9471 153.013 38.3006 153.013 38.5177 153.231C38.7347 153.449 38.7353 153.803 38.5177 154.021Z" fill="#0A0909"/>
<path d="M42.7411 149.784C42.5235 150.002 42.1699 150.002 41.9523 149.784C41.7347 149.566 41.7347 149.212 41.9523 148.993C42.1699 148.775 42.5235 148.776 42.7405 148.993C42.9576 149.211 42.9582 149.566 42.7405 149.783L42.7411 149.784Z" fill="#0A0909"/>
<path d="M38.4755 162.454C38.2584 162.671 37.9043 162.671 37.6867 162.453C37.469 162.235 37.469 161.881 37.6867 161.663C37.9043 161.445 38.2578 161.446 38.4755 161.663C38.6931 161.881 38.6937 162.236 38.4761 162.454H38.4755Z" fill="#0A0909"/>
<path d="M42.7021 158.217C42.485 158.434 42.1309 158.434 41.9132 158.216C41.6956 157.998 41.6956 157.644 41.9132 157.426C42.1309 157.209 42.4844 157.209 42.7015 157.426C42.9185 157.644 42.9197 157.999 42.7021 158.217Z" fill="#0A0909"/>
<path d="M46.9325 153.981C46.7149 154.199 46.3614 154.198 46.1437 153.98C45.9261 153.762 45.9261 153.408 46.1437 153.19C46.3614 152.972 46.7149 152.972 46.9319 153.19C47.149 153.407 47.1502 153.763 46.9325 153.98V153.981Z" fill="#0A0909"/>
<path d="M190.682 19.2486C190.465 19.4661 190.111 19.4661 189.893 19.248C189.676 19.0305 189.676 18.6756 189.893 18.4581C190.111 18.2405 190.465 18.2405 190.682 18.4581C190.899 18.6762 190.9 19.0311 190.682 19.2486Z" fill="#0A0909"/>
<path d="M194.909 15.0124C194.691 15.2305 194.338 15.2299 194.12 15.0118C193.903 14.7937 193.903 14.4394 194.12 14.2213C194.337 14.0037 194.691 14.0037 194.908 14.2213C195.126 14.4394 195.127 14.7943 194.909 15.0118V15.0124Z" fill="#0A0909"/>
<path d="M194.861 23.4382C194.644 23.6557 194.29 23.6557 194.073 23.4382C193.856 23.2207 193.856 22.8658 194.073 22.6483C194.291 22.4307 194.644 22.4307 194.861 22.6483C195.078 22.8658 195.079 23.2207 194.861 23.4382Z" fill="#0A0909"/>
<path d="M199.089 19.202C198.871 19.4201 198.518 19.4195 198.3 19.202C198.082 18.9844 198.082 18.6296 198.3 18.4114C198.517 18.1939 198.871 18.1939 199.088 18.4114C199.305 18.629 199.306 18.9838 199.088 19.2014L199.089 19.202Z" fill="#0A0909"/>
<path d="M280.186 86.3262C280.186 86.6345 279.936 86.8844 279.628 86.8844C279.32 86.8844 279.07 86.6339 279.07 86.3262C279.07 86.0185 279.321 85.7673 279.628 85.7673C279.935 85.7673 280.186 86.0179 280.186 86.3262Z" fill="#0A0909"/>
<path d="M280.186 80.3349C280.186 80.6432 279.936 80.8931 279.628 80.8931C279.32 80.8931 279.07 80.6426 279.07 80.3349C279.07 80.0271 279.321 79.7766 279.628 79.7766C279.935 79.7766 280.186 80.0271 280.186 80.3349Z" fill="#0A0909"/>
<path d="M280.186 74.3439C280.186 74.6522 279.936 74.9028 279.628 74.9028C279.32 74.9028 279.07 74.6522 279.07 74.3439C279.07 74.0356 279.321 73.7856 279.628 73.7856C279.935 73.7856 280.186 74.0362 280.186 74.3439Z" fill="#0A0909"/>
<path d="M38.1194 31.1907C38.1194 31.5538 37.8241 31.8486 37.4617 31.8486C37.0994 31.8486 36.8047 31.5533 36.8047 31.1907C36.8047 30.8282 37.1 30.5322 37.4617 30.5322C37.8235 30.5322 38.1194 30.827 38.1194 31.1907Z" fill="#0A0909"/>
<path d="M38.1194 24.1325C38.1194 24.4956 37.8241 24.7904 37.4617 24.7904C37.0994 24.7904 36.8047 24.4956 36.8047 24.1325C36.8047 23.7694 37.1 23.4746 37.4617 23.4746C37.8235 23.4746 38.1194 23.7694 38.1194 24.1325Z" fill="#0A0909"/>
<path d="M38.1194 17.0744C38.1194 17.4375 37.8241 17.7329 37.4617 17.7329C37.0994 17.7329 36.8047 17.4381 36.8047 17.0744C36.8047 16.7107 37.1 16.4165 37.4617 16.4165C37.8235 16.4165 38.1194 16.7113 38.1194 17.0744Z" fill="#0A0909"/>
<path d="M45.0837 31.1907C45.0837 31.5538 44.7884 31.8486 44.4266 31.8486C44.0648 31.8486 43.7695 31.5533 43.7695 31.1907C43.7695 30.8282 44.0648 30.5322 44.4266 30.5322C44.7884 30.5322 45.0837 30.827 45.0837 31.1907Z" fill="#0A0909"/>
<path d="M45.0837 24.1325C45.0837 24.4956 44.7884 24.7904 44.4266 24.7904C44.0648 24.7904 43.7695 24.4956 43.7695 24.1325C43.7695 23.7694 44.0648 23.4746 44.4266 23.4746C44.7884 23.4746 45.0837 23.7694 45.0837 24.1325Z" fill="#0A0909"/>
<path d="M45.0837 17.0744C45.0837 17.4375 44.7884 17.7329 44.4266 17.7329C44.0648 17.7329 43.7695 17.4381 43.7695 17.0744C43.7695 16.7107 44.0648 16.4165 44.4266 16.4165C44.7884 16.4165 45.0837 16.7113 45.0837 17.0744Z" fill="#0A0909"/>
<path d="M52.0608 31.1907C52.0608 31.5538 51.7655 31.8486 51.4032 31.8486C51.0408 31.8486 50.7461 31.5533 50.7461 31.1907C50.7461 30.8282 51.0414 30.5322 51.4032 30.5322C51.7649 30.5322 52.0608 30.827 52.0608 31.1907Z" fill="#0A0909"/>
<path d="M52.0608 24.1325C52.0608 24.4956 51.7655 24.7904 51.4032 24.7904C51.0408 24.7904 50.7461 24.4956 50.7461 24.1325C50.7461 23.7694 51.0414 23.4746 51.4032 23.4746C51.7649 23.4746 52.0608 23.7694 52.0608 24.1325Z" fill="#0A0909"/>
<path d="M52.0608 17.0744C52.0608 17.4375 51.7655 17.7329 51.4032 17.7329C51.0408 17.7329 50.7461 17.4381 50.7461 17.0744C50.7461 16.7107 51.0414 16.4165 51.4032 16.4165C51.7649 16.4165 52.0608 16.7113 52.0608 17.0744Z" fill="#0A0909"/>
<path d="M164.127 170.62C164.127 170.983 163.832 171.278 163.47 171.278C163.107 171.278 162.812 170.983 162.812 170.62C162.812 170.257 163.108 169.961 163.47 169.961C163.831 169.961 164.127 170.256 164.127 170.62Z" fill="#0A0909"/>
<path d="M171.091 170.62C171.091 170.983 170.796 171.278 170.434 171.278C170.073 171.278 169.777 170.983 169.777 170.62C169.777 170.257 170.073 169.961 170.434 169.961C170.796 169.961 171.091 170.256 171.091 170.62Z" fill="#0A0909"/>
<path d="M178.069 170.62C178.069 170.983 177.773 171.278 177.411 171.278C177.049 171.278 176.754 170.983 176.754 170.62C176.754 170.257 177.049 169.961 177.411 169.961C177.773 169.961 178.069 170.256 178.069 170.62Z" fill="#0A0909"/>
<path d="M191.346 113C191.026 113 190.754 112.888 190.53 112.664C190.306 112.44 190.194 112.152 190.194 111.8V106.04H175.074C174.754 106.04 174.482 105.928 174.258 105.704C174.034 105.48 173.922 105.192 173.922 104.84V100.952C173.922 100.728 173.97 100.488 174.066 100.232C174.162 99.9759 174.29 99.7359 174.45 99.5119L188.514 80.2159C188.93 79.6719 189.522 79.3999 190.29 79.3999H196.386C196.706 79.3999 196.978 79.5119 197.202 79.7359C197.426 79.9599 197.538 80.2479 197.538 80.5999V99.6559H201.81C202.194 99.6559 202.482 99.7679 202.674 99.9919C202.898 100.216 203.01 100.488 203.01 100.808V104.84C203.01 105.192 202.898 105.48 202.674 105.704C202.45 105.928 202.178 106.04 201.858 106.04H197.538V111.8C197.538 112.152 197.426 112.44 197.202 112.664C196.978 112.888 196.706 113 196.386 113H191.346ZM181.362 99.8959H190.338V87.2719L181.362 99.8959Z" fill="#0A0909"/>
<path d="M156.499 113.48C154.195 113.48 152.211 113.16 150.547 112.52C148.915 111.848 147.555 110.936 146.467 109.784C145.411 108.6 144.611 107.24 144.067 105.704C143.555 104.136 143.251 102.472 143.155 100.712C143.123 99.8479 143.091 98.8879 143.059 97.8319C143.059 96.7439 143.059 95.6559 143.059 94.5679C143.091 93.4799 143.123 92.4879 143.155 91.5919C143.219 89.8319 143.523 88.1839 144.067 86.6479C144.643 85.1119 145.475 83.7679 146.563 82.6159C147.651 81.4639 149.011 80.5679 150.643 79.9279C152.307 79.2559 154.259 78.9199 156.499 78.9199C158.739 78.9199 160.675 79.2559 162.307 79.9279C163.939 80.5679 165.299 81.4639 166.387 82.6159C167.475 83.7679 168.291 85.1119 168.835 86.6479C169.411 88.1839 169.747 89.8319 169.843 91.5919C169.875 92.4879 169.891 93.4799 169.891 94.5679C169.923 95.6559 169.923 96.7439 169.891 97.8319C169.891 98.8879 169.875 99.8479 169.843 100.712C169.747 102.472 169.427 104.136 168.883 105.704C168.339 107.24 167.523 108.6 166.435 109.784C165.379 110.936 164.019 111.848 162.355 112.52C160.723 113.16 158.771 113.48 156.499 113.48ZM156.499 107.24C158.355 107.24 159.715 106.632 160.579 105.416C161.443 104.2 161.907 102.552 161.971 100.472C162.003 99.5439 162.019 98.5839 162.019 97.5919C162.051 96.5999 162.051 95.6079 162.019 94.6159C162.019 93.6239 162.003 92.6959 161.971 91.8319C161.907 89.8479 161.443 88.2319 160.579 86.9839C159.715 85.7359 158.355 85.0959 156.499 85.0639C154.611 85.0959 153.235 85.7359 152.371 86.9839C151.539 88.2319 151.091 89.8479 151.027 91.8319C150.995 92.6959 150.963 93.6239 150.931 94.6159C150.931 95.6079 150.931 96.5999 150.931 97.5919C150.963 98.5839 150.995 99.5439 151.027 100.472C151.091 102.552 151.555 104.2 152.419 105.416C153.283 106.632 154.643 107.24 156.499 107.24Z" fill="#0A0909"/>
<path d="M127.268 113C126.948 113 126.676 112.888 126.452 112.664C126.228 112.44 126.116 112.152 126.116 111.8V106.04H110.996C110.676 106.04 110.404 105.928 110.18 105.704C109.956 105.48 109.844 105.192 109.844 104.84V100.952C109.844 100.728 109.892 100.488 109.988 100.232C110.084 99.9759 110.212 99.7359 110.372 99.5119L124.436 80.2159C124.852 79.6719 125.444 79.3999 126.212 79.3999H132.308C132.628 79.3999 132.9 79.5119 133.124 79.7359C133.348 79.9599 133.46 80.2479 133.46 80.5999V99.6559H137.732C138.116 99.6559 138.404 99.7679 138.596 99.9919C138.82 100.216 138.932 100.488 138.932 100.808V104.84C138.932 105.192 138.82 105.48 138.596 105.704C138.372 105.928 138.1 106.04 137.78 106.04H133.46V111.8C133.46 112.152 133.348 112.44 133.124 112.664C132.9 112.888 132.628 113 132.308 113H127.268ZM117.284 99.8959H126.26V87.2719L117.284 99.8959Z" fill="#0A0909"/>
</g>
<defs>
<clipPath id="clip0_35554_330680">
<rect width="300" height="191" fill="white"/>
</clipPath>
</defs>
</svg>
