<svg width="152" height="32" viewBox="0 0 152 32" fill="none" xmlns="http://www.w3.org/2000/svg">
<g id="Logo">
<g id="qr-code 4" clip-path="url(#clip0_17_253)">
<path id="Vector" d="M9.33333 14.6667H5.33333C2.392 14.6667 0 12.2747 0 9.33333V5.33333C0 2.392 2.392 0 5.33333 0H9.33333C12.2747 0 14.6667 2.392 14.6667 5.33333V9.33333C14.6667 12.2747 12.2747 14.6667 9.33333 14.6667ZM5.33333 4C4.59867 4 4 4.59867 4 5.33333V9.33333C4 10.068 4.59867 10.6667 5.33333 10.6667H9.33333C10.068 10.6667 10.6667 10.068 10.6667 9.33333V5.33333C10.6667 4.59867 10.068 4 9.33333 4H5.33333ZM26.6667 14.6667H22.6667C19.7253 14.6667 17.3333 12.2747 17.3333 9.33333V5.33333C17.3333 2.392 19.7253 0 22.6667 0H26.6667C29.608 0 32 2.392 32 5.33333V9.33333C32 12.2747 29.608 14.6667 26.6667 14.6667ZM22.6667 4C21.9307 4 21.3333 4.59867 21.3333 5.33333V9.33333C21.3333 10.068 21.9307 10.6667 22.6667 10.6667H26.6667C27.4027 10.6667 28 10.068 28 9.33333V5.33333C28 4.59867 27.4027 4 26.6667 4H22.6667ZM9.33333 32H5.33333C2.392 32 0 29.608 0 26.6667V22.6667C0 19.7253 2.392 17.3333 5.33333 17.3333H9.33333C12.2747 17.3333 14.6667 19.7253 14.6667 22.6667V26.6667C14.6667 29.608 12.2747 32 9.33333 32ZM5.33333 21.3333C4.59867 21.3333 4 21.932 4 22.6667V26.6667C4 27.4013 4.59867 28 5.33333 28H9.33333C10.068 28 10.6667 27.4013 10.6667 26.6667V22.6667C10.6667 21.932 10.068 21.3333 9.33333 21.3333H5.33333ZM22.6667 20.6667V19.3333C22.6667 18.2293 21.7707 17.3333 20.6667 17.3333H19.3333C18.2293 17.3333 17.3333 18.2293 17.3333 19.3333V20.6667C17.3333 21.7707 18.2293 22.6667 19.3333 22.6667H20.6667C21.7707 22.6667 22.6667 21.7707 22.6667 20.6667ZM26.6667 24.6667C26.6667 23.5627 25.7707 22.6667 24.6667 22.6667C23.5627 22.6667 22.6667 23.5627 22.6667 24.6667C22.6667 25.7707 23.5627 26.6667 24.6667 26.6667C25.7707 26.6667 26.6667 25.7707 26.6667 24.6667ZM22.6667 30V28.6667C22.6667 27.5627 21.7707 26.6667 20.6667 26.6667H19.3333C18.2293 26.6667 17.3333 27.5627 17.3333 28.6667V30C17.3333 31.104 18.2293 32 19.3333 32H20.6667C21.7707 32 22.6667 31.104 22.6667 30ZM32 20.6667V19.3333C32 18.2293 31.104 17.3333 30 17.3333H28.6667C27.5627 17.3333 26.6667 18.2293 26.6667 19.3333V20.6667C26.6667 21.7707 27.5627 22.6667 28.6667 22.6667H30C31.104 22.6667 32 21.7707 32 20.6667Z" fill="#01A56D"/>
</g>
<path id="SmartQR" d="M47.584 24.168C46.352 24.168 45.248 23.968 44.272 23.568C43.296 23.168 42.512 22.576 41.92 21.792C41.344 21.008 41.04 20.064 41.008 18.96H45.376C45.44 19.584 45.656 20.064 46.024 20.4C46.392 20.72 46.872 20.88 47.464 20.88C48.072 20.88 48.552 20.744 48.904 20.472C49.256 20.184 49.432 19.792 49.432 19.296C49.432 18.88 49.288 18.536 49 18.264C48.728 17.992 48.384 17.768 47.968 17.592C47.568 17.416 46.992 17.216 46.24 16.992C45.152 16.656 44.264 16.32 43.576 15.984C42.888 15.648 42.296 15.152 41.8 14.496C41.304 13.84 41.056 12.984 41.056 11.928C41.056 10.36 41.624 9.136 42.76 8.256C43.896 7.36 45.376 6.912 47.2 6.912C49.056 6.912 50.552 7.36 51.688 8.256C52.824 9.136 53.432 10.368 53.512 11.952H49.072C49.04 11.408 48.84 10.984 48.472 10.68C48.104 10.36 47.632 10.2 47.056 10.2C46.56 10.2 46.16 10.336 45.856 10.608C45.552 10.864 45.4 11.24 45.4 11.736C45.4 12.28 45.656 12.704 46.168 13.008C46.68 13.312 47.48 13.64 48.568 13.992C49.656 14.36 50.536 14.712 51.208 15.048C51.896 15.384 52.488 15.872 52.984 16.512C53.48 17.152 53.728 17.976 53.728 18.984C53.728 19.944 53.48 20.816 52.984 21.6C52.504 22.384 51.8 23.008 50.872 23.472C49.944 23.936 48.848 24.168 47.584 24.168ZM73.3416 10.464C75.0056 10.464 76.3256 10.968 77.3016 11.976C78.2936 12.984 78.7896 14.384 78.7896 16.176V24H74.7096V16.728C74.7096 15.864 74.4776 15.2 74.0136 14.736C73.5656 14.256 72.9416 14.016 72.1416 14.016C71.3416 14.016 70.7096 14.256 70.2456 14.736C69.7976 15.2 69.5736 15.864 69.5736 16.728V24H65.4936V16.728C65.4936 15.864 65.2616 15.2 64.7976 14.736C64.3496 14.256 63.7256 14.016 62.9256 14.016C62.1256 14.016 61.4936 14.256 61.0296 14.736C60.5816 15.2 60.3576 15.864 60.3576 16.728V24H56.2536V10.608H60.3576V12.288C60.7736 11.728 61.3176 11.288 61.9896 10.968C62.6616 10.632 63.4216 10.464 64.2696 10.464C65.2776 10.464 66.1736 10.68 66.9576 11.112C67.7576 11.544 68.3816 12.16 68.8296 12.96C69.2936 12.224 69.9256 11.624 70.7256 11.16C71.5256 10.696 72.3976 10.464 73.3416 10.464ZM80.8439 17.28C80.8439 15.904 81.0999 14.696 81.6119 13.656C82.1399 12.616 82.8519 11.816 83.7479 11.256C84.6439 10.696 85.6439 10.416 86.7479 10.416C87.6919 10.416 88.5159 10.608 89.2199 10.992C89.9399 11.376 90.4919 11.88 90.8759 12.504V10.608H94.9799V24H90.8759V22.104C90.4759 22.728 89.9159 23.232 89.1959 23.616C88.4919 24 87.6679 24.192 86.7239 24.192C85.6359 24.192 84.6439 23.912 83.7479 23.352C82.8519 22.776 82.1399 21.968 81.6119 20.928C81.0999 19.872 80.8439 18.656 80.8439 17.28ZM90.8759 17.304C90.8759 16.28 90.5879 15.472 90.0119 14.88C89.4519 14.288 88.7639 13.992 87.9479 13.992C87.1319 13.992 86.4359 14.288 85.8599 14.88C85.2999 15.456 85.0199 16.256 85.0199 17.28C85.0199 18.304 85.2999 19.12 85.8599 19.728C86.4359 20.32 87.1319 20.616 87.9479 20.616C88.7639 20.616 89.4519 20.32 90.0119 19.728C90.5879 19.136 90.8759 18.328 90.8759 17.304ZM102.053 12.84C102.533 12.104 103.133 11.528 103.853 11.112C104.573 10.68 105.373 10.464 106.253 10.464V14.808H105.125C104.101 14.808 103.333 15.032 102.821 15.48C102.309 15.912 102.053 16.68 102.053 17.784V24H97.9489V10.608H102.053V12.84ZM115.679 20.52V24H113.591C112.103 24 110.943 23.64 110.111 22.92C109.279 22.184 108.863 20.992 108.863 19.344V14.016H107.231V10.608H108.863V7.344H112.967V10.608H115.655V14.016H112.967V19.392C112.967 19.792 113.063 20.08 113.255 20.256C113.447 20.432 113.767 20.52 114.215 20.52H115.679ZM129.965 26.88L127.805 23.976C127.165 24.104 126.541 24.168 125.933 24.168C124.349 24.168 122.893 23.8 121.565 23.064C120.253 22.328 119.205 21.304 118.421 19.992C117.653 18.664 117.269 17.176 117.269 15.528C117.269 13.88 117.653 12.4 118.421 11.088C119.205 9.776 120.253 8.752 121.565 8.016C122.893 7.28 124.349 6.912 125.933 6.912C127.517 6.912 128.965 7.28 130.277 8.016C131.605 8.752 132.645 9.776 133.397 11.088C134.165 12.4 134.549 13.88 134.549 15.528C134.549 16.968 134.253 18.288 133.661 19.488C133.085 20.672 132.277 21.656 131.237 22.44L134.933 26.88H129.965ZM121.469 15.528C121.469 17.016 121.869 18.208 122.669 19.104C123.485 19.984 124.573 20.424 125.933 20.424C127.277 20.424 128.349 19.976 129.149 19.08C129.965 18.184 130.373 17 130.373 15.528C130.373 14.04 129.965 12.856 129.149 11.976C128.349 11.08 127.277 10.632 125.933 10.632C124.573 10.632 123.485 11.072 122.669 11.952C121.869 12.832 121.469 14.024 121.469 15.528ZM145.471 24L141.967 17.64H140.983V24H136.879V7.152H143.767C145.095 7.152 146.223 7.384 147.151 7.848C148.095 8.312 148.799 8.952 149.263 9.768C149.727 10.568 149.959 11.464 149.959 12.456C149.959 13.576 149.639 14.576 148.999 15.456C148.375 16.336 147.447 16.96 146.215 17.328L150.103 24H145.471ZM140.983 14.736H143.527C144.279 14.736 144.839 14.552 145.207 14.184C145.591 13.816 145.783 13.296 145.783 12.624C145.783 11.984 145.591 11.48 145.207 11.112C144.839 10.744 144.279 10.56 143.527 10.56H140.983V14.736Z" fill="#101112"/>
</g>
<defs>
<clipPath id="clip0_17_253">
<rect width="32" height="32" fill="white"/>
</clipPath>
</defs>
</svg>
