<svg width="500" height="240" viewBox="0 0 500 240" fill="none" xmlns="http://www.w3.org/2000/svg">
<path d="M0 12C0 5.37259 5.37258 0 12 0H488C494.627 0 500 5.37258 500 12V240H0V12Z" fill="#EAF1FF"/>
<mask id="mask0_35556_277585" style="mask-type:alpha" maskUnits="userSpaceOnUse" x="0" y="0" width="500" height="240">
<path d="M0 10C0 4.47716 4.47715 0 10 0H490C495.523 0 500 4.47715 500 10V240H0V10Z" fill="#E7E8FB"/>
</mask>
<g mask="url(#mask0_35556_277585)">
<path d="M32.291 273.382H444.656C444.656 273.382 486.629 176.391 454.651 168.227C422.673 160.062 412.02 228.29 412.02 228.29C412.02 228.29 440.783 97.9938 378.111 106.868C315.429 115.752 366.329 226.537 366.329 226.537C366.329 226.537 328.978 92.6259 231.267 111.184C133.556 129.743 148.575 203.033 148.575 203.033C148.575 203.033 108.245 103.38 56.2873 124.141C4.32955 144.903 119.627 213.472 119.627 213.472C119.627 213.472 56.955 193.888 48.9631 217.212C40.9712 240.536 109.714 248.548 109.714 248.548C109.714 248.548 80.2734 248.512 32.3116 273.391L32.291 273.382Z" fill="#DDE6F9"/>
<mask id="mask1_35556_277585" style="mask-type:luminance" maskUnits="userSpaceOnUse" x="379" y="33" width="78" height="26">
<path d="M456.178 33.3914H379.166V58.533H456.178V33.3914Z" fill="white"/>
</mask>
<g mask="url(#mask1_35556_277585)">
<path d="M456.178 58.5332H379.166C379.166 58.5332 389.712 34.9465 400.994 33.4729C412.277 31.9992 417.672 50.9985 417.672 50.9985C417.672 50.9985 424.948 44.2826 430.671 44.2826C436.394 44.2826 440.808 53.1274 440.808 53.1274C440.808 53.1274 452.254 47.0677 456.178 58.5332Z" fill="white"/>
</g>
<mask id="mask2_35556_277585" style="mask-type:luminance" maskUnits="userSpaceOnUse" x="62" y="66" width="55" height="19">
<path d="M116.837 66.7827H62.5V84.5218H116.837V66.7827Z" fill="white"/>
</mask>
<g mask="url(#mask2_35556_277585)">
<path d="M62.5 84.522H116.837C116.837 84.522 109.396 67.8802 101.436 66.8407C93.4749 65.8011 89.6688 79.2059 89.6688 79.2059C89.6688 79.2059 84.5352 74.4672 80.497 74.4672C76.4589 74.4672 73.3446 80.7082 73.3446 80.7082C73.3446 80.7082 65.2684 76.4327 62.5 84.522Z" fill="white"/>
</g>
<path d="M330.497 159.841C332.079 159.841 333.375 158.463 333.375 156.777V132.95C333.375 131.264 332.08 129.885 330.497 129.885H329.77V79.0979C329.77 64.8249 318.869 53.2173 305.465 53.2173H190.149C176.745 53.2173 165.844 64.8249 165.844 79.0979V129.899C163.846 130.01 162.24 131.783 162.24 133.942V178.252C162.24 180.411 163.847 182.183 165.844 182.296V332.949C165.844 347.222 176.746 358.83 190.149 358.83H305.465C318.869 358.83 329.77 347.222 329.77 332.949V194.167H330.497C332.079 194.167 333.375 192.787 333.375 191.103V167.275C333.375 165.59 332.08 164.211 330.497 164.211H329.77V159.842H330.497V159.841ZM171.529 79.0979C171.529 68.1643 179.88 59.2711 190.149 59.2711H305.465C315.734 59.2711 324.085 68.1643 324.085 79.0979V332.948C324.085 343.882 315.734 352.775 305.465 352.775H190.149C179.88 352.775 171.529 343.882 171.529 332.948V79.0979Z" fill="#9BA2FB"/>
<path d="M324.392 79.0974V332.948C324.392 343.881 316.041 352.775 305.772 352.775H190.456C180.187 352.775 171.836 343.881 171.836 332.948V79.0974C171.836 68.1637 180.187 59.2705 190.456 59.2705H305.772C316.041 59.2705 324.392 68.1637 324.392 79.0974Z" fill="white"/>
<g opacity="0.9">
<path d="M297.277 115.021H197.9V214.92H297.277V115.021Z" fill="white"/>
</g>
<path d="M211.811 204.436H207.861V208.405H211.811V204.436Z" fill="#9BA2FB"/>
<path d="M215.762 204.436H211.812V208.405H215.762V204.436Z" fill="#9BA2FB"/>
<path d="M219.709 204.436H215.76V208.405H219.709V204.436Z" fill="#9BA2FB"/>
<path d="M223.658 204.436H219.709V208.405H223.658V204.436Z" fill="#9BA2FB"/>
<path d="M227.607 204.436H223.658V208.405H227.607V204.436Z" fill="#9BA2FB"/>
<path d="M235.506 204.436H231.557V208.405H235.506V204.436Z" fill="#9BA2FB"/>
<path d="M239.455 204.436H235.506V208.405H239.455V204.436Z" fill="#9BA2FB"/>
<path d="M251.303 204.436H247.354V208.405H251.303V204.436Z" fill="#9BA2FB"/>
<path d="M259.434 204.436H255.252V208.405H259.434V204.436Z" fill="#9BA2FB"/>
<path d="M263.387 204.436H259.438V208.405H263.387V204.436Z" fill="#9BA2FB"/>
<path d="M271.285 204.436H267.336V208.405H271.285V204.436Z" fill="#9BA2FB"/>
<path d="M275.234 204.436H271.285V208.405H275.234V204.436Z" fill="#9BA2FB"/>
<path d="M279.184 204.436H275.234V208.405H279.184V204.436Z" fill="#9BA2FB"/>
<path d="M283.133 204.436H279.184V208.405H283.133V204.436Z" fill="#9BA2FB"/>
<path d="M287.082 204.436H283.133V208.405H287.082V204.436Z" fill="#9BA2FB"/>
<path d="M291.264 204.436H287.082V208.405H291.264V204.436Z" fill="#9BA2FB"/>
<path d="M207.861 204.436H203.912V208.405H207.861V204.436Z" fill="#9BA2FB"/>
<path d="M227.607 200.466H223.658V204.436H227.607V200.466Z" fill="#9BA2FB"/>
<path d="M239.455 200.466H235.506V204.436H239.455V200.466Z" fill="#9BA2FB"/>
<path d="M247.353 200.466H243.404V204.436H247.353V200.466Z" fill="#9BA2FB"/>
<path d="M251.303 200.466H247.354V204.436H251.303V200.466Z" fill="#9BA2FB"/>
<path d="M255.252 200.466H251.303V204.436H255.252V200.466Z" fill="#9BA2FB"/>
<path d="M259.434 200.466H255.252V204.436H259.434V200.466Z" fill="#9BA2FB"/>
<path d="M271.285 200.466H267.336V204.436H271.285V200.466Z" fill="#9BA2FB"/>
<path d="M291.264 200.466H287.082V204.436H291.264V200.466Z" fill="#9BA2FB"/>
<path d="M207.861 200.466H203.912V204.436H207.861V200.466Z" fill="#9BA2FB"/>
<path d="M215.762 196.496H211.812V200.466H215.762V196.496Z" fill="#9BA2FB"/>
<path d="M219.709 196.496H215.76V200.466H219.709V196.496Z" fill="#9BA2FB"/>
<path d="M227.607 196.496H223.658V200.466H227.607V196.496Z" fill="#9BA2FB"/>
<path d="M235.506 196.496H231.557V200.466H235.506V196.496Z" fill="#9BA2FB"/>
<path d="M239.455 196.496H235.506V200.466H239.455V196.496Z" fill="#9BA2FB"/>
<path d="M243.404 196.496H239.455V200.466H243.404V196.496Z" fill="#9BA2FB"/>
<path d="M251.303 196.496H247.354V200.466H251.303V196.496Z" fill="#9BA2FB"/>
<path d="M255.252 196.496H251.303V200.466H255.252V196.496Z" fill="#9BA2FB"/>
<path d="M259.434 196.496H255.252V200.466H259.434V196.496Z" fill="#9BA2FB"/>
<path d="M263.387 196.496H259.438V200.466H263.387V196.496Z" fill="#9BA2FB"/>
<path d="M271.285 196.496H267.336V200.466H271.285V196.496Z" fill="#9BA2FB"/>
<path d="M279.184 196.496H275.234V200.466H279.184V196.496Z" fill="#9BA2FB"/>
<path d="M283.133 196.496H279.184V200.466H283.133V196.496Z" fill="#9BA2FB"/>
<path d="M291.264 196.496H287.082V200.466H291.264V196.496Z" fill="#9BA2FB"/>
<path d="M207.861 196.496H203.912V200.466H207.861V196.496Z" fill="#9BA2FB"/>
<path d="M215.762 192.525H211.812V196.495H215.762V192.525Z" fill="#9BA2FB"/>
<path d="M219.709 192.525H215.76V196.495H219.709V192.525Z" fill="#9BA2FB"/>
<path d="M227.607 192.525H223.658V196.495H227.607V192.525Z" fill="#9BA2FB"/>
<path d="M235.506 192.525H231.557V196.495H235.506V192.525Z" fill="#9BA2FB"/>
<path d="M243.404 192.525H239.455V196.495H243.404V192.525Z" fill="#9BA2FB"/>
<path d="M251.303 192.525H247.354V196.495H251.303V192.525Z" fill="#9BA2FB"/>
<path d="M271.285 192.525H267.336V196.495H271.285V192.525Z" fill="#9BA2FB"/>
<path d="M279.184 192.525H275.234V196.495H279.184V192.525Z" fill="#9BA2FB"/>
<path d="M283.133 192.525H279.184V196.495H283.133V192.525Z" fill="#9BA2FB"/>
<path d="M291.264 192.525H287.082V196.495H291.264V192.525Z" fill="#9BA2FB"/>
<path d="M207.861 192.525H203.912V196.495H207.861V192.525Z" fill="#9BA2FB"/>
<path d="M227.607 188.556H223.658V192.526H227.607V188.556Z" fill="#9BA2FB"/>
<path d="M235.506 188.556H231.557V192.526H235.506V188.556Z" fill="#9BA2FB"/>
<path d="M239.455 188.556H235.506V192.526H239.455V188.556Z" fill="#9BA2FB"/>
<path d="M243.404 188.556H239.455V192.526H243.404V188.556Z" fill="#9BA2FB"/>
<path d="M251.303 188.556H247.354V192.526H251.303V188.556Z" fill="#9BA2FB"/>
<path d="M255.252 188.556H251.303V192.526H255.252V188.556Z" fill="#9BA2FB"/>
<path d="M263.387 188.556H259.438V192.526H263.387V188.556Z" fill="#9BA2FB"/>
<path d="M271.285 188.556H267.336V192.526H271.285V188.556Z" fill="#9BA2FB"/>
<path d="M291.264 188.556H287.082V192.526H291.264V188.556Z" fill="#9BA2FB"/>
<path d="M207.861 188.556H203.912V192.526H207.861V188.556Z" fill="#9BA2FB"/>
<path d="M211.811 184.585H207.861V188.555H211.811V184.585Z" fill="#9BA2FB"/>
<path d="M215.762 184.585H211.812V188.555H215.762V184.585Z" fill="#9BA2FB"/>
<path d="M219.709 184.585H215.76V188.555H219.709V184.585Z" fill="#9BA2FB"/>
<path d="M223.658 184.585H219.709V188.555H223.658V184.585Z" fill="#9BA2FB"/>
<path d="M227.607 184.585H223.658V188.555H227.607V184.585Z" fill="#9BA2FB"/>
<path d="M235.506 184.585H231.557V188.555H235.506V184.585Z" fill="#9BA2FB"/>
<path d="M243.404 184.585H239.455V188.555H243.404V184.585Z" fill="#9BA2FB"/>
<path d="M247.353 184.585H243.404V188.555H247.353V184.585Z" fill="#9BA2FB"/>
<path d="M255.252 184.585H251.303V188.555H255.252V184.585Z" fill="#9BA2FB"/>
<path d="M271.285 184.585H267.336V188.555H271.285V184.585Z" fill="#9BA2FB"/>
<path d="M275.234 184.585H271.285V188.555H275.234V184.585Z" fill="#9BA2FB"/>
<path d="M279.184 184.585H275.234V188.555H279.184V184.585Z" fill="#9BA2FB"/>
<path d="M283.133 184.585H279.184V188.555H283.133V184.585Z" fill="#9BA2FB"/>
<path d="M287.082 184.585H283.133V188.555H287.082V184.585Z" fill="#9BA2FB"/>
<path d="M291.264 184.585H287.082V188.555H291.264V184.585Z" fill="#9BA2FB"/>
<path d="M207.861 184.585H203.912V188.555H207.861V184.585Z" fill="#9BA2FB"/>
<path d="M247.353 180.615H243.404V184.585H247.353V180.615Z" fill="#9BA2FB"/>
<path d="M251.303 180.615H247.354V184.585H251.303V180.615Z" fill="#9BA2FB"/>
<path d="M255.252 180.615H251.303V184.585H255.252V180.615Z" fill="#9BA2FB"/>
<path d="M263.387 180.615H259.438V184.585H263.387V180.615Z" fill="#9BA2FB"/>
<path d="M211.811 176.646H207.861V180.615H211.811V176.646Z" fill="#9BA2FB"/>
<path d="M215.762 176.646H211.812V180.615H215.762V176.646Z" fill="#9BA2FB"/>
<path d="M219.709 176.646H215.76V180.615H219.709V176.646Z" fill="#9BA2FB"/>
<path d="M223.658 176.646H219.709V180.615H223.658V176.646Z" fill="#9BA2FB"/>
<path d="M235.506 176.646H231.557V180.615H235.506V176.646Z" fill="#9BA2FB"/>
<path d="M239.455 176.646H235.506V180.615H239.455V176.646Z" fill="#9BA2FB"/>
<path d="M243.404 176.646H239.455V180.615H243.404V176.646Z" fill="#9BA2FB"/>
<path d="M251.303 176.646H247.354V180.615H251.303V176.646Z" fill="#9BA2FB"/>
<path d="M255.252 176.646H251.303V180.615H255.252V176.646Z" fill="#9BA2FB"/>
<path d="M259.434 176.646H255.252V180.615H259.434V176.646Z" fill="#9BA2FB"/>
<path d="M263.387 176.646H259.438V180.615H263.387V176.646Z" fill="#9BA2FB"/>
<path d="M267.336 176.646H263.387V180.615H267.336V176.646Z" fill="#9BA2FB"/>
<path d="M271.285 176.646H267.336V180.615H271.285V176.646Z" fill="#9BA2FB"/>
<path d="M275.234 176.646H271.285V180.615H275.234V176.646Z" fill="#9BA2FB"/>
<path d="M279.184 176.646H275.234V180.615H279.184V176.646Z" fill="#9BA2FB"/>
<path d="M287.082 176.646H283.133V180.615H287.082V176.646Z" fill="#9BA2FB"/>
<path d="M291.264 176.646H287.082V180.615H291.264V176.646Z" fill="#9BA2FB"/>
<path d="M215.762 172.676H211.812V176.646H215.762V172.676Z" fill="#9BA2FB"/>
<path d="M219.709 172.676H215.76V176.646H219.709V172.676Z" fill="#9BA2FB"/>
<path d="M231.557 172.676H227.607V176.646H231.557V172.676Z" fill="#9BA2FB"/>
<path d="M235.506 172.676H231.557V176.646H235.506V172.676Z" fill="#9BA2FB"/>
<path d="M243.404 172.676H239.455V176.646H243.404V172.676Z" fill="#9BA2FB"/>
<path d="M255.252 172.676H251.303V176.646H255.252V172.676Z" fill="#9BA2FB"/>
<path d="M263.387 172.676H259.438V176.646H263.387V172.676Z" fill="#9BA2FB"/>
<path d="M267.336 172.676H263.387V176.646H267.336V172.676Z" fill="#9BA2FB"/>
<path d="M275.234 172.676H271.285V176.646H275.234V172.676Z" fill="#9BA2FB"/>
<path d="M279.184 172.676H275.234V176.646H279.184V172.676Z" fill="#9BA2FB"/>
<path d="M211.811 168.706H207.861V172.676H211.811V168.706Z" fill="#9BA2FB"/>
<path d="M219.709 168.706H215.76V172.676H219.709V168.706Z" fill="#9BA2FB"/>
<path d="M223.658 168.706H219.709V172.676H223.658V168.706Z" fill="#9BA2FB"/>
<path d="M227.607 168.706H223.658V172.676H227.607V168.706Z" fill="#9BA2FB"/>
<path d="M231.557 168.706H227.607V172.676H231.557V168.706Z" fill="#9BA2FB"/>
<path d="M239.455 168.706H235.506V172.676H239.455V168.706Z" fill="#9BA2FB"/>
<path d="M243.404 168.706H239.455V172.676H243.404V168.706Z" fill="#9BA2FB"/>
<path d="M247.353 168.706H243.404V172.676H247.353V168.706Z" fill="#9BA2FB"/>
<path d="M251.303 168.706H247.354V172.676H251.303V168.706Z" fill="#9BA2FB"/>
<path d="M255.252 168.706H251.303V172.676H255.252V168.706Z" fill="#9BA2FB"/>
<path d="M259.434 168.706H255.252V172.676H259.434V168.706Z" fill="#9BA2FB"/>
<path d="M279.184 168.706H275.234V172.676H279.184V168.706Z" fill="#9BA2FB"/>
<path d="M283.133 168.706H279.184V172.676H283.133V168.706Z" fill="#9BA2FB"/>
<path d="M291.264 168.706H287.082V172.676H291.264V168.706Z" fill="#9BA2FB"/>
<path d="M207.861 168.706H203.912V172.676H207.861V168.706Z" fill="#9BA2FB"/>
<path d="M211.811 164.735H207.861V168.705H211.811V164.735Z" fill="#9BA2FB"/>
<path d="M215.762 164.735H211.812V168.705H215.762V164.735Z" fill="#9BA2FB"/>
<path d="M219.709 164.735H215.76V168.705H219.709V164.735Z" fill="#9BA2FB"/>
<path d="M235.506 164.735H231.557V168.705H235.506V164.735Z" fill="#9BA2FB"/>
<path d="M239.455 164.735H235.506V168.705H239.455V164.735Z" fill="#9BA2FB"/>
<path d="M255.252 164.735H251.303V168.705H255.252V164.735Z" fill="#9BA2FB"/>
<path d="M267.336 164.735H263.387V168.705H267.336V164.735Z" fill="#9BA2FB"/>
<path d="M271.285 164.735H267.336V168.705H271.285V164.735Z" fill="#9BA2FB"/>
<path d="M279.184 164.735H275.234V168.705H279.184V164.735Z" fill="#9BA2FB"/>
<path d="M283.133 164.735H279.184V168.705H283.133V164.735Z" fill="#9BA2FB"/>
<path d="M287.082 164.735H283.133V168.705H287.082V164.735Z" fill="#9BA2FB"/>
<path d="M291.264 164.735H287.082V168.705H291.264V164.735Z" fill="#9BA2FB"/>
<path d="M207.861 164.735H203.912V168.705H207.861V164.735Z" fill="#9BA2FB"/>
<path d="M219.709 160.766H215.76V164.736H219.709V160.766Z" fill="#9BA2FB"/>
<path d="M223.658 160.766H219.709V164.736H223.658V160.766Z" fill="#9BA2FB"/>
<path d="M227.607 160.766H223.658V164.736H227.607V160.766Z" fill="#9BA2FB"/>
<path d="M231.557 160.766H227.607V164.736H231.557V160.766Z" fill="#9BA2FB"/>
<path d="M235.506 160.766H231.557V164.736H235.506V160.766Z" fill="#9BA2FB"/>
<path d="M239.455 160.766H235.506V164.736H239.455V160.766Z" fill="#9BA2FB"/>
<path d="M251.303 160.766H247.354V164.736H251.303V160.766Z" fill="#9BA2FB"/>
<path d="M263.387 160.766H259.438V164.736H263.387V160.766Z" fill="#9BA2FB"/>
<path d="M267.336 160.766H263.387V164.736H267.336V160.766Z" fill="#9BA2FB"/>
<path d="M283.133 160.766H279.184V164.736H283.133V160.766Z" fill="#9BA2FB"/>
<path d="M207.861 160.766H203.912V164.736H207.861V160.766Z" fill="#9BA2FB"/>
<path d="M211.811 156.796H207.861V160.766H211.811V156.796Z" fill="#9BA2FB"/>
<path d="M215.762 156.796H211.812V160.766H215.762V156.796Z" fill="#9BA2FB"/>
<path d="M219.709 156.796H215.76V160.766H219.709V156.796Z" fill="#9BA2FB"/>
<path d="M223.658 156.796H219.709V160.766H223.658V156.796Z" fill="#9BA2FB"/>
<path d="M231.557 156.796H227.607V160.766H231.557V156.796Z" fill="#9BA2FB"/>
<path d="M239.455 156.796H235.506V160.766H239.455V156.796Z" fill="#9BA2FB"/>
<path d="M243.404 156.796H239.455V160.766H243.404V156.796Z" fill="#9BA2FB"/>
<path d="M251.303 156.796H247.354V160.766H251.303V156.796Z" fill="#9BA2FB"/>
<path d="M255.252 156.796H251.303V160.766H255.252V156.796Z" fill="#9BA2FB"/>
<path d="M259.434 156.796H255.252V160.766H259.434V156.796Z" fill="#9BA2FB"/>
<path d="M263.387 156.796H259.438V160.766H263.387V156.796Z" fill="#9BA2FB"/>
<path d="M271.285 156.796H267.336V160.766H271.285V156.796Z" fill="#9BA2FB"/>
<path d="M275.234 156.796H271.285V160.766H275.234V156.796Z" fill="#9BA2FB"/>
<path d="M279.184 156.796H275.234V160.766H279.184V156.796Z" fill="#9BA2FB"/>
<path d="M283.133 156.796H279.184V160.766H283.133V156.796Z" fill="#9BA2FB"/>
<path d="M291.264 156.796H287.082V160.766H291.264V156.796Z" fill="#9BA2FB"/>
<path d="M211.811 152.824H207.861V156.794H211.811V152.824Z" fill="#9BA2FB"/>
<path d="M219.709 152.824H215.76V156.794H219.709V152.824Z" fill="#9BA2FB"/>
<path d="M227.607 152.824H223.658V156.794H227.607V152.824Z" fill="#9BA2FB"/>
<path d="M231.557 152.824H227.607V156.794H231.557V152.824Z" fill="#9BA2FB"/>
<path d="M243.404 152.824H239.455V156.794H243.404V152.824Z" fill="#9BA2FB"/>
<path d="M247.353 152.824H243.404V156.794H247.353V152.824Z" fill="#9BA2FB"/>
<path d="M251.303 152.824H247.354V156.794H251.303V152.824Z" fill="#9BA2FB"/>
<path d="M259.434 152.824H255.252V156.794H259.434V152.824Z" fill="#9BA2FB"/>
<path d="M263.387 152.824H259.438V156.794H263.387V152.824Z" fill="#9BA2FB"/>
<path d="M267.336 152.824H263.387V156.794H267.336V152.824Z" fill="#9BA2FB"/>
<path d="M275.234 152.824H271.285V156.794H275.234V152.824Z" fill="#9BA2FB"/>
<path d="M283.133 152.824H279.184V156.794H283.133V152.824Z" fill="#9BA2FB"/>
<path d="M287.082 152.824H283.133V156.794H287.082V152.824Z" fill="#9BA2FB"/>
<path d="M291.264 152.824H287.082V156.794H291.264V152.824Z" fill="#9BA2FB"/>
<path d="M207.861 152.824H203.912V156.794H207.861V152.824Z" fill="#9BA2FB"/>
<path d="M211.811 148.854H207.861V152.824H211.811V148.854Z" fill="#9BA2FB"/>
<path d="M227.607 148.854H223.658V152.824H227.607V148.854Z" fill="#9BA2FB"/>
<path d="M231.557 148.854H227.607V152.824H231.557V148.854Z" fill="#9BA2FB"/>
<path d="M239.455 148.854H235.506V152.824H239.455V148.854Z" fill="#9BA2FB"/>
<path d="M243.404 148.854H239.455V152.824H243.404V148.854Z" fill="#9BA2FB"/>
<path d="M251.303 148.854H247.354V152.824H251.303V148.854Z" fill="#9BA2FB"/>
<path d="M255.252 148.854H251.303V152.824H255.252V148.854Z" fill="#9BA2FB"/>
<path d="M263.387 148.854H259.438V152.824H263.387V148.854Z" fill="#9BA2FB"/>
<path d="M267.336 148.854H263.387V152.824H267.336V148.854Z" fill="#9BA2FB"/>
<path d="M271.285 148.854H267.336V152.824H271.285V148.854Z" fill="#9BA2FB"/>
<path d="M275.234 148.854H271.285V152.824H275.234V148.854Z" fill="#9BA2FB"/>
<path d="M279.184 148.854H275.234V152.824H279.184V148.854Z" fill="#9BA2FB"/>
<path d="M283.133 148.854H279.184V152.824H283.133V148.854Z" fill="#9BA2FB"/>
<path d="M207.861 148.854H203.912V152.824H207.861V148.854Z" fill="#9BA2FB"/>
<path d="M239.455 144.884H235.506V148.854H239.455V144.884Z" fill="#9BA2FB"/>
<path d="M247.353 144.884H243.404V148.854H247.353V144.884Z" fill="#9BA2FB"/>
<path d="M251.303 144.884H247.354V148.854H251.303V144.884Z" fill="#9BA2FB"/>
<path d="M259.434 144.884H255.252V148.854H259.434V144.884Z" fill="#9BA2FB"/>
<path d="M263.387 144.884H259.438V148.854H263.387V144.884Z" fill="#9BA2FB"/>
<path d="M267.336 144.884H263.387V148.854H267.336V144.884Z" fill="#9BA2FB"/>
<path d="M211.811 140.915H207.861V144.885H211.811V140.915Z" fill="#9BA2FB"/>
<path d="M215.762 140.915H211.812V144.885H215.762V140.915Z" fill="#9BA2FB"/>
<path d="M219.709 140.915H215.76V144.885H219.709V140.915Z" fill="#9BA2FB"/>
<path d="M223.658 140.915H219.709V144.885H223.658V140.915Z" fill="#9BA2FB"/>
<path d="M227.607 140.915H223.658V144.885H227.607V140.915Z" fill="#9BA2FB"/>
<path d="M235.506 140.915H231.557V144.885H235.506V140.915Z" fill="#9BA2FB"/>
<path d="M239.455 140.915H235.506V144.885H239.455V140.915Z" fill="#9BA2FB"/>
<path d="M251.303 140.915H247.354V144.885H251.303V140.915Z" fill="#9BA2FB"/>
<path d="M267.336 140.915H263.387V144.885H267.336V140.915Z" fill="#9BA2FB"/>
<path d="M271.285 140.915H267.336V144.885H271.285V140.915Z" fill="#9BA2FB"/>
<path d="M279.184 140.915H275.234V144.885H279.184V140.915Z" fill="#9BA2FB"/>
<path d="M291.264 140.915H287.082V144.885H291.264V140.915Z" fill="#9BA2FB"/>
<path d="M207.861 140.915H203.912V144.885H207.861V140.915Z" fill="#9BA2FB"/>
<path d="M227.607 136.945H223.658V140.915H227.607V136.945Z" fill="#9BA2FB"/>
<path d="M259.434 136.945H255.252V140.915H259.434V136.945Z" fill="#9BA2FB"/>
<path d="M263.387 136.945H259.438V140.915H263.387V136.945Z" fill="#9BA2FB"/>
<path d="M271.285 136.945H267.336V140.915H271.285V136.945Z" fill="#9BA2FB"/>
<path d="M275.234 136.945H271.285V140.915H275.234V136.945Z" fill="#9BA2FB"/>
<path d="M283.133 136.945H279.184V140.915H283.133V136.945Z" fill="#9BA2FB"/>
<path d="M287.082 136.945H283.133V140.915H287.082V136.945Z" fill="#9BA2FB"/>
<path d="M291.264 136.945H287.082V140.915H291.264V136.945Z" fill="#9BA2FB"/>
<path d="M207.861 136.945H203.912V140.915H207.861V136.945Z" fill="#9BA2FB"/>
<path d="M215.762 132.975H211.812V136.945H215.762V132.975Z" fill="#9BA2FB"/>
<path d="M219.709 132.975H215.76V136.945H219.709V132.975Z" fill="#9BA2FB"/>
<path d="M227.607 132.975H223.658V136.945H227.607V132.975Z" fill="#9BA2FB"/>
<path d="M235.506 132.975H231.557V136.945H235.506V132.975Z" fill="#9BA2FB"/>
<path d="M239.455 132.975H235.506V136.945H239.455V132.975Z" fill="#9BA2FB"/>
<path d="M247.353 132.975H243.404V136.945H247.353V132.975Z" fill="#9BA2FB"/>
<path d="M251.303 132.975H247.354V136.945H251.303V132.975Z" fill="#9BA2FB"/>
<path d="M259.434 132.975H255.252V136.945H259.434V132.975Z" fill="#9BA2FB"/>
<path d="M275.234 132.975H271.285V136.945H275.234V132.975Z" fill="#9BA2FB"/>
<path d="M279.184 132.975H275.234V136.945H279.184V132.975Z" fill="#9BA2FB"/>
<path d="M283.133 132.975H279.184V136.945H283.133V132.975Z" fill="#9BA2FB"/>
<path d="M207.861 132.975H203.912V136.945H207.861V132.975Z" fill="#9BA2FB"/>
<path d="M215.762 129.003H211.812V132.973H215.762V129.003Z" fill="#9BA2FB"/>
<path d="M219.709 129.003H215.76V132.973H219.709V129.003Z" fill="#9BA2FB"/>
<path d="M227.607 129.003H223.658V132.973H227.607V129.003Z" fill="#9BA2FB"/>
<path d="M235.506 129.003H231.557V132.973H235.506V129.003Z" fill="#9BA2FB"/>
<path d="M243.404 129.003H239.455V132.973H243.404V129.003Z" fill="#9BA2FB"/>
<path d="M247.353 129.003H243.404V132.973H247.353V129.003Z" fill="#9BA2FB"/>
<path d="M251.303 129.003H247.354V132.973H251.303V129.003Z" fill="#9BA2FB"/>
<path d="M255.252 129.003H251.303V132.973H255.252V129.003Z" fill="#9BA2FB"/>
<path d="M259.434 129.003H255.252V132.973H259.434V129.003Z" fill="#9BA2FB"/>
<path d="M267.336 129.003H263.387V132.973H267.336V129.003Z" fill="#9BA2FB"/>
<path d="M271.285 129.003H267.336V132.973H271.285V129.003Z" fill="#9BA2FB"/>
<path d="M275.234 129.003H271.285V132.973H275.234V129.003Z" fill="#9BA2FB"/>
<path d="M283.133 129.003H279.184V132.973H283.133V129.003Z" fill="#9BA2FB"/>
<path d="M287.082 129.003H283.133V132.973H287.082V129.003Z" fill="#9BA2FB"/>
<path d="M291.264 129.003H287.082V132.973H291.264V129.003Z" fill="#9BA2FB"/>
<path d="M207.861 129.003H203.912V132.973H207.861V129.003Z" fill="#9BA2FB"/>
<path d="M227.607 125.034H223.658V129.004H227.607V125.034Z" fill="#9BA2FB"/>
<path d="M243.404 125.034H239.455V129.004H243.404V125.034Z" fill="#9BA2FB"/>
<path d="M247.353 125.034H243.404V129.004H247.353V125.034Z" fill="#9BA2FB"/>
<path d="M255.252 125.034H251.303V129.004H255.252V125.034Z" fill="#9BA2FB"/>
<path d="M259.434 125.034H255.252V129.004H259.434V125.034Z" fill="#9BA2FB"/>
<path d="M263.387 125.034H259.438V129.004H263.387V125.034Z" fill="#9BA2FB"/>
<path d="M267.336 125.034H263.387V129.004H267.336V125.034Z" fill="#9BA2FB"/>
<path d="M287.082 125.034H283.133V129.004H287.082V125.034Z" fill="#9BA2FB"/>
<path d="M207.861 125.034H203.912V129.004H207.861V125.034Z" fill="#9BA2FB"/>
<path d="M211.811 121.064H207.861V125.034H211.811V121.064Z" fill="#9BA2FB"/>
<path d="M215.762 121.064H211.812V125.034H215.762V121.064Z" fill="#9BA2FB"/>
<path d="M219.709 121.064H215.76V125.034H219.709V121.064Z" fill="#9BA2FB"/>
<path d="M223.658 121.064H219.709V125.034H223.658V121.064Z" fill="#9BA2FB"/>
<path d="M227.607 121.064H223.658V125.034H227.607V121.064Z" fill="#9BA2FB"/>
<path d="M235.506 121.064H231.557V125.034H235.506V121.064Z" fill="#9BA2FB"/>
<path d="M239.455 121.064H235.506V125.034H239.455V121.064Z" fill="#9BA2FB"/>
<path d="M259.434 121.064H255.252V125.034H259.434V121.064Z" fill="#9BA2FB"/>
<path d="M267.336 121.064H263.387V125.034H267.336V121.064Z" fill="#9BA2FB"/>
<path d="M275.234 121.064H271.285V125.034H275.234V121.064Z" fill="#9BA2FB"/>
<path d="M279.184 121.064H275.234V125.034H279.184V121.064Z" fill="#9BA2FB"/>
<path d="M291.264 121.064H287.082V125.034H291.264V121.064Z" fill="#9BA2FB"/>
<path d="M207.861 121.064H203.912V125.034H207.861V121.064Z" fill="#9BA2FB"/>
<path d="M194.406 131.311C193.681 131.311 193.094 130.72 193.094 129.991V111.988C193.094 111.259 193.681 110.666 194.406 110.666H212.478C213.203 110.666 213.791 111.257 213.791 111.986C213.791 112.715 213.203 113.305 212.478 113.305H195.721V129.989C195.721 130.718 195.134 131.309 194.408 131.309L194.406 131.311Z" fill="#9BA2FB"/>
<path d="M300.771 131.391C300.046 131.391 299.458 130.801 299.458 130.072V113.226H282.861C282.136 113.226 281.549 112.636 281.549 111.907C281.549 111.178 282.136 110.588 282.861 110.588H300.771C301.496 110.588 302.083 111.178 302.083 111.907V130.074C302.083 130.803 301.496 131.393 300.771 131.393V131.391Z" fill="#9BA2FB"/>
<path d="M300.771 221.867H282.699C281.974 221.867 281.387 221.277 281.387 220.548C281.387 219.819 281.974 219.227 282.699 219.227H299.456V202.542C299.456 201.813 300.044 201.223 300.769 201.223C301.494 201.223 302.081 201.813 302.081 202.542V220.546C302.081 221.275 301.494 221.865 300.769 221.865L300.771 221.867Z" fill="#9BA2FB"/>
<path d="M212.318 221.949H194.406C193.681 221.949 193.094 221.358 193.094 220.629V202.462C193.094 201.733 193.681 201.143 194.406 201.143C195.131 201.143 195.719 201.733 195.719 202.462V219.308H212.316C213.041 219.308 213.628 219.898 213.628 220.627C213.628 221.356 213.041 221.946 212.316 221.946L212.318 221.949Z" fill="#9BA2FB"/>
<path d="M225 71.4307C225 68.2873 227.548 65.739 230.692 65.739H269.308C272.452 65.739 275 68.2873 275 71.4307C275 75.2028 271.942 78.2608 268.17 78.2608H231.83C228.058 78.2608 225 75.2028 225 71.4307Z" fill="#9BA2FB"/>
</g>
<path fill-rule="evenodd" clip-rule="evenodd" d="M407.893 108.522C407.893 114.261 412.76 118.924 418.749 118.924V121.076C412.767 121.076 407.893 125.739 407.893 131.478H405.647C405.647 125.739 400.781 121.076 394.791 121.076V118.924C400.781 118.924 405.647 114.261 405.647 108.522H407.893Z" fill="white"/>
<path fill-rule="evenodd" clip-rule="evenodd" d="M361.572 208.696C361.572 211.826 364.322 214.369 367.708 214.369V215.543C364.326 215.543 361.572 218.087 361.572 221.217H360.302C360.302 218.087 357.551 215.543 354.166 215.543V214.369C357.551 214.369 360.302 211.826 360.302 208.696H361.572Z" fill="white"/>
<path fill-rule="evenodd" clip-rule="evenodd" d="M63.8503 164.87C63.8503 169.044 67.4473 172.435 71.8743 172.435V174C67.4528 174 63.8503 177.391 63.8503 181.565H62.1901C62.1901 177.391 58.5931 174 54.166 174V172.435C58.5931 172.435 62.1901 169.044 62.1901 164.87H63.8503Z" fill="white"/>
</svg>
