<svg width="45" height="45" viewBox="0 0 45 45" fill="none" xmlns="http://www.w3.org/2000/svg">
<path d="M13.0667 20.5333H7.46667C3.3488 20.5333 0 17.1845 0 13.0667V7.46667C0 3.3488 3.3488 0 7.46667 0H13.0667C17.1845 0 20.5333 3.3488 20.5333 7.46667V13.0667C20.5333 17.1845 17.1845 20.5333 13.0667 20.5333ZM7.46667 5.6C6.43813 5.6 5.6 6.43813 5.6 7.46667V13.0667C5.6 14.0952 6.43813 14.9333 7.46667 14.9333H13.0667C14.0952 14.9333 14.9333 14.0952 14.9333 13.0667V7.46667C14.9333 6.43813 14.0952 5.6 13.0667 5.6H7.46667ZM37.3333 20.5333H31.7333C27.6155 20.5333 24.2667 17.1845 24.2667 13.0667V7.46667C24.2667 3.3488 27.6155 0 31.7333 0H37.3333C41.4512 0 44.8 3.3488 44.8 7.46667V13.0667C44.8 17.1845 41.4512 20.5333 37.3333 20.5333ZM31.7333 5.6C30.7029 5.6 29.8667 6.43813 29.8667 7.46667V13.0667C29.8667 14.0952 30.7029 14.9333 31.7333 14.9333H37.3333C38.3637 14.9333 39.2 14.0952 39.2 13.0667V7.46667C39.2 6.43813 38.3637 5.6 37.3333 5.6H31.7333ZM13.0667 44.8H7.46667C3.3488 44.8 0 41.4512 0 37.3333V31.7333C0 27.6155 3.3488 24.2667 7.46667 24.2667H13.0667C17.1845 24.2667 20.5333 27.6155 20.5333 31.7333V37.3333C20.5333 41.4512 17.1845 44.8 13.0667 44.8ZM7.46667 29.8667C6.43813 29.8667 5.6 30.7048 5.6 31.7333V37.3333C5.6 38.3619 6.43813 39.2 7.46667 39.2H13.0667C14.0952 39.2 14.9333 38.3619 14.9333 37.3333V31.7333C14.9333 30.7048 14.0952 29.8667 13.0667 29.8667H7.46667ZM31.7333 28.9333V27.0667C31.7333 25.5211 30.4789 24.2667 28.9333 24.2667H27.0667C25.5211 24.2667 24.2667 25.5211 24.2667 27.0667V28.9333C24.2667 30.4789 25.5211 31.7333 27.0667 31.7333H28.9333C30.4789 31.7333 31.7333 30.4789 31.7333 28.9333ZM37.3333 34.5333C37.3333 32.9877 36.0789 31.7333 34.5333 31.7333C32.9877 31.7333 31.7333 32.9877 31.7333 34.5333C31.7333 36.0789 32.9877 37.3333 34.5333 37.3333C36.0789 37.3333 37.3333 36.0789 37.3333 34.5333ZM31.7333 42V40.1333C31.7333 38.5877 30.4789 37.3333 28.9333 37.3333H27.0667C25.5211 37.3333 24.2667 38.5877 24.2667 40.1333V42C24.2667 43.5456 25.5211 44.8 27.0667 44.8H28.9333C30.4789 44.8 31.7333 43.5456 31.7333 42ZM44.8 28.9333V27.0667C44.8 25.5211 43.5456 24.2667 42 24.2667H40.1333C38.5877 24.2667 37.3333 25.5211 37.3333 27.0667V28.9333C37.3333 30.4789 38.5877 31.7333 40.1333 31.7333H42C43.5456 31.7333 44.8 30.4789 44.8 28.9333Z" fill="#01A56D"/>
</svg>
