<svg width="137" height="180" viewBox="0 0 137 180" fill="none" xmlns="http://www.w3.org/2000/svg">
<path d="M37.4609 48.2144L23.5469 49.2858V136.071H109.172V48.2144H62.0781L57.7969 52.5001L49.2344 54.6429L40.6719 52.5001L37.4609 48.2144Z" fill="white"/>
<path d="M122.016 64.2856H108.102V74.9999L111.312 76.0714L119.875 74.9999V79.2856L120.945 99.6428L119.875 114.643L117.734 115.714H108.102V126.429H123.086L127.367 124.286L129.508 120V108.214V91.0714L128.438 70.7142L127.367 66.4285L122.016 64.2856Z" fill="white"/>
<path d="M111.084 66.6261V46.7349H61.7966C61.7966 46.7349 61.7966 46.7751 61.7563 46.7751C60.9136 48.3051 59.87 49.5534 58.5454 50.6809H107.151V66.6261H111.084Z" fill="#0A0909"/>
<path d="M111.084 66.6261V46.7349H61.7966C61.7966 46.7349 61.7966 46.7751 61.7563 46.7751C60.9136 48.3051 59.87 49.5534 58.5454 50.6809H107.151V66.6261H111.084Z" fill="black" fill-opacity="0.2"/>
<path d="M107.152 143.332V123.964H111.086V143.332H107.152Z" fill="#0A0909"/>
<path d="M107.152 143.332V123.964H111.086V143.332H107.152Z" fill="black" fill-opacity="0.2"/>
<path d="M24.5096 137.535V50.6809H38.9588C38.3166 49.7951 37.6344 48.9495 37.0725 48.0234C36.7914 47.5804 36.5506 47.1375 36.35 46.7349H20.5762V137.535H24.5096Z" fill="#0A0909"/>
<path d="M24.5096 137.535V50.6809H38.9588C38.3166 49.7951 37.6344 48.9495 37.0725 48.0234C36.7914 47.5804 36.5506 47.1375 36.35 46.7349H20.5762V137.535H24.5096Z" fill="black" fill-opacity="0.2"/>
<path d="M104.302 160.164H27.3197C23.5871 160.164 20.5366 157.104 20.5366 153.359V134.072H111.045V153.359C111.085 157.144 108.035 160.164 104.302 160.164Z" fill="#0A0909"/>
<path d="M104.302 160.164H27.3197C23.5871 160.164 20.5366 157.104 20.5366 153.359V134.072H111.045V153.359C111.085 157.144 108.035 160.164 104.302 160.164Z" fill="black" fill-opacity="0.2"/>
<path d="M14.8779 106.933C11.0649 106.933 5.64648 103.51 5.64648 95.8191C5.64648 90.5845 8.49619 84.9876 10.8241 80.4777C11.7071 78.7463 12.55 77.0954 13.0316 75.8472C13.5534 74.5184 12.9112 72.0623 12.1887 69.2839C11.0248 64.7339 9.3792 58.4926 10.9044 50.8017C12.2289 44.0774 15.7208 39.0441 21.2596 35.9035C25.474 33.4874 29.7285 32.8433 31.6951 32.6016C31.7754 32.521 31.8156 32.4404 31.8959 32.3601C33.5414 30.5481 37.4348 26.2396 42.6123 22.4142C49.1947 17.5019 55.6166 15.0054 61.6371 15.0054C67.9787 15.0054 74.0795 17.0187 79.217 20.8842C83.1104 23.7833 85.1172 26.7229 85.1975 26.8435C85.7994 27.7696 85.5586 28.9776 84.6756 29.5816C83.7926 30.1857 82.5484 29.944 81.9463 29.0581C81.9463 29.0179 80.1803 26.4811 76.7688 23.9444C72.2734 20.6426 67.2162 18.9514 61.6773 18.9514C53.5295 18.9514 44.4988 24.3471 34.866 35.0176C34.5047 35.4203 34.2639 35.6618 34.1033 35.8632C33.7822 36.1853 33.4211 36.3464 33.0197 36.4268C32.8592 36.4671 32.6986 36.4671 32.4578 36.5074C22.4637 37.8764 16.4834 42.9499 14.7976 51.6072C13.4731 58.4121 14.8779 63.9284 16.0419 68.3174C16.965 71.9011 17.7276 74.7601 16.7643 77.2969C16.2024 78.7463 15.3194 80.4777 14.3561 82.33C12.2289 86.4372 9.62002 91.5912 9.62002 95.8594C9.62002 101.255 13.1922 103.027 14.8779 103.027C17.4467 103.027 19.3732 101.537 20.497 98.5975C20.8984 97.5908 22.0223 97.0673 23.0256 97.4701C24.0291 97.8728 24.5508 99.0001 24.1494 100.007C23.1861 102.423 21.7814 104.275 19.9351 105.483C18.4501 106.449 16.7242 106.933 14.8779 106.933Z" fill="#0A0909"/>
<path d="M14.8779 106.933C11.0649 106.933 5.64648 103.51 5.64648 95.8191C5.64648 90.5845 8.49619 84.9876 10.8241 80.4777C11.7071 78.7463 12.55 77.0954 13.0316 75.8472C13.5534 74.5184 12.9112 72.0623 12.1887 69.2839C11.0248 64.7339 9.3792 58.4926 10.9044 50.8017C12.2289 44.0774 15.7208 39.0441 21.2596 35.9035C25.474 33.4874 29.7285 32.8433 31.6951 32.6016C31.7754 32.521 31.8156 32.4404 31.8959 32.3601C33.5414 30.5481 37.4348 26.2396 42.6123 22.4142C49.1947 17.5019 55.6166 15.0054 61.6371 15.0054C67.9787 15.0054 74.0795 17.0187 79.217 20.8842C83.1104 23.7833 85.1172 26.7229 85.1975 26.8435C85.7994 27.7696 85.5586 28.9776 84.6756 29.5816C83.7926 30.1857 82.5484 29.944 81.9463 29.0581C81.9463 29.0179 80.1803 26.4811 76.7688 23.9444C72.2734 20.6426 67.2162 18.9514 61.6773 18.9514C53.5295 18.9514 44.4988 24.3471 34.866 35.0176C34.5047 35.4203 34.2639 35.6618 34.1033 35.8632C33.7822 36.1853 33.4211 36.3464 33.0197 36.4268C32.8592 36.4671 32.6986 36.4671 32.4578 36.5074C22.4637 37.8764 16.4834 42.9499 14.7976 51.6072C13.4731 58.4121 14.8779 63.9284 16.0419 68.3174C16.965 71.9011 17.7276 74.7601 16.7643 77.2969C16.2024 78.7463 15.3194 80.4777 14.3561 82.33C12.2289 86.4372 9.62002 91.5912 9.62002 95.8594C9.62002 101.255 13.1922 103.027 14.8779 103.027C17.4467 103.027 19.3732 101.537 20.497 98.5975C20.8984 97.5908 22.0223 97.0673 23.0256 97.4701C24.0291 97.8728 24.5508 99.0001 24.1494 100.007C23.1861 102.423 21.7814 104.275 19.9351 105.483C18.4501 106.449 16.7242 106.933 14.8779 106.933Z" fill="black" fill-opacity="0.2"/>
<path d="M48.4714 56.6806C44.3775 56.6806 40.6849 55.0298 37.7548 51.889C35.5874 49.5537 34.5841 47.2182 34.5439 47.1376C34.1425 46.1309 34.5841 44.9633 35.5874 44.5606C36.5909 44.158 37.7548 44.6009 38.1562 45.6076C38.1562 45.6076 38.9589 47.5 40.6849 49.312C42.8923 51.6072 45.5013 52.7749 48.4714 52.7749C55.8566 52.7749 58.7062 47.7417 58.7464 47.7014C59.1075 47.0974 59.7497 46.6947 60.4722 46.6947H105.144C105.947 44.0371 105.987 41.2186 105.184 38.5208C104.141 34.7759 101.693 31.7159 98.281 29.8234C94.9095 27.9308 91.0163 27.4879 87.2835 28.5751C84.9556 29.2596 82.8284 30.4675 81.1427 32.1586C80.38 32.9239 79.1359 32.9239 78.3732 32.1186C77.6107 31.3131 77.6107 30.1051 78.4134 29.3401C80.5808 27.2061 83.3101 25.5955 86.24 24.79C90.9761 23.4209 95.953 23.9847 100.248 26.4008C104.542 28.8166 107.673 32.7224 108.998 37.4738C110.121 41.4601 109.921 45.6076 108.395 49.4329C108.074 50.1979 107.352 50.6811 106.589 50.6811H61.5157C60.0308 52.5736 55.9769 56.6806 48.4714 56.6806Z" fill="#0A0909"/>
<path d="M48.4714 56.6806C44.3775 56.6806 40.6849 55.0298 37.7548 51.889C35.5874 49.5537 34.5841 47.2182 34.5439 47.1376C34.1425 46.1309 34.5841 44.9633 35.5874 44.5606C36.5909 44.158 37.7548 44.6009 38.1562 45.6076C38.1562 45.6076 38.9589 47.5 40.6849 49.312C42.8923 51.6072 45.5013 52.7749 48.4714 52.7749C55.8566 52.7749 58.7062 47.7417 58.7464 47.7014C59.1075 47.0974 59.7497 46.6947 60.4722 46.6947H105.144C105.947 44.0371 105.987 41.2186 105.184 38.5208C104.141 34.7759 101.693 31.7159 98.281 29.8234C94.9095 27.9308 91.0163 27.4879 87.2835 28.5751C84.9556 29.2596 82.8284 30.4675 81.1427 32.1586C80.38 32.9239 79.1359 32.9239 78.3732 32.1186C77.6107 31.3131 77.6107 30.1051 78.4134 29.3401C80.5808 27.2061 83.3101 25.5955 86.24 24.79C90.9761 23.4209 95.953 23.9847 100.248 26.4008C104.542 28.8166 107.673 32.7224 108.998 37.4738C110.121 41.4601 109.921 45.6076 108.395 49.4329C108.074 50.1979 107.352 50.6811 106.589 50.6811H61.5157C60.0308 52.5736 55.9769 56.6806 48.4714 56.6806Z" fill="black" fill-opacity="0.2"/>
<path d="M44.7797 35.9031C44.4986 35.9031 44.2178 35.7823 43.9769 35.581C43.4953 35.1381 43.4953 34.3729 43.8967 33.8897C48.2715 29.1786 55.0547 23.5817 62.4798 23.7831C64.6472 23.8232 66.8146 24.226 68.8215 24.991C69.4236 25.2325 69.7447 25.9172 69.5439 26.521C69.3031 27.1251 68.6209 27.4472 68.0187 27.246C66.2127 26.6016 64.3261 26.199 62.3996 26.199C55.8574 25.9975 49.6361 31.192 45.6224 35.5408C45.4219 35.7823 45.1008 35.9031 44.7797 35.9031Z" fill="#0A0909"/>
<path d="M44.7797 35.9031C44.4986 35.9031 44.2178 35.7823 43.9769 35.581C43.4953 35.1381 43.4953 34.3729 43.8967 33.8897C48.2715 29.1786 55.0547 23.5817 62.4798 23.7831C64.6472 23.8232 66.8146 24.226 68.8215 24.991C69.4236 25.2325 69.7447 25.9172 69.5439 26.521C69.3031 27.1251 68.6209 27.4472 68.0187 27.246C66.2127 26.6016 64.3261 26.199 62.3996 26.199C55.8574 25.9975 49.6361 31.192 45.6224 35.5408C45.4219 35.7823 45.1008 35.9031 44.7797 35.9031Z" fill="black" fill-opacity="0.2"/>
<path d="M121.521 127.911H109.199V123.965H121.521C124.732 123.965 127.381 121.347 127.381 118.086V72.5045C127.381 69.2833 124.772 66.6258 121.521 66.6258H109.199V62.6797H121.521C126.899 62.6797 131.314 67.109 131.314 72.5045V118.086C131.314 123.522 126.899 127.911 121.521 127.911Z" fill="#0A0909"/>
<path d="M121.521 127.911H109.199V123.965H121.521C124.732 123.965 127.381 121.347 127.381 118.086V72.5045C127.381 69.2833 124.772 66.6258 121.521 66.6258H109.199V62.6797H121.521C126.899 62.6797 131.314 67.109 131.314 72.5045V118.086C131.314 123.522 126.899 127.911 121.521 127.911Z" fill="black" fill-opacity="0.2"/>
<path d="M118.993 117.281H107.192V73.3101H118.993C120.879 73.3101 122.404 74.8403 122.404 76.7326V113.858C122.444 115.75 120.879 117.281 118.993 117.281ZM111.166 113.335H118.511V77.2561H111.166V113.335Z" fill="#0A0909"/>
<path d="M118.993 117.281H107.192V73.3101H118.993C120.879 73.3101 122.404 74.8403 122.404 76.7326V113.858C122.444 115.75 120.879 117.281 118.993 117.281ZM111.166 113.335H118.511V77.2561H111.166V113.335Z" fill="black" fill-opacity="0.2"/>
<path d="M35.3058 58.895H96.4339C98.521 58.895 100.207 60.5862 100.207 62.6799V124.005C100.207 126.099 98.521 127.79 96.4339 127.79H35.3058C33.2187 127.79 31.5329 126.099 31.5329 124.005V62.6799C31.4927 60.5862 33.2187 58.895 35.3058 58.895Z" fill="#E6E7ED"/>
<path d="M57.7033 69.042H41.6084V85.1886H57.7033V69.042ZM53.9303 81.3634H45.4215V72.7869H53.9303V81.3634Z" fill="#0A0909"/>
<path d="M57.7033 69.042H41.6084V85.1886H57.7033V69.042ZM53.9303 81.3634H45.4215V72.7869H53.9303V81.3634Z" fill="black" fill-opacity="0.2"/>
<path d="M51.5209 75.2031H47.748V78.9883H51.5209V75.2031Z" fill="#0A0909"/>
<path d="M51.5209 75.2031H47.748V78.9883H51.5209V75.2031Z" fill="black" fill-opacity="0.2"/>
<path d="M90.0928 69.042H73.998V85.1886H90.0928V69.042ZM86.3199 81.3634H77.7709V72.7869H86.3199V81.3634Z" fill="#0A0909"/>
<path d="M90.0928 69.042H73.998V85.1886H90.0928V69.042ZM86.3199 81.3634H77.7709V72.7869H86.3199V81.3634Z" fill="black" fill-opacity="0.2"/>
<path d="M83.9125 75.2031H80.1396V78.9883H83.9125V75.2031Z" fill="#0A0909"/>
<path d="M83.9125 75.2031H80.1396V78.9883H83.9125V75.2031Z" fill="black" fill-opacity="0.2"/>
<path d="M57.7033 101.497H41.6084V117.644H57.7033V101.497ZM53.9303 113.859H45.4215V105.322H53.9303V113.859Z" fill="#0A0909"/>
<path d="M57.7033 101.497H41.6084V117.644H57.7033V101.497ZM53.9303 113.859H45.4215V105.322H53.9303V113.859Z" fill="black" fill-opacity="0.2"/>
<path d="M51.5209 107.697H47.748V111.482H51.5209V107.697Z" fill="#0A0909"/>
<path d="M51.5209 107.697H47.748V111.482H51.5209V107.697Z" fill="black" fill-opacity="0.2"/>
<path d="M49.1522 87.7256H45.3794V91.5105H49.1522V87.7256Z" fill="#0A0909"/>
<path d="M49.1522 87.7256H45.3794V91.5105H49.1522V87.7256Z" fill="black" fill-opacity="0.2"/>
<path d="M52.8855 95.3359V99.1209H56.6583V95.3359H52.9657V91.5508H49.1929V95.3359H52.8855Z" fill="#0A0909"/>
<path d="M52.8855 95.3359V99.1209H56.6583V95.3359H52.9657V91.5508H49.1929V95.3359H52.8855Z" fill="black" fill-opacity="0.2"/>
<path d="M71.9115 76.3301H68.1387V80.115H71.9115V76.3301Z" fill="#0A0909"/>
<path d="M71.9115 76.3301H68.1387V80.115H71.9115V76.3301Z" fill="black" fill-opacity="0.2"/>
<path d="M64.3251 72.8267H60.5522V80.1149H64.3251V72.8267Z" fill="#0A0909"/>
<path d="M64.3251 72.8267H60.5522V80.1149H64.3251V72.8267Z" fill="black" fill-opacity="0.2"/>
<path d="M68.098 69.042H64.3252V72.8271H68.098V69.042Z" fill="#0A0909"/>
<path d="M68.098 69.042H64.3252V72.8271H68.098V69.042Z" fill="black" fill-opacity="0.2"/>
<path d="M68.1382 80.1553H64.3251V83.9402H60.5522V87.7251H68.1382V80.1553Z" fill="#0A0909"/>
<path d="M68.1382 80.1553H64.3251V83.9402H60.5522V87.7251H68.1382V80.1553Z" fill="black" fill-opacity="0.2"/>
<path d="M64.3251 99.1209V102.865H68.1382V106.57H75.6839V102.745H68.1382V99.0403H64.3251V91.5508H60.5522V99.1209H64.3251Z" fill="#0A0909"/>
<path d="M64.3251 99.1209V102.865H68.1382V106.57H75.6839V102.745H68.1382V99.0403H64.3251V91.5508H60.5522V99.1209H64.3251Z" fill="black" fill-opacity="0.2"/>
<path d="M71.9115 87.7256H68.1387V95.3357H71.9115V87.7256Z" fill="#0A0909"/>
<path d="M71.9115 87.7256H68.1387V95.3357H71.9115V87.7256Z" fill="black" fill-opacity="0.2"/>
<path d="M79.4975 99.0403H90.0936V91.4299H86.3207V87.7256H79.4172V91.5105H75.7246V95.2954H79.4975V99.0403ZM79.4975 91.5508H86.3207V95.2554H79.4975V91.5508Z" fill="#0A0909"/>
<path d="M79.4975 99.0403H90.0936V91.4299H86.3207V87.7256H79.4172V91.5105H75.7246V95.2954H79.4975V99.0403ZM79.4975 91.5508H86.3207V95.2554H79.4975V91.5508Z" fill="black" fill-opacity="0.2"/>
<path d="M90.0917 102.745H86.3188V110.355H90.0917V102.745Z" fill="#0A0909"/>
<path d="M90.0917 102.745H86.3188V110.355H90.0917V102.745Z" fill="black" fill-opacity="0.2"/>
<path d="M75.6843 95.3359H71.9116V99.1211H75.6843V95.3359Z" fill="#0A0909"/>
<path d="M75.6843 95.3359H71.9116V99.1211H75.6843V95.3359Z" fill="black" fill-opacity="0.2"/>
<path d="M79.456 106.569H75.6831V110.354H79.456V106.569Z" fill="#0A0909"/>
<path d="M79.456 106.569H75.6831V110.354H79.456V106.569Z" fill="black" fill-opacity="0.2"/>
<path d="M83.2685 102.745H79.4956V106.53H83.2685V102.745Z" fill="#0A0909"/>
<path d="M83.2685 102.745H79.4956V106.53H83.2685V102.745Z" fill="black" fill-opacity="0.2"/>
<path d="M83.2685 117.683V114.099H86.3188V110.314H79.4956V117.683H83.2685Z" fill="#0A0909"/>
<path d="M83.2685 117.683V114.099H86.3188V110.314H79.4956V117.683H83.2685Z" fill="black" fill-opacity="0.2"/>
<path d="M64.3251 102.866H60.5522V110.114H64.3251V102.866Z" fill="#0A0909"/>
<path d="M64.3251 102.866H60.5522V110.114H64.3251V102.866Z" fill="black" fill-opacity="0.2"/>
<path d="M68.1383 117.684V113.859H71.8309V117.684H75.6037V113.859H71.9111V110.074H64.3252V117.684H68.1383Z" fill="#0A0909"/>
<path d="M68.1383 117.684V113.859H71.8309V117.684H75.6037V113.859H71.9111V110.074H64.3252V117.684H68.1383Z" fill="black" fill-opacity="0.2"/>
<path d="M60.5516 87.7256H52.9658V91.5105H60.5516V87.7256Z" fill="#0A0909"/>
<path d="M60.5516 87.7256H52.9658V91.5105H60.5516V87.7256Z" fill="black" fill-opacity="0.2"/>
<path d="M37.0559 148.554C37.0559 149.274 36.8789 149.903 36.525 150.44C36.171 150.977 35.6572 151.394 34.9838 151.691C34.3215 151.977 33.511 152.12 32.552 152.12C32.1295 152.12 31.7129 152.091 31.3019 152.034C30.9022 151.977 30.5141 151.897 30.1374 151.794C29.772 151.68 29.4237 151.543 29.0928 151.383V148.966C29.675 149.217 30.2744 149.451 30.8909 149.669C31.5187 149.874 32.141 149.977 32.7575 149.977C33.1799 149.977 33.5166 149.92 33.7679 149.806C34.0303 149.691 34.2187 149.537 34.333 149.343C34.4585 149.148 34.5214 148.926 34.5214 148.674C34.5214 148.366 34.4129 148.103 34.196 147.886C33.9905 147.668 33.7107 147.468 33.3569 147.286C33.0028 147.091 32.5976 146.886 32.141 146.669C31.8555 146.531 31.5472 146.371 31.2163 146.189C30.8851 145.994 30.5655 145.76 30.2573 145.486C29.9604 145.2 29.7148 144.857 29.5209 144.457C29.3267 144.057 29.2298 143.577 29.2298 143.017C29.2298 142.286 29.3952 141.663 29.7264 141.149C30.0689 140.623 30.5484 140.223 31.1649 139.949C31.7927 139.674 32.5291 139.537 33.374 139.537C34.0132 139.537 34.6184 139.611 35.1893 139.76C35.7715 139.908 36.3765 140.12 37.0045 140.394L36.1654 142.417C35.6058 142.188 35.1036 142.011 34.6584 141.886C34.2131 141.76 33.7563 141.697 33.2884 141.697C32.9686 141.697 32.6946 141.749 32.4664 141.851C32.238 141.954 32.061 142.097 31.9355 142.28C31.8212 142.463 31.7643 142.68 31.7643 142.931C31.7643 143.217 31.8499 143.463 32.0211 143.669C32.1924 143.863 32.4493 144.051 32.7918 144.234C33.1343 144.417 33.5624 144.634 34.0761 144.886C34.704 145.183 35.2349 145.491 35.6688 145.811C36.114 146.131 36.4565 146.508 36.6963 146.943C36.936 147.377 37.0559 147.914 37.0559 148.554ZM42.8745 152.12C41.9498 152.12 41.162 151.954 40.5113 151.623C39.8605 151.28 39.3639 150.754 39.0214 150.046C38.6789 149.337 38.5077 148.428 38.5077 147.32C38.5077 146.177 38.7018 145.246 39.0899 144.526C39.478 143.806 40.0147 143.274 40.6997 142.931C41.396 142.589 42.1953 142.417 43.0972 142.417C43.7366 142.417 44.2901 142.48 44.7583 142.606C45.2378 142.731 45.6546 142.88 46.0084 143.051L45.2549 145.023C44.8553 144.863 44.4785 144.731 44.1247 144.629C43.7822 144.526 43.4397 144.474 43.0972 144.474C42.6519 144.474 42.2809 144.583 41.984 144.8C41.6871 145.006 41.4645 145.32 41.3162 145.743C41.1792 146.154 41.1107 146.674 41.1107 147.303C41.1107 147.92 41.185 148.434 41.3333 148.846C41.4932 149.246 41.7214 149.549 42.0183 149.754C42.3152 149.948 42.6748 150.046 43.0972 150.046C43.6338 150.046 44.1075 149.977 44.5185 149.84C44.9295 149.691 45.3292 149.491 45.7173 149.24V151.417C45.3292 151.668 44.9182 151.846 44.4843 151.949C44.0619 152.063 43.5253 152.12 42.8745 152.12ZM51.7055 142.4C52.9612 142.4 53.9202 142.674 54.5825 143.223C55.2559 143.76 55.5929 144.588 55.5929 145.709V151.949H53.8119L53.3152 150.68H53.2467C52.9841 151.011 52.7101 151.286 52.4247 151.503C52.1507 151.72 51.8309 151.874 51.4657 151.966C51.1117 152.069 50.6722 152.12 50.1471 152.12C49.5991 152.12 49.1025 152.017 48.6572 151.811C48.2233 151.594 47.8808 151.268 47.6297 150.834C47.3784 150.389 47.253 149.828 47.253 149.154C47.253 148.16 47.601 147.428 48.2976 146.96C48.9939 146.48 50.0386 146.217 51.4315 146.171L53.0584 146.12V145.709C53.0584 145.217 52.9269 144.857 52.6645 144.629C52.4132 144.4 52.0593 144.286 51.6027 144.286C51.1459 144.286 50.7007 144.354 50.267 144.491C49.8331 144.617 49.3992 144.777 48.9655 144.971L48.1264 143.24C48.6285 142.977 49.1823 142.771 49.7875 142.623C50.404 142.474 51.0432 142.4 51.7055 142.4ZM52.0651 147.646C51.2431 147.668 50.6722 147.817 50.3526 148.091C50.0328 148.366 49.8731 148.726 49.8731 149.171C49.8731 149.56 49.9872 149.84 50.2156 150.011C50.4438 150.171 50.7407 150.251 51.1061 150.251C51.6541 150.251 52.1165 150.091 52.4932 149.771C52.87 149.44 53.0584 148.977 53.0584 148.383V147.611L52.0651 147.646ZM63.5134 142.417C64.518 142.417 65.3229 142.691 65.928 143.24C66.5332 143.777 66.8356 144.646 66.8356 145.846V151.949H64.284V146.48C64.284 145.806 64.1641 145.303 63.9244 144.971C63.6846 144.629 63.3021 144.457 62.777 144.457C62.0006 144.457 61.4697 144.726 61.1844 145.263C60.899 145.788 60.7563 146.549 60.7563 147.543V151.949H58.2046V142.589H60.1569L60.4994 143.789H60.6364C60.8419 143.468 61.093 143.211 61.3899 143.017C61.6868 142.811 62.0177 142.663 62.3831 142.571C62.7485 142.469 63.1253 142.417 63.5134 142.417ZM84.8852 142.417C85.9469 142.417 86.7462 142.691 87.2827 143.24C87.8307 143.777 88.1047 144.646 88.1047 145.846V151.949H85.553V146.48C85.553 145.806 85.4389 145.303 85.2105 144.971C84.9824 144.629 84.6283 144.457 84.1488 144.457C83.4753 144.457 82.9959 144.697 82.7103 145.177C82.4249 145.657 82.2822 146.348 82.2822 147.251V151.949H79.7305V146.48C79.7305 146.034 79.6792 145.663 79.5764 145.366C79.4737 145.068 79.3195 144.846 79.114 144.697C78.9085 144.537 78.6461 144.457 78.3263 144.457C77.8584 144.457 77.4872 144.577 77.2132 144.817C76.9392 145.057 76.7452 145.406 76.6309 145.863C76.5168 146.32 76.4597 146.88 76.4597 147.543V151.949H73.908V142.589H75.8603L76.2028 143.789H76.3398C76.5339 143.468 76.7737 143.211 77.059 143.017C77.3446 142.811 77.6584 142.663 78.0009 142.571C78.355 142.469 78.7088 142.417 79.0627 142.417C79.7477 142.417 80.3299 142.531 80.8094 142.76C81.2889 142.977 81.6543 143.32 81.9054 143.789H82.128C82.4136 143.309 82.8075 142.96 83.3097 142.743C83.8234 142.526 84.3487 142.417 84.8852 142.417ZM94.5852 142.417C95.453 142.417 96.1949 142.583 96.8114 142.914C97.4395 143.246 97.9246 143.726 98.2671 144.354C98.6096 144.983 98.7808 145.754 98.7808 146.669V147.903H92.7528C92.7757 148.623 92.987 149.189 93.3865 149.6C93.7974 150.011 94.3626 150.217 95.0818 150.217C95.687 150.217 96.235 150.16 96.7258 150.046C97.2169 149.92 97.7248 149.731 98.2499 149.48V151.451C97.7934 151.68 97.3081 151.846 96.7943 151.949C96.2921 152.063 95.6812 152.12 94.9619 152.12C94.0258 152.12 93.1981 151.949 92.4788 151.606C91.7596 151.251 91.1944 150.72 90.7834 150.011C90.3724 149.303 90.1669 148.411 90.1669 147.337C90.1669 146.24 90.3498 145.331 90.7149 144.611C91.0917 143.88 91.6112 143.331 92.2733 142.966C92.9356 142.6 93.7063 142.417 94.5852 142.417ZM94.6023 144.234C94.1115 144.234 93.7005 144.394 93.3693 144.714C93.0497 145.034 92.8613 145.531 92.8042 146.206H96.3833C96.3833 145.829 96.3148 145.491 96.1778 145.194C96.0524 144.897 95.8582 144.663 95.5956 144.491C95.3331 144.32 95.002 144.234 94.6023 144.234ZM102.991 147.886H100.953L100.525 139.709H103.419L102.991 147.886ZM100.49 150.749C100.49 150.223 100.633 149.857 100.918 149.651C101.204 149.434 101.552 149.326 101.963 149.326C102.363 149.326 102.705 149.434 102.991 149.651C103.276 149.857 103.419 150.223 103.419 150.749C103.419 151.251 103.276 151.617 102.991 151.846C102.705 152.063 102.363 152.171 101.963 152.171C101.552 152.171 101.204 152.063 100.918 151.846C100.633 151.617 100.49 151.251 100.49 150.749Z" fill="white"/>
</svg>
