<svg width="200" height="160" viewBox="0 0 200 160" fill="none" xmlns="http://www.w3.org/2000/svg">
<rect x="12" y="28" width="44" height="33.3333" rx="8" fill="#CDD0DB" fill-opacity="0.5"/>
<path d="M34 34C28.485 34 24 38.485 24 44C24 49.515 28.485 54 34 54C39.515 54 44 49.515 44 44C44 38.485 39.515 34 34 34ZM34.885 49.455C34.64 49.7 34.32 49.82 34 49.82C33.68 49.82 33.36 49.7 33.115 49.455L28.83 45.17L29.89 44.11L33.25 47.47V38H34.75V47.47L38.11 44.11L39.17 45.17L34.885 49.455Z" fill="#0A0909"/>
<rect x="12" y="69.333" width="44" height="33.3333" rx="8" fill="#CDD0DB" fill-opacity="0.5"/>
<path d="M41.25 80.833H41V76.333H27V80.833H26.75C25.235 80.833 24 82.068 24 83.583V89.583C24 90.273 24.56 90.833 25.25 90.833H27V94.333H41V90.833H42.75C43.44 90.833 44 90.273 44 89.583V83.583C44 82.068 42.765 80.833 41.25 80.833ZM28.5 77.833H39.5V80.833H28.5V77.833ZM39.5 92.833H28.5V88.333H39.5V92.833ZM41 85.333H39.5V83.833H41V85.333Z" fill="#0A0909"/>
<rect x="12" y="110.667" width="44" height="33.3333" rx="8" fill="#CDD0DB" fill-opacity="0.5"/>
<path d="M38.75 130.167C37.83 130.167 37 130.552 36.405 131.172L30.355 127.622C30.45 127.322 30.5 126.997 30.5 126.667C30.5 126.337 30.45 126.017 30.355 125.717L36.405 122.167C36.995 122.782 37.825 123.172 38.75 123.172C40.54 123.172 42 121.712 42 119.922C42 118.132 40.54 116.672 38.75 116.672C36.96 116.672 35.5 118.132 35.5 119.922C35.5 120.252 35.55 120.577 35.645 120.877L29.595 124.427C29.005 123.807 28.17 123.422 27.25 123.422C25.46 123.422 24 124.882 24 126.672C24 128.462 25.46 129.922 27.25 129.922C28.17 129.922 29 129.537 29.595 128.917L35.645 132.467C35.55 132.767 35.5 133.087 35.5 133.417C35.5 135.207 36.96 136.667 38.75 136.667C40.54 136.667 42 135.207 42 133.417C42 131.627 40.54 130.167 38.75 130.167Z" fill="#0A0909"/>
<rect x="72" y="28" width="116" height="116" rx="8" fill="#BFD166" stroke="#0A0909" stroke-width="4" stroke-linecap="round" stroke-dasharray="14 18"/>
<g clip-path="url(#clip0_35554_313157)">
<rect width="64" height="64" transform="translate(98 54)" fill="#BFD166"/>
<path d="M139.6 54V76.3999H162V54H139.6ZM155.6 70H146V60.4H155.6V70Z" fill="#0A0909"/>
<path d="M110.8 82.7998H98V89.1999H110.8V82.7998Z" fill="#0A0909"/>
<path d="M126.8 82.7998H117.2V89.1999H126.8V82.7998Z" fill="#0A0909"/>
<path d="M133.2 76.4004H126.8V82.8004H133.2V76.4004Z" fill="#0A0909"/>
<path d="M120.4 66.7999V54H98V76.3999H120.4H126.8V66.7999H120.4ZM114 70H104.4V60.4H114V70Z" fill="#0A0909"/>
<path d="M133.2 54H126.8V66.7999H133.2V54Z" fill="#0A0909"/>
<path d="M142.8 89.1999H149.2V98.7998H155.6V82.7998H133.2V89.1999H136.4V95.5997H142.8V89.1999Z" fill="#0A0909"/>
<path d="M136.4 95.5996H130V105.2H136.4V95.5996Z" fill="#0A0909"/>
<path d="M162 98.7998H155.6V105.2H162V98.7998Z" fill="#0A0909"/>
<path d="M142.8 105.2H136.4V111.6H130V118H142.8V111.6H149.2V118H158.8V111.6H155.6V105.2H149.2H142.8Z" fill="#0A0909"/>
<path d="M120.4 105.2V95.5996H98V118H120.4V111.6H130V105.2H120.4ZM114 111.6H104.4V102H114V111.6Z" fill="#0A0909"/>
</g>
<defs>
<clipPath id="clip0_35554_313157">
<rect width="64" height="64" fill="white" transform="translate(98 54)"/>
</clipPath>
</defs>
</svg>
