<svg width="200" height="160" viewBox="0 0 200 160" fill="none" xmlns="http://www.w3.org/2000/svg">
<rect x="28" y="28" width="140" height="48" rx="8" fill="#BFD166" stroke="#0A0909" stroke-width="4" stroke-linecap="round" stroke-dasharray="14 18"/>
<path d="M46 52C46 50.8954 46.8954 50 48 50H92C93.1046 50 94 50.8954 94 52C94 53.1046 93.1046 54 92 54H48C46.8954 54 46 53.1046 46 52Z" fill="#0A0909"/>
<rect x="28" y="96" width="140" height="48" rx="8" fill="#CDD0DB" fill-opacity="0.5"/>
<path d="M46 120C46 118.895 46.8954 118 48 118H80C81.1046 118 82 118.895 82 120C82 121.105 81.1046 122 80 122H48C46.8954 122 46 121.105 46 120Z" fill="#0A0909"/>
<path d="M86 120C86 118.895 86.8954 118 88 118H104C105.105 118 106 118.895 106 120C106 121.105 105.105 122 104 122H88C86.8954 122 86 121.105 86 120Z" fill="#0A0909"/>
</svg>
