<svg width="200" height="160" viewBox="0 0 200 160" fill="none" xmlns="http://www.w3.org/2000/svg">
<rect x="24" y="28" width="56" height="64" rx="8" fill="#CDD0DB" fill-opacity="0.5"/>
<rect x="24" y="108" width="56" height="36" rx="8" fill="#CDD0DB" fill-opacity="0.5"/>
<path d="M34 42C34 40.8954 34.8954 40 36 40H40.9091C42.0137 40 42.9091 40.8954 42.9091 42C42.9091 43.1046 42.0137 44 40.9091 44H36C34.8954 44 34 43.1046 34 42Z" fill="#0A0909"/>
<path d="M47.3633 42C47.3633 40.8954 48.2587 40 49.3633 40H67.636C68.7406 40 69.636 40.8954 69.636 42C69.636 43.1046 68.7406 44 67.636 44H49.3633C48.2587 44 47.3633 43.1046 47.3633 42Z" fill="#0A0909"/>
<path d="M34 54C34 52.8954 34.8954 52 36 52H40.9091C42.0137 52 42.9091 52.8954 42.9091 54C42.9091 55.1046 42.0137 56 40.9091 56H36C34.8954 56 34 55.1046 34 54Z" fill="#0A0909"/>
<path d="M47.3633 54C47.3633 52.8954 48.2587 52 49.3633 52H67.636C68.7406 52 69.636 52.8954 69.636 54C69.636 55.1046 68.7406 56 67.636 56H49.3633C48.2587 56 47.3633 55.1046 47.3633 54Z" fill="#0A0909"/>
<path d="M34 66C34 64.8954 34.8954 64 36 64H40.9091C42.0137 64 42.9091 64.8954 42.9091 66C42.9091 67.1046 42.0137 68 40.9091 68H36C34.8954 68 34 67.1046 34 66Z" fill="#0A0909"/>
<path d="M47.3633 66C47.3633 64.8954 48.2587 64 49.3633 64H67.636C68.7406 64 69.636 64.8954 69.636 66C69.636 67.1046 68.7406 68 67.636 68H49.3633C48.2587 68 47.3633 67.1046 47.3633 66Z" fill="#0A0909"/>
<path d="M34 78C34 76.8954 34.8954 76 36 76H40.9091C42.0137 76 42.9091 76.8954 42.9091 78C42.9091 79.1046 42.0137 80 40.9091 80H36C34.8954 80 34 79.1046 34 78Z" fill="#0A0909"/>
<path d="M47.3633 78C47.3633 76.8954 48.2587 76 49.3633 76H67.636C68.7406 76 69.636 76.8954 69.636 78C69.636 79.1046 68.7406 80 67.636 80H49.3633C48.2587 80 47.3633 79.1046 47.3633 78Z" fill="#0A0909"/>
<path d="M34 126C34 124.895 34.8954 124 36 124H67.6364C68.7409 124 69.6364 124.895 69.6364 126C69.6364 127.105 68.7409 128 67.6364 128H36C34.8954 128 34 127.105 34 126Z" fill="#0A0909"/>
<rect x="100" y="28" width="76" height="116" rx="8" fill="#BFD166" stroke="#0A0909" stroke-width="4" stroke-linecap="round" stroke-dasharray="14 18"/>
<path d="M120 112C120 109.791 121.791 108 124 108H156C158.209 108 160 109.791 160 112C160 114.209 158.209 116 156 116H124C121.791 116 120 114.209 120 112Z" fill="white"/>
<path d="M130.817 89.9836C130.384 89.9836 129.959 89.8503 129.592 89.5836C128.942 89.1169 128.625 88.3336 128.759 87.5419L130.325 78.3919L123.684 71.9169C123.109 71.3586 122.909 70.5419 123.159 69.7836C123.409 69.0253 124.05 68.4836 124.842 68.3669L134.025 67.0336L138.134 58.7169C138.484 58.0003 139.2 57.5586 140 57.5586C140.8 57.5586 141.517 58.0003 141.867 58.7169L145.975 67.0336L155.159 68.3669C155.95 68.4836 156.592 69.0253 156.842 69.7836C157.092 70.5419 156.884 71.3586 156.317 71.9169L149.675 78.3919L151.242 87.5336C151.375 88.3253 151.059 89.1003 150.409 89.5753C149.759 90.0419 148.925 90.1003 148.217 89.7336L140 85.4169L131.784 89.7336C131.475 89.8919 131.142 89.9753 130.809 89.9753L130.817 89.9836Z" fill="white"/>
</svg>
