<svg width="56" height="56" viewBox="0 0 56 56" fill="none" xmlns="http://www.w3.org/2000/svg">
<circle cx="28" cy="28" r="28" fill="white"/>
<path d="M29.0412 52.8881C42.787 52.8881 53.9301 41.745 53.9301 27.9992C53.9301 14.2535 42.787 3.11035 29.0412 3.11035C15.2955 3.11035 4.15234 14.2535 4.15234 27.9992C4.15234 41.745 15.2955 52.8881 29.0412 52.8881Z" fill="#CDD0DB" fill-opacity="0.5"/>
<path d="M28.2044 34.6364C28.0235 34.6364 27.8754 34.5784 27.7603 34.4624C27.6452 34.3464 27.5876 34.1972 27.5876 34.0149V29.3168H23.0231C22.8421 29.3168 22.6941 29.2588 22.579 29.1428C22.4638 29.0268 22.4062 28.8859 22.4062 28.7202V27.1542C22.4062 26.9719 22.4638 26.8227 22.579 26.7067C22.6941 26.5907 22.8421 26.5327 23.0231 26.5327H27.5876V21.9837C27.5876 21.8015 27.6452 21.6523 27.7603 21.5363C27.8754 21.4203 28.0235 21.3623 28.2044 21.3623H29.9068C30.0878 21.3623 30.2358 21.4203 30.351 21.5363C30.4661 21.6523 30.5237 21.8015 30.5237 21.9837V26.5327H35.0882C35.2527 26.5327 35.3925 26.5907 35.5076 26.7067C35.6228 26.8227 35.6803 26.9719 35.6803 27.1542V28.7202C35.6803 28.8859 35.6228 29.0268 35.5076 29.1428C35.3925 29.2588 35.2527 29.3168 35.0882 29.3168H30.5237V34.0149C30.5237 34.1972 30.4661 34.3464 30.351 34.4624C30.2358 34.5784 30.0878 34.6364 29.9068 34.6364H28.2044Z" fill="white"/>
</svg>
