<svg width="56" height="56" viewBox="0 0 56 56" fill="none" xmlns="http://www.w3.org/2000/svg">
<circle cx="28" cy="28" r="28" fill="white"/>
<path d="M3.34177 27.0527C3.3824 25.9854 3.49243 24.9219 3.6712 23.8689C3.6712 23.856 3.67571 23.8438 3.67786 23.8301C3.69509 23.731 3.71316 23.6305 3.73254 23.5315C3.82154 23.0399 3.92552 22.5506 4.04515 22.0634C4.74266 19.2058 5.94508 16.4958 7.59535 14.0611C7.6097 14.0395 7.62408 14.0173 7.63916 13.9957C7.71907 13.8785 7.79985 13.7622 7.88168 13.6468C7.94053 13.5628 8.00154 13.4803 8.06112 13.397L8.18588 13.224C9.78497 11.0518 11.7285 9.15565 13.9394 7.61077C13.9739 7.58636 14.0112 7.56341 14.0442 7.539C14.1605 7.45788 14.2777 7.37746 14.3961 7.29849C16.6099 5.81764 19.0484 4.70445 21.6174 4.00195C21.761 3.96246 21.9042 3.92512 22.0478 3.88851L22.1196 3.87059C22.49 3.77726 22.8606 3.69108 23.2323 3.6157C26.5074 2.94358 29.8846 2.9419 33.1603 3.61071L33.2213 3.62434L33.4687 3.67604C33.4938 3.68106 33.5189 3.68822 33.544 3.69396C33.6445 3.71622 33.7457 3.7385 33.8461 3.76578L34.0228 3.8067L34.1083 3.82751C37.3203 4.60668 40.3431 6.02254 42.9982 7.99128C43.8173 8.59783 44.5986 9.25402 45.3375 9.95615C45.494 10.1059 45.6494 10.2574 45.804 10.4106C46.5651 11.1726 47.2769 11.9826 47.9344 12.8356C47.9495 12.8507 47.9586 12.8593 47.9614 12.8629C48.0748 13.0115 48.1863 13.1594 48.2961 13.3108C48.4447 13.5133 48.5883 13.7193 48.7268 13.9268C48.8065 14.0417 48.8824 14.158 48.9599 14.2735L49.0619 14.4279C49.0791 14.4545 49.0979 14.4803 49.1152 14.5076C50.55 16.7265 51.6195 19.1611 52.2837 21.7188C52.3225 21.8667 52.36 22.0139 52.3951 22.1618C52.4016 22.1869 52.408 22.212 52.4137 22.2378C52.6512 23.2296 52.8273 24.2352 52.9412 25.2487C52.9498 25.3262 52.9585 25.4037 52.9664 25.4806C53.0305 26.1056 53.0705 26.7304 53.0863 27.355C53.1001 27.9039 53.0958 28.4514 53.0733 28.9975C53.0154 30.4266 52.8344 31.848 52.5322 33.246C52.4307 33.7131 52.3164 34.1769 52.1891 34.6373L52.1589 34.7435C51.9422 35.5117 51.689 36.2681 51.3995 37.0128C51.3794 37.0645 51.3586 37.1169 51.3378 37.1679C51.1263 37.7024 50.896 38.2289 50.6467 38.7472C50.6204 38.8027 50.5937 38.8582 50.5664 38.9137C50.5571 38.9324 50.5484 38.9504 50.5391 38.9683C50.2233 39.6144 49.8781 40.2483 49.5056 40.865C49.5004 40.8789 49.4941 40.8926 49.4874 40.9059C49.4034 41.0423 49.3194 41.178 49.2333 41.313C49.2196 41.3352 49.2055 41.3574 49.1919 41.3797C49.0548 41.5951 48.9118 41.8104 48.7668 42.0215C48.6721 42.1601 48.5759 42.2972 48.4798 42.4343L48.4426 42.4874C48.3242 42.6532 48.2043 42.8184 48.0837 42.9821L48.0543 43.0201C47.9373 43.1759 47.8189 43.3295 47.6954 43.4824C47.593 43.6116 47.4889 43.7397 47.3832 43.8665C47.3293 43.9333 47.2741 44 47.2181 44.066C46.9095 44.4317 46.5891 44.7894 46.2575 45.1393C45.7708 45.6533 45.2598 46.1474 44.7238 46.6217C44.575 46.7538 44.4246 46.8838 44.2724 47.0116L44.0779 47.1745C43.9236 47.3023 43.7683 47.4272 43.6104 47.5514C43.5939 47.5658 43.5761 47.5787 43.5582 47.5931C43.4807 47.6541 43.4023 47.7137 43.3234 47.774L43.2775 47.8092C42.931 48.0724 42.5765 48.3275 42.2138 48.5744L42.2037 48.5809L42.0106 48.7108L41.9562 48.7474L41.9377 48.7603C41.4682 49.0709 40.9911 49.3643 40.5064 49.6405C40.3793 49.7123 40.2521 49.784 40.1251 49.8558C40.0734 49.8846 40.0218 49.9119 39.9701 49.9406C39.9012 49.9784 39.8318 50.0155 39.762 50.0518C39.6902 50.0892 39.6234 50.1236 39.5538 50.1602C38.8801 50.5058 38.194 50.8169 37.4959 51.0935C36.7537 51.3926 36.001 51.6535 35.2378 51.876C35.1295 51.9076 35.0228 51.9392 34.9123 51.9686C34.7687 52.0088 34.6251 52.0473 34.4815 52.0842C34.3739 52.1122 34.2661 52.1387 34.1577 52.166H34.1528L34.081 52.1832C33.9223 52.222 33.7636 52.255 33.605 52.2938L33.5598 52.3031L33.298 52.3591L33.059 52.4087L32.8084 52.4568L32.5578 52.5027L32.5186 52.5099L32.3031 52.5465L32.2207 52.5602C32.1604 52.5702 32.0984 52.5802 32.0374 52.5889C31.7383 52.6367 31.4395 52.6779 31.1409 52.7123C30.5801 52.7798 30.0197 52.8277 29.4594 52.8559C28.0073 52.9303 26.5515 52.8758 25.1091 52.693C24.9899 52.6779 24.8701 52.6628 24.7502 52.6456C24.6067 52.6248 24.4582 52.6032 24.3125 52.5795L24.2364 52.5673L24.077 52.5407C24.0016 52.5285 23.9263 52.5156 23.8509 52.5013L23.7419 52.4819C22.9763 52.3431 22.2172 52.1687 21.465 51.9585C21.3664 51.9313 21.2685 51.903 21.1709 51.8739L21.0072 51.8243L20.9417 51.8049L20.8573 51.7791L20.7854 51.7561L20.5622 51.6843C20.4229 51.6391 20.2829 51.5932 20.1444 51.5451C20.1171 51.5372 20.0921 51.5271 20.0656 51.5185C19.8981 51.4606 19.7305 51.401 19.563 51.3397C19.4661 51.3046 19.3687 51.2679 19.2711 51.2299L19.1943 51.2005L19.0944 51.1617C19.0061 51.1272 18.9177 51.0899 18.8302 51.0561L18.6507 50.9844C18.4246 50.8903 18.1993 50.7927 17.9768 50.6922C17.8457 50.6329 17.7153 50.5725 17.5857 50.5113C17.4115 50.4299 17.238 50.3457 17.0652 50.2586C16.9791 50.2155 16.8938 50.1717 16.8083 50.1272L16.5529 49.993L16.481 49.9557L16.433 49.9298L16.4092 49.9169L16.3454 49.881C16.3059 49.8594 16.265 49.8379 16.2255 49.8149C16.1688 49.784 16.1122 49.7525 16.0562 49.7209L16.0152 49.6986C15.8593 49.611 15.7038 49.5211 15.5488 49.4287C15.4655 49.3809 15.383 49.3313 15.3017 49.2801C15.2192 49.2305 15.1375 49.1796 15.0571 49.1294C14.9767 49.0791 14.8783 49.0188 14.7907 48.9621C14.7032 48.9053 14.6026 48.8415 14.5093 48.7797C14.3102 48.6486 14.1131 48.5141 13.9174 48.3763L13.903 48.3669C13.7709 48.2741 13.6396 48.1796 13.5094 48.0834C13.4262 48.0231 13.3452 47.962 13.2627 47.9003L13.2154 47.8644C12.9981 47.7007 12.7825 47.5332 12.5691 47.3619C12.3557 47.1905 12.1442 47.0135 11.9341 46.8306C11.8228 46.7359 11.7131 46.6383 11.604 46.5435C11.5386 46.4846 11.4733 46.4265 11.4087 46.3669C11.3219 46.2879 11.2358 46.2082 11.1512 46.1271C11.121 46.0991 11.0909 46.0711 11.0614 46.0417C10.8849 45.8756 10.7113 45.706 10.541 45.5327C10.4455 45.4365 10.3501 45.3396 10.254 45.2419C10.0118 44.9907 9.7746 44.7337 9.54253 44.4709L9.50012 44.4228C9.37092 44.2759 9.24383 44.1271 9.11846 43.9763C8.93041 43.7518 8.74573 43.5229 8.56438 43.2893C8.31078 42.9639 8.06504 42.631 7.82771 42.2907L7.81053 42.2656C7.76101 42.1938 7.71385 42.1263 7.66719 42.0567C7.62054 41.9871 7.55734 41.898 7.50423 41.8169C7.40374 41.6668 7.30533 41.5161 7.20844 41.3646C7.20865 41.3632 7.20865 41.3617 7.20844 41.3603C6.78209 40.6903 6.39074 40.0068 6.03473 39.31C5.43277 38.1304 4.92664 36.9044 4.52108 35.6437C4.33686 35.0742 4.17461 34.4999 4.03393 33.9208C3.98608 33.7198 3.93809 33.5186 3.89024 33.3171C3.61164 32.0503 3.43444 30.7634 3.35999 29.4684C3.35066 29.3249 3.34332 29.1813 3.33686 29.0377C3.30959 28.3749 3.30959 27.7139 3.33686 27.0549M34.5103 52.0088C34.6273 51.9564 34.7686 51.8911 34.9315 51.815L34.9547 51.8035L34.9301 51.8135L34.511 52.0052L34.3781 52.067L34.5103 52.0088Z" fill="#3EACF6"/>
<path d="M18.5624 13.8571C17.7287 15.7114 17.3801 17.7472 17.5495 19.7732C17.9579 22.6886 20.2462 29.8812 23.3928 29.6364C26.5394 29.3916 30.4613 15.0388 28.9498 13.8571C27.4382 12.6755 20.6381 12.6274 18.5624 13.8571Z" fill="#0A0909"/>
<path d="M46.2488 45.1388C46.2323 45.1173 46.2152 45.0965 46.198 45.0757C42.493 40.6778 37.0403 38.2198 29.4945 37.5686C26.7302 37.349 23.9533 37.3317 21.1865 37.5169C20.5697 37.5543 19.9421 37.5998 19.3038 37.6534C13.9206 38.1078 10.347 39.853 7.83203 42.2895C8.07128 42.6298 8.31644 42.9627 8.56765 43.2881C8.74853 43.5207 8.93441 43.7505 9.12174 43.9752C9.24806 44.1259 9.37551 44.2747 9.50374 44.4216L9.54615 44.4698C9.77822 44.733 10.0151 44.99 10.2572 45.2408C10.3505 45.3384 10.4459 45.4353 10.5443 45.5279C10.7146 45.7007 10.8881 45.8704 11.0647 46.0369C11.0941 46.0656 11.1243 46.0936 11.1544 46.1223C11.2398 46.2035 11.3252 46.2824 11.412 46.3621C11.4766 46.4217 11.5419 46.4798 11.6065 46.5387C11.7156 46.6363 11.8254 46.734 11.9367 46.8259C12.1458 47.0068 12.3577 47.1838 12.5721 47.3571C12.7874 47.5287 12.9983 47.6953 13.218 47.8597L13.2653 47.8948C13.3471 47.9566 13.4291 48.0183 13.5123 48.0779C13.643 48.1736 13.7742 48.2681 13.9063 48.3615L13.9206 48.3715C14.1163 48.5093 14.3139 48.6438 14.5129 48.7749C14.6062 48.8367 14.6996 48.8977 14.7943 48.9573C14.8891 49.0169 14.9713 49.07 15.0603 49.1253C15.1493 49.1806 15.2228 49.2265 15.3053 49.276C15.3879 49.3255 15.4688 49.3751 15.552 49.4246C15.7071 49.5175 15.8625 49.6074 16.0185 49.6945L16.0595 49.7168C16.1155 49.7484 16.1724 49.78 16.2291 49.8108C16.2686 49.8338 16.3095 49.8554 16.349 49.8769L16.4128 49.9128L16.4363 49.9257L16.4846 49.9516L16.5561 49.9889L16.8127 50.1232C16.8988 50.1677 16.9834 50.2114 17.0696 50.2545C17.2423 50.3411 17.4158 50.4254 17.59 50.5072C17.7197 50.569 17.85 50.6293 17.9811 50.6881C18.2036 50.7893 18.429 50.8863 18.6551 50.9803L18.8345 51.0521C18.9221 51.0887 19.0094 51.1239 19.0984 51.1577L19.1983 51.1964L19.275 51.2258C19.3726 51.2632 19.4704 51.2976 19.5673 51.3356C19.7343 51.3974 19.9016 51.457 20.0695 51.5144C20.0954 51.523 20.1215 51.5331 20.148 51.541C20.2866 51.5891 20.4265 51.635 20.5658 51.6802L20.7887 51.7521L20.8605 51.775L20.9453 51.8009L21.0105 51.8203L21.1735 51.8698C21.2692 51.8985 21.3674 51.9268 21.4679 51.9545C22.2196 52.1651 22.9784 52.3395 23.7445 52.4779L23.8535 52.4972C23.9253 52.5116 24.0045 52.5245 24.0799 52.5367C24.133 52.5467 24.1866 52.5554 24.239 52.5633L24.3143 52.5755C24.4579 52.5992 24.6067 52.6207 24.7524 52.6415C24.8723 52.6587 24.9914 52.6745 25.1113 52.6889C26.5537 52.8717 28.0092 52.9263 29.4613 52.8519C30.0211 52.8246 30.5819 52.7767 31.1431 52.7082C31.4422 52.6733 31.741 52.6319 32.0396 52.5841C32.1006 52.5755 32.1616 52.5654 32.2226 52.5553L32.3053 52.5417L32.5205 52.5051L32.5608 52.4979L32.811 52.452L33.0616 52.4039L33.3006 52.3544L33.5627 52.2984L33.6079 52.2883C33.7666 52.2531 33.9252 52.2165 34.0839 52.1777L34.1554 52.1605H34.1606C34.2676 52.134 34.3757 52.1074 34.4834 52.0787C34.627 52.0414 34.7706 52.0028 34.9141 51.9631C35.0232 51.9337 35.1295 51.9021 35.2394 51.8705C36.0009 51.6472 36.7545 51.3866 37.4967 51.088C38.1943 50.809 38.8801 50.4979 39.5543 50.1547C39.626 50.1188 39.6921 50.0829 39.7624 50.0463C39.8328 50.0097 39.9017 49.9746 39.9713 49.9351C40.023 49.9071 40.0756 49.8791 40.1266 49.8504C40.2543 49.7786 40.3805 49.7067 40.5075 49.6349C40.9913 49.3593 41.4685 49.0659 41.9388 48.7548L41.9567 48.742L42.0121 48.7053L42.2052 48.5754L42.215 48.5689C42.5772 48.3219 42.9317 48.0669 43.2786 47.8037L43.3249 47.7684C43.4031 47.7081 43.4818 47.6486 43.5594 47.5876C43.5766 47.5732 43.5954 47.5603 43.6119 47.5459C43.7706 47.4225 43.9255 47.2968 44.0791 47.169C44.1444 47.1152 44.209 47.0606 44.2736 47.006C44.4251 46.8775 44.5764 46.7476 44.7243 46.6162C45.2602 46.1424 45.7716 45.6483 46.2583 45.1338" fill="#285BBE"/>
<path d="M24.06 25.6717L21.1172 37.7976C22.9512 39.4861 25.3177 40.48 27.8072 40.6074C28.2569 40.5517 28.6764 40.3513 29.0023 40.0364C29.3281 39.7214 29.5427 39.3091 29.6138 38.8615L28.7836 29.9294L24.06 25.6717Z" fill="#FDBEB8"/>
<path d="M37.4755 26.3205C36.7527 31.6688 28.2933 34.7457 23.3444 27.8281C21.3606 25.0563 23.2775 22.2286 23.4878 18.7023C23.7397 14.5521 27.2353 11.9929 30.3576 12.3059C33.525 12.6239 35.2819 14.3526 35.9559 19.1129C36.2487 21.1797 38.0932 21.7231 37.4709 26.3177" fill="#FDBEB8"/>
<path d="M32.5826 23.1713C33.2501 23.0399 33.8751 22.7462 34.4022 22.3162C34.8135 21.9853 35.2476 22.6809 34.8407 23.0083C34.2563 23.4798 33.5671 23.8036 32.8311 23.9523C32.3194 24.0564 32.0687 23.2754 32.5847 23.1706" fill="#E0A19B"/>
<path d="M30.1491 20.5505C30.2484 20.5179 30.3564 20.5237 30.4515 20.5669C30.5467 20.6102 30.622 20.6875 30.6629 20.7838C30.7833 21.0373 30.8294 21.3199 30.7957 21.5986C30.7841 21.672 30.7563 21.742 30.714 21.8032C30.6718 21.8644 30.6164 21.9154 30.5518 21.9523C30.4872 21.9891 30.415 22.011 30.3408 22.0163C30.2666 22.0216 30.1923 22.01 30.1232 21.9827C29.7198 21.8226 29.5491 20.6546 30.1484 20.5469" fill="#0A0909"/>
<path d="M35.3201 19.588C35.4194 19.5554 35.5274 19.5613 35.6226 19.6045C35.7177 19.6477 35.7934 19.7251 35.8342 19.8213C35.9549 20.0748 36.0012 20.3574 35.9678 20.6362C35.9562 20.7096 35.928 20.7796 35.8858 20.8408C35.8435 20.902 35.7881 20.9529 35.7235 20.9898C35.6589 21.0266 35.587 21.0485 35.5129 21.0538C35.4387 21.0591 35.3644 21.0475 35.2952 21.0202C34.8919 20.8601 34.7208 19.6921 35.3201 19.5844" fill="#0A0909"/>
<path d="M30.4515 17.9455C30.2284 17.85 29.9883 17.8008 29.7457 17.8008C29.503 17.8008 29.2629 17.85 29.0398 17.9455C28.6019 18.1339 28.2388 18.4621 28.007 18.8788C27.9758 18.9182 27.9573 18.9663 27.9544 19.0165C27.9415 19.0543 27.9424 19.0955 27.9565 19.1328C27.9707 19.1702 27.9972 19.2014 28.0319 19.2211C28.0766 19.2723 28.139 19.3051 28.2064 19.3132C28.2739 19.3212 28.3419 19.3041 28.3974 19.265C29.0036 18.8961 29.6706 18.6377 30.367 18.5018C30.685 18.4387 30.702 17.9957 30.4529 17.939" fill="#0A0909"/>
<path d="M35.4886 17.4126C35.4661 17.4009 35.4418 17.3931 35.4167 17.3897C35.2236 17.3653 34.9805 17.2935 34.7379 17.2518C34.7215 17.2468 34.7044 17.2433 34.6874 17.2411H34.6688C34.3099 17.1894 33.9714 17.2174 33.8077 17.5706C33.7886 17.6117 33.784 17.658 33.7948 17.702C33.7865 17.7448 33.788 17.7889 33.7993 17.831C33.8107 17.8731 33.8317 17.912 33.8603 17.9449C33.8889 17.9778 33.9246 18.0036 33.9647 18.0206C34.0049 18.0376 34.0484 18.0453 34.092 18.043C34.561 18 35.0319 17.9805 35.5029 17.9848C35.8474 17.9927 35.8072 17.4658 35.4886 17.4105" fill="#0A0909"/>
<path d="M30.3138 32.091C30.375 32.0532 30.4214 31.9956 30.4452 31.9278C30.4691 31.8599 30.469 31.7859 30.4449 31.7182C30.4208 31.6504 30.3741 31.5929 30.3127 31.5553C30.2514 31.5178 30.179 31.5023 30.1077 31.5117C27.6128 31.8541 25.3493 29.5734 25.327 29.5505C25.2982 29.521 25.264 29.4975 25.2261 29.4813C25.1882 29.4651 25.1474 29.4565 25.1063 29.4561C25.0651 29.4556 25.0243 29.4633 24.986 29.4786C24.9478 29.4939 24.9128 29.5167 24.8834 29.5455C24.8539 29.5743 24.8305 29.6085 24.8143 29.6464C24.7981 29.6843 24.7895 29.725 24.7891 29.7662C24.7886 29.8074 24.7962 29.8483 24.8115 29.8865C24.8268 29.9248 24.8497 29.9596 24.8785 29.9891C24.9797 30.0924 27.3904 32.5189 30.1939 32.1341C30.2364 32.1283 30.2771 32.1139 30.3138 32.0918" fill="#E0A19B"/>
<path d="M35.7356 23.7494C35.7356 23.7494 32.4342 25.0926 30.8516 24.9045C30.8516 24.9045 31.9655 27.4659 33.9465 26.5721C34.4991 26.3434 34.9674 25.9495 35.2877 25.4444C35.608 24.9393 35.7644 24.3468 35.7356 23.7494Z" fill="white"/>
<path d="M20.5523 20.1257L20.625 20.8428L27.4581 20.1501L27.3855 19.433L20.5523 20.1257Z" fill="#0A0909"/>
<path d="M34.7486 18.0002C34.8841 17.7614 35.0584 17.5467 35.2641 17.3649C35.361 17.2805 35.4663 17.2064 35.5785 17.1438C35.7877 17.0253 36.0217 16.9572 36.2619 16.9449C36.2899 16.9449 36.3169 16.9449 36.3449 16.9449C37.5364 16.9449 38.5377 18.3599 38.6303 20.2063C38.6979 20.7783 38.6325 21.3581 38.4393 21.9006C38.2461 22.4431 37.9301 22.9338 37.5162 23.3342C37.2552 23.5445 36.935 23.668 36.6004 23.6874C36.5746 23.6874 36.5495 23.6874 36.5237 23.6874C36.2147 23.6706 35.914 23.5801 35.6472 23.4233C35.3803 23.2666 35.1549 23.0482 34.9897 22.7864C34.8641 22.6125 34.7557 22.4269 34.6655 22.2322C34.4737 21.8181 34.3446 21.3778 34.2828 20.9257C34.2589 20.7634 34.2427 20.5959 34.2341 20.4231C34.2293 20.335 34.2273 20.2475 34.2278 20.1604C34.2099 19.4062 34.3903 18.6606 34.751 17.9981M36.5654 22.9638C36.7192 22.947 36.8674 22.8969 36.9999 22.8169C37.1325 22.7369 37.246 22.6291 37.3325 22.5007C37.7772 21.8342 37.9816 21.0361 37.9119 20.2379C37.8401 18.8022 37.1007 17.6255 36.299 17.6614C36.0972 17.6758 35.9059 17.7563 35.7544 17.8904C35.4855 18.176 35.2756 18.512 35.1372 18.8791C34.9989 19.2462 34.9349 19.637 34.9483 20.029C34.9483 20.1453 34.9482 20.2645 34.9525 20.388C34.9525 20.4109 34.9525 20.4339 34.956 20.4561C35.0493 21.8603 35.7773 22.9903 36.5654 22.9616" fill="#0A0909"/>
<path d="M26.7619 20.9927C26.7754 20.7279 26.8164 20.4651 26.8845 20.2088C26.9549 19.9467 27.0546 19.6933 27.1817 19.4535C27.3344 19.1659 27.5276 18.9019 27.7558 18.6697C28.0943 18.319 28.5132 18.0561 28.9761 17.9037C29.2933 17.8025 29.626 17.7597 29.9585 17.7773C30.6517 17.8405 31.3039 18.1345 31.8103 18.6124C32.3167 19.0902 32.6479 19.7241 32.7513 20.4127C32.7954 20.6422 32.8177 20.8753 32.8175 21.109C32.8175 21.1492 32.8175 21.1899 32.8175 21.2311C32.8175 21.2548 32.8175 21.2785 32.8175 21.3029C32.8134 22.1278 32.4947 22.9201 31.9267 23.5182C31.3586 24.1164 30.5839 24.4753 29.7604 24.5219C29.7138 24.5219 29.6666 24.5219 29.6171 24.5183C29.2008 24.4921 28.795 24.3758 28.428 24.1775C28.0609 23.9792 27.741 23.7036 27.4908 23.3697C26.9715 22.689 26.7138 21.8446 26.764 20.9898M27.7873 22.4975C27.9555 22.8598 28.2171 23.1708 28.545 23.3987C28.873 23.6267 29.2554 23.7633 29.6535 23.7946C30.3114 23.7773 30.936 23.502 31.3925 23.028C31.8491 22.554 32.101 21.9194 32.0938 21.2612C32.1552 20.6599 32.0021 20.0562 31.6614 19.557C31.3206 19.0577 30.8144 18.6951 30.2322 18.5332C30.131 18.5115 30.0281 18.4981 29.9248 18.4931C29.5343 18.4738 29.1462 18.5655 28.8058 18.7579C28.6082 18.8691 28.4276 19.0082 28.2696 19.1708C28.2272 19.2138 28.1878 19.2576 28.149 19.3035C27.7433 19.7888 27.5094 20.3945 27.4831 21.0265C27.4543 21.5354 27.5591 22.0431 27.7873 22.4989" fill="#0A0909"/>
<path d="M32.6944 21.3309C32.9027 21.0928 33.184 20.9302 33.4942 20.8682C33.8044 20.8063 34.1262 20.8486 34.41 20.9886L34.814 20.392C34.4011 20.158 33.9217 20.0696 33.4525 20.1408C32.9833 20.212 32.5515 20.4387 32.2266 20.7846L32.6944 21.3309Z" fill="#0A0909"/>
<path d="M22.8305 20.7849C22.8305 20.7849 21.0522 18.7302 19.9346 19.9952C18.1891 21.9701 21.4217 25.8618 22.7811 25.5079C24.1405 25.154 24.7828 23.4067 22.8305 20.7849Z" fill="#FDBEB8"/>
<path d="M25.5236 15.72C27.6867 15.8679 29.8577 15.8679 32.0208 15.72C35.6096 15.4745 38.1496 13.697 37.8122 12.1033C37.8 11.9063 37.7432 11.7147 37.6461 11.5429C37.5491 11.3712 37.4142 11.2236 37.2519 11.1115C37.0895 10.9994 36.904 10.9256 36.709 10.8957C36.514 10.8658 36.3146 10.8806 36.1262 10.9388C36.1262 10.9388 37.9348 9.25324 36.7721 7.68967C35.6093 6.1261 31.6847 8.73202 31.6847 8.73202C31.6847 8.73202 31.7931 7.475 30.8499 7.32209C29.9068 7.16918 26.5666 9.22237 25.1878 9.68254C23.809 10.1427 21.3263 9.86629 20.3458 10.6632C20.062 10.9085 19.8494 11.226 19.7308 11.582C19.6122 11.9381 19.5919 12.3195 19.6719 12.6862C19.3084 12.8279 18.9964 13.0766 18.7775 13.3996C18.5586 13.7225 18.443 14.1044 18.446 14.4946C18.385 15.9354 22.6138 16.3611 25.525 15.7207" fill="#0A0909"/>
<path d="M19.2722 51.2336C19.3699 51.2709 19.4676 51.3054 19.5645 51.3434C17.895 48.3642 16.1148 45.927 14.2193 44.5443C13.5467 44.0428 12.7334 43.766 11.8946 43.7532C11.0559 43.7403 10.2345 43.992 9.54688 44.4725C9.77895 44.7358 10.0158 44.9928 10.258 45.2435C10.3513 45.3412 10.4459 45.4381 10.545 45.5307C10.7158 45.7035 10.8893 45.8731 11.0654 46.0397L11.1552 46.1251C11.2406 46.2062 11.3266 46.2852 11.4127 46.3649C11.4773 46.4242 11.5427 46.4831 11.6083 46.5415C11.7181 46.6391 11.8279 46.7368 11.9384 46.8286C12.148 47.0096 12.3598 47.1866 12.5742 47.3599C12.7885 47.5331 13.0038 47.7006 13.2201 47.8624L13.2678 47.8983C13.3503 47.96 13.4319 48.0218 13.5145 48.0814C13.6446 48.1771 13.7756 48.2716 13.9077 48.3649L13.9221 48.3749C14.1178 48.5128 14.3155 48.6473 14.5151 48.7784C14.6084 48.8401 14.7017 48.9005 14.7965 48.9608C14.8912 49.0211 14.9738 49.0735 15.0628 49.1288C15.1518 49.184 15.2249 49.23 15.3074 49.2795C15.39 49.329 15.4709 49.3786 15.5542 49.4281C15.7092 49.5207 15.8659 49.6104 16.0217 49.698L16.0623 49.7203L16.232 49.8143C16.2714 49.8373 16.3124 49.8588 16.3518 49.8804L16.4156 49.9162L16.4394 49.9285L16.4882 49.9543L16.56 49.9917L16.8155 50.1259C16.9016 50.1704 16.987 50.2142 17.0724 50.2573C17.2451 50.3439 17.4187 50.4281 17.5928 50.5099C17.723 50.5717 17.8533 50.632 17.9839 50.6909C18.2064 50.7921 18.4325 50.889 18.6579 50.9831L18.8373 51.0548C18.9249 51.0915 19.014 51.1266 19.1016 51.1604L19.2004 51.1992L19.2772 51.2285" fill="#285BBE"/>
</svg>
