<svg width="56" height="56" viewBox="0 0 56 56" fill="none" xmlns="http://www.w3.org/2000/svg">
<circle cx="28" cy="28" r="28" fill="white"/>
<path d="M53.4433 29.793C53.236 32.6861 52.522 35.5203 51.3337 38.1663C51.3115 38.2158 51.2892 38.2647 51.2663 38.3142C51.2663 38.3214 51.2598 38.33 51.2562 38.3372C51.1605 38.5425 51.0647 38.7462 50.969 38.9482C50.7368 39.422 50.4896 39.8872 50.2273 40.3438L50.116 40.5363C49.8632 40.9704 49.5971 41.3959 49.3175 41.8128C49.2012 41.9879 49.0827 42.1603 48.9585 42.3326L48.8767 42.4489C48.5004 42.9753 48.1038 43.4875 47.6869 43.9853L47.5986 44.0901C47.5691 44.126 47.539 44.1619 47.5088 44.1956C47.3573 44.3729 47.2022 44.5481 47.0457 44.7211C46.8284 44.9604 46.6065 45.1959 46.3801 45.4276C46.2547 45.5559 46.1278 45.6827 45.9995 45.8081C45.8236 45.9797 45.6448 46.1491 45.4639 46.3157C45.2547 46.5071 45.0422 46.6962 44.8263 46.8829C44.428 47.2256 44.0187 47.5554 43.5985 47.8722C43.2289 48.1517 42.8512 48.4207 42.4654 48.6791C42.2103 48.8505 41.9516 49.018 41.6892 49.1817L41.565 49.2571C41.5119 49.2908 41.4573 49.3232 41.4035 49.3548C41.3317 49.4 41.2534 49.4445 41.178 49.4883C41.0081 49.5883 40.8365 49.6857 40.6632 49.7805C40.6093 49.8113 40.5548 49.8415 40.5002 49.871C40.4047 49.9226 40.3085 49.9743 40.213 50.0246C39.9487 50.1639 39.6812 50.2986 39.4102 50.4288L39.403 50.4324C39.2717 50.4956 39.1388 50.558 39.006 50.6183C38.1077 51.0302 37.1856 51.3879 36.2445 51.6895C36.159 51.7168 36.0736 51.7441 35.9881 51.7706C35.8251 51.8209 35.66 51.8697 35.4956 51.9142C34.969 52.0664 34.4322 52.2012 33.885 52.3184C33.5528 52.3902 33.2177 52.4553 32.8798 52.5137C32.6759 52.5491 32.4708 52.5821 32.2644 52.6128C31.9418 52.6606 31.6194 52.702 31.2973 52.737C31.0436 52.7652 30.7906 52.7891 30.5383 52.8088C30.3564 52.8226 30.1752 52.8351 29.9948 52.8461C29.8454 52.854 29.6961 52.8619 29.5467 52.8669C29.3974 52.8719 29.2523 52.877 29.1044 52.8813C28.9256 52.8813 28.7454 52.8863 28.5695 52.8863C28.2459 52.8863 27.9235 52.8796 27.6023 52.8662C27.4436 52.8605 27.2849 52.8526 27.127 52.8425C27.0171 52.8368 26.9073 52.8296 26.7981 52.821C26.3099 52.7861 25.825 52.7363 25.3434 52.6717C25.2601 52.6609 25.1783 52.6501 25.0957 52.6379C25.0244 52.6283 24.9526 52.618 24.8803 52.607C24.3959 52.5338 23.916 52.4464 23.4406 52.345C22.4337 52.1306 21.4412 51.8537 20.4687 51.5157C20.3165 51.4631 20.1653 51.409 20.0149 51.3535C19.7938 51.2717 19.5734 51.1884 19.3558 51.0994C19.3418 51.0947 19.3282 51.0892 19.3149 51.0828C19.2531 51.0584 19.1916 51.0333 19.1303 51.0075L19.065 50.9809C19.055 50.9766 19.0442 50.973 19.0341 50.9672C18.868 50.8983 18.7026 50.8265 18.538 50.7519C18.3891 50.6858 18.2407 50.6181 18.0928 50.5487C17.8774 50.4482 17.662 50.3441 17.4509 50.2371C17.1273 50.0753 16.8075 49.9059 16.4916 49.7288C16.4291 49.6943 16.3659 49.657 16.3042 49.6225L16.096 49.5034C15.9524 49.4196 15.8088 49.3344 15.6652 49.2478C15.5625 49.1853 15.4605 49.1221 15.3586 49.0575L15.342 49.0475C15.2631 48.9986 15.1848 48.9491 15.1073 48.8974C15.0656 48.8706 15.024 48.8431 14.9823 48.8149L14.9536 48.7962L14.8746 48.7445C14.7827 48.6835 14.6915 48.6232 14.601 48.5607C14.4756 48.476 14.3512 48.3901 14.2277 48.303C14.0659 48.1886 13.9062 48.0727 13.7487 47.9555C13.6669 47.8944 13.5858 47.8334 13.5046 47.771C13.2653 47.5877 13.0276 47.3993 12.7916 47.2059C12.4795 46.9494 12.1739 46.6847 11.8747 46.4119C11.8043 46.3487 11.7347 46.2848 11.6658 46.2202C11.334 45.9124 11.0107 45.5953 10.6957 45.2689C9.94165 44.4887 9.23959 43.6598 8.59405 42.7877C8.50214 42.6635 8.41095 42.5386 8.32192 42.4115C8.27597 42.3476 8.23073 42.283 8.18549 42.2191C7.87339 41.7711 7.57541 41.3124 7.29155 40.8428C7.27719 40.8198 7.26355 40.7969 7.24991 40.771C6.9986 40.3503 6.75926 39.9217 6.53188 39.4852C6.47779 39.3828 6.4249 39.2796 6.3732 39.1757C6.3732 39.1757 6.3732 39.1707 6.36961 39.1686C5.97032 38.3749 5.61461 37.56 5.30406 36.7276C5.28348 36.674 5.26337 36.6199 5.24375 36.5653C5.21024 36.4748 5.17769 36.3842 5.1461 36.2932C4.61458 34.7832 4.22985 33.2255 3.99726 31.6417C3.93934 31.2502 3.89147 30.8594 3.85365 30.4693C3.51099 27.0383 3.88512 23.5735 4.95232 20.2948C6.01952 17.016 7.7565 13.9948 10.0531 11.4227C12.3497 8.85057 15.1558 6.78369 18.2935 5.35317C21.4311 3.92265 24.8318 3.15969 28.2799 3.11267C31.728 3.06564 35.1483 3.73557 38.3238 5.08C41.4993 6.42442 44.3607 8.414 46.7266 10.9225C49.0925 13.4311 50.9113 16.4038 52.0675 19.6523C53.2238 22.9007 53.6923 26.3539 53.4433 29.793Z" fill="#FB86BB"/>
<path d="M10.6932 45.2672C14.7127 43.521 18.8846 42.1491 23.156 41.1692C26.4887 40.409 29.8756 39.9097 33.2859 39.6759C38.9075 39.2878 44.5553 39.577 50.1078 40.5374C49.855 40.9715 49.5889 41.3971 49.3093 41.8139C49.193 41.9891 49.0745 42.1614 48.9503 42.3337L48.8685 42.45C48.4922 42.9765 48.0956 43.4889 47.6787 43.9871L47.5904 44.092C47.5609 44.1279 47.5308 44.1637 47.5006 44.1975C47.3491 44.3748 47.194 44.55 47.0375 44.7223C46.8202 44.9616 46.5983 45.1974 46.3719 45.4295C46.2465 45.5578 46.1196 45.6846 45.9913 45.81C45.8154 45.9815 45.6366 46.151 45.4557 46.3176C45.2465 46.509 45.034 46.6981 44.8181 46.8848C44.4198 47.2275 44.0106 47.5572 43.5903 47.874C43.2207 48.1536 42.843 48.4226 42.4572 48.681C42.2021 48.8524 41.9434 49.0199 41.681 49.1835L41.5568 49.259C41.5037 49.292 41.4491 49.325 41.3953 49.3566C41.3235 49.4019 41.2452 49.4463 41.1698 49.4901C40.9999 49.5901 40.8283 49.6876 40.655 49.7824C40.6011 49.8133 40.5466 49.8434 40.492 49.8728C40.3963 49.925 40.3005 49.9762 40.2048 50.0265C39.9405 50.1657 39.673 50.3005 39.402 50.4307L39.3948 50.4343C39.2635 50.4974 39.1306 50.5599 38.9978 50.6202C38.0995 51.0322 37.1774 51.3898 36.2363 51.6914C36.1508 51.7186 36.0654 51.7459 35.9799 51.7725C35.8169 51.8228 35.6518 51.8723 35.4874 51.9161C34.9608 52.0683 34.424 52.203 33.8768 52.3203C33.5446 52.392 33.2095 52.4572 32.8716 52.5156C32.6677 52.551 32.4626 52.584 32.2562 52.6146C31.9336 52.6625 31.6112 52.7039 31.2891 52.7388C31.0354 52.7671 30.7824 52.791 30.5301 52.8106C30.3482 52.8245 30.167 52.8369 29.9866 52.8479C29.8372 52.8558 29.6879 52.8638 29.5385 52.8688C29.3892 52.8738 29.2441 52.8796 29.0962 52.8832C28.9174 52.8832 28.7372 52.8882 28.5613 52.8882C28.2377 52.8882 27.9153 52.8815 27.5941 52.8681C27.4354 52.8623 27.2767 52.8544 27.1188 52.8443C27.0089 52.8386 26.8991 52.8315 26.7899 52.8229C26.3017 52.7879 25.8168 52.7381 25.3352 52.6735C25.2519 52.6635 25.1701 52.652 25.0875 52.6398C25.0162 52.6302 24.9444 52.6199 24.8721 52.6089C24.3876 52.5352 23.9078 52.4478 23.4324 52.3468C22.4255 52.1325 21.4329 51.8556 20.4605 51.5177C20.3083 51.465 20.157 51.4109 20.0067 51.3553C19.7856 51.2735 19.5652 51.1902 19.3476 51.1012C19.3336 51.0966 19.3199 51.0911 19.3067 51.0847C19.2449 51.0603 19.1834 51.0352 19.1221 51.0093L19.0568 50.9828L19.0259 50.9691C18.8598 50.9002 18.6944 50.8284 18.5298 50.7537C18.3809 50.6876 18.2325 50.62 18.0846 50.5505C17.8692 50.4508 17.6538 50.346 17.4427 50.239C17.1191 50.0772 16.7993 49.9078 16.4834 49.7307C16.4209 49.6955 16.3577 49.6588 16.296 49.6244L16.0878 49.5052C15.9442 49.4214 15.8006 49.3363 15.6569 49.2496C15.5545 49.1874 15.4523 49.124 15.3504 49.0594L15.3338 49.0494C15.2549 49.0006 15.1766 48.9509 15.099 48.8992C15.0574 48.8724 15.0158 48.8449 14.9741 48.8167L14.9454 48.798L14.8664 48.7464C14.7745 48.6854 14.6833 48.625 14.5928 48.5625C14.4674 48.4778 14.343 48.3917 14.2195 48.3041C14.0577 48.1897 13.898 48.0739 13.7405 47.9566C13.6587 47.8956 13.5776 47.8346 13.4964 47.7721C13.2571 47.5888 13.0194 47.4005 12.7834 47.2071C12.4713 46.9506 12.1657 46.6859 11.8665 46.4131C11.7961 46.3499 11.7265 46.2862 11.6575 46.222C11.3258 45.9143 11.0025 45.5972 10.6875 45.2708" fill="#0A0909"/>
<path d="M32.607 17.8245C32.607 17.8245 33.9196 15.27 33.8276 13.2705C33.7357 11.2711 31.6355 8.58743 29.3386 8.86097C27.0416 9.1345 25.2458 11.7801 23.9534 12.0336C22.7487 12.234 21.6309 12.7883 20.7424 13.6259C20.0014 14.3977 20.6117 16.0576 20.6117 16.0576C20.6117 16.0576 19.0636 16.6434 18.9021 17.7089C18.7405 18.7743 20.3238 25.9516 21.5243 28.0473C22.7248 30.1429 24.1516 30.0274 25.6084 29.5054C27.0653 28.9835 32.6099 17.8274 32.6099 17.8274" fill="#0A0909"/>
<path d="M23.125 25.4242L23.1623 44.0419C23.4984 45.9581 31.5632 48.552 34.1395 45.5747C34.8927 44.7031 30.456 28.4072 30.456 28.4072L23.125 25.4242Z" fill="#FDBEB8"/>
<path d="M24.1739 24.2731C23.7811 22.9722 23.6713 22.6584 23.5276 22.1789C23.2505 21.2656 22.5432 19.9661 21.3915 21.0438C19.7157 22.611 21.459 27.3932 23.8278 27.0788C25.5869 26.8455 24.5422 25.4842 24.1767 24.2738" fill="#FDBEB8"/>
<path d="M26.5945 31.4899L31.467 32.22C31.8849 33.8354 32.376 35.7817 32.8312 37.6835C31.8263 37.6006 30.8489 37.313 29.9591 36.8385C27.2938 35.4615 26.5938 31.4891 26.5938 31.4891" fill="#E0A19B"/>
<path d="M24.4688 17.8088L23.5511 27.9368C23.3971 29.2146 23.7479 30.5021 24.5287 31.5253C25.3096 32.5485 26.4589 33.2266 27.7322 33.4154C29.8482 33.7256 31.1787 33.5705 33.7636 32.9408C35.9177 32.416 36.7886 30.1861 36.4476 27.323C36.0385 24.2893 35.3925 21.2923 34.5154 18.3595C34.2784 17.5152 33.5339 15.1912 32.9034 14.685C32.4089 14.2451 31.8077 13.9426 31.1597 13.8076C30.5118 13.6725 29.8397 13.7096 29.2106 13.9154C25.8503 15.2759 25.1322 15.431 24.4717 17.8095" fill="#FDBEB8"/>
<path d="M33.0264 22.4735C33.7717 22.4096 35.2343 19.9607 36.4183 22.3665C36.6948 22.9272 39.5217 28.3628 39.075 30.8612C38.7096 32.9045 35.6134 34.3648 33.8528 34.7116C31.9351 35.0094 29.9727 34.6635 28.2724 33.728C25.9029 32.2203 25.7593 30.4197 25.3155 28.7985C24.5867 26.1386 22.8025 20.7095 23.5851 20.6708C23.6985 20.665 24.0389 20.24 24.0317 20.5709C23.9929 22.2768 25.7715 25.7997 27.4222 25.7272C28.472 25.6813 27.6936 24.7264 29.7824 23.2245C30.4236 22.7636 31.5358 22.602 33.0271 22.4749" fill="#0A0909"/>
<path d="M35.4814 22.4759C33.8493 23.1212 32.1711 23.6432 30.4609 24.0375C30.5172 24.4712 30.7008 24.8786 30.9887 25.2079C31.2765 25.5372 31.6556 25.7738 32.0779 25.8876C32.6444 26.0312 33.328 24.8366 34.0827 24.5681C34.5558 24.4001 35.4562 25.0771 35.5905 24.6901C35.7614 23.9561 35.7236 23.1896 35.4814 22.4759Z" fill="#FDBEB8"/>
<path d="M28.1153 31.7373C29.9233 32.3834 32.1901 32.2729 36.1328 30.547C37.2077 30.1612 38.1634 29.5021 38.9058 28.6344C39.1043 29.3586 39.1621 30.1141 39.076 30.86C38.7105 32.9033 35.6144 34.3635 33.8538 34.7103C31.9359 35.0078 29.9736 34.6617 28.2733 33.726C27.0589 33.0087 26.1636 31.8558 25.7695 30.5017C26.4985 31.0065 27.2859 31.4211 28.1146 31.7366" fill="#0A0909"/>
<path d="M32.474 22.2337C32.9622 21.9658 33.377 21.5819 33.6818 21.1159C33.9202 20.7569 34.4307 21.1877 34.1952 21.5466C33.8558 22.0598 33.3977 22.4837 32.8596 22.7823C32.4863 22.9905 32.0971 22.4434 32.474 22.2337Z" fill="#E0A19B"/>
<path d="M28.9778 17.8813C28.7799 17.8624 28.5803 17.8838 28.391 17.9442C28.2016 18.0047 28.0266 18.103 27.8763 18.2331C27.5809 18.4893 27.3789 18.8363 27.3019 19.2196C27.2874 19.2582 27.2851 19.3003 27.2955 19.3402C27.2946 19.3733 27.3052 19.4057 27.3255 19.4318C27.3458 19.458 27.3745 19.4764 27.4068 19.4838C27.4543 19.5127 27.5109 19.5228 27.5656 19.5123C27.6202 19.5018 27.669 19.4715 27.7026 19.4271C28.0839 18.9891 28.54 18.6223 29.0496 18.3437C29.2815 18.2152 29.1853 17.8656 28.9778 17.8835" fill="#0A0909"/>
<path d="M33.7249 16.8505C33.7042 16.847 33.6831 16.847 33.6624 16.8505C33.5044 16.8706 33.2969 16.8642 33.0959 16.8814C33.0818 16.8803 33.0676 16.8803 33.0535 16.8814L33.0384 16.885C32.7462 16.9173 32.4812 17.0099 32.4245 17.323C32.4178 17.3593 32.4239 17.3968 32.4417 17.4292C32.444 17.4648 32.4543 17.4995 32.472 17.5306C32.4896 17.5616 32.5142 17.5883 32.5437 17.6084C32.5732 17.6286 32.6069 17.6416 32.6422 17.6468C32.6775 17.6519 32.7136 17.649 32.7476 17.6381C33.1103 17.5074 33.4794 17.395 33.8534 17.3014C34.1284 17.2368 33.9884 16.8276 33.7249 16.8513" fill="#0A0909"/>
<path d="M31.5678 24.8194C31.4801 24.8208 31.3954 24.7878 31.3316 24.7275C31.2679 24.6672 31.2303 24.5844 31.2268 24.4967C31.2234 24.4091 31.2543 24.3236 31.3131 24.2584C31.3718 24.1933 31.4537 24.1537 31.5413 24.1481C33.9108 23.96 34.7257 23.1042 34.7329 23.0956C34.7935 23.0359 34.8745 23.0013 34.9596 22.999C35.0447 22.9966 35.1275 23.0267 35.1913 23.083C35.2551 23.1393 35.2951 23.2178 35.3033 23.3025C35.3116 23.3872 35.2873 23.4718 35.2355 23.5394C35.1975 23.5831 34.2698 24.6048 31.5915 24.818H31.5643" fill="#E0A19B"/>
<path d="M28.6755 21.0894C28.5871 21.0924 28.5011 21.0604 28.4361 21.0003C28.3711 20.9403 28.3324 20.857 28.3285 20.7686C28.3245 20.6802 28.3555 20.5938 28.4149 20.5282C28.4742 20.4626 28.557 20.423 28.6454 20.418C29.5393 20.3362 29.7705 19.9615 29.7799 19.9457C29.7997 19.9065 29.8271 19.8716 29.8605 19.8431C29.8939 19.8146 29.9327 19.7931 29.9745 19.7798C30.0163 19.7664 30.0604 19.7615 30.1042 19.7653C30.1479 19.7691 30.1905 19.7817 30.2293 19.8021C30.3082 19.8441 30.3675 19.9154 30.3944 20.0007C30.4212 20.086 30.4135 20.1784 30.3729 20.258C30.3363 20.3298 29.978 20.9716 28.7035 21.088H28.6726" fill="#0A0909"/>
<path d="M33.4857 19.8434C33.2906 19.8475 33.0984 19.7962 32.9314 19.6954C32.8623 19.6452 32.8149 19.5706 32.7989 19.4867C32.7829 19.4028 32.7994 19.316 32.8452 19.2438C32.8909 19.1717 32.9624 19.1197 33.045 19.0984C33.1277 19.077 33.2155 19.088 33.2904 19.129C33.3248 19.1484 33.5898 19.2776 34.0084 18.9646C34.0797 18.9111 34.1694 18.8881 34.2576 18.9006C34.3459 18.9132 34.4255 18.9604 34.4791 19.0317C34.5326 19.1031 34.5556 19.1927 34.543 19.2809C34.5304 19.3692 34.4832 19.4488 34.4119 19.5023C34.1485 19.7147 33.8225 19.8346 33.4842 19.8434" fill="#0A0909"/>
</svg>
