<svg width="56" height="56" viewBox="0 0 56 56" fill="none" xmlns="http://www.w3.org/2000/svg">
<circle cx="28" cy="28" r="28" fill="white"/>
<path d="M52.6801 28.0011C52.6801 28.3543 52.6727 28.7057 52.6578 29.0551C52.5143 32.5865 51.6156 36.0463 50.0222 39.2013C49.9756 39.2939 49.9282 39.3865 49.8786 39.4791C49.802 39.6275 49.7237 39.7749 49.6438 39.9214C49.5097 40.167 49.3718 40.4092 49.2301 40.648L49.1806 40.7321C48.9833 41.0638 48.7782 41.3902 48.5651 41.7114C48.4473 41.8909 48.3264 42.069 48.2024 42.2456C48.0622 42.4467 47.9185 42.6455 47.7716 42.8423C47.6619 42.9897 47.5501 43.1364 47.4362 43.2824C47.3644 43.3779 47.2861 43.4741 47.2093 43.5696C47.1135 43.6907 47.0158 43.8104 46.9162 43.9286C46.7247 44.1608 46.5275 44.3886 46.3245 44.6122C46.1842 44.7687 46.042 44.9233 45.8979 45.076C45.8261 45.1531 45.7543 45.2294 45.6825 45.305C45.581 45.4104 45.4783 45.5145 45.3744 45.6174C45.2703 45.7208 45.1668 45.8227 45.0606 45.924L44.9852 45.9958L44.9133 46.0611L44.825 46.1444C44.7941 46.1731 44.7632 46.2026 44.7324 46.2306C44.6397 46.3182 44.5464 46.4036 44.4523 46.4876C44.1985 46.7169 43.9405 46.9404 43.6781 47.1582C43.6236 47.2042 43.5675 47.2494 43.5122 47.2939C43.3837 47.3988 43.2551 47.5022 43.1244 47.6034L43.0411 47.6687C42.5954 48.0153 42.1377 48.3463 41.668 48.6617C41.5637 48.7321 41.4583 48.8017 41.3521 48.8707C41.2802 48.9173 41.2084 48.9633 41.1366 49.0085C40.9183 49.1473 40.6983 49.2826 40.4766 49.4142C40.3512 49.4894 40.2248 49.5628 40.0975 49.6346L40.0307 49.6727C39.809 49.7986 39.5847 49.9209 39.3578 50.0396L39.3118 50.064C39.245 50.0992 39.1782 50.1358 39.1107 50.1681L39.0669 50.1904C38.9156 50.2684 38.7636 50.344 38.6109 50.4173C38.3777 50.5302 38.1424 50.6396 37.905 50.7454C37.5258 50.9144 37.1428 51.0735 36.7559 51.2229C36.6123 51.2794 36.466 51.3342 36.3171 51.3873C36.1036 51.4658 35.8882 51.5407 35.6708 51.612C35.599 51.6357 35.5315 51.6587 35.4611 51.6838L35.3247 51.7276C35.2435 51.7542 35.1631 51.7786 35.0812 51.803L35.0216 51.8217C34.8191 51.8842 34.6144 51.9423 34.4097 51.9983C34.269 52.0376 34.1275 52.0751 33.9853 52.111C33.5209 52.2298 33.0513 52.3355 32.5763 52.4284C32.4198 52.459 32.2627 52.488 32.1052 52.5153C31.4967 52.622 30.8808 52.7058 30.2574 52.7666C30.0343 52.7886 29.8103 52.8077 29.5852 52.824L29.4969 52.8298L29.4438 52.8334C29.3827 52.8369 29.3217 52.8413 29.2599 52.8448L29.1974 52.8484H29.1493L28.9231 52.8606C28.722 52.8697 28.5202 52.8762 28.3177 52.88H28.2825C28.1209 52.8836 27.9565 52.8851 27.7935 52.8851C27.3549 52.8851 26.919 52.874 26.4857 52.852C26.3373 52.8448 26.1896 52.8358 26.0426 52.8247C25.268 52.7711 24.5041 52.6826 23.751 52.5591C23.5442 52.5256 23.3381 52.4892 23.1327 52.4499L22.9754 52.4198C22.7499 52.3762 22.5256 52.3284 22.3025 52.2762L22.1022 52.2302C21.9873 52.2037 21.8724 52.1757 21.7582 52.1469C21.644 52.1182 21.5169 52.0859 21.3991 52.0543C21.0551 51.9631 20.7118 51.8648 20.3736 51.7585L20.2644 51.724C20.1538 51.6889 20.044 51.6522 19.9341 51.6163C19.8544 51.5905 19.7761 51.5639 19.6971 51.5359C19.6181 51.5079 19.519 51.4742 19.4299 51.4426C19.2497 51.378 19.0709 51.3119 18.8921 51.243C18.8698 51.2351 18.8475 51.2265 18.8253 51.2171C18.5552 51.1133 18.2876 51.0046 18.0224 50.8912C17.9355 50.8538 17.8479 50.8193 17.7617 50.7784C17.6372 50.7234 17.5132 50.6676 17.3897 50.6111C17.348 50.5917 17.3064 50.5731 17.2655 50.553C17.2245 50.5329 17.2051 50.5257 17.1757 50.5113C17.0546 50.4544 16.9349 50.396 16.8166 50.3361L16.7886 50.3218C16.5969 50.2284 16.408 50.1315 16.2206 50.0346L16.1846 50.0159H16.1803C16.1265 49.9872 16.0726 49.9585 16.0188 49.9283C15.8751 49.8508 15.725 49.7696 15.5793 49.687C15.4593 49.6196 15.338 49.5506 15.2202 49.4803C15.1024 49.4099 14.9911 49.3446 14.8776 49.2756L14.7843 49.2182C14.6368 49.1277 14.4903 49.0356 14.3448 48.9418L14.339 48.9382C14.2227 48.8664 14.1063 48.7874 13.9921 48.7098L13.9203 48.661C13.8801 48.6352 13.8406 48.6086 13.8018 48.5813C13.6534 48.4803 13.5062 48.3774 13.3602 48.2726C13.251 48.1955 13.1428 48.1168 13.0356 48.0364C12.9695 47.9875 12.9034 47.9387 12.8374 47.8877C12.7562 47.8274 12.6765 47.7671 12.5961 47.7046C12.2906 47.4696 11.9909 47.2269 11.697 46.9766C11.6251 46.9134 11.5476 46.8495 11.4736 46.7849C11.3357 46.6657 11.1986 46.5436 11.0636 46.4201C10.9846 46.3483 10.9063 46.2765 10.8287 46.2047C10.7217 46.1063 10.6133 46.0051 10.5113 45.9039C10.3677 45.766 10.2262 45.626 10.0869 45.4838C10.0625 45.4594 10.038 45.4343 10.0151 45.412C9.91548 45.311 9.81733 45.2091 9.72062 45.1062C9.65455 45.0344 9.5892 44.9669 9.52385 44.8965C9.3716 44.7321 9.22151 44.5655 9.07429 44.3939C9.04987 44.3666 9.02545 44.3393 9.00247 44.3113C8.97949 44.2833 8.96369 44.2682 8.94502 44.246L8.86315 44.1505L8.75184 44.0205C8.7066 43.9674 8.66135 43.9128 8.61755 43.859C8.60534 43.8453 8.59457 43.8324 8.58308 43.8181C8.40737 43.605 8.23502 43.3896 8.06601 43.1718C8.0337 43.1288 7.99994 43.0857 7.96834 43.0426C7.89222 42.9428 7.8161 42.8408 7.74213 42.7389C7.6301 42.5867 7.51974 42.4337 7.41106 42.2801C7.09747 41.8335 6.79849 41.3761 6.5141 40.908C6.45569 40.8122 6.39824 40.7165 6.34174 40.6208C6.29363 40.5382 6.24551 40.4563 6.19812 40.3731C5.81223 39.7029 5.45819 39.0129 5.13598 38.303C4.95405 37.9062 4.78337 37.5039 4.62394 37.0961C2.6011 31.9441 2.35346 26.2649 3.92017 20.9565C5.48688 15.648 8.77855 11.0131 13.2748 7.78436C17.7711 4.55564 23.2155 2.91735 28.7472 3.12848C34.279 3.33961 39.5826 5.38811 43.8196 8.95015C44.0058 9.10572 44.1899 9.26488 44.3719 9.42762C46.9903 11.7611 49.0846 14.6228 50.5166 17.8242C51.9487 21.0256 52.686 24.4941 52.6801 28.0011Z" fill="#FEBE4F"/>
<path d="M52.6588 29.0556C52.5152 32.587 51.6165 36.0468 50.0232 39.2017C49.9765 39.2944 49.9291 39.387 49.8795 39.4796C49.8029 39.628 49.7247 39.7754 49.6447 39.9219C49.5107 40.1675 49.3728 40.4097 49.2311 40.6485L49.1815 40.7325C48.9843 41.0643 48.7791 41.3907 48.5661 41.7119C48.4483 41.8914 48.3274 42.0695 48.2034 42.2461C48.0631 42.4471 47.9195 42.646 47.7725 42.8428C47.6629 42.9902 47.5511 43.1369 47.4371 43.2829C47.3653 43.3784 47.287 43.4746 47.2102 43.5701C47.1144 43.6912 47.0168 43.8109 46.9172 43.9291C46.7257 44.1613 46.5284 44.3891 46.3254 44.6127C46.1852 44.7692 46.043 44.9238 45.8989 45.0765C45.827 45.1536 45.7552 45.2299 45.6834 45.3055C45.5819 45.4108 45.4792 45.5149 45.3753 45.6179C45.2712 45.7213 45.1678 45.8232 45.0615 45.9245L44.9861 45.9963L44.9143 46.0616L44.8259 46.1449C44.7951 46.1736 44.7642 46.203 44.7333 46.231C44.6407 46.3186 44.5473 46.4041 44.4532 46.4881C44.1995 46.7174 43.9412 46.9409 43.6784 47.1587C43.6238 47.2047 43.5678 47.2499 43.5125 47.2944C43.3839 47.3992 43.2554 47.5026 43.1247 47.6039L43.0414 47.6692C42.5956 48.0158 42.1379 48.3468 41.6683 48.6622C41.5634 48.7326 41.4581 48.8022 41.3523 48.8712C41.2805 48.9178 41.2087 48.9638 41.1368 49.009C40.9185 49.1478 40.6985 49.2831 40.4769 49.4147C40.3514 49.4894 40.225 49.5628 40.0977 49.6351L40.0309 49.6732C39.8092 49.7991 39.5849 49.9214 39.358 50.0401L39.312 50.0645C39.2452 50.0997 39.1785 50.1363 39.111 50.1686L39.0671 50.1909C38.9159 50.2689 38.7638 50.3445 38.6111 50.4178C38.378 50.5307 38.1427 50.6401 37.9052 50.7459C37.526 50.9148 37.143 51.074 36.7561 51.2234C36.6125 51.2798 36.4663 51.3346 36.3174 51.3878C36.1038 51.4663 35.8884 51.5412 35.671 51.6125C35.5992 51.6362 35.5317 51.6592 35.4613 51.6843L35.3249 51.7281C35.2437 51.7547 35.1633 51.7791 35.0814 51.8035L35.0218 51.8222C34.8193 51.8846 34.6146 51.9428 34.41 51.9988C34.2692 52.0381 34.1277 52.0756 33.9855 52.1115C33.5211 52.2302 33.0515 52.336 32.5765 52.4289C32.42 52.4595 32.263 52.4885 32.1054 52.5158C31.4969 52.6225 30.881 52.7063 30.2577 52.7671C30.0345 52.7891 29.8105 52.8082 29.5855 52.8245L29.4971 52.8303L29.444 52.8339C29.3829 52.8374 29.3219 52.8417 29.2601 52.8453L29.1977 52.8489H29.1496L28.9233 52.8611C28.7223 52.8702 28.5205 52.8767 28.3179 52.8805H28.2827C28.1212 52.8841 27.9574 52.8855 27.7937 52.8855C27.3551 52.8855 26.9192 52.8745 26.4859 52.8525C26.3375 52.8449 26.1898 52.8358 26.0429 52.8252C25.2682 52.7716 24.5043 52.6831 23.7513 52.5596C23.5444 52.5261 23.3383 52.4897 23.1329 52.4504L22.9757 52.4203C22.7502 52.3767 22.5258 52.3288 22.3027 52.2767L22.1024 52.2307C21.9875 52.2042 21.8726 52.1762 21.7584 52.1474C21.6442 52.1187 21.5171 52.0864 21.3993 52.0548C21.0553 51.9636 20.7121 51.8653 20.3738 51.759L20.2647 51.7245C20.1541 51.6893 20.0442 51.6527 19.9343 51.6168C19.8546 51.591 19.7763 51.5644 19.6973 51.5364C19.6183 51.5084 19.5192 51.4747 19.4302 51.4431C19.2499 51.3784 19.0711 51.3124 18.8923 51.2435C18.87 51.2356 18.8477 51.2269 18.8255 51.2176C18.5555 51.1137 18.2878 51.0051 18.0226 50.8916C17.9357 50.8543 17.8481 50.8198 17.7619 50.7789C17.6374 50.7239 17.5134 50.6681 17.3899 50.6116C17.3483 50.5922 17.3066 50.5736 17.2657 50.5535C17.2247 50.5334 17.2054 50.5262 17.1759 50.5118C17.0548 50.4548 16.9351 50.3965 16.8168 50.3366L16.7888 50.3223C16.5971 50.2289 16.4082 50.132 16.2208 50.0351L16.1849 50.0164H16.1806C16.1267 49.9877 16.0728 49.9589 16.019 49.9288C15.8753 49.8512 15.7253 49.7701 15.5795 49.6875C15.4595 49.62 15.3382 49.5511 15.2204 49.4808C15.1026 49.4104 14.9913 49.345 14.8778 49.2761L14.7845 49.2187C14.637 49.1282 14.4905 49.0361 14.345 48.9422L14.3392 48.9387C14.2229 48.8669 14.1066 48.7879 13.9924 48.7103L13.9206 48.6615C13.8803 48.6357 13.8408 48.6091 13.8021 48.5818C13.6536 48.4808 13.5064 48.3779 13.3604 48.2731C13.2484 48.0505 13.1421 47.8281 13.0415 47.606C12.1725 45.684 11.6235 43.6329 11.4164 41.5338C11.1679 38.4021 11.4227 35.2509 12.1711 32.1997C13.4064 26.4765 10.2322 23.9635 12.7895 18.3838C15.3468 12.8042 17.0912 4.51262 25.6594 9.18757C27.6187 8.37429 29.7411 8.03047 31.8571 8.18356C33.973 8.33666 36.0238 8.98243 37.8456 10.0693C44.3742 13.7742 40.316 26.8283 45.0795 29.2983C46.9265 30.2561 49.6627 29.7765 52.671 29.0549" fill="#0A0909"/>
<path d="M43.1234 47.6059C43.0961 47.6281 43.0681 47.6497 43.0401 47.6712C42.5944 48.0178 42.1367 48.3488 41.667 48.6642C41.5621 48.7346 41.4568 48.8042 41.351 48.8732C41.2792 48.9198 41.2074 48.9658 41.1356 49.011C40.9173 49.1498 40.6973 49.2851 40.4756 49.4167C40.3502 49.4914 40.2238 49.5648 40.0964 49.6371L40.0296 49.6752C39.808 49.8011 39.5837 49.9234 39.3567 50.0421L39.3108 50.0665C39.244 50.1017 39.1772 50.1383 39.1097 50.1706L39.0659 50.1929C38.9146 50.2709 38.7626 50.3465 38.6098 50.4197C38.3767 50.5327 38.1414 50.6421 37.9039 50.7479C37.5247 50.9168 37.1417 51.076 36.7549 51.2254C36.6112 51.2818 36.465 51.3366 36.3161 51.3898C36.1026 51.4683 35.8871 51.5432 35.6698 51.6145C35.5979 51.6382 35.5304 51.6612 35.4601 51.6863L35.3236 51.7301C35.2425 51.7567 35.162 51.7811 35.0802 51.8055L35.0206 51.8242C34.818 51.8866 34.6134 51.9448 34.4087 52.0008C34.2679 52.04 34.1265 52.0776 33.9843 52.1135C33.5199 52.2322 33.0502 52.338 32.5753 52.4309C32.4187 52.4615 32.2617 52.4905 32.1042 52.5178C31.4957 52.6245 30.8797 52.7083 30.2564 52.7691C30.0333 52.7916 29.8092 52.8107 29.5842 52.8265L29.4959 52.8322L29.4427 52.8358C29.3817 52.8394 29.3206 52.8437 29.2589 52.8473L29.1964 52.8509H29.1483L28.9221 52.8631C28.721 52.8722 28.5192 52.8787 28.3167 52.8825H28.2815C28.1199 52.8861 27.9562 52.8875 27.7924 52.8875C27.3539 52.8875 26.918 52.8765 26.4847 52.8545C26.336 52.8473 26.1888 52.838 26.0416 52.8272C25.2669 52.7736 24.5031 52.6851 23.75 52.5616C23.5432 52.5281 23.3371 52.4917 23.1317 52.4524L22.9744 52.4223C22.7489 52.3787 22.5246 52.3308 22.3015 52.2787L22.1011 52.2327C21.9862 52.2061 21.8713 52.1781 21.7571 52.1494C21.6429 52.1207 21.5158 52.0884 21.3981 52.0568C21.0541 51.9656 20.7108 51.8672 20.3725 51.761L20.2634 51.7265C20.1528 51.6913 20.0429 51.6547 19.933 51.6188C19.8533 51.593 19.775 51.5664 19.696 51.5384C19.6171 51.5104 19.5179 51.4767 19.4289 51.4451C19.2486 51.3804 19.0698 51.3144 18.891 51.2455C18.8687 51.2376 18.8465 51.2289 18.8242 51.2196C18.5542 51.1157 18.2866 51.0071 18.0213 50.8936C17.9344 50.8563 17.8468 50.8218 17.7606 50.7809C17.6362 50.7259 17.5122 50.6701 17.3886 50.6136C17.347 50.5942 17.3053 50.5756 17.2644 50.5554C17.2235 50.5353 17.2041 50.5282 17.1746 50.5138C17.0535 50.4568 16.9338 50.3984 16.8156 50.3386L16.7876 50.3243C16.5958 50.2309 16.4069 50.134 16.2195 50.037L16.1836 50.0184H16.1793C16.1254 49.9897 16.0716 49.9609 16.0177 49.9308C15.8741 49.8532 15.724 49.7721 15.5782 49.6895C15.4583 49.622 15.3369 49.5531 15.2191 49.4828C15.1014 49.4124 14.99 49.347 14.8766 49.2781L14.7832 49.2207C14.6358 49.1302 14.4893 49.0381 14.3437 48.9442L14.338 48.9407C14.2216 48.8689 14.1053 48.7899 13.9911 48.7123L13.9193 48.6635C13.8791 48.6376 13.8396 48.6111 13.8008 48.5838C13.6524 48.4828 13.5052 48.3799 13.3591 48.2751C13.25 48.198 13.1418 48.1195 13.0345 48.0395C12.9685 47.9907 12.9024 47.9419 12.8363 47.8909C12.7552 47.8306 12.6755 47.7703 12.595 47.7078C12.2896 47.4728 11.9899 47.2301 11.6959 46.9798C11.6241 46.9166 11.5465 46.8527 11.4726 46.7888C11.3347 46.6696 11.1975 46.5475 11.0625 46.424C10.9835 46.3522 10.9052 46.2804 10.8277 46.2086C10.7207 46.1103 10.6122 46.009 10.5103 45.9078C10.3666 45.7699 10.2251 45.6299 10.0858 45.4877C10.0614 45.4633 10.037 45.4382 10.014 45.416C9.91443 45.315 9.81628 45.213 9.71957 45.1101C9.6535 45.0383 9.58815 44.9708 9.5228 44.9004C9.37055 44.736 9.22046 44.5694 9.07324 44.3978C9.04882 44.3705 9.02441 44.3432 9.00143 44.3152C8.97845 44.2872 8.96265 44.2722 8.94398 44.2499L8.86211 44.1544L8.7508 44.0244C8.70555 43.9713 8.66031 43.9167 8.6165 43.8629C8.60429 43.8492 8.59352 43.8363 8.58203 43.822C8.73763 43.6693 8.89466 43.5209 9.05313 43.3768L9.05745 43.3725C9.79384 42.6988 10.5822 42.0842 11.4151 41.5344C12.2458 40.9835 13.1178 40.4976 14.0234 40.0811L14.0837 40.0531C14.1139 40.0388 14.1441 40.0252 14.1742 40.0122L14.325 39.9447C14.4313 39.898 14.5405 39.8521 14.6439 39.8076C14.6963 39.7846 14.7502 39.7631 14.8033 39.7415L14.9103 39.6984L14.9412 39.6855L14.9685 39.6748L14.985 39.669L15.2148 39.5778C15.306 39.5434 15.3965 39.506 15.4877 39.4744C15.9617 39.3002 16.4333 39.1444 16.9025 39.007C17.3717 38.8696 17.8358 38.75 18.295 38.648C21.0002 38.0567 23.7821 37.8977 26.5371 38.177C27.13 38.232 27.7197 38.3175 28.3037 38.4333C29.3897 38.5706 30.4642 38.7866 31.5189 39.0795C32.8414 39.4485 34.1225 39.952 35.3423 40.5823C36.5149 41.1906 37.6235 41.9148 38.6515 42.7442L38.6608 42.7529C39.451 43.3903 40.1949 44.083 40.8871 44.8257C41.6975 45.6958 42.4446 46.6227 43.1227 47.5994" fill="#FDBEB8"/>
<path d="M20.4547 25.9369L18.212 39.131C17.8672 41.5134 22.946 48.4407 27.1464 45.9349C28.3759 45.2011 27.3618 41.7266 26.6566 39.1102L25.3 28.6273L20.4547 25.9369Z" fill="#FDBEB8"/>
<path d="M21.1623 17.6886C20.582 19.761 20.2229 21.8891 20.0909 24.0372C20.0305 28.0322 22.6281 29.9816 26.5966 30.5818C30.4652 31.167 31.8232 30.3664 32.7396 27.7098C33.022 26.8818 33.1824 26.0171 33.2157 25.1429C33.1927 23.1123 32.6658 21.1191 31.6825 19.3421C31.2735 18.4965 30.9246 17.6232 30.6383 16.7286C28.6993 12.3013 23.0841 12.2008 21.1623 17.6864" fill="#FDBEB8"/>
<path d="M20.3554 20.8779C20.175 20.4337 20.0426 19.9716 19.9604 19.4993C19.7902 18.6025 19.327 17.3101 18.1126 18.2184C16.3453 19.5395 17.5166 24.2654 19.8175 24.2066C21.526 24.1628 20.828 21.993 20.3554 20.8786" fill="#FDBEB8"/>
<path d="M22.03 27.9381C21.681 28.5506 23.801 34.1216 26.1953 35.1462L25.8513 31.6962C25.8024 31.157 26.0437 30.4993 26.5795 30.5804H26.5902C29.7544 31.0586 31.2388 30.612 32.176 28.9807C30.8111 29.5433 29.3321 29.7741 27.8606 29.6542C25.4268 29.3742 22.3963 27.2848 22.0257 27.9367" fill="#E0A19B"/>
<path d="M28.5968 23.4731C28.5695 23.5327 28.7282 23.6232 28.971 23.6275C29.312 23.6355 29.645 23.5234 29.9117 23.3108C29.9168 23.3031 29.924 23.2971 29.9326 23.2936C30.1125 23.1473 30.2561 22.9612 30.3519 22.7501C30.4554 22.5546 30.4935 22.3311 30.4604 22.1125C30.4424 22.0407 30.4173 22.0084 30.3778 22.0105C30.359 22.0094 30.3404 22.015 30.3254 22.0263C30.2237 22.1549 30.1304 22.29 30.046 22.4305C29.9377 22.5848 29.8114 22.7256 29.6697 22.8499C29.6535 22.8676 29.6355 22.8835 29.6158 22.8972C29.4029 23.0682 29.1622 23.2013 28.9042 23.2907C28.7246 23.3625 28.6025 23.4042 28.5968 23.4731Z" fill="#E0A19B"/>
<path d="M24.9628 17.7728C25.2184 17.529 25.529 17.3504 25.8682 17.252C26.2075 17.1537 26.5655 17.1385 26.9119 17.2077C27.1323 17.2652 27.123 17.5545 26.83 17.6084C26.2222 17.6722 25.632 17.8505 25.0906 18.134C24.7905 18.289 24.6023 18.0255 24.9635 17.775" fill="#0A0909"/>
<path d="M30.6897 16.7646C30.3836 16.5644 30.0161 16.4801 29.6534 16.5269C29.4257 16.5334 29.2799 16.7574 29.56 16.8593C29.9427 16.9599 30.3185 17.0846 30.6853 17.2327C30.9374 17.3677 31.0337 17.0403 30.6889 16.7653" fill="#0A0909"/>
<path d="M28.2365 25.6127C27.9122 25.6144 27.5884 25.5865 27.2692 25.5294C27.2298 25.5221 27.1922 25.5071 27.1585 25.4852C27.1249 25.4634 27.0959 25.4352 27.0732 25.4021C27.0505 25.3691 27.0345 25.3319 27.0262 25.2927C27.0179 25.2535 27.0173 25.213 27.0246 25.1736C27.032 25.1342 27.047 25.0966 27.0688 25.063C27.0906 25.0294 27.1189 25.0004 27.1519 24.9777C27.185 24.955 27.2222 24.939 27.2614 24.9307C27.3006 24.9224 27.3411 24.9218 27.3805 24.9291C28.7261 25.0602 30.0835 24.8697 31.3411 24.3734C31.4161 24.3429 31.5002 24.3435 31.5748 24.375C31.6494 24.4065 31.7084 24.4664 31.7389 24.5414C31.7694 24.6164 31.7688 24.7005 31.7373 24.7751C31.7058 24.8497 31.6459 24.9087 31.5709 24.9392C30.5062 25.3523 29.3788 25.5804 28.2372 25.6134" fill="#E0A19B"/>
<path d="M25.6524 21.1898C25.48 21.1888 25.3085 21.1646 25.1425 21.118C25.0644 21.0965 24.998 21.045 24.958 20.9746C24.9179 20.9043 24.9074 20.8209 24.9289 20.7428C24.9503 20.6647 25.0018 20.5984 25.0722 20.5583C25.1426 20.5182 25.226 20.5078 25.3041 20.5292C25.575 20.5813 25.8545 20.5668 26.1186 20.487C26.3826 20.4072 26.6234 20.2645 26.8201 20.0711C26.8772 20.0133 26.955 19.9806 27.0363 19.9801C27.1175 19.9796 27.1957 20.0115 27.2535 20.0686C27.3113 20.1257 27.344 20.2035 27.3445 20.2847C27.345 20.366 27.3131 20.4441 27.256 20.5019C26.8239 20.9201 26.2532 21.1651 25.6524 21.1905" fill="#0A0909"/>
<path d="M30.5088 20.1013C30.3718 20.1034 30.2351 20.0887 30.1016 20.0576C30.0253 20.035 29.9608 19.9836 29.9219 19.9143C29.8829 19.8449 29.8726 19.7631 29.8931 19.6862C29.9136 19.6094 29.9633 19.5435 30.0317 19.5028C30.1 19.462 30.1815 19.4496 30.2589 19.4681C30.6276 19.5319 31.007 19.4646 31.3311 19.2778C31.3666 19.2567 31.406 19.2431 31.4468 19.2376C31.4877 19.2322 31.5293 19.2351 31.569 19.2462C31.6088 19.2573 31.6458 19.2763 31.678 19.3021C31.7102 19.3279 31.7368 19.36 31.7562 19.3964C31.7757 19.4328 31.7875 19.4727 31.7911 19.5138C31.7946 19.5549 31.7898 19.5963 31.7769 19.6355C31.7641 19.6746 31.7434 19.7108 31.7161 19.7418C31.6889 19.7727 31.6556 19.7978 31.6184 19.8156C31.2778 20.0017 30.8963 20.1004 30.5081 20.1028" fill="#0A0909"/>
<path d="M41.1318 49.015C40.914 49.1538 40.694 49.289 40.4718 49.4207C40.3464 49.4954 40.22 49.5688 40.0926 49.6411L40.0258 49.6792C39.8042 49.8051 39.5799 49.9274 39.353 50.0461L39.307 50.0705C39.2402 50.1057 39.1734 50.1423 39.1059 50.1746L39.0621 50.1968C39.0482 49.9805 39.0341 49.7672 39.0197 49.5571C38.759 45.5671 38.6484 42.7533 38.6484 42.7533C38.6484 42.7533 39.4722 43.5136 40.8848 44.8355C41.6122 45.5162 42.4984 46.3469 43.5081 47.2997C43.3796 47.4045 43.2503 47.5079 43.1203 47.6092C43.0931 47.6314 43.065 47.6529 43.037 47.6745C42.5913 48.021 42.1336 48.3521 41.6639 48.6675C41.5596 48.7379 41.4542 48.8075 41.3479 48.8764C41.2766 48.9243 41.2048 48.9703 41.1325 49.0143" fill="#FDBEB8"/>
<path d="M22.9717 52.4244C22.7462 52.3809 22.5219 52.333 22.2988 52.2808L22.0984 52.2349C21.9835 52.2083 21.8686 52.1803 21.7545 52.1516C21.6403 52.1229 21.5132 52.0906 21.3954 52.059C21.0514 51.9678 20.7081 51.8694 20.3699 51.7632L20.2607 51.7287C20.1501 51.6935 20.0402 51.6569 19.9304 51.621C19.8507 51.5951 19.7724 51.5686 19.6934 51.5406C19.6144 51.5126 19.5153 51.4788 19.4262 51.4472C19.246 51.3826 19.0672 51.3165 18.8883 51.2476C18.8661 51.2397 18.8438 51.2311 18.8216 51.2218C18.5515 51.1179 18.2839 51.0092 18.0187 50.8958C17.9318 50.8585 17.8442 50.824 17.758 50.7831C17.6335 50.728 17.5095 50.6723 17.386 50.6158C17.3443 50.5964 17.3027 50.5777 17.2617 50.5576L17.172 50.516C17.0508 50.459 16.9312 50.4006 16.8129 50.3408L16.7849 50.3264C16.5931 50.2331 16.4043 50.1362 16.2168 50.0392L16.1809 50.0206H16.1766C16.1228 49.9918 16.0689 49.9631 16.015 49.933C15.8714 49.8554 15.7213 49.7743 15.5755 49.6917C15.4556 49.6242 15.3342 49.5553 15.2165 49.4849C15.0987 49.4146 14.9874 49.3492 14.8739 49.2803L14.7806 49.2228C14.6331 49.1324 14.4866 49.0402 14.341 48.9464L14.3353 48.9428C14.219 48.871 14.1026 48.792 13.9884 48.7145L13.9166 48.6657C13.8764 48.6398 13.8369 48.6132 13.7981 48.586C13.6497 48.485 13.5025 48.3821 13.3565 48.2772C13.2473 48.2002 13.1391 48.1217 13.0319 48.0417C12.9658 47.9929 12.8997 47.9441 12.8337 47.8931C12.7525 47.8328 12.6728 47.7725 12.5924 47.71C12.2869 47.475 11.9872 47.2323 11.6932 46.9819C11.6214 46.9187 11.5439 46.8548 11.4699 46.7902C11.4117 46.4154 11.3543 46.0507 11.2983 45.6967C11.2832 45.6048 11.2695 45.5143 11.2552 45.4239C11.1474 44.7475 11.0469 44.1149 10.9607 43.5391C10.9492 43.4673 10.9392 43.3955 10.9284 43.3237C10.9284 43.3043 10.9234 43.2849 10.9205 43.2655C10.9126 43.2066 10.904 43.1492 10.8954 43.0918C10.8875 43.0343 10.8796 42.979 10.8717 42.9238C10.825 42.5885 10.7848 42.2776 10.7539 41.9947L10.8975 41.8913C10.9356 41.864 10.9737 41.8374 11.0124 41.8101L11.1561 41.7132C11.2164 41.6716 11.2753 41.6313 11.3356 41.5919L11.4146 41.5402C11.4627 41.5086 11.5108 41.4762 11.5582 41.4454C11.62 41.4059 11.6803 41.3664 11.7428 41.3283C11.8053 41.2903 11.8656 41.2515 11.9274 41.2135L11.9862 41.1776L12.1119 41.1015H12.1169L12.2678 41.0124L12.3863 40.9406C12.5687 40.8351 12.7525 40.7338 12.9356 40.6347L13.2157 40.4868L13.2437 40.4725L13.3981 40.3942C13.5525 40.3174 13.7084 40.2413 13.8635 40.1688C13.9181 40.1422 13.9741 40.1163 14.0294 40.0905C14.0847 40.0646 14.1292 40.0438 14.1802 40.0187L14.331 39.9512C14.4373 39.9033 14.5436 39.8576 14.6498 39.8141L14.6743 39.8047L14.8093 39.7487L14.9163 39.7057L14.9472 39.6927L14.9744 39.6819L14.991 39.6762L15.2208 39.585C15.312 39.5498 15.4025 39.5132 15.4937 39.4816C15.5138 39.5491 15.5346 39.6159 15.5554 39.6819C15.5763 39.748 15.5956 39.8148 15.6165 39.8801C15.707 40.1731 15.7986 40.4603 15.8915 40.7417C15.9509 40.9222 16.0103 41.1003 16.0696 41.2759C16.1491 41.5105 16.2293 41.7407 16.3102 41.9667C16.331 42.0234 16.3511 42.0794 16.3712 42.1361C16.4119 42.2491 16.4526 42.3606 16.4933 42.4707C16.5742 42.6918 16.6561 42.9087 16.7389 43.1212C16.7806 43.2282 16.8215 43.3366 16.8632 43.4379C16.93 43.6059 16.996 43.7703 17.0628 43.9333C17.0973 44.0144 17.1303 44.0948 17.1634 44.1752L17.2388 44.3547C17.3142 44.5328 17.3903 44.7087 17.4664 44.8803C17.61 45.2058 17.7553 45.5208 17.9023 45.8252C18.2327 46.5107 18.5678 47.1445 18.9077 47.7265L19.0097 47.901C19.0772 48.0154 19.1452 48.1279 19.2137 48.2384C19.3161 48.4041 19.4188 48.5656 19.5217 48.7231C19.6007 48.843 19.6783 48.9608 19.7566 49.0749L19.7695 49.0929C19.8291 49.1812 19.8894 49.2674 19.9505 49.3521C19.9799 49.3945 20.0108 49.4368 20.041 49.4785C20.0711 49.5201 20.1013 49.5617 20.1314 49.6027L20.2227 49.724C20.2521 49.7642 20.283 49.8044 20.3131 49.8432C20.4644 50.0414 20.6162 50.23 20.7684 50.409C21.4053 51.1834 22.1493 51.863 22.9782 52.4273" fill="white"/>
<path d="M28.9179 52.8647C28.7168 52.8738 28.515 52.8802 28.3125 52.884C29.0339 52.4893 29.6689 51.9539 30.1797 51.3095C32.5086 48.4432 32.0382 42.6 31.4802 39.0811L31.5183 39.0868C32.7803 39.2833 34.0212 39.5974 35.2247 40.0252C35.2596 40.2038 35.2986 40.3919 35.3417 40.5896C36.0167 43.7759 37.2637 46.8136 39.0222 49.5554C39.1232 49.7081 39.2269 49.8605 39.3332 50.0127L39.3554 50.0436L39.3095 50.068C39.2427 50.1032 39.1759 50.1398 39.1084 50.1721L39.0646 50.1944C38.9133 50.2724 38.7613 50.348 38.6086 50.4213C38.3754 50.5342 38.1401 50.6436 37.9026 50.7494C37.5234 50.9184 37.1404 51.0775 36.7536 51.2269C36.61 51.2834 36.4637 51.3382 36.3148 51.3913C36.1013 51.4698 35.8858 51.5447 35.6685 51.616C35.5966 51.6397 35.5291 51.6627 35.4588 51.6879L35.3223 51.7317C35.2412 51.7582 35.1607 51.7826 35.0789 51.807L35.0193 51.8257C34.8167 51.8882 34.6121 51.9463 34.4074 52.0023C34.2666 52.0416 34.1252 52.0792 33.983 52.1151C33.5186 52.2338 33.0489 52.3396 32.574 52.4324C32.4174 52.4631 32.2604 52.492 32.1029 52.5193C31.4944 52.626 30.8784 52.7098 30.2551 52.7706C30.032 52.7926 29.8079 52.8118 29.5829 52.8281L29.4946 52.8338L29.4414 52.8374C29.3804 52.841 29.3193 52.8453 29.2576 52.8482L29.1951 52.8517H29.147L28.9208 52.8639" fill="white"/>
<path d="M20.3674 51.7637L20.2582 51.7293C20.1477 51.6948 20.0378 51.6575 19.9279 51.6216C19.8482 51.5957 19.7699 51.5691 19.6909 51.5411C19.6119 51.5131 19.5128 51.4794 19.4238 51.4478C19.2435 51.3832 19.0647 51.3172 18.8859 51.2482C18.8636 51.2403 18.8413 51.2317 18.8191 51.2224C18.5491 51.1185 18.2814 51.0101 18.0162 50.8971C17.9293 50.8598 17.8417 50.8253 17.7555 50.7844C17.631 50.7294 17.507 50.6736 17.3835 50.6171C17.3419 50.5977 17.3002 50.579 17.2593 50.5589C17.2183 50.5388 17.1989 50.5317 17.1695 50.5173C17.0484 50.4603 16.9287 50.4019 16.8104 50.3421L16.7824 50.3277C16.5907 50.2344 16.4018 50.1367 16.2144 50.0405L16.1785 50.0219H16.1741C16.1203 49.9931 16.0664 49.9644 16.0126 49.9343C15.8689 49.856 15.7188 49.7756 15.5731 49.693C15.4531 49.6255 15.3318 49.5566 15.214 49.4862C15.0962 49.4158 14.9849 49.3505 14.8714 49.2816L14.7781 49.2241C14.6306 49.1337 14.4841 49.0415 14.3386 48.9477L14.3328 48.9441C14.2165 48.8723 14.1001 48.7933 13.986 48.7158C13.8466 47.8965 13.6326 47.2719 13.1716 47.5174C13.122 47.5435 13.0758 47.5753 13.0337 47.6122C12.9456 47.6902 12.8759 47.7869 12.8297 47.8951C12.7486 47.8348 12.6689 47.7745 12.5885 47.712C12.283 47.477 11.9833 47.2343 11.6893 46.984C11.6175 46.9208 11.54 46.8569 11.466 46.7923C11.4078 46.4175 11.3504 46.0527 11.2944 45.6987C11.2793 45.6068 11.2656 45.5163 11.2513 45.4259C11.1435 44.7495 11.043 44.1169 10.9568 43.5411C10.9453 43.4693 10.9353 43.3975 10.9245 43.3257C10.9245 43.3063 10.9195 43.2869 10.9166 43.2676C10.9087 43.2087 10.9001 43.1512 10.8915 43.0938C10.8836 43.0364 10.8757 42.9811 10.8678 42.9258C10.8211 42.5905 10.7809 42.2796 10.75 41.9967L10.8936 41.8933C10.9317 41.866 10.9698 41.8394 11.0085 41.8121L11.1522 41.7152C11.2125 41.6736 11.2714 41.6334 11.3317 41.5939L11.4107 41.5422C11.4588 41.5106 11.5069 41.4783 11.5543 41.4474C11.6161 41.4079 11.6764 41.3684 11.7389 41.3304C11.8014 41.2923 11.8617 41.2535 11.9234 41.2155L11.9823 41.1796L12.1073 41.1035H12.1123L12.2631 41.0144L12.3816 40.9426C12.564 40.8371 12.7479 40.7359 12.931 40.6368L13.2111 40.4889L13.2391 40.4745L13.3935 40.3955C13.5998 40.2926 13.8067 40.1935 14.014 40.0983C13.863 40.2022 13.7377 40.3392 13.6477 40.4989C13.2391 41.2026 14.6179 40.8989 15.8876 40.7459C15.947 40.9264 16.0063 41.1044 16.0657 41.2801C16.1457 41.5147 16.2259 41.7449 16.3063 41.9708C16.3271 42.0268 16.3472 42.0836 16.3673 42.1403C16.4083 42.253 16.4492 42.3643 16.4894 42.4749C16.5708 42.6951 16.6527 42.9119 16.735 43.1254C16.7767 43.2324 16.8176 43.3408 16.8593 43.442C16.926 43.61 16.9921 43.7745 17.0589 43.9374C17.0934 44.0186 17.1264 44.099 17.1594 44.1794L17.2349 44.3589C17.3103 44.537 17.3871 44.7129 17.4632 44.8845C16.6891 44.8601 16.0083 44.8299 16.1153 45.2162C16.2374 45.6621 17.074 45.6829 17.8991 45.8294C18.3744 46.8292 18.9144 47.797 19.5157 48.7266C19.5947 48.8465 19.6722 48.9642 19.7505 49.0784L19.7634 49.0963C19.8238 49.1839 19.8834 49.2708 19.9444 49.3555C19.9739 49.3979 20.0047 49.4403 20.0349 49.4819C20.0651 49.5236 20.0952 49.5652 20.1254 49.6054L20.2166 49.7268C20.246 49.767 20.2769 49.8072 20.3071 49.846C20.4584 50.0441 20.6101 50.2327 20.7624 50.4117C20.8017 50.8977 20.6614 51.3813 20.3681 51.7709" fill="white"/>
<path d="M15.6064 39.8774C15.5655 39.7453 15.5239 39.6139 15.4829 39.4789C15.1191 39.6134 14.755 39.7601 14.3906 39.919C14.7909 39.8389 15.2016 39.8246 15.6064 39.8766" fill="white"/>
<path d="M8.73976 44.0233C8.69452 43.9701 8.64928 43.9156 8.60547 43.8617C8.86616 43.5745 9.01625 43.4051 9.0421 43.3756L9.04641 43.3713C9.04641 43.3713 9.32003 44.0175 9.70711 45.106C9.64104 45.0342 9.57569 44.9667 9.51033 44.8964C9.35809 44.7319 9.20799 44.5653 9.06078 44.3937C9.03636 44.3665 9.01194 44.3392 8.98896 44.3112C8.96598 44.2832 8.95018 44.2681 8.93151 44.2458L8.84964 44.1503L8.73832 44.0204" fill="#FDBEB8"/>
</svg>
