<svg width="56" height="56" viewBox="0 0 56 56" fill="none" xmlns="http://www.w3.org/2000/svg">
<circle cx="28" cy="28" r="28" fill="white"/>
<path d="M3.11328 27.9978C3.1128 29.3489 3.2219 30.6977 3.43937 32.0312C3.48724 32.3323 3.54161 32.6314 3.60241 32.9286C3.66943 33.2637 3.74305 33.5939 3.82348 33.9194C3.96327 34.4937 4.12314 35.0612 4.30314 35.6216C4.39888 35.9198 4.5002 36.2156 4.60695 36.509C4.63065 36.5736 4.65353 36.6382 4.67866 36.7021C4.79786 37.0223 4.9243 37.3399 5.05786 37.6548C5.14451 37.8616 5.23427 38.0669 5.32714 38.2708C5.39536 38.4216 5.46503 38.5702 5.53612 38.7195C5.59069 38.8354 5.64702 38.9507 5.70494 39.0656C5.81888 39.2963 5.93705 39.5251 6.0596 39.7519C6.09192 39.8144 6.12631 39.8769 6.16006 39.9386C6.35681 40.2985 6.5623 40.6527 6.77629 41.0012C6.90554 41.2113 7.03767 41.4192 7.17267 41.6251C7.37326 41.9304 7.58052 42.2315 7.79451 42.5282C7.86632 42.6309 7.94244 42.7321 8.01856 42.8341C8.10616 42.9518 8.19456 43.0688 8.28504 43.1851C8.37551 43.3015 8.46954 43.4228 8.56361 43.5398C8.93223 44.0012 9.31683 44.4485 9.71752 44.8816C9.78359 44.9534 9.84972 45.0252 9.9165 45.097C10.3067 45.5096 10.7107 45.9083 11.1286 46.2931C11.2493 46.4051 11.3714 46.515 11.4942 46.6241C11.5451 46.67 11.5967 46.7153 11.6477 46.7598C13.0283 47.964 14.5373 49.0128 16.1473 49.8871C16.9848 50.3416 17.8479 50.7472 18.7323 51.1019L18.9348 51.183L19.0979 51.2462C19.3573 51.3458 19.6187 51.4415 19.882 51.5334C20.0177 51.58 20.1535 51.626 20.2907 51.6698C20.3848 51.7007 20.4787 51.7315 20.5735 51.7602L20.7889 51.827C21.1293 51.9294 21.4726 52.0252 21.8187 52.1142C21.9745 52.1537 22.1303 52.1917 22.2868 52.2283C22.4197 52.2592 22.5526 52.2901 22.6862 52.3188C23.242 52.4399 23.8039 52.5421 24.3722 52.6254C24.5991 52.6584 24.8261 52.6885 25.0552 52.7158C25.1665 52.7295 25.2777 52.7417 25.389 52.7532C26.2352 52.8412 27.0854 52.8863 27.9361 52.8881H28.0029C28.721 52.8881 29.433 52.858 30.1391 52.7977C30.407 52.7754 30.6734 52.7481 30.9384 52.7165L30.9894 52.7108H31.0008C31.411 52.6629 31.8181 52.6038 32.2217 52.5335C32.6592 52.4588 33.0929 52.3724 33.5228 52.2743C34.0523 52.1551 34.575 52.0187 35.091 51.8651L35.1413 51.85C35.5324 51.7327 35.9195 51.6066 36.3024 51.4716C36.3843 51.4429 36.4655 51.4135 36.5466 51.3833C36.6278 51.3532 36.729 51.3166 36.8194 51.2828C36.8912 51.2548 36.9695 51.2254 37.0435 51.1959C37.1914 51.1378 37.3386 51.0796 37.4851 51.0186C38.2539 50.7024 39.0064 50.3476 39.7393 49.9553C40.4956 49.55 41.2304 49.106 41.9409 48.625C42.1606 48.4761 42.3779 48.3239 42.5929 48.1684C43.8383 47.2661 44.9979 46.251 46.0569 45.1358C46.179 45.008 46.2996 44.8788 46.4159 44.7481C46.4892 44.6672 46.561 44.5858 46.6314 44.504C46.7018 44.4222 46.7764 44.3367 46.8554 44.2477L46.9675 44.1163C47.0393 44.0338 47.111 43.9498 47.1792 43.8658L47.1857 43.8579C47.3317 43.6812 47.4754 43.5027 47.6166 43.3223C47.9556 42.8915 48.2799 42.4471 48.5896 41.9891C48.6679 41.8756 48.7439 41.7607 48.8186 41.6459C48.8213 41.6427 48.8237 41.6394 48.8258 41.6358C49.433 40.7111 49.9773 39.7467 50.4552 38.749C50.6591 38.3249 50.8506 37.8942 51.0297 37.4567C51.1144 37.2514 51.1963 37.0439 51.2753 36.8349C51.3471 36.6483 51.4189 36.4602 51.4821 36.2714C51.5346 36.1235 51.5848 35.9763 51.6343 35.827C51.7061 35.618 51.7692 35.4077 51.8331 35.1959C51.9207 34.9058 52.0031 34.6136 52.0801 34.3193C52.9299 31.071 53.1142 27.6845 52.6218 24.3632C52.1295 21.0419 50.9709 17.8544 49.2153 14.9922C47.4598 12.1299 45.1437 9.65197 42.4062 7.70723C39.6686 5.76249 36.5662 4.39107 33.2851 3.67537C32.5517 3.51647 31.8061 3.39107 31.0483 3.29917C30.7864 3.26662 30.5231 3.23838 30.2583 3.21445H30.2439C30.1908 3.20943 30.1377 3.20512 30.0839 3.20081C30.007 3.19363 29.9323 3.18717 29.8554 3.18215C29.2441 3.13668 28.6267 3.11274 28.0029 3.11035C26.5869 3.11028 25.1734 3.23037 23.7777 3.46932C23.1845 3.57031 22.5988 3.69236 22.0205 3.83547C16.6235 5.17375 11.8297 8.2797 8.40337 12.6583C4.97703 17.0369 3.11522 22.4362 3.11469 27.9956" fill="#9BA2FB"/>
<path d="M4.68109 36.7019C4.80029 37.0221 4.92673 37.3397 5.06029 37.6546C5.14694 37.8614 5.2367 38.0667 5.32958 38.2706C5.39779 38.4214 5.46746 38.57 5.53855 38.7193C5.5936 38.8351 5.64993 38.9505 5.70738 39.0654C5.82179 39.2961 5.93996 39.5249 6.06204 39.7517C6.09435 39.8142 6.1289 39.8766 6.16337 39.9384C6.35964 40.2983 6.56495 40.6525 6.77942 41.0009C6.90867 41.2111 7.0408 41.419 7.1758 41.6248C7.37591 41.9302 7.58295 42.2313 7.79694 42.528C7.86875 42.6307 7.94559 42.7319 8.02099 42.8338C8.1086 42.9516 8.19699 43.0686 8.28747 43.1849C8.37795 43.3012 8.47199 43.4226 8.56534 43.5396C8.93396 44.001 9.31856 44.4483 9.71925 44.8814C9.78532 44.9532 9.85145 45.025 9.91823 45.0968C10.3084 45.5094 10.7124 45.9081 11.1304 46.2929C11.251 46.4049 11.3729 46.5147 11.4957 46.6239C11.546 46.6698 11.5985 46.715 11.6495 46.7595C13.0301 47.9638 14.5391 49.0125 16.1491 49.8869C16.9866 50.3413 17.8496 50.7469 18.7341 51.1017L18.9365 51.1828L19.0996 51.246C19.3595 51.3455 19.6209 51.4412 19.8838 51.5331C20.0195 51.5798 20.1551 51.6258 20.2922 51.6696C20.3863 51.7004 20.4804 51.7313 20.5752 51.76L20.7907 51.8268C21.1315 51.9292 21.4748 52.0249 21.8204 52.114C21.9763 52.1535 22.132 52.1915 22.2885 52.2281C22.4214 52.259 22.5543 52.2899 22.6879 52.3186C23.2437 52.4397 23.8056 52.5419 24.3739 52.6251C24.6008 52.6582 24.8277 52.6883 25.0574 52.7156C25.1687 52.7292 25.2801 52.7414 25.3914 52.7529C26.2376 52.841 27.0878 52.8861 27.9385 52.8879H28.0053C28.7234 52.8879 29.4354 52.8577 30.1415 52.7974C30.4094 52.7752 30.6758 52.7479 30.9408 52.7163L30.9918 52.7106H31.0025C31.4128 52.6627 31.8196 52.6036 32.2232 52.5332C32.6608 52.4586 33.0945 52.3722 33.5244 52.2741C34.0543 52.1549 34.5772 52.0185 35.0927 51.8648L35.1431 51.8498C35.5342 51.7325 35.9212 51.6064 36.3042 51.4714C36.386 51.4427 36.4672 51.4132 36.5484 51.3831C36.6295 51.3529 36.7307 51.3163 36.8212 51.2826C36.8963 51.2543 36.971 51.2254 37.0452 51.1957C37.1931 51.1376 37.3403 51.0794 37.4868 51.0184C38.2556 50.7022 39.0081 50.3473 39.741 49.9551C41.0729 46.9553 41.7879 43.7183 41.8435 40.4366C41.9872 36.6667 41.4514 33.1854 40.441 31.606C38.253 28.1771 39.7559 16.1106 36.2761 13.0637C32.7963 10.0167 30.8905 8.21038 27.5909 9.34401C27.5909 9.34401 22.9571 7.40557 20.591 11.4052C18.2249 15.4049 19.3042 22.7264 18.041 27.0901C16.8856 31.0869 9.18351 31.0431 4.67969 36.7105" fill="#0A0909"/>
<path d="M35.6816 17.6483C35.6816 17.6483 35.1913 12.953 32.9336 10.9908C33.423 11.9768 33.8261 13.0032 34.1385 14.0586C34.4682 15.2905 34.6916 16.5484 34.8063 17.8185C34.8479 18.3576 35.6816 17.6483 35.6816 17.6483Z" fill="white"/>
<path d="M33.3429 20.3102C33.4815 21.8774 34.3482 23.0807 35.2817 22.9981C36.2152 22.9156 36.8616 21.578 36.723 20.0115C36.5844 18.445 35.7177 17.241 34.7842 17.3235C33.8507 17.4061 33.2043 18.7436 33.3429 20.3102Z" fill="white"/>
<path d="M8.5635 43.541C8.93212 44.0024 9.3169 44.4496 9.71759 44.8828C9.78366 44.9546 9.84962 45.0264 9.9164 45.0982C10.3066 45.5108 10.7106 45.9095 11.1285 46.2943C11.2492 46.4063 11.3713 46.5161 11.494 46.6252C11.5443 46.6712 11.5961 46.7164 11.6478 46.761C13.0284 47.9652 14.5372 49.014 16.1472 49.8883C16.9847 50.3428 17.848 50.7484 18.7324 51.103L18.9349 51.1842L19.0979 51.2474C19.3574 51.3469 19.6186 51.4426 19.8819 51.5345C20.0176 51.5812 20.1534 51.6272 20.2906 51.671C20.3847 51.7018 20.4795 51.7327 20.5735 51.7614L20.789 51.8282C21.1294 51.9306 21.4725 52.0263 21.8186 52.1153C21.9744 52.1548 22.1303 52.1929 22.2869 52.2295C22.42 52.2606 22.553 52.2908 22.6861 52.32C23.2419 52.4411 23.804 52.5432 24.3722 52.6265C24.5991 52.6603 24.826 52.6897 25.0551 52.717C25.1664 52.7306 25.2778 52.7428 25.3891 52.7543C26.2352 52.8424 27.0853 52.8875 27.936 52.8893H28.0028C28.7209 52.8893 29.4331 52.8591 30.1392 52.7988C30.407 52.7766 30.6735 52.7493 30.9384 52.7177L30.9893 52.712H31.0008C31.4111 52.6641 31.818 52.605 32.2216 52.5346C32.6591 52.4595 33.0928 52.3731 33.5227 52.2755C34.0522 52.1563 34.575 52.0199 35.0911 51.8662L35.1412 51.8512C35.5323 51.7339 35.9195 51.6078 36.3025 51.4728C36.3844 51.4441 36.4654 51.4146 36.5465 51.3845C36.6277 51.3543 36.729 51.3177 36.8195 51.2833C36.8913 51.2553 36.9696 51.2258 37.0436 51.1964C37.1915 51.1382 37.3387 51.0801 37.4852 51.0191C38.254 50.7029 39.0063 50.348 39.7392 49.9558C40.4955 49.5505 41.2303 49.1065 41.9408 48.6254C42.1605 48.4766 42.378 48.3244 42.5929 48.1688C43.8384 47.2666 44.998 46.2515 46.057 45.1363C46.179 45.0085 46.2997 44.8785 46.416 44.7486C46.4878 44.6674 46.5596 44.5863 46.6315 44.5045C46.7033 44.4226 46.7808 44.3336 46.8555 44.2482L46.9674 44.1168C47.0392 44.0342 47.1111 43.9502 47.1793 43.8662C45.5232 42.5392 43.7319 41.3902 41.8352 40.438C38.8399 38.9347 35.6215 37.9247 32.3041 37.4471C29.2715 37.011 26.1917 37.0173 23.1608 37.4657C19.0292 38.0894 15.0474 39.4673 11.4143 41.5307C10.3956 42.1028 9.43872 42.7784 8.55859 43.5467" fill="#4F56E0"/>
<path d="M24.2202 24.392L23.6021 34.0002L23.0002 36.7391C22.96 38.7745 28.8403 44.0808 32.0832 41.54C33.0325 40.7962 32.6577 38.0013 31.796 35.8776L28.6623 25.2111L24.2202 24.392Z" fill="#FDBEB8"/>
<path d="M30.4542 31.3136L29.0934 26.6829L25.3594 25.8932C25.3594 25.8932 26.3647 31.1722 30.4521 31.3158" fill="#E0A19B"/>
<path d="M23.7242 19.6243C22.2299 23.1286 24.5767 26.327 27.617 28.6237C31.1249 31.2736 34.7692 29.3021 35.6345 24.983C35.9605 23.3547 35.2753 20.7874 34.8847 18.6084C34.6692 17.398 34.4682 16.1789 34.2765 15.4825C33.6482 13.203 30.6861 12.0062 28.847 12.124C25.9029 12.3128 23.7242 19.6243 23.7242 19.6243Z" fill="#FDBEB8"/>
<path d="M28.2967 23.7988C29.9567 23.6328 31.6251 23.5655 33.2931 23.597C33.3307 23.5979 33.3678 23.6067 33.4018 23.6229C33.4358 23.639 33.4662 23.6621 33.4907 23.6907C33.5152 23.7192 33.5334 23.7526 33.5441 23.7887C33.5549 23.8248 33.5579 23.8627 33.5531 23.9C33.5011 24.5716 33.2405 25.2102 32.8076 25.7265C31.8232 26.6268 29.5764 27.1229 28.0842 24.1894C28.0642 24.1501 28.054 24.1065 28.0547 24.0625C28.0554 24.0185 28.067 23.9753 28.0882 23.9367C28.1095 23.8981 28.1399 23.8653 28.1767 23.8411C28.2136 23.817 28.2558 23.8022 28.2996 23.7981" fill="white"/>
<path d="M29.9556 22.1311C30.5907 22.2056 31.2344 22.1227 31.8299 21.8899C32.2931 21.7118 32.4812 22.4592 32.0238 22.6351C31.3644 22.8891 30.6536 22.9805 29.9514 22.9015C29.4631 22.8469 29.4637 22.0765 29.9556 22.1318" fill="#E0A19B"/>
<path d="M27.7082 18.5863C27.8005 18.5525 27.9021 18.5545 27.993 18.592C28.0838 18.6295 28.1571 18.6997 28.1986 18.7888C28.3201 19.023 28.3723 19.2869 28.3494 19.5498C28.341 19.6191 28.3171 19.6857 28.2794 19.7446C28.2418 19.8034 28.1914 19.853 28.132 19.8897C28.0725 19.9264 28.0055 19.9492 27.936 19.9565C27.8665 19.9638 27.7963 19.9553 27.7305 19.9317C27.3463 19.7946 27.1453 18.7026 27.7082 18.5856" fill="#0A0909"/>
<path d="M32.7864 18.1435C32.8786 18.1095 32.9802 18.1114 33.0711 18.1489C33.162 18.1865 33.2354 18.2568 33.2767 18.346C33.3981 18.5802 33.4504 18.8441 33.4275 19.107C33.4191 19.1763 33.3952 19.2429 33.3575 19.3017C33.3199 19.3606 33.2696 19.4102 33.2101 19.4469C33.1506 19.4836 33.0836 19.5064 33.0141 19.5137C32.9446 19.521 32.8744 19.5125 32.8086 19.4889C32.4245 19.3518 32.2234 18.2605 32.7864 18.1435Z" fill="#0A0909"/>
<path d="M23.8962 20.3424C23.7126 19.9628 23.5699 19.5647 23.4704 19.1549C23.2686 18.3781 22.7888 17.2696 21.7828 18.1354C20.3193 19.3954 21.6198 23.4762 23.6232 23.2939C25.1104 23.1582 24.3737 21.2937 23.8962 20.3424Z" fill="#FDBEB8"/>
<path d="M28.7645 16.0243C28.124 16.16 27.5133 16.4105 26.9621 16.7638C26.9367 16.7803 26.9147 16.8017 26.8978 16.8269C26.8808 16.852 26.8691 16.8804 26.8634 16.9101C26.8577 16.9399 26.858 16.9706 26.8645 17.0002C26.8709 17.0298 26.8832 17.0579 26.9008 17.0826C26.9183 17.1073 26.9408 17.1282 26.9667 17.1441C26.9925 17.1599 27.0213 17.1704 27.0514 17.1748C27.0814 17.1793 27.112 17.1776 27.1413 17.1699C27.1706 17.1621 27.198 17.1486 27.2219 17.13C27.7058 16.8212 28.2409 16.6007 28.8019 16.4788C29.0927 16.4142 29.0611 15.959 28.7659 16.0243" fill="#0A0909"/>
<path d="M33.2603 16.2931C32.9056 16.1279 32.5371 15.9951 32.1672 15.8623C31.885 15.7625 31.7078 16.1818 31.9914 16.2823C32.3612 16.4129 32.7303 16.5465 33.0843 16.713C33.355 16.8387 33.5303 16.418 33.2603 16.2931Z" fill="#0A0909"/>
<path d="M9.91406 45.0931C10.3042 45.5056 10.7083 45.9043 11.1262 46.2892C11.2468 46.4012 11.3689 46.511 11.4917 46.6201C11.542 46.6661 11.5943 46.7113 11.6453 46.7558C13.0261 47.9601 14.5353 49.0089 16.1456 49.8832C16.9831 50.3377 17.8463 50.7434 18.7308 51.0979L18.9332 51.179C16.6627 46.6811 13.5045 44.276 9.91406 45.0931Z" fill="#4F56E0"/>
<path d="M20.1746 21.3307C20.4712 22.8757 21.4579 23.9871 22.3792 23.8083C23.3005 23.6295 23.8067 22.236 23.5102 20.691C23.2136 19.146 22.2269 18.0346 21.3056 18.2134C20.3843 18.3922 19.8781 19.7857 20.1746 21.3307Z" fill="white"/>
<path d="M34.8041 14.8523C34.8041 14.8523 34.0221 12.16 32.9314 10.9919C31.8406 9.82383 29.4845 9.0305 26.7055 9.55172C23.9265 10.0729 20.5897 14.7389 20.6938 18.8196H21.946C21.946 18.8196 22.3769 13.5787 26.0391 11.2209C29.4859 8.99532 33.7578 11.8972 34.8055 14.8523" fill="white"/>
</svg>
