<svg width="56" height="56" viewBox="0 0 56 56" fill="none" xmlns="http://www.w3.org/2000/svg">
<circle cx="28" cy="28" r="28" fill="white"/>
<path d="M3.11086 27.996C3.1106 29.5474 3.25481 31.0954 3.54164 32.62C3.67805 33.3453 3.84555 34.0589 4.04419 34.7608C4.20358 35.3276 4.38286 35.8856 4.58198 36.4347C4.66861 36.6775 4.75956 36.9183 4.85481 37.1572C5.01038 37.5526 5.17796 37.9431 5.35745 38.3285C5.47999 38.5961 5.60708 38.8613 5.73871 39.1241C5.81098 39.2678 5.88446 39.4114 5.95913 39.555C5.97924 39.5945 6.00001 39.634 6.02083 39.6721C6.05027 39.7288 6.08113 39.7848 6.11128 39.8416C6.23382 40.0671 6.3597 40.2909 6.48894 40.513C6.65121 40.7936 6.81879 41.0703 6.99158 41.3432C7.17634 41.6338 7.36775 41.921 7.56592 42.2049C7.62048 42.2861 7.67796 42.3665 7.73612 42.4477L7.76478 42.4886C7.92561 42.7136 8.09004 42.935 8.25804 43.1529C8.44951 43.3999 8.64363 43.6433 8.84035 43.8832C8.93608 43.9976 9.03183 44.1108 9.12756 44.2229C9.19075 44.2971 9.25462 44.3706 9.31924 44.4433C9.39678 44.5317 9.47508 44.6186 9.55334 44.7055C9.82187 45.0023 10.0978 45.2924 10.3811 45.5758C10.5214 45.7166 10.665 45.8561 10.8119 45.9945C11.3298 46.491 11.8691 46.964 12.4296 47.4135C12.566 47.5234 12.7038 47.629 12.8431 47.7396L13.0039 47.8624C13.108 47.9414 13.2114 48.0189 13.317 48.095C14.1597 48.7137 15.0405 49.2788 15.9541 49.7869C16.4093 50.0392 16.8736 50.2786 17.347 50.5051C17.5308 50.5927 17.7153 50.6774 17.902 50.76C18.1054 50.8495 18.3096 50.9369 18.5145 51.0221C18.6466 51.076 18.7794 51.1306 18.913 51.1816C19.9862 51.6036 21.0879 51.9492 22.2099 52.2157C22.393 52.2602 22.5775 52.3018 22.7627 52.3413L22.846 52.3593C23.1658 52.4258 23.4877 52.4869 23.8118 52.5424C24.535 52.665 25.2678 52.7557 26.0102 52.8146L26.0741 52.8196C26.2091 52.8297 26.3448 52.8397 26.4797 52.8476L26.5515 52.8512H26.6018H26.6478C26.7461 52.8562 26.8452 52.8613 26.9443 52.8656C27.0433 52.8699 27.1597 52.8735 27.2631 52.8771C27.5063 52.8842 27.7508 52.8878 27.9969 52.8878C28.1855 52.8878 28.3734 52.8857 28.5605 52.8814C29.2392 52.8665 29.9113 52.8244 30.5766 52.755C31.1476 52.6966 31.7124 52.6188 32.271 52.5216C32.4541 52.4907 32.6357 52.457 32.8174 52.4203L32.854 52.4139C33.1451 52.3569 33.4334 52.2944 33.7192 52.2264C34.4372 52.0579 35.141 51.8588 35.8308 51.629C36.2372 51.4939 36.6385 51.3491 37.0348 51.1945L37.0944 51.1715C37.2165 51.1234 37.3385 51.0746 37.4598 51.0279C37.5252 51.0013 37.5898 50.9747 37.6544 50.946C37.775 50.8965 37.8935 50.8455 38.0134 50.7923C38.2163 50.7028 38.4181 50.6106 38.6187 50.5159C39.5194 50.0908 40.3934 49.6111 41.2357 49.0796L41.2422 49.076C42.5104 48.2768 43.7042 47.3652 44.8092 46.3521C45.0188 46.1606 45.2248 45.9651 45.4273 45.7654L45.4739 45.7195C45.5967 45.6002 45.7166 45.4789 45.8329 45.3561L45.912 45.2735C46.0886 45.0911 46.2623 44.9053 46.4332 44.7162L46.5617 44.5726C46.7685 44.3414 46.9712 44.1063 47.1699 43.8674C47.3135 43.6917 47.457 43.5136 47.6006 43.3331C47.8763 42.9817 48.1425 42.6226 48.3991 42.2559C48.4666 42.1602 48.5333 42.0644 48.5993 41.9687C48.641 41.9069 48.6834 41.8444 48.7243 41.7827C48.7897 41.6857 48.8535 41.5873 48.9174 41.4889C48.9813 41.3906 49.0474 41.2879 49.1106 41.1866C49.1122 41.1835 49.114 41.1806 49.1163 41.178C49.1651 41.099 49.2132 41.0207 49.2599 40.9417C49.3863 40.7342 49.5098 40.5245 49.6297 40.3134C49.7254 40.1477 49.8178 39.9802 49.9068 39.8107L49.9212 39.7841C50.0882 39.4748 50.2485 39.1612 50.4022 38.8434C50.4845 38.6734 50.565 38.5027 50.6435 38.3313C50.9144 37.7401 51.1616 37.1366 51.3851 36.5209C51.4363 36.3821 51.4859 36.2423 51.5338 36.1015C52.7098 32.682 53.1268 29.0472 52.7558 25.4501C52.3848 21.853 51.2348 18.3799 49.3857 15.2724C47.5366 12.165 45.0328 9.49777 42.0485 7.45635C39.0643 5.41494 35.6712 4.04834 32.1053 3.45162C28.5394 2.85489 24.8863 3.04238 21.4002 4.00104C17.9141 4.9597 14.6787 6.6665 11.919 9.00272C9.15935 11.3389 6.94168 14.2485 5.42029 17.5289C3.89891 20.8094 3.11028 24.3819 3.10938 27.9981" fill="#FF9C6F"/>
<path d="M37.6567 50.9435C37.7774 50.8939 37.8958 50.843 38.0157 50.7898C38.2187 50.7003 38.4204 50.6081 38.621 50.5133C39.5217 50.0882 40.3956 49.6086 41.238 49.0771L41.2445 49.0735C42.5127 48.2743 43.7065 47.3627 44.8114 46.3496C45.0211 46.1581 45.2271 45.9625 45.4296 45.7629L45.4763 45.7169C45.5991 45.5977 45.719 45.4764 45.8353 45.3536L45.9149 45.271C46.0916 45.0886 46.2653 44.9028 46.4362 44.7137L46.5647 44.5701C46.7715 44.3389 46.9742 44.1038 47.1728 43.8649C47.3164 43.6892 47.4601 43.5111 47.6037 43.3306C47.8794 42.9787 48.1455 42.6197 48.402 42.2534C48.4695 42.1577 48.5363 42.0619 48.6024 41.9662C44.2837 40.0947 40.9472 39.8929 39.5737 42.4107C38.1857 45.0339 37.5241 47.9807 37.6574 50.9457" fill="#CE4949"/>
<path d="M6.48438 40.5136C6.64664 40.7944 6.81614 41.0709 6.98702 41.3438C7.17178 41.6344 7.36319 41.9216 7.56135 42.2055C7.61592 42.2866 7.6734 42.3671 7.73155 42.4482L7.76021 42.4892C7.92104 42.7142 8.08547 42.9356 8.25348 43.1534C8.44494 43.4005 8.63906 43.6437 8.83579 43.8831C8.93152 43.9975 9.02727 44.1107 9.123 44.2227C9.18618 44.2969 9.25006 44.3704 9.31467 44.4432C9.39222 44.5315 9.47051 44.6184 9.54877 44.7053C9.8173 45.0022 10.0932 45.2923 10.3766 45.5757C10.5168 45.7164 10.6604 45.856 10.8073 45.9944C11.3253 46.4908 11.8645 46.9638 12.425 47.4134C12.5614 47.5233 12.6992 47.6288 12.8385 47.7387L12.9993 47.8615C13.1034 47.9405 13.2069 48.0181 13.3124 48.0942C14.1579 48.7134 15.0416 49.2787 15.9582 49.7868C16.4139 50.0391 16.8781 50.2785 17.3511 50.5049C17.5349 50.5926 17.7201 50.6773 17.9061 50.7599C18.1091 50.8494 18.3131 50.9368 18.5185 51.022C18.6506 51.0759 18.7834 51.1304 18.917 51.1814C19.9902 51.6034 21.092 51.949 22.214 52.2155C22.3971 52.26 22.5823 52.3017 22.7668 52.3412L22.8501 52.3592C23.1699 52.4257 23.4917 52.4867 23.8158 52.5423C24.539 52.6648 25.2719 52.7556 26.0143 52.8145L26.0782 52.8195C26.2131 52.8295 26.3488 52.8396 26.4838 52.8475L26.5556 52.8511H26.6059H26.6518C26.7509 52.8561 26.8493 52.8611 26.9484 52.8654C27.0475 52.8697 27.1637 52.8733 27.2671 52.8762C27.5103 52.8839 27.7546 52.8877 28.0002 52.8877C28.1888 52.8877 28.3767 52.8855 28.5638 52.8812C29.2426 52.8664 29.9146 52.8243 30.5799 52.7548C31.151 52.6964 31.7158 52.6186 32.2743 52.5214C32.4574 52.4906 32.6391 52.4568 32.8207 52.4209L32.8574 52.4144C33.1479 52.3575 33.4363 52.295 33.7225 52.227C34.4405 52.0585 35.1444 51.8593 35.8341 51.6295C36.2405 51.4945 36.6418 51.3497 37.0382 51.1951L37.0978 51.1721C37.2203 51.1242 37.3421 51.0763 37.4632 51.0285C37.5285 51.0019 37.5931 50.9753 37.6577 50.9466C37.7776 50.897 37.8968 50.8461 38.0167 50.7929C38.2197 50.7034 38.4214 50.6112 38.622 50.5164C39.5227 50.0913 40.3967 49.6117 41.2391 49.0802L41.2455 49.0766C42.5137 48.2774 43.7075 47.3657 44.8125 46.3527C45.0221 46.1612 45.2282 45.9656 45.4306 45.766L45.4774 45.72C45.5994 45.6008 45.72 45.4795 45.8363 45.3567L45.9153 45.2741C46.0919 45.0917 46.2657 44.9059 46.4365 44.7168L46.565 44.5732C46.7718 44.3419 46.9745 44.1069 47.1732 43.868C47.3168 43.6923 47.4604 43.5142 47.604 43.3337C47.8801 42.9818 48.1463 42.6227 48.4024 42.2565C48.4699 42.1607 48.5366 42.065 48.6027 41.9692C48.6443 41.9075 48.6867 41.8457 48.7269 41.7833C48.357 41.4592 47.961 41.1662 47.543 40.9071C44.6588 39.1161 38.9609 37.5154 30.9482 37.2676C27.1753 37.1651 23.3998 37.3295 19.6501 37.7595C17.4423 38.0051 15.1268 38.342 12.7158 38.785C10.5899 39.1699 8.50411 39.7505 6.48508 40.5193" fill="#EB733D"/>
<path d="M22.2359 10.081C23.0476 8.9365 24.101 7.98458 25.3216 7.2927C26.5421 6.60083 27.8999 6.18593 29.2986 6.07742C32.9087 5.79017 36.2904 11.1115 34.9786 12.4731C33.6668 13.8347 33.3991 13.7169 33.407 14.1693C33.4149 14.6217 34.2563 15.6551 34.0948 16.7833C33.9333 17.9115 32.5741 19.5417 32.0536 19.4045C31.533 19.2673 22.4154 26.2145 21.7383 26.1176C21.0613 26.0206 20.3792 22.5628 20.059 21.77C19.7388 20.9772 17.4548 16.7783 18.5626 14.9176C19.8507 12.7553 21.1115 13.3751 21.1115 13.3751C21.3647 12.2391 21.7415 11.1342 22.2352 10.0803" fill="#0A0909"/>
<path d="M22.6567 22.2606L19.6412 37.533C19.5873 39.2501 23.4974 46.6978 30.5135 44.068C31.4656 43.7089 31.6143 38.9477 30.9071 37.1474L28.0883 25.7291L22.6567 22.2606Z" fill="#FDBEB8"/>
<path d="M28.8924 29.0027L24.3555 28.6221C24.3555 28.6221 24.6283 33.6957 29.9851 33.4336L28.8924 29.0027Z" fill="#E0A19B"/>
<path d="M24.5324 16.9997L22.456 24.6219C22.2215 25.8552 22.4773 27.1313 23.169 28.1787C23.8608 29.2262 24.934 29.9623 26.1601 30.2305C28.1977 30.6722 29.5002 30.6097 32.0569 30.168C34.1864 29.8004 35.1822 27.6883 35.04 24.879C34.83 21.885 34.1086 18.9492 32.907 16.199C31.2111 12.2493 26.2491 12.1315 24.5324 17.0004" fill="#FDBEB8"/>
<path d="M23.9121 24.729L22.8789 17.0378C23.0886 16.4425 24.7535 14.8597 25.2963 15.435C25.2604 16.943 25.249 20.887 25.7272 21.3761C26.2757 21.9376 27.1746 20.4324 29.6876 20.227C31.2872 20.0978 33.7592 19.4335 34.7544 20.5538C35.4666 21.356 34.9238 23.3229 36.2621 25.5391C37.716 27.947 35.3223 30.1739 32.6542 30.7477C30.5948 31.2432 28.4471 31.2432 26.3877 30.7477C23.8374 30.1947 23.4288 27.2949 23.9128 24.7304" fill="#0A0909"/>
<path d="M34.1642 21.0253C34.1642 21.0253 32.5624 21.0634 29.1562 21.4454C29.6003 22.3945 30.3369 23.1763 31.2578 23.6759C32.6069 24.2504 33.6042 23.6149 34.1642 21.0246" fill="white"/>
<path d="M22.8565 18.796C22.555 18.0219 21.9281 16.9411 20.9997 17.9537C19.6492 19.4258 21.088 23.196 23.1235 22.7651C24.6313 22.4456 23.0152 19.2011 22.8565 18.7939" fill="#FDBEB8"/>
<path d="M31.1365 19.4508C31.6177 19.2978 32.0539 19.0288 32.4066 18.6674C32.6816 18.3887 33.0607 18.8649 32.7886 19.1406C32.3968 19.5378 31.9151 19.8346 31.3842 20.006C31.0152 20.1259 30.7646 19.5708 31.1365 19.4508Z" fill="#E0A19B"/>
<path d="M28.3738 16.7787C28.4411 16.7467 28.5177 16.7407 28.5891 16.7617C28.6605 16.7828 28.7218 16.8295 28.7609 16.8929C28.8773 17.0565 28.9463 17.2491 28.9604 17.4494C28.9624 17.5011 28.9524 17.5526 28.9309 17.5997C28.9095 17.6468 28.8773 17.6882 28.837 17.7205C28.7966 17.7529 28.7491 17.7753 28.6985 17.786C28.6479 17.7966 28.5955 17.7952 28.5455 17.7819C28.2453 17.7101 27.971 16.9094 28.3746 16.7765" fill="#0A0909"/>
<path d="M32.124 16.3482C32.1912 16.3161 32.268 16.31 32.3395 16.3311C32.4109 16.3521 32.472 16.3989 32.511 16.4624C32.6274 16.626 32.6965 16.8186 32.7106 17.019C32.7127 17.0707 32.7026 17.1221 32.6812 17.1692C32.6597 17.2163 32.6274 17.2577 32.5871 17.2901C32.5467 17.3224 32.4993 17.3448 32.4487 17.3555C32.398 17.3662 32.3456 17.3648 32.2956 17.3515C31.9948 17.2796 31.7212 16.4789 32.1247 16.3461" fill="#0A0909"/>
<path d="M31.3636 15.2453C31.7847 15.302 32.1957 15.4181 32.5842 15.59C32.9432 15.7444 33.2591 14.9437 32.8994 14.7879C32.4594 14.5983 31.9948 14.4718 31.5194 14.4123C31.126 14.3627 30.9731 15.1958 31.3651 15.2453" fill="#0A0909"/>
<path d="M28.3897 14.8417C27.9287 15.0988 27.4562 15.3293 27.0031 15.6058C26.9545 15.6348 26.9121 15.6731 26.8783 15.7185C26.8445 15.7639 26.82 15.8155 26.8061 15.8704C26.7922 15.9253 26.7893 15.9824 26.7975 16.0384C26.8057 16.0944 26.8248 16.1482 26.8538 16.1968C26.8828 16.2455 26.9211 16.2879 26.9665 16.3217C27.0119 16.3555 27.0636 16.3801 27.1185 16.3939C27.1733 16.4078 27.2304 16.4107 27.2864 16.4025C27.3424 16.3944 27.3961 16.3752 27.4447 16.3462C27.8948 16.0697 28.3703 15.8392 28.8312 15.5821C29.3173 15.3114 28.8736 14.5717 28.3897 14.8417Z" fill="#0A0909"/>
</svg>
