<svg width="500" height="300" viewBox="0 0 500 300" fill="none" xmlns="http://www.w3.org/2000/svg">
<rect width="500" height="300" fill="#F5F6FB"/>
<path d="M32 42C32 36.4772 36.4772 32 42 32H458C463.523 32 468 36.4772 468 42V258C468 263.523 463.523 268 458 268H42C36.4772 268 32 263.523 32 258V42Z" fill="white"/>
<path d="M64 134C64 129.582 67.5817 126 72 126H230C234.418 126 238 129.582 238 134V166C238 170.418 234.418 174 230 174H72C67.5817 174 64 170.418 64 166V134Z" fill="#01A56D"/>
<path fill-rule="evenodd" clip-rule="evenodd" d="M105.385 154.675C105.14 154.92 104.82 155.04 104.5 155.04C104.18 155.04 103.86 154.92 103.615 154.675L98.97 150.03L100.03 148.97L103.75 152.69V141H105.25V152.69L108.97 148.97L110.03 150.03L105.385 154.675ZM112 156.25V153.5H113.5V156.25C113.5 157.765 112.265 159 110.75 159H98.25C96.735 159 95.5 157.765 95.5 156.25V153.5H97V156.25C97 156.94 97.56 157.5 98.25 157.5H110.75C111.44 157.5 112 156.94 112 156.25Z" fill="white"/>
<path d="M125.868 144.148H131.196C132.18 144.148 133.032 144.316 133.752 144.652C134.472 144.988 135.06 145.45 135.516 146.038C135.972 146.614 136.308 147.292 136.524 148.072C136.752 148.852 136.866 149.686 136.866 150.574C136.866 151.462 136.752 152.296 136.524 153.076C136.308 153.856 135.972 154.54 135.516 155.128C135.06 155.704 134.472 156.16 133.752 156.496C133.032 156.832 132.18 157 131.196 157H125.868V144.148ZM128.118 155.164H130.332C131.208 155.164 131.922 155.05 132.474 154.822C133.038 154.582 133.476 154.258 133.788 153.85C134.112 153.43 134.328 152.944 134.436 152.392C134.556 151.828 134.616 151.222 134.616 150.574C134.616 149.926 134.556 149.326 134.436 148.774C134.328 148.21 134.112 147.724 133.788 147.316C133.476 146.896 133.038 146.572 132.474 146.344C131.922 146.104 131.208 145.984 130.332 145.984H128.118V155.164ZM142.836 157.252C142.092 157.252 141.426 157.132 140.838 156.892C140.262 156.64 139.77 156.298 139.362 155.866C138.966 155.434 138.66 154.918 138.444 154.318C138.24 153.718 138.138 153.058 138.138 152.338C138.138 151.63 138.24 150.976 138.444 150.376C138.66 149.776 138.966 149.26 139.362 148.828C139.77 148.396 140.262 148.06 140.838 147.82C141.426 147.568 142.092 147.442 142.836 147.442C143.58 147.442 144.24 147.568 144.816 147.82C145.404 148.06 145.896 148.396 146.292 148.828C146.7 149.26 147.006 149.776 147.21 150.376C147.426 150.976 147.534 151.63 147.534 152.338C147.534 153.058 147.426 153.718 147.21 154.318C147.006 154.918 146.7 155.434 146.292 155.866C145.896 156.298 145.404 156.64 144.816 156.892C144.24 157.132 143.58 157.252 142.836 157.252ZM142.836 155.632C143.292 155.632 143.688 155.536 144.024 155.344C144.36 155.152 144.636 154.9 144.852 154.588C145.068 154.276 145.224 153.928 145.32 153.544C145.428 153.148 145.482 152.746 145.482 152.338C145.482 151.942 145.428 151.546 145.32 151.15C145.224 150.754 145.068 150.406 144.852 150.106C144.636 149.794 144.36 149.542 144.024 149.35C143.688 149.158 143.292 149.062 142.836 149.062C142.38 149.062 141.984 149.158 141.648 149.35C141.312 149.542 141.036 149.794 140.82 150.106C140.604 150.406 140.442 150.754 140.334 151.15C140.238 151.546 140.19 151.942 140.19 152.338C140.19 152.746 140.238 153.148 140.334 153.544C140.442 153.928 140.604 154.276 140.82 154.588C141.036 154.9 141.312 155.152 141.648 155.344C141.984 155.536 142.38 155.632 142.836 155.632ZM148.394 147.694H150.572L152.39 154.642H152.426L154.172 147.694H156.242L157.916 154.642H157.952L159.842 147.694H161.93L159.014 157H156.908L155.18 150.088H155.144L153.434 157H151.274L148.394 147.694ZM163.25 147.694H165.194V149.062L165.23 149.098C165.542 148.582 165.95 148.18 166.454 147.892C166.958 147.592 167.516 147.442 168.128 147.442C169.148 147.442 169.952 147.706 170.54 148.234C171.128 148.762 171.422 149.554 171.422 150.61V157H169.37V151.15C169.346 150.418 169.19 149.89 168.902 149.566C168.614 149.23 168.164 149.062 167.552 149.062C167.204 149.062 166.892 149.128 166.616 149.26C166.34 149.38 166.106 149.554 165.914 149.782C165.722 149.998 165.572 150.256 165.464 150.556C165.356 150.856 165.302 151.174 165.302 151.51V157H163.25V147.694ZM173.64 144.148H175.692V157H173.64V144.148ZM182.194 157.252C181.45 157.252 180.784 157.132 180.196 156.892C179.62 156.64 179.128 156.298 178.72 155.866C178.324 155.434 178.018 154.918 177.802 154.318C177.598 153.718 177.496 153.058 177.496 152.338C177.496 151.63 177.598 150.976 177.802 150.376C178.018 149.776 178.324 149.26 178.72 148.828C179.128 148.396 179.62 148.06 180.196 147.82C180.784 147.568 181.45 147.442 182.194 147.442C182.938 147.442 183.598 147.568 184.174 147.82C184.762 148.06 185.254 148.396 185.65 148.828C186.058 149.26 186.364 149.776 186.568 150.376C186.784 150.976 186.892 151.63 186.892 152.338C186.892 153.058 186.784 153.718 186.568 154.318C186.364 154.918 186.058 155.434 185.65 155.866C185.254 156.298 184.762 156.64 184.174 156.892C183.598 157.132 182.938 157.252 182.194 157.252ZM182.194 155.632C182.65 155.632 183.046 155.536 183.382 155.344C183.718 155.152 183.994 154.9 184.21 154.588C184.426 154.276 184.582 153.928 184.678 153.544C184.786 153.148 184.84 152.746 184.84 152.338C184.84 151.942 184.786 151.546 184.678 151.15C184.582 150.754 184.426 150.406 184.21 150.106C183.994 149.794 183.718 149.542 183.382 149.35C183.046 149.158 182.65 149.062 182.194 149.062C181.738 149.062 181.342 149.158 181.006 149.35C180.67 149.542 180.394 149.794 180.178 150.106C179.962 150.406 179.8 150.754 179.692 151.15C179.596 151.546 179.548 151.942 179.548 152.338C179.548 152.746 179.596 153.148 179.692 153.544C179.8 153.928 179.962 154.276 180.178 154.588C180.394 154.9 180.67 155.152 181.006 155.344C181.342 155.536 181.738 155.632 182.194 155.632ZM196.392 154.93C196.392 155.182 196.422 155.362 196.482 155.47C196.554 155.578 196.686 155.632 196.878 155.632C196.938 155.632 197.01 155.632 197.094 155.632C197.178 155.632 197.274 155.62 197.382 155.596V157.018C197.31 157.042 197.214 157.066 197.094 157.09C196.986 157.126 196.872 157.156 196.752 157.18C196.632 157.204 196.512 157.222 196.392 157.234C196.272 157.246 196.17 157.252 196.086 157.252C195.666 157.252 195.318 157.168 195.042 157C194.766 156.832 194.586 156.538 194.502 156.118C194.094 156.514 193.59 156.802 192.99 156.982C192.402 157.162 191.832 157.252 191.28 157.252C190.86 157.252 190.458 157.192 190.074 157.072C189.69 156.964 189.348 156.802 189.048 156.586C188.76 156.358 188.526 156.076 188.346 155.74C188.178 155.392 188.094 154.99 188.094 154.534C188.094 153.958 188.196 153.49 188.4 153.13C188.616 152.77 188.892 152.488 189.228 152.284C189.576 152.08 189.96 151.936 190.38 151.852C190.812 151.756 191.244 151.684 191.676 151.636C192.048 151.564 192.402 151.516 192.738 151.492C193.074 151.456 193.368 151.402 193.62 151.33C193.884 151.258 194.088 151.15 194.232 151.006C194.388 150.85 194.466 150.622 194.466 150.322C194.466 150.058 194.4 149.842 194.268 149.674C194.148 149.506 193.992 149.38 193.8 149.296C193.62 149.2 193.416 149.14 193.188 149.116C192.96 149.08 192.744 149.062 192.54 149.062C191.964 149.062 191.49 149.182 191.118 149.422C190.746 149.662 190.536 150.034 190.488 150.538H188.436C188.472 149.938 188.616 149.44 188.868 149.044C189.12 148.648 189.438 148.33 189.822 148.09C190.218 147.85 190.662 147.682 191.154 147.586C191.646 147.49 192.15 147.442 192.666 147.442C193.122 147.442 193.572 147.49 194.016 147.586C194.46 147.682 194.856 147.838 195.204 148.054C195.564 148.27 195.852 148.552 196.068 148.9C196.284 149.236 196.392 149.65 196.392 150.142V154.93ZM194.34 152.338C194.028 152.542 193.644 152.668 193.188 152.716C192.732 152.752 192.276 152.812 191.82 152.896C191.604 152.932 191.394 152.986 191.19 153.058C190.986 153.118 190.806 153.208 190.65 153.328C190.494 153.436 190.368 153.586 190.272 153.778C190.188 153.958 190.146 154.18 190.146 154.444C190.146 154.672 190.212 154.864 190.344 155.02C190.476 155.176 190.632 155.302 190.812 155.398C191.004 155.482 191.208 155.542 191.424 155.578C191.652 155.614 191.856 155.632 192.036 155.632C192.264 155.632 192.51 155.602 192.774 155.542C193.038 155.482 193.284 155.38 193.512 155.236C193.752 155.092 193.95 154.912 194.106 154.696C194.262 154.468 194.34 154.192 194.34 153.868V152.338ZM207.366 157H205.422V155.74H205.386C205.11 156.28 204.708 156.67 204.18 156.91C203.652 157.138 203.094 157.252 202.506 157.252C201.774 157.252 201.132 157.126 200.58 156.874C200.04 156.61 199.59 156.256 199.23 155.812C198.87 155.368 198.6 154.846 198.42 154.246C198.24 153.634 198.15 152.98 198.15 152.284C198.15 151.444 198.264 150.718 198.492 150.106C198.72 149.494 199.02 148.99 199.392 148.594C199.776 148.198 200.208 147.91 200.688 147.73C201.18 147.538 201.678 147.442 202.182 147.442C202.47 147.442 202.764 147.472 203.064 147.532C203.364 147.58 203.652 147.664 203.928 147.784C204.204 147.904 204.456 148.06 204.684 148.252C204.924 148.432 205.122 148.648 205.278 148.9H205.314V144.148H207.366V157ZM200.202 152.446C200.202 152.842 200.25 153.232 200.346 153.616C200.454 154 200.61 154.342 200.814 154.642C201.03 154.942 201.3 155.182 201.624 155.362C201.948 155.542 202.332 155.632 202.776 155.632C203.232 155.632 203.622 155.536 203.946 155.344C204.282 155.152 204.552 154.9 204.756 154.588C204.972 154.276 205.128 153.928 205.224 153.544C205.332 153.148 205.386 152.746 205.386 152.338C205.386 151.306 205.152 150.502 204.684 149.926C204.228 149.35 203.604 149.062 202.812 149.062C202.332 149.062 201.924 149.164 201.588 149.368C201.264 149.56 200.994 149.818 200.778 150.142C200.574 150.454 200.424 150.814 200.328 151.222C200.244 151.618 200.202 152.026 200.202 152.446Z" fill="white"/>
<path d="M270 126.5H428C432.142 126.5 435.5 129.858 435.5 134V166C435.5 170.142 432.142 173.5 428 173.5H270C265.858 173.5 262.5 170.142 262.5 166V134C262.5 129.858 265.858 126.5 270 126.5Z" fill="white"/>
<path d="M270 126.5H428C432.142 126.5 435.5 129.858 435.5 134V166C435.5 170.142 432.142 173.5 428 173.5H270C265.858 173.5 262.5 170.142 262.5 166V134C262.5 129.858 265.858 126.5 270 126.5Z" stroke="#79809A"/>
<path d="M325.25 153.5C324.33 153.5 323.5 153.885 322.905 154.505L316.855 150.955C316.95 150.655 317 150.33 317 150C317 149.67 316.95 149.35 316.855 149.05L322.905 145.5C323.495 146.115 324.325 146.505 325.25 146.505C327.04 146.505 328.5 145.045 328.5 143.255C328.5 141.465 327.04 140.005 325.25 140.005C323.46 140.005 322 141.465 322 143.255C322 143.585 322.05 143.91 322.145 144.21L316.095 147.76C315.505 147.14 314.67 146.755 313.75 146.755C311.96 146.755 310.5 148.215 310.5 150.005C310.5 151.795 311.96 153.255 313.75 153.255C314.67 153.255 315.5 152.87 316.095 152.25L322.145 155.8C322.05 156.1 322 156.42 322 156.75C322 158.54 323.46 160 325.25 160C327.04 160 328.5 158.54 328.5 156.75C328.5 154.96 327.04 153.5 325.25 153.5ZM325.25 141.5C326.215 141.5 327 142.285 327 143.25C327 144.215 326.215 145 325.25 145C324.285 145 323.5 144.215 323.5 143.25C323.5 142.285 324.285 141.5 325.25 141.5ZM313.75 151.75C312.785 151.75 312 150.965 312 150C312 149.035 312.785 148.25 313.75 148.25C314.715 148.25 315.5 149.035 315.5 150C315.5 150.965 314.715 151.75 313.75 151.75ZM325.25 158.5C324.285 158.5 323.5 157.715 323.5 156.75C323.5 155.785 324.285 155 325.25 155C326.215 155 327 155.785 327 156.75C327 157.715 326.215 158.5 325.25 158.5Z" fill="#3F3E3E"/>
<path d="M343.344 152.716C343.344 153.208 343.428 153.628 343.596 153.976C343.764 154.324 343.998 154.612 344.298 154.84C344.598 155.056 344.94 155.218 345.324 155.326C345.72 155.422 346.146 155.47 346.602 155.47C347.094 155.47 347.514 155.416 347.862 155.308C348.21 155.188 348.492 155.038 348.708 154.858C348.924 154.678 349.08 154.474 349.176 154.246C349.272 154.006 349.32 153.766 349.32 153.526C349.32 153.034 349.206 152.674 348.978 152.446C348.762 152.206 348.522 152.038 348.258 151.942C347.802 151.774 347.268 151.618 346.656 151.474C346.056 151.318 345.312 151.12 344.424 150.88C343.872 150.736 343.41 150.55 343.038 150.322C342.678 150.082 342.39 149.818 342.174 149.53C341.958 149.242 341.802 148.936 341.706 148.612C341.622 148.288 341.58 147.958 341.58 147.622C341.58 146.974 341.712 146.416 341.976 145.948C342.252 145.468 342.612 145.072 343.056 144.76C343.5 144.448 344.004 144.22 344.568 144.076C345.132 143.92 345.702 143.842 346.278 143.842C346.95 143.842 347.58 143.932 348.168 144.112C348.768 144.28 349.29 144.538 349.734 144.886C350.19 145.234 350.55 145.666 350.814 146.182C351.078 146.686 351.21 147.274 351.21 147.946H348.96C348.9 147.118 348.618 146.536 348.114 146.2C347.61 145.852 346.968 145.678 346.188 145.678C345.924 145.678 345.654 145.708 345.378 145.768C345.102 145.816 344.85 145.906 344.622 146.038C344.394 146.158 344.202 146.326 344.046 146.542C343.902 146.758 343.83 147.028 343.83 147.352C343.83 147.808 343.968 148.168 344.244 148.432C344.532 148.684 344.904 148.876 345.36 149.008C345.408 149.02 345.594 149.074 345.918 149.17C346.254 149.254 346.626 149.35 347.034 149.458C347.442 149.566 347.838 149.674 348.222 149.782C348.618 149.878 348.9 149.95 349.068 149.998C349.488 150.13 349.854 150.31 350.166 150.538C350.478 150.766 350.736 151.03 350.94 151.33C351.156 151.618 351.312 151.93 351.408 152.266C351.516 152.602 351.57 152.938 351.57 153.274C351.57 153.994 351.42 154.612 351.12 155.128C350.832 155.632 350.448 156.046 349.968 156.37C349.488 156.694 348.942 156.928 348.33 157.072C347.718 157.228 347.094 157.306 346.458 157.306C345.726 157.306 345.036 157.216 344.388 157.036C343.74 156.856 343.176 156.58 342.696 156.208C342.216 155.836 341.832 155.362 341.544 154.786C341.256 154.198 341.106 153.508 341.094 152.716H343.344ZM353.252 144.148H355.304V148.918H355.34C355.592 148.498 355.964 148.15 356.456 147.874C356.96 147.586 357.518 147.442 358.13 147.442C359.15 147.442 359.954 147.706 360.542 148.234C361.13 148.762 361.424 149.554 361.424 150.61V157H359.372V151.15C359.348 150.418 359.192 149.89 358.904 149.566C358.616 149.23 358.166 149.062 357.554 149.062C357.206 149.062 356.894 149.128 356.618 149.26C356.342 149.38 356.108 149.554 355.916 149.782C355.724 149.998 355.574 150.256 355.466 150.556C355.358 150.856 355.304 151.174 355.304 151.51V157H353.252V144.148ZM371.382 154.93C371.382 155.182 371.412 155.362 371.472 155.47C371.544 155.578 371.676 155.632 371.868 155.632C371.928 155.632 372 155.632 372.084 155.632C372.168 155.632 372.264 155.62 372.372 155.596V157.018C372.3 157.042 372.204 157.066 372.084 157.09C371.976 157.126 371.862 157.156 371.742 157.18C371.622 157.204 371.502 157.222 371.382 157.234C371.262 157.246 371.16 157.252 371.076 157.252C370.656 157.252 370.308 157.168 370.032 157C369.756 156.832 369.576 156.538 369.492 156.118C369.084 156.514 368.58 156.802 367.98 156.982C367.392 157.162 366.822 157.252 366.27 157.252C365.85 157.252 365.448 157.192 365.064 157.072C364.68 156.964 364.338 156.802 364.038 156.586C363.75 156.358 363.516 156.076 363.336 155.74C363.168 155.392 363.084 154.99 363.084 154.534C363.084 153.958 363.186 153.49 363.39 153.13C363.606 152.77 363.882 152.488 364.218 152.284C364.566 152.08 364.95 151.936 365.37 151.852C365.802 151.756 366.234 151.684 366.666 151.636C367.038 151.564 367.392 151.516 367.728 151.492C368.064 151.456 368.358 151.402 368.61 151.33C368.874 151.258 369.078 151.15 369.222 151.006C369.378 150.85 369.456 150.622 369.456 150.322C369.456 150.058 369.39 149.842 369.258 149.674C369.138 149.506 368.982 149.38 368.79 149.296C368.61 149.2 368.406 149.14 368.178 149.116C367.95 149.08 367.734 149.062 367.53 149.062C366.954 149.062 366.48 149.182 366.108 149.422C365.736 149.662 365.526 150.034 365.478 150.538H363.426C363.462 149.938 363.606 149.44 363.858 149.044C364.11 148.648 364.428 148.33 364.812 148.09C365.208 147.85 365.652 147.682 366.144 147.586C366.636 147.49 367.14 147.442 367.656 147.442C368.112 147.442 368.562 147.49 369.006 147.586C369.45 147.682 369.846 147.838 370.194 148.054C370.554 148.27 370.842 148.552 371.058 148.9C371.274 149.236 371.382 149.65 371.382 150.142V154.93ZM369.33 152.338C369.018 152.542 368.634 152.668 368.178 152.716C367.722 152.752 367.266 152.812 366.81 152.896C366.594 152.932 366.384 152.986 366.18 153.058C365.976 153.118 365.796 153.208 365.64 153.328C365.484 153.436 365.358 153.586 365.262 153.778C365.178 153.958 365.136 154.18 365.136 154.444C365.136 154.672 365.202 154.864 365.334 155.02C365.466 155.176 365.622 155.302 365.802 155.398C365.994 155.482 366.198 155.542 366.414 155.578C366.642 155.614 366.846 155.632 367.026 155.632C367.254 155.632 367.5 155.602 367.764 155.542C368.028 155.482 368.274 155.38 368.502 155.236C368.742 155.092 368.94 154.912 369.096 154.696C369.252 154.468 369.33 154.192 369.33 153.868V152.338ZM373.59 147.694H375.516V149.494H375.552C375.612 149.242 375.726 148.996 375.894 148.756C376.074 148.516 376.284 148.3 376.524 148.108C376.776 147.904 377.052 147.742 377.352 147.622C377.652 147.502 377.958 147.442 378.27 147.442C378.51 147.442 378.672 147.448 378.756 147.46C378.852 147.472 378.948 147.484 379.044 147.496V149.476C378.9 149.452 378.75 149.434 378.594 149.422C378.45 149.398 378.306 149.386 378.162 149.386C377.814 149.386 377.484 149.458 377.172 149.602C376.872 149.734 376.608 149.938 376.38 150.214C376.152 150.478 375.972 150.808 375.84 151.204C375.708 151.6 375.642 152.056 375.642 152.572V157H373.59V147.694ZM385.991 151.528C385.967 151.204 385.895 150.892 385.775 150.592C385.667 150.292 385.511 150.034 385.307 149.818C385.115 149.59 384.875 149.41 384.587 149.278C384.311 149.134 383.999 149.062 383.651 149.062C383.291 149.062 382.961 149.128 382.661 149.26C382.373 149.38 382.121 149.554 381.905 149.782C381.701 149.998 381.533 150.256 381.401 150.556C381.281 150.856 381.215 151.18 381.203 151.528H385.991ZM381.203 152.878C381.203 153.238 381.251 153.586 381.347 153.922C381.455 154.258 381.611 154.552 381.815 154.804C382.019 155.056 382.277 155.26 382.589 155.416C382.901 155.56 383.273 155.632 383.705 155.632C384.305 155.632 384.785 155.506 385.145 155.254C385.517 154.99 385.793 154.6 385.973 154.084H387.917C387.809 154.588 387.623 155.038 387.359 155.434C387.095 155.83 386.777 156.166 386.405 156.442C386.033 156.706 385.613 156.904 385.145 157.036C384.689 157.18 384.209 157.252 383.705 157.252C382.973 157.252 382.325 157.132 381.761 156.892C381.197 156.652 380.717 156.316 380.321 155.884C379.937 155.452 379.643 154.936 379.439 154.336C379.247 153.736 379.151 153.076 379.151 152.356C379.151 151.696 379.253 151.072 379.457 150.484C379.673 149.884 379.973 149.362 380.357 148.918C380.753 148.462 381.227 148.102 381.779 147.838C382.331 147.574 382.955 147.442 383.651 147.442C384.383 147.442 385.037 147.598 385.613 147.91C386.201 148.21 386.687 148.612 387.071 149.116C387.455 149.62 387.731 150.202 387.899 150.862C388.079 151.51 388.127 152.182 388.043 152.878H381.203Z" fill="#3F3E3E"/>
<path d="M414.358 162.625C414.058 162.894 413.811 163.216 413.629 163.575C412.885 163.12 411.991 162.978 411.143 163.182C410.295 163.385 409.563 163.917 409.107 164.661C409.055 164.746 409.008 164.832 408.964 164.921C408.205 164.491 407.307 164.38 406.466 164.613C405.626 164.845 404.912 165.402 404.482 166.16L402.152 163.57C401.567 162.926 400.751 162.54 399.882 162.496C399.013 162.453 398.162 162.755 397.516 163.337C396.869 163.919 396.479 164.733 396.431 165.602C396.383 166.47 396.681 167.323 397.259 167.972L406.777 178.55L404.548 177.994L404.501 177.987C403.513 177.828 402.502 178.057 401.679 178.626C400.856 179.195 400.285 180.06 400.084 181.04C399.884 182.02 400.071 183.04 400.605 183.886C401.139 184.733 401.979 185.34 402.95 185.581L413.247 188.462L413.286 188.472C414.535 188.774 415.839 188.767 417.085 188.451C418.331 188.135 419.481 187.521 420.435 186.661L425.214 182.361C426.873 180.866 427.87 178.775 427.988 176.545C428.106 174.316 427.335 172.131 425.843 170.469L419.007 162.87C418.423 162.222 417.605 161.832 416.734 161.786C415.862 161.74 415.007 162.042 414.358 162.625Z" fill="white"/>
<path d="M414.356 162.627C414.056 162.896 413.809 163.219 413.626 163.578C413.258 163.352 412.849 163.202 412.423 163.134C411.996 163.066 411.561 163.084 411.141 163.184C410.721 163.285 410.325 163.468 409.976 163.721C409.627 163.975 409.331 164.295 409.105 164.663C409.054 164.748 409.006 164.834 408.962 164.923C408.586 164.71 408.172 164.573 407.744 164.52C407.315 164.467 406.881 164.499 406.464 164.614C406.048 164.729 405.659 164.925 405.319 165.191C404.978 165.456 404.694 165.787 404.481 166.162L402.151 163.572C401.863 163.248 401.513 162.984 401.123 162.796C400.732 162.608 400.308 162.499 399.875 162.475C399.442 162.451 399.009 162.513 398.6 162.657C398.191 162.801 397.814 163.024 397.492 163.314C397.17 163.604 396.908 163.955 396.722 164.347C396.535 164.738 396.428 165.163 396.406 165.596C396.385 166.029 396.449 166.462 396.595 166.87C396.741 167.278 396.966 167.653 397.258 167.974L406.775 178.552L404.546 177.996L404.499 177.988C403.511 177.829 402.5 178.058 401.677 178.627C400.854 179.196 400.282 180.061 400.082 181.041C399.882 182.022 400.068 183.041 400.602 183.888C401.137 184.734 401.977 185.341 402.948 185.582L413.245 188.464L413.284 188.474C414.533 188.775 415.837 188.768 417.082 188.453C418.328 188.137 419.478 187.523 420.433 186.663L425.212 182.363C426.87 180.868 427.867 178.777 427.985 176.547C428.103 174.318 427.332 172.133 425.841 170.471L419.004 162.871C418.419 162.223 417.602 161.834 416.73 161.788C415.859 161.742 415.005 162.044 414.356 162.627ZM424.17 171.976C425.263 173.194 425.828 174.795 425.742 176.429C425.655 178.063 424.924 179.596 423.709 180.691L418.931 184.991C418.25 185.604 417.43 186.044 416.541 186.271C415.653 186.498 414.723 186.507 413.83 186.295L403.537 183.411L403.497 183.401C403.091 183.303 402.738 183.053 402.511 182.702C402.284 182.351 402.2 181.927 402.277 181.516C402.354 181.105 402.586 180.74 402.925 180.495C403.264 180.251 403.684 180.146 404.098 180.202L413.375 182.522L398.93 166.469C398.839 166.367 398.768 166.248 398.722 166.119C398.677 165.99 398.657 165.853 398.664 165.717C398.671 165.58 398.705 165.446 398.764 165.323C398.823 165.199 398.906 165.089 399.008 164.997C399.109 164.906 399.228 164.835 399.357 164.79C399.486 164.744 399.623 164.724 399.759 164.731C399.896 164.739 400.03 164.773 400.153 164.832C400.277 164.891 400.388 164.973 400.479 165.075L407.995 173.431L409.664 171.929L406.566 168.485C406.475 168.383 406.404 168.264 406.358 168.135C406.313 168.006 406.293 167.87 406.3 167.733C406.308 167.596 406.342 167.462 406.401 167.339C406.46 167.216 406.542 167.105 406.644 167.013C406.746 166.922 406.864 166.851 406.993 166.806C407.122 166.76 407.259 166.74 407.396 166.748C407.532 166.755 407.666 166.789 407.79 166.848C407.913 166.907 408.024 166.989 408.115 167.091L411.213 170.535L412.883 169.033L411.131 167.086C411.04 166.984 410.969 166.865 410.924 166.736C410.878 166.607 410.858 166.471 410.865 166.334C410.873 166.197 410.907 166.064 410.966 165.94C411.025 165.817 411.107 165.706 411.209 165.615C411.311 165.523 411.429 165.452 411.558 165.407C411.687 165.361 411.824 165.341 411.961 165.349C412.097 165.356 412.231 165.39 412.355 165.449C412.478 165.508 412.589 165.591 412.68 165.692L414.432 167.639L416.103 166.137L415.777 165.778C415.593 165.572 415.497 165.302 415.511 165.026C415.526 164.75 415.65 164.491 415.855 164.306C416.06 164.122 416.331 164.026 416.607 164.04C416.883 164.055 417.142 164.179 417.326 164.384L424.164 171.984L424.17 171.976Z" fill="#0A0909"/>
<path d="M394.675 158.38L393.004 159.885L395.086 162.197L396.757 160.692L394.675 158.38Z" fill="#0A0909"/>
<path d="M398.167 157L398.148 160.111L400.397 160.125L400.416 157.013L398.167 157Z" fill="#0A0909"/>
<path d="M403.915 158.363L401.805 160.65L403.458 162.175L405.568 159.888L403.915 158.363Z" fill="#0A0909"/>
<path d="M391.223 163.284L391 165.521L394.096 165.83L394.318 163.592L391.223 163.284Z" fill="#0A0909"/>
<path d="M394.462 167.315L391.965 169.172L393.307 170.977L395.805 169.12L394.462 167.315Z" fill="#0A0909"/>
</svg>
