<svg width="500" height="300" viewBox="0 0 500 300" fill="none" xmlns="http://www.w3.org/2000/svg">
<rect width="500" height="300" fill="#F5F6FB"/>
<path d="M32 42C32 36.4772 36.4772 32 42 32H458C463.523 32 468 36.4772 468 42V258C468 263.523 463.523 268 458 268H42C36.4772 268 32 263.523 32 258V42Z" fill="white"/>
<g clip-path="url(#clip0_35554_317919)">
<path d="M66 78.5H142C147.247 78.5 151.5 82.7533 151.5 88V192C151.5 197.247 147.247 201.5 142 201.5H66C60.7533 201.5 56.5 197.247 56.5 192V88C56.5 82.7533 60.7533 78.5 66 78.5Z" fill="white"/>
<path d="M66 78.5H142C147.247 78.5 151.5 82.7533 151.5 88V192C151.5 197.247 147.247 201.5 142 201.5H66C60.7533 201.5 56.5 197.247 56.5 192V88C56.5 82.7533 60.7533 78.5 66 78.5Z" stroke="#D3D8EB"/>
<g clip-path="url(#clip1_35554_317919)">
<path d="M104 113C101.627 113 99.3066 113.704 97.3332 115.022C95.3598 116.341 93.8217 118.215 92.9135 120.408C92.0052 122.601 91.7676 125.013 92.2306 127.341C92.6936 129.669 93.8365 131.807 95.5147 133.485C97.193 135.164 99.3312 136.306 101.659 136.769C103.987 137.232 106.399 136.995 108.592 136.087C110.785 135.178 112.659 133.64 113.978 131.667C115.296 129.693 116 127.373 116 125C115.997 121.818 114.731 118.768 112.481 116.519C110.232 114.269 107.182 113.003 104 113V113ZM104 115C106.306 114.998 108.542 115.798 110.324 117.262L96.262 131.324C95.0626 129.86 94.3037 128.085 94.0736 126.206C93.8436 124.328 94.1519 122.422 94.9626 120.712C95.7733 119.002 97.0531 117.557 98.6531 116.546C100.253 115.534 102.107 114.998 104 115ZM104 135C101.694 135.002 99.4581 134.202 97.676 132.738L111.738 118.676C112.937 120.14 113.696 121.915 113.926 123.794C114.156 125.672 113.848 127.578 113.037 129.288C112.227 130.998 110.947 132.443 109.347 133.454C107.747 134.466 105.893 135.002 104 135Z" fill="#0A0909"/>
</g>
<path d="M83.4395 158.032V168H81.6335L76.9855 160.664V168H75.3335V158.032H77.1675L81.7595 165.382V158.032H83.4395ZM88.601 160.566C89.693 160.566 90.575 160.916 91.233 161.602C91.877 162.302 92.213 163.226 92.213 164.388C92.213 165.564 91.877 166.502 91.233 167.188C90.589 167.888 89.707 168.224 88.601 168.224C87.467 168.224 86.571 167.888 85.913 167.188C85.241 166.502 84.919 165.564 84.919 164.388C84.919 163.226 85.241 162.302 85.913 161.602C86.585 160.916 87.481 160.566 88.601 160.566ZM88.573 161.826C87.929 161.826 87.439 162.064 87.075 162.512C86.711 162.974 86.529 163.604 86.529 164.388C86.529 165.2 86.711 165.844 87.075 166.292C87.439 166.754 87.943 166.978 88.587 166.978C89.203 166.978 89.693 166.754 90.057 166.292C90.421 165.83 90.603 165.186 90.603 164.374C90.603 163.59 90.421 162.96 90.057 162.512C89.693 162.064 89.203 161.826 88.573 161.826ZM101.034 158.018V159.25C100.726 159.222 100.488 159.208 100.334 159.208C99.9984 159.208 99.7884 159.278 99.6764 159.39C99.5644 159.502 99.5084 159.74 99.5084 160.076V160.776H100.88V161.938H99.5224V168H97.9404V161.938H96.7504V160.776H97.9404V160.202C97.9404 159.446 98.0944 158.886 98.4304 158.522C98.7524 158.158 99.2984 157.976 100.082 157.976C100.39 157.976 100.712 157.99 101.034 158.018ZM105.954 160.636V162.162C105.674 162.134 105.478 162.12 105.394 162.12C103.994 162.12 103.308 163.03 103.308 164.822V168H101.726V160.776H103.224V162.218C103.728 161.154 104.54 160.608 105.646 160.608L105.954 160.636ZM106.718 163.002C106.886 161.378 107.936 160.552 109.882 160.552C110.778 160.552 111.506 160.734 112.038 161.084C112.57 161.448 112.85 161.994 112.85 162.736V166.404C112.85 166.614 112.864 166.754 112.92 166.824C112.976 166.908 113.074 166.936 113.228 166.936C113.34 166.936 113.452 166.936 113.592 166.908V168.028C113.172 168.14 112.836 168.182 112.556 168.182C111.87 168.182 111.478 167.902 111.38 167.314C110.764 167.902 109.924 168.182 108.846 168.182C108.09 168.182 107.502 168 107.068 167.608C106.62 167.216 106.41 166.698 106.41 166.026C106.41 165.83 106.424 165.634 106.48 165.452C106.522 165.284 106.578 165.13 106.634 164.99C106.69 164.864 106.788 164.738 106.928 164.626C107.068 164.514 107.18 164.43 107.264 164.346C107.348 164.276 107.502 164.206 107.698 164.136C107.894 164.08 108.048 164.024 108.146 163.996C108.244 163.968 108.412 163.926 108.664 163.884C108.902 163.856 109.056 163.828 109.14 163.814C109.224 163.8 109.392 163.772 109.644 163.744C110.204 163.674 110.596 163.618 110.806 163.562C111.002 163.506 111.142 163.436 111.226 163.324C111.282 163.254 111.324 163.086 111.324 162.806C111.324 162.078 110.82 161.714 109.84 161.714C109.308 161.714 108.93 161.812 108.692 162.008C108.44 162.204 108.286 162.54 108.23 163.002H106.718ZM111.31 164.374C111.184 164.444 111.044 164.5 110.89 164.556C110.722 164.612 110.596 164.64 110.498 164.654C110.4 164.668 110.246 164.682 110.036 164.71C109.826 164.738 109.686 164.766 109.63 164.766C109.434 164.794 109.28 164.822 109.168 164.85C109.056 164.878 108.916 164.906 108.748 164.962C108.58 165.018 108.454 165.088 108.37 165.172C108.286 165.256 108.202 165.354 108.146 165.494C108.076 165.634 108.048 165.788 108.048 165.97C108.048 166.32 108.16 166.586 108.384 166.768C108.608 166.964 108.93 167.048 109.35 167.048C110.05 167.048 110.596 166.866 110.988 166.474C111.198 166.264 111.31 165.844 111.31 165.228V164.374ZM116.094 160.776V161.798C116.682 160.986 117.438 160.58 118.362 160.58C118.838 160.58 119.244 160.692 119.594 160.902C119.944 161.126 120.21 161.42 120.378 161.812C120.952 161 121.736 160.58 122.716 160.58C123.388 160.58 123.962 160.79 124.41 161.196C124.858 161.602 125.082 162.162 125.082 162.876V168H123.486V163.562C123.486 163.058 123.388 162.652 123.22 162.358C123.038 162.078 122.702 161.924 122.198 161.924C121.68 161.924 121.288 162.092 121.022 162.414C120.742 162.736 120.616 163.184 120.616 163.758V168H119.02V163.478C119.02 162.974 118.936 162.582 118.782 162.316C118.628 162.064 118.306 161.924 117.83 161.924C117.284 161.924 116.878 162.106 116.598 162.456C116.318 162.806 116.178 163.268 116.178 163.842V168H114.582V160.776H116.094ZM133.217 165.746C133.035 166.53 132.643 167.146 132.055 167.58C131.467 168.028 130.753 168.238 129.941 168.238C128.849 168.238 127.981 167.888 127.337 167.188C126.693 166.488 126.385 165.578 126.385 164.472C126.385 163.352 126.707 162.414 127.365 161.672C128.023 160.944 128.863 160.566 129.885 160.566C130.935 160.566 131.775 160.93 132.391 161.658C133.007 162.386 133.315 163.366 133.315 164.612V164.78H127.981C127.995 165.508 128.177 166.082 128.527 166.474C128.863 166.866 129.353 167.062 129.969 167.062C130.403 167.062 130.753 166.964 131.033 166.754C131.313 166.544 131.523 166.208 131.691 165.746H133.217ZM131.719 163.716C131.663 163.114 131.481 162.638 131.145 162.288C130.809 161.938 130.389 161.756 129.871 161.756C129.339 161.756 128.919 161.924 128.597 162.26C128.275 162.596 128.079 163.086 128.009 163.716H131.719Z" fill="#0A0909"/>
<path d="M178 79H254C258.971 79 263 83.0294 263 88V192C263 196.971 258.971 201 254 201H178C173.029 201 169 196.971 169 192V88C169 83.0294 173.029 79 178 79Z" fill="white"/>
<path d="M178 79H254C258.971 79 263 83.0294 263 88V192C263 196.971 258.971 201 254 201H178C173.029 201 169 196.971 169 192V88C169 83.0294 173.029 79 178 79Z" stroke="#01A56D" stroke-width="2"/>
<path d="M184 87H248C251.866 87 255 90.134 255 94V158C255 161.866 251.866 165 248 165H184C180.134 165 177 161.866 177 158V94C177 90.134 180.134 87 184 87Z" stroke="#0A0909" stroke-width="2"/>
<path d="M194.286 102H192V104.286H194.286V102Z" fill="#0A0909"/>
<path d="M196.571 102H194.286V104.286H196.571V102Z" fill="#0A0909"/>
<path d="M198.857 102H196.571V104.286H198.857V102Z" fill="#0A0909"/>
<path d="M201.143 102H198.857V104.286H201.143V102Z" fill="#0A0909"/>
<path d="M203.429 102H201.143V104.286H203.429V102Z" fill="#0A0909"/>
<path d="M205.714 102H203.429V104.286H205.714V102Z" fill="#0A0909"/>
<path d="M208 102H205.714V104.286H208V102Z" fill="#0A0909"/>
<path d="M212.571 102H210.286V104.286H212.571V102Z" fill="#0A0909"/>
<path d="M219.429 102H217.143V104.286H219.429V102Z" fill="#0A0909"/>
<path d="M226.286 102H224V104.286H226.286V102Z" fill="#0A0909"/>
<path d="M228.571 102H226.286V104.286H228.571V102Z" fill="#0A0909"/>
<path d="M230.857 102H228.571V104.286H230.857V102Z" fill="#0A0909"/>
<path d="M233.143 102H230.857V104.286H233.143V102Z" fill="#0A0909"/>
<path d="M235.429 102H233.143V104.286H235.429V102Z" fill="#0A0909"/>
<path d="M237.714 102H235.429V104.286H237.714V102Z" fill="#0A0909"/>
<path d="M240 102H237.714V104.286H240V102Z" fill="#0A0909"/>
<path d="M194.286 104.286H192V106.571H194.286V104.286Z" fill="#0A0909"/>
<path d="M208 104.286H205.714V106.571H208V104.286Z" fill="#0A0909"/>
<path d="M217.143 104.286H214.857V106.571H217.143L217.143 104.286Z" fill="#0A0909"/>
<path d="M221.714 104.286H219.429V106.571H221.714V104.286Z" fill="#0A0909"/>
<path d="M226.286 104.286H224V106.571H226.286V104.286Z" fill="#0A0909"/>
<path d="M240 104.286H237.714V106.571H240V104.286Z" fill="#0A0909"/>
<path d="M194.286 106.571H192V108.857H194.286V106.571Z" fill="#0A0909"/>
<path d="M198.857 106.571H196.571V108.857H198.857V106.571Z" fill="#0A0909"/>
<path d="M201.143 106.571H198.857V108.857H201.143V106.571Z" fill="#0A0909"/>
<path d="M203.429 106.571H201.143V108.857H203.429V106.571Z" fill="#0A0909"/>
<path d="M208 106.571H205.714V108.857H208V106.571Z" fill="#0A0909"/>
<path d="M212.571 106.571H210.286V108.857H212.571V106.571Z" fill="#0A0909"/>
<path d="M214.857 106.571H212.571V108.857H214.857L214.857 106.571Z" fill="#0A0909"/>
<path d="M221.714 106.571H219.429V108.857H221.714V106.571Z" fill="#0A0909"/>
<path d="M226.286 106.571H224V108.857H226.286V106.571Z" fill="#0A0909"/>
<path d="M230.857 106.571H228.571V108.857H230.857V106.571Z" fill="#0A0909"/>
<path d="M233.143 106.571H230.857V108.857H233.143V106.571Z" fill="#0A0909"/>
<path d="M235.429 106.571H233.143V108.857H235.429V106.571Z" fill="#0A0909"/>
<path d="M240 106.571H237.714V108.857H240V106.571Z" fill="#0A0909"/>
<path d="M194.286 108.857H192V111.143H194.286V108.857Z" fill="#0A0909"/>
<path d="M198.857 108.857H196.571V111.143H198.857V108.857Z" fill="#0A0909"/>
<path d="M201.143 108.857H198.857V111.143H201.143V108.857Z" fill="#0A0909"/>
<path d="M203.429 108.857H201.143V111.143H203.429V108.857Z" fill="#0A0909"/>
<path d="M208 108.857H205.714V111.143H208V108.857Z" fill="#0A0909"/>
<path d="M212.571 108.857H210.286V111.143H212.571V108.857Z" fill="#0A0909"/>
<path d="M214.857 108.857H212.571V111.143H214.857V108.857Z" fill="#0A0909"/>
<path d="M217.143 108.857H214.857V111.143H217.143V108.857Z" fill="#0A0909"/>
<path d="M219.429 108.857H217.143V111.143H219.429V108.857Z" fill="#0A0909"/>
<path d="M221.714 108.857H219.429V111.143H221.714V108.857Z" fill="#0A0909"/>
<path d="M226.286 108.857H224V111.143H226.286V108.857Z" fill="#0A0909"/>
<path d="M230.857 108.857H228.571V111.143H230.857V108.857Z" fill="#0A0909"/>
<path d="M233.143 108.857H230.857V111.143H233.143V108.857Z" fill="#0A0909"/>
<path d="M235.429 108.857H233.143V111.143H235.429V108.857Z" fill="#0A0909"/>
<path d="M240 108.857H237.714V111.143H240V108.857Z" fill="#0A0909"/>
<path d="M194.286 111.143H192V113.429H194.286V111.143Z" fill="#0A0909"/>
<path d="M198.857 111.143H196.571V113.429H198.857V111.143Z" fill="#0A0909"/>
<path d="M201.143 111.143H198.857V113.429H201.143V111.143Z" fill="#0A0909"/>
<path d="M203.429 111.143H201.143V113.429H203.429V111.143Z" fill="#0A0909"/>
<path d="M208 111.143H205.714V113.429H208V111.143Z" fill="#0A0909"/>
<path d="M212.571 111.143H210.286V113.429H212.571V111.143Z" fill="#0A0909"/>
<path d="M214.857 111.143H212.571V113.429H214.857V111.143Z" fill="#0A0909"/>
<path d="M219.429 111.143H217.143L217.143 113.429H219.429V111.143Z" fill="#0A0909"/>
<path d="M221.714 111.143H219.429V113.429H221.714V111.143Z" fill="#0A0909"/>
<path d="M226.286 111.143H224V113.429H226.286V111.143Z" fill="#0A0909"/>
<path d="M230.857 111.143H228.571V113.429H230.857V111.143Z" fill="#0A0909"/>
<path d="M233.143 111.143H230.857V113.429H233.143V111.143Z" fill="#0A0909"/>
<path d="M235.429 111.143H233.143V113.429H235.429V111.143Z" fill="#0A0909"/>
<path d="M240 111.143H237.714V113.429H240V111.143Z" fill="#0A0909"/>
<path d="M194.286 113.429H192V115.714H194.286V113.429Z" fill="#0A0909"/>
<path d="M208 113.429H205.714V115.714H208V113.429Z" fill="#0A0909"/>
<path d="M212.571 113.429H210.286V115.714H212.571V113.429Z" fill="#0A0909"/>
<path d="M214.857 113.429H212.571V115.714H214.857V113.429Z" fill="#0A0909"/>
<path d="M217.143 113.429H214.857V115.714H217.143L217.143 113.429Z" fill="#0A0909"/>
<path d="M221.714 113.429H219.429V115.714H221.714V113.429Z" fill="#0A0909"/>
<path d="M226.286 113.429H224V115.714H226.286V113.429Z" fill="#0A0909"/>
<path d="M240 113.429H237.714V115.714H240V113.429Z" fill="#0A0909"/>
<path d="M194.286 115.714H192V118H194.286V115.714Z" fill="#0A0909"/>
<path d="M196.571 115.714H194.286V118H196.571V115.714Z" fill="#0A0909"/>
<path d="M198.857 115.714H196.571V118H198.857V115.714Z" fill="#0A0909"/>
<path d="M201.143 115.714H198.857V118H201.143V115.714Z" fill="#0A0909"/>
<path d="M203.429 115.714H201.143V118H203.429V115.714Z" fill="#0A0909"/>
<path d="M205.714 115.714H203.429V118H205.714V115.714Z" fill="#0A0909"/>
<path d="M208 115.714H205.714V118H208V115.714Z" fill="#0A0909"/>
<path d="M212.571 115.714H210.286V118H212.571V115.714Z" fill="#0A0909"/>
<path d="M217.143 115.714H214.857L214.857 118H217.143V115.714Z" fill="#0A0909"/>
<path d="M221.714 115.714H219.429V118H221.714V115.714Z" fill="#0A0909"/>
<path d="M226.286 115.714H224V118H226.286V115.714Z" fill="#0A0909"/>
<path d="M228.571 115.714H226.286V118H228.571V115.714Z" fill="#0A0909"/>
<path d="M230.857 115.714H228.571V118H230.857V115.714Z" fill="#0A0909"/>
<path d="M233.143 115.714H230.857V118H233.143V115.714Z" fill="#0A0909"/>
<path d="M235.429 115.714H233.143V118H235.429V115.714Z" fill="#0A0909"/>
<path d="M237.714 115.714H235.429V118H237.714V115.714Z" fill="#0A0909"/>
<path d="M240 115.714H237.714V118H240V115.714Z" fill="#0A0909"/>
<path d="M217.143 118H214.857V120.286H217.143V118Z" fill="#0A0909"/>
<path d="M219.429 118H217.143V120.286H219.429V118Z" fill="#0A0909"/>
<path d="M221.714 118H219.429V120.286H221.714V118Z" fill="#0A0909"/>
<path d="M198.857 120.286H196.571V122.571H198.857V120.286Z" fill="#0A0909"/>
<path d="M201.143 120.286H198.857V122.571H201.143V120.286Z" fill="#0A0909"/>
<path d="M203.429 120.286H201.143V122.571H203.429V120.286Z" fill="#0A0909"/>
<path d="M205.714 120.286H203.429V122.571H205.714V120.286Z" fill="#0A0909"/>
<path d="M208 120.286H205.714V122.571H208V120.286Z" fill="#0A0909"/>
<path d="M210.286 120.286H208V122.571H210.286V120.286Z" fill="#0A0909"/>
<path d="M217.143 120.286H214.857V122.571H217.143V120.286Z" fill="#0A0909"/>
<path d="M219.429 120.286H217.143V122.571H219.429V120.286Z" fill="#0A0909"/>
<path d="M224 120.286L221.714 120.286V122.571H224V120.286Z" fill="#0A0909"/>
<path d="M228.571 120.286H226.286V122.571H228.571V120.286Z" fill="#0A0909"/>
<path d="M230.857 120.286H228.571V122.571H230.857V120.286Z" fill="#0A0909"/>
<path d="M233.143 120.286H230.857V122.571H233.143V120.286Z" fill="#0A0909"/>
<path d="M235.429 120.286H233.143V122.571H235.429V120.286Z" fill="#0A0909"/>
<path d="M240 120.286H237.714V122.571H240V120.286Z" fill="#0A0909"/>
<path d="M194.286 122.571H192V124.857H194.286V122.571Z" fill="#0A0909"/>
<path d="M196.571 122.571H194.286V124.857H196.571V122.571Z" fill="#0A0909"/>
<path d="M198.857 122.571H196.571V124.857H198.857V122.571Z" fill="#0A0909"/>
<path d="M201.143 122.571H198.857V124.857H201.143V122.571Z" fill="#0A0909"/>
<path d="M221.714 122.571H219.429V124.857H221.714V122.571Z" fill="#0A0909"/>
<path d="M224 122.571H221.714V124.857H224V122.571Z" fill="#0A0909"/>
<path d="M230.857 122.571H228.571V124.857H230.857V122.571Z" fill="#0A0909"/>
<path d="M233.143 122.571H230.857V124.857H233.143V122.571Z" fill="#0A0909"/>
<path d="M237.714 122.571H235.429V124.857H237.714V122.571Z" fill="#0A0909"/>
<path d="M194.286 124.857H192V127.143H194.286V124.857Z" fill="#0A0909"/>
<path d="M201.143 124.857H198.857V127.143H201.143V124.857Z" fill="#0A0909"/>
<path d="M205.714 124.857H203.429V127.143H205.714V124.857Z" fill="#0A0909"/>
<path d="M208 124.857H205.714V127.143H208V124.857Z" fill="#0A0909"/>
<path d="M214.857 124.857H212.571V127.143H214.857V124.857Z" fill="#0A0909"/>
<path d="M224 124.857H221.714V127.143H224V124.857Z" fill="#0A0909"/>
<path d="M233.143 124.857H230.857V127.143H233.143V124.857Z" fill="#0A0909"/>
<path d="M237.714 124.857H235.429V127.143H237.714V124.857Z" fill="#0A0909"/>
<path d="M240 124.857L237.714 124.857V127.143H240V124.857Z" fill="#0A0909"/>
<path d="M196.571 127.143L194.286 127.143V129.429H196.571V127.143Z" fill="#0A0909"/>
<path d="M201.143 127.143H198.857V129.429H201.143V127.143Z" fill="#0A0909"/>
<path d="M203.429 127.143H201.143V129.429H203.429V127.143Z" fill="#0A0909"/>
<path d="M210.286 127.143L208 127.143V129.429H210.286V127.143Z" fill="#0A0909"/>
<path d="M217.143 127.143L214.857 127.143L214.857 129.429H217.143V127.143Z" fill="#0A0909"/>
<path d="M221.714 127.143L219.429 127.143V129.429H221.714V127.143Z" fill="#0A0909"/>
<path d="M224 127.143H221.714V129.429H224V127.143Z" fill="#0A0909"/>
<path d="M228.571 127.143H226.286V129.429H228.571V127.143Z" fill="#0A0909"/>
<path d="M235.429 127.143H233.143V129.429H235.429V127.143Z" fill="#0A0909"/>
<path d="M240 127.143H237.714V129.429H240V127.143Z" fill="#0A0909"/>
<path d="M194.286 129.429H192V131.714H194.286V129.429Z" fill="#0A0909"/>
<path d="M196.571 129.429H194.286V131.714H196.571V129.429Z" fill="#0A0909"/>
<path d="M203.429 129.429H201.143V131.714H203.429V129.429Z" fill="#0A0909"/>
<path d="M205.714 129.429H203.429V131.714H205.714V129.429Z" fill="#0A0909"/>
<path d="M208 129.429H205.714V131.714H208V129.429Z" fill="#0A0909"/>
<path d="M210.286 129.429H208V131.714H210.286V129.429Z" fill="#0A0909"/>
<path d="M212.571 129.429H210.286V131.714H212.571V129.429Z" fill="#0A0909"/>
<path d="M214.857 129.429H212.571V131.714H214.857L214.857 129.429Z" fill="#0A0909"/>
<path d="M224 129.429H221.714V131.714H224V129.429Z" fill="#0A0909"/>
<path d="M226.286 129.429H224V131.714H226.286V129.429Z" fill="#0A0909"/>
<path d="M228.571 129.429H226.286V131.714H228.571V129.429Z" fill="#0A0909"/>
<path d="M230.857 129.429H228.571V131.714H230.857V129.429Z" fill="#0A0909"/>
<path d="M233.143 129.429H230.857V131.714H233.143V129.429Z" fill="#0A0909"/>
<path d="M217.143 131.714H214.857L214.857 134H217.143V131.714Z" fill="#0A0909"/>
<path d="M221.714 131.714H219.429V134H221.714V131.714Z" fill="#0A0909"/>
<path d="M224 131.714H221.714V134H224V131.714Z" fill="#0A0909"/>
<path d="M228.571 131.714H226.286V134H228.571V131.714Z" fill="#0A0909"/>
<path d="M235.429 131.714H233.143V134H235.429V131.714Z" fill="#0A0909"/>
<path d="M240 131.714H237.714V134H240V131.714Z" fill="#0A0909"/>
<path d="M194.286 134H192V136.286H194.286V134Z" fill="#0A0909"/>
<path d="M196.571 134H194.286V136.286H196.571V134Z" fill="#0A0909"/>
<path d="M198.857 134H196.571V136.286H198.857V134Z" fill="#0A0909"/>
<path d="M201.143 134H198.857V136.286H201.143V134Z" fill="#0A0909"/>
<path d="M203.429 134H201.143V136.286H203.429V134Z" fill="#0A0909"/>
<path d="M205.714 134H203.429V136.286H205.714V134Z" fill="#0A0909"/>
<path d="M208 134H205.714V136.286H208V134Z" fill="#0A0909"/>
<path d="M212.571 134H210.286V136.286H212.571V134Z" fill="#0A0909"/>
<path d="M224 134H221.714V136.286H224V134Z" fill="#0A0909"/>
<path d="M226.286 134H224V136.286H226.286V134Z" fill="#0A0909"/>
<path d="M228.571 134H226.286V136.286H228.571V134Z" fill="#0A0909"/>
<path d="M194.286 136.286H192V138.571H194.286V136.286Z" fill="#0A0909"/>
<path d="M208 136.286H205.714V138.571H208V136.286Z" fill="#0A0909"/>
<path d="M212.571 136.286H210.286V138.571H212.571V136.286Z" fill="#0A0909"/>
<path d="M214.857 136.286H212.571V138.571H214.857V136.286Z" fill="#0A0909"/>
<path d="M219.429 136.286H217.143V138.571H219.429V136.286Z" fill="#0A0909"/>
<path d="M226.286 136.286H224V138.571H226.286V136.286Z" fill="#0A0909"/>
<path d="M230.857 136.286H228.571V138.571H230.857V136.286Z" fill="#0A0909"/>
<path d="M233.143 136.286H230.857V138.571H233.143V136.286Z" fill="#0A0909"/>
<path d="M237.714 136.286H235.429V138.571H237.714V136.286Z" fill="#0A0909"/>
<path d="M194.286 138.571H192V140.857H194.286V138.571Z" fill="#0A0909"/>
<path d="M198.857 138.571H196.571V140.857H198.857V138.571Z" fill="#0A0909"/>
<path d="M201.143 138.571H198.857V140.857H201.143V138.571Z" fill="#0A0909"/>
<path d="M203.429 138.571H201.143V140.857H203.429V138.571Z" fill="#0A0909"/>
<path d="M208 138.571H205.714V140.857H208V138.571Z" fill="#0A0909"/>
<path d="M212.571 138.571H210.286V140.857H212.571V138.571Z" fill="#0A0909"/>
<path d="M217.143 138.571H214.857L214.857 140.857H217.143L217.143 138.571Z" fill="#0A0909"/>
<path d="M219.429 138.571H217.143L217.143 140.857H219.429V138.571Z" fill="#0A0909"/>
<path d="M221.714 138.571H219.429V140.857H221.714V138.571Z" fill="#0A0909"/>
<path d="M235.429 138.571H233.143V140.857H235.429V138.571Z" fill="#0A0909"/>
<path d="M237.714 138.571H235.429V140.857H237.714V138.571Z" fill="#0A0909"/>
<path d="M240 138.571H237.714V140.857H240V138.571Z" fill="#0A0909"/>
<path d="M194.286 140.857H192V143.143H194.286V140.857Z" fill="#0A0909"/>
<path d="M198.857 140.857H196.571V143.143H198.857V140.857Z" fill="#0A0909"/>
<path d="M201.143 140.857H198.857V143.143H201.143V140.857Z" fill="#0A0909"/>
<path d="M203.429 140.857H201.143V143.143H203.429V140.857Z" fill="#0A0909"/>
<path d="M208 140.857H205.714V143.143H208V140.857Z" fill="#0A0909"/>
<path d="M212.571 140.857H210.286V143.143H212.571V140.857Z" fill="#0A0909"/>
<path d="M214.857 140.857H212.571V143.143H214.857L214.857 140.857Z" fill="#0A0909"/>
<path d="M224 140.857H221.714V143.143H224V140.857Z" fill="#0A0909"/>
<path d="M228.571 140.857H226.286V143.143H228.571V140.857Z" fill="#0A0909"/>
<path d="M235.429 140.857H233.143V143.143H235.429V140.857Z" fill="#0A0909"/>
<path d="M240 140.857H237.714V143.143H240V140.857Z" fill="#0A0909"/>
<path d="M194.286 143.143H192V145.429H194.286V143.143Z" fill="#0A0909"/>
<path d="M198.857 143.143H196.571V145.429H198.857V143.143Z" fill="#0A0909"/>
<path d="M201.143 143.143H198.857V145.429H201.143V143.143Z" fill="#0A0909"/>
<path d="M203.429 143.143H201.143V145.429H203.429V143.143Z" fill="#0A0909"/>
<path d="M208 143.143H205.714V145.429H208V143.143Z" fill="#0A0909"/>
<path d="M212.571 143.143H210.286V145.429H212.571V143.143Z" fill="#0A0909"/>
<path d="M214.857 143.143H212.571V145.429H214.857V143.143Z" fill="#0A0909"/>
<path d="M219.429 143.143H217.143V145.429H219.429V143.143Z" fill="#0A0909"/>
<path d="M221.714 143.143H219.429V145.429H221.714V143.143Z" fill="#0A0909"/>
<path d="M230.857 143.143H228.571V145.429H230.857V143.143Z" fill="#0A0909"/>
<path d="M233.143 143.143H230.857V145.429H233.143V143.143Z" fill="#0A0909"/>
<path d="M235.429 143.143H233.143V145.429H235.429V143.143Z" fill="#0A0909"/>
<path d="M237.714 143.143H235.429V145.429H237.714V143.143Z" fill="#0A0909"/>
<path d="M240 143.143H237.714V145.429H240V143.143Z" fill="#0A0909"/>
<path d="M194.286 145.429H192V147.714H194.286V145.429Z" fill="#0A0909"/>
<path d="M208 145.429H205.714V147.714H208V145.429Z" fill="#0A0909"/>
<path d="M214.857 145.429H212.571V147.714H214.857V145.429Z" fill="#0A0909"/>
<path d="M217.143 145.429H214.857V147.714H217.143L217.143 145.429Z" fill="#0A0909"/>
<path d="M221.714 145.429H219.429V147.714H221.714V145.429Z" fill="#0A0909"/>
<path d="M226.286 145.429H224V147.714H226.286V145.429Z" fill="#0A0909"/>
<path d="M240 145.429H237.714V147.714H240V145.429Z" fill="#0A0909"/>
<path d="M194.286 147.714H192V150H194.286V147.714Z" fill="#0A0909"/>
<path d="M196.571 147.714H194.286V150H196.571V147.714Z" fill="#0A0909"/>
<path d="M198.857 147.714H196.571V150H198.857V147.714Z" fill="#0A0909"/>
<path d="M201.143 147.714H198.857V150H201.143V147.714Z" fill="#0A0909"/>
<path d="M203.429 147.714H201.143V150H203.429V147.714Z" fill="#0A0909"/>
<path d="M205.714 147.714H203.429V150H205.714V147.714Z" fill="#0A0909"/>
<path d="M208 147.714H205.714V150H208V147.714Z" fill="#0A0909"/>
<path d="M214.857 147.714H212.571V150H214.857V147.714Z" fill="#0A0909"/>
<path d="M219.429 147.714H217.143L217.143 150H219.429V147.714Z" fill="#0A0909"/>
<path d="M224 147.714H221.714V150H224V147.714Z" fill="#0A0909"/>
<path d="M228.571 147.714H226.286V150H228.571V147.714Z" fill="#0A0909"/>
<path d="M212.324 177.88V178.96H210.054V185H208.804V178.96H206.534V177.88H212.324ZM216.498 183.39C216.368 183.95 216.088 184.39 215.668 184.7C215.248 185.02 214.738 185.17 214.158 185.17C213.378 185.17 212.758 184.92 212.298 184.42C211.838 183.92 211.618 183.27 211.618 182.48C211.618 181.68 211.848 181.01 212.318 180.48C212.788 179.96 213.388 179.69 214.118 179.69C214.868 179.69 215.468 179.95 215.908 180.47C216.348 180.99 216.568 181.69 216.568 182.58V182.7H212.758C212.768 183.22 212.898 183.63 213.148 183.91C213.388 184.19 213.738 184.33 214.178 184.33C214.488 184.33 214.738 184.26 214.938 184.11C215.138 183.96 215.288 183.72 215.408 183.39H216.498ZM215.428 181.94C215.388 181.51 215.258 181.17 215.018 180.92C214.778 180.67 214.478 180.54 214.108 180.54C213.728 180.54 213.428 180.66 213.198 180.9C212.968 181.14 212.828 181.49 212.778 181.94H215.428ZM218.815 182.29L217.025 179.84H218.405L219.485 181.43L220.615 179.84H221.935L220.185 182.23L222.155 185H220.785L219.475 183.1L218.205 185H216.865L218.815 182.29ZM225.326 179.84V180.67H224.286V183.39C224.286 183.55 224.286 183.67 224.296 183.73C224.296 183.79 224.316 183.86 224.356 183.94C224.386 184.02 224.446 184.07 224.526 184.09C224.606 184.12 224.726 184.13 224.876 184.13C225.056 184.13 225.206 184.13 225.326 184.11V185.01C225.096 185.04 224.836 185.05 224.556 185.05C224.356 185.05 224.176 185.04 224.026 185.01C223.876 184.98 223.756 184.94 223.656 184.9C223.556 184.86 223.466 184.8 223.406 184.7C223.336 184.6 223.286 184.52 223.246 184.46C223.206 184.4 223.186 184.28 223.166 184.12C223.146 183.96 223.146 183.84 223.146 183.76V183.32V183.26V183.2V183.13V180.67H222.286V179.84H223.146V178.29H224.286V179.84H225.326Z" fill="#0A0909"/>
<path d="M290 78.5H366C371.247 78.5 375.5 82.7533 375.5 88V192C375.5 197.247 371.247 201.5 366 201.5H290C284.753 201.5 280.5 197.247 280.5 192V88C280.5 82.7533 284.753 78.5 290 78.5Z" fill="white"/>
<path d="M290 78.5H366C371.247 78.5 375.5 82.7533 375.5 88V192C375.5 197.247 371.247 201.5 366 201.5H290C284.753 201.5 280.5 197.247 280.5 192V88C280.5 82.7533 284.753 78.5 290 78.5Z" stroke="#D3D8EB"/>
<path d="M296 87H360C363.866 87 367 90.134 367 94V158C367 161.866 363.866 165 360 165H296C292.134 165 289 161.866 289 158V94C289 90.134 292.134 87 296 87Z" stroke="#0A0909" stroke-width="2"/>
<path d="M306.286 102H304V104.286H306.286V102Z" fill="#0A0909"/>
<path d="M308.571 102H306.286V104.286H308.571V102Z" fill="#0A0909"/>
<path d="M310.857 102H308.571V104.286H310.857V102Z" fill="#0A0909"/>
<path d="M313.143 102H310.857V104.286H313.143V102Z" fill="#0A0909"/>
<path d="M315.429 102H313.143V104.286H315.429V102Z" fill="#0A0909"/>
<path d="M317.714 102H315.429V104.286H317.714V102Z" fill="#0A0909"/>
<path d="M320 102H317.714V104.286H320V102Z" fill="#0A0909"/>
<path d="M324.571 102H322.286V104.286H324.571V102Z" fill="#0A0909"/>
<path d="M331.429 102H329.143V104.286H331.429V102Z" fill="#0A0909"/>
<path d="M338.286 102H336V104.286H338.286V102Z" fill="#0A0909"/>
<path d="M340.571 102H338.286V104.286H340.571V102Z" fill="#0A0909"/>
<path d="M342.857 102H340.571V104.286H342.857V102Z" fill="#0A0909"/>
<path d="M345.143 102H342.857V104.286H345.143V102Z" fill="#0A0909"/>
<path d="M347.429 102H345.143V104.286H347.429V102Z" fill="#0A0909"/>
<path d="M349.714 102H347.429V104.286H349.714V102Z" fill="#0A0909"/>
<path d="M352 102H349.714V104.286H352V102Z" fill="#0A0909"/>
<path d="M306.286 104.286H304V106.571H306.286V104.286Z" fill="#0A0909"/>
<path d="M320 104.286H317.714V106.571H320V104.286Z" fill="#0A0909"/>
<path d="M329.143 104.286H326.857V106.571H329.143L329.143 104.286Z" fill="#0A0909"/>
<path d="M333.714 104.286H331.429V106.571H333.714V104.286Z" fill="#0A0909"/>
<path d="M338.286 104.286H336V106.571H338.286V104.286Z" fill="#0A0909"/>
<path d="M352 104.286H349.714V106.571H352V104.286Z" fill="#0A0909"/>
<path d="M306.286 106.571H304V108.857H306.286V106.571Z" fill="#0A0909"/>
<path d="M310.857 106.571H308.571V108.857H310.857V106.571Z" fill="#0A0909"/>
<path d="M313.143 106.571H310.857V108.857H313.143V106.571Z" fill="#0A0909"/>
<path d="M315.429 106.571H313.143V108.857H315.429V106.571Z" fill="#0A0909"/>
<path d="M320 106.571H317.714V108.857H320V106.571Z" fill="#0A0909"/>
<path d="M324.571 106.571H322.286V108.857H324.571V106.571Z" fill="#0A0909"/>
<path d="M326.857 106.571H324.571V108.857H326.857L326.857 106.571Z" fill="#0A0909"/>
<path d="M333.714 106.571H331.429V108.857H333.714V106.571Z" fill="#0A0909"/>
<path d="M338.286 106.571H336V108.857H338.286V106.571Z" fill="#0A0909"/>
<path d="M342.857 106.571H340.571V108.857H342.857V106.571Z" fill="#0A0909"/>
<path d="M345.143 106.571H342.857V108.857H345.143V106.571Z" fill="#0A0909"/>
<path d="M347.429 106.571H345.143V108.857H347.429V106.571Z" fill="#0A0909"/>
<path d="M352 106.571H349.714V108.857H352V106.571Z" fill="#0A0909"/>
<path d="M306.286 108.857H304V111.143H306.286V108.857Z" fill="#0A0909"/>
<path d="M310.857 108.857H308.571V111.143H310.857V108.857Z" fill="#0A0909"/>
<path d="M313.143 108.857H310.857V111.143H313.143V108.857Z" fill="#0A0909"/>
<path d="M315.429 108.857H313.143V111.143H315.429V108.857Z" fill="#0A0909"/>
<path d="M320 108.857H317.714V111.143H320V108.857Z" fill="#0A0909"/>
<path d="M324.571 108.857H322.286V111.143H324.571V108.857Z" fill="#0A0909"/>
<path d="M326.857 108.857H324.571V111.143H326.857V108.857Z" fill="#0A0909"/>
<path d="M329.143 108.857H326.857V111.143H329.143V108.857Z" fill="#0A0909"/>
<path d="M331.429 108.857H329.143V111.143H331.429V108.857Z" fill="#0A0909"/>
<path d="M333.714 108.857H331.429V111.143H333.714V108.857Z" fill="#0A0909"/>
<path d="M338.286 108.857H336V111.143H338.286V108.857Z" fill="#0A0909"/>
<path d="M342.857 108.857H340.571V111.143H342.857V108.857Z" fill="#0A0909"/>
<path d="M345.143 108.857H342.857V111.143H345.143V108.857Z" fill="#0A0909"/>
<path d="M347.429 108.857H345.143V111.143H347.429V108.857Z" fill="#0A0909"/>
<path d="M352 108.857H349.714V111.143H352V108.857Z" fill="#0A0909"/>
<path d="M306.286 111.143H304V113.429H306.286V111.143Z" fill="#0A0909"/>
<path d="M310.857 111.143H308.571V113.429H310.857V111.143Z" fill="#0A0909"/>
<path d="M313.143 111.143H310.857V113.429H313.143V111.143Z" fill="#0A0909"/>
<path d="M315.429 111.143H313.143V113.429H315.429V111.143Z" fill="#0A0909"/>
<path d="M320 111.143H317.714V113.429H320V111.143Z" fill="#0A0909"/>
<path d="M324.571 111.143H322.286V113.429H324.571V111.143Z" fill="#0A0909"/>
<path d="M326.857 111.143H324.571V113.429H326.857V111.143Z" fill="#0A0909"/>
<path d="M331.429 111.143H329.143L329.143 113.429H331.429V111.143Z" fill="#0A0909"/>
<path d="M333.714 111.143H331.429V113.429H333.714V111.143Z" fill="#0A0909"/>
<path d="M338.286 111.143H336V113.429H338.286V111.143Z" fill="#0A0909"/>
<path d="M342.857 111.143H340.571V113.429H342.857V111.143Z" fill="#0A0909"/>
<path d="M345.143 111.143H342.857V113.429H345.143V111.143Z" fill="#0A0909"/>
<path d="M347.429 111.143H345.143V113.429H347.429V111.143Z" fill="#0A0909"/>
<path d="M352 111.143H349.714V113.429H352V111.143Z" fill="#0A0909"/>
<path d="M306.286 113.429H304V115.714H306.286V113.429Z" fill="#0A0909"/>
<path d="M320 113.429H317.714V115.714H320V113.429Z" fill="#0A0909"/>
<path d="M324.571 113.429H322.286V115.714H324.571V113.429Z" fill="#0A0909"/>
<path d="M326.857 113.429H324.571V115.714H326.857V113.429Z" fill="#0A0909"/>
<path d="M329.143 113.429H326.857V115.714H329.143L329.143 113.429Z" fill="#0A0909"/>
<path d="M333.714 113.429H331.429V115.714H333.714V113.429Z" fill="#0A0909"/>
<path d="M338.286 113.429H336V115.714H338.286V113.429Z" fill="#0A0909"/>
<path d="M352 113.429H349.714V115.714H352V113.429Z" fill="#0A0909"/>
<path d="M306.286 115.714H304V118H306.286V115.714Z" fill="#0A0909"/>
<path d="M308.571 115.714H306.286V118H308.571V115.714Z" fill="#0A0909"/>
<path d="M310.857 115.714H308.571V118H310.857V115.714Z" fill="#0A0909"/>
<path d="M313.143 115.714H310.857V118H313.143V115.714Z" fill="#0A0909"/>
<path d="M315.429 115.714H313.143V118H315.429V115.714Z" fill="#0A0909"/>
<path d="M317.714 115.714H315.429V118H317.714V115.714Z" fill="#0A0909"/>
<path d="M320 115.714H317.714V118H320V115.714Z" fill="#0A0909"/>
<path d="M324.571 115.714H322.286V118H324.571V115.714Z" fill="#0A0909"/>
<path d="M329.143 115.714H326.857L326.857 118H329.143V115.714Z" fill="#0A0909"/>
<path d="M333.714 115.714H331.429V118H333.714V115.714Z" fill="#0A0909"/>
<path d="M338.286 115.714H336V118H338.286V115.714Z" fill="#0A0909"/>
<path d="M340.571 115.714H338.286V118H340.571V115.714Z" fill="#0A0909"/>
<path d="M342.857 115.714H340.571V118H342.857V115.714Z" fill="#0A0909"/>
<path d="M345.143 115.714H342.857V118H345.143V115.714Z" fill="#0A0909"/>
<path d="M347.429 115.714H345.143V118H347.429V115.714Z" fill="#0A0909"/>
<path d="M349.714 115.714H347.429V118H349.714V115.714Z" fill="#0A0909"/>
<path d="M352 115.714H349.714V118H352V115.714Z" fill="#0A0909"/>
<path d="M329.143 118H326.857V120.286H329.143V118Z" fill="#0A0909"/>
<path d="M331.429 118H329.143V120.286H331.429V118Z" fill="#0A0909"/>
<path d="M333.714 118H331.429V120.286H333.714V118Z" fill="#0A0909"/>
<path d="M310.857 120.286H308.571V122.571H310.857V120.286Z" fill="#0A0909"/>
<path d="M313.143 120.286H310.857V122.571H313.143V120.286Z" fill="#0A0909"/>
<path d="M315.429 120.286H313.143V122.571H315.429V120.286Z" fill="#0A0909"/>
<path d="M317.714 120.286H315.429V122.571H317.714V120.286Z" fill="#0A0909"/>
<path d="M320 120.286H317.714V122.571H320V120.286Z" fill="#0A0909"/>
<path d="M322.286 120.286H320V122.571H322.286V120.286Z" fill="#0A0909"/>
<path d="M329.143 120.286H326.857V122.571H329.143V120.286Z" fill="#0A0909"/>
<path d="M331.429 120.286H329.143V122.571H331.429V120.286Z" fill="#0A0909"/>
<path d="M336 120.286L333.714 120.286V122.571H336V120.286Z" fill="#0A0909"/>
<path d="M340.571 120.286H338.286V122.571H340.571V120.286Z" fill="#0A0909"/>
<path d="M342.857 120.286H340.571V122.571H342.857V120.286Z" fill="#0A0909"/>
<path d="M345.143 120.286H342.857V122.571H345.143V120.286Z" fill="#0A0909"/>
<path d="M347.429 120.286H345.143V122.571H347.429V120.286Z" fill="#0A0909"/>
<path d="M352 120.286H349.714V122.571H352V120.286Z" fill="#0A0909"/>
<path d="M306.286 122.571H304V124.857H306.286V122.571Z" fill="#0A0909"/>
<path d="M308.571 122.571H306.286V124.857H308.571V122.571Z" fill="#0A0909"/>
<path d="M310.857 122.571H308.571V124.857H310.857V122.571Z" fill="#0A0909"/>
<path d="M313.143 122.571H310.857V124.857H313.143V122.571Z" fill="#0A0909"/>
<path d="M333.714 122.571H331.429V124.857H333.714V122.571Z" fill="#0A0909"/>
<path d="M336 122.571H333.714V124.857H336V122.571Z" fill="#0A0909"/>
<path d="M342.857 122.571H340.571V124.857H342.857V122.571Z" fill="#0A0909"/>
<path d="M345.143 122.571H342.857V124.857H345.143V122.571Z" fill="#0A0909"/>
<path d="M349.714 122.571H347.429V124.857H349.714V122.571Z" fill="#0A0909"/>
<path d="M306.286 124.857H304V127.143H306.286V124.857Z" fill="#0A0909"/>
<path d="M313.143 124.857H310.857V127.143H313.143V124.857Z" fill="#0A0909"/>
<path d="M317.714 124.857H315.429V127.143H317.714V124.857Z" fill="#0A0909"/>
<path d="M320 124.857H317.714V127.143H320V124.857Z" fill="#0A0909"/>
<path d="M326.857 124.857H324.571V127.143H326.857V124.857Z" fill="#0A0909"/>
<path d="M336 124.857H333.714V127.143H336V124.857Z" fill="#0A0909"/>
<path d="M345.143 124.857H342.857V127.143H345.143V124.857Z" fill="#0A0909"/>
<path d="M349.714 124.857H347.429V127.143H349.714V124.857Z" fill="#0A0909"/>
<path d="M352 124.857L349.714 124.857V127.143H352V124.857Z" fill="#0A0909"/>
<path d="M308.571 127.143L306.286 127.143V129.429H308.571V127.143Z" fill="#0A0909"/>
<path d="M313.143 127.143H310.857V129.429H313.143V127.143Z" fill="#0A0909"/>
<path d="M315.429 127.143H313.143V129.429H315.429V127.143Z" fill="#0A0909"/>
<path d="M322.286 127.143L320 127.143V129.429H322.286V127.143Z" fill="#0A0909"/>
<path d="M329.143 127.143L326.857 127.143L326.857 129.429H329.143V127.143Z" fill="#0A0909"/>
<path d="M333.714 127.143L331.429 127.143V129.429H333.714V127.143Z" fill="#0A0909"/>
<path d="M336 127.143H333.714V129.429H336V127.143Z" fill="#0A0909"/>
<path d="M340.571 127.143H338.286V129.429H340.571V127.143Z" fill="#0A0909"/>
<path d="M347.429 127.143H345.143V129.429H347.429V127.143Z" fill="#0A0909"/>
<path d="M352 127.143H349.714V129.429H352V127.143Z" fill="#0A0909"/>
<path d="M306.286 129.429H304V131.714H306.286V129.429Z" fill="#0A0909"/>
<path d="M308.571 129.429H306.286V131.714H308.571V129.429Z" fill="#0A0909"/>
<path d="M315.429 129.429H313.143V131.714H315.429V129.429Z" fill="#0A0909"/>
<path d="M317.714 129.429H315.429V131.714H317.714V129.429Z" fill="#0A0909"/>
<path d="M320 129.429H317.714V131.714H320V129.429Z" fill="#0A0909"/>
<path d="M322.286 129.429H320V131.714H322.286V129.429Z" fill="#0A0909"/>
<path d="M324.571 129.429H322.286V131.714H324.571V129.429Z" fill="#0A0909"/>
<path d="M326.857 129.429H324.571V131.714H326.857L326.857 129.429Z" fill="#0A0909"/>
<path d="M336 129.429H333.714V131.714H336V129.429Z" fill="#0A0909"/>
<path d="M338.286 129.429H336V131.714H338.286V129.429Z" fill="#0A0909"/>
<path d="M340.571 129.429H338.286V131.714H340.571V129.429Z" fill="#0A0909"/>
<path d="M342.857 129.429H340.571V131.714H342.857V129.429Z" fill="#0A0909"/>
<path d="M345.143 129.429H342.857V131.714H345.143V129.429Z" fill="#0A0909"/>
<path d="M329.143 131.714H326.857L326.857 134H329.143V131.714Z" fill="#0A0909"/>
<path d="M333.714 131.714H331.429V134H333.714V131.714Z" fill="#0A0909"/>
<path d="M336 131.714H333.714V134H336V131.714Z" fill="#0A0909"/>
<path d="M340.571 131.714H338.286V134H340.571V131.714Z" fill="#0A0909"/>
<path d="M347.429 131.714H345.143V134H347.429V131.714Z" fill="#0A0909"/>
<path d="M352 131.714H349.714V134H352V131.714Z" fill="#0A0909"/>
<path d="M306.286 134H304V136.286H306.286V134Z" fill="#0A0909"/>
<path d="M308.571 134H306.286V136.286H308.571V134Z" fill="#0A0909"/>
<path d="M310.857 134H308.571V136.286H310.857V134Z" fill="#0A0909"/>
<path d="M313.143 134H310.857V136.286H313.143V134Z" fill="#0A0909"/>
<path d="M315.429 134H313.143V136.286H315.429V134Z" fill="#0A0909"/>
<path d="M317.714 134H315.429V136.286H317.714V134Z" fill="#0A0909"/>
<path d="M320 134H317.714V136.286H320V134Z" fill="#0A0909"/>
<path d="M324.571 134H322.286V136.286H324.571V134Z" fill="#0A0909"/>
<path d="M336 134H333.714V136.286H336V134Z" fill="#0A0909"/>
<path d="M338.286 134H336V136.286H338.286V134Z" fill="#0A0909"/>
<path d="M340.571 134H338.286V136.286H340.571V134Z" fill="#0A0909"/>
<path d="M306.286 136.286H304V138.571H306.286V136.286Z" fill="#0A0909"/>
<path d="M320 136.286H317.714V138.571H320V136.286Z" fill="#0A0909"/>
<path d="M324.571 136.286H322.286V138.571H324.571V136.286Z" fill="#0A0909"/>
<path d="M326.857 136.286H324.571V138.571H326.857V136.286Z" fill="#0A0909"/>
<path d="M331.429 136.286H329.143V138.571H331.429V136.286Z" fill="#0A0909"/>
<path d="M338.286 136.286H336V138.571H338.286V136.286Z" fill="#0A0909"/>
<path d="M342.857 136.286H340.571V138.571H342.857V136.286Z" fill="#0A0909"/>
<path d="M345.143 136.286H342.857V138.571H345.143V136.286Z" fill="#0A0909"/>
<path d="M349.714 136.286H347.429V138.571H349.714V136.286Z" fill="#0A0909"/>
<path d="M306.286 138.571H304V140.857H306.286V138.571Z" fill="#0A0909"/>
<path d="M310.857 138.571H308.571V140.857H310.857V138.571Z" fill="#0A0909"/>
<path d="M313.143 138.571H310.857V140.857H313.143V138.571Z" fill="#0A0909"/>
<path d="M315.429 138.571H313.143V140.857H315.429V138.571Z" fill="#0A0909"/>
<path d="M320 138.571H317.714V140.857H320V138.571Z" fill="#0A0909"/>
<path d="M324.571 138.571H322.286V140.857H324.571V138.571Z" fill="#0A0909"/>
<path d="M329.143 138.571H326.857L326.857 140.857H329.143L329.143 138.571Z" fill="#0A0909"/>
<path d="M331.429 138.571H329.143L329.143 140.857H331.429V138.571Z" fill="#0A0909"/>
<path d="M333.714 138.571H331.429V140.857H333.714V138.571Z" fill="#0A0909"/>
<path d="M347.429 138.571H345.143V140.857H347.429V138.571Z" fill="#0A0909"/>
<path d="M349.714 138.571H347.429V140.857H349.714V138.571Z" fill="#0A0909"/>
<path d="M352 138.571H349.714V140.857H352V138.571Z" fill="#0A0909"/>
<path d="M306.286 140.857H304V143.143H306.286V140.857Z" fill="#0A0909"/>
<path d="M310.857 140.857H308.571V143.143H310.857V140.857Z" fill="#0A0909"/>
<path d="M313.143 140.857H310.857V143.143H313.143V140.857Z" fill="#0A0909"/>
<path d="M315.429 140.857H313.143V143.143H315.429V140.857Z" fill="#0A0909"/>
<path d="M320 140.857H317.714V143.143H320V140.857Z" fill="#0A0909"/>
<path d="M324.571 140.857H322.286V143.143H324.571V140.857Z" fill="#0A0909"/>
<path d="M326.857 140.857H324.571V143.143H326.857L326.857 140.857Z" fill="#0A0909"/>
<path d="M336 140.857H333.714V143.143H336V140.857Z" fill="#0A0909"/>
<path d="M340.571 140.857H338.286V143.143H340.571V140.857Z" fill="#0A0909"/>
<path d="M347.429 140.857H345.143V143.143H347.429V140.857Z" fill="#0A0909"/>
<path d="M352 140.857H349.714V143.143H352V140.857Z" fill="#0A0909"/>
<path d="M306.286 143.143H304V145.429H306.286V143.143Z" fill="#0A0909"/>
<path d="M310.857 143.143H308.571V145.429H310.857V143.143Z" fill="#0A0909"/>
<path d="M313.143 143.143H310.857V145.429H313.143V143.143Z" fill="#0A0909"/>
<path d="M315.429 143.143H313.143V145.429H315.429V143.143Z" fill="#0A0909"/>
<path d="M320 143.143H317.714V145.429H320V143.143Z" fill="#0A0909"/>
<path d="M324.571 143.143H322.286V145.429H324.571V143.143Z" fill="#0A0909"/>
<path d="M326.857 143.143H324.571V145.429H326.857V143.143Z" fill="#0A0909"/>
<path d="M331.429 143.143H329.143V145.429H331.429V143.143Z" fill="#0A0909"/>
<path d="M333.714 143.143H331.429V145.429H333.714V143.143Z" fill="#0A0909"/>
<path d="M342.857 143.143H340.571V145.429H342.857V143.143Z" fill="#0A0909"/>
<path d="M345.143 143.143H342.857V145.429H345.143V143.143Z" fill="#0A0909"/>
<path d="M347.429 143.143H345.143V145.429H347.429V143.143Z" fill="#0A0909"/>
<path d="M349.714 143.143H347.429V145.429H349.714V143.143Z" fill="#0A0909"/>
<path d="M352 143.143H349.714V145.429H352V143.143Z" fill="#0A0909"/>
<path d="M306.286 145.429H304V147.714H306.286V145.429Z" fill="#0A0909"/>
<path d="M320 145.429H317.714V147.714H320V145.429Z" fill="#0A0909"/>
<path d="M326.857 145.429H324.571V147.714H326.857V145.429Z" fill="#0A0909"/>
<path d="M329.143 145.429H326.857V147.714H329.143L329.143 145.429Z" fill="#0A0909"/>
<path d="M333.714 145.429H331.429V147.714H333.714V145.429Z" fill="#0A0909"/>
<path d="M338.286 145.429H336V147.714H338.286V145.429Z" fill="#0A0909"/>
<path d="M352 145.429H349.714V147.714H352V145.429Z" fill="#0A0909"/>
<path d="M306.286 147.714H304V150H306.286V147.714Z" fill="#0A0909"/>
<path d="M308.571 147.714H306.286V150H308.571V147.714Z" fill="#0A0909"/>
<path d="M310.857 147.714H308.571V150H310.857V147.714Z" fill="#0A0909"/>
<path d="M313.143 147.714H310.857V150H313.143V147.714Z" fill="#0A0909"/>
<path d="M315.429 147.714H313.143V150H315.429V147.714Z" fill="#0A0909"/>
<path d="M317.714 147.714H315.429V150H317.714V147.714Z" fill="#0A0909"/>
<path d="M320 147.714H317.714V150H320V147.714Z" fill="#0A0909"/>
<path d="M326.857 147.714H324.571V150H326.857V147.714Z" fill="#0A0909"/>
<path d="M331.429 147.714H329.143L329.143 150H331.429V147.714Z" fill="#0A0909"/>
<path d="M336 147.714H333.714V150H336V147.714Z" fill="#0A0909"/>
<path d="M340.571 147.714H338.286V150H340.571V147.714Z" fill="#0A0909"/>
<path d="M292 171H364C365.657 171 367 172.343 367 174V190C367 191.657 365.657 193 364 193H292C290.343 193 289 191.657 289 190V174C289 172.343 290.343 171 292 171Z" stroke="#0A0909" stroke-width="2"/>
<path d="M324.324 177.88V178.96H322.054V185H320.804V178.96H318.534V177.88H324.324ZM328.498 183.39C328.368 183.95 328.088 184.39 327.668 184.7C327.248 185.02 326.738 185.17 326.158 185.17C325.378 185.17 324.758 184.92 324.298 184.42C323.838 183.92 323.618 183.27 323.618 182.48C323.618 181.68 323.848 181.01 324.318 180.48C324.788 179.96 325.388 179.69 326.118 179.69C326.868 179.69 327.468 179.95 327.908 180.47C328.348 180.99 328.568 181.69 328.568 182.58V182.7H324.758C324.768 183.22 324.898 183.63 325.148 183.91C325.388 184.19 325.738 184.33 326.178 184.33C326.488 184.33 326.738 184.26 326.938 184.11C327.138 183.96 327.288 183.72 327.408 183.39H328.498ZM327.428 181.94C327.388 181.51 327.258 181.17 327.018 180.92C326.778 180.67 326.478 180.54 326.108 180.54C325.728 180.54 325.428 180.66 325.198 180.9C324.968 181.14 324.828 181.49 324.778 181.94H327.428ZM330.815 182.29L329.025 179.84H330.405L331.485 181.43L332.615 179.84H333.935L332.185 182.23L334.155 185H332.785L331.475 183.1L330.205 185H328.865L330.815 182.29ZM337.326 179.84V180.67H336.286V183.39C336.286 183.55 336.286 183.67 336.296 183.73C336.296 183.79 336.316 183.86 336.356 183.94C336.386 184.02 336.446 184.07 336.526 184.09C336.606 184.12 336.726 184.13 336.876 184.13C337.056 184.13 337.206 184.13 337.326 184.11V185.01C337.096 185.04 336.836 185.05 336.556 185.05C336.356 185.05 336.176 185.04 336.026 185.01C335.876 184.98 335.756 184.94 335.656 184.9C335.556 184.86 335.466 184.8 335.406 184.7C335.336 184.6 335.286 184.52 335.246 184.46C335.206 184.4 335.186 184.28 335.166 184.12C335.146 183.96 335.146 183.84 335.146 183.76V183.32V183.26V183.2V183.13V180.67H334.286V179.84H335.146V178.29H336.286V179.84H337.326Z" fill="#0A0909"/>
<path d="M402 78.5H478C483.247 78.5 487.5 82.7533 487.5 88V192C487.5 197.247 483.247 201.5 478 201.5H402C396.753 201.5 392.5 197.247 392.5 192V88C392.5 82.7533 396.753 78.5 402 78.5Z" fill="white"/>
<path d="M402 78.5H478C483.247 78.5 487.5 82.7533 487.5 88V192C487.5 197.247 483.247 201.5 478 201.5H402C396.753 201.5 392.5 197.247 392.5 192V88C392.5 82.7533 396.753 78.5 402 78.5Z" stroke="#D3D8EB"/>
<path d="M408 87H472C475.866 87 479 90.134 479 94V158C479 161.866 475.866 165 472 165H408C404.134 165 401 161.866 401 158V94C401 90.134 404.134 87 408 87Z" stroke="#0A0909" stroke-width="2"/>
<path d="M418.286 102H416V104.286H418.286V102Z" fill="#0A0909"/>
<path d="M420.571 102H418.286V104.286H420.571V102Z" fill="#0A0909"/>
<path d="M422.857 102H420.571V104.286H422.857V102Z" fill="#0A0909"/>
<path d="M425.143 102H422.857V104.286H425.143V102Z" fill="#0A0909"/>
<path d="M427.429 102H425.143V104.286H427.429V102Z" fill="#0A0909"/>
<path d="M429.714 102H427.429V104.286H429.714V102Z" fill="#0A0909"/>
<path d="M432 102H429.714V104.286H432V102Z" fill="#0A0909"/>
<path d="M436.571 102H434.286V104.286H436.571V102Z" fill="#0A0909"/>
<path d="M443.429 102H441.143V104.286H443.429V102Z" fill="#0A0909"/>
<path d="M450.286 102H448V104.286H450.286V102Z" fill="#0A0909"/>
<path d="M452.571 102H450.286V104.286H452.571V102Z" fill="#0A0909"/>
<path d="M454.857 102H452.571V104.286H454.857V102Z" fill="#0A0909"/>
<path d="M457.143 102H454.857V104.286H457.143V102Z" fill="#0A0909"/>
<path d="M459.429 102H457.143V104.286H459.429V102Z" fill="#0A0909"/>
<path d="M461.714 102H459.429V104.286H461.714V102Z" fill="#0A0909"/>
<path d="M464 102H461.714V104.286H464V102Z" fill="#0A0909"/>
<path d="M418.286 104.286H416V106.571H418.286V104.286Z" fill="#0A0909"/>
<path d="M432 104.286H429.714V106.571H432V104.286Z" fill="#0A0909"/>
<path d="M441.143 104.286H438.857V106.571H441.143L441.143 104.286Z" fill="#0A0909"/>
<path d="M445.714 104.286H443.429V106.571H445.714V104.286Z" fill="#0A0909"/>
<path d="M450.286 104.286H448V106.571H450.286V104.286Z" fill="#0A0909"/>
<path d="M464 104.286H461.714V106.571H464V104.286Z" fill="#0A0909"/>
<path d="M418.286 106.571H416V108.857H418.286V106.571Z" fill="#0A0909"/>
<path d="M422.857 106.571H420.571V108.857H422.857V106.571Z" fill="#0A0909"/>
<path d="M425.143 106.571H422.857V108.857H425.143V106.571Z" fill="#0A0909"/>
<path d="M427.429 106.571H425.143V108.857H427.429V106.571Z" fill="#0A0909"/>
<path d="M432 106.571H429.714V108.857H432V106.571Z" fill="#0A0909"/>
<path d="M436.571 106.571H434.286V108.857H436.571V106.571Z" fill="#0A0909"/>
<path d="M438.857 106.571H436.571V108.857H438.857L438.857 106.571Z" fill="#0A0909"/>
<path d="M445.714 106.571H443.429V108.857H445.714V106.571Z" fill="#0A0909"/>
<path d="M450.286 106.571H448V108.857H450.286V106.571Z" fill="#0A0909"/>
<path d="M454.857 106.571H452.571V108.857H454.857V106.571Z" fill="#0A0909"/>
<path d="M457.143 106.571H454.857V108.857H457.143V106.571Z" fill="#0A0909"/>
<path d="M459.429 106.571H457.143V108.857H459.429V106.571Z" fill="#0A0909"/>
<path d="M464 106.571H461.714V108.857H464V106.571Z" fill="#0A0909"/>
<path d="M418.286 108.857H416V111.143H418.286V108.857Z" fill="#0A0909"/>
<path d="M422.857 108.857H420.571V111.143H422.857V108.857Z" fill="#0A0909"/>
<path d="M425.143 108.857H422.857V111.143H425.143V108.857Z" fill="#0A0909"/>
<path d="M427.429 108.857H425.143V111.143H427.429V108.857Z" fill="#0A0909"/>
<path d="M432 108.857H429.714V111.143H432V108.857Z" fill="#0A0909"/>
<path d="M436.571 108.857H434.286V111.143H436.571V108.857Z" fill="#0A0909"/>
<path d="M438.857 108.857H436.571V111.143H438.857V108.857Z" fill="#0A0909"/>
<path d="M441.143 108.857H438.857V111.143H441.143V108.857Z" fill="#0A0909"/>
<path d="M443.429 108.857H441.143V111.143H443.429V108.857Z" fill="#0A0909"/>
<path d="M445.714 108.857H443.429V111.143H445.714V108.857Z" fill="#0A0909"/>
<path d="M450.286 108.857H448V111.143H450.286V108.857Z" fill="#0A0909"/>
<path d="M454.857 108.857H452.571V111.143H454.857V108.857Z" fill="#0A0909"/>
<path d="M457.143 108.857H454.857V111.143H457.143V108.857Z" fill="#0A0909"/>
<path d="M459.429 108.857H457.143V111.143H459.429V108.857Z" fill="#0A0909"/>
<path d="M464 108.857H461.714V111.143H464V108.857Z" fill="#0A0909"/>
<path d="M418.286 111.143H416V113.429H418.286V111.143Z" fill="#0A0909"/>
<path d="M422.857 111.143H420.571V113.429H422.857V111.143Z" fill="#0A0909"/>
<path d="M425.143 111.143H422.857V113.429H425.143V111.143Z" fill="#0A0909"/>
<path d="M427.429 111.143H425.143V113.429H427.429V111.143Z" fill="#0A0909"/>
<path d="M432 111.143H429.714V113.429H432V111.143Z" fill="#0A0909"/>
<path d="M436.571 111.143H434.286V113.429H436.571V111.143Z" fill="#0A0909"/>
<path d="M438.857 111.143H436.571V113.429H438.857V111.143Z" fill="#0A0909"/>
<path d="M443.429 111.143H441.143L441.143 113.429H443.429V111.143Z" fill="#0A0909"/>
<path d="M445.714 111.143H443.429V113.429H445.714V111.143Z" fill="#0A0909"/>
<path d="M450.286 111.143H448V113.429H450.286V111.143Z" fill="#0A0909"/>
<path d="M454.857 111.143H452.571V113.429H454.857V111.143Z" fill="#0A0909"/>
<path d="M457.143 111.143H454.857V113.429H457.143V111.143Z" fill="#0A0909"/>
<path d="M459.429 111.143H457.143V113.429H459.429V111.143Z" fill="#0A0909"/>
<path d="M464 111.143H461.714V113.429H464V111.143Z" fill="#0A0909"/>
<path d="M418.286 113.429H416V115.714H418.286V113.429Z" fill="#0A0909"/>
<path d="M432 113.429H429.714V115.714H432V113.429Z" fill="#0A0909"/>
<path d="M436.571 113.429H434.286V115.714H436.571V113.429Z" fill="#0A0909"/>
<path d="M438.857 113.429H436.571V115.714H438.857V113.429Z" fill="#0A0909"/>
<path d="M441.143 113.429H438.857V115.714H441.143L441.143 113.429Z" fill="#0A0909"/>
<path d="M445.714 113.429H443.429V115.714H445.714V113.429Z" fill="#0A0909"/>
<path d="M450.286 113.429H448V115.714H450.286V113.429Z" fill="#0A0909"/>
<path d="M464 113.429H461.714V115.714H464V113.429Z" fill="#0A0909"/>
<path d="M418.286 115.714H416V118H418.286V115.714Z" fill="#0A0909"/>
<path d="M420.571 115.714H418.286V118H420.571V115.714Z" fill="#0A0909"/>
<path d="M422.857 115.714H420.571V118H422.857V115.714Z" fill="#0A0909"/>
<path d="M425.143 115.714H422.857V118H425.143V115.714Z" fill="#0A0909"/>
<path d="M427.429 115.714H425.143V118H427.429V115.714Z" fill="#0A0909"/>
<path d="M429.714 115.714H427.429V118H429.714V115.714Z" fill="#0A0909"/>
<path d="M432 115.714H429.714V118H432V115.714Z" fill="#0A0909"/>
<path d="M436.571 115.714H434.286V118H436.571V115.714Z" fill="#0A0909"/>
<path d="M441.143 115.714H438.857L438.857 118H441.143V115.714Z" fill="#0A0909"/>
<path d="M445.714 115.714H443.429V118H445.714V115.714Z" fill="#0A0909"/>
<path d="M450.286 115.714H448V118H450.286V115.714Z" fill="#0A0909"/>
<path d="M452.571 115.714H450.286V118H452.571V115.714Z" fill="#0A0909"/>
<path d="M454.857 115.714H452.571V118H454.857V115.714Z" fill="#0A0909"/>
<path d="M457.143 115.714H454.857V118H457.143V115.714Z" fill="#0A0909"/>
<path d="M459.429 115.714H457.143V118H459.429V115.714Z" fill="#0A0909"/>
<path d="M461.714 115.714H459.429V118H461.714V115.714Z" fill="#0A0909"/>
<path d="M464 115.714H461.714V118H464V115.714Z" fill="#0A0909"/>
<path d="M441.143 118H438.857V120.286H441.143V118Z" fill="#0A0909"/>
<path d="M443.429 118H441.143V120.286H443.429V118Z" fill="#0A0909"/>
<path d="M445.714 118H443.429V120.286H445.714V118Z" fill="#0A0909"/>
<path d="M422.857 120.286H420.571V122.571H422.857V120.286Z" fill="#0A0909"/>
<path d="M425.143 120.286H422.857V122.571H425.143V120.286Z" fill="#0A0909"/>
<path d="M427.429 120.286H425.143V122.571H427.429V120.286Z" fill="#0A0909"/>
<path d="M429.714 120.286H427.429V122.571H429.714V120.286Z" fill="#0A0909"/>
<path d="M432 120.286H429.714V122.571H432V120.286Z" fill="#0A0909"/>
<path d="M434.286 120.286H432V122.571H434.286V120.286Z" fill="#0A0909"/>
<path d="M441.143 120.286H438.857V122.571H441.143V120.286Z" fill="#0A0909"/>
<path d="M443.429 120.286H441.143V122.571H443.429V120.286Z" fill="#0A0909"/>
<path d="M448 120.286L445.714 120.286V122.571H448V120.286Z" fill="#0A0909"/>
<path d="M452.571 120.286H450.286V122.571H452.571V120.286Z" fill="#0A0909"/>
<path d="M454.857 120.286H452.571V122.571H454.857V120.286Z" fill="#0A0909"/>
<path d="M457.143 120.286H454.857V122.571H457.143V120.286Z" fill="#0A0909"/>
<path d="M459.429 120.286H457.143V122.571H459.429V120.286Z" fill="#0A0909"/>
<path d="M464 120.286H461.714V122.571H464V120.286Z" fill="#0A0909"/>
<path d="M418.286 122.571H416V124.857H418.286V122.571Z" fill="#0A0909"/>
<path d="M420.571 122.571H418.286V124.857H420.571V122.571Z" fill="#0A0909"/>
<path d="M422.857 122.571H420.571V124.857H422.857V122.571Z" fill="#0A0909"/>
<path d="M425.143 122.571H422.857V124.857H425.143V122.571Z" fill="#0A0909"/>
<path d="M445.714 122.571H443.429V124.857H445.714V122.571Z" fill="#0A0909"/>
<path d="M448 122.571H445.714V124.857H448V122.571Z" fill="#0A0909"/>
<path d="M454.857 122.571H452.571V124.857H454.857V122.571Z" fill="#0A0909"/>
<path d="M457.143 122.571H454.857V124.857H457.143V122.571Z" fill="#0A0909"/>
<path d="M461.714 122.571H459.429V124.857H461.714V122.571Z" fill="#0A0909"/>
<path d="M418.286 124.857H416V127.143H418.286V124.857Z" fill="#0A0909"/>
<path d="M425.143 124.857H422.857V127.143H425.143V124.857Z" fill="#0A0909"/>
<path d="M429.714 124.857H427.429V127.143H429.714V124.857Z" fill="#0A0909"/>
<path d="M432 124.857H429.714V127.143H432V124.857Z" fill="#0A0909"/>
<path d="M438.857 124.857H436.571V127.143H438.857V124.857Z" fill="#0A0909"/>
<path d="M448 124.857H445.714V127.143H448V124.857Z" fill="#0A0909"/>
<path d="M457.143 124.857H454.857V127.143H457.143V124.857Z" fill="#0A0909"/>
<path d="M461.714 124.857H459.429V127.143H461.714V124.857Z" fill="#0A0909"/>
<path d="M464 124.857L461.714 124.857V127.143H464V124.857Z" fill="#0A0909"/>
<path d="M420.571 127.143L418.286 127.143V129.429H420.571V127.143Z" fill="#0A0909"/>
<path d="M425.143 127.143H422.857V129.429H425.143V127.143Z" fill="#0A0909"/>
<path d="M427.429 127.143H425.143V129.429H427.429V127.143Z" fill="#0A0909"/>
<path d="M434.286 127.143L432 127.143V129.429H434.286V127.143Z" fill="#0A0909"/>
<path d="M441.143 127.143L438.857 127.143L438.857 129.429H441.143V127.143Z" fill="#0A0909"/>
<path d="M445.714 127.143L443.429 127.143V129.429H445.714V127.143Z" fill="#0A0909"/>
<path d="M448 127.143H445.714V129.429H448V127.143Z" fill="#0A0909"/>
<path d="M452.571 127.143H450.286V129.429H452.571V127.143Z" fill="#0A0909"/>
<path d="M459.429 127.143H457.143V129.429H459.429V127.143Z" fill="#0A0909"/>
<path d="M464 127.143H461.714V129.429H464V127.143Z" fill="#0A0909"/>
<path d="M418.286 129.429H416V131.714H418.286V129.429Z" fill="#0A0909"/>
<path d="M420.571 129.429H418.286V131.714H420.571V129.429Z" fill="#0A0909"/>
<path d="M427.429 129.429H425.143V131.714H427.429V129.429Z" fill="#0A0909"/>
<path d="M429.714 129.429H427.429V131.714H429.714V129.429Z" fill="#0A0909"/>
<path d="M432 129.429H429.714V131.714H432V129.429Z" fill="#0A0909"/>
<path d="M434.286 129.429H432V131.714H434.286V129.429Z" fill="#0A0909"/>
<path d="M436.571 129.429H434.286V131.714H436.571V129.429Z" fill="#0A0909"/>
<path d="M438.857 129.429H436.571V131.714H438.857L438.857 129.429Z" fill="#0A0909"/>
<path d="M448 129.429H445.714V131.714H448V129.429Z" fill="#0A0909"/>
<path d="M450.286 129.429H448V131.714H450.286V129.429Z" fill="#0A0909"/>
<path d="M452.571 129.429H450.286V131.714H452.571V129.429Z" fill="#0A0909"/>
<path d="M454.857 129.429H452.571V131.714H454.857V129.429Z" fill="#0A0909"/>
<path d="M457.143 129.429H454.857V131.714H457.143V129.429Z" fill="#0A0909"/>
<path d="M441.143 131.714H438.857L438.857 134H441.143V131.714Z" fill="#0A0909"/>
<path d="M445.714 131.714H443.429V134H445.714V131.714Z" fill="#0A0909"/>
<path d="M448 131.714H445.714V134H448V131.714Z" fill="#0A0909"/>
<path d="M452.571 131.714H450.286V134H452.571V131.714Z" fill="#0A0909"/>
<path d="M459.429 131.714H457.143V134H459.429V131.714Z" fill="#0A0909"/>
<path d="M464 131.714H461.714V134H464V131.714Z" fill="#0A0909"/>
<path d="M418.286 134H416V136.286H418.286V134Z" fill="#0A0909"/>
<path d="M420.571 134H418.286V136.286H420.571V134Z" fill="#0A0909"/>
<path d="M422.857 134H420.571V136.286H422.857V134Z" fill="#0A0909"/>
<path d="M425.143 134H422.857V136.286H425.143V134Z" fill="#0A0909"/>
<path d="M427.429 134H425.143V136.286H427.429V134Z" fill="#0A0909"/>
<path d="M429.714 134H427.429V136.286H429.714V134Z" fill="#0A0909"/>
<path d="M432 134H429.714V136.286H432V134Z" fill="#0A0909"/>
<path d="M436.571 134H434.286V136.286H436.571V134Z" fill="#0A0909"/>
<path d="M448 134H445.714V136.286H448V134Z" fill="#0A0909"/>
<path d="M450.286 134H448V136.286H450.286V134Z" fill="#0A0909"/>
<path d="M452.571 134H450.286V136.286H452.571V134Z" fill="#0A0909"/>
<path d="M418.286 136.286H416V138.571H418.286V136.286Z" fill="#0A0909"/>
<path d="M432 136.286H429.714V138.571H432V136.286Z" fill="#0A0909"/>
<path d="M436.571 136.286H434.286V138.571H436.571V136.286Z" fill="#0A0909"/>
<path d="M438.857 136.286H436.571V138.571H438.857V136.286Z" fill="#0A0909"/>
<path d="M443.429 136.286H441.143V138.571H443.429V136.286Z" fill="#0A0909"/>
<path d="M450.286 136.286H448V138.571H450.286V136.286Z" fill="#0A0909"/>
<path d="M454.857 136.286H452.571V138.571H454.857V136.286Z" fill="#0A0909"/>
<path d="M457.143 136.286H454.857V138.571H457.143V136.286Z" fill="#0A0909"/>
<path d="M461.714 136.286H459.429V138.571H461.714V136.286Z" fill="#0A0909"/>
<path d="M418.286 138.571H416V140.857H418.286V138.571Z" fill="#0A0909"/>
<path d="M422.857 138.571H420.571V140.857H422.857V138.571Z" fill="#0A0909"/>
<path d="M425.143 138.571H422.857V140.857H425.143V138.571Z" fill="#0A0909"/>
<path d="M427.429 138.571H425.143V140.857H427.429V138.571Z" fill="#0A0909"/>
<path d="M432 138.571H429.714V140.857H432V138.571Z" fill="#0A0909"/>
<path d="M436.571 138.571H434.286V140.857H436.571V138.571Z" fill="#0A0909"/>
<path d="M441.143 138.571H438.857L438.857 140.857H441.143L441.143 138.571Z" fill="#0A0909"/>
<path d="M443.429 138.571H441.143L441.143 140.857H443.429V138.571Z" fill="#0A0909"/>
<path d="M445.714 138.571H443.429V140.857H445.714V138.571Z" fill="#0A0909"/>
<path d="M459.429 138.571H457.143V140.857H459.429V138.571Z" fill="#0A0909"/>
<path d="M461.714 138.571H459.429V140.857H461.714V138.571Z" fill="#0A0909"/>
<path d="M464 138.571H461.714V140.857H464V138.571Z" fill="#0A0909"/>
<path d="M418.286 140.857H416V143.143H418.286V140.857Z" fill="#0A0909"/>
<path d="M422.857 140.857H420.571V143.143H422.857V140.857Z" fill="#0A0909"/>
<path d="M425.143 140.857H422.857V143.143H425.143V140.857Z" fill="#0A0909"/>
<path d="M427.429 140.857H425.143V143.143H427.429V140.857Z" fill="#0A0909"/>
<path d="M432 140.857H429.714V143.143H432V140.857Z" fill="#0A0909"/>
<path d="M436.571 140.857H434.286V143.143H436.571V140.857Z" fill="#0A0909"/>
<path d="M438.857 140.857H436.571V143.143H438.857L438.857 140.857Z" fill="#0A0909"/>
<path d="M448 140.857H445.714V143.143H448V140.857Z" fill="#0A0909"/>
<path d="M452.571 140.857H450.286V143.143H452.571V140.857Z" fill="#0A0909"/>
<path d="M459.429 140.857H457.143V143.143H459.429V140.857Z" fill="#0A0909"/>
<path d="M464 140.857H461.714V143.143H464V140.857Z" fill="#0A0909"/>
<path d="M418.286 143.143H416V145.429H418.286V143.143Z" fill="#0A0909"/>
<path d="M422.857 143.143H420.571V145.429H422.857V143.143Z" fill="#0A0909"/>
<path d="M425.143 143.143H422.857V145.429H425.143V143.143Z" fill="#0A0909"/>
<path d="M427.429 143.143H425.143V145.429H427.429V143.143Z" fill="#0A0909"/>
<path d="M432 143.143H429.714V145.429H432V143.143Z" fill="#0A0909"/>
<path d="M436.571 143.143H434.286V145.429H436.571V143.143Z" fill="#0A0909"/>
<path d="M438.857 143.143H436.571V145.429H438.857V143.143Z" fill="#0A0909"/>
<path d="M443.429 143.143H441.143V145.429H443.429V143.143Z" fill="#0A0909"/>
<path d="M445.714 143.143H443.429V145.429H445.714V143.143Z" fill="#0A0909"/>
<path d="M454.857 143.143H452.571V145.429H454.857V143.143Z" fill="#0A0909"/>
<path d="M457.143 143.143H454.857V145.429H457.143V143.143Z" fill="#0A0909"/>
<path d="M459.429 143.143H457.143V145.429H459.429V143.143Z" fill="#0A0909"/>
<path d="M461.714 143.143H459.429V145.429H461.714V143.143Z" fill="#0A0909"/>
<path d="M464 143.143H461.714V145.429H464V143.143Z" fill="#0A0909"/>
<path d="M418.286 145.429H416V147.714H418.286V145.429Z" fill="#0A0909"/>
<path d="M432 145.429H429.714V147.714H432V145.429Z" fill="#0A0909"/>
<path d="M438.857 145.429H436.571V147.714H438.857V145.429Z" fill="#0A0909"/>
<path d="M441.143 145.429H438.857V147.714H441.143L441.143 145.429Z" fill="#0A0909"/>
<path d="M445.714 145.429H443.429V147.714H445.714V145.429Z" fill="#0A0909"/>
<path d="M450.286 145.429H448V147.714H450.286V145.429Z" fill="#0A0909"/>
<path d="M464 145.429H461.714V147.714H464V145.429Z" fill="#0A0909"/>
<path d="M418.286 147.714H416V150H418.286V147.714Z" fill="#0A0909"/>
<path d="M420.571 147.714H418.286V150H420.571V147.714Z" fill="#0A0909"/>
<path d="M422.857 147.714H420.571V150H422.857V147.714Z" fill="#0A0909"/>
<path d="M425.143 147.714H422.857V150H425.143V147.714Z" fill="#0A0909"/>
<path d="M427.429 147.714H425.143V150H427.429V147.714Z" fill="#0A0909"/>
<path d="M429.714 147.714H427.429V150H429.714V147.714Z" fill="#0A0909"/>
<path d="M432 147.714H429.714V150H432V147.714Z" fill="#0A0909"/>
<path d="M438.857 147.714H436.571V150H438.857V147.714Z" fill="#0A0909"/>
<path d="M443.429 147.714H441.143L441.143 150H443.429V147.714Z" fill="#0A0909"/>
<path d="M448 147.714H445.714V150H448V147.714Z" fill="#0A0909"/>
<path d="M452.571 147.714H450.286V150H452.571V147.714Z" fill="#0A0909"/>
<path d="M404 170.5H476C477.933 170.5 479.5 172.067 479.5 174V190C479.5 191.933 477.933 193.5 476 193.5H404C402.067 193.5 400.5 191.933 400.5 190V174C400.5 172.067 402.067 170.5 404 170.5Z" fill="#0A0909"/>
<path d="M404 170.5H476C477.933 170.5 479.5 172.067 479.5 174V190C479.5 191.933 477.933 193.5 476 193.5H404C402.067 193.5 400.5 191.933 400.5 190V174C400.5 172.067 402.067 170.5 404 170.5Z" stroke="#0A0909"/>
<path d="M436.324 177.88V178.96H434.054V185H432.804V178.96H430.534V177.88H436.324ZM440.498 183.39C440.368 183.95 440.088 184.39 439.668 184.7C439.248 185.02 438.738 185.17 438.158 185.17C437.378 185.17 436.758 184.92 436.298 184.42C435.838 183.92 435.618 183.27 435.618 182.48C435.618 181.68 435.848 181.01 436.318 180.48C436.788 179.96 437.388 179.69 438.118 179.69C438.868 179.69 439.468 179.95 439.908 180.47C440.348 180.99 440.568 181.69 440.568 182.58V182.7H436.758C436.768 183.22 436.898 183.63 437.148 183.91C437.388 184.19 437.738 184.33 438.178 184.33C438.488 184.33 438.738 184.26 438.938 184.11C439.138 183.96 439.288 183.72 439.408 183.39H440.498ZM439.428 181.94C439.388 181.51 439.258 181.17 439.018 180.92C438.778 180.67 438.478 180.54 438.108 180.54C437.728 180.54 437.428 180.66 437.198 180.9C436.968 181.14 436.828 181.49 436.778 181.94H439.428ZM442.815 182.29L441.025 179.84H442.405L443.485 181.43L444.615 179.84H445.935L444.185 182.23L446.155 185H444.785L443.475 183.1L442.205 185H440.865L442.815 182.29ZM449.326 179.84V180.67H448.286V183.39C448.286 183.55 448.286 183.67 448.296 183.73C448.296 183.79 448.316 183.86 448.356 183.94C448.386 184.02 448.446 184.07 448.526 184.09C448.606 184.12 448.726 184.13 448.876 184.13C449.056 184.13 449.206 184.13 449.326 184.11V185.01C449.096 185.04 448.836 185.05 448.556 185.05C448.356 185.05 448.176 185.04 448.026 185.01C447.876 184.98 447.756 184.94 447.656 184.9C447.556 184.86 447.466 184.8 447.406 184.7C447.336 184.6 447.286 184.52 447.246 184.46C447.206 184.4 447.186 184.28 447.166 184.12C447.146 183.96 447.146 183.84 447.146 183.76V183.32V183.26V183.2V183.13V180.67H446.286V179.84H447.146V178.29H448.286V179.84H449.326Z" fill="white"/>
</g>
<rect x="56" y="218" width="388" height="3.99997" rx="1.99999" fill="#F5F6FB"/>
<rect x="56" y="218" width="37.1959" height="4" rx="2" fill="#D3D8EB"/>
<defs>
<clipPath id="clip0_35554_317919">
<rect width="388" height="124" fill="white" transform="translate(56 78)"/>
</clipPath>
<clipPath id="clip1_35554_317919">
<rect width="24" height="24" fill="white" transform="translate(92 113)"/>
</clipPath>
</defs>
</svg>
