<svg width="500" height="300" viewBox="0 0 500 300" fill="none" xmlns="http://www.w3.org/2000/svg">
<rect width="500" height="300" fill="#F5F6FB"/>
<path d="M32 42C32 36.4772 36.4772 32 42 32H458C463.523 32 468 36.4772 468 42V300H32V42Z" fill="white"/>
<g clip-path="url(#clip0_35554_317744)">
<path d="M159.5 64.5H223.5C234.27 64.5 243 73.2304 243 84C243 94.7696 234.27 103.5 223.5 103.5H159.5C148.73 103.5 140 94.7696 140 84C140 73.2304 148.73 64.5 159.5 64.5Z" stroke="#D3D8EB"/>
<path d="M169.863 83.3635C170.066 83.6477 170.167 83.7898 170.167 84.0002C170.167 84.2105 170.066 84.3526 169.863 84.6368C168.953 85.9139 166.627 88.6668 163.501 88.6668C160.375 88.6668 158.049 85.9139 157.138 84.6368C156.935 84.3526 156.834 84.2105 156.834 84.0002C156.834 83.7898 156.935 83.6477 157.138 83.3635C158.049 82.0865 160.375 79.3335 163.501 79.3335C166.627 79.3335 168.953 82.0865 169.863 83.3635Z" stroke="#3F3E3E" stroke-width="1.2" stroke-linecap="round"/>
<path d="M165.501 84.0002C165.501 82.8956 164.605 82.0002 163.501 82.0002C162.396 82.0002 161.501 82.8956 161.501 84.0002C161.501 85.1047 162.396 86.0002 163.501 86.0002C164.605 86.0002 165.501 85.1047 165.501 84.0002Z" stroke="#3F3E3E" stroke-width="1.2" stroke-linecap="round"/>
<path d="M177.025 78.032H181.351C182.415 78.032 183.269 78.298 183.885 78.802C184.501 79.306 184.823 80.062 184.823 81.07C184.823 82.022 184.529 82.778 183.955 83.338C183.367 83.898 182.583 84.164 181.589 84.164H178.775V88H177.025V78.032ZM178.775 79.488V82.75H181.211C182.471 82.75 183.115 82.204 183.115 81.112C183.115 80.034 182.429 79.488 181.057 79.488H178.775ZM190.213 80.636V82.162C189.933 82.134 189.737 82.12 189.653 82.12C188.253 82.12 187.567 83.03 187.567 84.822V88H185.985V80.776H187.483V82.218C187.987 81.154 188.799 80.608 189.905 80.608L190.213 80.636ZM197.269 85.746C197.087 86.53 196.695 87.146 196.107 87.58C195.519 88.028 194.805 88.238 193.993 88.238C192.901 88.238 192.033 87.888 191.389 87.188C190.745 86.488 190.437 85.578 190.437 84.472C190.437 83.352 190.759 82.414 191.417 81.672C192.075 80.944 192.915 80.566 193.937 80.566C194.987 80.566 195.827 80.93 196.443 81.658C197.059 82.386 197.367 83.366 197.367 84.612V84.78H192.033C192.047 85.508 192.229 86.082 192.579 86.474C192.915 86.866 193.405 87.062 194.021 87.062C194.455 87.062 194.805 86.964 195.085 86.754C195.365 86.544 195.575 86.208 195.743 85.746H197.269ZM195.771 83.716C195.715 83.114 195.533 82.638 195.197 82.288C194.861 81.938 194.441 81.756 193.923 81.756C193.391 81.756 192.971 81.924 192.649 82.26C192.327 82.596 192.131 83.086 192.061 83.716H195.771ZM197.852 80.776H199.588L201.436 86.334L203.214 80.776H204.866L202.276 88.014H200.484L197.852 80.776ZM207.478 77.99V79.558H205.882V77.99H207.478ZM207.478 80.776V88H205.882V80.776H207.478ZM215.685 85.746C215.503 86.53 215.111 87.146 214.523 87.58C213.935 88.028 213.221 88.238 212.409 88.238C211.317 88.238 210.449 87.888 209.805 87.188C209.161 86.488 208.853 85.578 208.853 84.472C208.853 83.352 209.175 82.414 209.833 81.672C210.491 80.944 211.331 80.566 212.353 80.566C213.403 80.566 214.243 80.93 214.859 81.658C215.475 82.386 215.783 83.366 215.783 84.612V84.78H210.449C210.463 85.508 210.645 86.082 210.995 86.474C211.331 86.866 211.821 87.062 212.437 87.062C212.871 87.062 213.221 86.964 213.501 86.754C213.781 86.544 213.991 86.208 214.159 85.746H215.685ZM214.187 83.716C214.131 83.114 213.949 82.638 213.613 82.288C213.277 81.938 212.857 81.756 212.339 81.756C211.807 81.756 211.387 81.924 211.065 82.26C210.743 82.596 210.547 83.086 210.477 83.716H214.187ZM216.324 80.776H218.018L219.446 86.194L220.804 80.776H222.414L223.744 86.194L225.242 80.776H226.866L224.584 88H222.946L221.588 82.638L220.244 88H218.564L216.324 80.776Z" fill="#3F3E3E"/>
<path d="M251.5 84C251.5 72.9543 260.454 64 271.5 64H340.5C351.546 64 360.5 72.9543 360.5 84C360.5 95.0457 351.546 104 340.5 104H271.5C260.454 104 251.5 95.0457 251.5 84Z" fill="#01A56D"/>
<path d="M269.5 83.4C269.169 83.4 268.9 83.6686 268.9 84C268.9 84.3314 269.169 84.6 269.5 84.6L269.5 84L269.5 83.4ZM273.5 84.6C273.831 84.6 274.1 84.3314 274.1 84C274.1 83.6686 273.831 83.4 273.5 83.4V84V84.6ZM276.1 78C276.1 77.6686 275.831 77.4 275.5 77.4C275.169 77.4 274.9 77.6686 274.9 78H275.5H276.1ZM274.9 81.3333C274.9 81.6647 275.169 81.9333 275.5 81.9333C275.831 81.9333 276.1 81.6647 276.1 81.3333H275.5H274.9ZM281.5 84.6C281.831 84.6 282.1 84.3314 282.1 84C282.1 83.6686 281.831 83.4 281.5 83.4V84V84.6ZM274.9 86C274.9 86.3314 275.169 86.6 275.5 86.6C275.831 86.6 276.1 86.3314 276.1 86H275.5H274.9ZM276.1 87.8462C276.1 87.5148 275.831 87.2462 275.5 87.2462C275.169 87.2462 274.9 87.5148 274.9 87.8462H275.5H276.1ZM274.9 89.6923C274.9 90.0237 275.169 90.2923 275.5 90.2923C275.831 90.2923 276.1 90.0237 276.1 89.6923H275.5H274.9ZM278.1 86C278.1 85.6686 277.831 85.4 277.5 85.4C277.169 85.4 276.9 85.6686 276.9 86H277.5H278.1ZM278.167 90.6C278.498 90.6 278.767 90.3314 278.767 90C278.767 89.6686 278.498 89.4 278.167 89.4V90V90.6ZM277.5 89.4C277.169 89.4 276.9 89.6686 276.9 90C276.9 90.3314 277.169 90.6 277.5 90.6V90V89.4ZM278.9 88.6667C278.9 88.998 279.169 89.2667 279.5 89.2667C279.831 89.2667 280.1 88.998 280.1 88.6667H279.5H278.9ZM281.207 89.7125L281.632 90.1364V90.1364L281.207 89.7125ZM279.5 85.4C279.169 85.4 278.9 85.6686 278.9 86C278.9 86.3314 279.169 86.6 279.5 86.6V86V85.4ZM281.207 86.2933L280.783 86.7173V86.7173L281.207 86.2933ZM280.149 89.4003C279.817 89.4103 279.557 89.6869 279.567 90.0181C279.577 90.3493 279.854 90.6097 280.185 90.5997L280.167 90L280.149 89.4003ZM271.5 82V81.4C271.012 81.4 270.706 81.3987 270.483 81.3687C270.277 81.3411 270.234 81.2992 270.217 81.2828L269.793 81.7071L269.369 82.1314C269.645 82.4079 269.984 82.5125 270.323 82.558C270.644 82.6013 271.046 82.6 271.5 82.6V82ZM269.5 80H268.9C268.9 80.4544 268.899 80.8556 268.942 81.1772C268.988 81.5161 269.092 81.8549 269.369 82.1314L269.793 81.7071L270.217 81.2828C270.201 81.2665 270.159 81.2231 270.131 81.0173C270.101 80.7943 270.1 80.4884 270.1 80H269.5ZM273.5 80H272.9C272.9 80.4884 272.899 80.7943 272.869 81.0173C272.841 81.2231 272.799 81.2665 272.783 81.2828L273.207 81.7071L273.631 82.1314C273.908 81.8549 274.012 81.5161 274.058 81.1772C274.101 80.8556 274.1 80.4544 274.1 80H273.5ZM271.5 82V82.6C271.954 82.6 272.356 82.6013 272.677 82.558C273.016 82.5125 273.355 82.4079 273.631 82.1314L273.207 81.7071L272.783 81.2828C272.766 81.2992 272.723 81.3411 272.517 81.3687C272.294 81.3987 271.988 81.4 271.5 81.4V82ZM271.5 78V78.6C271.988 78.6 272.294 78.6013 272.517 78.6313C272.723 78.6589 272.766 78.7008 272.783 78.7172L273.207 78.2929L273.631 77.8686C273.355 77.5921 273.016 77.4875 272.677 77.442C272.356 77.3987 271.954 77.4 271.5 77.4V78ZM273.5 80H274.1C274.1 79.5456 274.101 79.1444 274.058 78.8228C274.012 78.4839 273.908 78.1451 273.631 77.8686L273.207 78.2929L272.783 78.7172C272.799 78.7335 272.841 78.7769 272.869 78.9827C272.899 79.2057 272.9 79.5116 272.9 80H273.5ZM271.5 78V77.4C271.046 77.4 270.644 77.3987 270.323 77.442C269.984 77.4875 269.645 77.5921 269.369 77.8686L269.793 78.2929L270.217 78.7172C270.234 78.7008 270.277 78.6589 270.483 78.6313C270.706 78.6013 271.012 78.6 271.5 78.6V78ZM269.5 80H270.1C270.1 79.5116 270.101 79.2057 270.131 78.9827C270.159 78.7769 270.201 78.7335 270.217 78.7172L269.793 78.2929L269.369 77.8686C269.092 78.1451 268.988 78.4839 268.942 78.8228C268.899 79.1444 268.9 79.5456 268.9 80H269.5ZM271.5 90V89.4C271.012 89.4 270.706 89.3987 270.483 89.3687C270.277 89.3411 270.234 89.2992 270.217 89.2828L269.793 89.7071L269.369 90.1314C269.645 90.4079 269.984 90.5125 270.323 90.558C270.644 90.6013 271.046 90.6 271.5 90.6V90ZM269.5 88H268.9C268.9 88.4544 268.899 88.8556 268.942 89.1772C268.988 89.5161 269.092 89.8549 269.369 90.1314L269.793 89.7071L270.217 89.2828C270.201 89.2665 270.159 89.2231 270.131 89.0173C270.101 88.7943 270.1 88.4884 270.1 88H269.5ZM273.5 88H272.9C272.9 88.4884 272.899 88.7943 272.869 89.0173C272.841 89.2231 272.799 89.2665 272.783 89.2828L273.207 89.7071L273.631 90.1314C273.908 89.8549 274.012 89.5161 274.058 89.1772C274.101 88.8556 274.1 88.4544 274.1 88H273.5ZM271.5 90V90.6C271.954 90.6 272.356 90.6013 272.677 90.558C273.016 90.5125 273.355 90.4079 273.631 90.1314L273.207 89.7071L272.783 89.2828C272.766 89.2992 272.723 89.3411 272.517 89.3687C272.294 89.3987 271.988 89.4 271.5 89.4V90ZM271.5 86V86.6C271.988 86.6 272.294 86.6013 272.517 86.6313C272.723 86.6589 272.766 86.7008 272.783 86.7172L273.207 86.2929L273.631 85.8686C273.355 85.5921 273.016 85.4875 272.677 85.442C272.356 85.3987 271.954 85.4 271.5 85.4V86ZM273.5 88H274.1C274.1 87.5456 274.101 87.1444 274.058 86.8228C274.012 86.4839 273.908 86.1451 273.631 85.8686L273.207 86.2929L272.783 86.7172C272.799 86.7335 272.841 86.7769 272.869 86.9827C272.899 87.2057 272.9 87.5116 272.9 88H273.5ZM271.5 86V85.4C271.046 85.4 270.644 85.3987 270.323 85.442C269.984 85.4875 269.645 85.5921 269.369 85.8686L269.793 86.2929L270.217 86.7172C270.234 86.7008 270.277 86.6589 270.483 86.6313C270.706 86.6013 271.012 86.6 271.5 86.6V86ZM269.5 88H270.1C270.1 87.5116 270.101 87.2057 270.131 86.9827C270.159 86.7769 270.201 86.7335 270.217 86.7172L269.793 86.2929L269.369 85.8686C269.092 86.1451 268.988 86.4839 268.942 86.8228C268.899 87.1444 268.9 87.5456 268.9 88H269.5ZM269.5 84L269.5 84.6L273.5 84.6V84V83.4L269.5 83.4L269.5 84ZM275.5 78H274.9V81.3333H275.5H276.1V78H275.5ZM279.5 82V81.4C279.012 81.4 278.706 81.3987 278.483 81.3687C278.277 81.3411 278.234 81.2992 278.217 81.2828L277.793 81.7071L277.369 82.1314C277.645 82.4079 277.984 82.5125 278.323 82.558C278.644 82.6013 279.046 82.6 279.5 82.6V82ZM277.5 80H276.9C276.9 80.4544 276.899 80.8556 276.942 81.1772C276.988 81.5161 277.092 81.8549 277.369 82.1314L277.793 81.7071L278.217 81.2828C278.201 81.2665 278.159 81.2231 278.131 81.0173C278.101 80.7943 278.1 80.4884 278.1 80H277.5ZM281.5 80H280.9C280.9 80.4884 280.899 80.7943 280.869 81.0173C280.841 81.2231 280.799 81.2665 280.783 81.2828L281.207 81.7071L281.631 82.1314C281.908 81.8549 282.012 81.5161 282.058 81.1772C282.101 80.8556 282.1 80.4544 282.1 80H281.5ZM279.5 82V82.6C279.954 82.6 280.356 82.6013 280.677 82.558C281.016 82.5125 281.355 82.4079 281.631 82.1314L281.207 81.7071L280.783 81.2828C280.766 81.2992 280.723 81.3411 280.517 81.3687C280.294 81.3987 279.988 81.4 279.5 81.4V82ZM279.5 78V78.6C279.988 78.6 280.294 78.6013 280.517 78.6313C280.723 78.6589 280.766 78.7008 280.783 78.7172L281.207 78.2929L281.631 77.8686C281.355 77.5921 281.016 77.4875 280.677 77.442C280.356 77.3987 279.954 77.4 279.5 77.4V78ZM281.5 80H282.1C282.1 79.5456 282.101 79.1444 282.058 78.8228C282.012 78.4839 281.908 78.1451 281.631 77.8686L281.207 78.2929L280.783 78.7172C280.799 78.7335 280.841 78.7769 280.869 78.9827C280.899 79.2057 280.9 79.5116 280.9 80H281.5ZM279.5 78V77.4C279.046 77.4 278.644 77.3987 278.323 77.442C277.984 77.4875 277.645 77.5921 277.369 77.8686L277.793 78.2929L278.217 78.7172C278.234 78.7008 278.277 78.6589 278.483 78.6313C278.706 78.6013 279.012 78.6 279.5 78.6V78ZM277.5 80H278.1C278.1 79.5116 278.101 79.2057 278.131 78.9827C278.159 78.7769 278.201 78.7335 278.217 78.7172L277.793 78.2929L277.369 77.8686C277.092 78.1451 276.988 78.4839 276.942 78.8228C276.899 79.1444 276.9 79.5456 276.9 80H277.5ZM277.5 84V84.6H281.5V84V83.4H277.5V84ZM275.5 86H276.1C276.1 85.5116 276.101 85.2057 276.131 84.9827C276.159 84.7769 276.201 84.7335 276.217 84.7172L275.793 84.2929L275.369 83.8686C275.092 84.1451 274.988 84.4839 274.942 84.8228C274.899 85.1444 274.9 85.5456 274.9 86H275.5ZM277.5 84V83.4C277.046 83.4 276.644 83.3987 276.323 83.442C275.984 83.4875 275.645 83.5921 275.369 83.8686L275.793 84.2929L276.217 84.7172C276.234 84.7008 276.277 84.6589 276.483 84.6313C276.706 84.6013 277.012 84.6 277.5 84.6V84ZM275.5 87.8462H274.9V89.6923H275.5H276.1V87.8462H275.5ZM277.5 86H276.9V87H277.5H278.1V86H277.5ZM278.167 90V89.4H277.5V90V90.6H278.167V90ZM278.833 88V88.6C278.87 88.6 278.9 88.6298 278.9 88.6667H279.5H280.1C280.1 87.9671 279.533 87.4 278.833 87.4V88ZM281.5 88.0029H280.9C280.9 88.4919 280.899 88.7984 280.869 89.0219C280.841 89.2282 280.799 89.2719 280.783 89.2885L281.207 89.7125L281.632 90.1364C281.908 89.8597 282.013 89.5207 282.058 89.1816C282.101 88.8597 282.1 88.458 282.1 88.0029H281.5ZM279.5 86V86.6C279.988 86.6 280.294 86.6013 280.517 86.6313C280.723 86.659 280.766 86.7008 280.783 86.7173L281.207 86.2933L281.632 85.8694C281.355 85.5925 281.016 85.4877 280.677 85.442C280.356 85.3987 279.954 85.4 279.5 85.4V86ZM281.5 88.0029H282.1C282.1 87.5477 282.101 87.1461 282.058 86.8242C282.013 86.4851 281.908 86.1461 281.632 85.8694L281.207 86.2933L280.783 86.7173C280.799 86.7338 280.841 86.7775 280.869 86.9839C280.899 87.2074 280.9 87.5139 280.9 88.0029H281.5ZM280.167 90L280.185 90.5997C280.694 90.5844 281.233 90.5353 281.632 90.1364L281.207 89.7125L280.783 89.2885C280.753 89.3177 280.675 89.3844 280.149 89.4003L280.167 90ZM277.5 87H276.9C276.9 87.5846 277.066 88.1039 277.57 88.3855C277.785 88.5052 278.015 88.5529 278.216 88.5756C278.416 88.5983 278.633 88.6 278.833 88.6V88V87.4C278.628 87.4 278.475 87.3973 278.35 87.3831C278.225 87.369 278.173 87.3475 278.155 87.3377C278.153 87.3363 278.152 87.3399 278.143 87.3197C278.127 87.2846 278.1 87.1933 278.1 87H277.5Z" fill="white"/>
<path d="M297.579 87.972L296.725 88.924L295.241 87.664C294.625 88.056 293.841 88.238 292.875 88.238C291.461 88.238 290.313 87.762 289.445 86.81C288.563 85.858 288.129 84.598 288.129 83.044C288.129 81.504 288.563 80.258 289.459 79.278C290.355 78.312 291.503 77.822 292.931 77.822C294.331 77.822 295.465 78.312 296.361 79.278C297.243 80.244 297.691 81.49 297.691 83.002C297.691 83.8 297.565 84.528 297.313 85.2C297.061 85.872 296.725 86.432 296.277 86.852L297.579 87.972ZM295.045 85.774C295.633 85.018 295.941 84.108 295.941 83.016C295.941 81.896 295.661 80.986 295.115 80.314C294.555 79.642 293.827 79.292 292.903 79.292C291.979 79.292 291.251 79.642 290.705 80.314C290.159 80.986 289.893 81.896 289.893 83.016C289.893 84.178 290.159 85.102 290.719 85.788C291.265 86.474 292.007 86.81 292.931 86.81C293.323 86.81 293.687 86.74 294.051 86.572L293.029 85.704L293.869 84.752L295.045 85.774ZM299.269 78.032H303.987C304.967 78.032 305.779 78.256 306.409 78.704C307.025 79.152 307.347 79.852 307.347 80.804C307.347 81.406 307.193 81.924 306.913 82.344C306.619 82.764 306.213 83.072 305.695 83.254C305.933 83.31 306.143 83.394 306.325 83.506C306.493 83.618 306.633 83.744 306.731 83.87C306.829 84.01 306.913 84.178 306.983 84.374C307.039 84.584 307.081 84.766 307.109 84.92C307.137 85.074 307.151 85.27 307.179 85.522C307.179 85.592 307.193 85.718 307.207 85.9C307.221 86.096 307.235 86.222 307.235 86.278C307.235 86.334 307.249 86.446 307.263 86.586C307.277 86.74 307.291 86.852 307.305 86.908C307.305 86.964 307.319 87.062 307.347 87.174C307.375 87.286 307.389 87.384 307.417 87.44C307.431 87.496 307.459 87.566 307.487 87.65C307.515 87.734 307.543 87.79 307.585 87.846C307.613 87.902 307.655 87.958 307.711 88H305.835C305.807 87.972 305.779 87.93 305.751 87.874C305.723 87.818 305.709 87.762 305.695 87.706C305.667 87.65 305.653 87.594 305.653 87.538C305.639 87.482 305.625 87.412 305.611 87.328C305.597 87.244 305.597 87.16 305.597 87.104L305.569 86.852L305.541 86.6C305.541 86.544 305.527 86.446 305.527 86.306C305.513 86.166 305.513 86.068 305.513 86.012C305.457 85.2 305.289 84.654 304.995 84.346C304.701 84.038 304.141 83.884 303.329 83.884H301.005V88H299.269V78.032ZM301.005 79.46V82.582H303.315C303.651 82.582 303.931 82.568 304.169 82.526C304.393 82.498 304.631 82.428 304.869 82.33C305.107 82.232 305.289 82.064 305.415 81.84C305.541 81.616 305.611 81.336 305.611 80.986C305.611 80.678 305.555 80.412 305.443 80.202C305.331 79.992 305.163 79.838 304.953 79.726C304.743 79.628 304.533 79.558 304.309 79.516C304.085 79.488 303.833 79.46 303.539 79.46H301.005ZM319.379 85.27C319.267 86.166 318.903 86.866 318.315 87.398C317.713 87.93 316.957 88.182 316.061 88.182C314.969 88.182 314.115 87.846 313.471 87.16C312.827 86.474 312.505 85.578 312.505 84.458C312.505 83.268 312.827 82.316 313.471 81.616C314.115 80.916 314.997 80.552 316.103 80.552C317.027 80.552 317.769 80.79 318.329 81.252C318.889 81.728 319.225 82.372 319.323 83.198H317.741C317.643 82.75 317.461 82.4 317.181 82.148C316.901 81.91 316.537 81.784 316.117 81.784C315.501 81.784 315.011 82.022 314.661 82.484C314.297 82.946 314.129 83.576 314.129 84.374C314.129 85.186 314.297 85.802 314.633 86.25C314.969 86.698 315.445 86.922 316.061 86.922C316.537 86.922 316.915 86.782 317.223 86.502C317.531 86.222 317.727 85.802 317.811 85.27H319.379ZM323.953 80.566C325.045 80.566 325.927 80.916 326.585 81.602C327.229 82.302 327.565 83.226 327.565 84.388C327.565 85.564 327.229 86.502 326.585 87.188C325.941 87.888 325.059 88.224 323.953 88.224C322.819 88.224 321.923 87.888 321.265 87.188C320.593 86.502 320.271 85.564 320.271 84.388C320.271 83.226 320.593 82.302 321.265 81.602C321.937 80.916 322.833 80.566 323.953 80.566ZM323.925 81.826C323.281 81.826 322.791 82.064 322.427 82.512C322.063 82.974 321.881 83.604 321.881 84.388C321.881 85.2 322.063 85.844 322.427 86.292C322.791 86.754 323.295 86.978 323.939 86.978C324.555 86.978 325.045 86.754 325.409 86.292C325.773 85.83 325.955 85.186 325.955 84.374C325.955 83.59 325.773 82.96 325.409 82.512C325.045 82.064 324.555 81.826 323.925 81.826ZM335.751 78.032V88H334.253V87.006C333.791 87.804 333.021 88.196 331.943 88.196C330.921 88.196 330.109 87.86 329.507 87.16C328.905 86.474 328.611 85.55 328.611 84.374C328.611 83.226 328.905 82.302 329.493 81.616C330.081 80.93 330.879 80.58 331.887 80.58C332.895 80.58 333.665 80.958 334.183 81.714V78.032H335.751ZM332.181 81.868C331.565 81.868 331.089 82.092 330.739 82.54C330.389 82.988 330.221 83.59 330.221 84.346C330.221 85.144 330.389 85.774 330.753 86.222C331.117 86.684 331.607 86.908 332.237 86.908C332.853 86.908 333.343 86.684 333.693 86.236C334.043 85.788 334.225 85.172 334.225 84.374C334.225 83.59 334.043 82.974 333.679 82.526C333.315 82.092 332.825 81.868 332.181 81.868ZM343.932 85.746C343.75 86.53 343.358 87.146 342.77 87.58C342.182 88.028 341.468 88.238 340.656 88.238C339.564 88.238 338.696 87.888 338.052 87.188C337.408 86.488 337.1 85.578 337.1 84.472C337.1 83.352 337.422 82.414 338.08 81.672C338.738 80.944 339.578 80.566 340.6 80.566C341.65 80.566 342.49 80.93 343.106 81.658C343.722 82.386 344.03 83.366 344.03 84.612V84.78H338.696C338.71 85.508 338.892 86.082 339.242 86.474C339.578 86.866 340.068 87.062 340.684 87.062C341.118 87.062 341.468 86.964 341.748 86.754C342.028 86.544 342.238 86.208 342.406 85.746H343.932ZM342.434 83.716C342.378 83.114 342.196 82.638 341.86 82.288C341.524 81.938 341.104 81.756 340.586 81.756C340.054 81.756 339.634 81.924 339.312 82.26C338.99 82.596 338.794 83.086 338.724 83.716H342.434Z" fill="white"/>
<rect x="115.973" y="124" width="268.056" height="552" rx="36" fill="white" stroke="#0A0909" stroke-width="8"/>
<rect x="110" y="263.438" width="7.88732" height="41.2632" rx="3" fill="#0A0909"/>
<rect x="110" y="220.21" width="7.88732" height="21.614" rx="3" fill="#0A0909"/>
<rect x="382.113" y="282.105" width="7.88732" height="60.9123" rx="3" fill="#0A0909"/>
<rect x="214.508" y="135.719" width="70.9859" height="21.614" rx="10.807" fill="#0A0909"/>
<ellipse cx="274.648" cy="146.526" rx="4.92958" ry="4.91228" fill="white" fill-opacity="0.1"/>
<mask id="mask0_35554_317744" style="mask-type:luminance" maskUnits="userSpaceOnUse" x="341" y="142" width="20" height="10">
<path d="M360.485 142.596H341.336V151.636H360.485V142.596Z" fill="white"/>
</mask>
<g mask="url(#mask0_35554_317744)">
<path d="M356.108 151.636H344.071C343.346 151.635 342.651 151.337 342.138 150.808C341.625 150.278 341.337 149.56 341.336 148.811V145.421C341.337 144.672 341.625 143.954 342.138 143.424C342.651 142.895 343.346 142.597 344.071 142.596H356.11C356.834 142.597 357.529 142.896 358.042 143.425C358.554 143.955 358.842 144.672 358.843 145.421V148.811C358.842 149.56 358.554 150.278 358.041 150.808C357.528 151.337 356.833 151.635 356.108 151.636ZM344.071 143.161C343.491 143.162 342.935 143.4 342.525 143.824C342.114 144.247 341.883 144.822 341.883 145.421V148.811C341.883 149.41 342.114 149.985 342.525 150.408C342.935 150.832 343.491 151.07 344.071 151.071H356.11C356.69 151.07 357.246 150.832 357.656 150.408C358.067 149.985 358.297 149.41 358.298 148.811V145.421C358.297 144.821 358.066 144.247 357.656 143.823C357.245 143.399 356.688 143.161 356.108 143.161H344.071Z" fill="#0A0909"/>
<path d="M344.071 143.726H351.731C352.166 143.726 352.584 143.904 352.892 144.222C353.199 144.54 353.372 144.971 353.373 145.421V148.81C353.372 149.26 353.199 149.691 352.892 150.009C352.584 150.326 352.166 150.505 351.731 150.505H344.071C343.636 150.505 343.219 150.326 342.911 150.009C342.603 149.691 342.43 149.26 342.43 148.81V145.421C342.43 144.971 342.603 144.54 342.911 144.222C343.219 143.904 343.636 143.726 344.071 143.726Z" fill="#0A0909"/>
<path d="M359.391 148.245V145.985C359.537 145.981 359.682 146.007 359.818 146.062C359.955 146.117 360.079 146.2 360.184 146.305C360.288 146.411 360.372 146.537 360.429 146.676C360.485 146.815 360.515 146.964 360.515 147.115C360.515 147.266 360.485 147.416 360.429 147.555C360.372 147.694 360.288 147.82 360.184 147.925C360.079 148.031 359.955 148.113 359.818 148.168C359.682 148.223 359.537 148.249 359.391 148.245Z" fill="#0A0909"/>
</g>
<mask id="mask1_35554_317744" style="mask-type:luminance" maskUnits="userSpaceOnUse" x="320" y="142" width="13" height="10">
<path d="M332.746 142.596H320.709V151.636H332.746V142.596Z" fill="white"/>
</mask>
<g mask="url(#mask1_35554_317744)">
<path opacity="0.294" d="M331.323 142.596H331.98C332.08 142.596 332.18 142.616 332.273 142.656C332.366 142.696 332.451 142.754 332.522 142.828C332.593 142.901 332.649 142.988 332.688 143.084C332.726 143.181 332.746 143.283 332.746 143.387V150.846C332.746 150.949 332.726 151.052 332.688 151.148C332.649 151.244 332.593 151.332 332.522 151.405C332.451 151.479 332.366 151.537 332.273 151.577C332.18 151.616 332.08 151.637 331.98 151.637H331.323C331.222 151.637 331.122 151.616 331.029 151.577C330.936 151.537 330.852 151.479 330.781 151.405C330.709 151.331 330.653 151.244 330.615 151.148C330.576 151.052 330.556 150.949 330.557 150.845V143.387C330.557 143.283 330.576 143.181 330.615 143.084C330.653 142.988 330.71 142.901 330.781 142.828C330.852 142.754 330.936 142.696 331.029 142.656C331.122 142.616 331.222 142.596 331.323 142.596Z" fill="#0A0909"/>
<path opacity="0.294" d="M328.04 144.856H328.697C328.797 144.856 328.897 144.876 328.99 144.916C329.083 144.956 329.167 145.014 329.238 145.087C329.31 145.161 329.366 145.248 329.405 145.344C329.443 145.44 329.463 145.543 329.463 145.647V150.845C329.463 150.948 329.443 151.051 329.405 151.147C329.366 151.243 329.31 151.331 329.238 151.404C329.167 151.478 329.083 151.536 328.99 151.576C328.897 151.615 328.797 151.636 328.697 151.636H328.04C327.939 151.636 327.839 151.615 327.746 151.576C327.653 151.536 327.569 151.478 327.498 151.404C327.426 151.331 327.37 151.243 327.332 151.147C327.293 151.051 327.273 150.948 327.273 150.845V145.647C327.273 145.543 327.293 145.44 327.332 145.344C327.37 145.248 327.426 145.161 327.498 145.087C327.569 145.014 327.653 144.956 327.746 144.916C327.839 144.876 327.939 144.856 328.04 144.856Z" fill="#0A0909"/>
<path d="M324.758 147.116H325.415C325.516 147.116 325.616 147.136 325.709 147.176C325.802 147.216 325.886 147.274 325.957 147.348C326.028 147.421 326.085 147.508 326.123 147.604C326.162 147.701 326.182 147.803 326.181 147.907V150.845C326.182 150.949 326.162 151.052 326.123 151.148C326.085 151.244 326.028 151.331 325.957 151.405C325.886 151.478 325.802 151.536 325.709 151.576C325.616 151.616 325.516 151.636 325.415 151.636H324.758C324.658 151.636 324.558 151.616 324.465 151.576C324.372 151.536 324.288 151.478 324.216 151.405C324.145 151.331 324.089 151.244 324.05 151.148C324.012 151.052 323.992 150.949 323.992 150.845V147.907C323.992 147.803 324.012 147.701 324.05 147.604C324.089 147.508 324.145 147.421 324.216 147.348C324.288 147.274 324.372 147.216 324.465 147.176C324.558 147.136 324.658 147.116 324.758 147.116Z" fill="#0A0909"/>
<path d="M321.475 148.246H322.132C322.233 148.246 322.332 148.266 322.425 148.306C322.518 148.346 322.603 148.404 322.674 148.478C322.745 148.551 322.802 148.638 322.84 148.734C322.879 148.83 322.898 148.933 322.898 149.037V150.849C322.898 150.952 322.879 151.055 322.84 151.151C322.802 151.247 322.745 151.335 322.674 151.408C322.603 151.482 322.518 151.54 322.425 151.58C322.332 151.619 322.233 151.64 322.132 151.64H321.475C321.374 151.64 321.274 151.619 321.181 151.579C321.088 151.539 321.003 151.481 320.932 151.407C320.861 151.333 320.804 151.246 320.766 151.149C320.728 151.053 320.708 150.949 320.709 150.845V149.034C320.71 148.825 320.791 148.624 320.934 148.476C321.078 148.329 321.272 148.246 321.475 148.246Z" fill="#0A0909"/>
</g>
<path d="M139.982 150.456C139.857 150.456 139.759 150.42 139.687 150.348C139.614 150.276 139.578 150.181 139.578 150.063C139.578 149.938 139.614 149.843 139.687 149.778C139.759 149.712 139.857 149.68 139.982 149.68H141.225V144.286H141.698L140.258 145.209C140.166 145.268 140.078 145.294 139.992 145.288C139.913 145.275 139.844 145.242 139.785 145.19C139.726 145.131 139.687 145.062 139.667 144.983C139.647 144.905 139.65 144.826 139.677 144.748C139.71 144.662 139.775 144.594 139.874 144.541L141.234 143.657C141.333 143.598 141.425 143.552 141.511 143.52C141.603 143.48 141.691 143.461 141.777 143.461C141.875 143.461 141.961 143.49 142.033 143.549C142.105 143.608 142.142 143.703 142.142 143.834V149.68H143.285C143.417 149.68 143.515 149.712 143.581 149.778C143.653 149.843 143.689 149.938 143.689 150.063C143.689 150.187 143.653 150.285 143.581 150.357C143.515 150.423 143.417 150.456 143.285 150.456H139.982Z" fill="#0A0909"/>
<path d="M147.422 150.544C146.896 150.544 146.446 150.469 146.071 150.318C145.703 150.167 145.417 149.948 145.214 149.66C145.017 149.372 144.918 149.021 144.918 148.609C144.918 148.288 144.984 148.003 145.115 147.754C145.253 147.498 145.44 147.292 145.677 147.135C145.914 146.978 146.186 146.88 146.495 146.84V146.997C146.062 146.906 145.717 146.706 145.46 146.398C145.21 146.084 145.086 145.714 145.086 145.288C145.086 144.902 145.181 144.571 145.371 144.296C145.569 144.014 145.841 143.801 146.19 143.657C146.538 143.513 146.949 143.441 147.422 143.441C147.902 143.441 148.316 143.513 148.664 143.657C149.013 143.801 149.282 144.014 149.473 144.296C149.663 144.571 149.759 144.902 149.759 145.288C149.759 145.57 149.7 145.832 149.581 146.074C149.47 146.316 149.309 146.516 149.098 146.673C148.894 146.83 148.651 146.938 148.369 146.997V146.84C148.829 146.906 149.203 147.099 149.493 147.42C149.782 147.734 149.926 148.131 149.926 148.609C149.926 149.021 149.825 149.372 149.621 149.66C149.424 149.948 149.138 150.167 148.763 150.318C148.395 150.469 147.948 150.544 147.422 150.544ZM147.422 149.807C147.961 149.807 148.369 149.702 148.645 149.493C148.921 149.283 149.059 148.972 149.059 148.56C149.059 148.14 148.921 147.829 148.645 147.626C148.369 147.423 147.961 147.322 147.422 147.322C146.89 147.322 146.482 147.423 146.2 147.626C145.924 147.829 145.786 148.14 145.786 148.56C145.786 148.972 145.924 149.283 146.2 149.493C146.482 149.702 146.89 149.807 147.422 149.807ZM147.422 146.575C147.731 146.575 147.994 146.529 148.211 146.437C148.428 146.339 148.595 146.198 148.714 146.015C148.832 145.832 148.891 145.615 148.891 145.367C148.891 144.993 148.76 144.702 148.497 144.492C148.24 144.283 147.882 144.178 147.422 144.178C146.962 144.178 146.604 144.283 146.348 144.492C146.091 144.702 145.963 144.993 145.963 145.367C145.963 145.746 146.091 146.044 146.348 146.261C146.604 146.47 146.962 146.575 147.422 146.575Z" fill="#0A0909"/>
<path d="M151.628 150.495C151.457 150.495 151.316 150.439 151.204 150.328C151.092 150.217 151.037 150.076 151.037 149.905C151.037 149.735 151.092 149.598 151.204 149.493C151.316 149.388 151.457 149.336 151.628 149.336C151.812 149.336 151.954 149.388 152.052 149.493C152.157 149.598 152.21 149.735 152.21 149.905C152.21 150.076 152.157 150.217 152.052 150.328C151.954 150.439 151.812 150.495 151.628 150.495ZM151.628 146.791C151.457 146.791 151.316 146.739 151.204 146.634C151.092 146.523 151.037 146.382 151.037 146.211C151.037 146.041 151.092 145.904 151.204 145.799C151.316 145.687 151.457 145.632 151.628 145.632C151.812 145.632 151.954 145.687 152.052 145.799C152.157 145.904 152.21 146.041 152.21 146.211C152.21 146.382 152.157 146.523 152.052 146.634C151.954 146.739 151.812 146.791 151.628 146.791Z" fill="#0A0909"/>
<path d="M156.986 150.524C156.841 150.524 156.729 150.485 156.65 150.407C156.572 150.328 156.532 150.213 156.532 150.063V149.011H153.791C153.647 149.011 153.528 148.979 153.436 148.913C153.351 148.848 153.308 148.746 153.308 148.609C153.308 148.53 153.328 148.448 153.367 148.363C153.407 148.278 153.476 148.163 153.574 148.019L156.503 143.765C156.575 143.667 156.65 143.592 156.729 143.539C156.815 143.487 156.91 143.461 157.015 143.461C157.134 143.461 157.232 143.5 157.311 143.578C157.396 143.651 157.439 143.765 157.439 143.922V148.235H158.11C158.254 148.235 158.363 148.268 158.435 148.334C158.507 148.399 158.543 148.494 158.543 148.618C158.543 148.749 158.507 148.848 158.435 148.913C158.363 148.979 158.254 149.011 158.11 149.011H157.439V150.063C157.439 150.213 157.4 150.328 157.321 150.407C157.242 150.485 157.13 150.524 156.986 150.524ZM156.532 148.235V144.6H156.779L154.117 148.481V148.235H156.532Z" fill="#0A0909"/>
<path d="M161.971 150.544C161.602 150.544 161.231 150.492 160.856 150.387C160.488 150.276 160.153 150.109 159.851 149.886C159.765 149.827 159.706 149.758 159.673 149.68C159.647 149.594 159.644 149.512 159.663 149.434C159.683 149.355 159.723 149.29 159.782 149.237C159.841 149.178 159.91 149.146 159.989 149.139C160.074 149.133 160.163 149.159 160.255 149.218C160.518 149.401 160.791 149.539 161.073 149.63C161.356 149.716 161.652 149.758 161.961 149.758C162.27 149.758 162.536 149.699 162.759 149.581C162.983 149.463 163.154 149.3 163.272 149.09C163.397 148.88 163.459 148.635 163.459 148.353C163.459 147.921 163.331 147.567 163.075 147.292C162.818 147.017 162.47 146.88 162.03 146.88C161.76 146.88 161.51 146.929 161.28 147.027C161.057 147.119 160.847 147.276 160.649 147.498C160.603 147.551 160.544 147.597 160.472 147.636C160.406 147.675 160.331 147.695 160.245 147.695C160.12 147.695 160.025 147.662 159.959 147.597C159.894 147.525 159.861 147.43 159.861 147.312V143.942C159.861 143.811 159.897 143.709 159.969 143.637C160.041 143.565 160.143 143.529 160.275 143.529H163.597C163.729 143.529 163.831 143.562 163.903 143.628C163.975 143.693 164.011 143.788 164.011 143.912C164.011 144.037 163.975 144.135 163.903 144.207C163.831 144.273 163.729 144.305 163.597 144.305H160.758V146.929H160.501C160.679 146.667 160.916 146.464 161.211 146.32C161.514 146.175 161.846 146.103 162.207 146.103C162.647 146.103 163.025 146.198 163.341 146.388C163.663 146.572 163.913 146.83 164.09 147.164C164.268 147.492 164.356 147.875 164.356 148.314C164.356 148.746 164.258 149.133 164.061 149.473C163.87 149.807 163.597 150.069 163.242 150.259C162.887 150.449 162.463 150.544 161.971 150.544Z" fill="#0A0909"/>
<path opacity="0.3" d="M130 180C130 172.268 136.268 166 144 166H356C363.732 166 370 172.268 370 180C370 187.732 363.732 194 356 194H144C136.268 194 130 187.732 130 180Z" fill="#D3D8EB"/>
<path d="M191.739 184L189.745 177.455H190.802L192.217 182.466H192.285L193.683 177.455H194.756L196.137 182.449H196.205L197.62 177.455H198.677L196.683 184H195.694L194.262 178.972H194.16L192.728 184H191.739ZM201.489 184L199.495 177.455H200.552L201.967 182.466H202.035L203.433 177.455H204.506L205.887 182.449H205.955L207.37 177.455H208.427L206.433 184H205.444L204.012 178.972H203.91L202.478 184H201.489ZM211.239 184L209.245 177.455H210.302L211.717 182.466H211.785L213.183 177.455H214.256L215.637 182.449H215.705L217.12 177.455H218.177L216.183 184H215.194L213.762 178.972H213.66L212.228 184H211.239ZM219.349 184.068C219.138 184.068 218.958 183.993 218.808 183.842C218.657 183.692 218.582 183.511 218.582 183.301C218.582 183.091 218.657 182.911 218.808 182.76C218.958 182.609 219.138 182.534 219.349 182.534C219.559 182.534 219.739 182.609 219.89 182.76C220.04 182.911 220.116 183.091 220.116 183.301C220.116 183.44 220.08 183.568 220.009 183.685C219.941 183.801 219.849 183.895 219.732 183.966C219.619 184.034 219.491 184.068 219.349 184.068ZM221.92 184V177.455H222.892V178.477H222.977C223.114 178.128 223.334 177.857 223.638 177.663C223.942 177.467 224.307 177.369 224.733 177.369C225.165 177.369 225.524 177.467 225.811 177.663C226.101 177.857 226.327 178.128 226.489 178.477H226.557C226.724 178.139 226.976 177.871 227.311 177.672C227.646 177.47 228.048 177.369 228.517 177.369C229.102 177.369 229.581 177.553 229.953 177.919C230.325 178.283 230.511 178.849 230.511 179.619V184H229.506V179.619C229.506 179.136 229.374 178.791 229.109 178.584C228.845 178.376 228.534 178.273 228.176 178.273C227.716 178.273 227.359 178.412 227.107 178.69C226.854 178.966 226.727 179.315 226.727 179.739V184H225.705V179.517C225.705 179.145 225.584 178.845 225.342 178.618C225.101 178.388 224.79 178.273 224.409 178.273C224.148 178.273 223.903 178.342 223.676 178.482C223.452 178.621 223.27 178.814 223.131 179.061C222.994 179.305 222.926 179.588 222.926 179.909V184H221.92ZM232.763 186.455C232.593 186.455 232.441 186.44 232.308 186.412C232.174 186.386 232.082 186.361 232.031 186.335L232.286 185.449C232.531 185.511 232.746 185.534 232.934 185.517C233.121 185.5 233.288 185.416 233.433 185.266C233.58 185.118 233.715 184.878 233.837 184.545L234.025 184.034L231.604 177.455H232.695L234.502 182.67H234.57L236.377 177.455H237.468L234.69 184.955C234.565 185.293 234.41 185.572 234.225 185.794C234.04 186.018 233.826 186.185 233.582 186.293C233.34 186.401 233.067 186.455 232.763 186.455ZM240.278 184L238.284 177.455H239.341L240.756 182.466H240.824L242.222 177.455H243.295L244.676 182.449H244.744L246.159 177.455H247.216L245.222 184H244.233L242.801 178.972H242.699L241.267 184H240.278ZM251.067 184.136C250.436 184.136 249.892 183.997 249.435 183.719C248.98 183.438 248.63 183.045 248.382 182.543C248.138 182.037 248.016 181.449 248.016 180.778C248.016 180.108 248.138 179.517 248.382 179.006C248.63 178.491 248.973 178.091 249.414 177.804C249.857 177.514 250.374 177.369 250.965 177.369C251.306 177.369 251.642 177.426 251.975 177.54C252.307 177.653 252.61 177.838 252.882 178.094C253.155 178.347 253.373 178.682 253.534 179.099C253.696 179.517 253.777 180.031 253.777 180.642V181.068H248.732V180.199H252.755C252.755 179.83 252.681 179.5 252.533 179.21C252.388 178.92 252.181 178.692 251.911 178.524C251.644 178.357 251.328 178.273 250.965 178.273C250.564 178.273 250.218 178.372 249.925 178.571C249.635 178.767 249.412 179.023 249.256 179.338C249.1 179.653 249.022 179.991 249.022 180.352V180.932C249.022 181.426 249.107 181.845 249.277 182.189C249.451 182.53 249.691 182.79 249.998 182.969C250.304 183.145 250.661 183.233 251.067 183.233C251.331 183.233 251.57 183.196 251.783 183.122C251.999 183.045 252.185 182.932 252.341 182.781C252.498 182.628 252.618 182.437 252.703 182.21L253.675 182.483C253.573 182.812 253.401 183.102 253.159 183.352C252.918 183.599 252.62 183.793 252.265 183.932C251.909 184.068 251.51 184.136 251.067 184.136ZM255.444 184V175.273H256.449V178.494H256.534C256.608 178.381 256.711 178.236 256.841 178.06C256.975 177.881 257.165 177.722 257.412 177.582C257.662 177.44 258 177.369 258.426 177.369C258.978 177.369 259.463 177.507 259.884 177.783C260.304 178.058 260.632 178.449 260.868 178.955C261.104 179.46 261.222 180.057 261.222 180.744C261.222 181.438 261.104 182.038 260.868 182.547C260.632 183.053 260.306 183.445 259.888 183.723C259.471 183.999 258.989 184.136 258.444 184.136C258.023 184.136 257.686 184.067 257.434 183.928C257.181 183.786 256.986 183.625 256.85 183.446C256.713 183.264 256.608 183.114 256.534 182.994H256.415V184H255.444ZM256.432 180.727C256.432 181.222 256.505 181.658 256.65 182.036C256.794 182.411 257.006 182.705 257.284 182.918C257.563 183.128 257.904 183.233 258.307 183.233C258.728 183.233 259.078 183.122 259.36 182.901C259.644 182.676 259.857 182.375 259.999 181.997C260.144 181.616 260.216 181.193 260.216 180.727C260.216 180.267 260.145 179.852 260.003 179.483C259.864 179.111 259.652 178.817 259.368 178.601C259.087 178.382 258.733 178.273 258.307 178.273C257.898 178.273 257.554 178.376 257.276 178.584C256.998 178.788 256.787 179.075 256.645 179.445C256.503 179.811 256.432 180.239 256.432 180.727ZM267.397 178.92L266.493 179.176C266.436 179.026 266.353 178.879 266.242 178.737C266.134 178.592 265.986 178.473 265.799 178.379C265.611 178.286 265.371 178.239 265.078 178.239C264.678 178.239 264.344 178.331 264.077 178.516C263.813 178.697 263.681 178.929 263.681 179.21C263.681 179.46 263.772 179.658 263.953 179.803C264.135 179.947 264.419 180.068 264.806 180.165L265.777 180.403C266.363 180.545 266.799 180.763 267.086 181.055C267.373 181.345 267.516 181.719 267.516 182.176C267.516 182.551 267.408 182.886 267.192 183.182C266.979 183.477 266.681 183.71 266.297 183.881C265.914 184.051 265.468 184.136 264.959 184.136C264.292 184.136 263.739 183.991 263.301 183.702C262.864 183.412 262.587 182.989 262.471 182.432L263.425 182.193C263.516 182.545 263.688 182.81 263.941 182.986C264.196 183.162 264.53 183.25 264.942 183.25C265.411 183.25 265.783 183.151 266.059 182.952C266.337 182.75 266.476 182.509 266.476 182.227C266.476 182 266.397 181.81 266.238 181.656C266.078 181.5 265.834 181.384 265.505 181.307L264.414 181.051C263.814 180.909 263.374 180.689 263.093 180.391C262.814 180.089 262.675 179.713 262.675 179.261C262.675 178.892 262.779 178.565 262.986 178.281C263.196 177.997 263.482 177.774 263.843 177.612C264.206 177.45 264.618 177.369 265.078 177.369C265.726 177.369 266.235 177.511 266.604 177.795C266.976 178.08 267.24 178.455 267.397 178.92ZM269.03 184V177.455H270.036V184H269.03ZM269.541 176.364C269.345 176.364 269.176 176.297 269.034 176.163C268.895 176.03 268.825 175.869 268.825 175.682C268.825 175.494 268.895 175.334 269.034 175.2C269.176 175.067 269.345 175 269.541 175C269.737 175 269.905 175.067 270.044 175.2C270.186 175.334 270.257 175.494 270.257 175.682C270.257 175.869 270.186 176.03 270.044 176.163C269.905 176.297 269.737 176.364 269.541 176.364ZM274.724 177.455V178.307H271.332V177.455H274.724ZM272.321 175.886H273.326V182.125C273.326 182.409 273.368 182.622 273.45 182.764C273.535 182.903 273.643 182.997 273.774 183.045C273.907 183.091 274.048 183.114 274.196 183.114C274.306 183.114 274.397 183.108 274.468 183.097C274.539 183.082 274.596 183.071 274.639 183.062L274.843 183.966C274.775 183.991 274.68 184.017 274.558 184.043C274.436 184.071 274.281 184.085 274.093 184.085C273.809 184.085 273.531 184.024 273.258 183.902C272.988 183.78 272.764 183.594 272.585 183.344C272.409 183.094 272.321 182.778 272.321 182.398V175.886ZM278.911 184.136C278.28 184.136 277.736 183.997 277.279 183.719C276.824 183.438 276.473 183.045 276.226 182.543C275.982 182.037 275.86 181.449 275.86 180.778C275.86 180.108 275.982 179.517 276.226 179.006C276.473 178.491 276.817 178.091 277.257 177.804C277.701 177.514 278.218 177.369 278.809 177.369C279.15 177.369 279.486 177.426 279.819 177.54C280.151 177.653 280.453 177.838 280.726 178.094C280.999 178.347 281.216 178.682 281.378 179.099C281.54 179.517 281.621 180.031 281.621 180.642V181.068H276.576V180.199H280.598C280.598 179.83 280.525 179.5 280.377 179.21C280.232 178.92 280.025 178.692 279.755 178.524C279.488 178.357 279.172 178.273 278.809 178.273C278.408 178.273 278.061 178.372 277.769 178.571C277.479 178.767 277.256 179.023 277.1 179.338C276.944 179.653 276.865 179.991 276.865 180.352V180.932C276.865 181.426 276.951 181.845 277.121 182.189C277.294 182.53 277.534 182.79 277.841 182.969C278.148 183.145 278.505 183.233 278.911 183.233C279.175 183.233 279.414 183.196 279.627 183.122C279.843 183.045 280.029 182.932 280.185 182.781C280.341 182.628 280.462 182.437 280.547 182.21L281.519 182.483C281.417 182.812 281.245 183.102 281.003 183.352C280.762 183.599 280.463 183.793 280.108 183.932C279.753 184.068 279.354 184.136 278.911 184.136ZM283.884 184.068C283.674 184.068 283.493 183.993 283.343 183.842C283.192 183.692 283.117 183.511 283.117 183.301C283.117 183.091 283.192 182.911 283.343 182.76C283.493 182.609 283.674 182.534 283.884 182.534C284.094 182.534 284.275 182.609 284.425 182.76C284.576 182.911 284.651 183.091 284.651 183.301C284.651 183.44 284.615 183.568 284.544 183.685C284.476 183.801 284.384 183.895 284.267 183.966C284.154 184.034 284.026 184.068 283.884 184.068ZM289.115 184.136C288.501 184.136 287.973 183.991 287.529 183.702C287.086 183.412 286.745 183.013 286.507 182.504C286.268 181.996 286.149 181.415 286.149 180.761C286.149 180.097 286.271 179.51 286.515 179.001C286.762 178.49 287.106 178.091 287.547 177.804C287.99 177.514 288.507 177.369 289.098 177.369C289.558 177.369 289.973 177.455 290.342 177.625C290.711 177.795 291.014 178.034 291.25 178.341C291.485 178.648 291.632 179.006 291.689 179.415H290.683C290.606 179.116 290.436 178.852 290.172 178.622C289.91 178.389 289.558 178.273 289.115 178.273C288.723 178.273 288.379 178.375 288.083 178.58C287.791 178.781 287.562 179.067 287.397 179.436C287.235 179.803 287.154 180.233 287.154 180.727C287.154 181.233 287.234 181.673 287.393 182.048C287.555 182.423 287.782 182.714 288.075 182.922C288.37 183.129 288.717 183.233 289.115 183.233C289.376 183.233 289.613 183.188 289.826 183.097C290.039 183.006 290.22 182.875 290.368 182.705C290.515 182.534 290.62 182.33 290.683 182.091H291.689C291.632 182.477 291.491 182.825 291.267 183.135C291.045 183.442 290.751 183.686 290.385 183.868C290.021 184.047 289.598 184.136 289.115 184.136ZM295.818 184.136C295.227 184.136 294.708 183.996 294.262 183.714C293.819 183.433 293.473 183.04 293.223 182.534C292.975 182.028 292.852 181.437 292.852 180.761C292.852 180.08 292.975 179.484 293.223 178.976C293.473 178.467 293.819 178.072 294.262 177.791C294.708 177.51 295.227 177.369 295.818 177.369C296.409 177.369 296.926 177.51 297.369 177.791C297.815 178.072 298.162 178.467 298.409 178.976C298.659 179.484 298.784 180.08 298.784 180.761C298.784 181.437 298.659 182.028 298.409 182.534C298.162 183.04 297.815 183.433 297.369 183.714C296.926 183.996 296.409 184.136 295.818 184.136ZM295.818 183.233C296.267 183.233 296.636 183.118 296.926 182.888C297.216 182.658 297.43 182.355 297.569 181.98C297.708 181.605 297.778 181.199 297.778 180.761C297.778 180.324 297.708 179.916 297.569 179.538C297.43 179.161 297.216 178.855 296.926 178.622C296.636 178.389 296.267 178.273 295.818 178.273C295.369 178.273 295 178.389 294.71 178.622C294.42 178.855 294.206 179.161 294.066 179.538C293.927 179.916 293.858 180.324 293.858 180.761C293.858 181.199 293.927 181.605 294.066 181.98C294.206 182.355 294.42 182.658 294.71 182.888C295 183.118 295.369 183.233 295.818 183.233ZM300.319 184V177.455H301.29V178.477H301.376C301.512 178.128 301.732 177.857 302.036 177.663C302.34 177.467 302.705 177.369 303.131 177.369C303.563 177.369 303.923 177.467 304.21 177.663C304.499 177.857 304.725 178.128 304.887 178.477H304.955C305.123 178.139 305.374 177.871 305.71 177.672C306.045 177.47 306.447 177.369 306.915 177.369C307.501 177.369 307.979 177.553 308.352 177.919C308.724 178.283 308.91 178.849 308.91 179.619V184H307.904V179.619C307.904 179.136 307.772 178.791 307.508 178.584C307.244 178.376 306.933 178.273 306.575 178.273C306.114 178.273 305.758 178.412 305.505 178.69C305.252 178.966 305.126 179.315 305.126 179.739V184H304.103V179.517C304.103 179.145 303.982 178.845 303.741 178.618C303.499 178.388 303.188 178.273 302.808 178.273C302.546 178.273 302.302 178.342 302.075 178.482C301.85 178.621 301.668 178.814 301.529 179.061C301.393 179.305 301.325 179.588 301.325 179.909V184H300.319Z" fill="#0D0C0C"/>
<path d="M120 202H380V640C380 657.673 365.673 672 348 672H152C134.327 672 120 657.673 120 640V202Z" fill="white"/>
<path d="M214.8 394H170V349.2H214.8V394ZM227.6 394H221.2V387.6H227.6V394ZM317.2 291.6H298V304.4H304.4V317.2H298V310.8H291.6V317.2H285.2V323.6H278.8V330H285.2V323.6H291.6V317.2H298V323.6H304.4V317.2H310.8V330H304.4V342.8H310.8V349.2H304.4V355.6H310.8V349.2H330V394H291.6V387.6H285.2V381.2H304.4V374.8H298V368.4H291.6V374.8H285.2V381.2H278.8V374.8H272.4V381.2H278.8V387.6H266V381.2H259.6V387.6H253.2V394H246.8V381.2H253.2V374.8H246.8V368.4H266V374.8H272.4V368.4H266V362H272.4V349.2H266V342.8H272.4V330H259.6V336.4H253.2V342.8H246.8V330H253.2V323.6H246.8V317.2H259.6V323.6H272.4V317.2H278.8V310.8H272.4V317.2H266V310.8H259.6V298H272.4V304.4H291.6V291.6H285.2V285.2H317.2V291.6ZM266 394H259.6V387.6H266V394ZM176.4 387.6H208.4V355.6H176.4V387.6ZM253.2 355.6H246.8V368.4H227.6V374.8H234V387.6H227.6V381.2H221.2V355.6H227.6V349.2H253.2V355.6ZM317.2 381.2H310.8V387.6H323.6V374.8H317.2V381.2ZM202 381.2H182.8V362H202V381.2ZM310.8 362H304.4V368.4H310.8V362H323.6V355.6H310.8V362ZM234 362H240.4V355.6H234V362ZM266 362H259.6V355.6H266V362ZM278.8 362H298V342.8H278.8V362ZM291.6 355.6H285.2V349.2H291.6V355.6ZM227.6 349.2H221.2V342.8H227.6V349.2ZM176.4 342.8H170V317.2H176.4V342.8ZM189.2 342.8H182.8V330H189.2V342.8ZM214.8 342.8H202V336.4H214.8V342.8ZM266 342.8H259.6V336.4H266V342.8ZM317.2 342.8H310.8V336.4H317.2V342.8ZM214.8 291.6H208.4V298H202V304.4H195.6V310.8H221.2V317.2H227.6V323.6H234V336.4H221.2V330H202V336.4H195.6V323.6H202V317.2H195.6V323.6H189.2V298H182.8V317.2H176.4V291.6H182.8V285.2H214.8V291.6ZM323.6 298H330V317.2H323.6V323.6H330V336.4H323.6V330H317.2V317.2H310.8V310.8H323.6V304.4H317.2V291.6H323.6V298ZM208.4 323.6H214.8V317.2H208.4V323.6ZM253.2 310.8H246.8V317.2H234V310.8H240.4V304.4H253.2V310.8ZM227.6 304.4H234V310.8H221.2V304.981H208.4V298.582H227.6V304.4ZM310.8 304.4H304.4V298H310.8V304.4ZM253.2 240.4H259.6V246.8H246.8V253.2H259.6V246.8H266V259.6H259.6V266H278.8V285.2H272.4V291.6H259.6V298H240.4V291.6H246.8V285.2H259.6V272.4H253.2V266H240.4V278.8H246.8V285.2H240.4V291.6H227.6V285.2H234V266H227.6V285.2H221.2V246.8H227.6V240.4H246.8V234H253.2V240.4ZM285.2 298H272.4V291.6H285.2V298ZM176.4 291.6H170V285.2H176.4V291.6ZM214.8 278.8H170V234H214.8V278.8ZM253.2 278.8H246.8V272.4H253.2V278.8ZM266 278.8H272.4V272.4H266V278.8ZM330 278.8H285.2V234H330V278.8ZM176.4 272.4H208.4V240.4H176.4V272.4ZM291.601 272.4H323.601V240.4H291.601V272.4ZM202 266H182.8V246.8H202V266ZM317.2 266H298V246.8H317.2V266ZM227.6 259.6H240.4V246.8H227.6V259.6ZM278.8 253.2H272.4V246.8H278.8V253.2ZM272.4 246.8H266V240.4H272.4V246.8ZM278.8 240.4H272.4V234H278.8V240.4Z" fill="#0A0909"/>
<path d="M368.358 85.6246C368.058 85.8939 367.811 86.2162 367.629 86.5752C366.885 86.1198 365.991 85.9783 365.143 86.1818C364.295 86.3854 363.563 86.9173 363.107 87.6606C363.055 87.7459 363.008 87.8322 362.964 87.9211C362.205 87.4913 361.307 87.3804 360.466 87.6127C359.626 87.8451 358.912 88.4017 358.482 89.1601L356.152 86.5698C355.567 85.926 354.751 85.5401 353.882 85.4965C353.013 85.4528 352.162 85.7549 351.516 86.3368C350.869 86.9187 350.479 87.733 350.431 88.6017C350.383 89.4704 350.681 90.3227 351.259 90.9724L360.777 101.55L358.548 100.994L358.501 100.987C357.513 100.828 356.502 101.057 355.679 101.626C354.856 102.195 354.285 103.06 354.084 104.04C353.884 105.02 354.071 106.04 354.605 106.886C355.139 107.733 355.979 108.34 356.95 108.581L367.247 111.462L367.286 111.472C368.535 111.774 369.839 111.767 371.085 111.451C372.331 111.135 373.481 110.521 374.435 109.661L379.214 105.361C380.873 103.866 381.87 101.775 381.988 99.5454C382.106 97.3159 381.335 95.1307 379.843 93.4692L373.007 85.8699C372.423 85.2217 371.605 84.8318 370.734 84.7858C369.862 84.7398 369.007 85.0415 368.358 85.6246Z" fill="white"/>
<path d="M368.356 85.6266C368.056 85.8963 367.809 86.2188 367.626 86.5781C367.258 86.3525 366.849 86.2016 366.423 86.134C365.996 86.0665 365.561 86.0836 365.141 86.1844C364.721 86.2851 364.325 86.4676 363.976 86.7214C363.627 86.9752 363.331 87.2953 363.105 87.6635C363.054 87.7479 363.006 87.8342 362.962 87.9231C362.586 87.7102 362.172 87.5733 361.744 87.5204C361.315 87.4674 360.881 87.4994 360.464 87.6144C360.048 87.7295 359.659 87.9254 359.319 88.1909C358.978 88.4565 358.694 88.7865 358.481 89.1621L356.151 86.5718C355.863 86.2481 355.513 85.9844 355.123 85.7962C354.732 85.6079 354.308 85.4986 353.875 85.4747C353.442 85.4507 353.009 85.5126 352.6 85.6567C352.191 85.8007 351.814 86.0242 351.492 86.3142C351.17 86.6042 350.908 86.9551 350.722 87.3466C350.535 87.7381 350.428 88.1626 350.406 88.5956C350.385 89.0286 350.449 89.4617 350.595 89.8699C350.741 90.2782 350.966 90.6535 351.258 90.9744L360.775 101.552L358.546 100.996L358.499 100.988C357.511 100.829 356.5 101.058 355.677 101.627C354.854 102.196 354.282 103.061 354.082 104.041C353.882 105.022 354.068 106.041 354.602 106.888C355.137 107.734 355.977 108.341 356.948 108.582L367.245 111.464L367.284 111.474C368.533 111.775 369.837 111.768 371.082 111.453C372.328 111.137 373.478 110.523 374.433 109.663L379.212 105.363C380.87 103.868 381.867 101.777 381.985 99.5473C382.103 97.318 381.332 95.1328 379.841 93.4712L373.004 85.871C372.419 85.2231 371.602 84.8336 370.73 84.7878C369.859 84.7419 369.005 85.0436 368.356 85.6266ZM378.17 94.9762C379.263 96.1938 379.828 97.7952 379.742 99.4291C379.655 101.063 378.924 102.596 377.709 103.691L372.931 107.991C372.25 108.604 371.43 109.044 370.541 109.271C369.653 109.498 368.723 109.507 367.83 109.295L357.537 106.411L357.497 106.401C357.091 106.303 356.738 106.053 356.511 105.702C356.284 105.351 356.2 104.927 356.277 104.516C356.354 104.105 356.586 103.74 356.925 103.495C357.264 103.251 357.684 103.146 358.098 103.202L367.375 105.522L352.93 89.4685C352.839 89.3668 352.768 89.2481 352.722 89.1191C352.677 88.9901 352.657 88.8534 352.664 88.7168C352.671 88.5802 352.705 88.4463 352.764 88.3229C352.823 88.1994 352.906 88.0888 353.008 87.9973C353.109 87.9058 353.228 87.8352 353.357 87.7896C353.486 87.744 353.623 87.7242 353.759 87.7314C353.896 87.7386 354.03 87.7727 354.153 87.8316C354.277 87.8906 354.388 87.9733 354.479 88.075L361.995 96.4308L363.664 94.9285L360.566 91.4847C360.475 91.383 360.404 91.2642 360.358 91.1353C360.313 91.0063 360.293 90.8696 360.3 90.733C360.308 90.5963 360.342 90.4625 360.401 90.339C360.46 90.2156 360.542 90.1049 360.644 90.0134C360.746 89.9219 360.864 89.8514 360.993 89.8057C361.122 89.7601 361.259 89.7404 361.396 89.7476C361.532 89.7548 361.666 89.7889 361.79 89.8478C361.913 89.9068 362.024 89.9894 362.115 90.0912L365.213 93.535L366.883 92.0328L365.131 90.0858C365.04 89.9841 364.969 89.8653 364.924 89.7363C364.878 89.6074 364.858 89.4707 364.865 89.334C364.873 89.1974 364.907 89.0636 364.966 88.9401C365.025 88.8166 365.107 88.706 365.209 88.6145C365.311 88.523 365.429 88.4524 365.558 88.4068C365.687 88.3612 365.824 88.3414 365.961 88.3487C366.097 88.3559 366.231 88.3899 366.355 88.4489C366.478 88.5078 366.589 88.5905 366.68 88.6922L368.432 90.6392L370.103 89.137L369.777 88.7776C369.593 88.5722 369.497 88.3018 369.511 88.0259C369.526 87.75 369.65 87.4911 369.855 87.3063C370.06 87.1215 370.331 87.0259 370.607 87.0405C370.883 87.0551 371.142 87.1786 371.326 87.3841L378.164 94.9842L378.17 94.9762Z" fill="#0A0909"/>
<path d="M348.675 81.38L347.004 82.8848L349.086 85.197L350.757 83.6922L348.675 81.38Z" fill="#0A0909"/>
<path d="M352.167 79.9999L352.148 83.1113L354.397 83.1248L354.416 80.0134L352.167 79.9999Z" fill="#0A0909"/>
<path d="M357.915 81.3628L355.805 83.6504L357.458 85.1751L359.568 82.8876L357.915 81.3628Z" fill="#0A0909"/>
<path d="M345.223 86.2838L345 88.5215L348.096 88.8295L348.318 86.5919L345.223 86.2838Z" fill="#0A0909"/>
<path d="M348.462 90.3147L345.965 92.1719L347.307 93.9772L349.805 92.12L348.462 90.3147Z" fill="#0A0909"/>
</g>
<defs>
<clipPath id="clip0_35554_317744">
<rect width="280" height="236" fill="white" transform="translate(110 64)"/>
</clipPath>
</defs>
</svg>
