<svg width="500" height="300" viewBox="0 0 500 300" fill="none" xmlns="http://www.w3.org/2000/svg">
<rect width="500" height="300" fill="#F5F6FB"/>
<path d="M32 42C32 36.4772 36.4772 32 42 32H458C463.523 32 468 36.4772 468 42V258C468 263.523 463.523 268 458 268H42C36.4772 268 32 263.523 32 258V42Z" fill="white"/>
<path d="M66.432 66.608V78H64.368L59.056 69.616V78H57.168V66.608H59.264L64.512 75.008V66.608H66.432ZM68.4269 72.288C68.6189 70.432 69.8189 69.488 72.0429 69.488C73.0669 69.488 73.8989 69.696 74.5069 70.096C75.1149 70.512 75.4349 71.136 75.4349 71.984V76.176C75.4349 76.416 75.4509 76.576 75.5149 76.656C75.5789 76.752 75.6909 76.784 75.8669 76.784C75.9949 76.784 76.1229 76.784 76.2829 76.752V78.032C75.8029 78.16 75.4189 78.208 75.0989 78.208C74.3149 78.208 73.8669 77.888 73.7549 77.216C73.0509 77.888 72.0909 78.208 70.8589 78.208C69.9949 78.208 69.3229 78 68.8269 77.552C68.3149 77.104 68.0749 76.512 68.0749 75.744C68.0749 75.52 68.0909 75.296 68.1549 75.088C68.2029 74.896 68.2669 74.72 68.3309 74.56C68.3949 74.416 68.5069 74.272 68.6669 74.144C68.8269 74.016 68.9549 73.92 69.0509 73.824C69.1469 73.744 69.3229 73.664 69.5469 73.584C69.7709 73.52 69.9469 73.456 70.0589 73.424C70.1709 73.392 70.3629 73.344 70.6509 73.296C70.9229 73.264 71.0989 73.232 71.1949 73.216C71.2909 73.2 71.4829 73.168 71.7709 73.136C72.4109 73.056 72.8589 72.992 73.0989 72.928C73.3229 72.864 73.4829 72.784 73.5789 72.656C73.6429 72.576 73.6909 72.384 73.6909 72.064C73.6909 71.232 73.1149 70.816 71.9949 70.816C71.3869 70.816 70.9549 70.928 70.6829 71.152C70.3949 71.376 70.2189 71.76 70.1549 72.288H68.4269ZM73.6749 73.856C73.5309 73.936 73.3709 74 73.1949 74.064C73.0029 74.128 72.8589 74.16 72.7469 74.176C72.6349 74.192 72.4589 74.208 72.2189 74.24C71.9789 74.272 71.8189 74.304 71.7549 74.304C71.5309 74.336 71.3549 74.368 71.2269 74.4C71.0989 74.432 70.9389 74.464 70.7469 74.528C70.5549 74.592 70.4109 74.672 70.3149 74.768C70.2189 74.864 70.1229 74.976 70.0589 75.136C69.9789 75.296 69.9469 75.472 69.9469 75.68C69.9469 76.08 70.0749 76.384 70.3309 76.592C70.5869 76.816 70.9549 76.912 71.4349 76.912C72.2349 76.912 72.8589 76.704 73.3069 76.256C73.5469 76.016 73.6749 75.536 73.6749 74.832V73.856ZM79.1415 69.744V70.912C79.8135 69.984 80.6775 69.52 81.7335 69.52C82.2775 69.52 82.7415 69.648 83.1415 69.888C83.5415 70.144 83.8455 70.48 84.0375 70.928C84.6935 70 85.5895 69.52 86.7095 69.52C87.4775 69.52 88.1335 69.76 88.6455 70.224C89.1575 70.688 89.4135 71.328 89.4135 72.144V78H87.5895V72.928C87.5895 72.352 87.4775 71.888 87.2855 71.552C87.0775 71.232 86.6935 71.056 86.1175 71.056C85.5255 71.056 85.0775 71.248 84.7735 71.616C84.4535 71.984 84.3095 72.496 84.3095 73.152V78H82.4855V72.832C82.4855 72.256 82.3895 71.808 82.2135 71.504C82.0375 71.216 81.6695 71.056 81.1255 71.056C80.5015 71.056 80.0375 71.264 79.7175 71.664C79.3975 72.064 79.2375 72.592 79.2375 73.248V78H77.4135V69.744H79.1415ZM98.7114 75.424C98.5034 76.32 98.0554 77.024 97.3834 77.52C96.7114 78.032 95.8954 78.272 94.9674 78.272C93.7194 78.272 92.7274 77.872 91.9914 77.072C91.2554 76.272 90.9034 75.232 90.9034 73.968C90.9034 72.688 91.2714 71.616 92.0234 70.768C92.7754 69.936 93.7354 69.504 94.9034 69.504C96.1034 69.504 97.0634 69.92 97.7674 70.752C98.4714 71.584 98.8234 72.704 98.8234 74.128V74.32H92.7274C92.7434 75.152 92.9514 75.808 93.3514 76.256C93.7354 76.704 94.2954 76.928 94.9994 76.928C95.4954 76.928 95.8954 76.816 96.2154 76.576C96.5354 76.336 96.7754 75.952 96.9674 75.424H98.7114ZM96.9994 73.104C96.9354 72.416 96.7274 71.872 96.3434 71.472C95.9594 71.072 95.4794 70.864 94.8874 70.864C94.2794 70.864 93.7994 71.056 93.4314 71.44C93.0634 71.824 92.8394 72.384 92.7594 73.104H96.9994ZM104.882 68.688L103.074 69.296L104.178 70.8L103.33 71.44L102.194 69.856L101.09 71.44L100.21 70.8L101.314 69.296L99.538 68.688L99.89 67.664L101.666 68.336L101.65 66.448H102.754L102.722 68.336L104.498 67.664L104.882 68.688Z" fill="#0A0909"/>
<path d="M66 94.5H434C439.247 94.5 443.5 98.7533 443.5 104V132C443.5 137.247 439.247 141.5 434 141.5H66C60.7533 141.5 56.5 137.247 56.5 132V104C56.5 98.7533 60.7533 94.5 66 94.5Z" fill="white"/>
<path d="M66 94.5H434C439.247 94.5 443.5 98.7533 443.5 104V132C443.5 137.247 439.247 141.5 434 141.5H66C60.7533 141.5 56.5 137.247 56.5 132V104C56.5 98.7533 60.7533 94.5 66 94.5Z" stroke="#D3D8EB"/>
<path d="M79.088 110.608V118.512C79.088 119.088 79.024 119.584 78.928 120.016C78.832 120.432 78.656 120.832 78.432 121.184C78.192 121.536 77.856 121.808 77.424 122C76.976 122.192 76.448 122.288 75.808 122.288C74.592 122.288 73.728 121.984 73.2 121.392C72.656 120.784 72.4 119.888 72.4 118.704C72.4 118.544 72.4 118.4 72.416 118.272H73.872V118.672C73.872 119.44 74 120.016 74.256 120.432C74.512 120.832 75.024 121.04 75.792 121.04C76.128 121.04 76.416 120.976 76.64 120.88C76.864 120.768 77.04 120.64 77.168 120.496C77.296 120.352 77.392 120.144 77.456 119.888C77.52 119.616 77.552 119.376 77.568 119.168C77.568 118.976 77.584 118.704 77.584 118.352V110.608H79.088ZM84.9369 113.504C86.1849 113.504 87.1449 113.888 87.8489 114.656C88.5369 115.408 88.8889 116.464 88.8889 117.824C88.8889 119.232 88.5369 120.32 87.8489 121.088C87.1449 121.872 86.1689 122.256 84.9209 122.256C83.6569 122.256 82.6649 121.872 81.9609 121.104C81.2409 120.336 80.8889 119.28 80.8889 117.904C80.8889 116.56 81.2409 115.488 81.9769 114.688C82.6969 113.904 83.6889 113.504 84.9369 113.504ZM84.9049 114.656C84.1049 114.656 83.4649 114.944 83.0009 115.52C82.5209 116.112 82.2969 116.896 82.2969 117.872C82.2969 118.896 82.5209 119.68 82.9849 120.256C83.4489 120.832 84.1049 121.104 84.9369 121.104C85.7369 121.104 86.3609 120.816 86.8089 120.24C87.2569 119.664 87.4969 118.88 87.4969 117.856C87.4969 116.88 87.2569 116.096 86.7929 115.52C86.3289 114.944 85.7049 114.656 84.9049 114.656ZM91.8684 110.608V114.912C92.4764 114 93.3724 113.536 94.5724 113.536C96.4284 113.536 97.3564 114.48 97.3564 116.352V122H95.9964V116.672C95.9964 116.048 95.8524 115.568 95.5964 115.232C95.3404 114.896 94.8604 114.72 94.1884 114.72C93.3564 114.72 92.7484 114.992 92.3964 115.52C92.0444 116.064 91.8684 116.816 91.8684 117.808V122H90.5084V110.608H91.8684ZM100.679 113.744V115.024C101.351 114.032 102.295 113.52 103.495 113.52C104.455 113.52 105.159 113.776 105.591 114.288C106.023 114.8 106.247 115.536 106.247 116.512V122H104.887V117.136C104.887 116.736 104.871 116.416 104.839 116.192C104.807 115.968 104.743 115.712 104.647 115.456C104.535 115.2 104.359 115.008 104.103 114.88C103.847 114.768 103.511 114.704 103.111 114.704C101.543 114.704 100.759 115.696 100.759 117.68V122H99.399V113.744H100.679Z" fill="#0A0909"/>
<path d="M64.992 172.272V174H57.184V162.608H59.2V172.272H64.992ZM66.0675 168.288C66.2595 166.432 67.4595 165.488 69.6835 165.488C70.7075 165.488 71.5395 165.696 72.1475 166.096C72.7555 166.512 73.0755 167.136 73.0755 167.984V172.176C73.0755 172.416 73.0915 172.576 73.1555 172.656C73.2195 172.752 73.3315 172.784 73.5075 172.784C73.6355 172.784 73.7635 172.784 73.9235 172.752V174.032C73.4435 174.16 73.0595 174.208 72.7395 174.208C71.9555 174.208 71.5075 173.888 71.3955 173.216C70.6915 173.888 69.7315 174.208 68.4995 174.208C67.6355 174.208 66.9635 174 66.4675 173.552C65.9555 173.104 65.7155 172.512 65.7155 171.744C65.7155 171.52 65.7315 171.296 65.7955 171.088C65.8435 170.896 65.9075 170.72 65.9715 170.56C66.0355 170.416 66.1475 170.272 66.3075 170.144C66.4675 170.016 66.5955 169.92 66.6915 169.824C66.7875 169.744 66.9635 169.664 67.1875 169.584C67.4115 169.52 67.5875 169.456 67.6995 169.424C67.8115 169.392 68.0035 169.344 68.2915 169.296C68.5635 169.264 68.7395 169.232 68.8355 169.216C68.9315 169.2 69.1235 169.168 69.4115 169.136C70.0515 169.056 70.4995 168.992 70.7395 168.928C70.9635 168.864 71.1235 168.784 71.2195 168.656C71.2835 168.576 71.3315 168.384 71.3315 168.064C71.3315 167.232 70.7555 166.816 69.6355 166.816C69.0275 166.816 68.5955 166.928 68.3235 167.152C68.0355 167.376 67.8595 167.76 67.7955 168.288H66.0675ZM71.3155 169.856C71.1715 169.936 71.0115 170 70.8355 170.064C70.6435 170.128 70.4995 170.16 70.3875 170.176C70.2755 170.192 70.0995 170.208 69.8595 170.24C69.6195 170.272 69.4595 170.304 69.3955 170.304C69.1715 170.336 68.9955 170.368 68.8675 170.4C68.7395 170.432 68.5795 170.464 68.3875 170.528C68.1955 170.592 68.0515 170.672 67.9555 170.768C67.8595 170.864 67.7635 170.976 67.6995 171.136C67.6195 171.296 67.5875 171.472 67.5875 171.68C67.5875 172.08 67.7155 172.384 67.9715 172.592C68.2275 172.816 68.5955 172.912 69.0755 172.912C69.8755 172.912 70.4995 172.704 70.9475 172.256C71.1875 172.016 71.3155 171.536 71.3155 170.832V169.856ZM81.5821 168.144H79.8381C79.7261 167.28 79.1341 166.832 78.0461 166.832C77.5661 166.832 77.2141 166.928 76.9581 167.088C76.7021 167.264 76.5741 167.504 76.5741 167.792C76.5741 167.888 76.5741 167.984 76.5901 168.048C76.6061 168.128 76.6381 168.192 76.6861 168.256C76.7341 168.32 76.7821 168.368 76.8141 168.4C76.8461 168.448 76.9261 168.496 77.0221 168.528C77.1181 168.576 77.1821 168.608 77.2461 168.64C77.3101 168.672 77.4061 168.704 77.5501 168.736C77.6781 168.768 77.7901 168.8 77.8701 168.816C77.9501 168.848 78.0781 168.88 78.2701 168.912C78.4461 168.944 78.5901 168.976 78.6861 168.992C79.1021 169.088 79.3901 169.168 79.5821 169.216C79.7741 169.264 80.0461 169.36 80.3981 169.504C80.7501 169.648 81.0221 169.792 81.1981 169.952C81.3581 170.112 81.5181 170.32 81.6621 170.592C81.8061 170.864 81.8861 171.168 81.8861 171.52C81.8861 172.352 81.5501 173.024 80.9101 173.504C80.2541 174 79.3741 174.24 78.2861 174.24C77.1021 174.24 76.2061 174 75.5821 173.504C74.9421 173.024 74.6061 172.304 74.5741 171.36H76.3181C76.4141 172.4 77.0701 172.912 78.3181 172.912C78.8461 172.912 79.2781 172.816 79.5981 172.592C79.9181 172.368 80.0941 172.08 80.0941 171.712C80.0941 171.536 80.0461 171.376 79.9661 171.248C79.8861 171.12 79.7581 171.024 79.5821 170.928C79.3901 170.832 79.2141 170.768 79.0541 170.72C78.8941 170.672 78.6701 170.608 78.3981 170.544L78.3021 170.528C78.2701 170.528 78.2541 170.512 78.2221 170.512C78.1901 170.512 78.1581 170.496 78.1261 170.48C76.9421 170.192 76.2061 169.968 75.8861 169.808C75.1181 169.456 74.7501 168.848 74.7501 168C74.7501 167.232 75.0381 166.624 75.6461 166.176C76.2381 165.728 77.0701 165.504 78.1261 165.504C79.1341 165.504 79.9661 165.728 80.6061 166.16C81.2461 166.608 81.5821 167.264 81.5821 168.144ZM87.367 165.744V167.072H85.703V171.424C85.703 171.68 85.703 171.872 85.719 171.968C85.719 172.064 85.751 172.176 85.815 172.304C85.863 172.432 85.959 172.512 86.087 172.544C86.215 172.592 86.407 172.608 86.647 172.608C86.935 172.608 87.175 172.608 87.367 172.576V174.016C86.999 174.064 86.583 174.08 86.135 174.08C85.815 174.08 85.527 174.064 85.287 174.016C85.047 173.968 84.855 173.904 84.695 173.84C84.535 173.776 84.391 173.68 84.295 173.52C84.183 173.36 84.103 173.232 84.039 173.136C83.975 173.04 83.943 172.848 83.911 172.592C83.879 172.336 83.879 172.144 83.879 172.016V171.312V171.216V171.12V171.008V167.072H82.503V165.744H83.879V163.264H85.703V165.744H87.367ZM94.8603 165.744V166.96C95.5163 166 96.4283 165.52 97.5963 165.52C98.5243 165.52 99.2283 165.776 99.6923 166.288C100.156 166.8 100.396 167.536 100.396 168.496V174H98.5723V169.2C98.5723 168.88 98.5563 168.608 98.5243 168.384C98.4923 168.16 98.4123 167.936 98.3163 167.712C98.2203 167.488 98.0603 167.328 97.8363 167.216C97.6123 167.104 97.3243 167.04 96.9723 167.04C95.6283 167.04 94.9563 167.888 94.9563 169.552V174H93.1323V165.744H94.8603ZM102.224 168.288C102.416 166.432 103.616 165.488 105.84 165.488C106.864 165.488 107.696 165.696 108.304 166.096C108.912 166.512 109.232 167.136 109.232 167.984V172.176C109.232 172.416 109.248 172.576 109.312 172.656C109.376 172.752 109.488 172.784 109.664 172.784C109.792 172.784 109.92 172.784 110.08 172.752V174.032C109.6 174.16 109.216 174.208 108.896 174.208C108.112 174.208 107.664 173.888 107.552 173.216C106.848 173.888 105.888 174.208 104.656 174.208C103.792 174.208 103.12 174 102.624 173.552C102.112 173.104 101.872 172.512 101.872 171.744C101.872 171.52 101.888 171.296 101.952 171.088C102 170.896 102.064 170.72 102.128 170.56C102.192 170.416 102.304 170.272 102.464 170.144C102.624 170.016 102.752 169.92 102.848 169.824C102.944 169.744 103.12 169.664 103.344 169.584C103.568 169.52 103.744 169.456 103.856 169.424C103.968 169.392 104.16 169.344 104.448 169.296C104.72 169.264 104.896 169.232 104.992 169.216C105.088 169.2 105.28 169.168 105.568 169.136C106.208 169.056 106.656 168.992 106.896 168.928C107.12 168.864 107.28 168.784 107.376 168.656C107.44 168.576 107.488 168.384 107.488 168.064C107.488 167.232 106.912 166.816 105.792 166.816C105.184 166.816 104.752 166.928 104.48 167.152C104.192 167.376 104.016 167.76 103.952 168.288H102.224ZM107.472 169.856C107.328 169.936 107.168 170 106.992 170.064C106.8 170.128 106.656 170.16 106.544 170.176C106.432 170.192 106.256 170.208 106.016 170.24C105.776 170.272 105.616 170.304 105.552 170.304C105.328 170.336 105.152 170.368 105.024 170.4C104.896 170.432 104.736 170.464 104.544 170.528C104.352 170.592 104.208 170.672 104.112 170.768C104.016 170.864 103.92 170.976 103.856 171.136C103.776 171.296 103.744 171.472 103.744 171.68C103.744 172.08 103.872 172.384 104.128 172.592C104.384 172.816 104.752 172.912 105.232 172.912C106.032 172.912 106.656 172.704 107.104 172.256C107.344 172.016 107.472 171.536 107.472 170.832V169.856ZM112.938 165.744V166.912C113.61 165.984 114.474 165.52 115.53 165.52C116.074 165.52 116.538 165.648 116.938 165.888C117.338 166.144 117.642 166.48 117.834 166.928C118.49 166 119.386 165.52 120.506 165.52C121.274 165.52 121.93 165.76 122.442 166.224C122.954 166.688 123.21 167.328 123.21 168.144V174H121.386V168.928C121.386 168.352 121.274 167.888 121.082 167.552C120.874 167.232 120.49 167.056 119.914 167.056C119.322 167.056 118.874 167.248 118.57 167.616C118.25 167.984 118.106 168.496 118.106 169.152V174H116.282V168.832C116.282 168.256 116.186 167.808 116.01 167.504C115.834 167.216 115.466 167.056 114.922 167.056C114.298 167.056 113.834 167.264 113.514 167.664C113.194 168.064 113.034 168.592 113.034 169.248V174H111.21V165.744H112.938ZM132.508 171.424C132.3 172.32 131.852 173.024 131.18 173.52C130.508 174.032 129.692 174.272 128.764 174.272C127.516 174.272 126.524 173.872 125.788 173.072C125.052 172.272 124.7 171.232 124.7 169.968C124.7 168.688 125.068 167.616 125.82 166.768C126.572 165.936 127.532 165.504 128.7 165.504C129.9 165.504 130.86 165.92 131.564 166.752C132.268 167.584 132.62 168.704 132.62 170.128V170.32H126.524C126.54 171.152 126.748 171.808 127.148 172.256C127.532 172.704 128.092 172.928 128.796 172.928C129.292 172.928 129.692 172.816 130.012 172.576C130.332 172.336 130.572 171.952 130.764 171.424H132.508ZM130.796 169.104C130.732 168.416 130.524 167.872 130.14 167.472C129.756 167.072 129.276 166.864 128.684 166.864C128.076 166.864 127.596 167.056 127.228 167.44C126.86 167.824 126.636 168.384 126.556 169.104H130.796Z" fill="#0A0909"/>
<path d="M66 191H434C438.971 191 443 195.029 443 200V228C443 232.971 438.971 237 434 237H66C61.0294 237 57 232.971 57 228V200C57 195.029 61.0294 191 66 191Z" fill="white"/>
<path d="M66 191H434C438.971 191 443 195.029 443 200V228C443 232.971 438.971 237 434 237H66C61.0294 237 57 232.971 57 228V200C57 195.029 61.0294 191 66 191Z" stroke="#01A56D" stroke-width="2"/>
<path d="M73.264 206.608H76.96C78.896 206.608 80.32 207.056 81.232 207.952C82.16 208.848 82.608 210.272 82.608 212.208C82.608 214.128 82.192 215.568 81.328 216.544C80.48 217.52 79.12 218 77.248 218H73.264V206.608ZM74.752 207.904L74.768 216.72H77.056C78.48 216.72 79.52 216.368 80.16 215.664C80.8 214.96 81.12 213.872 81.12 212.384C81.12 210.832 80.816 209.696 80.176 208.976C79.552 208.272 78.48 207.904 76.976 207.904H74.752ZM87.9056 209.504C89.1536 209.504 90.1136 209.888 90.8176 210.656C91.5056 211.408 91.8576 212.464 91.8576 213.824C91.8576 215.232 91.5056 216.32 90.8176 217.088C90.1136 217.872 89.1376 218.256 87.8896 218.256C86.6256 218.256 85.6336 217.872 84.9296 217.104C84.2096 216.336 83.8576 215.28 83.8576 213.904C83.8576 212.56 84.2096 211.488 84.9456 210.688C85.6656 209.904 86.6576 209.504 87.9056 209.504ZM87.8736 210.656C87.0736 210.656 86.4336 210.944 85.9696 211.52C85.4896 212.112 85.2656 212.896 85.2656 213.872C85.2656 214.896 85.4896 215.68 85.9536 216.256C86.4176 216.832 87.0736 217.104 87.9056 217.104C88.7056 217.104 89.3296 216.816 89.7776 216.24C90.2256 215.664 90.4656 214.88 90.4656 213.856C90.4656 212.88 90.2256 212.096 89.7616 211.52C89.2976 210.944 88.6736 210.656 87.8736 210.656Z" fill="#0A0909"/>
<line x1="95.5" y1="202" x2="95.5" y2="226" stroke="#0A0909"/>
</svg>
