<svg width="350" height="210" viewBox="0 0 350 210" fill="none" xmlns="http://www.w3.org/2000/svg">
<rect width="350" height="210" fill="#F5F6FB"/>
<path d="M22.4004 29.3999C22.4004 25.5339 25.5344 22.3999 29.4004 22.3999H320.6C324.466 22.3999 327.6 25.5339 327.6 29.3999V180.6C327.6 184.466 324.466 187.6 320.6 187.6H29.4004C25.5344 187.6 22.4004 184.466 22.4004 180.6V29.3999Z" fill="white"/>
<g clip-path="url(#clip0_35554_318185)">
<path d="M46.2021 54.9443H99.4082C103.081 54.9445 106.059 57.9227 106.059 61.5957V134.403C106.059 138.076 103.081 141.055 99.4082 141.055H46.2021C42.529 141.055 39.5508 138.076 39.5508 134.403V61.5957C39.5508 57.9226 42.529 54.9443 46.2021 54.9443Z" fill="white"/>
<path d="M46.2021 54.9443H99.4082C103.081 54.9445 106.059 57.9227 106.059 61.5957V134.403C106.059 138.076 103.081 141.055 99.4082 141.055H46.2021C42.529 141.055 39.5508 138.076 39.5508 134.403V61.5957C39.5508 57.9226 42.529 54.9443 46.2021 54.9443Z" stroke="#D3D8EB" stroke-width="0.700078"/>
<g clip-path="url(#clip1_35554_318185)">
<path d="M72.8052 78.7983C71.1437 78.7983 69.5195 79.291 68.1379 80.2142C66.7564 81.1373 65.6796 82.4493 65.0438 83.9844C64.4079 85.5194 64.2416 87.2086 64.5657 88.8382C64.8899 90.4678 65.69 91.9647 66.8649 93.1396C68.0398 94.3145 69.5367 95.1146 71.1663 95.4388C72.7959 95.7629 74.4851 95.5966 76.0201 94.9607C77.5552 94.3249 78.8673 93.2481 79.7904 91.8666C80.7135 90.4851 81.2062 88.8608 81.2062 87.1993C81.2038 84.972 80.3179 82.8365 78.7429 81.2616C77.168 79.6866 75.0326 78.8007 72.8052 78.7983V78.7983ZM72.8052 80.1985C74.4199 80.1972 75.9849 80.757 77.2325 81.7821L67.388 91.6266C66.5483 90.6015 66.017 89.3591 65.856 88.0439C65.6949 86.7286 65.9108 85.3947 66.4783 84.1974C67.0459 83 67.9419 81.9885 69.062 81.2806C70.1821 80.5726 71.4802 80.1974 72.8052 80.1985ZM72.8052 94.2001C71.1905 94.2013 69.6255 93.6416 68.3779 92.6165L78.2224 82.772C79.0621 83.797 79.5934 85.0395 79.7545 86.3547C79.9155 87.6699 79.6997 89.0038 79.1321 90.2012C78.5646 91.3985 77.6686 92.41 76.5485 93.118C75.4284 93.8259 74.1303 94.2012 72.8052 94.2001Z" fill="#0A0909"/>
</g>
<path d="M58.41 109.823V116.801H57.1457L53.8917 111.665V116.801H52.7352V109.823H54.0191L57.2339 114.968V109.823H58.41ZM62.0235 111.597C62.788 111.597 63.4054 111.842 63.8661 112.322C64.3169 112.812 64.5522 113.459 64.5522 114.273C64.5522 115.096 64.3169 115.753 63.8661 116.233C63.4152 116.723 62.7978 116.958 62.0235 116.958C61.2296 116.958 60.6023 116.723 60.1417 116.233C59.6712 115.753 59.4458 115.096 59.4458 114.273C59.4458 113.459 59.6712 112.812 60.1417 112.322C60.6121 111.842 61.2394 111.597 62.0235 111.597ZM62.0039 112.479C61.553 112.479 61.21 112.646 60.9552 112.959C60.7003 113.283 60.5729 113.724 60.5729 114.273C60.5729 114.841 60.7003 115.292 60.9552 115.606C61.21 115.929 61.5628 116.086 62.0137 116.086C62.4449 116.086 62.788 115.929 63.0428 115.606C63.2976 115.282 63.425 114.831 63.425 114.263C63.425 113.714 63.2976 113.273 63.0428 112.959C62.788 112.646 62.4449 112.479 62.0039 112.479ZM70.7278 109.813V110.676C70.5121 110.656 70.3455 110.646 70.2377 110.646C70.0025 110.646 69.8555 110.695 69.7771 110.774C69.6986 110.852 69.6594 111.019 69.6594 111.254V111.744H70.6199V112.557H69.6692V116.801H68.5617V112.557H67.7286V111.744H68.5617V111.342C68.5617 110.813 68.6695 110.421 68.9048 110.166C69.1302 109.911 69.5124 109.784 70.0613 109.784C70.2769 109.784 70.5023 109.793 70.7278 109.813ZM74.1722 111.646V112.714C73.9761 112.695 73.8389 112.685 73.7801 112.685C72.8 112.685 72.3198 113.322 72.3198 114.576V116.801H71.2122V111.744H72.2609V112.753C72.6138 112.009 73.1822 111.626 73.9565 111.626L74.1722 111.646ZM74.7069 113.302C74.8245 112.165 75.5596 111.587 76.922 111.587C77.5492 111.587 78.0589 111.715 78.4313 111.96C78.8038 112.214 78.9998 112.597 78.9998 113.116V115.684C78.9998 115.831 79.0096 115.929 79.0488 115.978C79.088 116.037 79.1566 116.056 79.2644 116.056C79.3428 116.056 79.4213 116.056 79.5193 116.037V116.821C79.2252 116.899 78.99 116.929 78.794 116.929C78.3137 116.929 78.0393 116.733 77.9707 116.321C77.5394 116.733 76.9514 116.929 76.1967 116.929C75.6674 116.929 75.2558 116.801 74.952 116.527C74.6383 116.252 74.4913 115.89 74.4913 115.419C74.4913 115.282 74.5011 115.145 74.5403 115.017C74.5697 114.9 74.6089 114.792 74.6481 114.694C74.6873 114.606 74.7559 114.518 74.8539 114.439C74.952 114.361 75.0304 114.302 75.0892 114.243C75.148 114.194 75.2558 114.145 75.393 114.096C75.5302 114.057 75.638 114.018 75.7066 113.998C75.7752 113.979 75.8929 113.949 76.0693 113.92C76.2359 113.9 76.3437 113.881 76.4025 113.871C76.4613 113.861 76.5789 113.841 76.7554 113.822C77.1474 113.773 77.4218 113.734 77.5688 113.694C77.7061 113.655 77.8041 113.606 77.8629 113.528C77.9021 113.479 77.9315 113.361 77.9315 113.165C77.9315 112.655 77.5787 112.401 76.8926 112.401C76.5201 112.401 76.2555 112.469 76.0889 112.606C75.9125 112.744 75.8047 112.979 75.7654 113.302H74.7069ZM77.9217 114.263C77.8335 114.312 77.7355 114.351 77.6277 114.39C77.51 114.429 77.4218 114.449 77.3532 114.459C77.2846 114.469 77.1768 114.478 77.0298 114.498C76.8828 114.518 76.7848 114.537 76.7456 114.537C76.6083 114.557 76.5005 114.576 76.4221 114.596C76.3437 114.616 76.2457 114.635 76.1281 114.674C76.0105 114.714 75.9223 114.763 75.8635 114.821C75.8047 114.88 75.7458 114.949 75.7066 115.047C75.6576 115.145 75.638 115.253 75.638 115.38C75.638 115.625 75.7164 115.811 75.8733 115.939C76.0301 116.076 76.2555 116.135 76.5495 116.135C77.0396 116.135 77.4218 116.007 77.6963 115.733C77.8433 115.586 77.9217 115.292 77.9217 114.861V114.263ZM81.2704 111.744V112.459C81.682 111.891 82.2113 111.607 82.8581 111.607C83.1914 111.607 83.4756 111.685 83.7206 111.832C83.9657 111.989 84.1519 112.195 84.2695 112.469C84.6714 111.901 85.2202 111.607 85.9063 111.607C86.3767 111.607 86.7786 111.754 87.0922 112.038C87.4059 112.322 87.5627 112.714 87.5627 113.214V116.801H86.4453V113.694C86.4453 113.341 86.3767 113.057 86.2591 112.851C86.1317 112.655 85.8965 112.548 85.5436 112.548C85.181 112.548 84.9066 112.665 84.7204 112.891C84.5243 113.116 84.4361 113.43 84.4361 113.832V116.801H83.3188V113.636C83.3188 113.283 83.26 113.008 83.1522 112.822C83.0444 112.646 82.8189 112.548 82.4857 112.548C82.1035 112.548 81.8192 112.675 81.6232 112.92C81.4272 113.165 81.3292 113.488 81.3292 113.89V116.801H80.2119V111.744H81.2704ZM93.2583 115.223C93.1308 115.772 92.8564 116.203 92.4448 116.507C92.0331 116.821 91.5333 116.968 90.9648 116.968C90.2003 116.968 89.5926 116.723 89.1418 116.233C88.6909 115.743 88.4753 115.106 88.4753 114.331C88.4753 113.547 88.7007 112.891 89.1614 112.371C89.6221 111.862 90.2101 111.597 90.9256 111.597C91.6607 111.597 92.2487 111.852 92.68 112.361C93.1112 112.871 93.3269 113.557 93.3269 114.429V114.547H89.5926C89.6024 115.057 89.7299 115.459 89.9749 115.733C90.2101 116.007 90.5532 116.145 90.9844 116.145C91.2882 116.145 91.5333 116.076 91.7293 115.929C91.9253 115.782 92.0723 115.547 92.1899 115.223H93.2583ZM92.2095 113.802C92.1703 113.381 92.0429 113.047 91.8077 112.802C91.5725 112.557 91.2784 112.43 90.9158 112.43C90.5434 112.43 90.2493 112.548 90.0239 112.783C89.7985 113.018 89.6613 113.361 89.6123 113.802H92.2095Z" fill="#0A0909"/>
<path d="M124.61 55.2949H177.816C181.296 55.2951 184.117 58.116 184.117 61.5957V134.403C184.117 137.883 181.296 140.704 177.816 140.704H124.61C121.131 140.704 118.31 137.883 118.31 134.403V61.5957C118.31 58.1159 121.131 55.2949 124.61 55.2949Z" fill="white"/>
<path d="M124.61 55.2949H177.816C181.296 55.2951 184.117 58.116 184.117 61.5957V134.403C184.117 137.883 181.296 140.704 177.816 140.704H124.61C121.131 140.704 118.31 137.883 118.31 134.403V61.5957C118.31 58.1159 121.131 55.2949 124.61 55.2949Z" stroke="#01A56D" stroke-width="1.40016"/>
<path d="M128.812 60.8955H173.616C176.323 60.8955 178.518 63.0894 178.518 65.7959V110.601C178.518 113.307 176.323 115.502 173.616 115.502H128.812C126.105 115.502 123.911 113.307 123.911 110.601V65.7959C123.911 63.0894 126.105 60.8955 128.812 60.8955Z" stroke="#0A0909" stroke-width="1.40016"/>
<path d="M136.014 71.3965H134.414V72.9967H136.014V71.3965Z" fill="#0A0909"/>
<path d="M137.614 71.3965H136.014V72.9967H137.614V71.3965Z" fill="#0A0909"/>
<path d="M139.215 71.3965H137.614V72.9967H139.215V71.3965Z" fill="#0A0909"/>
<path d="M140.815 71.3965H139.215V72.9967H140.815V71.3965Z" fill="#0A0909"/>
<path d="M142.415 71.3965H140.815V72.9967H142.415V71.3965Z" fill="#0A0909"/>
<path d="M144.015 71.3965H142.415V72.9967H144.015V71.3965Z" fill="#0A0909"/>
<path d="M145.615 71.3965H144.015V72.9967H145.615V71.3965Z" fill="#0A0909"/>
<path d="M148.816 71.3965H147.215V72.9967H148.816V71.3965Z" fill="#0A0909"/>
<path d="M153.616 71.3965H152.016V72.9967H153.616V71.3965Z" fill="#0A0909"/>
<path d="M158.417 71.3965H156.817V72.9967H158.417V71.3965Z" fill="#0A0909"/>
<path d="M160.017 71.3965H158.417V72.9967H160.017V71.3965Z" fill="#0A0909"/>
<path d="M161.617 71.3965H160.017V72.9967H161.617V71.3965Z" fill="#0A0909"/>
<path d="M163.217 71.3965H161.617V72.9967H163.217V71.3965Z" fill="#0A0909"/>
<path d="M164.817 71.3965H163.217V72.9967H164.817V71.3965Z" fill="#0A0909"/>
<path d="M166.418 71.3965H164.817V72.9967H166.418V71.3965Z" fill="#0A0909"/>
<path d="M168.018 71.3965H166.418V72.9967H168.018V71.3965Z" fill="#0A0909"/>
<path d="M136.014 72.9967H134.414V74.5968H136.014V72.9967Z" fill="#0A0909"/>
<path d="M145.615 72.9967H144.015V74.5968H145.615V72.9967Z" fill="#0A0909"/>
<path d="M152.016 72.9967H150.416V74.5968H152.016V72.9967Z" fill="#0A0909"/>
<path d="M155.216 72.9967H153.616V74.5968H155.216V72.9967Z" fill="#0A0909"/>
<path d="M158.417 72.9967H156.817V74.5968H158.417V72.9967Z" fill="#0A0909"/>
<path d="M168.018 72.9967H166.418V74.5968H168.018V72.9967Z" fill="#0A0909"/>
<path d="M136.014 74.5968H134.414V76.197H136.014V74.5968Z" fill="#0A0909"/>
<path d="M139.215 74.5968H137.614V76.197H139.215V74.5968Z" fill="#0A0909"/>
<path d="M140.815 74.5968H139.215V76.197H140.815V74.5968Z" fill="#0A0909"/>
<path d="M142.415 74.5968H140.815V76.197H142.415V74.5968Z" fill="#0A0909"/>
<path d="M145.615 74.5968H144.015V76.197H145.615V74.5968Z" fill="#0A0909"/>
<path d="M148.816 74.5968H147.215V76.197H148.816V74.5968Z" fill="#0A0909"/>
<path d="M150.416 74.5968H148.816V76.197H150.416L150.416 74.5968Z" fill="#0A0909"/>
<path d="M155.216 74.5968H153.616V76.197H155.216V74.5968Z" fill="#0A0909"/>
<path d="M158.417 74.5968H156.817V76.197H158.417V74.5968Z" fill="#0A0909"/>
<path d="M161.617 74.5968H160.017V76.197H161.617V74.5968Z" fill="#0A0909"/>
<path d="M163.217 74.5968H161.617V76.197H163.217V74.5968Z" fill="#0A0909"/>
<path d="M164.817 74.5968H163.217V76.197H164.817V74.5968Z" fill="#0A0909"/>
<path d="M168.018 74.5968H166.418V76.197H168.018V74.5968Z" fill="#0A0909"/>
<path d="M136.014 76.197H134.414V77.7972H136.014V76.197Z" fill="#0A0909"/>
<path d="M139.215 76.197H137.614V77.7972H139.215V76.197Z" fill="#0A0909"/>
<path d="M140.815 76.197H139.215V77.7972H140.815V76.197Z" fill="#0A0909"/>
<path d="M142.415 76.197H140.815V77.7972H142.415V76.197Z" fill="#0A0909"/>
<path d="M145.615 76.197H144.015V77.7972H145.615V76.197Z" fill="#0A0909"/>
<path d="M148.816 76.197H147.215V77.7972H148.816V76.197Z" fill="#0A0909"/>
<path d="M150.416 76.197H148.816V77.7972H150.416V76.197Z" fill="#0A0909"/>
<path d="M152.016 76.197H150.416V77.7972H152.016V76.197Z" fill="#0A0909"/>
<path d="M153.616 76.197H152.016V77.7972H153.616V76.197Z" fill="#0A0909"/>
<path d="M155.216 76.197H153.616V77.7972H155.216V76.197Z" fill="#0A0909"/>
<path d="M158.417 76.197H156.817V77.7972H158.417V76.197Z" fill="#0A0909"/>
<path d="M161.617 76.197H160.017V77.7972H161.617V76.197Z" fill="#0A0909"/>
<path d="M163.217 76.197H161.617V77.7972H163.217V76.197Z" fill="#0A0909"/>
<path d="M164.817 76.197H163.217V77.7972H164.817V76.197Z" fill="#0A0909"/>
<path d="M168.018 76.197H166.418V77.7972H168.018V76.197Z" fill="#0A0909"/>
<path d="M136.014 77.7972H134.414V79.3974H136.014V77.7972Z" fill="#0A0909"/>
<path d="M139.215 77.7972H137.614V79.3974H139.215V77.7972Z" fill="#0A0909"/>
<path d="M140.815 77.7972H139.215V79.3974H140.815V77.7972Z" fill="#0A0909"/>
<path d="M142.415 77.7972H140.815V79.3974H142.415V77.7972Z" fill="#0A0909"/>
<path d="M145.615 77.7972H144.015V79.3974H145.615V77.7972Z" fill="#0A0909"/>
<path d="M148.816 77.7972H147.215V79.3974H148.816V77.7972Z" fill="#0A0909"/>
<path d="M150.416 77.7972H148.816V79.3974H150.416V77.7972Z" fill="#0A0909"/>
<path d="M153.616 77.7972H152.016V79.3974H153.616V77.7972Z" fill="#0A0909"/>
<path d="M155.216 77.7972H153.616V79.3974H155.216V77.7972Z" fill="#0A0909"/>
<path d="M158.417 77.7972H156.817V79.3974H158.417V77.7972Z" fill="#0A0909"/>
<path d="M161.617 77.7972H160.017V79.3974H161.617V77.7972Z" fill="#0A0909"/>
<path d="M163.217 77.7972H161.617V79.3974H163.217V77.7972Z" fill="#0A0909"/>
<path d="M164.817 77.7972H163.217V79.3974H164.817V77.7972Z" fill="#0A0909"/>
<path d="M168.018 77.7972H166.418V79.3974H168.018V77.7972Z" fill="#0A0909"/>
<path d="M136.014 79.3974H134.414V80.9976H136.014V79.3974Z" fill="#0A0909"/>
<path d="M145.615 79.3974H144.015V80.9976H145.615V79.3974Z" fill="#0A0909"/>
<path d="M148.816 79.3974H147.215V80.9976H148.816V79.3974Z" fill="#0A0909"/>
<path d="M150.416 79.3974H148.816V80.9976H150.416V79.3974Z" fill="#0A0909"/>
<path d="M152.016 79.3974H150.416V80.9976H152.016V79.3974Z" fill="#0A0909"/>
<path d="M155.216 79.3974H153.616V80.9976H155.216V79.3974Z" fill="#0A0909"/>
<path d="M158.417 79.3974H156.817V80.9976H158.417V79.3974Z" fill="#0A0909"/>
<path d="M168.018 79.3974H166.418V80.9976H168.018V79.3974Z" fill="#0A0909"/>
<path d="M136.014 80.9976H134.414V82.5977H136.014V80.9976Z" fill="#0A0909"/>
<path d="M137.614 80.9976H136.014V82.5977H137.614V80.9976Z" fill="#0A0909"/>
<path d="M139.215 80.9976H137.614V82.5977H139.215V80.9976Z" fill="#0A0909"/>
<path d="M140.815 80.9976H139.215V82.5977H140.815V80.9976Z" fill="#0A0909"/>
<path d="M142.415 80.9976H140.815V82.5977H142.415V80.9976Z" fill="#0A0909"/>
<path d="M144.015 80.9976H142.415V82.5977H144.015V80.9976Z" fill="#0A0909"/>
<path d="M145.615 80.9976H144.015V82.5977H145.615V80.9976Z" fill="#0A0909"/>
<path d="M148.816 80.9976H147.215V82.5977H148.816V80.9976Z" fill="#0A0909"/>
<path d="M152.016 80.9976H150.416L150.416 82.5977H152.016V80.9976Z" fill="#0A0909"/>
<path d="M155.216 80.9976H153.616V82.5977H155.216V80.9976Z" fill="#0A0909"/>
<path d="M158.417 80.9976H156.817V82.5977H158.417V80.9976Z" fill="#0A0909"/>
<path d="M160.017 80.9976H158.417V82.5977H160.017V80.9976Z" fill="#0A0909"/>
<path d="M161.617 80.9976H160.017V82.5977H161.617V80.9976Z" fill="#0A0909"/>
<path d="M163.217 80.9976H161.617V82.5977H163.217V80.9976Z" fill="#0A0909"/>
<path d="M164.817 80.9976H163.217V82.5977H164.817V80.9976Z" fill="#0A0909"/>
<path d="M166.418 80.9976H164.817V82.5977H166.418V80.9976Z" fill="#0A0909"/>
<path d="M168.018 80.9976H166.418V82.5977H168.018V80.9976Z" fill="#0A0909"/>
<path d="M152.016 82.5977H150.416V84.1979H152.016V82.5977Z" fill="#0A0909"/>
<path d="M153.616 82.5977H152.016V84.1979H153.616V82.5977Z" fill="#0A0909"/>
<path d="M155.216 82.5977H153.616V84.1979H155.216V82.5977Z" fill="#0A0909"/>
<path d="M139.215 84.1979H137.614V85.7981H139.215V84.1979Z" fill="#0A0909"/>
<path d="M140.815 84.1979H139.215V85.7981H140.815V84.1979Z" fill="#0A0909"/>
<path d="M142.415 84.1979H140.815V85.7981H142.415V84.1979Z" fill="#0A0909"/>
<path d="M144.015 84.1979H142.415V85.7981H144.015V84.1979Z" fill="#0A0909"/>
<path d="M145.615 84.1979H144.015V85.7981H145.615V84.1979Z" fill="#0A0909"/>
<path d="M147.215 84.1979H145.615V85.7981H147.215V84.1979Z" fill="#0A0909"/>
<path d="M152.016 84.1979H150.416V85.7981H152.016V84.1979Z" fill="#0A0909"/>
<path d="M153.616 84.1979H152.016V85.7981H153.616V84.1979Z" fill="#0A0909"/>
<path d="M156.817 84.1979L155.216 84.1979V85.7981H156.817V84.1979Z" fill="#0A0909"/>
<path d="M160.017 84.1979H158.417V85.7981H160.017V84.1979Z" fill="#0A0909"/>
<path d="M161.617 84.1979H160.017V85.7981H161.617V84.1979Z" fill="#0A0909"/>
<path d="M163.217 84.1979H161.617V85.7981H163.217V84.1979Z" fill="#0A0909"/>
<path d="M164.817 84.1979H163.217V85.7981H164.817V84.1979Z" fill="#0A0909"/>
<path d="M168.018 84.1979H166.418V85.7981H168.018V84.1979Z" fill="#0A0909"/>
<path d="M136.014 85.7981H134.414V87.3983H136.014V85.7981Z" fill="#0A0909"/>
<path d="M137.614 85.7981L136.014 85.7981V87.3983H137.614V85.7981Z" fill="#0A0909"/>
<path d="M139.215 85.7981H137.614V87.3983H139.215V85.7981Z" fill="#0A0909"/>
<path d="M140.815 85.7981H139.215V87.3983H140.815V85.7981Z" fill="#0A0909"/>
<path d="M155.216 85.7981H153.616V87.3983H155.216V85.7981Z" fill="#0A0909"/>
<path d="M156.817 85.7981H155.216V87.3983H156.817V85.7981Z" fill="#0A0909"/>
<path d="M161.617 85.7981H160.017V87.3983H161.617V85.7981Z" fill="#0A0909"/>
<path d="M163.217 85.7981H161.617V87.3983H163.217V85.7981Z" fill="#0A0909"/>
<path d="M166.418 85.7981H164.817V87.3983H166.418V85.7981Z" fill="#0A0909"/>
<path d="M136.014 87.3983H134.414V88.9984H136.014V87.3983Z" fill="#0A0909"/>
<path d="M140.815 87.3983H139.215V88.9984H140.815V87.3983Z" fill="#0A0909"/>
<path d="M144.015 87.3983H142.415V88.9984H144.015V87.3983Z" fill="#0A0909"/>
<path d="M145.615 87.3983H144.015V88.9984H145.615V87.3983Z" fill="#0A0909"/>
<path d="M150.416 87.3983H148.816V88.9984H150.416V87.3983Z" fill="#0A0909"/>
<path d="M156.817 87.3983H155.216V88.9984H156.817V87.3983Z" fill="#0A0909"/>
<path d="M163.217 87.3983H161.617V88.9984H163.217V87.3983Z" fill="#0A0909"/>
<path d="M166.418 87.3983H164.817V88.9984H166.418V87.3983Z" fill="#0A0909"/>
<path d="M168.018 87.3983L166.418 87.3983V88.9984H168.018V87.3983Z" fill="#0A0909"/>
<path d="M137.614 88.9984H136.014V90.5986H137.614V88.9984Z" fill="#0A0909"/>
<path d="M140.815 88.9984H139.215V90.5986H140.815V88.9984Z" fill="#0A0909"/>
<path d="M142.415 88.9984H140.815V90.5986H142.415V88.9984Z" fill="#0A0909"/>
<path d="M147.215 88.9984H145.615V90.5986H147.215V88.9984Z" fill="#0A0909"/>
<path d="M152.016 88.9984H150.416L150.416 90.5986H152.016V88.9984Z" fill="#0A0909"/>
<path d="M155.216 88.9984H153.616V90.5986H155.216V88.9984Z" fill="#0A0909"/>
<path d="M156.817 88.9984H155.216V90.5986H156.817V88.9984Z" fill="#0A0909"/>
<path d="M160.017 88.9984H158.417V90.5986H160.017V88.9984Z" fill="#0A0909"/>
<path d="M164.817 88.9984H163.217V90.5986H164.817V88.9984Z" fill="#0A0909"/>
<path d="M168.018 88.9984H166.418V90.5986H168.018V88.9984Z" fill="#0A0909"/>
<path d="M136.014 90.5986H134.414V92.1988H136.014V90.5986Z" fill="#0A0909"/>
<path d="M137.614 90.5986H136.014V92.1988H137.614V90.5986Z" fill="#0A0909"/>
<path d="M142.415 90.5986H140.815V92.1988H142.415V90.5986Z" fill="#0A0909"/>
<path d="M144.015 90.5986H142.415V92.1988H144.015V90.5986Z" fill="#0A0909"/>
<path d="M145.615 90.5986H144.015V92.1988H145.615V90.5986Z" fill="#0A0909"/>
<path d="M147.215 90.5986H145.615V92.1988H147.215V90.5986Z" fill="#0A0909"/>
<path d="M148.816 90.5986H147.215V92.1988H148.816V90.5986Z" fill="#0A0909"/>
<path d="M150.416 90.5986H148.816V92.1988H150.416L150.416 90.5986Z" fill="#0A0909"/>
<path d="M156.817 90.5986H155.216V92.1988H156.817V90.5986Z" fill="#0A0909"/>
<path d="M158.417 90.5986H156.817V92.1988H158.417V90.5986Z" fill="#0A0909"/>
<path d="M160.017 90.5986H158.417V92.1988H160.017V90.5986Z" fill="#0A0909"/>
<path d="M161.617 90.5986H160.017V92.1988H161.617V90.5986Z" fill="#0A0909"/>
<path d="M163.217 90.5986H161.617V92.1988H163.217V90.5986Z" fill="#0A0909"/>
<path d="M152.016 92.1988H150.416L150.416 93.799H152.016V92.1988Z" fill="#0A0909"/>
<path d="M155.216 92.1988H153.616V93.799H155.216V92.1988Z" fill="#0A0909"/>
<path d="M156.817 92.1988H155.216V93.799H156.817V92.1988Z" fill="#0A0909"/>
<path d="M160.017 92.1988H158.417V93.799H160.017V92.1988Z" fill="#0A0909"/>
<path d="M164.817 92.1988H163.217V93.799H164.817V92.1988Z" fill="#0A0909"/>
<path d="M168.018 92.1988H166.418V93.799H168.018V92.1988Z" fill="#0A0909"/>
<path d="M136.014 93.799H134.414V95.3992H136.014V93.799Z" fill="#0A0909"/>
<path d="M137.614 93.799H136.014V95.3992H137.614V93.799Z" fill="#0A0909"/>
<path d="M139.215 93.799H137.614V95.3992H139.215V93.799Z" fill="#0A0909"/>
<path d="M140.815 93.799H139.215V95.3992H140.815V93.799Z" fill="#0A0909"/>
<path d="M142.415 93.799H140.815V95.3992H142.415V93.799Z" fill="#0A0909"/>
<path d="M144.015 93.799H142.415V95.3992H144.015V93.799Z" fill="#0A0909"/>
<path d="M145.615 93.799H144.015V95.3992H145.615V93.799Z" fill="#0A0909"/>
<path d="M148.816 93.799H147.215V95.3992H148.816V93.799Z" fill="#0A0909"/>
<path d="M156.817 93.799H155.216V95.3992H156.817V93.799Z" fill="#0A0909"/>
<path d="M158.417 93.799H156.817V95.3992H158.417V93.799Z" fill="#0A0909"/>
<path d="M160.017 93.799H158.417V95.3992H160.017V93.799Z" fill="#0A0909"/>
<path d="M136.014 95.3992H134.414V96.9993H136.014V95.3992Z" fill="#0A0909"/>
<path d="M145.615 95.3992H144.015V96.9993H145.615V95.3992Z" fill="#0A0909"/>
<path d="M148.816 95.3992H147.215V96.9993H148.816V95.3992Z" fill="#0A0909"/>
<path d="M150.416 95.3992H148.816V96.9993H150.416V95.3992Z" fill="#0A0909"/>
<path d="M153.616 95.3992H152.016V96.9993H153.616V95.3992Z" fill="#0A0909"/>
<path d="M158.417 95.3992H156.817V96.9993H158.417V95.3992Z" fill="#0A0909"/>
<path d="M161.617 95.3992H160.017V96.9993H161.617V95.3992Z" fill="#0A0909"/>
<path d="M163.217 95.3992H161.617V96.9993H163.217V95.3992Z" fill="#0A0909"/>
<path d="M166.418 95.3992H164.817V96.9993H166.418V95.3992Z" fill="#0A0909"/>
<path d="M136.014 96.9993H134.414V98.5995H136.014V96.9993Z" fill="#0A0909"/>
<path d="M139.215 96.9993H137.614V98.5995H139.215V96.9993Z" fill="#0A0909"/>
<path d="M140.815 96.9993H139.215V98.5995H140.815V96.9993Z" fill="#0A0909"/>
<path d="M142.415 96.9993H140.815V98.5995H142.415V96.9993Z" fill="#0A0909"/>
<path d="M145.615 96.9993H144.015V98.5995H145.615V96.9993Z" fill="#0A0909"/>
<path d="M148.816 96.9993H147.215V98.5995H148.816V96.9993Z" fill="#0A0909"/>
<path d="M152.016 96.9993H150.416L150.416 98.5995H152.016V96.9993Z" fill="#0A0909"/>
<path d="M153.616 96.9993H152.016V98.5995H153.616V96.9993Z" fill="#0A0909"/>
<path d="M155.216 96.9993H153.616V98.5995H155.216V96.9993Z" fill="#0A0909"/>
<path d="M164.817 96.9993H163.217V98.5995H164.817V96.9993Z" fill="#0A0909"/>
<path d="M166.418 96.9993H164.817V98.5995H166.418V96.9993Z" fill="#0A0909"/>
<path d="M168.018 96.9993H166.418V98.5995H168.018V96.9993Z" fill="#0A0909"/>
<path d="M136.014 98.5995H134.414V100.2H136.014V98.5995Z" fill="#0A0909"/>
<path d="M139.215 98.5995H137.614V100.2H139.215V98.5995Z" fill="#0A0909"/>
<path d="M140.815 98.5995H139.215V100.2H140.815V98.5995Z" fill="#0A0909"/>
<path d="M142.415 98.5995H140.815V100.2H142.415V98.5995Z" fill="#0A0909"/>
<path d="M145.615 98.5995H144.015V100.2H145.615V98.5995Z" fill="#0A0909"/>
<path d="M148.816 98.5995H147.215V100.2H148.816V98.5995Z" fill="#0A0909"/>
<path d="M150.416 98.5995H148.816V100.2H150.416L150.416 98.5995Z" fill="#0A0909"/>
<path d="M156.817 98.5995H155.216V100.2H156.817V98.5995Z" fill="#0A0909"/>
<path d="M160.017 98.5995H158.417V100.2H160.017V98.5995Z" fill="#0A0909"/>
<path d="M164.817 98.5995H163.217V100.2H164.817V98.5995Z" fill="#0A0909"/>
<path d="M168.018 98.5995H166.418V100.2H168.018V98.5995Z" fill="#0A0909"/>
<path d="M136.014 100.2H134.414V101.8H136.014V100.2Z" fill="#0A0909"/>
<path d="M139.215 100.2H137.614V101.8H139.215V100.2Z" fill="#0A0909"/>
<path d="M140.815 100.2H139.215V101.8H140.815V100.2Z" fill="#0A0909"/>
<path d="M142.415 100.2H140.815V101.8H142.415V100.2Z" fill="#0A0909"/>
<path d="M145.615 100.2H144.015V101.8H145.615V100.2Z" fill="#0A0909"/>
<path d="M148.816 100.2H147.215V101.8H148.816V100.2Z" fill="#0A0909"/>
<path d="M150.416 100.2H148.816V101.8H150.416V100.2Z" fill="#0A0909"/>
<path d="M153.616 100.2H152.016V101.8H153.616V100.2Z" fill="#0A0909"/>
<path d="M155.216 100.2H153.616V101.8H155.216V100.2Z" fill="#0A0909"/>
<path d="M161.617 100.2H160.017V101.8H161.617V100.2Z" fill="#0A0909"/>
<path d="M163.217 100.2H161.617V101.8H163.217V100.2Z" fill="#0A0909"/>
<path d="M164.817 100.2H163.217V101.8H164.817V100.2Z" fill="#0A0909"/>
<path d="M166.418 100.2H164.817V101.8H166.418V100.2Z" fill="#0A0909"/>
<path d="M168.018 100.2H166.418V101.8H168.018V100.2Z" fill="#0A0909"/>
<path d="M136.014 101.8H134.414V103.4H136.014V101.8Z" fill="#0A0909"/>
<path d="M145.615 101.8H144.015V103.4H145.615V101.8Z" fill="#0A0909"/>
<path d="M150.416 101.8H148.816L148.816 103.4H150.416V101.8Z" fill="#0A0909"/>
<path d="M152.016 101.8H150.416V103.4H152.016V101.8Z" fill="#0A0909"/>
<path d="M155.216 101.8H153.616V103.4H155.216V101.8Z" fill="#0A0909"/>
<path d="M158.417 101.8H156.817V103.4H158.417V101.8Z" fill="#0A0909"/>
<path d="M168.018 101.8H166.418V103.4H168.018V101.8Z" fill="#0A0909"/>
<path d="M136.014 103.4H134.414V105H136.014V103.4Z" fill="#0A0909"/>
<path d="M137.614 103.4H136.014V105H137.614V103.4Z" fill="#0A0909"/>
<path d="M139.215 103.4H137.614V105H139.215V103.4Z" fill="#0A0909"/>
<path d="M140.815 103.4H139.215V105H140.815V103.4Z" fill="#0A0909"/>
<path d="M142.415 103.4H140.815V105H142.415V103.4Z" fill="#0A0909"/>
<path d="M144.015 103.4H142.415V105H144.015V103.4Z" fill="#0A0909"/>
<path d="M145.615 103.4H144.015V105H145.615V103.4Z" fill="#0A0909"/>
<path d="M150.416 103.4H148.816V105H150.416V103.4Z" fill="#0A0909"/>
<path d="M153.616 103.4H152.016V105H153.616V103.4Z" fill="#0A0909"/>
<path d="M156.817 103.4H155.216V105H156.817V103.4Z" fill="#0A0909"/>
<path d="M160.017 103.4H158.417V105H160.017V103.4Z" fill="#0A0909"/>
<path d="M148.641 123.918V124.674H147.052V128.903H146.177V124.674H144.588V123.918H148.641ZM151.564 127.776C151.473 128.168 151.277 128.476 150.983 128.693C150.689 128.917 150.332 129.022 149.926 129.022C149.379 129.022 148.945 128.847 148.623 128.497C148.301 128.147 148.147 127.692 148.147 127.139C148.147 126.579 148.308 126.11 148.637 125.738C148.966 125.374 149.386 125.185 149.898 125.185C150.423 125.185 150.843 125.367 151.151 125.731C151.459 126.096 151.613 126.586 151.613 127.209V127.293H148.945C148.952 127.657 149.043 127.944 149.218 128.14C149.386 128.336 149.631 128.434 149.94 128.434C150.157 128.434 150.332 128.385 150.472 128.28C150.612 128.175 150.717 128.007 150.801 127.776H151.564ZM150.815 126.761C150.787 126.46 150.696 126.222 150.528 126.047C150.36 125.871 150.15 125.78 149.891 125.78C149.624 125.78 149.414 125.864 149.253 126.033C149.092 126.201 148.994 126.446 148.959 126.761H150.815ZM153.186 127.006L151.932 125.29H152.899L153.655 126.404L154.446 125.29H155.37L154.145 126.964L155.524 128.903H154.565L153.648 127.573L152.758 128.903H151.82L153.186 127.006ZM157.744 125.29V125.871H157.016V127.776C157.016 127.888 157.016 127.972 157.023 128.014C157.023 128.056 157.037 128.105 157.065 128.161C157.086 128.217 157.128 128.252 157.184 128.266C157.24 128.287 157.324 128.294 157.429 128.294C157.555 128.294 157.66 128.294 157.744 128.28V128.91C157.583 128.931 157.401 128.938 157.205 128.938C157.065 128.938 156.939 128.931 156.834 128.91C156.729 128.889 156.645 128.861 156.575 128.833C156.505 128.805 156.442 128.763 156.4 128.693C156.351 128.623 156.316 128.567 156.288 128.525C156.26 128.483 156.246 128.399 156.232 128.287C156.218 128.175 156.218 128.091 156.218 128.035V127.727V127.685V127.643V127.594V125.871H155.616V125.29H156.218V124.205H157.016V125.29H157.744Z" fill="#0A0909"/>
<path d="M203.017 54.9443H256.223C259.896 54.9445 262.873 57.9227 262.873 61.5957V134.403C262.873 138.076 259.896 141.055 256.223 141.055H203.017C199.343 141.055 196.365 138.076 196.365 134.403V61.5957C196.365 57.9226 199.343 54.9443 203.017 54.9443Z" fill="white"/>
<path d="M203.017 54.9443H256.223C259.896 54.9445 262.873 57.9227 262.873 61.5957V134.403C262.873 138.076 259.896 141.055 256.223 141.055H203.017C199.343 141.055 196.365 138.076 196.365 134.403V61.5957C196.365 57.9226 199.343 54.9443 203.017 54.9443Z" stroke="#D3D8EB" stroke-width="0.700078"/>
<path d="M207.218 60.8955H252.022C254.729 60.8955 256.924 63.0894 256.924 65.7959V110.601C256.924 113.307 254.729 115.502 252.022 115.502H207.218C204.511 115.502 202.317 113.307 202.317 110.601V65.7959C202.317 63.0894 204.511 60.8955 207.218 60.8955Z" stroke="#0A0909" stroke-width="1.40016"/>
<path d="M214.42 71.3965H212.82V72.9967H214.42V71.3965Z" fill="#0A0909"/>
<path d="M216.021 71.3965H214.42V72.9967H216.021V71.3965Z" fill="#0A0909"/>
<path d="M217.621 71.3965H216.021V72.9967H217.621V71.3965Z" fill="#0A0909"/>
<path d="M219.221 71.3965H217.621V72.9967H219.221V71.3965Z" fill="#0A0909"/>
<path d="M220.821 71.3965H219.221V72.9967H220.821V71.3965Z" fill="#0A0909"/>
<path d="M222.421 71.3965H220.821V72.9967H222.421V71.3965Z" fill="#0A0909"/>
<path d="M224.022 71.3965H222.421V72.9967H224.022V71.3965Z" fill="#0A0909"/>
<path d="M227.222 71.3965H225.622V72.9967H227.222V71.3965Z" fill="#0A0909"/>
<path d="M232.022 71.3965H230.422V72.9967H232.022V71.3965Z" fill="#0A0909"/>
<path d="M236.823 71.3965H235.223V72.9967H236.823V71.3965Z" fill="#0A0909"/>
<path d="M238.423 71.3965H236.823V72.9967H238.423V71.3965Z" fill="#0A0909"/>
<path d="M240.023 71.3965H238.423V72.9967H240.023V71.3965Z" fill="#0A0909"/>
<path d="M241.624 71.3965H240.023V72.9967H241.624V71.3965Z" fill="#0A0909"/>
<path d="M243.224 71.3965H241.624V72.9967H243.224V71.3965Z" fill="#0A0909"/>
<path d="M244.824 71.3965H243.224V72.9967H244.824V71.3965Z" fill="#0A0909"/>
<path d="M246.424 71.3965H244.824V72.9967H246.424V71.3965Z" fill="#0A0909"/>
<path d="M214.42 72.9967H212.82V74.5968H214.42V72.9967Z" fill="#0A0909"/>
<path d="M224.022 72.9967H222.421V74.5968H224.022V72.9967Z" fill="#0A0909"/>
<path d="M230.422 72.9967H228.822V74.5968H230.422V72.9967Z" fill="#0A0909"/>
<path d="M233.623 72.9967H232.022V74.5968H233.623V72.9967Z" fill="#0A0909"/>
<path d="M236.823 72.9967H235.223V74.5968H236.823V72.9967Z" fill="#0A0909"/>
<path d="M246.424 72.9967H244.824V74.5968H246.424V72.9967Z" fill="#0A0909"/>
<path d="M214.42 74.5968H212.82V76.197H214.42V74.5968Z" fill="#0A0909"/>
<path d="M217.621 74.5968H216.021V76.197H217.621V74.5968Z" fill="#0A0909"/>
<path d="M219.221 74.5968H217.621V76.197H219.221V74.5968Z" fill="#0A0909"/>
<path d="M220.821 74.5968H219.221V76.197H220.821V74.5968Z" fill="#0A0909"/>
<path d="M224.022 74.5968H222.421V76.197H224.022V74.5968Z" fill="#0A0909"/>
<path d="M227.222 74.5968H225.622V76.197H227.222V74.5968Z" fill="#0A0909"/>
<path d="M228.822 74.5968H227.222V76.197H228.822L228.822 74.5968Z" fill="#0A0909"/>
<path d="M233.623 74.5968H232.022V76.197H233.623V74.5968Z" fill="#0A0909"/>
<path d="M236.823 74.5968H235.223V76.197H236.823V74.5968Z" fill="#0A0909"/>
<path d="M240.023 74.5968H238.423V76.197H240.023V74.5968Z" fill="#0A0909"/>
<path d="M241.624 74.5968H240.023V76.197H241.624V74.5968Z" fill="#0A0909"/>
<path d="M243.224 74.5968H241.624V76.197H243.224V74.5968Z" fill="#0A0909"/>
<path d="M246.424 74.5968H244.824V76.197H246.424V74.5968Z" fill="#0A0909"/>
<path d="M214.42 76.197H212.82V77.7972H214.42V76.197Z" fill="#0A0909"/>
<path d="M217.621 76.197H216.021V77.7972H217.621V76.197Z" fill="#0A0909"/>
<path d="M219.221 76.197H217.621V77.7972H219.221V76.197Z" fill="#0A0909"/>
<path d="M220.821 76.197H219.221V77.7972H220.821V76.197Z" fill="#0A0909"/>
<path d="M224.022 76.197H222.421V77.7972H224.022V76.197Z" fill="#0A0909"/>
<path d="M227.222 76.197H225.622V77.7972H227.222V76.197Z" fill="#0A0909"/>
<path d="M228.822 76.197H227.222V77.7972H228.822V76.197Z" fill="#0A0909"/>
<path d="M230.422 76.197H228.822V77.7972H230.422V76.197Z" fill="#0A0909"/>
<path d="M232.022 76.197H230.422V77.7972H232.022V76.197Z" fill="#0A0909"/>
<path d="M233.623 76.197H232.022V77.7972H233.623V76.197Z" fill="#0A0909"/>
<path d="M236.823 76.197H235.223V77.7972H236.823V76.197Z" fill="#0A0909"/>
<path d="M240.023 76.197H238.423V77.7972H240.023V76.197Z" fill="#0A0909"/>
<path d="M241.624 76.197H240.023V77.7972H241.624V76.197Z" fill="#0A0909"/>
<path d="M243.224 76.197H241.624V77.7972H243.224V76.197Z" fill="#0A0909"/>
<path d="M246.424 76.197H244.824V77.7972H246.424V76.197Z" fill="#0A0909"/>
<path d="M214.42 77.7972H212.82V79.3974H214.42V77.7972Z" fill="#0A0909"/>
<path d="M217.621 77.7972H216.021V79.3974H217.621V77.7972Z" fill="#0A0909"/>
<path d="M219.221 77.7972H217.621V79.3974H219.221V77.7972Z" fill="#0A0909"/>
<path d="M220.821 77.7972H219.221V79.3974H220.821V77.7972Z" fill="#0A0909"/>
<path d="M224.022 77.7972H222.421V79.3974H224.022V77.7972Z" fill="#0A0909"/>
<path d="M227.222 77.7972H225.622V79.3974H227.222V77.7972Z" fill="#0A0909"/>
<path d="M228.822 77.7972H227.222V79.3974H228.822V77.7972Z" fill="#0A0909"/>
<path d="M232.022 77.7972H230.422V79.3974H232.022V77.7972Z" fill="#0A0909"/>
<path d="M233.623 77.7972H232.022V79.3974H233.623V77.7972Z" fill="#0A0909"/>
<path d="M236.823 77.7972H235.223V79.3974H236.823V77.7972Z" fill="#0A0909"/>
<path d="M240.023 77.7972H238.423V79.3974H240.023V77.7972Z" fill="#0A0909"/>
<path d="M241.624 77.7972H240.023V79.3974H241.624V77.7972Z" fill="#0A0909"/>
<path d="M243.224 77.7972H241.624V79.3974H243.224V77.7972Z" fill="#0A0909"/>
<path d="M246.424 77.7972H244.824V79.3974H246.424V77.7972Z" fill="#0A0909"/>
<path d="M214.42 79.3974H212.82V80.9976H214.42V79.3974Z" fill="#0A0909"/>
<path d="M224.022 79.3974H222.421V80.9976H224.022V79.3974Z" fill="#0A0909"/>
<path d="M227.222 79.3974H225.622V80.9976H227.222V79.3974Z" fill="#0A0909"/>
<path d="M228.822 79.3974H227.222V80.9976H228.822V79.3974Z" fill="#0A0909"/>
<path d="M230.422 79.3974H228.822V80.9976H230.422V79.3974Z" fill="#0A0909"/>
<path d="M233.623 79.3974H232.022V80.9976H233.623V79.3974Z" fill="#0A0909"/>
<path d="M236.823 79.3974H235.223V80.9976H236.823V79.3974Z" fill="#0A0909"/>
<path d="M246.424 79.3974H244.824V80.9976H246.424V79.3974Z" fill="#0A0909"/>
<path d="M214.42 80.9976H212.82V82.5977H214.42V80.9976Z" fill="#0A0909"/>
<path d="M216.021 80.9976H214.42V82.5977H216.021V80.9976Z" fill="#0A0909"/>
<path d="M217.621 80.9976H216.021V82.5977H217.621V80.9976Z" fill="#0A0909"/>
<path d="M219.221 80.9976H217.621V82.5977H219.221V80.9976Z" fill="#0A0909"/>
<path d="M220.821 80.9976H219.221V82.5977H220.821V80.9976Z" fill="#0A0909"/>
<path d="M222.421 80.9976H220.821V82.5977H222.421V80.9976Z" fill="#0A0909"/>
<path d="M224.022 80.9976H222.421V82.5977H224.022V80.9976Z" fill="#0A0909"/>
<path d="M227.222 80.9976H225.622V82.5977H227.222V80.9976Z" fill="#0A0909"/>
<path d="M230.422 80.9976H228.822L228.822 82.5977H230.422V80.9976Z" fill="#0A0909"/>
<path d="M233.623 80.9976H232.022V82.5977H233.623V80.9976Z" fill="#0A0909"/>
<path d="M236.823 80.9976H235.223V82.5977H236.823V80.9976Z" fill="#0A0909"/>
<path d="M238.423 80.9976H236.823V82.5977H238.423V80.9976Z" fill="#0A0909"/>
<path d="M240.023 80.9976H238.423V82.5977H240.023V80.9976Z" fill="#0A0909"/>
<path d="M241.624 80.9976H240.023V82.5977H241.624V80.9976Z" fill="#0A0909"/>
<path d="M243.224 80.9976H241.624V82.5977H243.224V80.9976Z" fill="#0A0909"/>
<path d="M244.824 80.9976H243.224V82.5977H244.824V80.9976Z" fill="#0A0909"/>
<path d="M246.424 80.9976H244.824V82.5977H246.424V80.9976Z" fill="#0A0909"/>
<path d="M230.422 82.5977H228.822V84.1979H230.422V82.5977Z" fill="#0A0909"/>
<path d="M232.022 82.5977H230.422V84.1979H232.022V82.5977Z" fill="#0A0909"/>
<path d="M233.623 82.5977H232.022V84.1979H233.623V82.5977Z" fill="#0A0909"/>
<path d="M217.621 84.1979H216.021V85.7981H217.621V84.1979Z" fill="#0A0909"/>
<path d="M219.221 84.1979H217.621V85.7981H219.221V84.1979Z" fill="#0A0909"/>
<path d="M220.821 84.1979H219.221V85.7981H220.821V84.1979Z" fill="#0A0909"/>
<path d="M222.421 84.1979H220.821V85.7981H222.421V84.1979Z" fill="#0A0909"/>
<path d="M224.022 84.1979H222.421V85.7981H224.022V84.1979Z" fill="#0A0909"/>
<path d="M225.622 84.1979H224.022V85.7981H225.622V84.1979Z" fill="#0A0909"/>
<path d="M230.422 84.1979H228.822V85.7981H230.422V84.1979Z" fill="#0A0909"/>
<path d="M232.022 84.1979H230.422V85.7981H232.022V84.1979Z" fill="#0A0909"/>
<path d="M235.223 84.1979L233.623 84.1979V85.7981H235.223V84.1979Z" fill="#0A0909"/>
<path d="M238.423 84.1979H236.823V85.7981H238.423V84.1979Z" fill="#0A0909"/>
<path d="M240.023 84.1979H238.423V85.7981H240.023V84.1979Z" fill="#0A0909"/>
<path d="M241.624 84.1979H240.023V85.7981H241.624V84.1979Z" fill="#0A0909"/>
<path d="M243.224 84.1979H241.624V85.7981H243.224V84.1979Z" fill="#0A0909"/>
<path d="M246.424 84.1979H244.824V85.7981H246.424V84.1979Z" fill="#0A0909"/>
<path d="M214.42 85.7981H212.82V87.3983H214.42V85.7981Z" fill="#0A0909"/>
<path d="M216.021 85.7981L214.42 85.7981V87.3983H216.021V85.7981Z" fill="#0A0909"/>
<path d="M217.621 85.7981H216.021V87.3983H217.621V85.7981Z" fill="#0A0909"/>
<path d="M219.221 85.7981H217.621V87.3983H219.221V85.7981Z" fill="#0A0909"/>
<path d="M233.623 85.7981H232.022V87.3983H233.623V85.7981Z" fill="#0A0909"/>
<path d="M235.223 85.7981H233.623V87.3983H235.223V85.7981Z" fill="#0A0909"/>
<path d="M240.023 85.7981H238.423V87.3983H240.023V85.7981Z" fill="#0A0909"/>
<path d="M241.624 85.7981H240.023V87.3983H241.624V85.7981Z" fill="#0A0909"/>
<path d="M244.824 85.7981H243.224V87.3983H244.824V85.7981Z" fill="#0A0909"/>
<path d="M214.42 87.3983H212.82V88.9984H214.42V87.3983Z" fill="#0A0909"/>
<path d="M219.221 87.3983H217.621V88.9984H219.221V87.3983Z" fill="#0A0909"/>
<path d="M222.421 87.3983H220.821V88.9984H222.421V87.3983Z" fill="#0A0909"/>
<path d="M224.022 87.3983H222.421V88.9984H224.022V87.3983Z" fill="#0A0909"/>
<path d="M228.822 87.3983H227.222V88.9984H228.822V87.3983Z" fill="#0A0909"/>
<path d="M235.223 87.3983H233.623V88.9984H235.223V87.3983Z" fill="#0A0909"/>
<path d="M241.624 87.3983H240.023V88.9984H241.624V87.3983Z" fill="#0A0909"/>
<path d="M244.824 87.3983H243.224V88.9984H244.824V87.3983Z" fill="#0A0909"/>
<path d="M246.424 87.3983L244.824 87.3983V88.9984H246.424V87.3983Z" fill="#0A0909"/>
<path d="M216.021 88.9984H214.42V90.5986H216.021V88.9984Z" fill="#0A0909"/>
<path d="M219.221 88.9984H217.621V90.5986H219.221V88.9984Z" fill="#0A0909"/>
<path d="M220.821 88.9984H219.221V90.5986H220.821V88.9984Z" fill="#0A0909"/>
<path d="M225.622 88.9984H224.022V90.5986H225.622V88.9984Z" fill="#0A0909"/>
<path d="M230.422 88.9984H228.822L228.822 90.5986H230.422V88.9984Z" fill="#0A0909"/>
<path d="M233.623 88.9984H232.022V90.5986H233.623V88.9984Z" fill="#0A0909"/>
<path d="M235.223 88.9984H233.623V90.5986H235.223V88.9984Z" fill="#0A0909"/>
<path d="M238.423 88.9984H236.823V90.5986H238.423V88.9984Z" fill="#0A0909"/>
<path d="M243.224 88.9984H241.624V90.5986H243.224V88.9984Z" fill="#0A0909"/>
<path d="M246.424 88.9984H244.824V90.5986H246.424V88.9984Z" fill="#0A0909"/>
<path d="M214.42 90.5986H212.82V92.1988H214.42V90.5986Z" fill="#0A0909"/>
<path d="M216.021 90.5986H214.42V92.1988H216.021V90.5986Z" fill="#0A0909"/>
<path d="M220.821 90.5986H219.221V92.1988H220.821V90.5986Z" fill="#0A0909"/>
<path d="M222.421 90.5986H220.821V92.1988H222.421V90.5986Z" fill="#0A0909"/>
<path d="M224.022 90.5986H222.421V92.1988H224.022V90.5986Z" fill="#0A0909"/>
<path d="M225.622 90.5986H224.022V92.1988H225.622V90.5986Z" fill="#0A0909"/>
<path d="M227.222 90.5986H225.622V92.1988H227.222V90.5986Z" fill="#0A0909"/>
<path d="M228.822 90.5986H227.222V92.1988H228.822L228.822 90.5986Z" fill="#0A0909"/>
<path d="M235.223 90.5986H233.623V92.1988H235.223V90.5986Z" fill="#0A0909"/>
<path d="M236.823 90.5986H235.223V92.1988H236.823V90.5986Z" fill="#0A0909"/>
<path d="M238.423 90.5986H236.823V92.1988H238.423V90.5986Z" fill="#0A0909"/>
<path d="M240.023 90.5986H238.423V92.1988H240.023V90.5986Z" fill="#0A0909"/>
<path d="M241.624 90.5986H240.023V92.1988H241.624V90.5986Z" fill="#0A0909"/>
<path d="M230.422 92.1988H228.822L228.822 93.799H230.422V92.1988Z" fill="#0A0909"/>
<path d="M233.623 92.1988H232.022V93.799H233.623V92.1988Z" fill="#0A0909"/>
<path d="M235.223 92.1988H233.623V93.799H235.223V92.1988Z" fill="#0A0909"/>
<path d="M238.423 92.1988H236.823V93.799H238.423V92.1988Z" fill="#0A0909"/>
<path d="M243.224 92.1988H241.624V93.799H243.224V92.1988Z" fill="#0A0909"/>
<path d="M246.424 92.1988H244.824V93.799H246.424V92.1988Z" fill="#0A0909"/>
<path d="M214.42 93.799H212.82V95.3992H214.42V93.799Z" fill="#0A0909"/>
<path d="M216.021 93.799H214.42V95.3992H216.021V93.799Z" fill="#0A0909"/>
<path d="M217.621 93.799H216.021V95.3992H217.621V93.799Z" fill="#0A0909"/>
<path d="M219.221 93.799H217.621V95.3992H219.221V93.799Z" fill="#0A0909"/>
<path d="M220.821 93.799H219.221V95.3992H220.821V93.799Z" fill="#0A0909"/>
<path d="M222.421 93.799H220.821V95.3992H222.421V93.799Z" fill="#0A0909"/>
<path d="M224.022 93.799H222.421V95.3992H224.022V93.799Z" fill="#0A0909"/>
<path d="M227.222 93.799H225.622V95.3992H227.222V93.799Z" fill="#0A0909"/>
<path d="M235.223 93.799H233.623V95.3992H235.223V93.799Z" fill="#0A0909"/>
<path d="M236.823 93.799H235.223V95.3992H236.823V93.799Z" fill="#0A0909"/>
<path d="M238.423 93.799H236.823V95.3992H238.423V93.799Z" fill="#0A0909"/>
<path d="M214.42 95.3992H212.82V96.9993H214.42V95.3992Z" fill="#0A0909"/>
<path d="M224.022 95.3992H222.421V96.9993H224.022V95.3992Z" fill="#0A0909"/>
<path d="M227.222 95.3992H225.622V96.9993H227.222V95.3992Z" fill="#0A0909"/>
<path d="M228.822 95.3992H227.222V96.9993H228.822V95.3992Z" fill="#0A0909"/>
<path d="M232.022 95.3992H230.422V96.9993H232.022V95.3992Z" fill="#0A0909"/>
<path d="M236.823 95.3992H235.223V96.9993H236.823V95.3992Z" fill="#0A0909"/>
<path d="M240.023 95.3992H238.423V96.9993H240.023V95.3992Z" fill="#0A0909"/>
<path d="M241.624 95.3992H240.023V96.9993H241.624V95.3992Z" fill="#0A0909"/>
<path d="M244.824 95.3992H243.224V96.9993H244.824V95.3992Z" fill="#0A0909"/>
<path d="M214.42 96.9993H212.82V98.5995H214.42V96.9993Z" fill="#0A0909"/>
<path d="M217.621 96.9993H216.021V98.5995H217.621V96.9993Z" fill="#0A0909"/>
<path d="M219.221 96.9993H217.621V98.5995H219.221V96.9993Z" fill="#0A0909"/>
<path d="M220.821 96.9993H219.221V98.5995H220.821V96.9993Z" fill="#0A0909"/>
<path d="M224.022 96.9993H222.421V98.5995H224.022V96.9993Z" fill="#0A0909"/>
<path d="M227.222 96.9993H225.622V98.5995H227.222V96.9993Z" fill="#0A0909"/>
<path d="M230.422 96.9993H228.822L228.822 98.5995H230.422V96.9993Z" fill="#0A0909"/>
<path d="M232.022 96.9993H230.422V98.5995H232.022V96.9993Z" fill="#0A0909"/>
<path d="M233.623 96.9993H232.022V98.5995H233.623V96.9993Z" fill="#0A0909"/>
<path d="M243.224 96.9993H241.624V98.5995H243.224V96.9993Z" fill="#0A0909"/>
<path d="M244.824 96.9993H243.224V98.5995H244.824V96.9993Z" fill="#0A0909"/>
<path d="M246.424 96.9993H244.824V98.5995H246.424V96.9993Z" fill="#0A0909"/>
<path d="M214.42 98.5995H212.82V100.2H214.42V98.5995Z" fill="#0A0909"/>
<path d="M217.621 98.5995H216.021V100.2H217.621V98.5995Z" fill="#0A0909"/>
<path d="M219.221 98.5995H217.621V100.2H219.221V98.5995Z" fill="#0A0909"/>
<path d="M220.821 98.5995H219.221V100.2H220.821V98.5995Z" fill="#0A0909"/>
<path d="M224.022 98.5995H222.421V100.2H224.022V98.5995Z" fill="#0A0909"/>
<path d="M227.222 98.5995H225.622V100.2H227.222V98.5995Z" fill="#0A0909"/>
<path d="M228.822 98.5995H227.222V100.2H228.822L228.822 98.5995Z" fill="#0A0909"/>
<path d="M235.223 98.5995H233.623V100.2H235.223V98.5995Z" fill="#0A0909"/>
<path d="M238.423 98.5995H236.823V100.2H238.423V98.5995Z" fill="#0A0909"/>
<path d="M243.224 98.5995H241.624V100.2H243.224V98.5995Z" fill="#0A0909"/>
<path d="M246.424 98.5995H244.824V100.2H246.424V98.5995Z" fill="#0A0909"/>
<path d="M214.42 100.2H212.82V101.8H214.42V100.2Z" fill="#0A0909"/>
<path d="M217.621 100.2H216.021V101.8H217.621V100.2Z" fill="#0A0909"/>
<path d="M219.221 100.2H217.621V101.8H219.221V100.2Z" fill="#0A0909"/>
<path d="M220.821 100.2H219.221V101.8H220.821V100.2Z" fill="#0A0909"/>
<path d="M224.022 100.2H222.421V101.8H224.022V100.2Z" fill="#0A0909"/>
<path d="M227.222 100.2H225.622V101.8H227.222V100.2Z" fill="#0A0909"/>
<path d="M228.822 100.2H227.222V101.8H228.822V100.2Z" fill="#0A0909"/>
<path d="M232.022 100.2H230.422V101.8H232.022V100.2Z" fill="#0A0909"/>
<path d="M233.623 100.2H232.022V101.8H233.623V100.2Z" fill="#0A0909"/>
<path d="M240.023 100.2H238.423V101.8H240.023V100.2Z" fill="#0A0909"/>
<path d="M241.624 100.2H240.023V101.8H241.624V100.2Z" fill="#0A0909"/>
<path d="M243.224 100.2H241.624V101.8H243.224V100.2Z" fill="#0A0909"/>
<path d="M244.824 100.2H243.224V101.8H244.824V100.2Z" fill="#0A0909"/>
<path d="M246.424 100.2H244.824V101.8H246.424V100.2Z" fill="#0A0909"/>
<path d="M214.42 101.8H212.82V103.4H214.42V101.8Z" fill="#0A0909"/>
<path d="M224.022 101.8H222.421V103.4H224.022V101.8Z" fill="#0A0909"/>
<path d="M228.822 101.8H227.222L227.222 103.4H228.822V101.8Z" fill="#0A0909"/>
<path d="M230.422 101.8H228.822V103.4H230.422V101.8Z" fill="#0A0909"/>
<path d="M233.623 101.8H232.022V103.4H233.623V101.8Z" fill="#0A0909"/>
<path d="M236.823 101.8H235.223V103.4H236.823V101.8Z" fill="#0A0909"/>
<path d="M246.424 101.8H244.824V103.4H246.424V101.8Z" fill="#0A0909"/>
<path d="M214.42 103.4H212.82V105H214.42V103.4Z" fill="#0A0909"/>
<path d="M216.021 103.4H214.42V105H216.021V103.4Z" fill="#0A0909"/>
<path d="M217.621 103.4H216.021V105H217.621V103.4Z" fill="#0A0909"/>
<path d="M219.221 103.4H217.621V105H219.221V103.4Z" fill="#0A0909"/>
<path d="M220.821 103.4H219.221V105H220.821V103.4Z" fill="#0A0909"/>
<path d="M222.421 103.4H220.821V105H222.421V103.4Z" fill="#0A0909"/>
<path d="M224.022 103.4H222.421V105H224.022V103.4Z" fill="#0A0909"/>
<path d="M228.822 103.4H227.222V105H228.822V103.4Z" fill="#0A0909"/>
<path d="M232.022 103.4H230.422V105H232.022V103.4Z" fill="#0A0909"/>
<path d="M235.223 103.4H233.623V105H235.223V103.4Z" fill="#0A0909"/>
<path d="M238.423 103.4H236.823V105H238.423V103.4Z" fill="#0A0909"/>
<path d="M204.418 119.702H254.823C255.983 119.702 256.924 120.643 256.924 121.803V133.004C256.924 134.164 255.983 135.103 254.823 135.104H204.418C203.258 135.104 202.318 134.164 202.317 133.004V121.803C202.317 120.643 203.258 119.702 204.418 119.702Z" stroke="#0A0909" stroke-width="1.40016"/>
<path d="M227.048 123.918V124.674H225.458V128.903H224.583V124.674H222.994V123.918H227.048ZM229.97 127.776C229.879 128.168 229.683 128.476 229.389 128.693C229.095 128.917 228.738 129.022 228.332 129.022C227.786 129.022 227.352 128.847 227.03 128.497C226.708 128.147 226.554 127.692 226.554 127.139C226.554 126.579 226.715 126.11 227.044 125.738C227.373 125.374 227.793 125.185 228.304 125.185C228.829 125.185 229.249 125.367 229.557 125.731C229.865 126.096 230.019 126.586 230.019 127.209V127.293H227.352C227.359 127.657 227.45 127.944 227.625 128.14C227.793 128.336 228.038 128.434 228.346 128.434C228.563 128.434 228.738 128.385 228.878 128.28C229.018 128.175 229.123 128.007 229.207 127.776H229.97ZM229.221 126.761C229.193 126.46 229.102 126.222 228.934 126.047C228.766 125.871 228.556 125.78 228.297 125.78C228.031 125.78 227.821 125.864 227.66 126.033C227.499 126.201 227.401 126.446 227.366 126.761H229.221ZM231.592 127.006L230.339 125.29H231.305L232.061 126.404L232.852 125.29H233.776L232.551 126.964L233.93 128.903H232.971L232.054 127.573L231.165 128.903H230.227L231.592 127.006ZM236.15 125.29V125.871H235.422V127.776C235.422 127.888 235.422 127.972 235.429 128.014C235.429 128.056 235.443 128.105 235.471 128.161C235.492 128.217 235.534 128.252 235.59 128.266C235.646 128.287 235.73 128.294 235.835 128.294C235.961 128.294 236.066 128.294 236.15 128.28V128.91C235.989 128.931 235.807 128.938 235.611 128.938C235.471 128.938 235.345 128.931 235.24 128.91C235.135 128.889 235.051 128.861 234.981 128.833C234.911 128.805 234.848 128.763 234.806 128.693C234.757 128.623 234.722 128.567 234.694 128.525C234.666 128.483 234.652 128.399 234.638 128.287C234.624 128.175 234.624 128.091 234.624 128.035V127.727V127.685V127.643V127.594V125.871H234.022V125.29H234.624V124.205H235.422V125.29H236.15Z" fill="#0A0909"/>
<path d="M281.425 54.9443H334.631C338.304 54.9445 341.281 57.9227 341.281 61.5957V134.403C341.281 138.076 338.304 141.055 334.631 141.055H281.425C277.752 141.055 274.773 138.076 274.773 134.403V61.5957C274.773 57.9226 277.752 54.9443 281.425 54.9443Z" fill="white"/>
<path d="M281.425 54.9443H334.631C338.304 54.9445 341.281 57.9227 341.281 61.5957V134.403C341.281 138.076 338.304 141.055 334.631 141.055H281.425C277.752 141.055 274.773 138.076 274.773 134.403V61.5957C274.773 57.9226 277.752 54.9443 281.425 54.9443Z" stroke="#D3D8EB" stroke-width="0.700078"/>
<path d="M285.626 60.8955H330.431C333.137 60.8955 335.332 63.0894 335.332 65.7959V110.601C335.332 113.307 333.137 115.502 330.431 115.502H285.626C282.919 115.502 280.726 113.307 280.726 110.601V65.7959C280.726 63.0894 282.92 60.8955 285.626 60.8955Z" stroke="#0A0909" stroke-width="1.40016"/>
<path d="M292.829 71.3965H291.229V72.9967H292.829V71.3965Z" fill="#0A0909"/>
<path d="M294.429 71.3965H292.829V72.9967H294.429V71.3965Z" fill="#0A0909"/>
<path d="M296.029 71.3965H294.429V72.9967H296.029V71.3965Z" fill="#0A0909"/>
<path d="M297.629 71.3965H296.029V72.9967H297.629V71.3965Z" fill="#0A0909"/>
<path d="M299.229 71.3965H297.629V72.9967H299.229V71.3965Z" fill="#0A0909"/>
<path d="M300.83 71.3965H299.229V72.9967H300.83V71.3965Z" fill="#0A0909"/>
<path d="M302.43 71.3965H300.83V72.9967H302.43V71.3965Z" fill="#0A0909"/>
<path d="M305.63 71.3965H304.03V72.9967H305.63V71.3965Z" fill="#0A0909"/>
<path d="M310.431 71.3965H308.83V72.9967H310.431V71.3965Z" fill="#0A0909"/>
<path d="M315.231 71.3965H313.631V72.9967H315.231V71.3965Z" fill="#0A0909"/>
<path d="M316.831 71.3965H315.231V72.9967H316.831V71.3965Z" fill="#0A0909"/>
<path d="M318.432 71.3965H316.831V72.9967H318.432V71.3965Z" fill="#0A0909"/>
<path d="M320.032 71.3965H318.432V72.9967H320.032V71.3965Z" fill="#0A0909"/>
<path d="M321.632 71.3965H320.032V72.9967H321.632V71.3965Z" fill="#0A0909"/>
<path d="M323.232 71.3965H321.632V72.9967H323.232V71.3965Z" fill="#0A0909"/>
<path d="M324.832 71.3965H323.232V72.9967H324.832V71.3965Z" fill="#0A0909"/>
<path d="M292.829 72.9967H291.229V74.5968H292.829V72.9967Z" fill="#0A0909"/>
<path d="M302.43 72.9967H300.83V74.5968H302.43V72.9967Z" fill="#0A0909"/>
<path d="M308.83 72.9967H307.23V74.5968H308.83V72.9967Z" fill="#0A0909"/>
<path d="M312.031 72.9967H310.431V74.5968H312.031V72.9967Z" fill="#0A0909"/>
<path d="M315.231 72.9967H313.631V74.5968H315.231V72.9967Z" fill="#0A0909"/>
<path d="M324.832 72.9967H323.232V74.5968H324.832V72.9967Z" fill="#0A0909"/>
<path d="M292.829 74.5968H291.229V76.197H292.829V74.5968Z" fill="#0A0909"/>
<path d="M296.029 74.5968H294.429V76.197H296.029V74.5968Z" fill="#0A0909"/>
<path d="M297.629 74.5968H296.029V76.197H297.629V74.5968Z" fill="#0A0909"/>
<path d="M299.229 74.5968H297.629V76.197H299.229V74.5968Z" fill="#0A0909"/>
<path d="M302.43 74.5968H300.83V76.197H302.43V74.5968Z" fill="#0A0909"/>
<path d="M305.63 74.5968H304.03V76.197H305.63V74.5968Z" fill="#0A0909"/>
<path d="M307.23 74.5968H305.63V76.197H307.23L307.23 74.5968Z" fill="#0A0909"/>
<path d="M312.031 74.5968H310.431V76.197H312.031V74.5968Z" fill="#0A0909"/>
<path d="M315.231 74.5968H313.631V76.197H315.231V74.5968Z" fill="#0A0909"/>
<path d="M318.432 74.5968H316.831V76.197H318.432V74.5968Z" fill="#0A0909"/>
<path d="M320.032 74.5968H318.432V76.197H320.032V74.5968Z" fill="#0A0909"/>
<path d="M321.632 74.5968H320.032V76.197H321.632V74.5968Z" fill="#0A0909"/>
<path d="M324.832 74.5968H323.232V76.197H324.832V74.5968Z" fill="#0A0909"/>
<path d="M292.829 76.197H291.229V77.7972H292.829V76.197Z" fill="#0A0909"/>
<path d="M296.029 76.197H294.429V77.7972H296.029V76.197Z" fill="#0A0909"/>
<path d="M297.629 76.197H296.029V77.7972H297.629V76.197Z" fill="#0A0909"/>
<path d="M299.229 76.197H297.629V77.7972H299.229V76.197Z" fill="#0A0909"/>
<path d="M302.43 76.197H300.83V77.7972H302.43V76.197Z" fill="#0A0909"/>
<path d="M305.63 76.197H304.03V77.7972H305.63V76.197Z" fill="#0A0909"/>
<path d="M307.23 76.197H305.63V77.7972H307.23V76.197Z" fill="#0A0909"/>
<path d="M308.83 76.197H307.23V77.7972H308.83V76.197Z" fill="#0A0909"/>
<path d="M310.431 76.197H308.83V77.7972H310.431V76.197Z" fill="#0A0909"/>
<path d="M312.031 76.197H310.431V77.7972H312.031V76.197Z" fill="#0A0909"/>
<path d="M315.231 76.197H313.631V77.7972H315.231V76.197Z" fill="#0A0909"/>
<path d="M318.432 76.197H316.831V77.7972H318.432V76.197Z" fill="#0A0909"/>
<path d="M320.032 76.197H318.432V77.7972H320.032V76.197Z" fill="#0A0909"/>
<path d="M321.632 76.197H320.032V77.7972H321.632V76.197Z" fill="#0A0909"/>
<path d="M324.832 76.197H323.232V77.7972H324.832V76.197Z" fill="#0A0909"/>
<path d="M292.829 77.7972H291.229V79.3974H292.829V77.7972Z" fill="#0A0909"/>
<path d="M296.029 77.7972H294.429V79.3974H296.029V77.7972Z" fill="#0A0909"/>
<path d="M297.629 77.7972H296.029V79.3974H297.629V77.7972Z" fill="#0A0909"/>
<path d="M299.229 77.7972H297.629V79.3974H299.229V77.7972Z" fill="#0A0909"/>
<path d="M302.43 77.7972H300.83V79.3974H302.43V77.7972Z" fill="#0A0909"/>
<path d="M305.63 77.7972H304.03V79.3974H305.63V77.7972Z" fill="#0A0909"/>
<path d="M307.23 77.7972H305.63V79.3974H307.23V77.7972Z" fill="#0A0909"/>
<path d="M310.431 77.7972H308.83V79.3974H310.431V77.7972Z" fill="#0A0909"/>
<path d="M312.031 77.7972H310.431V79.3974H312.031V77.7972Z" fill="#0A0909"/>
<path d="M315.231 77.7972H313.631V79.3974H315.231V77.7972Z" fill="#0A0909"/>
<path d="M318.432 77.7972H316.831V79.3974H318.432V77.7972Z" fill="#0A0909"/>
<path d="M320.032 77.7972H318.432V79.3974H320.032V77.7972Z" fill="#0A0909"/>
<path d="M321.632 77.7972H320.032V79.3974H321.632V77.7972Z" fill="#0A0909"/>
<path d="M324.832 77.7972H323.232V79.3974H324.832V77.7972Z" fill="#0A0909"/>
<path d="M292.829 79.3974H291.229V80.9976H292.829V79.3974Z" fill="#0A0909"/>
<path d="M302.43 79.3974H300.83V80.9976H302.43V79.3974Z" fill="#0A0909"/>
<path d="M305.63 79.3974H304.03V80.9976H305.63V79.3974Z" fill="#0A0909"/>
<path d="M307.23 79.3974H305.63V80.9976H307.23V79.3974Z" fill="#0A0909"/>
<path d="M308.83 79.3974H307.23V80.9976H308.83V79.3974Z" fill="#0A0909"/>
<path d="M312.031 79.3974H310.431V80.9976H312.031V79.3974Z" fill="#0A0909"/>
<path d="M315.231 79.3974H313.631V80.9976H315.231V79.3974Z" fill="#0A0909"/>
<path d="M324.832 79.3974H323.232V80.9976H324.832V79.3974Z" fill="#0A0909"/>
<path d="M292.829 80.9976H291.229V82.5977H292.829V80.9976Z" fill="#0A0909"/>
<path d="M294.429 80.9976H292.829V82.5977H294.429V80.9976Z" fill="#0A0909"/>
<path d="M296.029 80.9976H294.429V82.5977H296.029V80.9976Z" fill="#0A0909"/>
<path d="M297.629 80.9976H296.029V82.5977H297.629V80.9976Z" fill="#0A0909"/>
<path d="M299.229 80.9976H297.629V82.5977H299.229V80.9976Z" fill="#0A0909"/>
<path d="M300.83 80.9976H299.229V82.5977H300.83V80.9976Z" fill="#0A0909"/>
<path d="M302.43 80.9976H300.83V82.5977H302.43V80.9976Z" fill="#0A0909"/>
<path d="M305.63 80.9976H304.03V82.5977H305.63V80.9976Z" fill="#0A0909"/>
<path d="M308.83 80.9976H307.23L307.23 82.5977H308.83V80.9976Z" fill="#0A0909"/>
<path d="M312.031 80.9976H310.431V82.5977H312.031V80.9976Z" fill="#0A0909"/>
<path d="M315.231 80.9976H313.631V82.5977H315.231V80.9976Z" fill="#0A0909"/>
<path d="M316.831 80.9976H315.231V82.5977H316.831V80.9976Z" fill="#0A0909"/>
<path d="M318.432 80.9976H316.831V82.5977H318.432V80.9976Z" fill="#0A0909"/>
<path d="M320.032 80.9976H318.432V82.5977H320.032V80.9976Z" fill="#0A0909"/>
<path d="M321.632 80.9976H320.032V82.5977H321.632V80.9976Z" fill="#0A0909"/>
<path d="M323.232 80.9976H321.632V82.5977H323.232V80.9976Z" fill="#0A0909"/>
<path d="M324.832 80.9976H323.232V82.5977H324.832V80.9976Z" fill="#0A0909"/>
<path d="M308.83 82.5977H307.23V84.1979H308.83V82.5977Z" fill="#0A0909"/>
<path d="M310.431 82.5977H308.83V84.1979H310.431V82.5977Z" fill="#0A0909"/>
<path d="M312.031 82.5977H310.431V84.1979H312.031V82.5977Z" fill="#0A0909"/>
<path d="M296.029 84.1979H294.429V85.7981H296.029V84.1979Z" fill="#0A0909"/>
<path d="M297.629 84.1979H296.029V85.7981H297.629V84.1979Z" fill="#0A0909"/>
<path d="M299.229 84.1979H297.629V85.7981H299.229V84.1979Z" fill="#0A0909"/>
<path d="M300.83 84.1979H299.229V85.7981H300.83V84.1979Z" fill="#0A0909"/>
<path d="M302.43 84.1979H300.83V85.7981H302.43V84.1979Z" fill="#0A0909"/>
<path d="M304.03 84.1979H302.43V85.7981H304.03V84.1979Z" fill="#0A0909"/>
<path d="M308.83 84.1979H307.23V85.7981H308.83V84.1979Z" fill="#0A0909"/>
<path d="M310.431 84.1979H308.83V85.7981H310.431V84.1979Z" fill="#0A0909"/>
<path d="M313.631 84.1979L312.031 84.1979V85.7981H313.631V84.1979Z" fill="#0A0909"/>
<path d="M316.831 84.1979H315.231V85.7981H316.831V84.1979Z" fill="#0A0909"/>
<path d="M318.432 84.1979H316.831V85.7981H318.432V84.1979Z" fill="#0A0909"/>
<path d="M320.032 84.1979H318.432V85.7981H320.032V84.1979Z" fill="#0A0909"/>
<path d="M321.632 84.1979H320.032V85.7981H321.632V84.1979Z" fill="#0A0909"/>
<path d="M324.832 84.1979H323.232V85.7981H324.832V84.1979Z" fill="#0A0909"/>
<path d="M292.829 85.7981H291.229V87.3983H292.829V85.7981Z" fill="#0A0909"/>
<path d="M294.429 85.7981L292.829 85.7981V87.3983H294.429V85.7981Z" fill="#0A0909"/>
<path d="M296.029 85.7981H294.429V87.3983H296.029V85.7981Z" fill="#0A0909"/>
<path d="M297.629 85.7981H296.029V87.3983H297.629V85.7981Z" fill="#0A0909"/>
<path d="M312.031 85.7981H310.431V87.3983H312.031V85.7981Z" fill="#0A0909"/>
<path d="M313.631 85.7981H312.031V87.3983H313.631V85.7981Z" fill="#0A0909"/>
<path d="M318.432 85.7981H316.831V87.3983H318.432V85.7981Z" fill="#0A0909"/>
<path d="M320.032 85.7981H318.432V87.3983H320.032V85.7981Z" fill="#0A0909"/>
<path d="M323.232 85.7981H321.632V87.3983H323.232V85.7981Z" fill="#0A0909"/>
<path d="M292.829 87.3983H291.229V88.9984H292.829V87.3983Z" fill="#0A0909"/>
<path d="M297.629 87.3983H296.029V88.9984H297.629V87.3983Z" fill="#0A0909"/>
<path d="M300.83 87.3983H299.229V88.9984H300.83V87.3983Z" fill="#0A0909"/>
<path d="M302.43 87.3983H300.83V88.9984H302.43V87.3983Z" fill="#0A0909"/>
<path d="M307.23 87.3983H305.63V88.9984H307.23V87.3983Z" fill="#0A0909"/>
<path d="M313.631 87.3983H312.031V88.9984H313.631V87.3983Z" fill="#0A0909"/>
<path d="M320.032 87.3983H318.432V88.9984H320.032V87.3983Z" fill="#0A0909"/>
<path d="M323.232 87.3983H321.632V88.9984H323.232V87.3983Z" fill="#0A0909"/>
<path d="M324.832 87.3983L323.232 87.3983V88.9984H324.832V87.3983Z" fill="#0A0909"/>
<path d="M294.429 88.9984H292.829V90.5986H294.429V88.9984Z" fill="#0A0909"/>
<path d="M297.629 88.9984H296.029V90.5986H297.629V88.9984Z" fill="#0A0909"/>
<path d="M299.229 88.9984H297.629V90.5986H299.229V88.9984Z" fill="#0A0909"/>
<path d="M304.03 88.9984H302.43V90.5986H304.03V88.9984Z" fill="#0A0909"/>
<path d="M308.83 88.9984H307.23L307.23 90.5986H308.83V88.9984Z" fill="#0A0909"/>
<path d="M312.031 88.9984H310.431V90.5986H312.031V88.9984Z" fill="#0A0909"/>
<path d="M313.631 88.9984H312.031V90.5986H313.631V88.9984Z" fill="#0A0909"/>
<path d="M316.831 88.9984H315.231V90.5986H316.831V88.9984Z" fill="#0A0909"/>
<path d="M321.632 88.9984H320.032V90.5986H321.632V88.9984Z" fill="#0A0909"/>
<path d="M324.832 88.9984H323.232V90.5986H324.832V88.9984Z" fill="#0A0909"/>
<path d="M292.829 90.5986H291.229V92.1988H292.829V90.5986Z" fill="#0A0909"/>
<path d="M294.429 90.5986H292.829V92.1988H294.429V90.5986Z" fill="#0A0909"/>
<path d="M299.229 90.5986H297.629V92.1988H299.229V90.5986Z" fill="#0A0909"/>
<path d="M300.83 90.5986H299.229V92.1988H300.83V90.5986Z" fill="#0A0909"/>
<path d="M302.43 90.5986H300.83V92.1988H302.43V90.5986Z" fill="#0A0909"/>
<path d="M304.03 90.5986H302.43V92.1988H304.03V90.5986Z" fill="#0A0909"/>
<path d="M305.63 90.5986H304.03V92.1988H305.63V90.5986Z" fill="#0A0909"/>
<path d="M307.23 90.5986H305.63V92.1988H307.23L307.23 90.5986Z" fill="#0A0909"/>
<path d="M313.631 90.5986H312.031V92.1988H313.631V90.5986Z" fill="#0A0909"/>
<path d="M315.231 90.5986H313.631V92.1988H315.231V90.5986Z" fill="#0A0909"/>
<path d="M316.831 90.5986H315.231V92.1988H316.831V90.5986Z" fill="#0A0909"/>
<path d="M318.432 90.5986H316.831V92.1988H318.432V90.5986Z" fill="#0A0909"/>
<path d="M320.032 90.5986H318.432V92.1988H320.032V90.5986Z" fill="#0A0909"/>
<path d="M308.83 92.1988H307.23L307.23 93.799H308.83V92.1988Z" fill="#0A0909"/>
<path d="M312.031 92.1988H310.431V93.799H312.031V92.1988Z" fill="#0A0909"/>
<path d="M313.631 92.1988H312.031V93.799H313.631V92.1988Z" fill="#0A0909"/>
<path d="M316.831 92.1988H315.231V93.799H316.831V92.1988Z" fill="#0A0909"/>
<path d="M321.632 92.1988H320.032V93.799H321.632V92.1988Z" fill="#0A0909"/>
<path d="M324.832 92.1988H323.232V93.799H324.832V92.1988Z" fill="#0A0909"/>
<path d="M292.829 93.799H291.229V95.3992H292.829V93.799Z" fill="#0A0909"/>
<path d="M294.429 93.799H292.829V95.3992H294.429V93.799Z" fill="#0A0909"/>
<path d="M296.029 93.799H294.429V95.3992H296.029V93.799Z" fill="#0A0909"/>
<path d="M297.629 93.799H296.029V95.3992H297.629V93.799Z" fill="#0A0909"/>
<path d="M299.229 93.799H297.629V95.3992H299.229V93.799Z" fill="#0A0909"/>
<path d="M300.83 93.799H299.229V95.3992H300.83V93.799Z" fill="#0A0909"/>
<path d="M302.43 93.799H300.83V95.3992H302.43V93.799Z" fill="#0A0909"/>
<path d="M305.63 93.799H304.03V95.3992H305.63V93.799Z" fill="#0A0909"/>
<path d="M313.631 93.799H312.031V95.3992H313.631V93.799Z" fill="#0A0909"/>
<path d="M315.231 93.799H313.631V95.3992H315.231V93.799Z" fill="#0A0909"/>
<path d="M316.831 93.799H315.231V95.3992H316.831V93.799Z" fill="#0A0909"/>
<path d="M292.829 95.3992H291.229V96.9993H292.829V95.3992Z" fill="#0A0909"/>
<path d="M302.43 95.3992H300.83V96.9993H302.43V95.3992Z" fill="#0A0909"/>
<path d="M305.63 95.3992H304.03V96.9993H305.63V95.3992Z" fill="#0A0909"/>
<path d="M307.23 95.3992H305.63V96.9993H307.23V95.3992Z" fill="#0A0909"/>
<path d="M310.431 95.3992H308.83V96.9993H310.431V95.3992Z" fill="#0A0909"/>
<path d="M315.231 95.3992H313.631V96.9993H315.231V95.3992Z" fill="#0A0909"/>
<path d="M318.432 95.3992H316.831V96.9993H318.432V95.3992Z" fill="#0A0909"/>
<path d="M320.032 95.3992H318.432V96.9993H320.032V95.3992Z" fill="#0A0909"/>
<path d="M323.232 95.3992H321.632V96.9993H323.232V95.3992Z" fill="#0A0909"/>
<path d="M292.829 96.9993H291.229V98.5995H292.829V96.9993Z" fill="#0A0909"/>
<path d="M296.029 96.9993H294.429V98.5995H296.029V96.9993Z" fill="#0A0909"/>
<path d="M297.629 96.9993H296.029V98.5995H297.629V96.9993Z" fill="#0A0909"/>
<path d="M299.229 96.9993H297.629V98.5995H299.229V96.9993Z" fill="#0A0909"/>
<path d="M302.43 96.9993H300.83V98.5995H302.43V96.9993Z" fill="#0A0909"/>
<path d="M305.63 96.9993H304.03V98.5995H305.63V96.9993Z" fill="#0A0909"/>
<path d="M308.83 96.9993H307.23L307.23 98.5995H308.83V96.9993Z" fill="#0A0909"/>
<path d="M310.431 96.9993H308.83V98.5995H310.431V96.9993Z" fill="#0A0909"/>
<path d="M312.031 96.9993H310.431V98.5995H312.031V96.9993Z" fill="#0A0909"/>
<path d="M321.632 96.9993H320.032V98.5995H321.632V96.9993Z" fill="#0A0909"/>
<path d="M323.232 96.9993H321.632V98.5995H323.232V96.9993Z" fill="#0A0909"/>
<path d="M324.832 96.9993H323.232V98.5995H324.832V96.9993Z" fill="#0A0909"/>
<path d="M292.829 98.5995H291.229V100.2H292.829V98.5995Z" fill="#0A0909"/>
<path d="M296.029 98.5995H294.429V100.2H296.029V98.5995Z" fill="#0A0909"/>
<path d="M297.629 98.5995H296.029V100.2H297.629V98.5995Z" fill="#0A0909"/>
<path d="M299.229 98.5995H297.629V100.2H299.229V98.5995Z" fill="#0A0909"/>
<path d="M302.43 98.5995H300.83V100.2H302.43V98.5995Z" fill="#0A0909"/>
<path d="M305.63 98.5995H304.03V100.2H305.63V98.5995Z" fill="#0A0909"/>
<path d="M307.23 98.5995H305.63V100.2H307.23L307.23 98.5995Z" fill="#0A0909"/>
<path d="M313.631 98.5995H312.031V100.2H313.631V98.5995Z" fill="#0A0909"/>
<path d="M316.831 98.5995H315.231V100.2H316.831V98.5995Z" fill="#0A0909"/>
<path d="M321.632 98.5995H320.032V100.2H321.632V98.5995Z" fill="#0A0909"/>
<path d="M324.832 98.5995H323.232V100.2H324.832V98.5995Z" fill="#0A0909"/>
<path d="M292.829 100.2H291.229V101.8H292.829V100.2Z" fill="#0A0909"/>
<path d="M296.029 100.2H294.429V101.8H296.029V100.2Z" fill="#0A0909"/>
<path d="M297.629 100.2H296.029V101.8H297.629V100.2Z" fill="#0A0909"/>
<path d="M299.229 100.2H297.629V101.8H299.229V100.2Z" fill="#0A0909"/>
<path d="M302.43 100.2H300.83V101.8H302.43V100.2Z" fill="#0A0909"/>
<path d="M305.63 100.2H304.03V101.8H305.63V100.2Z" fill="#0A0909"/>
<path d="M307.23 100.2H305.63V101.8H307.23V100.2Z" fill="#0A0909"/>
<path d="M310.431 100.2H308.83V101.8H310.431V100.2Z" fill="#0A0909"/>
<path d="M312.031 100.2H310.431V101.8H312.031V100.2Z" fill="#0A0909"/>
<path d="M318.432 100.2H316.831V101.8H318.432V100.2Z" fill="#0A0909"/>
<path d="M320.032 100.2H318.432V101.8H320.032V100.2Z" fill="#0A0909"/>
<path d="M321.632 100.2H320.032V101.8H321.632V100.2Z" fill="#0A0909"/>
<path d="M323.232 100.2H321.632V101.8H323.232V100.2Z" fill="#0A0909"/>
<path d="M324.832 100.2H323.232V101.8H324.832V100.2Z" fill="#0A0909"/>
<path d="M292.829 101.8H291.229V103.4H292.829V101.8Z" fill="#0A0909"/>
<path d="M302.43 101.8H300.83V103.4H302.43V101.8Z" fill="#0A0909"/>
<path d="M307.23 101.8H305.63L305.63 103.4H307.23V101.8Z" fill="#0A0909"/>
<path d="M308.83 101.8H307.23V103.4H308.83V101.8Z" fill="#0A0909"/>
<path d="M312.031 101.8H310.431V103.4H312.031V101.8Z" fill="#0A0909"/>
<path d="M315.231 101.8H313.631V103.4H315.231V101.8Z" fill="#0A0909"/>
<path d="M324.832 101.8H323.232V103.4H324.832V101.8Z" fill="#0A0909"/>
<path d="M292.829 103.4H291.229V105H292.829V103.4Z" fill="#0A0909"/>
<path d="M294.429 103.4H292.829V105H294.429V103.4Z" fill="#0A0909"/>
<path d="M296.029 103.4H294.429V105H296.029V103.4Z" fill="#0A0909"/>
<path d="M297.629 103.4H296.029V105H297.629V103.4Z" fill="#0A0909"/>
<path d="M299.229 103.4H297.629V105H299.229V103.4Z" fill="#0A0909"/>
<path d="M300.83 103.4H299.229V105H300.83V103.4Z" fill="#0A0909"/>
<path d="M302.43 103.4H300.83V105H302.43V103.4Z" fill="#0A0909"/>
<path d="M307.23 103.4H305.63V105H307.23V103.4Z" fill="#0A0909"/>
<path d="M310.431 103.4H308.83V105H310.431V103.4Z" fill="#0A0909"/>
<path d="M313.631 103.4H312.031V105H313.631V103.4Z" fill="#0A0909"/>
<path d="M316.831 103.4H315.231V105H316.831V103.4Z" fill="#0A0909"/>
<path d="M282.826 119.352H333.231C334.585 119.352 335.682 120.45 335.682 121.803V133.004C335.681 134.357 334.585 135.454 333.231 135.454H282.826C281.473 135.454 280.375 134.357 280.375 133.004V121.803C280.375 120.449 281.473 119.352 282.826 119.352Z" fill="#0A0909"/>
<path d="M282.826 119.352H333.231C334.585 119.352 335.682 120.45 335.682 121.803V133.004C335.681 134.357 334.585 135.454 333.231 135.454H282.826C281.473 135.454 280.375 134.357 280.375 133.004V121.803C280.375 120.449 281.473 119.352 282.826 119.352Z" stroke="#0A0909" stroke-width="0.700078"/>
<path d="M305.456 123.918V124.674H303.867V128.903H302.991V124.674H301.402V123.918H305.456ZM308.378 127.776C308.287 128.168 308.091 128.476 307.797 128.693C307.503 128.917 307.146 129.022 306.74 129.022C306.194 129.022 305.76 128.847 305.438 128.497C305.116 128.147 304.962 127.692 304.962 127.139C304.962 126.579 305.123 126.11 305.452 125.738C305.781 125.374 306.201 125.185 306.712 125.185C307.237 125.185 307.657 125.367 307.965 125.731C308.273 126.096 308.427 126.586 308.427 127.209V127.293H305.76C305.767 127.657 305.858 127.944 306.033 128.14C306.201 128.336 306.446 128.434 306.754 128.434C306.971 128.434 307.146 128.385 307.286 128.28C307.426 128.175 307.531 128.007 307.615 127.776H308.378ZM307.629 126.761C307.601 126.46 307.51 126.222 307.342 126.047C307.174 125.871 306.964 125.78 306.705 125.78C306.439 125.78 306.229 125.864 306.068 126.033C305.907 126.201 305.809 126.446 305.774 126.761H307.629ZM310 127.006L308.747 125.29H309.713L310.469 126.404L311.26 125.29H312.184L310.959 126.964L312.338 128.903H311.379L310.462 127.573L309.573 128.903H308.635L310 127.006ZM314.558 125.29V125.871H313.83V127.776C313.83 127.888 313.83 127.972 313.837 128.014C313.837 128.056 313.851 128.105 313.879 128.161C313.9 128.217 313.942 128.252 313.998 128.266C314.054 128.287 314.138 128.294 314.243 128.294C314.369 128.294 314.474 128.294 314.558 128.28V128.91C314.397 128.931 314.215 128.938 314.019 128.938C313.879 128.938 313.753 128.931 313.648 128.91C313.543 128.889 313.459 128.861 313.389 128.833C313.319 128.805 313.256 128.763 313.214 128.693C313.165 128.623 313.13 128.567 313.102 128.525C313.074 128.483 313.06 128.399 313.046 128.287C313.032 128.175 313.032 128.091 313.032 128.035V127.727V127.685V127.643V127.594V125.871H312.43V125.29H313.032V124.205H313.83V125.29H314.558Z" fill="white"/>
</g>
<rect x="39.2012" y="152.604" width="271.63" height="2.80029" rx="1.40015" fill="#F5F6FB"/>
<rect x="39.2012" y="152.604" width="26.04" height="2.80031" rx="1.40016" fill="#D3D8EB"/>
<defs>
<clipPath id="clip0_35554_318185">
<rect width="271.6" height="86.8097" fill="white" transform="translate(39.2012 54.5947)"/>
</clipPath>
<clipPath id="clip1_35554_318185">
<rect width="16.8019" height="16.8019" fill="white" transform="translate(64.4043 78.7983)"/>
</clipPath>
</defs>
</svg>
