<svg width="350" height="210" viewBox="0 0 350 210" fill="none" xmlns="http://www.w3.org/2000/svg">
<rect width="350" height="210" fill="#F5F6FB"/>
<path d="M22.4004 29.3999C22.4004 25.5339 25.5344 22.3999 29.4004 22.3999H320.6C324.466 22.3999 327.6 25.5339 327.6 29.3999V180.6C327.6 184.466 324.466 187.6 320.6 187.6H29.4004C25.5344 187.6 22.4004 184.466 22.4004 180.6V29.3999Z" fill="white"/>
<path d="M44.8008 93.8002C44.8008 90.7074 47.308 88.2002 50.4008 88.2002H161.001C164.094 88.2002 166.601 90.7074 166.601 93.8002V116.2C166.601 119.293 164.094 121.8 161.001 121.8H50.4008C47.308 121.8 44.8008 119.293 44.8008 116.2V93.8002Z" fill="#01A56D"/>
<path fill-rule="evenodd" clip-rule="evenodd" d="M74.0199 108.273C73.8484 108.444 73.6243 108.528 73.4003 108.528C73.1763 108.528 72.9523 108.444 72.7807 108.273L69.5289 105.021L70.271 104.279L72.8753 106.883V98.6992H73.9254V106.883L76.5297 104.279L77.2717 105.021L74.0199 108.273ZM78.6509 109.375V107.45H79.701V109.375C79.701 110.436 78.8364 111.301 77.7758 111.301H69.0248C67.9642 111.301 67.0996 110.436 67.0996 109.375V107.45H68.1497V109.375C68.1497 109.858 68.5418 110.251 69.0248 110.251H77.7758C78.2589 110.251 78.6509 109.858 78.6509 109.375Z" fill="white"/>
<path d="M88.3599 100.504H92.0895C92.7783 100.504 93.3747 100.621 93.8787 100.856C94.3827 101.092 94.7943 101.415 95.1135 101.827C95.4327 102.23 95.6679 102.704 95.8191 103.25C95.9787 103.796 96.0585 104.38 96.0585 105.002C96.0585 105.623 95.9787 106.207 95.8191 106.753C95.6679 107.299 95.4327 107.778 95.1135 108.19C94.7943 108.593 94.3827 108.912 93.8787 109.147C93.3747 109.382 92.7783 109.5 92.0895 109.5H88.3599V100.504ZM89.9349 108.215H91.4847C92.0979 108.215 92.5977 108.135 92.9841 107.975C93.3789 107.807 93.6855 107.581 93.9039 107.295C94.1307 107.001 94.2819 106.661 94.3575 106.274C94.4415 105.88 94.4835 105.455 94.4835 105.002C94.4835 104.548 94.4415 104.128 94.3575 103.742C94.2819 103.347 94.1307 103.007 93.9039 102.721C93.6855 102.427 93.3789 102.2 92.9841 102.041C92.5977 101.873 92.0979 101.789 91.4847 101.789H89.9349V108.215ZM100.238 109.676C99.7169 109.676 99.2507 109.592 98.8391 109.424C98.4359 109.248 98.0915 109.009 97.8059 108.706C97.5287 108.404 97.3145 108.043 97.1633 107.623C97.0205 107.203 96.9491 106.741 96.9491 106.237C96.9491 105.741 97.0205 105.283 97.1633 104.863C97.3145 104.443 97.5287 104.082 97.8059 103.78C98.0915 103.477 98.4359 103.242 98.8391 103.074C99.2507 102.898 99.7169 102.809 100.238 102.809C100.759 102.809 101.221 102.898 101.624 103.074C102.035 103.242 102.38 103.477 102.657 103.78C102.943 104.082 103.157 104.443 103.3 104.863C103.451 105.283 103.526 105.741 103.526 106.237C103.526 106.741 103.451 107.203 103.3 107.623C103.157 108.043 102.943 108.404 102.657 108.706C102.38 109.009 102.035 109.248 101.624 109.424C101.221 109.592 100.759 109.676 100.238 109.676ZM100.238 108.542C100.557 108.542 100.834 108.475 101.069 108.341C101.305 108.206 101.498 108.03 101.649 107.812C101.8 107.593 101.909 107.35 101.977 107.081C102.052 106.804 102.09 106.522 102.09 106.237C102.09 105.959 102.052 105.682 101.977 105.405C101.909 105.128 101.8 104.884 101.649 104.674C101.498 104.456 101.305 104.279 101.069 104.145C100.834 104.011 100.557 103.943 100.238 103.943C99.9185 103.943 99.6413 104.011 99.4061 104.145C99.1709 104.279 98.9777 104.456 98.8265 104.674C98.6753 104.884 98.5619 105.128 98.4863 105.405C98.4191 105.682 98.3855 105.959 98.3855 106.237C98.3855 106.522 98.4191 106.804 98.4863 107.081C98.5619 107.35 98.6753 107.593 98.8265 107.812C98.9777 108.03 99.1709 108.206 99.4061 108.341C99.6413 108.475 99.9185 108.542 100.238 108.542ZM104.128 102.986H105.653L106.925 107.849H106.951L108.173 102.986H109.622L110.794 107.849H110.819L112.142 102.986H113.603L111.562 109.5H110.088L108.878 104.662H108.853L107.656 109.5H106.144L104.128 102.986ZM114.527 102.986H115.888V103.943L115.913 103.969C116.132 103.607 116.417 103.326 116.77 103.124C117.123 102.914 117.513 102.809 117.942 102.809C118.656 102.809 119.219 102.994 119.63 103.364C120.042 103.733 120.248 104.288 120.248 105.027V109.5H118.811V105.405C118.794 104.893 118.685 104.523 118.484 104.296C118.282 104.061 117.967 103.943 117.539 103.943C117.295 103.943 117.077 103.99 116.883 104.082C116.69 104.166 116.526 104.288 116.392 104.447C116.258 104.599 116.153 104.779 116.077 104.989C116.001 105.199 115.964 105.422 115.964 105.657V109.5H114.527V102.986ZM121.8 100.504H123.237V109.5H121.8V100.504ZM127.788 109.676C127.267 109.676 126.801 109.592 126.389 109.424C125.986 109.248 125.642 109.009 125.356 108.706C125.079 108.404 124.865 108.043 124.714 107.623C124.571 107.203 124.499 106.741 124.499 106.237C124.499 105.741 124.571 105.283 124.714 104.863C124.865 104.443 125.079 104.082 125.356 103.78C125.642 103.477 125.986 103.242 126.389 103.074C126.801 102.898 127.267 102.809 127.788 102.809C128.309 102.809 128.771 102.898 129.174 103.074C129.586 103.242 129.93 103.477 130.207 103.78C130.493 104.082 130.707 104.443 130.85 104.863C131.001 105.283 131.077 105.741 131.077 106.237C131.077 106.741 131.001 107.203 130.85 107.623C130.707 108.043 130.493 108.404 130.207 108.706C129.93 109.009 129.586 109.248 129.174 109.424C128.771 109.592 128.309 109.676 127.788 109.676ZM127.788 108.542C128.107 108.542 128.384 108.475 128.619 108.341C128.855 108.206 129.048 108.03 129.199 107.812C129.35 107.593 129.46 107.35 129.527 107.081C129.602 106.804 129.64 106.522 129.64 106.237C129.64 105.959 129.602 105.682 129.527 105.405C129.46 105.128 129.35 104.884 129.199 104.674C129.048 104.456 128.855 104.279 128.619 104.145C128.384 104.011 128.107 103.943 127.788 103.943C127.469 103.943 127.191 104.011 126.956 104.145C126.721 104.279 126.528 104.456 126.377 104.674C126.226 104.884 126.112 105.128 126.037 105.405C125.969 105.682 125.936 105.959 125.936 106.237C125.936 106.522 125.969 106.804 126.037 107.081C126.112 107.35 126.226 107.593 126.377 107.812C126.528 108.03 126.721 108.206 126.956 108.341C127.191 108.475 127.469 108.542 127.788 108.542ZM137.726 108.051C137.726 108.227 137.747 108.353 137.789 108.429C137.84 108.505 137.932 108.542 138.067 108.542C138.109 108.542 138.159 108.542 138.218 108.542C138.277 108.542 138.344 108.534 138.419 108.517V109.513C138.369 109.529 138.302 109.546 138.218 109.563C138.142 109.588 138.062 109.609 137.978 109.626C137.894 109.643 137.81 109.655 137.726 109.664C137.642 109.672 137.571 109.676 137.512 109.676C137.218 109.676 136.975 109.618 136.781 109.5C136.588 109.382 136.462 109.177 136.403 108.883C136.118 109.16 135.765 109.361 135.345 109.487C134.933 109.613 134.534 109.676 134.148 109.676C133.854 109.676 133.573 109.634 133.304 109.55C133.035 109.475 132.796 109.361 132.586 109.21C132.384 109.051 132.22 108.853 132.094 108.618C131.977 108.374 131.918 108.093 131.918 107.774C131.918 107.371 131.989 107.043 132.132 106.791C132.283 106.539 132.476 106.342 132.712 106.199C132.955 106.056 133.224 105.955 133.518 105.896C133.82 105.829 134.123 105.779 134.425 105.745C134.686 105.695 134.933 105.661 135.169 105.644C135.404 105.619 135.61 105.581 135.786 105.531C135.971 105.481 136.114 105.405 136.214 105.304C136.324 105.195 136.378 105.035 136.378 104.825C136.378 104.641 136.332 104.489 136.24 104.372C136.156 104.254 136.046 104.166 135.912 104.107C135.786 104.04 135.643 103.998 135.484 103.981C135.324 103.956 135.173 103.943 135.03 103.943C134.627 103.943 134.295 104.027 134.035 104.195C133.774 104.363 133.627 104.624 133.594 104.977H132.157C132.182 104.557 132.283 104.208 132.46 103.931C132.636 103.654 132.859 103.431 133.127 103.263C133.405 103.095 133.715 102.977 134.06 102.91C134.404 102.843 134.757 102.809 135.118 102.809C135.437 102.809 135.752 102.843 136.063 102.91C136.374 102.977 136.651 103.087 136.895 103.238C137.147 103.389 137.348 103.586 137.5 103.83C137.651 104.065 137.726 104.355 137.726 104.699V108.051ZM136.29 106.237C136.072 106.379 135.803 106.468 135.484 106.501C135.164 106.526 134.845 106.568 134.526 106.627C134.375 106.652 134.228 106.69 134.085 106.741C133.942 106.783 133.816 106.846 133.707 106.93C133.598 107.005 133.51 107.11 133.442 107.245C133.384 107.371 133.354 107.526 133.354 107.711C133.354 107.87 133.4 108.005 133.493 108.114C133.585 108.223 133.694 108.311 133.82 108.379C133.955 108.437 134.098 108.479 134.249 108.505C134.408 108.53 134.551 108.542 134.677 108.542C134.837 108.542 135.009 108.521 135.194 108.479C135.379 108.437 135.551 108.366 135.71 108.265C135.878 108.164 136.017 108.038 136.126 107.887C136.235 107.728 136.29 107.534 136.29 107.308V106.237ZM145.408 109.5H144.047V108.618H144.022C143.829 108.996 143.548 109.269 143.178 109.437C142.808 109.597 142.418 109.676 142.006 109.676C141.494 109.676 141.044 109.588 140.658 109.412C140.28 109.227 139.965 108.979 139.713 108.668C139.461 108.358 139.272 107.992 139.146 107.572C139.02 107.144 138.957 106.686 138.957 106.199C138.957 105.611 139.037 105.103 139.196 104.674C139.356 104.246 139.566 103.893 139.826 103.616C140.095 103.339 140.398 103.137 140.734 103.011C141.078 102.877 141.427 102.809 141.779 102.809C141.981 102.809 142.187 102.83 142.397 102.872C142.607 102.906 142.808 102.965 143.002 103.049C143.195 103.133 143.371 103.242 143.531 103.376C143.699 103.502 143.837 103.654 143.947 103.83H143.972V100.504H145.408V109.5ZM140.393 106.312C140.393 106.589 140.427 106.862 140.494 107.131C140.57 107.4 140.679 107.639 140.822 107.849C140.973 108.059 141.162 108.227 141.389 108.353C141.616 108.479 141.884 108.542 142.195 108.542C142.514 108.542 142.787 108.475 143.014 108.341C143.249 108.206 143.438 108.03 143.581 107.812C143.732 107.593 143.842 107.35 143.909 107.081C143.984 106.804 144.022 106.522 144.022 106.237C144.022 105.514 143.858 104.951 143.531 104.548C143.212 104.145 142.775 103.943 142.22 103.943C141.884 103.943 141.599 104.015 141.364 104.158C141.137 104.292 140.948 104.473 140.797 104.699C140.654 104.918 140.549 105.17 140.482 105.455C140.423 105.733 140.393 106.018 140.393 106.312Z" fill="white"/>
<path d="M189 88.5493H299.601C302.5 88.5494 304.85 90.9001 304.851 93.7993V116.2C304.851 119.099 302.5 121.45 299.601 121.45H189C186.101 121.449 183.75 119.099 183.75 116.2V93.7993C183.75 90.9001 186.101 88.5495 189 88.5493Z" fill="white"/>
<path d="M189 88.5493H299.601C302.5 88.5494 304.85 90.9001 304.851 93.7993V116.2C304.851 119.099 302.5 121.45 299.601 121.45H189C186.101 121.449 183.75 119.099 183.75 116.2V93.7993C183.75 90.9001 186.101 88.5495 189 88.5493Z" stroke="#79809A" stroke-width="0.7"/>
<path d="M227.826 107.45C227.182 107.45 226.601 107.72 226.184 108.154L221.949 105.668C222.016 105.458 222.051 105.231 222.051 105C222.051 104.769 222.016 104.545 221.949 104.335L226.184 101.849C226.598 102.28 227.179 102.553 227.826 102.553C229.079 102.553 230.101 101.531 230.101 100.278C230.101 99.0246 229.079 98.0024 227.826 98.0024C226.573 98.0024 225.551 99.0246 225.551 100.278C225.551 100.509 225.586 100.736 225.652 100.946L221.417 103.432C221.004 102.997 220.419 102.728 219.775 102.728C218.522 102.728 217.5 103.75 217.5 105.003C217.5 106.256 218.522 107.278 219.775 107.278C220.419 107.278 221 107.009 221.417 106.575L225.652 109.06C225.586 109.27 225.551 109.494 225.551 109.725C225.551 110.978 226.573 112.001 227.826 112.001C229.079 112.001 230.101 110.978 230.101 109.725C230.101 108.472 229.079 107.45 227.826 107.45ZM227.826 99.0491C228.502 99.0491 229.051 99.5986 229.051 100.274C229.051 100.95 228.502 101.499 227.826 101.499C227.151 101.499 226.601 100.95 226.601 100.274C226.601 99.5986 227.151 99.0491 227.826 99.0491ZM219.775 106.225C219.1 106.225 218.55 105.675 218.55 105C218.55 104.324 219.1 103.775 219.775 103.775C220.451 103.775 221 104.324 221 105C221 105.675 220.451 106.225 219.775 106.225ZM227.826 110.95C227.151 110.95 226.601 110.401 226.601 109.725C226.601 109.05 227.151 108.5 227.826 108.5C228.502 108.5 229.051 109.05 229.051 109.725C229.051 110.401 228.502 110.95 227.826 110.95Z" fill="#3F3E3E"/>
<path d="M240.493 106.501C240.493 106.845 240.552 107.139 240.669 107.383C240.787 107.626 240.951 107.828 241.161 107.988C241.371 108.139 241.61 108.252 241.879 108.328C242.156 108.395 242.454 108.429 242.773 108.429C243.118 108.429 243.412 108.391 243.655 108.315C243.899 108.231 244.096 108.126 244.248 108C244.399 107.874 244.508 107.731 244.575 107.572C244.642 107.404 244.676 107.236 244.676 107.068C244.676 106.723 244.596 106.471 244.437 106.312C244.285 106.144 244.117 106.026 243.933 105.959C243.613 105.841 243.24 105.732 242.811 105.631C242.391 105.522 241.87 105.384 241.249 105.216C240.862 105.115 240.539 104.985 240.279 104.825C240.027 104.657 239.825 104.472 239.674 104.271C239.523 104.069 239.413 103.855 239.346 103.628C239.287 103.401 239.258 103.17 239.258 102.935C239.258 102.481 239.35 102.091 239.535 101.763C239.728 101.427 239.98 101.15 240.291 100.932C240.602 100.713 240.955 100.554 241.35 100.453C241.744 100.344 242.143 100.289 242.547 100.289C243.017 100.289 243.458 100.352 243.87 100.478C244.29 100.596 244.655 100.776 244.966 101.02C245.285 101.263 245.537 101.566 245.722 101.927C245.907 102.28 245.999 102.691 245.999 103.162H244.424C244.382 102.582 244.185 102.175 243.832 101.94C243.479 101.696 243.03 101.574 242.484 101.574C242.299 101.574 242.11 101.595 241.917 101.637C241.723 101.671 241.547 101.734 241.387 101.826C241.228 101.91 241.093 102.028 240.984 102.179C240.883 102.33 240.833 102.519 240.833 102.746C240.833 103.065 240.93 103.317 241.123 103.502C241.324 103.678 241.585 103.813 241.904 103.905C241.938 103.914 242.068 103.951 242.295 104.019C242.53 104.077 242.79 104.145 243.076 104.22C243.361 104.296 243.639 104.371 243.907 104.447C244.185 104.514 244.382 104.565 244.5 104.598C244.794 104.691 245.05 104.817 245.268 104.976C245.487 105.136 245.667 105.321 245.81 105.531C245.961 105.732 246.07 105.951 246.138 106.186C246.213 106.421 246.251 106.656 246.251 106.891C246.251 107.395 246.146 107.828 245.936 108.189C245.734 108.542 245.466 108.832 245.13 109.059C244.794 109.285 244.411 109.449 243.983 109.55C243.555 109.659 243.118 109.714 242.673 109.714C242.16 109.714 241.677 109.651 241.224 109.525C240.77 109.399 240.375 109.206 240.039 108.945C239.703 108.685 239.434 108.353 239.233 107.95C239.031 107.538 238.926 107.055 238.918 106.501H240.493ZM247.428 100.503H248.865V103.842H248.89C249.066 103.548 249.327 103.305 249.671 103.111C250.024 102.91 250.414 102.809 250.843 102.809C251.557 102.809 252.12 102.994 252.531 103.363C252.943 103.733 253.149 104.287 253.149 105.027V109.5H251.712V105.405C251.695 104.892 251.586 104.523 251.385 104.296C251.183 104.061 250.868 103.943 250.44 103.943C250.196 103.943 249.978 103.989 249.784 104.082C249.591 104.166 249.427 104.287 249.293 104.447C249.159 104.598 249.054 104.779 248.978 104.989C248.902 105.199 248.865 105.421 248.865 105.657V109.5H247.428V100.503ZM260.119 108.051C260.119 108.227 260.14 108.353 260.182 108.429C260.233 108.504 260.325 108.542 260.459 108.542C260.501 108.542 260.552 108.542 260.611 108.542C260.669 108.542 260.737 108.534 260.812 108.517V109.512C260.762 109.529 260.695 109.546 260.611 109.563C260.535 109.588 260.455 109.609 260.371 109.626C260.287 109.642 260.203 109.655 260.119 109.663C260.035 109.672 259.964 109.676 259.905 109.676C259.611 109.676 259.367 109.617 259.174 109.5C258.981 109.382 258.855 109.176 258.796 108.882C258.511 109.159 258.158 109.361 257.738 109.487C257.326 109.613 256.927 109.676 256.541 109.676C256.247 109.676 255.965 109.634 255.697 109.55C255.428 109.474 255.188 109.361 254.978 109.21C254.777 109.05 254.613 108.853 254.487 108.618C254.369 108.374 254.311 108.093 254.311 107.773C254.311 107.37 254.382 107.043 254.525 106.791C254.676 106.539 254.869 106.341 255.104 106.198C255.348 106.056 255.617 105.955 255.911 105.896C256.213 105.829 256.516 105.778 256.818 105.745C257.078 105.694 257.326 105.661 257.561 105.644C257.797 105.619 258.002 105.581 258.179 105.531C258.364 105.48 258.506 105.405 258.607 105.304C258.716 105.195 258.771 105.035 258.771 104.825C258.771 104.64 258.725 104.489 258.632 104.371C258.548 104.254 258.439 104.166 258.305 104.107C258.179 104.04 258.036 103.998 257.876 103.981C257.717 103.956 257.566 103.943 257.423 103.943C257.02 103.943 256.688 104.027 256.427 104.195C256.167 104.363 256.02 104.623 255.986 104.976H254.55C254.575 104.556 254.676 104.208 254.852 103.93C255.029 103.653 255.251 103.431 255.52 103.263C255.797 103.095 256.108 102.977 256.453 102.91C256.797 102.843 257.15 102.809 257.511 102.809C257.83 102.809 258.145 102.843 258.456 102.91C258.767 102.977 259.044 103.086 259.288 103.237C259.54 103.389 259.741 103.586 259.892 103.83C260.044 104.065 260.119 104.355 260.119 104.699V108.051ZM258.683 106.236C258.464 106.379 258.196 106.467 257.876 106.501C257.557 106.526 257.238 106.568 256.919 106.627C256.768 106.652 256.621 106.69 256.478 106.74C256.335 106.782 256.209 106.845 256.1 106.929C255.991 107.005 255.902 107.11 255.835 107.244C255.776 107.37 255.747 107.526 255.747 107.71C255.747 107.87 255.793 108.004 255.886 108.114C255.978 108.223 256.087 108.311 256.213 108.378C256.348 108.437 256.49 108.479 256.642 108.504C256.801 108.529 256.944 108.542 257.07 108.542C257.23 108.542 257.402 108.521 257.587 108.479C257.771 108.437 257.944 108.366 258.103 108.265C258.271 108.164 258.41 108.038 258.519 107.887C258.628 107.727 258.683 107.534 258.683 107.307V106.236ZM261.665 102.985H263.013V104.245H263.038C263.08 104.069 263.16 103.897 263.278 103.729C263.404 103.561 263.551 103.41 263.719 103.275C263.895 103.132 264.088 103.019 264.298 102.935C264.508 102.851 264.722 102.809 264.941 102.809C265.109 102.809 265.222 102.813 265.281 102.822C265.348 102.83 265.415 102.838 265.483 102.847V104.233C265.382 104.216 265.277 104.203 265.168 104.195C265.067 104.178 264.966 104.17 264.865 104.17C264.622 104.17 264.391 104.22 264.172 104.321C263.962 104.413 263.777 104.556 263.618 104.749C263.458 104.934 263.332 105.165 263.24 105.442C263.147 105.72 263.101 106.039 263.101 106.4V109.5H261.665V102.985ZM270.346 105.669C270.329 105.442 270.279 105.224 270.195 105.014C270.119 104.804 270.01 104.623 269.867 104.472C269.733 104.313 269.565 104.187 269.363 104.094C269.17 103.993 268.952 103.943 268.708 103.943C268.456 103.943 268.225 103.989 268.015 104.082C267.813 104.166 267.637 104.287 267.486 104.447C267.343 104.598 267.225 104.779 267.133 104.989C267.049 105.199 267.003 105.426 266.994 105.669H270.346ZM266.994 106.614C266.994 106.866 267.028 107.11 267.095 107.345C267.171 107.58 267.28 107.786 267.423 107.962C267.566 108.139 267.746 108.282 267.965 108.391C268.183 108.492 268.443 108.542 268.746 108.542C269.166 108.542 269.502 108.454 269.754 108.277C270.014 108.093 270.207 107.82 270.333 107.458H271.694C271.619 107.811 271.488 108.126 271.304 108.403C271.119 108.681 270.896 108.916 270.636 109.109C270.375 109.294 270.081 109.432 269.754 109.525C269.435 109.626 269.099 109.676 268.746 109.676C268.233 109.676 267.78 109.592 267.385 109.424C266.99 109.256 266.654 109.021 266.377 108.718C266.108 108.416 265.902 108.055 265.76 107.635C265.625 107.215 265.558 106.753 265.558 106.249C265.558 105.787 265.629 105.35 265.772 104.938C265.923 104.518 266.133 104.153 266.402 103.842C266.679 103.523 267.011 103.271 267.398 103.086C267.784 102.901 268.221 102.809 268.708 102.809C269.22 102.809 269.678 102.918 270.081 103.137C270.493 103.347 270.833 103.628 271.102 103.981C271.371 104.334 271.564 104.741 271.682 105.203C271.808 105.657 271.841 106.127 271.782 106.614H266.994Z" fill="#3F3E3E"/>
<path d="M290.051 113.837C289.841 114.026 289.668 114.252 289.54 114.503C289.02 114.184 288.394 114.085 287.8 114.227C287.207 114.37 286.694 114.742 286.375 115.263C286.339 115.322 286.305 115.383 286.275 115.445C285.744 115.144 285.115 115.066 284.526 115.229C283.938 115.392 283.439 115.781 283.137 116.312L281.507 114.499C281.097 114.048 280.526 113.778 279.917 113.748C279.309 113.717 278.714 113.929 278.261 114.336C277.808 114.743 277.535 115.313 277.502 115.921C277.468 116.529 277.676 117.126 278.081 117.581L284.744 124.985L283.183 124.596L283.151 124.591C282.459 124.48 281.751 124.64 281.175 125.038C280.599 125.436 280.199 126.042 280.059 126.728C279.919 127.415 280.049 128.128 280.423 128.721C280.797 129.313 281.385 129.738 282.065 129.907L289.273 131.924L289.3 131.931C290.175 132.142 291.087 132.137 291.959 131.916C292.831 131.695 293.636 131.265 294.305 130.663L297.65 127.653C298.811 126.607 299.509 125.143 299.591 123.582C299.674 122.021 299.134 120.492 298.09 119.329L293.305 114.009C292.896 113.555 292.324 113.282 291.714 113.25C291.104 113.218 290.505 113.429 290.051 113.837Z" fill="white"/>
<path d="M290.05 113.838C289.84 114.027 289.667 114.253 289.539 114.504C289.282 114.347 288.995 114.241 288.697 114.194C288.398 114.146 288.093 114.158 287.799 114.229C287.506 114.299 287.228 114.427 286.984 114.605C286.739 114.782 286.532 115.007 286.374 115.264C286.339 115.323 286.305 115.384 286.274 115.446C286.011 115.297 285.721 115.201 285.421 115.164C285.121 115.127 284.817 115.149 284.526 115.23C284.235 115.31 283.962 115.448 283.724 115.633C283.486 115.819 283.286 116.05 283.137 116.313L281.507 114.5C281.305 114.273 281.06 114.089 280.787 113.957C280.513 113.825 280.216 113.749 279.913 113.732C279.61 113.715 279.307 113.759 279.021 113.859C278.734 113.96 278.471 114.117 278.245 114.32C278.02 114.523 277.836 114.768 277.706 115.042C277.576 115.316 277.501 115.614 277.485 115.917C277.47 116.22 277.515 116.523 277.617 116.809C277.719 117.095 277.877 117.357 278.081 117.582L284.743 124.986L283.183 124.597L283.15 124.591C282.458 124.48 281.751 124.64 281.175 125.039C280.598 125.437 280.198 126.042 280.058 126.729C279.918 127.415 280.049 128.129 280.422 128.721C280.796 129.313 281.385 129.738 282.064 129.907L289.272 131.925L289.3 131.932C290.174 132.143 291.087 132.137 291.958 131.917C292.83 131.696 293.635 131.266 294.304 130.664L297.649 127.654C298.81 126.608 299.508 125.143 299.59 123.583C299.673 122.022 299.133 120.493 298.09 119.33L293.303 114.01C292.894 113.556 292.322 113.283 291.712 113.251C291.102 113.219 290.504 113.43 290.05 113.838ZM296.92 120.383C297.685 121.235 298.08 122.356 298.02 123.5C297.959 124.644 297.448 125.717 296.597 126.484L293.252 129.493C292.776 129.923 292.202 130.231 291.58 130.39C290.958 130.549 290.307 130.554 289.682 130.406L282.476 128.388L282.449 128.381C282.164 128.312 281.917 128.137 281.758 127.891C281.599 127.646 281.541 127.348 281.595 127.061C281.649 126.773 281.811 126.518 282.048 126.346C282.286 126.175 282.58 126.102 282.869 126.141L289.363 127.765L279.252 116.528C279.188 116.457 279.138 116.373 279.106 116.283C279.075 116.193 279.061 116.097 279.066 116.002C279.071 115.906 279.095 115.812 279.136 115.726C279.177 115.639 279.235 115.562 279.306 115.498C279.377 115.434 279.461 115.384 279.551 115.353C279.641 115.321 279.737 115.307 279.832 115.312C279.928 115.317 280.022 115.341 280.108 115.382C280.195 115.423 280.272 115.481 280.336 115.552L285.597 121.401L286.766 120.35L284.597 117.939C284.533 117.868 284.484 117.785 284.452 117.694C284.42 117.604 284.406 117.509 284.411 117.413C284.416 117.317 284.44 117.224 284.481 117.137C284.522 117.051 284.58 116.973 284.652 116.909C284.723 116.845 284.806 116.796 284.896 116.764C284.986 116.732 285.082 116.718 285.178 116.723C285.273 116.728 285.367 116.752 285.453 116.793C285.54 116.835 285.617 116.892 285.681 116.964L287.85 119.374L289.019 118.323L287.793 116.96C287.729 116.889 287.679 116.806 287.647 116.715C287.615 116.625 287.602 116.529 287.607 116.434C287.612 116.338 287.636 116.244 287.677 116.158C287.718 116.071 287.776 115.994 287.847 115.93C287.918 115.866 288.001 115.817 288.092 115.785C288.182 115.753 288.278 115.739 288.373 115.744C288.469 115.749 288.563 115.773 288.649 115.814C288.735 115.855 288.813 115.913 288.877 115.984L290.103 117.347L291.273 116.296L291.045 116.044C290.916 115.9 290.849 115.711 290.859 115.518C290.869 115.325 290.956 115.144 291.099 115.014C291.243 114.885 291.432 114.818 291.626 114.828C291.819 114.838 292 114.925 292.129 115.069L296.915 120.389L296.92 120.383Z" fill="#0A0909"/>
<path d="M276.274 110.866L275.104 111.919L276.561 113.538L277.731 112.485L276.274 110.866Z" fill="#0A0909"/>
<path d="M278.718 109.9L278.705 112.078L280.279 112.088L280.293 109.909L278.718 109.9Z" fill="#0A0909"/>
<path d="M282.741 110.854L281.264 112.455L282.421 113.523L283.898 111.921L282.741 110.854Z" fill="#0A0909"/>
<path d="M273.857 114.299L273.701 115.865L275.869 116.081L276.024 114.514L273.857 114.299Z" fill="#0A0909"/>
<path d="M276.125 117.12L274.377 118.42L275.317 119.684L277.065 118.384L276.125 117.12Z" fill="#0A0909"/>
</svg>
