<svg width="350" height="210" viewBox="0 0 350 210" fill="none" xmlns="http://www.w3.org/2000/svg">
<rect width="350" height="210" fill="#F5F6FB"/>
<path d="M22.4004 29.3999C22.4004 25.5339 25.5344 22.3999 29.4004 22.3999H320.6C324.466 22.3999 327.6 25.5339 327.6 29.3999V210H22.4004V29.3999Z" fill="white"/>
<g clip-path="url(#clip0_35554_318010)">
<path d="M111.797 45.1494H156.197C163.737 45.1494 169.849 51.2622 169.849 58.8018C169.848 66.3411 163.737 72.4531 156.197 72.4531H111.797C104.257 72.4531 98.1447 66.3411 98.1445 58.8018C98.1445 51.2622 104.257 45.1494 111.797 45.1494Z" stroke="#D3D8EB" stroke-width="0.700078"/>
<g clip-path="url(#clip1_35554_318010)">
<path d="M119.051 58.3555C119.193 58.5545 119.264 58.6539 119.264 58.8012C119.264 58.9485 119.193 59.048 119.051 59.2469C118.414 60.141 116.785 62.0682 114.597 62.0682C112.408 62.0682 110.78 60.141 110.143 59.2469C110.001 59.048 109.93 58.9485 109.93 58.8012C109.93 58.6539 110.001 58.5545 110.143 58.3555C110.78 57.4615 112.408 55.5342 114.597 55.5342C116.785 55.5342 118.414 57.4615 119.051 58.3555Z" stroke="#3F3E3E" stroke-width="0.840094" stroke-linecap="round"/>
<path d="M115.997 58.8012C115.997 58.0279 115.37 57.4011 114.597 57.4011C113.824 57.4011 113.197 58.0279 113.197 58.8012C113.197 59.5745 113.824 60.2014 114.597 60.2014C115.37 60.2014 115.997 59.5745 115.997 58.8012Z" stroke="#3F3E3E" stroke-width="0.840094" stroke-linecap="round"/>
</g>
<path d="M123.864 53.8229H126.892C127.637 53.8229 128.235 54.0091 128.666 54.362C129.098 54.7148 129.323 55.244 129.323 55.9497C129.323 56.6162 129.117 57.1455 128.715 57.5375C128.304 57.9295 127.755 58.1158 127.059 58.1158H125.089V60.8013H123.864V53.8229ZM125.089 54.8422V57.1259H126.794C127.676 57.1259 128.127 56.7436 128.127 55.9791C128.127 55.2244 127.647 54.8422 126.687 54.8422H125.089ZM133.096 55.6459V56.7142C132.9 56.6946 132.763 56.6848 132.704 56.6848C131.724 56.6848 131.244 57.3219 131.244 58.5764V60.8013H130.136V55.7439H131.185V56.7534C131.538 56.0085 132.106 55.6263 132.881 55.6263L133.096 55.6459ZM138.036 59.2233C137.909 59.7722 137.634 60.2034 137.222 60.5072C136.811 60.8209 136.311 60.9679 135.743 60.9679C134.978 60.9679 134.37 60.7229 133.92 60.2328C133.469 59.7428 133.253 59.1057 133.253 58.3314C133.253 57.5473 133.478 56.8906 133.939 56.3712C134.4 55.8615 134.988 55.5969 135.703 55.5969C136.438 55.5969 137.026 55.8517 137.458 56.3614C137.889 56.871 138.105 57.5571 138.105 58.4294V58.547H134.37C134.38 59.0567 134.508 59.4585 134.753 59.733C134.988 60.0074 135.331 60.1446 135.762 60.1446C136.066 60.1446 136.311 60.076 136.507 59.929C136.703 59.782 136.85 59.5467 136.968 59.2233H138.036ZM136.987 57.8021C136.948 57.3807 136.821 57.0474 136.585 56.8024C136.35 56.5574 136.056 56.43 135.694 56.43C135.321 56.43 135.027 56.5476 134.802 56.7828C134.576 57.018 134.439 57.3611 134.39 57.8021H136.987ZM138.444 55.7439H139.66L140.953 59.6349L142.198 55.7439H143.355L141.541 60.8111H140.287L138.444 55.7439ZM145.183 53.7935V54.8912H144.066V53.7935H145.183ZM145.183 55.7439V60.8013H144.066V55.7439H145.183ZM150.929 59.2233C150.801 59.7722 150.527 60.2034 150.115 60.5072C149.703 60.8209 149.204 60.9679 148.635 60.9679C147.871 60.9679 147.263 60.7229 146.812 60.2328C146.361 59.7428 146.146 59.1057 146.146 58.3314C146.146 57.5473 146.371 56.8906 146.832 56.3712C147.292 55.8615 147.88 55.5969 148.596 55.5969C149.331 55.5969 149.919 55.8517 150.35 56.3614C150.782 56.871 150.997 57.5571 150.997 58.4294V58.547H147.263C147.273 59.0567 147.4 59.4585 147.645 59.733C147.88 60.0074 148.224 60.1446 148.655 60.1446C148.959 60.1446 149.204 60.076 149.4 59.929C149.596 59.782 149.743 59.5467 149.86 59.2233H150.929ZM149.88 57.8021C149.841 57.3807 149.713 57.0474 149.478 56.8024C149.243 56.5574 148.949 56.43 148.586 56.43C148.214 56.43 147.92 56.5476 147.694 56.7828C147.469 57.018 147.332 57.3611 147.283 57.8021H149.88ZM151.376 55.7439H152.562L153.562 59.5369L154.513 55.7439H155.64L156.571 59.5369L157.619 55.7439H158.756L157.159 60.8013H156.012L155.061 57.0474L154.12 60.8013H152.944L151.376 55.7439Z" fill="#3F3E3E"/>
<path d="M175.799 58.8014C175.799 51.0685 182.068 44.7998 189.8 44.7998H238.201C245.934 44.7998 252.203 51.0685 252.203 58.8014C252.203 66.5342 245.934 72.8029 238.201 72.8029H189.8C182.068 72.8029 175.799 66.5342 175.799 58.8014Z" fill="#01A56D"/>
<path d="M188.4 58.3815C188.168 58.3815 187.98 58.5696 187.98 58.8015C187.98 59.0335 188.168 59.2216 188.4 59.2216L188.4 58.8015L188.4 58.3815ZM191.201 59.2216C191.433 59.2216 191.621 59.0335 191.621 58.8015C191.621 58.5696 191.433 58.3815 191.201 58.3815V58.8015V59.2216ZM193.021 54.6011C193.021 54.3691 192.833 54.181 192.601 54.181C192.369 54.181 192.181 54.3691 192.181 54.6011H192.601H193.021ZM192.181 56.9347C192.181 57.1667 192.369 57.3547 192.601 57.3547C192.833 57.3547 193.021 57.1667 193.021 56.9347H192.601H192.181ZM196.801 59.2216C197.033 59.2216 197.221 59.0335 197.221 58.8015C197.221 58.5696 197.033 58.3815 196.801 58.3815V58.8015V59.2216ZM192.181 60.2017C192.181 60.4337 192.369 60.6217 192.601 60.6217C192.833 60.6217 193.021 60.4337 193.021 60.2017H192.601H192.181ZM193.021 61.4942C193.021 61.2622 192.833 61.0741 192.601 61.0741C192.369 61.0741 192.181 61.2622 192.181 61.4942H192.601H193.021ZM192.181 62.7866C192.181 63.0186 192.369 63.2067 192.601 63.2067C192.833 63.2067 193.021 63.0186 193.021 62.7866H192.601H192.181ZM194.421 60.2017C194.421 59.9697 194.233 59.7817 194.001 59.7817C193.769 59.7817 193.581 59.9697 193.581 60.2017H194.001H194.421ZM194.468 63.4221C194.7 63.4221 194.888 63.234 194.888 63.002C194.888 62.77 194.7 62.582 194.468 62.582V63.002V63.4221ZM194.001 62.582C193.769 62.582 193.581 62.77 193.581 63.002C193.581 63.234 193.769 63.4221 194.001 63.4221V63.002V62.582ZM194.981 62.0686C194.981 62.3006 195.169 62.4886 195.401 62.4886C195.633 62.4886 195.821 62.3006 195.821 62.0686H195.401H194.981ZM196.596 62.8007L196.894 63.0975V63.0975L196.596 62.8007ZM195.401 59.7817C195.169 59.7817 194.981 59.9697 194.981 60.2017C194.981 60.4337 195.169 60.6217 195.401 60.6217V60.2017V59.7817ZM196.596 60.407L196.299 60.7038V60.7038L196.596 60.407ZM195.855 62.5822C195.623 62.5892 195.441 62.7828 195.448 63.0147C195.455 63.2466 195.649 63.4289 195.881 63.4219L195.868 63.002L195.855 62.5822ZM189.801 57.4014V56.9813C189.459 56.9813 189.244 56.9804 189.088 56.9595C188.944 56.9401 188.914 56.9108 188.902 56.8993L188.605 57.1963L188.308 57.4934C188.502 57.6869 188.739 57.7602 188.976 57.7921C189.202 57.8223 189.482 57.8214 189.801 57.8214V57.4014ZM188.4 56.0012H187.98C187.98 56.3194 187.979 56.6002 188.01 56.8254C188.042 57.0626 188.115 57.2998 188.308 57.4934L188.605 57.1963L188.902 56.8993C188.891 56.8879 188.862 56.8575 188.842 56.7134C188.821 56.5573 188.82 56.3431 188.82 56.0012H188.4ZM191.201 56.0012H190.781C190.781 56.3431 190.78 56.5573 190.759 56.7134C190.739 56.8575 190.71 56.8879 190.699 56.8993L190.996 57.1963L191.293 57.4934C191.486 57.2998 191.559 57.0626 191.591 56.8254C191.622 56.6002 191.621 56.3194 191.621 56.0012H191.201ZM189.801 57.4014V57.8214C190.119 57.8214 190.4 57.8223 190.625 57.7921C190.862 57.7602 191.099 57.6869 191.293 57.4934L190.996 57.1963L190.699 56.8993C190.687 56.9108 190.657 56.9401 190.513 56.9595C190.357 56.9804 190.142 56.9813 189.801 56.9813V57.4014ZM189.801 54.6011V55.0211C190.142 55.0211 190.357 55.022 190.513 55.043C190.657 55.0624 190.687 55.0917 190.699 55.1031L190.996 54.8061L191.293 54.5091C191.099 54.3155 190.862 54.2423 190.625 54.2104C190.4 54.1801 190.119 54.181 189.801 54.181V54.6011ZM191.201 56.0012H191.621C191.621 55.6831 191.622 55.4022 191.591 55.1771C191.559 54.9399 191.486 54.7027 191.293 54.5091L190.996 54.8061L190.699 55.1031C190.71 55.1146 190.739 55.145 190.759 55.289C190.78 55.4452 190.781 55.6593 190.781 56.0012H191.201ZM189.801 54.6011V54.181C189.482 54.181 189.202 54.1801 188.976 54.2104C188.739 54.2423 188.502 54.3155 188.308 54.5091L188.605 54.8061L188.902 55.1031C188.914 55.0917 188.944 55.0624 189.088 55.043C189.244 55.022 189.459 55.0211 189.801 55.0211V54.6011ZM188.4 56.0012H188.82C188.82 55.6593 188.821 55.4452 188.842 55.289C188.862 55.145 188.891 55.1146 188.902 55.1031L188.605 54.8061L188.308 54.5091C188.115 54.7027 188.042 54.9399 188.01 55.1771C187.979 55.4022 187.98 55.6831 187.98 56.0012H188.4ZM189.801 63.002V62.582C189.459 62.582 189.244 62.5811 189.088 62.5601C188.944 62.5407 188.914 62.5114 188.902 62.4999L188.605 62.797L188.308 63.094C188.502 63.2876 188.739 63.3608 188.976 63.3927C189.202 63.423 189.482 63.4221 189.801 63.4221V63.002ZM188.4 61.6019H187.98C187.98 61.92 187.979 62.2009 188.01 62.426C188.042 62.6632 188.115 62.9004 188.308 63.094L188.605 62.797L188.902 62.4999C188.891 62.4885 188.862 62.4581 188.842 62.3141C188.821 62.1579 188.82 61.9438 188.82 61.6019H188.4ZM191.201 61.6019H190.781C190.781 61.9438 190.78 62.1579 190.759 62.3141C190.739 62.4581 190.71 62.4885 190.699 62.4999L190.996 62.797L191.293 63.094C191.486 62.9004 191.559 62.6632 191.591 62.426C191.622 62.2009 191.621 61.92 191.621 61.6019H191.201ZM189.801 63.002V63.4221C190.119 63.4221 190.4 63.423 190.625 63.3927C190.862 63.3608 191.099 63.2876 191.293 63.094L190.996 62.797L190.699 62.4999C190.687 62.5114 190.657 62.5407 190.513 62.5601C190.357 62.5811 190.142 62.582 189.801 62.582V63.002ZM189.801 60.2017V60.6217C190.142 60.6217 190.357 60.6226 190.513 60.6436C190.657 60.663 190.687 60.6923 190.699 60.7038L190.996 60.4067L191.293 60.1097C191.099 59.9162 190.862 59.8429 190.625 59.811C190.4 59.7808 190.119 59.7817 189.801 59.7817V60.2017ZM191.201 61.6019H191.621C191.621 61.2837 191.622 61.0028 191.591 60.7777C191.559 60.5405 191.486 60.3033 191.293 60.1097L190.996 60.4067L190.699 60.7038C190.71 60.7152 190.739 60.7456 190.759 60.8897C190.78 61.0458 190.781 61.26 190.781 61.6019H191.201ZM189.801 60.2017V59.7817C189.482 59.7817 189.202 59.7808 188.976 59.811C188.739 59.8429 188.502 59.9162 188.308 60.1097L188.605 60.4067L188.902 60.7038C188.914 60.6923 188.944 60.663 189.088 60.6436C189.244 60.6226 189.459 60.6217 189.801 60.6217V60.2017ZM188.4 61.6019H188.82C188.82 61.26 188.821 61.0458 188.842 60.8897C188.862 60.7456 188.891 60.7152 188.902 60.7038L188.605 60.4067L188.308 60.1097C188.115 60.3033 188.042 60.5405 188.01 60.7777C187.979 61.0028 187.98 61.2837 187.98 61.6019H188.4ZM188.4 58.8015L188.4 59.2216L191.201 59.2216V58.8015V58.3815L188.4 58.3815L188.4 58.8015ZM192.601 54.6011H192.181V56.9347H192.601H193.021V54.6011H192.601ZM195.401 57.4014V56.9813C195.059 56.9813 194.845 56.9804 194.689 56.9595C194.545 56.9401 194.515 56.9108 194.503 56.8993L194.206 57.1963L193.909 57.4934C194.103 57.6869 194.34 57.7602 194.577 57.7921C194.802 57.8223 195.083 57.8214 195.401 57.8214V57.4014ZM194.001 56.0012H193.581C193.581 56.3194 193.58 56.6002 193.61 56.8254C193.642 57.0626 193.715 57.2998 193.909 57.4934L194.206 57.1963L194.503 56.8993C194.492 56.8879 194.462 56.8575 194.443 56.7134C194.422 56.5573 194.421 56.3431 194.421 56.0012H194.001ZM196.801 56.0012H196.381C196.381 56.3431 196.38 56.5573 196.359 56.7134C196.34 56.8575 196.311 56.8879 196.299 56.8993L196.596 57.1963L196.893 57.4934C197.087 57.2998 197.16 57.0626 197.192 56.8254C197.222 56.6002 197.221 56.3194 197.221 56.0012H196.801ZM195.401 57.4014V57.8214C195.719 57.8214 196 57.8223 196.225 57.7921C196.463 57.7602 196.7 57.6869 196.893 57.4934L196.596 57.1963L196.299 56.8993C196.288 56.9108 196.257 56.9401 196.113 56.9595C195.957 56.9804 195.743 56.9813 195.401 56.9813V57.4014ZM195.401 54.6011V55.0211C195.743 55.0211 195.957 55.022 196.113 55.043C196.257 55.0624 196.288 55.0917 196.299 55.1031L196.596 54.8061L196.893 54.5091C196.7 54.3155 196.463 54.2423 196.225 54.2104C196 54.1801 195.719 54.181 195.401 54.181V54.6011ZM196.801 56.0012H197.221C197.221 55.6831 197.222 55.4022 197.192 55.1771C197.16 54.9399 197.087 54.7027 196.893 54.5091L196.596 54.8061L196.299 55.1031C196.311 55.1146 196.34 55.145 196.359 55.289C196.38 55.4452 196.381 55.6593 196.381 56.0012H196.801ZM195.401 54.6011V54.181C195.083 54.181 194.802 54.1801 194.577 54.2104C194.34 54.2423 194.103 54.3155 193.909 54.5091L194.206 54.8061L194.503 55.1031C194.515 55.0917 194.545 55.0624 194.689 55.043C194.845 55.022 195.059 55.0211 195.401 55.0211V54.6011ZM194.001 56.0012H194.421C194.421 55.6593 194.422 55.4452 194.443 55.289C194.462 55.145 194.492 55.1146 194.503 55.1031L194.206 54.8061L193.909 54.5091C193.715 54.7027 193.642 54.9399 193.61 55.1771C193.58 55.4022 193.581 55.6831 193.581 56.0012H194.001ZM194.001 58.8015V59.2216H196.801V58.8015V58.3815H194.001V58.8015ZM192.601 60.2017H193.021C193.021 59.8598 193.022 59.6456 193.043 59.4895C193.062 59.3454 193.091 59.3151 193.103 59.3036L192.806 59.0066L192.509 58.7096C192.315 58.9032 192.242 59.1403 192.21 59.3776C192.18 59.6027 192.181 59.8836 192.181 60.2017H192.601ZM194.001 58.8015V58.3815C193.683 58.3815 193.402 58.3806 193.177 58.4109C192.94 58.4428 192.702 58.516 192.509 58.7096L192.806 59.0066L193.103 59.3036C193.114 59.2921 193.145 59.2628 193.289 59.2435C193.445 59.2225 193.659 59.2216 194.001 59.2216V58.8015ZM192.601 61.4942H192.181V62.7866H192.601H193.021V61.4942H192.601ZM194.001 60.2017H193.581V60.9018H194.001H194.421V60.2017H194.001ZM194.468 63.002V62.582H194.001V63.002V63.4221H194.468V63.002ZM194.934 61.6019V62.0219C194.96 62.0219 194.981 62.0428 194.981 62.0686H195.401H195.821C195.821 61.5788 195.424 61.1818 194.934 61.1818V61.6019ZM196.801 61.6039H196.381C196.381 61.9462 196.38 62.1608 196.359 62.3173C196.34 62.4617 196.311 62.4923 196.299 62.5039L196.596 62.8007L196.894 63.0975C197.087 62.9038 197.16 62.6664 197.192 62.4291C197.222 62.2037 197.221 61.9225 197.221 61.6039H196.801ZM195.401 60.2017V60.6217C195.743 60.6217 195.957 60.6226 196.113 60.6437C196.257 60.663 196.288 60.6923 196.299 60.7038L196.596 60.407L196.894 60.1102C196.7 59.9164 196.463 59.843 196.225 59.8111C196 59.7808 195.719 59.7817 195.401 59.7817V60.2017ZM196.801 61.6039H197.221C197.221 61.2852 197.222 61.0041 197.192 60.7787C197.16 60.5413 197.087 60.304 196.894 60.1102L196.596 60.407L196.299 60.7038C196.311 60.7154 196.34 60.746 196.359 60.8905C196.38 61.047 196.381 61.2615 196.381 61.6039H196.801ZM195.868 63.002L195.881 63.4219C196.237 63.4111 196.615 63.3768 196.894 63.0975L196.596 62.8007L196.299 62.5039C196.279 62.5244 196.224 62.571 195.855 62.5822L195.868 63.002ZM194.001 60.9018H193.581C193.581 61.311 193.697 61.6746 194.05 61.8717C194.2 61.9555 194.361 61.9889 194.502 62.0048C194.643 62.0207 194.794 62.0219 194.934 62.0219V61.6019V61.1818C194.791 61.1818 194.684 61.1799 194.596 61.17C194.508 61.1601 194.472 61.145 194.46 61.1382C194.458 61.1372 194.457 61.1398 194.451 61.1256C194.44 61.101 194.421 61.0371 194.421 60.9018H194.001Z" fill="white"/>
<path d="M208.106 60.7817L207.508 61.4481L206.469 60.566C206.038 60.8405 205.489 60.9679 204.812 60.9679C203.823 60.9679 203.019 60.6347 202.411 59.9682C201.794 59.3017 201.49 58.4196 201.49 57.3317C201.49 56.2536 201.794 55.3813 202.421 54.6952C203.048 54.0189 203.852 53.6759 204.852 53.6759C205.832 53.6759 206.626 54.0189 207.253 54.6952C207.87 55.3715 208.184 56.2438 208.184 57.3023C208.184 57.8609 208.096 58.3706 207.919 58.8411C207.743 59.3115 207.508 59.7035 207.194 59.9976L208.106 60.7817ZM206.332 59.2429C206.743 58.7136 206.959 58.0766 206.959 57.3121C206.959 56.528 206.763 55.8909 206.381 55.4205C205.989 54.95 205.479 54.705 204.832 54.705C204.185 54.705 203.675 54.95 203.293 55.4205C202.911 55.8909 202.725 56.528 202.725 57.3121C202.725 58.1256 202.911 58.7724 203.303 59.2527C203.685 59.733 204.205 59.9682 204.852 59.9682C205.126 59.9682 205.381 59.9192 205.636 59.8016L204.92 59.1939L205.508 58.5274L206.332 59.2429ZM209.289 53.8229H212.592C213.278 53.8229 213.847 53.9797 214.288 54.2933C214.719 54.607 214.944 55.097 214.944 55.7635C214.944 56.185 214.837 56.5476 214.641 56.8416C214.435 57.1357 214.151 57.3513 213.788 57.4787C213.955 57.5179 214.102 57.5767 214.229 57.6551C214.347 57.7335 214.445 57.8217 214.513 57.9099C214.582 58.008 214.641 58.1256 214.69 58.2628C214.729 58.4098 214.758 58.5372 214.778 58.645C214.797 58.7528 214.807 58.8901 214.827 59.0665C214.827 59.1155 214.837 59.2037 214.846 59.3311C214.856 59.4683 214.866 59.5565 214.866 59.5957C214.866 59.6349 214.876 59.7133 214.886 59.8114C214.895 59.9192 214.905 59.9976 214.915 60.0368C214.915 60.076 214.925 60.1446 214.944 60.223C214.964 60.3014 214.974 60.37 214.993 60.4092C215.003 60.4484 215.023 60.4974 215.042 60.5562C215.062 60.615 215.082 60.6543 215.111 60.6935C215.131 60.7327 215.16 60.7719 215.199 60.8013H213.886C213.866 60.7817 213.847 60.7523 213.827 60.7131C213.808 60.6739 213.798 60.6347 213.788 60.5954C213.768 60.5562 213.759 60.517 213.759 60.4778C213.749 60.4386 213.739 60.3896 213.729 60.3308C213.719 60.272 213.719 60.2132 213.719 60.174L213.7 59.9976L213.68 59.8212C213.68 59.782 213.67 59.7133 213.67 59.6153C213.661 59.5173 213.661 59.4487 213.661 59.4095C213.621 58.8411 213.504 58.4588 213.298 58.2432C213.092 58.0276 212.7 57.9197 212.132 57.9197H210.505V60.8013H209.289V53.8229ZM210.505 54.8226V57.0082H212.122C212.357 57.0082 212.553 56.9984 212.72 56.969C212.876 56.9494 213.043 56.9004 213.21 56.8318C213.376 56.7632 213.504 56.6456 213.592 56.4888C213.68 56.332 213.729 56.1359 213.729 55.8909C213.729 55.6753 213.69 55.4891 213.612 55.3421C213.533 55.195 213.415 55.0872 213.268 55.0088C213.121 54.9402 212.974 54.8912 212.818 54.8618C212.661 54.8422 212.484 54.8226 212.279 54.8226H210.505ZM223.368 58.8901C223.289 59.5173 223.034 60.0074 222.623 60.3798C222.201 60.7523 221.672 60.9287 221.045 60.9287C220.28 60.9287 219.683 60.6935 219.232 60.2132C218.781 59.733 218.555 59.1057 218.555 58.3216C218.555 57.4885 218.781 56.822 219.232 56.332C219.683 55.8419 220.3 55.5871 221.074 55.5871C221.721 55.5871 222.241 55.7537 222.633 56.0771C223.025 56.4104 223.26 56.8612 223.329 57.4395H222.221C222.152 57.1259 222.025 56.8808 221.829 56.7044C221.633 56.5378 221.378 56.4496 221.084 56.4496C220.653 56.4496 220.31 56.6162 220.065 56.9396C219.81 57.2631 219.692 57.7041 219.692 58.2628C219.692 58.8312 219.81 59.2625 220.045 59.5761C220.28 59.8898 220.614 60.0466 221.045 60.0466C221.378 60.0466 221.643 59.9486 221.858 59.7526C222.074 59.5565 222.211 59.2625 222.27 58.8901H223.368ZM226.569 55.5969C227.334 55.5969 227.951 55.8419 228.412 56.3222C228.863 56.8122 229.098 57.4591 229.098 58.2726C229.098 59.0959 228.863 59.7526 228.412 60.2328C227.961 60.7229 227.344 60.9581 226.569 60.9581C225.776 60.9581 225.148 60.7229 224.688 60.2328C224.217 59.7526 223.992 59.0959 223.992 58.2726C223.992 57.4591 224.217 56.8122 224.688 56.3222C225.158 55.8419 225.785 55.5969 226.569 55.5969ZM226.55 56.479C226.099 56.479 225.756 56.6456 225.501 56.9592C225.246 57.2827 225.119 57.7237 225.119 58.2726C225.119 58.8411 225.246 59.2919 225.501 59.6055C225.756 59.929 226.109 60.0858 226.56 60.0858C226.991 60.0858 227.334 59.929 227.589 59.6055C227.844 59.2821 227.971 58.8312 227.971 58.2628C227.971 57.7139 227.844 57.2729 227.589 56.9592C227.334 56.6456 226.991 56.479 226.55 56.479ZM234.829 53.8229V60.8013H233.781V60.1054C233.457 60.6641 232.918 60.9385 232.164 60.9385C231.448 60.9385 230.88 60.7033 230.458 60.2132C230.037 59.733 229.831 59.0861 229.831 58.2628C229.831 57.4591 230.037 56.8122 230.448 56.332C230.86 55.8517 231.419 55.6067 232.124 55.6067C232.83 55.6067 233.369 55.8713 233.732 56.4006V53.8229H234.829ZM232.33 56.5084C231.899 56.5084 231.566 56.6652 231.321 56.9788C231.076 57.2925 230.958 57.7139 230.958 58.2432C230.958 58.8018 231.076 59.2429 231.331 59.5565C231.585 59.88 231.928 60.0368 232.369 60.0368C232.801 60.0368 233.144 59.88 233.389 59.5663C233.634 59.2527 233.761 58.8214 233.761 58.2628C233.761 57.7139 233.634 57.2827 233.379 56.969C233.124 56.6652 232.781 56.5084 232.33 56.5084ZM240.557 59.2233C240.429 59.7722 240.155 60.2034 239.743 60.5072C239.331 60.8209 238.832 60.9679 238.263 60.9679C237.499 60.9679 236.891 60.7229 236.44 60.2328C235.989 59.7428 235.774 59.1057 235.774 58.3314C235.774 57.5473 235.999 56.8906 236.46 56.3712C236.92 55.8615 237.508 55.5969 238.224 55.5969C238.959 55.5969 239.547 55.8517 239.978 56.3614C240.41 56.871 240.625 57.5571 240.625 58.4294V58.547H236.891C236.901 59.0567 237.028 59.4585 237.273 59.733C237.508 60.0074 237.851 60.1446 238.283 60.1446C238.587 60.1446 238.832 60.076 239.028 59.929C239.224 59.782 239.371 59.5467 239.488 59.2233H240.557ZM239.508 57.8021C239.469 57.3807 239.341 57.0474 239.106 56.8024C238.871 56.5574 238.577 56.43 238.214 56.43C237.842 56.43 237.548 56.5476 237.322 56.7828C237.097 57.018 236.96 57.3611 236.911 57.8021H239.508Z" fill="white"/>
<rect x="81.1809" y="86.8029" width="187.639" height="386.4" rx="25.2" fill="white" stroke="#0A0909" stroke-width="5.6"/>
<rect x="77" y="184.41" width="5.52113" height="28.8842" rx="2.1" fill="#0A0909"/>
<rect x="77" y="154.15" width="5.52113" height="15.1298" rx="2.1" fill="#0A0909"/>
<rect x="267.48" y="197.477" width="5.52113" height="42.6386" rx="2.1" fill="#0A0909"/>
<rect x="150.154" y="95.0063" width="49.6901" height="15.1298" rx="7.56491" fill="#0A0909"/>
<ellipse cx="192.252" cy="102.572" rx="3.45109" ry="3.43898" fill="white" fill-opacity="0.1"/>
<mask id="mask0_35554_318010" style="mask-type:luminance" maskUnits="userSpaceOnUse" x="238" y="99" width="15" height="8">
<path d="M252.338 99.8203H238.934V106.148H252.338V99.8203Z" fill="white"/>
</mask>
<g mask="url(#mask0_35554_318010)">
<path d="M249.274 106.148H240.848C240.341 106.147 239.854 105.939 239.495 105.568C239.136 105.198 238.934 104.695 238.934 104.171V101.798C238.934 101.273 239.136 100.771 239.495 100.4C239.854 100.029 240.341 99.8209 240.848 99.8203H249.275C249.783 99.8212 250.269 100.03 250.628 100.401C250.986 100.771 251.188 101.274 251.189 101.798V104.171C251.188 104.695 250.986 105.198 250.627 105.568C250.268 105.939 249.782 106.147 249.274 106.148ZM240.848 100.216C240.442 100.216 240.053 100.383 239.766 100.68C239.478 100.976 239.317 101.378 239.316 101.798V104.171C239.317 104.59 239.478 104.992 239.766 105.289C240.053 105.585 240.442 105.752 240.848 105.753H249.275C249.681 105.752 250.071 105.585 250.358 105.289C250.645 104.992 250.807 104.59 250.807 104.171V101.798C250.807 101.378 250.645 100.976 250.357 100.679C250.07 100.382 249.68 100.216 249.274 100.216H240.848Z" fill="#0A0909"/>
<path d="M240.848 100.611H246.211C246.516 100.611 246.808 100.736 247.023 100.959C247.239 101.181 247.36 101.483 247.36 101.798V104.17C247.36 104.485 247.239 104.787 247.023 105.009C246.808 105.232 246.516 105.357 246.211 105.357H240.848C240.544 105.357 240.251 105.232 240.036 105.009C239.82 104.787 239.699 104.485 239.699 104.17V101.798C239.699 101.483 239.82 101.181 240.036 100.959C240.251 100.736 240.544 100.611 240.848 100.611Z" fill="#0A0909"/>
<path d="M251.57 103.775V102.193C251.673 102.19 251.775 102.208 251.87 102.247C251.965 102.285 252.052 102.343 252.125 102.417C252.199 102.49 252.257 102.579 252.297 102.676C252.337 102.773 252.357 102.878 252.357 102.984C252.357 103.089 252.337 103.194 252.297 103.291C252.257 103.389 252.199 103.477 252.125 103.551C252.052 103.625 251.965 103.682 251.87 103.721C251.775 103.759 251.673 103.778 251.57 103.775Z" fill="#0A0909"/>
</g>
<mask id="mask1_35554_318010" style="mask-type:luminance" maskUnits="userSpaceOnUse" x="224" y="99" width="9" height="8">
<path d="M232.923 99.8203H224.496V106.149H232.923V99.8203Z" fill="white"/>
</mask>
<g mask="url(#mask1_35554_318010)">
<path opacity="0.294" d="M231.925 99.8203H232.385C232.455 99.8202 232.525 99.8345 232.59 99.8623C232.655 99.8901 232.715 99.9309 232.764 99.9824C232.814 100.034 232.854 100.095 232.881 100.162C232.908 100.229 232.921 100.301 232.921 100.374V105.595C232.921 105.668 232.908 105.74 232.881 105.808C232.854 105.875 232.814 105.936 232.764 105.987C232.715 106.039 232.655 106.08 232.59 106.107C232.525 106.135 232.455 106.149 232.385 106.149H231.925C231.855 106.149 231.785 106.135 231.72 106.107C231.654 106.079 231.595 106.039 231.545 105.987C231.496 105.936 231.456 105.874 231.429 105.807C231.402 105.74 231.389 105.668 231.389 105.595V100.374C231.389 100.301 231.402 100.229 231.429 100.162C231.456 100.095 231.496 100.034 231.546 99.9824C231.595 99.9309 231.655 99.8901 231.72 99.8623C231.785 99.8345 231.855 99.8202 231.925 99.8203Z" fill="#0A0909"/>
<path opacity="0.294" d="M229.628 101.402H230.088C230.159 101.402 230.228 101.417 230.293 101.444C230.359 101.472 230.418 101.513 230.467 101.564C230.517 101.616 230.557 101.677 230.584 101.744C230.611 101.811 230.624 101.883 230.624 101.956V105.595C230.624 105.668 230.611 105.74 230.584 105.807C230.557 105.874 230.517 105.935 230.467 105.987C230.418 106.038 230.359 106.079 230.293 106.107C230.228 106.135 230.159 106.149 230.088 106.149H229.628C229.558 106.149 229.488 106.135 229.423 106.107C229.358 106.079 229.299 106.038 229.249 105.987C229.199 105.935 229.159 105.874 229.132 105.807C229.106 105.74 229.092 105.668 229.092 105.595V101.956C229.092 101.883 229.106 101.811 229.132 101.744C229.159 101.677 229.199 101.616 229.249 101.564C229.299 101.513 229.358 101.472 229.423 101.444C229.488 101.417 229.558 101.402 229.628 101.402Z" fill="#0A0909"/>
<path d="M227.331 102.984H227.791C227.862 102.984 227.931 102.998 227.997 103.026C228.062 103.054 228.121 103.094 228.171 103.146C228.22 103.197 228.26 103.258 228.287 103.326C228.314 103.393 228.328 103.465 228.328 103.538V105.594C228.328 105.667 228.314 105.739 228.287 105.806C228.26 105.874 228.22 105.935 228.171 105.986C228.121 106.038 228.062 106.078 227.997 106.106C227.931 106.134 227.862 106.148 227.791 106.148H227.331C227.261 106.148 227.191 106.134 227.126 106.106C227.061 106.078 227.002 106.038 226.952 105.986C226.902 105.935 226.863 105.874 226.836 105.806C226.809 105.739 226.795 105.667 226.795 105.594V103.538C226.795 103.465 226.809 103.393 226.836 103.326C226.863 103.258 226.902 103.197 226.952 103.146C227.002 103.094 227.061 103.054 227.126 103.026C227.191 102.998 227.261 102.984 227.331 102.984Z" fill="#0A0909"/>
<path d="M225.032 103.775H225.492C225.563 103.775 225.633 103.79 225.698 103.817C225.763 103.845 225.822 103.886 225.872 103.937C225.922 103.989 225.961 104.05 225.988 104.117C226.015 104.184 226.029 104.257 226.029 104.329V105.597C226.029 105.67 226.015 105.742 225.988 105.809C225.961 105.877 225.922 105.938 225.872 105.989C225.822 106.041 225.763 106.081 225.698 106.109C225.633 106.137 225.563 106.151 225.492 106.151H225.032C224.962 106.151 224.892 106.137 224.827 106.109C224.761 106.081 224.702 106.04 224.652 105.988C224.602 105.937 224.563 105.875 224.536 105.808C224.509 105.74 224.496 105.668 224.496 105.595V104.327C224.497 104.18 224.553 104.04 224.654 103.937C224.754 103.833 224.891 103.775 225.032 103.775Z" fill="#0A0909"/>
</g>
<path d="M97.9861 105.322C97.8987 105.322 97.8297 105.297 97.779 105.246C97.7284 105.196 97.7031 105.129 97.7031 105.047C97.7031 104.96 97.7284 104.893 97.779 104.847C97.8297 104.802 97.8987 104.779 97.9861 104.779H98.8557V101.003H99.1869L98.1793 101.65C98.1149 101.691 98.0528 101.709 97.993 101.705C97.9378 101.695 97.8895 101.672 97.8481 101.636C97.8066 101.594 97.779 101.546 97.7652 101.491C97.7514 101.436 97.7537 101.381 97.7721 101.326C97.7951 101.267 97.8412 101.219 97.9102 101.182L98.8626 100.563C98.9316 100.522 98.996 100.49 99.0558 100.467C99.1202 100.439 99.1823 100.425 99.2421 100.425C99.3112 100.425 99.371 100.446 99.4216 100.487C99.4722 100.529 99.4975 100.595 99.4975 100.687V104.779H100.298C100.39 104.779 100.459 104.802 100.505 104.847C100.556 104.893 100.581 104.96 100.581 105.047C100.581 105.134 100.556 105.203 100.505 105.253C100.459 105.299 100.39 105.322 100.298 105.322H97.9861Z" fill="#0A0909"/>
<path d="M103.194 105.384C102.826 105.384 102.511 105.331 102.248 105.226C101.991 105.12 101.791 104.967 101.648 104.765C101.51 104.563 101.441 104.318 101.441 104.029C101.441 103.804 101.487 103.605 101.579 103.431C101.676 103.252 101.807 103.107 101.972 102.997C102.138 102.887 102.329 102.819 102.545 102.791V102.901C102.242 102.837 102 102.697 101.821 102.482C101.646 102.262 101.558 102.003 101.558 101.705C101.558 101.434 101.625 101.202 101.758 101.01C101.896 100.813 102.087 100.664 102.331 100.563C102.575 100.462 102.863 100.412 103.194 100.412C103.53 100.412 103.82 100.462 104.064 100.563C104.307 100.664 104.496 100.813 104.629 101.01C104.763 101.202 104.83 101.434 104.83 101.705C104.83 101.902 104.788 102.085 104.705 102.255C104.627 102.424 104.514 102.564 104.367 102.674C104.225 102.784 104.054 102.86 103.856 102.901V102.791C104.179 102.837 104.441 102.972 104.643 103.197C104.846 103.417 104.947 103.694 104.947 104.029C104.947 104.318 104.876 104.563 104.733 104.765C104.595 104.967 104.395 105.12 104.133 105.226C103.875 105.331 103.562 105.384 103.194 105.384ZM103.194 104.868C103.571 104.868 103.856 104.795 104.05 104.648C104.243 104.501 104.34 104.283 104.34 103.995C104.34 103.701 104.243 103.483 104.05 103.341C103.856 103.199 103.571 103.128 103.194 103.128C102.821 103.128 102.536 103.199 102.338 103.341C102.145 103.483 102.048 103.701 102.048 103.995C102.048 104.283 102.145 104.501 102.338 104.648C102.536 104.795 102.821 104.868 103.194 104.868ZM103.194 102.605C103.41 102.605 103.594 102.573 103.746 102.509C103.898 102.44 104.015 102.342 104.098 102.213C104.181 102.085 104.222 101.934 104.222 101.76C104.222 101.498 104.13 101.294 103.946 101.147C103.767 101.001 103.516 100.927 103.194 100.927C102.872 100.927 102.621 101.001 102.442 101.147C102.262 101.294 102.173 101.498 102.173 101.76C102.173 102.025 102.262 102.234 102.442 102.385C102.621 102.532 102.872 102.605 103.194 102.605Z" fill="#0A0909"/>
<path d="M106.138 105.349C106.019 105.349 105.92 105.31 105.841 105.233C105.763 105.155 105.724 105.056 105.724 104.937C105.724 104.818 105.763 104.721 105.841 104.648C105.92 104.575 106.019 104.538 106.138 104.538C106.267 104.538 106.366 104.575 106.435 104.648C106.509 104.721 106.545 104.818 106.545 104.937C106.545 105.056 106.509 105.155 106.435 105.233C106.366 105.31 106.267 105.349 106.138 105.349ZM106.138 102.757C106.019 102.757 105.92 102.72 105.841 102.647C105.763 102.569 105.724 102.47 105.724 102.351C105.724 102.232 105.763 102.136 105.841 102.062C105.92 101.984 106.019 101.945 106.138 101.945C106.267 101.945 106.366 101.984 106.435 102.062C106.509 102.136 106.545 102.232 106.545 102.351C106.545 102.47 106.509 102.569 106.435 102.647C106.366 102.72 106.267 102.757 106.138 102.757Z" fill="#0A0909"/>
<path d="M109.888 105.37C109.787 105.37 109.709 105.343 109.654 105.288C109.599 105.233 109.571 105.152 109.571 105.047V104.311H107.652C107.551 104.311 107.468 104.288 107.404 104.242C107.344 104.196 107.314 104.125 107.314 104.029C107.314 103.974 107.328 103.917 107.356 103.857C107.383 103.797 107.431 103.717 107.5 103.616L109.55 100.639C109.601 100.57 109.654 100.517 109.709 100.48C109.769 100.444 109.835 100.425 109.909 100.425C109.992 100.425 110.061 100.453 110.116 100.508C110.176 100.558 110.206 100.639 110.206 100.749V103.768H110.675C110.776 103.768 110.852 103.791 110.903 103.836C110.953 103.882 110.979 103.949 110.979 104.036C110.979 104.128 110.953 104.196 110.903 104.242C110.852 104.288 110.776 104.311 110.675 104.311H110.206V105.047C110.206 105.152 110.178 105.233 110.123 105.288C110.068 105.343 109.99 105.37 109.888 105.37ZM109.571 103.768V101.223H109.743L107.88 103.94V103.768H109.571Z" fill="#0A0909"/>
<path d="M113.378 105.384C113.12 105.384 112.86 105.347 112.598 105.274C112.34 105.196 112.106 105.079 111.894 104.923C111.834 104.882 111.793 104.834 111.77 104.779C111.751 104.719 111.749 104.662 111.763 104.607C111.777 104.552 111.804 104.506 111.846 104.469C111.887 104.428 111.935 104.405 111.991 104.4C112.05 104.396 112.113 104.414 112.177 104.455C112.361 104.584 112.552 104.68 112.75 104.744C112.948 104.804 113.155 104.834 113.371 104.834C113.587 104.834 113.773 104.792 113.93 104.71C114.086 104.627 114.206 104.513 114.289 104.366C114.376 104.219 114.42 104.047 114.42 103.85C114.42 103.548 114.33 103.3 114.151 103.107C113.971 102.915 113.727 102.819 113.419 102.819C113.231 102.819 113.056 102.853 112.895 102.922C112.738 102.986 112.591 103.096 112.453 103.252C112.421 103.289 112.379 103.321 112.329 103.348C112.283 103.376 112.23 103.389 112.17 103.389C112.083 103.389 112.016 103.367 111.97 103.321C111.924 103.27 111.901 103.204 111.901 103.121V100.762C111.901 100.671 111.926 100.6 111.977 100.549C112.027 100.499 112.099 100.474 112.191 100.474H114.517C114.609 100.474 114.68 100.496 114.73 100.542C114.781 100.588 114.806 100.655 114.806 100.742C114.806 100.829 114.781 100.898 114.73 100.948C114.68 100.994 114.609 101.017 114.517 101.017H112.529V102.853H112.349C112.474 102.67 112.639 102.528 112.846 102.427C113.058 102.326 113.29 102.275 113.543 102.275C113.852 102.275 114.116 102.342 114.337 102.475C114.563 102.603 114.737 102.784 114.862 103.018C114.986 103.247 115.048 103.516 115.048 103.823C115.048 104.125 114.979 104.396 114.841 104.634C114.707 104.868 114.517 105.051 114.268 105.184C114.02 105.317 113.723 105.384 113.378 105.384Z" fill="#0A0909"/>
<path opacity="0.3" d="M91 126.003C91 120.59 95.3876 116.203 100.8 116.203H249.2C254.612 116.203 259 120.59 259 126.003C259 131.415 254.612 135.803 249.2 135.803H100.8C95.3876 135.803 91 131.415 91 126.003Z" fill="#D3D8EB"/>
<path d="M134.368 129.003L132.972 124.421H133.711L134.702 127.929H134.749L135.728 124.421H136.479L137.446 127.917H137.494L138.484 124.421H139.224L137.828 129.003H137.136L136.133 125.483H136.062L135.06 129.003H134.368ZM141.193 129.003L139.797 124.421H140.536L141.527 127.929H141.574L142.553 124.421H143.304L144.271 127.917H144.319L145.309 124.421H146.049L144.653 129.003H143.961L142.958 125.483H142.887L141.885 129.003H141.193ZM148.018 129.003L146.622 124.421H147.361L148.352 127.929H148.399L149.378 124.421H150.129L151.096 127.917H151.144L152.134 124.421H152.874L151.478 129.003H150.786L149.783 125.483H149.712L148.71 129.003H148.018ZM153.694 129.051C153.547 129.051 153.421 128.998 153.315 128.893C153.21 128.787 153.157 128.661 153.157 128.514C153.157 128.367 153.21 128.24 153.315 128.135C153.421 128.029 153.547 127.977 153.694 127.977C153.841 127.977 153.968 128.029 154.073 128.135C154.178 128.24 154.231 128.367 154.231 128.514C154.231 128.611 154.206 128.701 154.156 128.782C154.109 128.864 154.044 128.929 153.963 128.979C153.883 129.027 153.794 129.051 153.694 129.051ZM155.494 129.003V124.421H156.174V125.137H156.234C156.33 124.892 156.484 124.703 156.696 124.567C156.909 124.43 157.165 124.361 157.463 124.361C157.765 124.361 158.017 124.43 158.218 124.567C158.421 124.703 158.579 124.892 158.692 125.137H158.74C158.857 124.9 159.033 124.712 159.268 124.573C159.502 124.432 159.784 124.361 160.112 124.361C160.522 124.361 160.857 124.49 161.117 124.746C161.378 125.001 161.508 125.398 161.508 125.936V129.003H160.804V125.936C160.804 125.598 160.712 125.357 160.527 125.212C160.342 125.066 160.124 124.994 159.873 124.994C159.551 124.994 159.302 125.091 159.125 125.286C158.948 125.479 158.859 125.724 158.859 126.02V129.003H158.143V125.865C158.143 125.604 158.059 125.395 157.89 125.235C157.721 125.074 157.503 124.994 157.236 124.994C157.053 124.994 156.882 125.043 156.723 125.14C156.566 125.237 156.439 125.373 156.341 125.546C156.246 125.717 156.198 125.915 156.198 126.139V129.003H155.494ZM163.084 130.721C162.965 130.721 162.859 130.711 162.765 130.691C162.672 130.673 162.607 130.655 162.571 130.638L162.75 130.017C162.921 130.061 163.073 130.077 163.204 130.065C163.335 130.053 163.451 129.994 163.553 129.889C163.656 129.785 163.751 129.617 163.836 129.385L163.967 129.027L162.273 124.421H163.037L164.301 128.072H164.349L165.614 124.421H166.378L164.433 129.671C164.345 129.908 164.237 130.104 164.108 130.259C163.978 130.416 163.828 130.532 163.657 130.608C163.488 130.683 163.297 130.721 163.084 130.721ZM168.345 129.003L166.949 124.421H167.689L168.679 127.929H168.727L169.705 124.421H170.457L171.423 127.917H171.471L172.461 124.421H173.201L171.805 129.003H171.113L170.111 125.483H170.039L169.037 129.003H168.345ZM175.897 129.098C175.456 129.098 175.075 129.001 174.755 128.806C174.436 128.609 174.191 128.335 174.018 127.983C173.847 127.629 173.761 127.217 173.761 126.748C173.761 126.278 173.847 125.865 174.018 125.507C174.191 125.147 174.431 124.867 174.74 124.666C175.05 124.463 175.412 124.361 175.825 124.361C176.064 124.361 176.3 124.401 176.532 124.481C176.765 124.56 176.977 124.69 177.168 124.869C177.359 125.046 177.511 125.28 177.624 125.573C177.737 125.865 177.794 126.225 177.794 126.652V126.951H174.262V126.342H177.078C177.078 126.084 177.027 125.853 176.923 125.65C176.822 125.447 176.677 125.287 176.488 125.17C176.301 125.053 176.08 124.994 175.825 124.994C175.545 124.994 175.302 125.063 175.098 125.203C174.895 125.34 174.739 125.519 174.629 125.74C174.52 125.96 174.465 126.197 174.465 126.45V126.855C174.465 127.201 174.525 127.495 174.644 127.735C174.765 127.974 174.933 128.156 175.148 128.281C175.363 128.404 175.613 128.466 175.897 128.466C176.082 128.466 176.249 128.44 176.398 128.388C176.549 128.335 176.68 128.255 176.789 128.15C176.898 128.042 176.983 127.909 177.042 127.75L177.723 127.941C177.651 128.172 177.531 128.375 177.362 128.55C177.193 128.723 176.984 128.858 176.735 128.955C176.487 129.051 176.207 129.098 175.897 129.098ZM178.96 129.003V122.894H179.664V125.149H179.724C179.776 125.069 179.847 124.968 179.939 124.845C180.032 124.719 180.166 124.608 180.339 124.511C180.514 124.411 180.75 124.361 181.049 124.361C181.434 124.361 181.774 124.458 182.069 124.651C182.363 124.844 182.593 125.117 182.758 125.471C182.923 125.825 183.005 126.243 183.005 126.724C183.005 127.209 182.923 127.63 182.758 127.986C182.593 128.34 182.364 128.614 182.072 128.809C181.779 129.002 181.442 129.098 181.06 129.098C180.766 129.098 180.531 129.05 180.354 128.952C180.177 128.853 180.04 128.74 179.945 128.615C179.849 128.488 179.776 128.382 179.724 128.299H179.641V129.003H178.96ZM179.653 126.712C179.653 127.058 179.703 127.363 179.805 127.628C179.906 127.89 180.054 128.096 180.249 128.245C180.444 128.392 180.683 128.466 180.965 128.466C181.259 128.466 181.505 128.388 181.702 128.233C181.901 128.076 182.05 127.865 182.149 127.601C182.251 127.334 182.301 127.038 182.301 126.712C182.301 126.39 182.252 126.1 182.152 125.841C182.055 125.58 181.907 125.375 181.708 125.224C181.511 125.07 181.263 124.994 180.965 124.994C180.679 124.994 180.438 125.066 180.243 125.212C180.048 125.355 179.901 125.556 179.802 125.814C179.702 126.071 179.653 126.37 179.653 126.712ZM187.328 125.447L186.695 125.626C186.656 125.521 186.597 125.418 186.519 125.319C186.444 125.218 186.34 125.134 186.209 125.068C186.078 125.003 185.91 124.97 185.705 124.97C185.425 124.97 185.191 125.035 185.004 125.164C184.819 125.291 184.727 125.453 184.727 125.65C184.727 125.825 184.79 125.963 184.917 126.065C185.045 126.166 185.244 126.251 185.514 126.318L186.194 126.485C186.604 126.585 186.909 126.737 187.11 126.942C187.311 127.145 187.411 127.406 187.411 127.726C187.411 127.989 187.336 128.223 187.184 128.43C187.035 128.637 186.827 128.8 186.558 128.919C186.29 129.039 185.977 129.098 185.621 129.098C185.154 129.098 184.767 128.997 184.461 128.794C184.155 128.591 183.961 128.295 183.879 127.905L184.548 127.738C184.611 127.985 184.731 128.17 184.908 128.293C185.087 128.416 185.321 128.478 185.609 128.478C185.938 128.478 186.198 128.408 186.391 128.269C186.586 128.128 186.683 127.959 186.683 127.762C186.683 127.603 186.628 127.47 186.516 127.362C186.405 127.253 186.234 127.171 186.003 127.118L185.24 126.939C184.82 126.839 184.512 126.685 184.315 126.476C184.12 126.266 184.023 126.002 184.023 125.686C184.023 125.427 184.095 125.199 184.24 125C184.387 124.801 184.587 124.645 184.84 124.531C185.094 124.418 185.383 124.361 185.705 124.361C186.158 124.361 186.514 124.461 186.773 124.66C187.033 124.859 187.218 125.121 187.328 125.447ZM188.471 129.003V124.421H189.175V129.003H188.471ZM188.829 123.657C188.692 123.657 188.573 123.611 188.474 123.517C188.376 123.424 188.328 123.311 188.328 123.18C188.328 123.049 188.376 122.937 188.474 122.843C188.573 122.75 188.692 122.703 188.829 122.703C188.966 122.703 189.083 122.75 189.181 122.843C189.28 122.937 189.33 123.049 189.33 123.18C189.33 123.311 189.28 123.424 189.181 123.517C189.083 123.611 188.966 123.657 188.829 123.657ZM192.457 124.421V125.018H190.082V124.421H192.457ZM190.774 123.323H191.478V127.69C191.478 127.889 191.507 128.038 191.565 128.138C191.625 128.235 191.7 128.301 191.792 128.335C191.885 128.367 191.984 128.382 192.087 128.382C192.165 128.382 192.228 128.378 192.278 128.371C192.328 128.361 192.367 128.353 192.397 128.347L192.54 128.979C192.493 128.997 192.426 129.015 192.341 129.033C192.255 129.053 192.147 129.063 192.015 129.063C191.817 129.063 191.622 129.02 191.431 128.934C191.242 128.849 191.085 128.719 190.959 128.544C190.836 128.369 190.774 128.148 190.774 127.881V123.323ZM195.388 129.098C194.946 129.098 194.565 129.001 194.245 128.806C193.927 128.609 193.681 128.335 193.508 127.983C193.337 127.629 193.252 127.217 193.252 126.748C193.252 126.278 193.337 125.865 193.508 125.507C193.681 125.147 193.922 124.867 194.23 124.666C194.54 124.463 194.902 124.361 195.316 124.361C195.555 124.361 195.79 124.401 196.023 124.481C196.256 124.56 196.467 124.69 196.658 124.869C196.849 125.046 197.001 125.28 197.115 125.573C197.228 125.865 197.285 126.225 197.285 126.652V126.951H193.753V126.342H196.569C196.569 126.084 196.517 125.853 196.414 125.65C196.312 125.447 196.167 125.287 195.978 125.17C195.791 125.053 195.571 124.994 195.316 124.994C195.036 124.994 194.793 125.063 194.588 125.203C194.385 125.34 194.229 125.519 194.12 125.74C194.01 125.96 193.956 126.197 193.956 126.45V126.855C193.956 127.201 194.015 127.495 194.135 127.735C194.256 127.974 194.424 128.156 194.639 128.281C194.854 128.404 195.103 128.466 195.388 128.466C195.573 128.466 195.74 128.44 195.889 128.388C196.04 128.335 196.17 128.255 196.28 128.15C196.389 128.042 196.473 127.909 196.533 127.75L197.213 127.941C197.142 128.172 197.021 128.375 196.852 128.55C196.683 128.723 196.474 128.858 196.226 128.955C195.977 129.051 195.698 129.098 195.388 129.098ZM198.869 129.051C198.722 129.051 198.595 128.998 198.49 128.893C198.384 128.787 198.332 128.661 198.332 128.514C198.332 128.367 198.384 128.24 198.49 128.135C198.595 128.029 198.722 127.977 198.869 127.977C199.016 127.977 199.142 128.029 199.248 128.135C199.353 128.24 199.406 128.367 199.406 128.514C199.406 128.611 199.381 128.701 199.331 128.782C199.283 128.864 199.219 128.929 199.137 128.979C199.058 129.027 198.968 129.051 198.869 129.051ZM202.53 129.098C202.101 129.098 201.731 128.997 201.421 128.794C201.11 128.591 200.872 128.312 200.705 127.956C200.538 127.6 200.454 127.193 200.454 126.736C200.454 126.271 200.54 125.86 200.711 125.504C200.884 125.146 201.124 124.867 201.433 124.666C201.743 124.463 202.105 124.361 202.518 124.361C202.841 124.361 203.131 124.421 203.389 124.54C203.648 124.66 203.86 124.827 204.025 125.042C204.19 125.256 204.292 125.507 204.332 125.793H203.628C203.574 125.584 203.455 125.4 203.27 125.238C203.087 125.075 202.841 124.994 202.53 124.994C202.256 124.994 202.015 125.065 201.808 125.209C201.604 125.35 201.444 125.55 201.328 125.808C201.215 126.065 201.158 126.366 201.158 126.712C201.158 127.066 201.214 127.374 201.325 127.637C201.439 127.899 201.598 128.103 201.802 128.248C202.009 128.393 202.252 128.466 202.53 128.466C202.713 128.466 202.879 128.434 203.028 128.371C203.178 128.307 203.304 128.215 203.407 128.096C203.511 127.977 203.584 127.834 203.628 127.667H204.332C204.292 127.937 204.194 128.181 204.037 128.397C203.882 128.612 203.676 128.783 203.419 128.91C203.165 129.036 202.868 129.098 202.53 129.098ZM207.222 129.098C206.809 129.098 206.446 129 206.134 128.803C205.823 128.606 205.581 128.331 205.406 127.977C205.233 127.623 205.146 127.209 205.146 126.736C205.146 126.259 205.233 125.842 205.406 125.486C205.581 125.13 205.823 124.854 206.134 124.657C206.446 124.46 206.809 124.361 207.222 124.361C207.636 124.361 207.998 124.46 208.308 124.657C208.62 124.854 208.863 125.13 209.036 125.486C209.211 125.842 209.299 126.259 209.299 126.736C209.299 127.209 209.211 127.623 209.036 127.977C208.863 128.331 208.62 128.606 208.308 128.803C207.998 129 207.636 129.098 207.222 129.098ZM207.222 128.466C207.537 128.466 207.795 128.385 207.998 128.224C208.201 128.063 208.351 127.852 208.448 127.589C208.546 127.327 208.595 127.042 208.595 126.736C208.595 126.43 208.546 126.144 208.448 125.88C208.351 125.615 208.201 125.402 207.998 125.238C207.795 125.075 207.537 124.994 207.222 124.994C206.908 124.994 206.65 125.075 206.447 125.238C206.244 125.402 206.094 125.615 205.996 125.88C205.899 126.144 205.85 126.43 205.85 126.736C205.85 127.042 205.899 127.327 205.996 127.589C206.094 127.852 206.244 128.063 206.447 128.224C206.65 128.385 206.908 128.466 207.222 128.466ZM210.373 129.003V124.421H211.053V125.137H211.113C211.208 124.892 211.363 124.703 211.575 124.567C211.788 124.43 212.044 124.361 212.342 124.361C212.644 124.361 212.896 124.43 213.097 124.567C213.3 124.703 213.458 124.892 213.571 125.137H213.619C213.736 124.9 213.912 124.712 214.147 124.573C214.381 124.432 214.663 124.361 214.991 124.361C215.4 124.361 215.736 124.49 215.996 124.746C216.257 125.001 216.387 125.398 216.387 125.936V129.003H215.683V125.936C215.683 125.598 215.59 125.357 215.405 125.212C215.221 125.066 215.003 124.994 214.752 124.994C214.43 124.994 214.18 125.091 214.003 125.286C213.826 125.479 213.738 125.724 213.738 126.02V129.003H213.022V125.865C213.022 125.604 212.938 125.395 212.769 125.235C212.6 125.074 212.382 124.994 212.115 124.994C211.932 124.994 211.761 125.043 211.602 125.14C211.445 125.237 211.318 125.373 211.22 125.546C211.125 125.717 211.077 125.915 211.077 126.139V129.003H210.373Z" fill="#0D0C0C"/>
<path d="M84 141.403H266V448.003C266 460.374 255.971 470.403 243.6 470.403H106.4C94.0288 470.403 84 460.374 84 448.003V141.403Z" fill="white"/>
<path d="M123.479 275.803H118.998V244.442H123.479V275.803ZM150.359 275.803H123.479V271.322H145.879V248.922H123.479V244.442H150.359V275.803ZM159.319 275.803H154.839V271.322H159.319V275.803ZM177.239 168.283H181.719V172.763H172.76V177.243H181.719V172.763H186.199V181.723H181.72V186.203H186.199V204.123H181.72V208.603H190.679V213.083H204.119V204.123H199.64V199.643H222.04V204.123H208.599V213.083H213.079V217.562H213.08V222.043H208.6V217.562H204.119V222.043H199.639V226.522H195.159V231.003H199.64V226.522H204.119V222.043H208.6V226.522H213.08V222.043H217.559V217.562H222.039V222.043H217.561V226.523H217.56V231.003H213.079V239.963H217.559V235.482H222.039V239.963H217.561V244.442H230.999V248.923H231V275.803H226.52V262.363H222.04V266.843H217.56V271.322H226.519V275.803H204.119V271.322H199.64V266.843H213.08V262.362H208.6V239.963H195.159V253.403H208.599V257.883H204.119V262.363H199.64V266.844H195.16V271.322H186.2V266.843H181.719V271.322H177.239V275.803H172.759V266.843H177.239V262.363H172.759V257.883H186.199V262.363H190.679V266.843H195.159V262.362H190.679V257.884H186.2V253.403H190.679V244.443H186.2V239.963H190.679V231.003H181.719V235.482H177.239V239.963H172.759V231.003H177.239V226.522H172.759V222.043H181.719V226.522H190.679V222.043H186.2V217.562H181.719V208.603H168.28V204.123H172.759V199.644H168.28V195.163H172.759V190.683H177.239V195.163H172.761V199.643H181.719V190.684H177.239V186.203H168.28V172.763H159.319V181.723H168.279V204.123H159.319V199.643H163.799V186.203H159.319V199.643H154.839V172.763H159.319V168.283H172.759V163.803H177.239V168.283ZM186.199 275.803H181.719V271.322H186.199V275.803ZM177.239 248.923H172.761V253.403H172.759V257.883H159.319V262.363H163.799V271.323H159.319V266.843H154.839V253.403H168.28V248.923H163.799V253.402H154.839V248.923H159.319V244.442H177.239V248.923ZM141.399 266.843H127.959V253.402H141.399V266.843ZM213.08 257.883H217.559V253.403H213.08V257.883ZM217.561 253.403H226.519V257.883H226.52V248.923H217.561V253.403ZM186.199 253.403H181.719V248.923H186.199V253.403ZM204.12 248.923H199.64V244.442H204.12V248.923ZM213.08 248.923H217.559V244.443H213.08V248.923ZM159.319 244.443H154.839V239.963H159.319V244.443ZM123.479 239.963H118.998V222.043H123.479V239.963ZM132.439 239.963H127.959V231.003H132.439V239.963ZM150.359 239.963H141.399V235.482H150.359V239.963ZM186.199 239.963H181.719V235.482H186.199V239.963ZM150.359 204.123H145.879V208.603H141.398V213.083H136.918V217.562H154.838V222.043H159.319V226.522H163.798V231.003H163.799V235.482H154.839V231.003H141.398V235.483H136.918V226.522H141.399V222.043H136.918V226.522H132.438V208.603H127.959V222.043H123.479V204.123H127.959V199.643H150.359V204.123ZM226.521 208.603H231V222.043H226.521V226.522H231V235.483H226.52V231.003H222.04V217.562H226.52V213.083H222.04V204.123H226.521V208.603ZM145.88 226.522H150.359V222.043H145.88V226.522ZM177.24 217.562H172.759V222.043H163.799V217.562H168.28V213.083H177.24V217.562ZM190.681 222.043H195.159V217.562H190.681V222.043ZM159.319 213.083H163.799V217.562H154.839V213.49H145.879V209.01H159.319V213.083ZM217.561 213.083H213.08V208.603H217.561V213.083ZM195.159 199.643H190.681V204.123H199.639V208.603H190.679V204.123H186.2V195.163H190.679V190.684H186.2V186.203H195.159V199.643ZM123.479 204.123H118.998V199.643H123.479V204.123ZM123.479 195.163H118.998V163.803H123.479V195.163ZM150.359 195.163H123.479V190.683H145.879V168.283H123.479V163.803H150.359V195.163ZM226.52 168.283H204.12V190.683H226.52V195.163H199.64V163.803H226.52V168.283ZM231.001 195.163H226.521V163.803H231.001V195.163ZM141.399 186.203H127.959V172.763H141.399V186.203ZM222.04 186.203H208.6V172.763H222.04V186.203ZM195.159 168.283H190.681V172.763H195.159V177.243H190.679V172.764H186.2V168.283H190.679V163.803H195.159V168.283Z" fill="#0A0909"/>
<path d="M257.85 59.9371C257.64 60.1255 257.467 60.3511 257.339 60.6025C256.818 60.2837 256.193 60.1846 255.599 60.3271C255.006 60.4696 254.493 60.8419 254.174 61.3622C254.138 61.422 254.104 61.4823 254.073 61.5446C253.542 61.2437 252.914 61.1661 252.325 61.3287C251.737 61.4913 251.237 61.881 250.936 62.4119L249.305 60.5987C248.896 60.148 248.324 59.8779 247.716 59.8473C247.108 59.8168 246.512 60.0283 246.06 60.4356C245.607 60.8429 245.334 61.4129 245.3 62.021C245.267 62.6291 245.475 63.2257 245.88 63.6805L252.543 71.0849L250.982 70.6956L250.95 70.6905C250.258 70.5792 249.55 70.7395 248.974 71.1378C248.398 71.5361 247.998 72.1416 247.858 72.8279C247.718 73.5141 247.848 74.228 248.222 74.8203C248.596 75.4126 249.184 75.8375 249.864 76.0063L257.072 78.0232L257.099 78.0302C257.974 78.2414 258.886 78.2364 259.758 78.0154C260.63 77.7945 261.435 77.3644 262.104 76.7622L265.449 73.7528C266.61 72.7063 267.308 71.2422 267.39 69.6816C267.473 68.121 266.933 66.5913 265.889 65.4283L261.104 60.1088C260.695 59.655 260.122 59.3821 259.512 59.3499C258.902 59.3177 258.304 59.5289 257.85 59.9371Z" fill="white"/>
<path d="M257.849 59.9385C257.639 60.1273 257.466 60.3531 257.338 60.6046C257.08 60.4466 256.794 60.341 256.496 60.2937C256.197 60.2464 255.892 60.2584 255.598 60.3289C255.304 60.3995 255.027 60.5272 254.783 60.7049C254.538 60.8826 254.331 61.1066 254.173 61.3643C254.137 61.4235 254.103 61.4838 254.073 61.5461C253.81 61.397 253.52 61.3012 253.22 61.2642C252.92 61.2271 252.616 61.2494 252.325 61.33C252.033 61.4105 251.761 61.5477 251.523 61.7336C251.284 61.9194 251.085 62.1505 250.936 62.4134L249.305 60.6002C249.103 60.3735 248.859 60.189 248.585 60.0572C248.312 59.9254 248.015 59.8489 247.712 59.8322C247.409 59.8154 247.106 59.8587 246.82 59.9596C246.533 60.0604 246.27 60.2168 246.044 60.4198C245.818 60.6229 245.635 60.8684 245.505 61.1425C245.374 61.4166 245.299 61.7137 245.284 62.0168C245.269 62.32 245.314 62.6231 245.416 62.9089C245.518 63.1946 245.676 63.4573 245.88 63.6819L252.542 71.0864L250.981 70.697L250.949 70.6914C250.257 70.5801 249.549 70.7403 248.973 71.1386C248.397 71.5369 247.997 72.1425 247.857 72.8287C247.717 73.515 247.847 74.2289 248.221 74.8212C248.595 75.4135 249.183 75.8384 249.863 76.0071L257.071 78.0247L257.098 78.0316C257.973 78.2426 258.885 78.2375 259.757 78.0167C260.629 77.7959 261.434 77.366 262.103 76.7643L265.448 73.7543C266.609 72.7077 267.307 71.2436 267.389 69.683C267.472 68.1225 266.932 66.5929 265.888 65.4297L261.102 60.1096C260.693 59.6561 260.121 59.3834 259.511 59.3513C258.901 59.3193 258.303 59.5304 257.849 59.9385ZM264.719 66.4832C265.484 67.3355 265.879 68.4565 265.819 69.6002C265.758 70.744 265.247 71.817 264.396 72.5838L261.051 75.5933C260.574 76.023 260 76.3306 259.379 76.4897C258.757 76.6488 258.105 76.6545 257.481 76.5065L250.275 74.4876L250.248 74.4807C249.963 74.4121 249.716 74.2369 249.557 73.9913C249.398 73.7457 249.34 73.4485 249.394 73.161C249.448 72.8735 249.61 72.6177 249.847 72.4465C250.084 72.2753 250.378 72.2018 250.668 72.2411L257.162 73.865L247.051 62.6279C246.987 62.5567 246.937 62.4736 246.905 62.3833C246.873 62.293 246.859 62.1973 246.865 62.1017C246.87 62.006 246.893 61.9123 246.935 61.8259C246.976 61.7395 247.034 61.662 247.105 61.598C247.176 61.5339 247.259 61.4845 247.35 61.4526C247.44 61.4207 247.536 61.4068 247.631 61.4119C247.727 61.4169 247.821 61.4408 247.907 61.482C247.993 61.5233 248.071 61.5812 248.135 61.6524L253.396 67.5014L254.564 66.4499L252.396 64.0392C252.332 63.968 252.282 63.8849 252.251 63.7946C252.219 63.7043 252.205 63.6086 252.21 63.513C252.215 63.4173 252.239 63.3236 252.28 63.2372C252.321 63.1508 252.379 63.0734 252.45 63.0093C252.522 62.9453 252.605 62.8959 252.695 62.8639C252.785 62.832 252.881 62.8182 252.977 62.8232C253.072 62.8283 253.166 62.8521 253.252 62.8934C253.339 62.9346 253.416 62.9925 253.48 63.0637L255.649 65.4744L256.818 64.4228L255.592 63.0599C255.527 62.9887 255.478 62.9056 255.446 62.8153C255.414 62.7251 255.4 62.6294 255.405 62.5337C255.41 62.4381 255.434 62.3444 255.476 62.258C255.517 62.1716 255.575 62.0941 255.646 62.0301C255.717 61.966 255.8 61.9166 255.891 61.8847C255.981 61.8527 256.077 61.8389 256.172 61.844C256.268 61.849 256.361 61.8729 256.448 61.9141C256.534 61.9554 256.612 62.0133 256.676 62.0845L257.902 63.4474L259.071 62.3958L258.844 62.1442C258.714 62.0004 258.647 61.8111 258.658 61.618C258.668 61.4249 258.754 61.2437 258.898 61.1143C259.042 60.985 259.231 60.918 259.424 60.9282C259.617 60.9384 259.799 61.025 259.928 61.1687L264.714 66.4889L264.719 66.4832Z" fill="#0A0909"/>
<path d="M244.072 56.9656L242.902 58.019L244.36 59.6378L245.53 58.5843L244.072 56.9656Z" fill="#0A0909"/>
<path d="M246.517 56L246.504 58.1782L248.078 58.1877L248.091 56.0094L246.517 56Z" fill="#0A0909"/>
<path d="M250.54 56.9537L249.062 58.5552L250.22 59.6226L251.697 58.0211L250.54 56.9537Z" fill="#0A0909"/>
<path d="M241.656 60.3983L241.5 61.9648L243.667 62.1805L243.823 60.614L241.656 60.3983Z" fill="#0A0909"/>
<path d="M243.924 63.2203L242.176 64.5205L243.116 65.7844L244.864 64.4842L243.924 63.2203Z" fill="#0A0909"/>
</g>
<defs>
<clipPath id="clip0_35554_318010">
<rect width="196" height="165.2" fill="white" transform="translate(77 44.7998)"/>
</clipPath>
<clipPath id="clip1_35554_318010">
<rect width="11.2013" height="11.2013" fill="white" transform="translate(108.996 53.2007)"/>
</clipPath>
</defs>
</svg>
