<svg width="350" height="210" viewBox="0 0 350 210" fill="none" xmlns="http://www.w3.org/2000/svg">
<rect width="350" height="210" fill="#F5F6FB"/>
<path d="M28.001 29.7422H114.811C117.71 29.7422 120.062 32.0934 120.062 34.9932V57.3955C120.062 60.2953 117.71 62.6465 114.811 62.6465H28.001C25.1012 62.6465 22.75 60.2953 22.75 57.3955V34.9932C22.75 32.0934 25.1012 29.7422 28.001 29.7422Z" fill="white"/>
<path d="M28.001 29.7422H114.811C117.71 29.7422 120.062 32.0934 120.062 34.9932V57.3955C120.062 60.2953 117.71 62.6465 114.811 62.6465H28.001C25.1012 62.6465 22.75 60.2953 22.75 57.3955V34.9932C22.75 32.0934 25.1012 29.7422 28.001 29.7422Z" stroke="#D3D8EB" stroke-width="0.700078"/>
<rect x="32.7625" y="37.6033" width="24.0827" height="17.1827" rx="2.52028" stroke="#01A56D" stroke-width="0.560063"/>
<path d="M54.3252 37.3237C55.8715 37.3239 57.1249 38.5772 57.125 40.1235V40.2808H32.4824V40.1235C32.4826 38.5771 33.7367 37.3237 35.2832 37.3237H54.3252ZM35.9316 38.3091C35.6596 38.3093 35.4395 38.5302 35.4395 38.8022C35.4396 39.0742 35.6597 39.2942 35.9316 39.2944C36.2038 39.2944 36.4247 39.0743 36.4248 38.8022C36.4248 38.53 36.2038 38.3091 35.9316 38.3091ZM37.9033 38.3091C37.6312 38.3091 37.4102 38.5301 37.4102 38.8022C37.4103 39.0743 37.6312 39.2944 37.9033 39.2944C38.1754 39.2944 38.3964 39.0743 38.3965 38.8022C38.3965 38.53 38.1755 38.3091 37.9033 38.3091ZM39.875 38.3091C39.6028 38.3091 39.3818 38.53 39.3818 38.8022C39.3819 39.0743 39.6029 39.2944 39.875 39.2944C40.1471 39.2944 40.3681 39.0743 40.3682 38.8022C40.3682 38.5301 40.1471 38.3092 39.875 38.3091ZM50.2246 38.3091C49.9524 38.3091 49.7314 38.53 49.7314 38.8022C49.7316 39.0743 49.9525 39.2944 50.2246 39.2944H54.167C54.4391 39.2944 54.66 39.0743 54.6602 38.8022C54.6602 38.53 54.4392 38.3091 54.167 38.3091H50.2246Z" fill="#01A56D"/>
<rect x="50.9168" y="44.0105" width="3.54706" height="6.01134" rx="0.840094" fill="#01A56D" stroke="#01A56D" stroke-width="0.560063"/>
<rect x="45.5769" y="44.0105" width="3.54706" height="6.01134" rx="0.840094" fill="#01A56D" stroke="#01A56D" stroke-width="0.560063"/>
<rect x="35.4395" y="44.7163" width="6.89997" height="0.98571" rx="0.492855" fill="#01A56D"/>
<rect x="35.4395" y="47.1807" width="4.92855" height="0.98571" rx="0.492855" fill="#01A56D"/>
<g clip-path="url(#clip0_35554_318198)">
<path d="M46.7077 54.9876L45.3345 53.6144L46.3141 53.0486C46.3907 53.0044 46.4352 52.9204 46.4289 52.8322C46.4225 52.744 46.3663 52.6672 46.2842 52.6345L41.9158 50.8919C41.8302 50.8577 41.7324 50.8779 41.6672 50.9431C41.602 51.0083 41.5819 51.1061 41.616 51.1917L43.3583 55.5606C43.3911 55.6427 43.4679 55.6989 43.556 55.7053C43.6442 55.7117 43.7283 55.6671 43.7725 55.5905L44.3383 54.6109L45.7113 55.9841C45.7546 56.0274 45.8133 56.0517 45.8745 56.0517C45.9357 56.0517 45.9944 56.0274 46.0376 55.9841L46.7077 55.314C46.7978 55.2238 46.7978 55.0778 46.7077 54.9876Z" fill="#01A56D"/>
<path d="M40.8881 49.8385C40.7979 49.7485 40.6519 49.7485 40.5617 49.8385C40.4716 49.9287 40.4716 50.0748 40.5617 50.1649L41.0744 50.6776C41.1195 50.7226 41.1785 50.7452 41.2376 50.7452C41.2966 50.7452 41.3557 50.7226 41.4007 50.6776C41.4908 50.5875 41.4908 50.4414 41.4007 50.3513L40.8881 49.8385Z" fill="#01A56D"/>
<path d="M41.0616 51.4334C41.0616 51.306 40.9583 51.2026 40.8308 51.2026H40.1058C39.9783 51.2026 39.875 51.306 39.875 51.4334C39.875 51.5608 39.9783 51.6641 40.1058 51.6641H40.8308C40.9583 51.6641 41.0616 51.5608 41.0616 51.4334Z" fill="#01A56D"/>
<path d="M40.9671 52.1457L40.4543 52.6584C40.3642 52.7485 40.3642 52.8947 40.4543 52.9847C40.4994 53.0298 40.5584 53.0523 40.6174 53.0523C40.6765 53.0523 40.7356 53.0298 40.7806 52.9847L41.2934 52.472C41.3835 52.3819 41.3835 52.2358 41.2934 52.1457C41.2033 52.0556 41.0572 52.0556 40.9671 52.1457Z" fill="#01A56D"/>
<path d="M42.1565 50.3385C42.284 50.3385 42.3873 50.2352 42.3873 50.1077V49.3826C42.3873 49.2552 42.284 49.1519 42.1565 49.1519C42.0291 49.1519 41.9258 49.2551 41.9258 49.3826V50.1078C41.9258 50.2352 42.0291 50.3385 42.1565 50.3385Z" fill="#01A56D"/>
<path d="M43.0315 50.6387C43.0906 50.6387 43.1496 50.6162 43.1947 50.5712L43.7074 50.0584C43.7975 49.9683 43.7975 49.8222 43.7074 49.7321C43.6173 49.642 43.4712 49.642 43.3811 49.7321L42.8684 50.2448C42.7783 50.335 42.7783 50.4811 42.8684 50.5712C42.9134 50.6162 42.9725 50.6387 43.0315 50.6387Z" fill="#01A56D"/>
</g>
<path d="M64.5239 42.2129H65.3388L66.5233 47.2114L67.8758 42.2129H68.7411L70.0769 47.2114L71.3034 42.2129H72.0931L70.4969 48.1943H69.6652L68.2875 43.1874L66.8929 48.1943H66.0612L64.5239 42.2129ZM75.9503 46.825C75.7319 47.8331 75.1018 48.3372 74.0601 48.3372C73.4216 48.3372 72.9176 48.1439 72.5563 47.7407C72.1951 47.3458 72.0187 46.7914 72.0187 46.0857C72.0187 45.3884 72.2035 44.8256 72.5731 44.3887C72.9428 43.9519 73.43 43.7334 74.0349 43.7334C74.6986 43.7334 75.1942 43.9603 75.5135 44.4139C75.8327 44.8676 76.0007 45.4304 76.0007 46.1193V46.2201H72.7412L72.7328 46.2705C72.7328 46.7326 72.8504 47.0938 73.094 47.3542C73.3292 47.6231 73.6653 47.7491 74.0853 47.7491C74.3961 47.7491 74.6398 47.6819 74.8246 47.5307C75.0094 47.3878 75.1522 47.1526 75.253 46.825H75.9503ZM75.2614 45.6405C75.2278 45.2288 75.1018 44.9096 74.8834 44.6743C74.665 44.4391 74.3709 44.3215 74.0181 44.3215C73.6653 44.3215 73.3796 44.4391 73.1528 44.6743C72.9176 44.9096 72.7832 45.2372 72.7412 45.6405H75.2614ZM77.4634 42.2129V44.4559C77.7742 43.9855 78.2531 43.7418 78.9 43.7418C79.488 43.7418 79.9669 43.9519 80.3197 44.3635C80.6726 44.7752 80.8574 45.3212 80.8574 46.0101C80.8574 46.7158 80.6726 47.2702 80.3113 47.6903C79.9417 48.1103 79.4628 48.3204 78.858 48.3204C78.1691 48.3204 77.6902 48.0683 77.4214 47.5643V48.1943H76.7493V42.2129H77.4634ZM78.7908 44.3467C78.3287 44.3467 77.9843 44.5147 77.7658 44.8424C77.5474 45.1784 77.4382 45.5816 77.4382 46.0605C77.4382 46.573 77.5558 46.9762 77.7994 47.2786C78.0431 47.5811 78.3707 47.7239 78.7908 47.7239C79.1856 47.7239 79.5048 47.5727 79.7485 47.2618C79.9921 46.951 80.1181 46.5394 80.1181 46.0185C80.1181 45.5144 79.9921 45.1028 79.7569 44.8004C79.5132 44.4979 79.194 44.3467 78.7908 44.3467ZM84.9551 45.1196H84.2411C84.1907 44.5987 83.8378 44.3299 83.1825 44.3299C82.9053 44.3299 82.6869 44.3887 82.5357 44.4895C82.3761 44.5987 82.3004 44.7416 82.3004 44.918C82.3004 44.9684 82.3004 45.0188 82.3172 45.0692C82.3256 45.1196 82.3425 45.1616 82.3761 45.1952C82.4097 45.2288 82.4349 45.2624 82.4601 45.2876C82.4853 45.3212 82.5273 45.3464 82.5861 45.3716C82.6449 45.3968 82.6869 45.4136 82.7205 45.4304C82.7541 45.4472 82.8045 45.4724 82.8885 45.4892C82.9725 45.506 83.0313 45.5228 83.0649 45.5312C83.0985 45.5396 83.1573 45.5564 83.2582 45.5732C83.359 45.5984 83.4178 45.6152 83.4514 45.6152C83.653 45.6657 83.8126 45.6993 83.9134 45.7245C84.0142 45.7581 84.1571 45.8085 84.3419 45.8841C84.5267 45.9597 84.6611 46.0353 84.7619 46.1193C84.8543 46.2033 84.9383 46.3125 85.0139 46.4553C85.0896 46.5982 85.1316 46.7578 85.1316 46.9342C85.1316 47.3542 84.9635 47.6987 84.6359 47.9507C84.3083 48.2027 83.8714 48.3288 83.3338 48.3288C82.7457 48.3288 82.292 48.2027 81.9728 47.9423C81.6536 47.6903 81.4856 47.3122 81.4688 46.825H82.1744C82.208 47.4383 82.6029 47.7407 83.3506 47.7407C83.6698 47.7407 83.9218 47.6819 84.115 47.5475C84.3083 47.413 84.4091 47.2366 84.4091 47.0182C84.4091 46.8754 84.3587 46.7578 84.2579 46.657C84.1571 46.5646 84.0394 46.4973 83.9218 46.4553C83.7958 46.4133 83.6194 46.3629 83.3926 46.3041C83.359 46.3041 83.3338 46.2957 83.317 46.2873C83.2666 46.2789 83.1573 46.2537 82.9893 46.2201C82.8213 46.1865 82.7037 46.1529 82.6365 46.1277C82.5609 46.1109 82.4517 46.0773 82.3172 46.0269C82.1828 45.9765 82.082 45.9261 82.0148 45.8757C81.9476 45.8253 81.872 45.7581 81.788 45.6741C81.704 45.59 81.6536 45.4976 81.62 45.3884C81.5864 45.2792 81.5696 45.1532 81.5696 45.0104C81.5696 44.6239 81.7124 44.3131 82.0148 44.0779C82.3172 43.8511 82.7205 43.7334 83.2245 43.7334C83.7286 43.7334 84.1487 43.8595 84.4679 44.0947C84.7871 44.3383 84.9551 44.6827 84.9551 45.1196ZM86.6941 42.2129V43.0866H85.9717V42.2129H86.6941ZM86.6941 43.8595V48.1943H85.9717V43.8595H86.6941ZM89.657 43.8595V44.4475H88.7917V46.9762C88.7917 47.119 88.7917 47.2114 88.7917 47.2534C88.7917 47.3038 88.8085 47.3626 88.8421 47.4383C88.8673 47.5139 88.9177 47.5643 88.9849 47.5811C89.0521 47.6063 89.1445 47.6147 89.2705 47.6147C89.3713 47.6147 89.5058 47.6063 89.657 47.5895V48.2027C89.4554 48.2279 89.2705 48.2363 89.1109 48.2363C88.9093 48.2363 88.7413 48.2195 88.6069 48.1691C88.4724 48.1271 88.3632 48.0767 88.296 48.0179C88.2288 47.9675 88.1784 47.8667 88.1448 47.7239C88.1112 47.5811 88.086 47.4635 88.086 47.3626C88.0776 47.2618 88.0776 47.1022 88.0776 46.867V46.8334V46.7914V46.7494V44.4475H87.3467V43.8595H88.0776V42.5741H88.7917V43.8595H89.657ZM94.1551 46.825C93.9367 47.8331 93.3066 48.3372 92.2649 48.3372C91.6264 48.3372 91.1223 48.1439 90.7611 47.7407C90.3999 47.3458 90.2234 46.7914 90.2234 46.0857C90.2234 45.3884 90.4083 44.8256 90.7779 44.3887C91.1476 43.9519 91.6348 43.7334 92.2397 43.7334C92.9033 43.7334 93.399 43.9603 93.7182 44.4139C94.0375 44.8676 94.2055 45.4304 94.2055 46.1193V46.2201H90.9459L90.9375 46.2705C90.9375 46.7326 91.0551 47.0938 91.2988 47.3542C91.534 47.6231 91.87 47.7491 92.2901 47.7491C92.6009 47.7491 92.8445 47.6819 93.0294 47.5307C93.2142 47.3878 93.357 47.1526 93.4578 46.825H94.1551ZM93.4662 45.6405C93.4326 45.2288 93.3066 44.9096 93.0882 44.6743C92.8697 44.4391 92.5757 44.3215 92.2229 44.3215C91.87 44.3215 91.5844 44.4391 91.3576 44.6743C91.1223 44.9096 90.9879 45.2372 90.9459 45.6405H93.4662ZM97.3847 42.2129H98.1827V45.9849C98.1827 46.573 98.3088 46.993 98.5608 47.2618C98.8128 47.5307 99.2245 47.6651 99.7957 47.6651C100.384 47.6651 100.795 47.5307 101.039 47.2534C101.283 46.9846 101.409 46.5562 101.409 45.9849V42.2129H102.207V45.7749C102.207 46.6486 102.022 47.2954 101.661 47.7071C101.291 48.1187 100.669 48.3204 99.7957 48.3204C98.9388 48.3204 98.3256 48.1271 97.9475 47.7239C97.5695 47.3206 97.3847 46.699 97.3847 45.8589V42.2129ZM103.489 42.2129H106.119C107.455 42.2129 108.127 42.7673 108.127 43.8679C108.127 44.2207 108.026 44.5231 107.841 44.792C107.656 45.0608 107.404 45.2372 107.102 45.3212C107.303 45.3716 107.463 45.4304 107.589 45.5144C107.707 45.5984 107.799 45.7161 107.858 45.8673C107.908 46.0185 107.95 46.1529 107.967 46.2705C107.984 46.3881 107.992 46.5646 108.009 46.7914C108.009 46.8166 108.009 46.8754 108.018 46.9594C108.018 47.0434 108.026 47.1022 108.026 47.1358C108.026 47.1694 108.026 47.2198 108.034 47.2954C108.043 47.3794 108.051 47.4383 108.06 47.4719C108.06 47.5139 108.068 47.5643 108.085 47.6315C108.093 47.6987 108.11 47.7575 108.127 47.7995C108.144 47.8415 108.16 47.8919 108.186 47.9423C108.202 47.9927 108.228 48.0431 108.261 48.0851C108.286 48.1271 108.32 48.1607 108.354 48.1943H107.446C107.404 48.1439 107.371 48.0683 107.345 47.9843C107.32 47.9003 107.303 47.8079 107.295 47.6903C107.278 47.5727 107.27 47.4803 107.27 47.413C107.261 47.3458 107.253 47.2366 107.253 47.1022C107.245 46.9678 107.245 46.8922 107.245 46.8754C107.211 46.3713 107.11 46.0269 106.925 45.8589C106.741 45.6909 106.388 45.6068 105.85 45.6068H104.279V48.1943H103.489V42.2129ZM104.279 42.8849V44.9768H105.766C105.951 44.9768 106.102 44.9768 106.228 44.96C106.354 44.9516 106.497 44.9264 106.648 44.8844C106.799 44.8508 106.917 44.792 107.009 44.7163C107.102 44.6491 107.177 44.5399 107.245 44.4055C107.303 44.2711 107.337 44.1115 107.337 43.9183C107.337 43.515 107.211 43.2462 106.967 43.1034C106.724 42.9606 106.396 42.8849 105.976 42.8849H104.279ZM113.214 47.5055V48.1943H109.249V42.2129H110.039V47.5055H113.214Z" fill="#0A0909"/>
<path d="M131.612 29.7422H218.422C221.322 29.7422 223.673 32.0934 223.673 34.9932V57.3955C223.673 60.2953 221.322 62.6465 218.422 62.6465H131.612C128.713 62.6465 126.361 60.2953 126.361 57.3955V34.9932C126.361 32.0934 128.713 29.7422 131.612 29.7422Z" fill="white"/>
<path d="M131.612 29.7422H218.422C221.322 29.7422 223.673 32.0934 223.673 34.9932V57.3955C223.673 60.2953 221.322 62.6465 218.422 62.6465H131.612C128.713 62.6465 126.361 60.2953 126.361 57.3955V34.9932C126.361 32.0934 128.713 29.7422 131.612 29.7422Z" stroke="#D3D8EB" stroke-width="0.700078"/>
<rect x="140.317" y="37.1101" width="16.197" height="18.1684" rx="2.52028" stroke="#01A56D" stroke-width="0.560063"/>
<g clip-path="url(#clip1_35554_318198)">
<path d="M148.374 43.6219C148.765 43.6219 149.104 43.4815 149.381 43.2045C149.658 42.9276 149.798 42.5888 149.798 42.1974C149.798 41.8061 149.658 41.4672 149.381 41.1902C149.104 40.9133 148.765 40.7729 148.374 40.7729C147.982 40.7729 147.643 40.9133 147.367 41.1902C147.09 41.4672 146.949 41.806 146.949 42.1974C146.949 42.5888 147.09 42.9277 147.367 43.2046C147.644 43.4814 147.982 43.6219 148.374 43.6219Z" fill="#01A56D"/>
<path d="M150.866 45.3208C150.858 45.2056 150.842 45.0799 150.818 44.9471C150.794 44.8134 150.763 44.687 150.726 44.5714C150.688 44.452 150.636 44.334 150.571 44.221C150.505 44.1037 150.426 44.0015 150.338 43.9174C150.247 43.8295 150.134 43.7588 150.004 43.7072C149.874 43.6559 149.731 43.6299 149.577 43.6299C149.516 43.6299 149.458 43.6547 149.345 43.7281C149.276 43.7734 149.195 43.8257 149.104 43.8836C149.027 43.933 148.922 43.9792 148.792 44.0211C148.666 44.062 148.537 44.0828 148.41 44.0828C148.284 44.0828 148.155 44.062 148.029 44.0211C147.899 43.9793 147.794 43.933 147.717 43.8836C147.627 43.8263 147.546 43.774 147.475 43.7281C147.363 43.6547 147.304 43.6299 147.244 43.6299C147.09 43.6299 146.947 43.6559 146.817 43.7073C146.687 43.7588 146.574 43.8295 146.482 43.9175C146.394 44.0016 146.316 44.1037 146.249 44.221C146.185 44.334 146.133 44.4519 146.095 44.5714C146.058 44.687 146.027 44.8134 146.003 44.9471C145.979 45.0797 145.963 45.2055 145.955 45.321C145.947 45.4341 145.943 45.5516 145.943 45.6702C145.943 45.9789 146.042 46.2289 146.235 46.4132C146.426 46.5951 146.679 46.6874 146.987 46.6874H149.834C150.142 46.6874 150.395 46.5951 150.586 46.4132C150.78 46.229 150.878 45.979 150.878 45.6702C150.878 45.551 150.874 45.4335 150.866 45.3208Z" fill="#01A56D"/>
</g>
<rect x="144.965" y="48.1655" width="6.89997" height="0.98571" rx="0.492855" fill="#01A56D"/>
<rect x="145.951" y="50.6299" width="4.92855" height="0.98571" rx="0.492855" fill="#01A56D"/>
<path d="M168.135 43.8595H168.933L170.16 47.4971L171.353 43.8595H172.1L170.513 48.1943H169.748L168.135 43.8595ZM177.947 45.9345C177.88 46.6906 177.611 47.287 177.158 47.7071C176.704 48.1271 176.099 48.3372 175.352 48.3372C174.503 48.3372 173.831 48.0599 173.335 47.4971C172.831 46.9342 172.588 46.1697 172.588 45.212C172.588 44.3215 172.831 43.5738 173.335 42.9774C173.839 42.3809 174.528 42.0785 175.419 42.0785C176.049 42.0785 176.603 42.2549 177.082 42.5909C177.569 42.9353 177.838 43.4058 177.889 44.0107H177.099C177.015 43.6242 176.813 43.3134 176.511 43.095C176.208 42.8765 175.839 42.7589 175.394 42.7589C174.73 42.7589 174.226 42.9942 173.89 43.4646C173.554 43.9351 173.386 44.5147 173.386 45.2036C173.386 45.9681 173.562 46.5646 173.923 47.0014C174.276 47.4383 174.772 47.6567 175.394 47.6567C175.898 47.6567 176.309 47.5139 176.612 47.2198C176.914 46.9258 177.091 46.4973 177.158 45.9345H177.947ZM182.658 47.6231V48.1859C182.507 48.2363 182.347 48.2699 182.17 48.2699C181.759 48.2699 181.549 48.0515 181.54 47.6315C181.129 48.0851 180.608 48.3204 179.969 48.3204C179.541 48.3204 179.205 48.2111 178.953 47.9927C178.701 47.7743 178.583 47.4719 178.583 47.0938C178.583 46.3209 179.096 45.8673 180.121 45.7413C180.188 45.7245 180.28 45.7161 180.415 45.7077C180.902 45.6489 181.196 45.5816 181.314 45.5144C181.44 45.422 181.507 45.2708 181.507 45.0524C181.507 44.5735 181.179 44.3383 180.524 44.3383C180.188 44.3383 179.927 44.4055 179.759 44.5399C179.583 44.6743 179.482 44.9012 179.449 45.2204H178.751C178.76 44.75 178.928 44.3887 179.247 44.1367C179.566 43.8763 180.003 43.7502 180.566 43.7502C181.171 43.7502 181.624 43.8847 181.927 44.1703C182.019 44.2543 182.086 44.3719 182.137 44.5231C182.179 44.6659 182.204 44.7836 182.212 44.876C182.212 44.9684 182.221 45.1112 182.221 45.296C182.221 45.506 182.212 45.8253 182.204 46.2537C182.187 46.6906 182.187 47.0098 182.187 47.2198C182.187 47.3794 182.204 47.4887 182.246 47.5559C182.288 47.6231 182.364 47.6483 182.481 47.6483C182.523 47.6483 182.582 47.6399 182.658 47.6231ZM181.507 45.9513C181.456 45.9849 181.398 46.0185 181.347 46.0521C181.288 46.0773 181.213 46.1025 181.129 46.1193C181.045 46.1361 180.986 46.1445 180.952 46.1529C180.919 46.1613 180.852 46.1697 180.734 46.1865C180.616 46.2033 180.549 46.2117 180.549 46.2117C180.373 46.2285 180.255 46.2453 180.205 46.2537C180.154 46.2621 180.053 46.2873 179.902 46.3293C179.751 46.3629 179.65 46.4133 179.591 46.4637C179.524 46.5141 179.465 46.5814 179.407 46.6822C179.348 46.783 179.323 46.9006 179.323 47.035C179.323 47.2534 179.398 47.4299 179.549 47.5643C179.701 47.6903 179.919 47.7575 180.188 47.7575C180.524 47.7575 180.835 47.6567 181.104 47.4551C181.372 47.2534 181.507 47.0098 181.507 46.741V45.9513ZM185.591 43.7586L185.582 44.5063C185.532 44.4979 185.473 44.4979 185.397 44.4979C185.171 44.4979 184.969 44.5315 184.801 44.5987C184.633 44.6659 184.507 44.7584 184.406 44.8676C184.305 44.9852 184.23 45.1196 184.162 45.2876C184.104 45.4556 184.062 45.6236 184.045 45.7917C184.028 45.9597 184.02 46.1529 184.02 46.3629V48.1943H183.306V43.8595H183.986V44.792C184.272 44.1031 184.801 43.7586 185.591 43.7586ZM189.887 42.2129V48.1943H189.215V47.5559C188.938 48.0599 188.459 48.3119 187.787 48.3119C187.165 48.3119 186.678 48.1103 186.317 47.6987C185.955 47.287 185.779 46.7242 185.779 46.0185C185.779 45.3632 185.947 44.8256 186.283 44.3887C186.619 43.9519 187.115 43.7334 187.753 43.7334C188.375 43.7334 188.845 43.9687 189.173 44.4391V42.2129H189.887ZM187.846 44.3467C187.434 44.3467 187.106 44.4979 186.871 44.792C186.636 45.0944 186.518 45.4976 186.518 46.0017C186.518 46.531 186.636 46.951 186.88 47.2618C187.123 47.5727 187.451 47.7239 187.862 47.7239C188.274 47.7239 188.602 47.5811 188.837 47.2786C189.072 46.9762 189.19 46.5646 189.19 46.0269C189.19 45.5564 189.072 45.1532 188.854 44.834C188.635 44.5147 188.299 44.3467 187.846 44.3467Z" fill="#0A0909"/>
<path d="M235.224 29.7422H322.033C324.933 29.7422 327.284 32.0934 327.284 34.9932V57.3955C327.284 60.2953 324.933 62.6465 322.033 62.6465H235.224C232.324 62.6465 229.973 60.2953 229.973 57.3955V34.9932C229.973 32.0934 232.324 29.7422 235.224 29.7422Z" fill="white"/>
<path d="M235.224 29.7422H322.033C324.933 29.7422 327.284 32.0934 327.284 34.9932V57.3955C327.284 60.2953 324.933 62.6465 322.033 62.6465H235.224C232.324 62.6465 229.973 60.2953 229.973 57.3955V34.9932C229.973 32.0934 232.324 29.7422 235.224 29.7422Z" stroke="#D3D8EB" stroke-width="0.700078"/>
<path d="M256.35 41.0977C257.277 41.0978 258.029 41.8505 258.029 42.7783V49.499C258.029 50.4267 257.277 51.1786 256.35 51.1787H241.788C240.86 51.1787 240.108 50.4268 240.107 49.499V42.7783C240.107 41.8504 240.86 41.0977 241.788 41.0977H256.35ZM243.414 43.8984C243.252 43.8985 243.126 43.9399 243.036 44.0234C242.951 44.1071 242.908 44.2305 242.908 44.3936V47.877C242.908 48.0357 242.951 48.1593 243.036 48.2471C243.122 48.3348 243.246 48.3789 243.408 48.3789C243.57 48.3788 243.692 48.3348 243.773 48.2471C243.859 48.1593 243.901 48.0357 243.901 47.877V46.7285H244.972C245.476 46.7285 245.864 46.6025 246.138 46.3516C246.411 46.1006 246.548 45.753 246.548 45.3096C246.548 44.8663 246.411 44.5212 246.138 44.2744C245.864 44.0236 245.476 43.8985 244.972 43.8984H243.414ZM252.646 43.8984C252.48 43.8984 252.351 43.9424 252.262 44.0303C252.172 44.1181 252.127 44.2433 252.127 44.4062V47.8643C252.127 48.0314 252.17 48.1593 252.255 48.2471C252.345 48.3349 252.471 48.3789 252.634 48.3789C252.958 48.3788 253.12 48.207 253.12 47.8643V46.4961H254.697C254.825 46.4961 254.924 46.4624 254.992 46.3955C255.06 46.3286 255.095 46.2345 255.095 46.1133C255.095 45.992 255.061 45.8997 254.992 45.8369C254.924 45.77 254.825 45.7363 254.697 45.7363H253.12V44.6572H254.838C254.966 44.6572 255.063 44.6262 255.127 44.5635C255.195 44.4965 255.229 44.3999 255.229 44.2744C255.229 44.1532 255.195 44.0608 255.127 43.998C255.063 43.9311 254.966 43.8984 254.838 43.8984H252.646ZM247.683 43.8984C247.516 43.8985 247.388 43.9425 247.299 44.0303C247.209 44.1181 247.164 44.2432 247.164 44.4062V47.8135C247.164 47.9766 247.209 48.1026 247.299 48.1904C247.388 48.278 247.516 48.3222 247.683 48.3223H248.933C249.321 48.3223 249.666 48.274 249.965 48.1777C250.264 48.0774 250.516 47.9332 250.721 47.7451C250.926 47.5569 251.082 47.3265 251.188 47.0547C251.3 46.7786 251.355 46.462 251.355 46.1064C251.355 45.3997 251.144 44.8562 250.721 44.4756C250.302 44.0907 249.706 43.8984 248.933 43.8984H247.683ZM248.875 44.6953C249.354 44.6953 249.713 44.8126 249.952 45.0469C250.195 45.2769 250.317 45.63 250.317 46.1064C250.317 46.3449 250.287 46.5545 250.228 46.7344C250.168 46.9101 250.078 47.0567 249.958 47.1738C249.838 47.2909 249.689 47.379 249.51 47.4375C249.33 47.4961 249.119 47.5254 248.875 47.5254H248.157V44.6953H248.875ZM244.805 44.6572C245.061 44.6572 245.255 44.7117 245.388 44.8203C245.524 44.929 245.593 45.0922 245.593 45.3096C245.593 45.5271 245.524 45.6927 245.388 45.8057C245.255 45.9185 245.061 45.9756 244.805 45.9756H243.901V44.6572H244.805Z" fill="#01A56D"/>
<path d="M257.89 36.8447C259.302 36.9882 260.403 38.181 260.403 39.6309V52.7578C260.403 54.2076 259.302 55.4005 257.89 55.5439L257.604 55.5586H246.447L246.16 55.5439C244.748 55.4004 243.647 54.2075 243.646 52.7578V51.1787H244.207V52.7578C244.207 53.995 245.21 54.998 246.447 54.998H257.604C258.841 54.9979 259.844 53.9949 259.844 52.7578V39.6309C259.844 38.3937 258.841 37.3908 257.604 37.3906H246.447C245.21 37.3906 244.207 38.3936 244.207 39.6309V41.0977H243.646V39.6309C243.646 38.1811 244.748 36.9883 246.16 36.8447L246.447 36.8301H257.604L257.89 36.8447Z" fill="#01A56D"/>
<path d="M272.326 42.2129H274.779C275.393 42.2129 275.88 42.3557 276.241 42.6329C276.594 42.9101 276.779 43.347 276.779 43.9351C276.779 45.1448 276.098 45.7413 274.737 45.7413H273.116V48.1943H272.326V42.2129ZM273.107 42.8933V45.0776H274.628C275.056 45.0776 275.393 45.002 275.628 44.8424C275.863 44.6827 275.981 44.3971 275.981 43.9855C275.981 43.7586 275.947 43.5654 275.871 43.4142C275.796 43.263 275.687 43.1538 275.535 43.0782C275.393 43.011 275.241 42.9606 275.082 42.9353C274.93 42.9101 274.737 42.8933 274.519 42.8933H273.107ZM277.74 42.2129H279.681C280.697 42.2129 281.445 42.4481 281.924 42.9185C282.411 43.389 282.646 44.1367 282.646 45.1532C282.646 46.1613 282.428 46.9174 281.974 47.4299C281.529 47.9423 280.815 48.1943 279.832 48.1943H277.74V42.2129ZM278.521 42.8933L278.53 47.5223H279.731C280.479 47.5223 281.025 47.3374 281.361 46.9678C281.697 46.5982 281.865 46.0269 281.865 45.2456C281.865 44.4307 281.705 43.8342 281.369 43.4562C281.042 43.0866 280.479 42.8933 279.689 42.8933H278.521ZM287.595 42.2129V42.9017H284.453V44.7668H287.226V45.4304H284.453V48.1943H283.664V42.2129H287.595Z" fill="#0A0909"/>
<path d="M28.001 68.9458H114.811C117.71 68.9458 120.062 71.297 120.062 74.1968V96.5991C120.062 99.4989 117.71 101.85 114.811 101.85H28.001C25.1012 101.85 22.75 99.4989 22.75 96.5991V74.1968C22.75 71.297 25.1012 68.9458 28.001 68.9458Z" fill="white"/>
<path d="M28.001 68.9458H114.811C117.71 68.9458 120.062 71.297 120.062 74.1968V96.5991C120.062 99.4989 117.71 101.85 114.811 101.85H28.001C25.1012 101.85 22.75 99.4989 22.75 96.5991V74.1968C22.75 71.297 25.1012 68.9458 28.001 68.9458Z" stroke="#D3D8EB" stroke-width="0.700078"/>
<path d="M51.5498 76.1646C52.9618 76.308 54.0635 77.5008 54.0635 78.9507V90.5591C54.0635 91.708 53.3707 92.6927 52.3809 93.1245C52.4756 92.8897 52.5395 92.6397 52.5674 92.3784C53.1337 91.9716 53.5039 91.3093 53.5039 90.5591V78.9507C53.5039 77.7135 52.5008 76.7106 51.2637 76.7104H40.1074C39.3346 76.7105 38.6526 77.1015 38.25 77.6968C37.991 77.7318 37.7432 77.8001 37.5117 77.9009C37.8929 76.9592 38.7702 76.2714 39.8203 76.1646L40.1074 76.1499H51.2637L51.5498 76.1646Z" fill="#01A56D"/>
<rect x="36.2117" y="77.8323" width="16.197" height="16.6499" rx="2.52028" stroke="#01A56D" stroke-width="0.560063"/>
<path d="M49.2382 84.4122C48.4229 84.4122 47.7597 83.7489 47.7597 82.9336C47.7597 82.1183 48.4229 81.4551 49.2382 81.4551C50.0535 81.4551 50.7168 82.1183 50.7168 82.9336C50.7168 83.7489 50.0535 84.4122 49.2382 84.4122Z" fill="#01A56D"/>
<path d="M39.1247 90.0418C39.3174 89.709 39.6088 89.5182 39.9244 89.5182H39.9251C40.2406 89.5186 40.5318 89.7096 40.7237 90.0424L40.7263 90.0469C40.732 90.0571 40.7377 90.0674 40.7437 90.0778L43.058 86.0451C43.2936 85.6343 43.6463 85.3984 44.0255 85.3979H44.0266C44.4058 85.3979 44.7591 85.6335 44.9963 86.0451C44.9963 86.0451 45.7514 87.3616 46.2364 88.2067C46.3119 88.0754 46.3693 87.9753 46.3708 87.9728C46.6063 87.5618 46.959 87.3258 47.3385 87.3255H47.3392C47.7187 87.3255 48.0719 87.5613 48.3084 87.9726L50.2076 91.2825L50.2246 91.3122H38.3961C38.6364 90.8954 38.9375 90.3702 39.1247 90.0418Z" fill="#01A56D"/>
<path d="M65.8932 81.4165V87.3979H65.1035V81.4165H65.8932ZM67.7901 83.0631L67.7817 83.7015C67.9749 83.4411 68.1765 83.2563 68.3949 83.1387C68.6133 83.0211 68.8822 82.9623 69.193 82.9623C69.7895 82.9623 70.1927 83.2059 70.4027 83.7099C70.7724 83.2059 71.2512 82.9539 71.8393 82.9539C72.2846 82.9539 72.6206 83.0715 72.8558 83.3235C73.091 83.5755 73.2087 83.92 73.2087 84.3736V87.4064H72.4946V84.676C72.4946 84.3148 72.4358 84.046 72.3266 83.8612C72.2089 83.6763 71.9821 83.5923 71.6293 83.5923C70.89 83.5923 70.5204 84.0376 70.5204 84.9449V87.4064H69.8063V84.6256C69.8063 84.2896 69.7475 84.0376 69.6383 83.8612C69.5291 83.6847 69.319 83.6007 69.0082 83.6007C68.5629 83.6007 68.2521 83.7351 68.0841 84.004C67.9161 84.2728 67.8321 84.6424 67.8321 85.1045V87.3979H67.118V83.0631H67.7901ZM78.1193 86.8267V87.3895C77.9681 87.44 77.8085 87.4736 77.6321 87.4736C77.2204 87.4736 77.0104 87.2551 77.002 86.8351C76.5904 87.2887 76.0695 87.524 75.431 87.524C75.0026 87.524 74.6666 87.4148 74.4145 87.1963C74.1625 86.9779 74.0449 86.6755 74.0449 86.2974C74.0449 85.5245 74.5573 85.0709 75.5823 84.9449C75.6495 84.9281 75.7419 84.9197 75.8763 84.9113C76.3635 84.8525 76.6576 84.7853 76.7752 84.718C76.9012 84.6256 76.9684 84.4744 76.9684 84.256C76.9684 83.7771 76.6408 83.5419 75.9855 83.5419C75.6495 83.5419 75.389 83.6091 75.221 83.7435C75.0446 83.878 74.9438 84.1048 74.9102 84.424H74.2129C74.2213 83.9536 74.3893 83.5923 74.7086 83.3403C75.0278 83.0799 75.4646 82.9539 76.0275 82.9539C76.6324 82.9539 77.086 83.0883 77.3885 83.3739C77.4809 83.4579 77.5481 83.5755 77.5985 83.7267C77.6405 83.8696 77.6657 83.9872 77.6741 84.0796C77.6741 84.172 77.6825 84.3148 77.6825 84.4996C77.6825 84.7096 77.6741 85.0289 77.6657 85.4573C77.6489 85.8942 77.6489 86.2134 77.6489 86.4234C77.6489 86.5831 77.6657 86.6923 77.7077 86.7595C77.7497 86.8267 77.8253 86.8519 77.9429 86.8519C77.9849 86.8519 78.0437 86.8435 78.1193 86.8267ZM76.9684 85.1549C76.918 85.1885 76.8592 85.2221 76.8088 85.2557C76.75 85.2809 76.6744 85.3061 76.5904 85.3229C76.5064 85.3397 76.4476 85.3481 76.4139 85.3565C76.3803 85.3649 76.3131 85.3733 76.1955 85.3901C76.0779 85.4069 76.0107 85.4153 76.0107 85.4153C75.8343 85.4321 75.7167 85.4489 75.6663 85.4573C75.6159 85.4657 75.515 85.4909 75.3638 85.5329C75.2126 85.5665 75.1118 85.617 75.053 85.6674C74.9858 85.7178 74.927 85.785 74.8682 85.8858C74.8094 85.9866 74.7842 86.1042 74.7842 86.2386C74.7842 86.457 74.8598 86.6335 75.011 86.7679C75.1622 86.8939 75.3806 86.9611 75.6495 86.9611C75.9855 86.9611 76.2963 86.8603 76.5652 86.6587C76.834 86.457 76.9684 86.2134 76.9684 85.9446V85.1549ZM82.5476 83.0631V86.9359C82.5476 87.3055 82.5223 87.5996 82.4887 87.8012C82.4467 88.0028 82.3711 88.196 82.2619 88.3725C81.9427 88.9017 81.3714 89.1621 80.5481 89.1621C80.0609 89.1621 79.6492 89.0697 79.3132 88.8681C78.9772 88.6665 78.7839 88.3389 78.7251 87.8852H79.456C79.54 88.3725 79.9181 88.6077 80.5733 88.6077C81.0186 88.6077 81.3378 88.4985 81.5394 88.2716C81.7411 88.0532 81.8419 87.692 81.8587 87.1879L81.8671 86.6587C81.5898 87.1879 81.1278 87.4484 80.4809 87.4484C79.9013 87.4484 79.4392 87.2551 79.0948 86.8519C78.7503 86.457 78.5739 85.9194 78.5739 85.2473C78.5739 84.6172 78.7503 84.0796 79.0864 83.6259C79.4308 83.1723 79.9097 82.9455 80.5229 82.9455C80.8254 82.9455 81.0942 83.0127 81.3294 83.1387C81.5646 83.2731 81.7579 83.4579 81.8923 83.6931V83.0631H82.5476ZM80.5565 83.5755C80.1701 83.5755 79.8593 83.7183 79.6408 84.0208C79.4224 84.3232 79.3132 84.7349 79.3132 85.2641C79.3132 85.7346 79.4224 86.121 79.6576 86.4066C79.8845 86.6923 80.1869 86.8435 80.5733 86.8435C80.9682 86.8435 81.279 86.6923 81.5058 86.3898C81.7327 86.0874 81.8503 85.6674 81.8503 85.1465C81.8503 84.6508 81.7327 84.2644 81.5058 83.9872C81.279 83.7099 80.9598 83.5755 80.5565 83.5755ZM87.3211 86.0286C87.1027 87.0367 86.4726 87.5408 85.4309 87.5408C84.7924 87.5408 84.2884 87.3475 83.9271 86.9443C83.5659 86.5495 83.3895 85.995 83.3895 85.2893C83.3895 84.592 83.5743 84.0292 83.9439 83.5923C84.3136 83.1555 84.8008 82.9371 85.4057 82.9371C86.0694 82.9371 86.565 83.1639 86.8843 83.6175C87.2035 84.0712 87.3715 84.634 87.3715 85.3229V85.4237H84.112L84.1036 85.4741C84.1036 85.9362 84.2212 86.2974 84.4648 86.5579C84.7 86.8267 85.0361 86.9527 85.4561 86.9527C85.7669 86.9527 86.0106 86.8855 86.1954 86.7343C86.3802 86.5915 86.523 86.3562 86.6238 86.0286H87.3211ZM86.6322 84.8441C86.5986 84.4324 86.4726 84.1132 86.2542 83.878C86.0358 83.6427 85.7417 83.5251 85.3889 83.5251C85.0361 83.5251 84.7504 83.6427 84.5236 83.878C84.2884 84.1132 84.154 84.4408 84.112 84.8441H86.6322ZM91.3461 84.3232H90.632C90.5816 83.8023 90.2288 83.5335 89.5735 83.5335C89.2963 83.5335 89.0778 83.5923 88.9266 83.6931C88.767 83.8023 88.6914 83.9452 88.6914 84.1216C88.6914 84.172 88.6914 84.2224 88.7082 84.2728C88.7166 84.3232 88.7334 84.3652 88.767 84.3988C88.8006 84.4324 88.8258 84.466 88.851 84.4912C88.8762 84.5248 88.9182 84.55 88.977 84.5752C89.0358 84.6004 89.0778 84.6172 89.1114 84.634C89.145 84.6508 89.1954 84.676 89.2795 84.6928C89.3635 84.7096 89.4223 84.7265 89.4559 84.7349C89.4895 84.7433 89.5483 84.7601 89.6491 84.7769C89.7499 84.8021 89.8087 84.8189 89.8423 84.8189C90.0439 84.8693 90.2036 84.9029 90.3044 84.9281C90.4052 84.9617 90.548 85.0121 90.7328 85.0877C90.9176 85.1633 91.0521 85.2389 91.1529 85.3229C91.2453 85.4069 91.3293 85.5161 91.4049 85.659C91.4805 85.8018 91.5225 85.9614 91.5225 86.1378C91.5225 86.5579 91.3545 86.9023 91.0269 87.1543C90.6992 87.4064 90.2624 87.5324 89.7247 87.5324C89.1366 87.5324 88.683 87.4064 88.3638 87.1459C88.0445 86.8939 87.8765 86.5159 87.8597 86.0286H88.5654C88.599 86.6419 88.9938 86.9443 89.7415 86.9443C90.0607 86.9443 90.3128 86.8855 90.506 86.7511C90.6992 86.6167 90.8 86.4402 90.8 86.2218C90.8 86.079 90.7496 85.9614 90.6488 85.8606C90.548 85.7682 90.4304 85.701 90.3128 85.659C90.1868 85.617 90.0103 85.5665 89.7835 85.5077C89.7499 85.5077 89.7247 85.4993 89.7079 85.4909C89.6575 85.4825 89.5483 85.4573 89.3803 85.4237C89.2123 85.3901 89.0946 85.3565 89.0274 85.3313C88.9518 85.3145 88.8426 85.2809 88.7082 85.2305C88.5738 85.1801 88.473 85.1297 88.4058 85.0793C88.3386 85.0289 88.2629 84.9617 88.1789 84.8777C88.0949 84.7937 88.0445 84.7012 88.0109 84.592C87.9773 84.4828 87.9605 84.3568 87.9605 84.214C87.9605 83.8276 88.1033 83.5167 88.4058 83.2815C88.7082 83.0547 89.1114 82.9371 89.6155 82.9371C90.1196 82.9371 90.5396 83.0631 90.8588 83.2983C91.1781 83.5419 91.3461 83.8864 91.3461 84.3232Z" fill="#0A0909"/>
<rect x="126.362" y="68.9462" width="97.3109" height="32.9037" rx="5.25059" fill="white"/>
<rect x="126.362" y="68.9462" width="97.3109" height="32.9037" rx="5.25059" stroke="#D3D8EB" stroke-width="0.700078"/>
<rect x="147.71" y="76.3137" width="8.80418" height="8.80418" rx="2.52028" stroke="#01A56D" stroke-width="0.560063"/>
<g clip-path="url(#clip2_35554_318198)">
<path d="M150.52 80.0688H149.884C149.796 80.0688 149.725 80.1401 149.725 80.228V82.7743C149.725 82.8622 149.796 82.9334 149.884 82.9334H150.52C150.608 82.9334 150.679 82.8622 150.679 82.7743V80.228C150.679 80.1401 150.608 80.0688 150.52 80.0688Z" fill="#01A56D"/>
<path d="M154.496 80.4908C154.468 80.244 154.237 80.069 153.989 80.069H152.748C152.854 79.8802 152.91 79.3461 152.908 79.128C152.904 78.7669 152.604 78.4775 152.243 78.4775H152.112C152.024 78.4775 151.953 78.5487 151.953 78.6367C151.953 79.0047 151.81 79.6689 151.539 79.9392C151.357 80.1211 151.202 80.187 150.998 80.2889V82.6769C151.31 82.7809 151.707 82.9336 152.311 82.9336H153.352C153.695 82.9336 153.962 82.6159 153.829 82.2802C154.032 82.225 154.181 82.0393 154.181 81.8196C154.181 81.7575 154.169 81.6982 154.147 81.6436C154.489 81.5506 154.614 81.1293 154.377 80.8647C154.464 80.7675 154.512 80.6345 154.496 80.4908Z" fill="#01A56D"/>
</g>
<path d="M146.107 81.9478C147.654 81.9478 148.908 83.202 148.908 84.7485V87.5259C148.908 89.0724 147.654 90.3267 146.107 90.3267H143.33C141.784 90.3267 140.529 89.0724 140.529 87.5259V84.7485C140.529 83.202 141.784 81.9478 143.33 81.9478H146.107ZM145.697 84.1616C145.441 84.1616 145.206 84.2432 145 84.4028C144.896 84.4833 144.802 84.5819 144.719 84.6968C144.636 84.5818 144.541 84.4834 144.437 84.4028C144.23 84.2432 143.995 84.1616 143.739 84.1616C143.397 84.1617 143.082 84.2994 142.853 84.5483C142.626 84.7944 142.5 85.1303 142.5 85.4946C142.5 85.8697 142.64 86.2135 142.94 86.5757C143.209 86.8997 143.595 87.229 144.042 87.6099C144.194 87.7398 144.368 87.8866 144.547 88.0435C144.594 88.085 144.656 88.1079 144.719 88.1079C144.782 88.1078 144.842 88.0857 144.89 88.0444C145.069 87.8874 145.243 87.739 145.396 87.6089C145.842 87.2283 146.228 86.8996 146.496 86.5757C146.796 86.2135 146.937 85.8698 146.937 85.4946C146.936 85.1303 146.811 84.7944 146.584 84.5483C146.354 84.2994 146.04 84.1617 145.697 84.1616Z" fill="#01A56D"/>
<rect x="146.723" y="87.6492" width="6.83276" height="6.83276" rx="2.52028" stroke="#01A56D" stroke-width="0.560063"/>
<g clip-path="url(#clip3_35554_318198)">
<path d="M151.598 91.588H151.24C151.226 91.588 151.214 91.5764 151.214 91.5623V90.5683C151.214 90.5542 151.226 90.5426 151.24 90.5426H151.598C151.675 90.5426 151.75 90.5104 151.802 90.4542C151.854 90.3986 151.879 90.3264 151.874 90.2508C151.864 90.1097 151.744 89.9992 151.602 89.9992H151.24C151.226 89.9992 151.214 89.9876 151.214 89.9735V89.6169C151.214 89.5393 151.182 89.4648 151.126 89.4126C151.07 89.3609 150.998 89.3355 150.922 89.3411C150.78 89.3515 150.67 89.4705 150.67 89.6121V89.9735C150.67 89.9876 150.658 89.9992 150.644 89.9992H149.648C149.634 89.9992 149.622 89.9876 149.622 89.9735V89.6169C149.622 89.5393 149.59 89.4648 149.534 89.4126C149.478 89.3609 149.406 89.3355 149.33 89.3411C149.189 89.3515 149.078 89.4705 149.078 89.6121V89.9735C149.078 89.9876 149.066 89.9992 149.052 89.9992H148.695C148.617 89.9992 148.543 90.0314 148.49 90.0876C148.439 90.1432 148.413 90.2154 148.419 90.291C148.429 90.4321 148.548 90.5426 148.69 90.5426H149.052C149.066 90.5426 149.078 90.5542 149.078 90.5683V91.5623C149.078 91.5764 149.066 91.588 149.052 91.588H148.695C148.617 91.588 148.543 91.6203 148.49 91.6765C148.439 91.732 148.413 91.8043 148.419 91.8799C148.429 92.0209 148.548 92.1315 148.69 92.1315H149.052C149.066 92.1315 149.078 92.143 149.078 92.1572V92.5137C149.078 92.5914 149.11 92.6658 149.166 92.7181C149.222 92.7698 149.294 92.7951 149.37 92.7896C149.512 92.7792 149.622 92.6601 149.622 92.5185V92.1572C149.622 92.143 149.634 92.1315 149.648 92.1315H150.644C150.658 92.1315 150.67 92.143 150.67 92.1572V92.5137C150.67 92.5914 150.702 92.6659 150.758 92.7181C150.809 92.765 150.874 92.7903 150.942 92.7903C150.948 92.7903 150.955 92.79 150.962 92.7896C151.104 92.7792 151.214 92.6601 151.214 92.5185V92.1572C151.214 92.143 151.226 92.1315 151.24 92.1315H151.602C151.744 92.1315 151.864 92.0209 151.874 91.8799C151.879 91.8043 151.854 91.732 151.802 91.6765C151.75 91.6203 151.675 91.588 151.598 91.588ZM150.67 91.5623C150.67 91.5764 150.658 91.588 150.644 91.588H149.648C149.634 91.588 149.622 91.5764 149.622 91.5623V90.5683C149.622 90.5542 149.634 90.5426 149.648 90.5426H150.644C150.658 90.5426 150.67 90.5542 150.67 90.5683V91.5623Z" fill="#01A56D"/>
</g>
<path d="M172.915 83.1723L172.142 83.1807C172.058 82.3658 171.563 81.9625 170.655 81.9625C170.227 81.9625 169.891 82.0466 169.656 82.223C169.421 82.391 169.303 82.6346 169.303 82.9539C169.303 83.0631 169.32 83.1639 169.353 83.2479C169.387 83.3319 169.446 83.3991 169.53 83.4663C169.614 83.5335 169.689 83.5839 169.757 83.6343C169.832 83.6763 169.95 83.7183 170.101 83.7603C170.261 83.8107 170.387 83.8444 170.479 83.8612C170.58 83.878 170.723 83.9116 170.924 83.9536C171.176 84.004 171.378 84.0544 171.538 84.0964C171.706 84.1384 171.899 84.2056 172.117 84.298C172.344 84.3988 172.52 84.4996 172.655 84.6172C172.789 84.7349 172.899 84.8861 172.999 85.0709C173.1 85.2641 173.142 85.4825 173.142 85.7178C173.142 86.1378 173.025 86.4906 172.789 86.7763C172.554 87.0619 172.268 87.2551 171.932 87.3643C171.596 87.482 171.227 87.5324 170.815 87.5324C170.067 87.5324 169.471 87.3559 169.017 87.0031C168.564 86.6503 168.337 86.121 168.337 85.4237H169.101C169.118 85.9362 169.295 86.3058 169.614 86.5411C169.941 86.7763 170.361 86.8939 170.882 86.8939C171.294 86.8939 171.647 86.8015 171.941 86.6335C172.226 86.4654 172.378 86.1882 172.378 85.8018C172.378 85.617 172.336 85.4657 172.26 85.3397C172.176 85.2137 172.058 85.1129 171.89 85.0289C171.722 84.9449 171.554 84.8861 171.386 84.8357C171.218 84.7853 170.992 84.7265 170.723 84.6676C170.681 84.6592 170.655 84.6508 170.639 84.6424C170.017 84.508 169.614 84.3904 169.429 84.3064C168.841 84.0544 168.555 83.6259 168.555 83.0043C168.555 82.433 168.765 82.0129 169.185 81.7273C169.605 81.4417 170.118 81.2989 170.714 81.2989C171.37 81.2989 171.899 81.4585 172.285 81.7693C172.68 82.0886 172.89 82.5506 172.915 83.1723ZM175.901 82.9371C176.557 82.9371 177.061 83.1387 177.43 83.5419C177.792 83.9368 177.976 84.4912 177.976 85.2053C177.976 85.9446 177.792 86.5159 177.43 86.9191C177.061 87.3307 176.548 87.5324 175.893 87.5324C175.229 87.5324 174.708 87.3307 174.339 86.9275C173.961 86.5243 173.776 85.9698 173.776 85.2473C173.776 84.5416 173.961 83.9788 174.347 83.5587C174.725 83.1471 175.246 82.9371 175.901 82.9371ZM175.885 83.5419C175.464 83.5419 175.128 83.6931 174.885 83.9956C174.633 84.3064 174.515 84.718 174.515 85.2305C174.515 85.7682 174.633 86.1798 174.876 86.4822C175.12 86.7847 175.464 86.9275 175.901 86.9275C176.321 86.9275 176.649 86.7763 176.884 86.4738C177.119 86.1714 177.245 85.7598 177.245 85.2221C177.245 84.7096 177.119 84.298 176.876 83.9956C176.632 83.6931 176.305 83.5419 175.885 83.5419ZM182.557 85.8186C182.49 86.3394 182.296 86.7595 181.96 87.0619C181.624 87.3727 181.196 87.524 180.658 87.524C180.003 87.524 179.499 87.3223 179.138 86.9191C178.785 86.5159 178.6 85.9698 178.6 85.2893C178.6 84.5668 178.793 83.9956 179.163 83.5755C179.541 83.1555 180.045 82.9371 180.683 82.9371C181.221 82.9371 181.641 83.0715 181.96 83.3403C182.279 83.6091 182.473 83.9872 182.523 84.4828H181.784C181.658 83.8528 181.297 83.5419 180.7 83.5419C180.28 83.5419 179.952 83.6931 179.717 83.9956C179.474 84.298 179.356 84.718 179.356 85.2389C179.356 85.7598 179.465 86.1798 179.7 86.4822C179.927 86.7847 180.246 86.9359 180.65 86.9359C180.969 86.9359 181.238 86.8351 181.439 86.6503C181.641 86.457 181.775 86.1798 181.834 85.8186H182.557ZM184.095 81.4165V82.2902H183.373V81.4165H184.095ZM184.095 83.0631V87.3979H183.373V83.0631H184.095ZM189.04 86.8267V87.3895C188.889 87.44 188.73 87.4736 188.553 87.4736C188.142 87.4736 187.932 87.2551 187.923 86.8351C187.511 87.2887 186.991 87.524 186.352 87.524C185.924 87.524 185.588 87.4148 185.336 87.1963C185.084 86.9779 184.966 86.6755 184.966 86.2974C184.966 85.5245 185.478 85.0709 186.503 84.9449C186.571 84.9281 186.663 84.9197 186.797 84.9113C187.285 84.8525 187.579 84.7853 187.696 84.718C187.822 84.6256 187.89 84.4744 187.89 84.256C187.89 83.7771 187.562 83.5419 186.907 83.5419C186.571 83.5419 186.31 83.6091 186.142 83.7435C185.966 83.878 185.865 84.1048 185.831 84.424H185.134C185.142 83.9536 185.31 83.5923 185.63 83.3403C185.949 83.0799 186.386 82.9539 186.949 82.9539C187.554 82.9539 188.007 83.0883 188.31 83.3739C188.402 83.4579 188.469 83.5755 188.52 83.7267C188.562 83.8696 188.587 83.9872 188.595 84.0796C188.595 84.172 188.604 84.3148 188.604 84.4996C188.604 84.7096 188.595 85.0289 188.587 85.4573C188.57 85.8942 188.57 86.2134 188.57 86.4234C188.57 86.5831 188.587 86.6923 188.629 86.7595C188.671 86.8267 188.746 86.8519 188.864 86.8519C188.906 86.8519 188.965 86.8435 189.04 86.8267ZM187.89 85.1549C187.839 85.1885 187.78 85.2221 187.73 85.2557C187.671 85.2809 187.596 85.3061 187.511 85.3229C187.427 85.3397 187.369 85.3481 187.335 85.3565C187.301 85.3649 187.234 85.3733 187.117 85.3901C186.999 85.4069 186.932 85.4153 186.932 85.4153C186.755 85.4321 186.638 85.4489 186.587 85.4573C186.537 85.4657 186.436 85.4909 186.285 85.5329C186.134 85.5665 186.033 85.617 185.974 85.6674C185.907 85.7178 185.848 85.785 185.789 85.8858C185.73 85.9866 185.705 86.1042 185.705 86.2386C185.705 86.457 185.781 86.6335 185.932 86.7679C186.083 86.8939 186.302 86.9611 186.571 86.9611C186.907 86.9611 187.217 86.8603 187.486 86.6587C187.755 86.457 187.89 86.2134 187.89 85.9446V85.1549ZM190.47 81.4165V87.3979H189.747V81.4165H190.47ZM194.048 81.4165H195.14L197.064 86.4822L198.921 81.4165H200.021V87.3979H199.274V82.4078L197.4 87.3979H196.711L194.804 82.4078V87.3979H194.048V81.4165ZM204.937 86.0286C204.718 87.0367 204.088 87.5408 203.047 87.5408C202.408 87.5408 201.904 87.3475 201.543 86.9443C201.182 86.5495 201.005 85.995 201.005 85.2893C201.005 84.592 201.19 84.0292 201.56 83.5923C201.929 83.1555 202.416 82.9371 203.021 82.9371C203.685 82.9371 204.181 83.1639 204.5 83.6175C204.819 84.0712 204.987 84.634 204.987 85.3229V85.4237H201.728L201.719 85.4741C201.719 85.9362 201.837 86.2974 202.08 86.5579C202.316 86.8267 202.652 86.9527 203.072 86.9527C203.383 86.9527 203.626 86.8855 203.811 86.7343C203.996 86.5915 204.139 86.3562 204.239 86.0286H204.937ZM204.248 84.8441C204.214 84.4324 204.088 84.1132 203.87 83.878C203.651 83.6427 203.357 83.5251 203.005 83.5251C202.652 83.5251 202.366 83.6427 202.139 83.878C201.904 84.1132 201.77 84.4408 201.728 84.8441H204.248ZM209.651 81.4165V87.3979H208.979V86.7595C208.701 87.2635 208.222 87.5156 207.55 87.5156C206.929 87.5156 206.441 87.3139 206.08 86.9023C205.719 86.4906 205.543 85.9278 205.543 85.2221C205.543 84.5668 205.711 84.0292 206.047 83.5923C206.383 83.1555 206.878 82.9371 207.517 82.9371C208.138 82.9371 208.609 83.1723 208.937 83.6427V81.4165H209.651ZM207.609 83.5503C207.198 83.5503 206.87 83.7015 206.635 83.9956C206.399 84.298 206.282 84.7012 206.282 85.2053C206.282 85.7346 206.399 86.1546 206.643 86.4654C206.887 86.7763 207.214 86.9275 207.626 86.9275C208.038 86.9275 208.365 86.7847 208.6 86.4822C208.836 86.1798 208.953 85.7682 208.953 85.2305C208.953 84.7601 208.836 84.3568 208.617 84.0376C208.399 83.7183 208.063 83.5503 207.609 83.5503ZM211.48 81.4165V82.2902H210.758V81.4165H211.48ZM211.48 83.0631V87.3979H210.758V83.0631H211.48ZM216.426 86.8267V87.3895C216.274 87.44 216.115 87.4736 215.938 87.4736C215.527 87.4736 215.317 87.2551 215.308 86.8351C214.897 87.2887 214.376 87.524 213.737 87.524C213.309 87.524 212.973 87.4148 212.721 87.1963C212.469 86.9779 212.351 86.6755 212.351 86.2974C212.351 85.5245 212.864 85.0709 213.888 84.9449C213.956 84.9281 214.048 84.9197 214.183 84.9113C214.67 84.8525 214.964 84.7853 215.081 84.718C215.207 84.6256 215.275 84.4744 215.275 84.256C215.275 83.7771 214.947 83.5419 214.292 83.5419C213.956 83.5419 213.695 83.6091 213.527 83.7435C213.351 83.878 213.25 84.1048 213.216 84.424H212.519C212.528 83.9536 212.696 83.5923 213.015 83.3403C213.334 83.0799 213.771 82.9539 214.334 82.9539C214.939 82.9539 215.392 83.0883 215.695 83.3739C215.787 83.4579 215.854 83.5755 215.905 83.7267C215.947 83.8696 215.972 83.9872 215.98 84.0796C215.98 84.172 215.989 84.3148 215.989 84.4996C215.989 84.7096 215.98 85.0289 215.972 85.4573C215.955 85.8942 215.955 86.2134 215.955 86.4234C215.955 86.5831 215.972 86.6923 216.014 86.7595C216.056 86.8267 216.132 86.8519 216.249 86.8519C216.291 86.8519 216.35 86.8435 216.426 86.8267ZM215.275 85.1549C215.224 85.1885 215.165 85.2221 215.115 85.2557C215.056 85.2809 214.981 85.3061 214.897 85.3229C214.813 85.3397 214.754 85.3481 214.72 85.3565C214.687 85.3649 214.619 85.3733 214.502 85.3901C214.384 85.4069 214.317 85.4153 214.317 85.4153C214.141 85.4321 214.023 85.4489 213.972 85.4573C213.922 85.4657 213.821 85.4909 213.67 85.5329C213.519 85.5665 213.418 85.617 213.359 85.6674C213.292 85.7178 213.233 85.785 213.174 85.8858C213.116 85.9866 213.09 86.1042 213.09 86.2386C213.09 86.457 213.166 86.6335 213.317 86.7679C213.468 86.8939 213.687 86.9611 213.956 86.9611C214.292 86.9611 214.603 86.8603 214.871 86.6587C215.14 86.457 215.275 86.2134 215.275 85.9446V85.1549Z" fill="#0A0909"/>
<path d="M229.623 74.1968C229.623 71.1037 232.131 68.5962 235.224 68.5962H322.033C325.127 68.5962 327.634 71.1037 327.634 74.1968V96.5993C327.634 99.6925 325.127 102.2 322.033 102.2H235.224C232.131 102.2 229.623 99.6925 229.623 96.5993V74.1968Z" fill="#01A56D"/>
<rect x="239.985" y="76.8069" width="24.0827" height="17.1827" rx="2.52028" stroke="white" stroke-width="0.560063"/>
<path d="M261.548 94.2412C263.094 94.241 264.347 92.9867 264.348 91.4404V91.1094H239.705V91.4404C239.705 92.9868 240.959 94.2412 242.506 94.2412H261.548ZM243.154 93.1973C242.882 93.1971 242.662 92.9627 242.662 92.6748C242.662 92.3869 242.882 92.1535 243.154 92.1533C243.426 92.1533 243.647 92.3868 243.647 92.6748C243.647 92.9628 243.426 93.1973 243.154 93.1973ZM246.141 93.1963C245.852 93.1963 245.618 92.963 245.618 92.6748C245.618 92.3866 245.852 92.1533 246.141 92.1533H261.361C261.649 92.1535 261.883 92.3867 261.883 92.6748C261.883 92.9628 261.649 93.1961 261.361 93.1963H246.141Z" fill="white"/>
<rect x="255.148" y="80.7017" width="6.89997" height="1.04369" rx="0.521847" fill="white"/>
<rect x="255.148" y="83.311" width="4.92855" height="1.04369" rx="0.521847" fill="white"/>
<rect x="255.148" y="85.9199" width="4.92855" height="1.04369" rx="0.521847" fill="white"/>
<path d="M251.892 79.6582C252.51 79.6582 253.012 80.1597 253.012 80.7783V86.8877C253.012 87.5061 252.51 88.0078 251.892 88.0078H243.782C243.164 88.0078 242.662 87.5061 242.662 86.8877V80.7783C242.662 80.1597 243.164 79.6582 243.782 79.6582H251.892ZM247.581 82.0586C247.208 81.8306 246.729 82.0997 246.729 82.5371V84.6064C246.729 85.0439 247.208 85.3121 247.581 85.084L249.273 84.0498C249.631 83.8314 249.631 83.3121 249.273 83.0938L247.581 82.0586Z" fill="white"/>
<path d="M271.612 81.4165H272.486L274.208 86.6251L275.947 81.4165H276.779L274.645 87.3979H273.738L271.612 81.4165ZM277.911 81.4165V82.2902H277.188V81.4165H277.911ZM277.911 83.0631V87.3979H277.188V83.0631H277.911ZM282.923 81.4165V87.3979H282.251V86.7595C281.974 87.2635 281.495 87.5156 280.823 87.5156C280.201 87.5156 279.714 87.3139 279.353 86.9023C278.992 86.4906 278.815 85.9278 278.815 85.2221C278.815 84.5668 278.983 84.0292 279.319 83.5923C279.655 83.1555 280.151 82.9371 280.79 82.9371C281.411 82.9371 281.882 83.1723 282.209 83.6427V81.4165H282.923ZM280.882 83.5503C280.47 83.5503 280.143 83.7015 279.907 83.9956C279.672 84.298 279.555 84.7012 279.555 85.2053C279.555 85.7346 279.672 86.1546 279.916 86.4654C280.159 86.7763 280.487 86.9275 280.899 86.9275C281.31 86.9275 281.638 86.7847 281.873 86.4822C282.108 86.1798 282.226 85.7682 282.226 85.2305C282.226 84.7601 282.108 84.3568 281.89 84.0376C281.672 83.7183 281.336 83.5503 280.882 83.5503ZM287.702 86.0286C287.483 87.0367 286.853 87.5408 285.811 87.5408C285.173 87.5408 284.669 87.3475 284.308 86.9443C283.946 86.5495 283.77 85.995 283.77 85.2893C283.77 84.592 283.955 84.0292 284.324 83.5923C284.694 83.1555 285.181 82.9371 285.786 82.9371C286.45 82.9371 286.946 83.1639 287.265 83.6175C287.584 84.0712 287.752 84.634 287.752 85.3229V85.4237H284.492L284.484 85.4741C284.484 85.9362 284.602 86.2974 284.845 86.5579C285.081 86.8267 285.417 86.9527 285.837 86.9527C286.147 86.9527 286.391 86.8855 286.576 86.7343C286.761 86.5915 286.904 86.3562 287.004 86.0286H287.702ZM287.013 84.8441C286.979 84.4324 286.853 84.1132 286.635 83.878C286.416 83.6427 286.122 83.5251 285.769 83.5251C285.417 83.5251 285.131 83.6427 284.904 83.878C284.669 84.1132 284.534 84.4408 284.492 84.8441H287.013ZM290.408 82.9371C291.063 82.9371 291.567 83.1387 291.937 83.5419C292.298 83.9368 292.483 84.4912 292.483 85.2053C292.483 85.9446 292.298 86.5159 291.937 86.9191C291.567 87.3307 291.055 87.5324 290.399 87.5324C289.736 87.5324 289.215 87.3307 288.845 86.9275C288.467 86.5243 288.282 85.9698 288.282 85.2473C288.282 84.5416 288.467 83.9788 288.853 83.5587C289.231 83.1471 289.752 82.9371 290.408 82.9371ZM290.391 83.5419C289.971 83.5419 289.635 83.6931 289.391 83.9956C289.139 84.3064 289.021 84.718 289.021 85.2305C289.021 85.7682 289.139 86.1798 289.383 86.4822C289.626 86.7847 289.971 86.9275 290.408 86.9275C290.828 86.9275 291.155 86.7763 291.391 86.4738C291.626 86.1714 291.752 85.7598 291.752 85.2221C291.752 84.7096 291.626 84.298 291.382 83.9956C291.139 83.6931 290.811 83.5419 290.391 83.5419Z" fill="white"/>
<path d="M28.001 108.149H114.811C117.71 108.149 120.062 110.501 120.062 113.4V135.803C120.062 138.703 117.71 141.054 114.811 141.054H28.001C25.1012 141.054 22.75 138.703 22.75 135.803V113.4C22.75 110.501 25.1012 108.149 28.001 108.149Z" fill="white"/>
<path d="M28.001 108.149H114.811C117.71 108.149 120.062 110.501 120.062 113.4V135.803C120.062 138.703 117.71 141.054 114.811 141.054H28.001C25.1012 141.054 22.75 138.703 22.75 135.803V113.4C22.75 110.501 25.1012 108.149 28.001 108.149Z" stroke="#D3D8EB" stroke-width="0.700078"/>
<rect x="32.7625" y="116.011" width="24.0827" height="17.1827" rx="2.52028" stroke="#01A56D" stroke-width="0.560063"/>
<rect x="46.2812" y="121.645" width="6.89997" height="0.98571" rx="0.492855" fill="#01A56D"/>
<rect x="46.2812" y="124.109" width="6.89997" height="0.98571" rx="0.492855" fill="#01A56D"/>
<rect x="46.2812" y="126.574" width="6.89997" height="0.98571" rx="0.492855" fill="#01A56D"/>
<path d="M43.3251 122.826V120.838C43.3251 120.739 43.2505 120.659 43.1583 120.659H40.1215H37.0847C36.9925 120.659 36.918 120.739 36.918 120.838V122.826C36.918 122.925 36.9925 123.005 37.0847 123.005H37.9703C38.0623 123.005 38.1369 122.925 38.1369 122.826V122.145C38.1369 122.046 38.2116 121.966 38.3036 121.966H39.3452C39.4374 121.966 39.512 122.046 39.512 122.145V127.059C39.512 127.158 39.4374 127.238 39.3452 127.238H38.8897C38.7975 127.238 38.7229 127.318 38.7229 127.417V128.366C38.7229 128.465 38.7975 128.545 38.8897 128.545H40.1215H41.3533C41.4455 128.545 41.5201 128.465 41.5201 128.366V127.417C41.5201 127.318 41.4455 127.238 41.3533 127.238H40.8979C40.8057 127.238 40.7311 127.158 40.7311 127.059V122.145C40.7311 122.046 40.8057 121.966 40.8979 121.966H41.9394C42.0314 121.966 42.1062 122.046 42.1062 122.145V122.826C42.1062 122.925 42.1808 123.005 42.2728 123.005H43.1583C43.2505 123.005 43.3251 122.925 43.3251 122.826Z" fill="#01A56D"/>
<path d="M69.304 122.376L68.5311 122.384C68.4471 121.569 67.9514 121.166 67.0441 121.166C66.6157 121.166 66.2797 121.25 66.0444 121.427C65.8092 121.595 65.6916 121.838 65.6916 122.157C65.6916 122.267 65.7084 122.367 65.742 122.451C65.7756 122.536 65.8344 122.603 65.9184 122.67C66.0024 122.737 66.078 122.788 66.1452 122.838C66.2209 122.88 66.3385 122.922 66.4897 122.964C66.6493 123.014 66.7753 123.048 66.8677 123.065C66.9685 123.082 67.1114 123.115 67.313 123.157C67.565 123.208 67.7666 123.258 67.9262 123.3C68.0943 123.342 68.2875 123.409 68.5059 123.502C68.7327 123.602 68.9092 123.703 69.0436 123.821C69.178 123.938 69.2872 124.09 69.388 124.275C69.4888 124.468 69.5308 124.686 69.5308 124.921C69.5308 125.341 69.4132 125.694 69.178 125.98C68.9428 126.266 68.6571 126.459 68.3211 126.568C67.985 126.686 67.6154 126.736 67.2038 126.736C66.4561 126.736 65.8596 126.56 65.406 126.207C64.9523 125.854 64.7255 125.325 64.7255 124.627H65.49C65.5068 125.14 65.6832 125.509 66.0024 125.745C66.3301 125.98 66.7501 126.098 67.271 126.098C67.6826 126.098 68.0355 126.005 68.3295 125.837C68.6151 125.669 68.7663 125.392 68.7663 125.005C68.7663 124.821 68.7243 124.669 68.6487 124.543C68.5647 124.417 68.4471 124.317 68.2791 124.232C68.1111 124.148 67.943 124.09 67.775 124.039C67.607 123.989 67.3802 123.93 67.1114 123.871C67.0693 123.863 67.0441 123.854 67.0273 123.846C66.4057 123.712 66.0024 123.594 65.8176 123.51C65.2295 123.258 64.9439 122.83 64.9439 122.208C64.9439 121.637 65.1539 121.217 65.574 120.931C65.994 120.645 66.5065 120.502 67.103 120.502C67.7582 120.502 68.2875 120.662 68.6739 120.973C69.0688 121.292 69.2788 121.754 69.304 122.376ZM71.1475 120.62V121.494H70.425V120.62H71.1475ZM71.1475 122.267V126.602H70.425V122.267H71.1475ZM72.9258 122.267L72.9174 122.905C73.1106 122.645 73.3122 122.46 73.5307 122.342C73.7491 122.225 74.0179 122.166 74.3287 122.166C74.9252 122.166 75.3285 122.409 75.5385 122.914C75.9081 122.409 76.387 122.157 76.975 122.157C77.4203 122.157 77.7563 122.275 77.9916 122.527C78.2268 122.779 78.3444 123.124 78.3444 123.577V126.61H77.6303V123.88C77.6303 123.518 77.5715 123.25 77.4623 123.065C77.3447 122.88 77.1179 122.796 76.765 122.796C76.0257 122.796 75.6561 123.241 75.6561 124.148V126.61H74.942V123.829C74.942 123.493 74.8832 123.241 74.774 123.065C74.6648 122.888 74.4548 122.804 74.1439 122.804C73.6987 122.804 73.3878 122.939 73.2198 123.208C73.0518 123.476 72.9678 123.846 72.9678 124.308V126.602H72.2537V122.267H72.9258ZM80.0879 122.267V122.88C80.3987 122.384 80.886 122.132 81.5497 122.132C82.1545 122.132 82.6334 122.342 82.9862 122.746C83.3391 123.157 83.5239 123.712 83.5239 124.409C83.5239 125.115 83.3475 125.669 82.9946 126.089C82.6418 126.509 82.1713 126.711 81.5833 126.711C80.9616 126.711 80.4744 126.476 80.1299 125.997V128.273H79.4158V122.267H80.0879ZM81.4405 122.729C81.0204 122.729 80.6928 122.88 80.4576 123.182C80.2223 123.485 80.1047 123.896 80.1047 124.417C80.1047 124.947 80.2223 125.358 80.466 125.661C80.7096 125.963 81.0456 126.114 81.4657 126.114C81.8689 126.114 82.1965 125.963 82.4318 125.661C82.667 125.358 82.7846 124.947 82.7846 124.426C82.7846 123.896 82.6586 123.485 82.4234 123.182C82.1881 122.88 81.8605 122.729 81.4405 122.729ZM85.1518 120.62V126.602H84.4293V120.62H85.1518ZM89.9628 125.232C89.7444 126.24 89.1143 126.744 88.0726 126.744C87.4341 126.744 86.9301 126.551 86.5688 126.148C86.2076 125.753 86.0312 125.199 86.0312 124.493C86.0312 123.796 86.216 123.233 86.5856 122.796C86.9553 122.359 87.4425 122.141 88.0474 122.141C88.7111 122.141 89.2067 122.367 89.526 122.821C89.8452 123.275 90.0132 123.838 90.0132 124.527V124.627H86.7537L86.7453 124.678C86.7453 125.14 86.8629 125.501 87.1065 125.761C87.3417 126.03 87.6778 126.156 88.0978 126.156C88.4086 126.156 88.6523 126.089 88.8371 125.938C89.0219 125.795 89.1647 125.56 89.2655 125.232H89.9628ZM89.2739 124.048C89.2403 123.636 89.1143 123.317 88.8959 123.082C88.6775 122.846 88.3834 122.729 88.0306 122.729C87.6778 122.729 87.3921 122.846 87.1653 123.082C86.9301 123.317 86.7957 123.644 86.7537 124.048H89.2739ZM97.3845 120.62V121.309H95.3766V126.602H94.5869V121.309H92.5791V120.62H97.3845ZM100.702 125.232C100.483 126.24 99.8534 126.744 98.8117 126.744C98.1732 126.744 97.6692 126.551 97.3079 126.148C96.9467 125.753 96.7703 125.199 96.7703 124.493C96.7703 123.796 96.9551 123.233 97.3247 122.796C97.6944 122.359 98.1816 122.141 98.7865 122.141C99.4502 122.141 99.9458 122.367 100.265 122.821C100.584 123.275 100.752 123.838 100.752 124.527V124.627H97.4928L97.4844 124.678C97.4844 125.14 97.602 125.501 97.8456 125.761C98.0808 126.03 98.4169 126.156 98.8369 126.156C99.1477 126.156 99.3914 126.089 99.5762 125.938C99.761 125.795 99.9038 125.56 100.005 125.232H100.702ZM100.013 124.048C99.9794 123.636 99.8534 123.317 99.635 123.082C99.4166 122.846 99.1225 122.729 98.7697 122.729C98.4169 122.729 98.1312 122.846 97.9044 123.082C97.6692 123.317 97.5348 123.644 97.4928 124.048H100.013ZM105.071 122.267L103.559 124.266L105.248 126.602H104.332L103.114 124.821L101.913 126.602H101.047L102.677 124.317L101.173 122.267H102.081L103.131 123.754L104.206 122.267H105.071ZM107.714 122.267V122.855H106.849V125.383C106.849 125.526 106.849 125.619 106.849 125.661C106.849 125.711 106.866 125.77 106.899 125.845C106.924 125.921 106.975 125.971 107.042 125.988C107.109 126.013 107.202 126.022 107.328 126.022C107.428 126.022 107.563 126.013 107.714 125.997V126.61C107.512 126.635 107.328 126.644 107.168 126.644C106.966 126.644 106.798 126.627 106.664 126.576C106.53 126.534 106.42 126.484 106.353 126.425C106.286 126.375 106.236 126.274 106.202 126.131C106.168 125.988 106.143 125.871 106.143 125.77C106.135 125.669 106.135 125.509 106.135 125.274V125.241V125.199V125.157V122.855H105.404V122.267H106.135V120.981H106.849V122.267H107.714Z" fill="#0A0909"/>
<path d="M131.612 108.149H218.422C221.322 108.149 223.673 110.501 223.673 113.4V135.803C223.673 138.703 221.322 141.054 218.422 141.054H131.612C128.713 141.054 126.361 138.703 126.361 135.803V113.4C126.361 110.501 128.713 108.149 131.612 108.149Z" fill="white"/>
<path d="M131.612 108.149H218.422C221.322 108.149 223.673 110.501 223.673 113.4V135.803C223.673 138.703 221.322 141.054 218.422 141.054H131.612C128.713 141.054 126.361 138.703 126.361 135.803V113.4C126.361 110.501 128.713 108.149 131.612 108.149Z" stroke="#D3D8EB" stroke-width="0.700078"/>
<rect x="136.374" y="116.011" width="24.0827" height="17.1827" rx="2.52028" stroke="#01A56D" stroke-width="0.560063"/>
<path d="M157.937 115.731C159.483 115.731 160.736 116.984 160.736 118.531V118.688H136.094V118.531C136.094 116.984 137.348 115.731 138.895 115.731H157.937ZM139.543 116.716C139.271 116.717 139.051 116.937 139.051 117.209C139.051 117.481 139.271 117.701 139.543 117.702C139.815 117.702 140.036 117.482 140.036 117.209C140.036 116.937 139.815 116.716 139.543 116.716ZM141.515 116.716C141.242 116.716 141.021 116.937 141.021 117.209C141.022 117.482 141.243 117.702 141.515 117.702C141.787 117.702 142.008 117.482 142.008 117.209C142.008 116.937 141.787 116.716 141.515 116.716ZM143.485 116.716C143.213 116.716 142.993 116.937 142.993 117.209C142.993 117.481 143.213 117.701 143.485 117.702C143.757 117.702 143.978 117.482 143.979 117.209C143.979 116.937 143.758 116.716 143.485 116.716ZM153.836 116.716C153.564 116.716 153.343 116.937 153.343 117.209C153.343 117.482 153.564 117.702 153.836 117.702H157.778C158.05 117.702 158.271 117.482 158.271 117.209C158.271 116.937 158.051 116.716 157.778 116.716H153.836Z" fill="#01A56D"/>
<rect x="150.387" y="122.63" width="6.89997" height="0.98571" rx="0.492855" fill="#01A56D"/>
<rect x="150.387" y="125.095" width="4.92855" height="0.98571" rx="0.492855" fill="#01A56D"/>
<rect x="150.387" y="127.559" width="4.92855" height="0.98571" rx="0.492855" fill="#01A56D"/>
<g clip-path="url(#clip4_35554_318198)">
<path d="M141.549 123.774L140.866 123.827C140.676 123.841 140.506 123.941 140.401 124.1L139.613 125.292C139.534 125.412 139.521 125.563 139.579 125.695C139.638 125.828 139.758 125.92 139.901 125.942L140.526 126.039C140.673 125.262 141.023 124.488 141.549 123.774Z" fill="#01A56D"/>
<path d="M143.035 128.547L143.132 129.172C143.154 129.315 143.246 129.435 143.379 129.494C143.434 129.518 143.492 129.53 143.55 129.53C143.631 129.53 143.712 129.507 143.782 129.46L144.974 128.672C145.133 128.567 145.233 128.398 145.247 128.208L145.3 127.524C144.586 128.05 143.812 128.401 143.035 128.547Z" fill="#01A56D"/>
<path d="M142.8 128.113C142.822 128.113 142.843 128.112 142.865 128.108C143.191 128.054 143.504 127.962 143.803 127.842L141.232 125.271C141.112 125.57 141.021 125.884 140.966 126.209C140.945 126.337 140.988 126.468 141.08 126.56L142.514 127.994C142.591 128.071 142.694 128.113 142.8 128.113Z" fill="#01A56D"/>
<path d="M146.799 125.141C147.429 123.924 147.452 122.639 147.419 122.036C147.408 121.83 147.243 121.665 147.036 121.654C146.938 121.648 146.822 121.645 146.691 121.645C146.017 121.645 144.95 121.747 143.932 122.273C143.123 122.692 142.062 123.614 141.436 124.825C141.443 124.831 141.45 124.837 141.457 124.843L144.229 127.616C144.236 127.623 144.242 127.63 144.248 127.637C145.459 127.011 146.381 125.95 146.799 125.141ZM144.128 123.312C144.578 122.861 145.311 122.861 145.761 123.312C145.979 123.53 146.099 123.82 146.099 124.128C146.099 124.437 145.979 124.727 145.761 124.945C145.536 125.17 145.24 125.283 144.944 125.283C144.648 125.283 144.353 125.17 144.128 124.945C143.909 124.727 143.789 124.437 143.789 124.128C143.789 123.82 143.909 123.53 144.128 123.312Z" fill="#01A56D"/>
<path d="M144.455 124.618C144.725 124.889 145.165 124.889 145.435 124.618C145.566 124.487 145.638 124.313 145.638 124.128C145.638 123.943 145.566 123.769 145.435 123.638C145.3 123.503 145.123 123.436 144.945 123.436C144.768 123.436 144.59 123.503 144.455 123.638C144.324 123.769 144.252 123.943 144.252 124.128C144.252 124.313 144.324 124.487 144.455 124.618Z" fill="#01A56D"/>
<path d="M139.778 128.143C139.837 128.143 139.896 128.121 139.941 128.075L140.696 127.321C140.786 127.231 140.786 127.085 140.696 126.994C140.605 126.904 140.459 126.904 140.369 126.994L139.615 127.749C139.524 127.839 139.524 127.985 139.615 128.075C139.66 128.121 139.719 128.143 139.778 128.143Z" fill="#01A56D"/>
<path d="M141.388 127.686C141.297 127.596 141.151 127.596 141.061 127.686L139.611 129.136C139.52 129.226 139.52 129.372 139.611 129.463C139.656 129.508 139.715 129.53 139.774 129.53C139.833 129.53 139.892 129.508 139.937 129.463L141.387 128.013C141.478 127.922 141.478 127.776 141.388 127.686Z" fill="#01A56D"/>
<path d="M141.752 128.377L140.997 129.131C140.907 129.221 140.907 129.368 140.997 129.458C141.042 129.503 141.102 129.525 141.161 129.525C141.22 129.525 141.279 129.503 141.324 129.458L142.078 128.703C142.169 128.613 142.169 128.467 142.078 128.377C141.988 128.287 141.842 128.287 141.752 128.377Z" fill="#01A56D"/>
</g>
<path d="M168.681 120.62L171.235 120.628C171.781 120.628 172.235 120.746 172.596 120.99C172.957 121.225 173.142 121.603 173.142 122.124C173.142 122.418 173.058 122.678 172.899 122.914C172.739 123.149 172.529 123.308 172.26 123.409C172.63 123.493 172.907 123.661 173.109 123.93C173.31 124.19 173.411 124.518 173.411 124.913C173.411 126.039 172.655 126.602 171.143 126.602H168.681V120.62ZM169.454 121.301V123.191H170.874C171.034 123.191 171.168 123.182 171.286 123.174C171.403 123.166 171.529 123.149 171.68 123.115C171.823 123.082 171.941 123.031 172.025 122.964C172.109 122.897 172.184 122.804 172.252 122.687C172.319 122.561 172.344 122.409 172.344 122.241C172.344 122.065 172.319 121.914 172.26 121.796C172.21 121.679 172.142 121.586 172.058 121.519C171.983 121.452 171.874 121.41 171.739 121.376C171.605 121.343 171.479 121.317 171.37 121.309C171.26 121.301 171.118 121.301 170.95 121.301H169.454ZM169.454 123.812L169.446 125.946H171.025C171.227 125.946 171.386 125.938 171.504 125.929C171.63 125.921 171.773 125.896 171.924 125.862C172.075 125.82 172.201 125.761 172.285 125.686C172.378 125.61 172.453 125.501 172.512 125.358C172.579 125.215 172.604 125.047 172.604 124.846C172.604 124.678 172.588 124.527 172.546 124.409C172.504 124.283 172.436 124.182 172.336 124.115C172.235 124.039 172.142 123.98 172.058 123.938C171.974 123.888 171.848 123.863 171.689 123.846C171.521 123.829 171.395 123.812 171.311 123.812C171.218 123.812 171.084 123.812 170.899 123.812H169.454ZM177.902 122.267L177.893 126.602H177.23V125.921C176.86 126.459 176.365 126.719 175.734 126.719C175.281 126.719 174.92 126.593 174.668 126.341C174.415 126.089 174.289 125.728 174.289 125.249V122.267H175.004V125.056C175.004 125.4 175.071 125.661 175.205 125.837C175.34 126.013 175.575 126.098 175.919 126.098C176.759 126.098 177.188 125.577 177.188 124.535V122.267H177.902ZM182.192 123.527H181.478C181.427 123.006 181.075 122.737 180.419 122.737C180.142 122.737 179.924 122.796 179.772 122.897C179.613 123.006 179.537 123.149 179.537 123.325C179.537 123.376 179.537 123.426 179.554 123.476C179.562 123.527 179.579 123.569 179.613 123.602C179.646 123.636 179.672 123.67 179.697 123.695C179.722 123.728 179.764 123.754 179.823 123.779C179.882 123.804 179.924 123.821 179.957 123.838C179.991 123.854 180.041 123.88 180.125 123.896C180.209 123.913 180.268 123.93 180.302 123.938C180.335 123.947 180.394 123.964 180.495 123.98C180.596 124.006 180.655 124.022 180.688 124.022C180.89 124.073 181.049 124.106 181.15 124.132C181.251 124.165 181.394 124.216 181.579 124.291C181.763 124.367 181.898 124.443 181.999 124.527C182.091 124.611 182.175 124.72 182.251 124.863C182.326 125.005 182.368 125.165 182.368 125.341C182.368 125.761 182.2 126.106 181.873 126.358C181.545 126.61 181.108 126.736 180.571 126.736C179.982 126.736 179.529 126.61 179.21 126.35C178.89 126.098 178.722 125.719 178.706 125.232H179.411C179.445 125.845 179.84 126.148 180.587 126.148C180.907 126.148 181.159 126.089 181.352 125.955C181.545 125.82 181.646 125.644 181.646 125.425C181.646 125.283 181.595 125.165 181.495 125.064C181.394 124.972 181.276 124.905 181.159 124.863C181.033 124.821 180.856 124.77 180.629 124.711C180.596 124.711 180.571 124.703 180.554 124.695C180.503 124.686 180.394 124.661 180.226 124.627C180.058 124.594 179.94 124.56 179.873 124.535C179.798 124.518 179.688 124.485 179.554 124.434C179.42 124.384 179.319 124.333 179.252 124.283C179.184 124.232 179.109 124.165 179.025 124.081C178.941 123.997 178.89 123.905 178.857 123.796C178.823 123.686 178.806 123.56 178.806 123.418C178.806 123.031 178.949 122.72 179.252 122.485C179.554 122.258 179.957 122.141 180.461 122.141C180.965 122.141 181.385 122.267 181.705 122.502C182.024 122.746 182.192 123.09 182.192 123.527ZM183.931 120.62V121.494H183.208V120.62H183.931ZM183.931 122.267V126.602H183.208V122.267H183.931ZM185.709 122.267V122.939C186.062 122.418 186.558 122.149 187.188 122.149C187.692 122.149 188.061 122.283 188.288 122.552C188.515 122.821 188.633 123.208 188.633 123.72V126.602H187.919V124.048C187.919 123.838 187.91 123.67 187.893 123.552C187.877 123.434 187.843 123.3 187.793 123.166C187.734 123.031 187.641 122.93 187.507 122.863C187.373 122.804 187.196 122.771 186.986 122.771C186.163 122.771 185.751 123.292 185.751 124.333V126.602H185.037V122.267H185.709ZM193.41 125.232C193.192 126.24 192.562 126.744 191.52 126.744C190.881 126.744 190.377 126.551 190.016 126.148C189.655 125.753 189.478 125.199 189.478 124.493C189.478 123.796 189.663 123.233 190.033 122.796C190.403 122.359 190.89 122.141 191.495 122.141C192.158 122.141 192.654 122.367 192.973 122.821C193.292 123.275 193.46 123.838 193.46 124.527V124.627H190.201L190.193 124.678C190.193 125.14 190.31 125.501 190.554 125.761C190.789 126.03 191.125 126.156 191.545 126.156C191.856 126.156 192.1 126.089 192.284 125.938C192.469 125.795 192.612 125.56 192.713 125.232H193.41ZM192.721 124.048C192.688 123.636 192.562 123.317 192.343 123.082C192.125 122.846 191.831 122.729 191.478 122.729C191.125 122.729 190.839 122.846 190.613 123.082C190.377 123.317 190.243 123.644 190.201 124.048H192.721ZM197.435 123.527H196.721C196.671 123.006 196.318 122.737 195.662 122.737C195.385 122.737 195.167 122.796 195.016 122.897C194.856 123.006 194.78 123.149 194.78 123.325C194.78 123.376 194.78 123.426 194.797 123.476C194.806 123.527 194.822 123.569 194.856 123.602C194.89 123.636 194.915 123.67 194.94 123.695C194.965 123.728 195.007 123.754 195.066 123.779C195.125 123.804 195.167 123.821 195.2 123.838C195.234 123.854 195.284 123.88 195.368 123.896C195.452 123.913 195.511 123.93 195.545 123.938C195.578 123.947 195.637 123.964 195.738 123.98C195.839 124.006 195.898 124.022 195.931 124.022C196.133 124.073 196.293 124.106 196.393 124.132C196.494 124.165 196.637 124.216 196.822 124.291C197.007 124.367 197.141 124.443 197.242 124.527C197.334 124.611 197.418 124.72 197.494 124.863C197.569 125.005 197.611 125.165 197.611 125.341C197.611 125.761 197.443 126.106 197.116 126.358C196.788 126.61 196.351 126.736 195.814 126.736C195.226 126.736 194.772 126.61 194.453 126.35C194.133 126.098 193.965 125.719 193.949 125.232H194.654C194.688 125.845 195.083 126.148 195.83 126.148C196.15 126.148 196.402 126.089 196.595 125.955C196.788 125.82 196.889 125.644 196.889 125.425C196.889 125.283 196.839 125.165 196.738 125.064C196.637 124.972 196.519 124.905 196.402 124.863C196.276 124.821 196.099 124.77 195.872 124.711C195.839 124.711 195.814 124.703 195.797 124.695C195.746 124.686 195.637 124.661 195.469 124.627C195.301 124.594 195.184 124.56 195.116 124.535C195.041 124.518 194.932 124.485 194.797 124.434C194.663 124.384 194.562 124.333 194.495 124.283C194.428 124.232 194.352 124.165 194.268 124.081C194.184 123.997 194.133 123.905 194.1 123.796C194.066 123.686 194.049 123.56 194.049 123.418C194.049 123.031 194.192 122.72 194.495 122.485C194.797 122.258 195.2 122.141 195.704 122.141C196.209 122.141 196.629 122.267 196.948 122.502C197.267 122.746 197.435 123.09 197.435 123.527ZM201.636 123.527H200.921C200.871 123.006 200.518 122.737 199.863 122.737C199.586 122.737 199.367 122.796 199.216 122.897C199.056 123.006 198.981 123.149 198.981 123.325C198.981 123.376 198.981 123.426 198.998 123.476C199.006 123.527 199.023 123.569 199.056 123.602C199.09 123.636 199.115 123.67 199.14 123.695C199.166 123.728 199.208 123.754 199.266 123.779C199.325 123.804 199.367 123.821 199.401 123.838C199.434 123.854 199.485 123.88 199.569 123.896C199.653 123.913 199.712 123.93 199.745 123.938C199.779 123.947 199.838 123.964 199.939 123.98C200.039 124.006 200.098 124.022 200.132 124.022C200.333 124.073 200.493 124.106 200.594 124.132C200.695 124.165 200.837 124.216 201.022 124.291C201.207 124.367 201.341 124.443 201.442 124.527C201.535 124.611 201.619 124.72 201.694 124.863C201.77 125.005 201.812 125.165 201.812 125.341C201.812 125.761 201.644 126.106 201.316 126.358C200.989 126.61 200.552 126.736 200.014 126.736C199.426 126.736 198.972 126.61 198.653 126.35C198.334 126.098 198.166 125.719 198.149 125.232H198.855C198.888 125.845 199.283 126.148 200.031 126.148C200.35 126.148 200.602 126.089 200.795 125.955C200.989 125.82 201.089 125.644 201.089 125.425C201.089 125.283 201.039 125.165 200.938 125.064C200.837 124.972 200.72 124.905 200.602 124.863C200.476 124.821 200.3 124.77 200.073 124.711C200.039 124.711 200.014 124.703 199.997 124.695C199.947 124.686 199.838 124.661 199.67 124.627C199.502 124.594 199.384 124.56 199.317 124.535C199.241 124.518 199.132 124.485 198.998 124.434C198.863 124.384 198.762 124.333 198.695 124.283C198.628 124.232 198.552 124.165 198.468 124.081C198.384 123.997 198.334 123.905 198.3 123.796C198.267 123.686 198.25 123.56 198.25 123.418C198.25 123.031 198.393 122.72 198.695 122.485C198.998 122.258 199.401 122.141 199.905 122.141C200.409 122.141 200.829 122.267 201.148 122.502C201.467 122.746 201.636 123.09 201.636 123.527Z" fill="#0A0909"/>
<path d="M235.224 108.149H322.033C324.933 108.149 327.284 110.501 327.284 113.4V135.803C327.284 138.703 324.933 141.054 322.033 141.054H235.224C232.324 141.054 229.973 138.703 229.973 135.803V113.4C229.973 110.501 232.324 108.149 235.224 108.149Z" fill="white"/>
<path d="M235.224 108.149H322.033C324.933 108.149 327.284 110.501 327.284 113.4V135.803C327.284 138.703 324.933 141.054 322.033 141.054H235.224C232.324 141.054 229.973 138.703 229.973 135.803V113.4C229.973 110.501 232.324 108.149 235.224 108.149Z" stroke="#D3D8EB" stroke-width="0.700078"/>
<rect x="239.985" y="116.011" width="24.0827" height="17.1827" rx="2.52028" stroke="#01A56D" stroke-width="0.560063"/>
<path d="M261.548 115.731C263.094 115.731 264.348 116.984 264.348 118.531V118.688H239.705V118.531C239.705 116.984 240.959 115.731 242.506 115.731H261.548ZM243.154 116.716C242.882 116.717 242.662 116.937 242.662 117.209C242.662 117.481 242.882 117.701 243.154 117.702C243.426 117.702 243.647 117.482 243.647 117.209C243.647 116.937 243.426 116.716 243.154 116.716ZM245.126 116.716C244.854 116.716 244.633 116.937 244.633 117.209C244.633 117.482 244.854 117.702 245.126 117.702C245.398 117.702 245.619 117.482 245.619 117.209C245.619 116.937 245.398 116.716 245.126 116.716ZM247.097 116.716C246.825 116.716 246.604 116.937 246.604 117.209C246.605 117.481 246.825 117.701 247.097 117.702C247.369 117.702 247.59 117.482 247.59 117.209C247.59 116.937 247.369 116.716 247.097 116.716ZM257.447 116.716C257.175 116.716 256.954 116.937 256.954 117.209C256.954 117.482 257.175 117.702 257.447 117.702H261.39C261.662 117.702 261.883 117.482 261.883 117.209C261.883 116.937 261.662 116.716 261.39 116.716H257.447Z" fill="#01A56D"/>
<rect x="253.998" y="122.63" width="6.89997" height="0.98571" rx="0.492855" fill="#01A56D"/>
<rect x="253.998" y="125.095" width="4.92855" height="0.98571" rx="0.492855" fill="#01A56D"/>
<rect x="253.998" y="127.559" width="4.92855" height="0.98571" rx="0.492855" fill="#01A56D"/>
<g clip-path="url(#clip5_35554_318198)">
<path d="M247.097 121.645C246.317 121.645 245.555 121.876 244.907 122.309C244.258 122.742 243.753 123.358 243.454 124.079C243.156 124.799 243.078 125.592 243.23 126.357C243.382 127.121 243.758 127.824 244.309 128.375C244.861 128.927 245.563 129.302 246.328 129.454C247.093 129.607 247.886 129.529 248.606 129.23C249.326 128.932 249.942 128.426 250.375 127.778C250.809 127.129 251.04 126.367 251.04 125.587C251.04 124.542 250.625 123.539 249.885 122.799C249.146 122.06 248.143 121.645 247.097 121.645ZM248.219 124.21C248.219 124.285 248.188 124.314 248.115 124.314C247.975 124.314 247.836 124.314 247.697 124.32C247.558 124.326 247.482 124.389 247.482 124.534C247.479 124.69 247.482 124.842 247.482 125.001H248.079C248.164 125.001 248.193 125.03 248.193 125.116C248.193 125.323 248.193 125.532 248.193 125.741C248.193 125.826 248.166 125.852 248.081 125.853H247.477V127.541C247.477 127.631 247.449 127.66 247.36 127.66H246.71C246.632 127.66 246.601 127.629 246.601 127.551V125.856H246.085C246.005 125.856 245.976 125.826 245.976 125.745C245.976 125.535 245.976 125.325 245.976 125.115C245.976 125.034 246.006 125.004 246.086 125.004H246.601V124.55C246.595 124.346 246.644 124.144 246.743 123.966C246.846 123.785 247.01 123.649 247.206 123.581C247.333 123.534 247.468 123.511 247.603 123.512H248.113C248.186 123.512 248.217 123.544 248.217 123.616C248.219 123.816 248.219 124.013 248.219 124.21Z" fill="#01A56D"/>
</g>
<path d="M276.233 120.62V121.309H273.091V123.174H275.863V123.838H273.091V126.602H272.301V120.62H276.233ZM280.83 126.03V126.593C280.679 126.644 280.519 126.677 280.343 126.677C279.931 126.677 279.721 126.459 279.712 126.039C279.301 126.492 278.78 126.728 278.141 126.728C277.713 126.728 277.377 126.618 277.125 126.4C276.873 126.182 276.755 125.879 276.755 125.501C276.755 124.728 277.268 124.275 278.293 124.148C278.36 124.132 278.452 124.123 278.587 124.115C279.074 124.056 279.368 123.989 279.486 123.922C279.612 123.829 279.679 123.678 279.679 123.46C279.679 122.981 279.351 122.746 278.696 122.746C278.36 122.746 278.099 122.813 277.931 122.947C277.755 123.082 277.654 123.308 277.621 123.628H276.923C276.932 123.157 277.1 122.796 277.419 122.544C277.738 122.283 278.175 122.157 278.738 122.157C279.343 122.157 279.796 122.292 280.099 122.578C280.191 122.662 280.259 122.779 280.309 122.93C280.351 123.073 280.376 123.191 280.385 123.283C280.385 123.376 280.393 123.518 280.393 123.703C280.393 123.913 280.385 124.232 280.376 124.661C280.359 125.098 280.359 125.417 280.359 125.627C280.359 125.787 280.376 125.896 280.418 125.963C280.46 126.03 280.536 126.056 280.653 126.056C280.695 126.056 280.754 126.047 280.83 126.03ZM279.679 124.359C279.628 124.392 279.57 124.426 279.519 124.459C279.46 124.485 279.385 124.51 279.301 124.527C279.217 124.543 279.158 124.552 279.124 124.56C279.091 124.569 279.024 124.577 278.906 124.594C278.788 124.611 278.721 124.619 278.721 124.619C278.545 124.636 278.427 124.653 278.377 124.661C278.326 124.669 278.225 124.695 278.074 124.737C277.923 124.77 277.822 124.821 277.763 124.871C277.696 124.921 277.637 124.989 277.579 125.089C277.52 125.19 277.495 125.308 277.495 125.442C277.495 125.661 277.57 125.837 277.721 125.971C277.873 126.098 278.091 126.165 278.36 126.165C278.696 126.165 279.007 126.064 279.276 125.862C279.544 125.661 279.679 125.417 279.679 125.148V124.359ZM285.233 125.022C285.166 125.543 284.972 125.963 284.636 126.266C284.3 126.576 283.872 126.728 283.334 126.728C282.679 126.728 282.175 126.526 281.814 126.123C281.461 125.719 281.276 125.173 281.276 124.493C281.276 123.77 281.469 123.199 281.839 122.779C282.217 122.359 282.721 122.141 283.359 122.141C283.897 122.141 284.317 122.275 284.636 122.544C284.956 122.813 285.149 123.191 285.199 123.686H284.46C284.334 123.056 283.973 122.746 283.376 122.746C282.956 122.746 282.628 122.897 282.393 123.199C282.15 123.502 282.032 123.922 282.032 124.443C282.032 124.963 282.141 125.383 282.376 125.686C282.603 125.988 282.923 126.14 283.326 126.14C283.645 126.14 283.914 126.039 284.115 125.854C284.317 125.661 284.451 125.383 284.51 125.022H285.233ZM289.72 125.232C289.501 126.24 288.871 126.744 287.83 126.744C287.191 126.744 286.687 126.551 286.326 126.148C285.965 125.753 285.788 125.199 285.788 124.493C285.788 123.796 285.973 123.233 286.343 122.796C286.712 122.359 287.2 122.141 287.804 122.141C288.468 122.141 288.964 122.367 289.283 122.821C289.602 123.275 289.77 123.838 289.77 124.527V124.627H286.511L286.502 124.678C286.502 125.14 286.62 125.501 286.863 125.761C287.099 126.03 287.435 126.156 287.855 126.156C288.166 126.156 288.409 126.089 288.594 125.938C288.779 125.795 288.922 125.56 289.023 125.232H289.72ZM289.031 124.048C288.997 123.636 288.871 123.317 288.653 123.082C288.434 122.846 288.14 122.729 287.788 122.729C287.435 122.729 287.149 122.846 286.922 123.082C286.687 123.317 286.553 123.644 286.511 124.048H289.031ZM291.233 120.62V122.863C291.544 122.393 292.023 122.149 292.669 122.149C293.258 122.149 293.736 122.359 294.089 122.771C294.442 123.182 294.627 123.728 294.627 124.417C294.627 125.123 294.442 125.677 294.081 126.098C293.711 126.518 293.232 126.728 292.627 126.728C291.939 126.728 291.46 126.476 291.191 125.971V126.602H290.519V120.62H291.233ZM292.56 122.754C292.098 122.754 291.754 122.922 291.535 123.25C291.317 123.586 291.208 123.989 291.208 124.468C291.208 124.98 291.325 125.383 291.569 125.686C291.813 125.988 292.14 126.131 292.56 126.131C292.955 126.131 293.274 125.98 293.518 125.669C293.762 125.358 293.888 124.947 293.888 124.426C293.888 123.922 293.762 123.51 293.526 123.208C293.283 122.905 292.963 122.754 292.56 122.754ZM297.406 122.141C298.061 122.141 298.565 122.342 298.935 122.746C299.296 123.14 299.481 123.695 299.481 124.409C299.481 125.148 299.296 125.719 298.935 126.123C298.565 126.534 298.053 126.736 297.397 126.736C296.734 126.736 296.213 126.534 295.843 126.131C295.465 125.728 295.28 125.173 295.28 124.451C295.28 123.745 295.465 123.182 295.852 122.762C296.23 122.351 296.75 122.141 297.406 122.141ZM297.389 122.746C296.969 122.746 296.633 122.897 296.389 123.199C296.137 123.51 296.02 123.922 296.02 124.434C296.02 124.972 296.137 125.383 296.381 125.686C296.624 125.988 296.969 126.131 297.406 126.131C297.826 126.131 298.153 125.98 298.389 125.677C298.624 125.375 298.75 124.963 298.75 124.426C298.75 123.913 298.624 123.502 298.38 123.199C298.137 122.897 297.809 122.746 297.389 122.746ZM302.23 122.141C302.885 122.141 303.389 122.342 303.759 122.746C304.12 123.14 304.305 123.695 304.305 124.409C304.305 125.148 304.12 125.719 303.759 126.123C303.389 126.534 302.877 126.736 302.221 126.736C301.558 126.736 301.037 126.534 300.667 126.131C300.289 125.728 300.104 125.173 300.104 124.451C300.104 123.745 300.289 123.182 300.675 122.762C301.054 122.351 301.574 122.141 302.23 122.141ZM302.213 122.746C301.793 122.746 301.457 122.897 301.213 123.199C300.961 123.51 300.843 123.922 300.843 124.434C300.843 124.972 300.961 125.383 301.205 125.686C301.448 125.988 301.793 126.131 302.23 126.131C302.65 126.131 302.977 125.98 303.213 125.677C303.448 125.375 303.574 124.963 303.574 124.426C303.574 123.913 303.448 123.502 303.204 123.199C302.961 122.897 302.633 122.746 302.213 122.746ZM308.801 122.267L307.079 123.838L308.927 126.602H308.02L306.533 124.333L305.852 124.963V126.602H305.155V120.62H305.852V124.157L307.843 122.267H308.801Z" fill="#0A0909"/>
<path d="M28.001 147.354H114.811C117.71 147.354 120.062 149.705 120.062 152.604V175.007C120.062 177.907 117.71 180.258 114.811 180.258H28.001C25.1012 180.258 22.75 177.907 22.75 175.007V152.604C22.75 149.705 25.1012 147.354 28.001 147.354Z" fill="white"/>
<path d="M28.001 147.354H114.811C117.71 147.354 120.062 149.705 120.062 152.604V175.007C120.062 177.907 117.71 180.258 114.811 180.258H28.001C25.1012 180.258 22.75 177.907 22.75 175.007V152.604C22.75 149.705 25.1012 147.354 28.001 147.354Z" stroke="#D3D8EB" stroke-width="0.700078"/>
<path d="M52.7842 161.666C52.9767 161.473 53.289 161.473 53.4814 161.666C53.6738 161.858 53.6739 162.17 53.4814 162.363L50.0918 165.752H48.6973L52.7842 161.666Z" fill="#01A56D"/>
<path d="M35.7891 161.666C35.9815 161.473 36.2929 161.473 36.4854 161.666L40.5732 165.752H39.1787L35.7891 162.362C35.5966 162.169 35.5966 161.858 35.7891 161.666Z" fill="#01A56D"/>
<g clip-path="url(#clip6_35554_318198)">
<path d="M44.8236 161.844C45.3324 161.844 45.7448 161.432 45.7448 160.923C45.7448 160.414 45.3324 160.002 44.8236 160.002C44.3148 160.002 43.9023 160.414 43.9023 160.923C43.9023 161.432 44.3148 161.844 44.8236 161.844Z" fill="#01A56D"/>
<path d="M47.0251 158.704C47.0114 158.69 46.997 158.677 46.983 158.664L46.9416 158.625C46.9347 158.618 46.9271 158.613 46.9184 158.606C45.7272 157.524 43.904 157.567 42.7671 158.704L42.6338 158.837L42.4492 159.022C42.2244 159.247 42.2256 159.613 42.4508 159.838C42.6763 160.064 43.0428 160.065 43.2672 159.84L43.5854 159.522C44.3084 158.799 45.4845 158.799 46.2071 159.521L46.4369 159.744C46.6594 159.966 47.0224 159.966 47.2461 159.742C47.3543 159.634 47.414 159.49 47.4143 159.337C47.4147 159.185 47.3559 159.041 47.2476 158.933L47.0251 158.704Z" fill="#01A56D"/>
<path d="M48.594 157.565L48.4026 157.374C48.4019 157.373 48.4015 157.372 48.4 157.371L48.2488 157.219C48.2223 157.193 48.1934 157.17 48.163 157.151C46.2214 155.446 43.2682 155.498 41.3885 157.307C41.3793 157.315 41.3691 157.321 41.36 157.33L41.0144 157.676C40.8094 157.881 40.8105 158.214 41.0167 158.42C41.2225 158.626 41.5555 158.627 41.7606 158.422L42.1062 158.076C42.1084 158.073 42.1103 158.071 42.1126 158.069C43.6327 156.6 46.0441 156.591 47.5763 158.039L47.8482 158.311C48.0529 158.516 48.3867 158.515 48.5925 158.309C48.7979 158.103 48.7987 157.77 48.594 157.565Z" fill="#01A56D"/>
</g>
<rect x="35.2273" y="165.565" width="19.1541" height="5.3542" rx="1.96022" stroke="#01A56D" stroke-width="0.560063"/>
<circle cx="38.3972" cy="168.242" r="0.492855" fill="#01A56D"/>
<circle cx="40.3679" cy="168.242" r="0.492855" fill="#01A56D"/>
<circle cx="42.3405" cy="168.242" r="0.492855" fill="#01A56D"/>
<rect x="47.2676" y="167.749" width="4.92855" height="0.98571" rx="0.492855" fill="#01A56D"/>
<rect x="52.6914" y="170.706" width="1.97142" height="0.98571" rx="0.492855" transform="rotate(90 52.6914 170.706)" fill="#01A56D"/>
<rect x="37.9062" y="170.706" width="1.97142" height="0.98571" rx="0.492855" transform="rotate(90 37.9062 170.706)" fill="#01A56D"/>
<path d="M64.5239 159.824H65.3388L66.5233 164.823L67.8758 159.824H68.7411L70.0769 164.823L71.3034 159.824H72.0931L70.4969 165.806H69.6652L68.2875 160.799L66.8929 165.806H66.0612L64.5239 159.824ZM73.4774 159.824V160.698H72.7549V159.824H73.4774ZM73.4774 161.471V165.806H72.7549V161.471H73.4774ZM76.9023 163.117V163.823H74.4576V163.117H76.9023ZM81.9149 159.824V160.513H78.773V162.378H81.5453V163.042H78.773V165.806H77.9833V159.824H81.9149ZM83.4289 159.824V160.698H82.7064V159.824H83.4289ZM83.4289 161.471V165.806H82.7064V161.471H83.4289Z" fill="#0A0909"/>
<path d="M131.612 147.354H218.422C221.322 147.354 223.673 149.705 223.673 152.604V175.007C223.673 177.907 221.322 180.258 218.422 180.258H131.612C128.713 180.258 126.361 177.907 126.361 175.007V152.604C126.361 149.705 128.713 147.354 131.612 147.354Z" fill="white"/>
<path d="M131.612 147.354H218.422C221.322 147.354 223.673 149.705 223.673 152.604V175.007C223.673 177.907 221.322 180.258 218.422 180.258H131.612C128.713 180.258 126.361 177.907 126.361 175.007V152.604C126.361 149.705 128.713 147.354 131.612 147.354Z" stroke="#D3D8EB" stroke-width="0.700078"/>
<rect x="141.302" y="154.721" width="13.7327" height="18.1684" rx="2.52028" stroke="#01A56D" stroke-width="0.560063"/>
<rect x="143.766" y="158.172" width="3.66441" height="3.66441" rx="1.40016" fill="#01A56D" stroke="#01A56D" stroke-width="0.560063"/>
<rect x="143.766" y="163.382" width="3.66441" height="3.66441" rx="1.40016" stroke="#01A56D" stroke-width="0.560063"/>
<rect x="148.977" y="158.172" width="3.66441" height="3.66441" rx="1.40016" stroke="#01A56D" stroke-width="0.560063"/>
<rect x="148.977" y="163.382" width="3.66441" height="3.66441" rx="1.40016" stroke="#01A56D" stroke-width="0.560063"/>
<rect x="146.443" y="169.227" width="3.94284" height="0.98571" rx="0.492855" fill="#01A56D"/>
<path d="M171.193 159.824L173.529 165.806H172.646L171.983 163.974H169.471L168.79 165.806H167.95L170.303 159.824H171.193ZM171.748 163.344L170.731 160.58L169.698 163.344H171.748ZM174.675 161.471V162.084C174.986 161.588 175.473 161.336 176.137 161.336C176.741 161.336 177.22 161.546 177.573 161.95C177.926 162.361 178.111 162.916 178.111 163.613C178.111 164.319 177.934 164.873 177.582 165.293C177.229 165.713 176.758 165.915 176.17 165.915C175.548 165.915 175.061 165.68 174.717 165.201V167.477H174.003V161.471H174.675ZM176.027 161.933C175.607 161.933 175.28 162.084 175.044 162.386C174.809 162.689 174.692 163.101 174.692 163.621C174.692 164.151 174.809 164.562 175.053 164.865C175.296 165.167 175.633 165.318 176.053 165.318C176.456 165.318 176.783 165.167 177.019 164.865C177.254 164.562 177.371 164.151 177.371 163.63C177.371 163.101 177.245 162.689 177.01 162.386C176.775 162.084 176.447 161.933 176.027 161.933ZM179.655 161.471V162.084C179.965 161.588 180.453 161.336 181.116 161.336C181.721 161.336 182.2 161.546 182.553 161.95C182.906 162.361 183.091 162.916 183.091 163.613C183.091 164.319 182.914 164.873 182.561 165.293C182.209 165.713 181.738 165.915 181.15 165.915C180.528 165.915 180.041 165.68 179.697 165.201V167.477H178.983V161.471H179.655ZM181.007 161.933C180.587 161.933 180.26 162.084 180.024 162.386C179.789 162.689 179.671 163.101 179.671 163.621C179.671 164.151 179.789 164.562 180.033 164.865C180.276 165.167 180.612 165.318 181.032 165.318C181.436 165.318 181.763 165.167 181.999 164.865C182.234 164.562 182.351 164.151 182.351 163.63C182.351 163.101 182.225 162.689 181.99 162.386C181.755 162.084 181.427 161.933 181.007 161.933Z" fill="#0A0909"/>
<path d="M235.224 147.354H322.033C324.933 147.354 327.284 149.705 327.284 152.604V175.007C327.284 177.907 324.933 180.258 322.033 180.258H235.224C232.324 180.258 229.973 177.907 229.973 175.007V152.604C229.973 149.705 232.324 147.354 235.224 147.354Z" fill="white"/>
<path d="M235.224 147.354H322.033C324.933 147.354 327.284 149.705 327.284 152.604V175.007C327.284 177.907 324.933 180.258 322.033 180.258H235.224C232.324 180.258 229.973 177.907 229.973 175.007V152.604C229.973 149.705 232.324 147.354 235.224 147.354Z" stroke="#D3D8EB" stroke-width="0.700078"/>
<rect x="244.915" y="154.721" width="14.2256" height="18.1684" rx="2.52028" stroke="#01A56D" stroke-width="0.560063"/>
<rect x="243.928" y="159.157" width="1.90421" height="1.41136" rx="0.705679" fill="#01A56D" stroke="#01A56D" stroke-width="0.560063"/>
<rect x="243.928" y="163.1" width="1.90421" height="1.41136" rx="0.705679" fill="#01A56D" stroke="#01A56D" stroke-width="0.560063"/>
<rect x="243.928" y="167.043" width="1.90421" height="1.41136" rx="0.705679" fill="#01A56D" stroke="#01A56D" stroke-width="0.560063"/>
<rect x="248.084" y="165.284" width="5.12569" height="0.98571" rx="0.492855" fill="#01A56D"/>
<rect x="254.393" y="165.284" width="1.57714" height="0.98571" rx="0.492855" fill="#01A56D"/>
<rect x="248.084" y="167.749" width="5.12569" height="0.98571" rx="0.492855" fill="#01A56D"/>
<rect x="254.393" y="167.749" width="1.57714" height="0.98571" rx="0.492855" fill="#01A56D"/>
<rect x="248.364" y="159.157" width="7.32562" height="3.87563" rx="0.280031" fill="#01A56D" stroke="#01A56D" stroke-width="0.560063"/>
<path d="M272.301 159.824H273.393L275.317 164.89L277.174 159.824H278.274V165.806H277.526V160.816L275.653 165.806H274.964L273.057 160.816V165.806H272.301V159.824ZM283.189 164.436C282.971 165.444 282.341 165.948 281.299 165.948C280.661 165.948 280.157 165.755 279.795 165.352C279.434 164.957 279.258 164.403 279.258 163.697C279.258 163 279.443 162.437 279.812 162C280.182 161.563 280.669 161.345 281.274 161.345C281.938 161.345 282.433 161.572 282.753 162.025C283.072 162.479 283.24 163.042 283.24 163.731V163.831H279.98L279.972 163.882C279.972 164.344 280.089 164.705 280.333 164.966C280.568 165.234 280.904 165.36 281.324 165.36C281.635 165.36 281.879 165.293 282.064 165.142C282.248 164.999 282.391 164.764 282.492 164.436H283.189ZM282.501 163.252C282.467 162.84 282.341 162.521 282.122 162.286C281.904 162.05 281.61 161.933 281.257 161.933C280.904 161.933 280.619 162.05 280.392 162.286C280.157 162.521 280.022 162.849 279.98 163.252H282.501ZM284.669 161.471V162.143C285.022 161.622 285.517 161.353 286.147 161.353C286.651 161.353 287.021 161.488 287.248 161.756C287.475 162.025 287.592 162.412 287.592 162.924V165.806H286.878V163.252C286.878 163.042 286.87 162.874 286.853 162.756C286.836 162.639 286.803 162.504 286.752 162.37C286.693 162.235 286.601 162.134 286.467 162.067C286.332 162.008 286.156 161.975 285.946 161.975C285.123 161.975 284.711 162.496 284.711 163.537V165.806H283.997V161.471H284.669ZM292.26 161.471L292.252 165.806H291.588V165.125C291.219 165.663 290.723 165.923 290.093 165.923C289.639 165.923 289.278 165.797 289.026 165.545C288.774 165.293 288.648 164.932 288.648 164.453V161.471H289.362V164.26C289.362 164.604 289.429 164.865 289.564 165.041C289.698 165.218 289.933 165.302 290.278 165.302C291.118 165.302 291.546 164.781 291.546 163.739V161.471H292.26Z" fill="#0A0909"/>
<path d="M311.049 86.5372C310.839 86.7256 310.666 86.9512 310.538 87.2026C310.018 86.8838 309.392 86.7847 308.798 86.9272C308.205 87.0697 307.692 87.442 307.373 87.9623C307.337 88.0221 307.303 88.0824 307.273 88.1447C306.742 87.8438 306.113 87.7662 305.524 87.9288C304.936 88.0914 304.437 88.4811 304.136 89.012L302.505 87.1988C302.095 86.7481 301.524 86.478 300.915 86.4474C300.307 86.4169 299.712 86.6284 299.259 87.0357C298.806 87.443 298.533 88.013 298.5 88.6211C298.466 89.2292 298.674 89.8258 299.08 90.2806L305.742 97.685L304.181 97.2957L304.149 97.2906C303.457 97.1793 302.749 97.3396 302.173 97.7379C301.597 98.1362 301.197 98.7417 301.057 99.428C300.917 100.114 301.047 100.828 301.421 101.42C301.795 102.013 302.383 102.438 303.063 102.606L310.271 104.623L310.298 104.63C311.173 104.842 312.086 104.836 312.958 104.616C313.83 104.395 314.635 103.964 315.303 103.362L318.648 100.353C319.809 99.3064 320.507 97.8423 320.59 96.2817C320.672 94.721 320.132 93.1914 319.088 92.0284L314.303 86.7089C313.894 86.2551 313.322 85.9822 312.712 85.95C312.102 85.9178 311.503 86.129 311.049 86.5372Z" fill="white"/>
<path d="M311.048 86.5386C310.838 86.7274 310.665 86.9532 310.537 87.2047C310.28 87.0467 309.993 86.9411 309.695 86.8938C309.396 86.8465 309.091 86.8585 308.798 86.929C308.504 86.9996 308.227 87.1273 307.982 87.305C307.738 87.4827 307.53 87.7067 307.373 87.9644C307.337 88.0236 307.303 88.0839 307.272 88.1462C307.009 87.9971 306.719 87.9013 306.419 87.8643C306.12 87.8272 305.815 87.8495 305.524 87.9301C305.233 88.0106 304.96 88.1478 304.722 88.3337C304.484 88.5195 304.284 88.7506 304.135 89.0135L302.505 87.2003C302.303 86.9736 302.058 86.7891 301.785 86.6573C301.511 86.5255 301.214 86.449 300.911 86.4323C300.608 86.4155 300.305 86.4588 300.019 86.5597C299.732 86.6605 299.469 86.8169 299.243 87.0199C299.018 87.2229 298.834 87.4685 298.704 87.7426C298.574 88.0167 298.499 88.3138 298.483 88.6169C298.468 88.9201 298.513 89.2232 298.615 89.509C298.718 89.7947 298.875 90.0574 299.079 90.282L305.741 97.6865L304.181 97.2971L304.148 97.2915C303.456 97.1802 302.749 97.3404 302.173 97.7387C301.596 98.137 301.196 98.7426 301.056 99.4288C300.916 100.115 301.047 100.829 301.421 101.421C301.794 102.014 302.383 102.438 303.062 102.607L310.27 104.625L310.298 104.632C311.172 104.843 312.085 104.838 312.957 104.617C313.828 104.396 314.634 103.966 315.302 103.364L318.647 100.354C319.808 99.3078 320.506 97.8437 320.589 96.2831C320.671 94.7226 320.131 93.193 319.088 92.0298L314.301 86.7097C313.892 86.2562 313.32 85.9835 312.71 85.9514C312.1 85.9194 311.502 86.1305 311.048 86.5386ZM317.918 93.0833C318.683 93.9356 319.079 95.0566 319.018 96.2003C318.958 97.3441 318.446 98.4171 317.595 99.1839L314.251 102.193C313.774 102.623 313.2 102.931 312.578 103.09C311.956 103.249 311.305 103.255 310.68 103.107L303.474 101.088L303.447 101.081C303.162 101.012 302.915 100.837 302.756 100.591C302.597 100.346 302.539 100.049 302.593 99.7611C302.647 99.4736 302.809 99.2178 303.047 99.0466C303.284 98.8754 303.578 98.8019 303.867 98.8412L310.361 100.465L300.25 89.228C300.186 89.1568 300.136 89.0736 300.104 88.9834C300.073 88.8931 300.059 88.7974 300.064 88.7018C300.069 88.6061 300.093 88.5124 300.134 88.426C300.175 88.3396 300.233 88.2621 300.304 88.1981C300.375 88.134 300.459 88.0846 300.549 88.0527C300.639 88.0208 300.735 88.0069 300.83 88.012C300.926 88.017 301.02 88.0409 301.106 88.0821C301.193 88.1234 301.27 88.1813 301.334 88.2525L306.595 94.1015L307.764 93.05L305.595 90.6393C305.531 90.5681 305.482 90.485 305.45 90.3947C305.418 90.3044 305.404 90.2087 305.409 90.1131C305.414 90.0174 305.438 89.9237 305.479 89.8373C305.52 89.7509 305.578 89.6735 305.65 89.6094C305.721 89.5454 305.804 89.496 305.894 89.464C305.984 89.4321 306.08 89.4183 306.176 89.4233C306.271 89.4284 306.365 89.4522 306.452 89.4935C306.538 89.5347 306.615 89.5926 306.679 89.6638L308.848 92.0745L310.017 91.0229L308.791 89.66C308.727 89.5888 308.677 89.5057 308.645 89.4154C308.613 89.3252 308.6 89.2295 308.605 89.1338C308.61 89.0382 308.634 88.9445 308.675 88.8581C308.716 88.7717 308.774 88.6942 308.845 88.6302C308.916 88.5661 308.999 88.5167 309.09 88.4848C309.18 88.4528 309.276 88.439 309.371 88.4441C309.467 88.4491 309.561 88.473 309.647 88.5142C309.734 88.5555 309.811 88.6134 309.875 88.6846L311.101 90.0475L312.271 88.9959L312.043 88.7443C311.914 88.6005 311.847 88.4112 311.857 88.2181C311.867 88.025 311.954 87.8438 312.097 87.7144C312.241 87.5851 312.43 87.5181 312.624 87.5283C312.817 87.5385 312.998 87.6251 313.127 87.7688L317.913 93.089L317.918 93.0833Z" fill="#0A0909"/>
<path d="M297.272 83.5657L296.102 84.6191L297.559 86.2379L298.729 85.1844L297.272 83.5657Z" fill="#0A0909"/>
<path d="M299.716 82.5996L299.703 84.7778L301.278 84.7873L301.291 82.609L299.716 82.5996Z" fill="#0A0909"/>
<path d="M303.743 83.5538L302.266 85.1553L303.423 86.2227L304.9 84.6212L303.743 83.5538Z" fill="#0A0909"/>
<path d="M294.855 86.9984L294.699 88.5649L296.867 88.7806L297.022 87.2141L294.855 86.9984Z" fill="#0A0909"/>
<path d="M297.123 89.8199L295.375 91.1201L296.315 92.384L298.063 91.0838L297.123 89.8199Z" fill="#0A0909"/>
<defs>
<clipPath id="clip0_35554_318198">
<rect width="6.89997" height="6.89997" fill="white" transform="translate(39.875 49.1519)"/>
</clipPath>
<clipPath id="clip1_35554_318198">
<rect width="5.91426" height="5.91426" fill="white" transform="translate(145.459 40.7729)"/>
</clipPath>
<clipPath id="clip2_35554_318198">
<rect width="5.42141" height="5.42141" fill="white" transform="translate(149.4 77.5122)"/>
</clipPath>
<clipPath id="clip3_35554_318198">
<rect width="3.44999" height="3.44999" fill="white" transform="translate(148.414 89.3403)"/>
</clipPath>
<clipPath id="clip4_35554_318198">
<rect width="7.88568" height="7.88568" fill="white" transform="translate(139.543 121.645)"/>
</clipPath>
<clipPath id="clip5_35554_318198">
<rect width="7.88568" height="7.88568" fill="white" transform="translate(243.154 121.645)"/>
</clipPath>
<clipPath id="clip6_35554_318198">
<rect width="7.88568" height="7.88568" fill="white" transform="translate(40.8613 154.935)"/>
</clipPath>
</defs>
</svg>
