<svg width="350" height="210" viewBox="0 0 350 210" fill="none" xmlns="http://www.w3.org/2000/svg">
<rect width="350" height="210" fill="#F5F6FB"/>
<path d="M22.4004 29.3999C22.4004 25.5339 25.5344 22.3999 29.4004 22.3999H320.6C324.466 22.3999 327.6 25.5339 327.6 29.3999V180.6C327.6 184.466 324.466 187.6 320.6 187.6H29.4004C25.5344 187.6 22.4004 184.466 22.4004 180.6V29.3999Z" fill="white"/>
<path d="M46.4888 46.22V54.1953H45.0438L41.325 48.3259V54.1953H40.0032V46.22H41.4706L45.1446 52.1007V46.22H46.4888ZM47.8853 50.1965C48.0197 48.8971 48.8598 48.2362 50.4168 48.2362C51.1337 48.2362 51.7162 48.3819 52.1418 48.6619C52.5675 48.9531 52.7915 49.39 52.7915 49.9836V52.9184C52.7915 53.0864 52.8027 53.1984 52.8475 53.2544C52.8923 53.3216 52.9707 53.344 53.0939 53.344C53.1835 53.344 53.2731 53.344 53.3851 53.3216V54.2177C53.0491 54.3073 52.7803 54.3409 52.5563 54.3409C52.0074 54.3409 51.6938 54.1169 51.6153 53.6465C51.1225 54.1169 50.4504 54.3409 49.5879 54.3409C48.9831 54.3409 48.5126 54.1953 48.1654 53.8817C47.8069 53.568 47.6389 53.1536 47.6389 52.6159C47.6389 52.4591 47.6501 52.3023 47.6949 52.1567C47.7285 52.0223 47.7733 51.8991 47.8181 51.787C47.8629 51.6862 47.9413 51.5854 48.0533 51.4958C48.1654 51.4062 48.255 51.339 48.3222 51.2718C48.3894 51.2158 48.5126 51.1598 48.6694 51.1038C48.8262 51.059 48.9495 51.0142 49.0279 50.9918C49.1063 50.9694 49.2407 50.9357 49.4423 50.9021C49.6327 50.8797 49.7559 50.8573 49.8231 50.8461C49.8904 50.8349 50.0248 50.8125 50.2264 50.7901C50.6744 50.7341 50.9881 50.6893 51.1561 50.6445C51.3129 50.5997 51.4249 50.5437 51.4921 50.4541C51.5369 50.3981 51.5705 50.2637 51.5705 50.0396C51.5705 49.4572 51.1673 49.166 50.3832 49.166C49.9576 49.166 49.6551 49.2444 49.4647 49.4012C49.2631 49.558 49.1399 49.8268 49.0951 50.1965H47.8853ZM51.5593 51.2942C51.4585 51.3502 51.3465 51.395 51.2233 51.4398C51.0889 51.4846 50.9881 51.507 50.9097 51.5182C50.8313 51.5294 50.708 51.5406 50.54 51.563C50.372 51.5854 50.26 51.6078 50.2152 51.6078C50.0584 51.6302 49.9352 51.6526 49.8456 51.675C49.7559 51.6974 49.6439 51.7198 49.5095 51.7646C49.3751 51.8094 49.2743 51.8655 49.2071 51.9327C49.1399 51.9999 49.0727 52.0783 49.0279 52.1903C48.9719 52.3023 48.9495 52.4255 48.9495 52.5711C48.9495 52.8512 49.0391 53.064 49.2183 53.2096C49.3975 53.3664 49.6551 53.4336 49.9912 53.4336C50.5512 53.4336 50.9881 53.288 51.3017 52.9744C51.4697 52.8064 51.5593 52.4703 51.5593 51.9775V51.2942ZM55.3864 48.4155V49.2332C55.8569 48.5835 56.4617 48.2586 57.201 48.2586C57.5819 48.2586 57.9067 48.3483 58.1867 48.5163C58.4668 48.6955 58.6796 48.9307 58.814 49.2444C59.2732 48.5947 59.9005 48.2586 60.6846 48.2586C61.2223 48.2586 61.6815 48.4267 62.0399 48.7515C62.3984 49.0763 62.5776 49.5244 62.5776 50.0957V54.1953H61.3007V50.6445C61.3007 50.2413 61.2223 49.9164 61.0878 49.6812C60.9422 49.4572 60.6734 49.334 60.2702 49.334C59.8557 49.334 59.5421 49.4684 59.3292 49.726C59.1052 49.9836 59.0044 50.3421 59.0044 50.8013V54.1953H57.7275V50.5773C57.7275 50.1741 57.6603 49.8604 57.537 49.6476C57.4138 49.446 57.1562 49.334 56.7754 49.334C56.3385 49.334 56.0137 49.4796 55.7897 49.7596C55.5656 50.0396 55.4536 50.4093 55.4536 50.8685V54.1953H54.1767V48.4155H55.3864ZM69.0868 52.3919C68.9412 53.0192 68.6276 53.512 68.1571 53.8593C67.6867 54.2177 67.1154 54.3857 66.4658 54.3857C65.5921 54.3857 64.8976 54.1057 64.3823 53.5456C63.8671 52.9856 63.6206 52.2575 63.6206 51.3726C63.6206 50.4765 63.8783 49.726 64.4047 49.1323C64.9312 48.5499 65.6033 48.2474 66.421 48.2474C67.261 48.2474 67.9331 48.5387 68.426 49.1211C68.9188 49.7036 69.1653 50.4877 69.1653 51.4846V51.619H64.8976C64.9088 52.2015 65.0544 52.6607 65.3344 52.9744C65.6033 53.288 65.9953 53.4448 66.4882 53.4448C66.8354 53.4448 67.1154 53.3664 67.3395 53.1984C67.5635 53.0304 67.7315 52.7616 67.8659 52.3919H69.0868ZM67.8883 50.7677C67.8435 50.2861 67.6979 49.9052 67.4291 49.6252C67.1602 49.3452 66.8242 49.1996 66.4097 49.1996C65.9841 49.1996 65.6481 49.334 65.3904 49.6028C65.1328 49.8716 64.976 50.2637 64.92 50.7677H67.8883ZM73.4068 47.6762L72.141 48.1018L72.9139 49.1547L72.3202 49.6028L71.525 48.4939L70.7521 49.6028L70.136 49.1547L70.9089 48.1018L69.6656 47.6762L69.912 46.9593L71.1553 47.4298L71.1441 46.108H71.917L71.8946 47.4298L73.1379 46.9593L73.4068 47.6762Z" fill="#0A0909"/>
<path d="M46.1865 66.1455H303.815C307.488 66.1457 310.466 69.1239 310.466 72.7969V92.3984C310.466 96.0714 307.488 99.0496 303.815 99.0498H46.1865C42.5134 99.0498 39.5352 96.0715 39.5352 92.3984V72.7969C39.5352 69.1238 42.5134 66.1455 46.1865 66.1455Z" fill="white"/>
<path d="M46.1865 66.1455H303.815C307.488 66.1457 310.466 69.1239 310.466 72.7969V92.3984C310.466 96.0714 307.488 99.0496 303.815 99.0498H46.1865C42.5134 99.0498 39.5352 96.0715 39.5352 92.3984V72.7969C39.5352 69.1238 42.5134 66.1455 46.1865 66.1455Z" stroke="#D3D8EB" stroke-width="0.700078"/>
<path d="M55.3489 77.1224V82.6558C55.3489 83.059 55.3041 83.4063 55.2369 83.7087C55.1697 83.9999 55.0464 84.28 54.8896 84.5264C54.7216 84.7728 54.4864 84.9632 54.1839 85.0977C53.8703 85.2321 53.5007 85.2993 53.0526 85.2993C52.2013 85.2993 51.5965 85.0865 51.2268 84.672C50.846 84.2464 50.6668 83.6191 50.6668 82.7902C50.6668 82.6782 50.6668 82.5774 50.678 82.4878H51.6973V82.7678C51.6973 83.3055 51.7869 83.7087 51.9661 83.9999C52.1453 84.28 52.5038 84.4256 53.0414 84.4256C53.2766 84.4256 53.4783 84.3808 53.6351 84.3136C53.7919 84.2352 53.9151 84.1455 54.0047 84.0447C54.0943 83.9439 54.1615 83.7983 54.2063 83.6191C54.2512 83.4287 54.2736 83.2607 54.2848 83.115C54.2848 82.9806 54.296 82.7902 54.296 82.5438V77.1224H55.3489ZM59.4435 79.1498C60.3172 79.1498 60.9893 79.4186 61.4822 79.9563C61.9638 80.4827 62.2103 81.222 62.2103 82.1741C62.2103 83.1598 61.9638 83.9215 61.4822 84.4592C60.9893 85.008 60.306 85.2769 59.4323 85.2769C58.5474 85.2769 57.853 85.008 57.3601 84.4704C56.8561 83.9327 56.6096 83.1934 56.6096 82.2301C56.6096 81.2892 56.8561 80.5387 57.3713 79.9787C57.8754 79.4298 58.5698 79.1498 59.4435 79.1498ZM59.4211 79.9563C58.8611 79.9563 58.413 80.1579 58.0882 80.5611C57.7522 80.9756 57.5953 81.5245 57.5953 82.2077C57.5953 82.9246 57.7522 83.4735 58.077 83.8767C58.4018 84.28 58.8611 84.4704 59.4435 84.4704C60.0036 84.4704 60.4405 84.2688 60.7541 83.8655C61.0677 83.4623 61.2357 82.9134 61.2357 82.1965C61.2357 81.5133 61.0677 80.9644 60.7429 80.5611C60.4181 80.1579 59.9812 79.9563 59.4211 79.9563ZM64.2961 77.1224V80.1355C64.7218 79.497 65.3491 79.1722 66.1891 79.1722C67.4885 79.1722 68.1382 79.8331 68.1382 81.1436V85.0977H67.1861V81.3676C67.1861 80.9308 67.0852 80.5948 66.906 80.3595C66.7268 80.1243 66.3908 80.0011 65.9203 80.0011C65.3379 80.0011 64.9122 80.1915 64.6658 80.5611C64.4193 80.942 64.2961 81.4685 64.2961 82.1629V85.0977H63.344V77.1224H64.2961ZM70.4643 79.3178V80.2139C70.9347 79.5194 71.5956 79.161 72.4357 79.161C73.1078 79.161 73.6006 79.3402 73.903 79.6987C74.2055 80.0571 74.3623 80.5724 74.3623 81.2556V85.0977H73.4102V81.6925C73.4102 81.4124 73.399 81.1884 73.3766 81.0316C73.3542 80.8748 73.3094 80.6956 73.2422 80.5163C73.1638 80.3371 73.0405 80.2027 72.8613 80.1131C72.6821 80.0347 72.4469 79.9899 72.1669 79.9899C71.0691 79.9899 70.5203 80.6844 70.5203 82.0733V85.0977H69.5682V79.3178H70.4643Z" fill="#0A0909"/>
<path d="M45.4807 120.39V121.6H40.0144V113.625H41.4258V120.39H45.4807ZM46.2336 117.601C46.368 116.302 47.2081 115.641 48.7651 115.641C49.4819 115.641 50.0644 115.787 50.4901 116.067C50.9157 116.358 51.1397 116.795 51.1397 117.388V120.323C51.1397 120.491 51.1509 120.603 51.1957 120.659C51.2405 120.726 51.319 120.749 51.4422 120.749C51.5318 120.749 51.6214 120.749 51.7334 120.726V121.623C51.3974 121.712 51.1285 121.746 50.9045 121.746C50.3556 121.746 50.042 121.522 49.9636 121.051C49.4707 121.522 48.7987 121.746 47.9362 121.746C47.3313 121.746 46.8609 121.6 46.5136 121.286C46.1552 120.973 45.9872 120.558 45.9872 120.021C45.9872 119.864 45.9984 119.707 46.0432 119.561C46.0768 119.427 46.1216 119.304 46.1664 119.192C46.2112 119.091 46.2896 118.99 46.4016 118.901C46.5136 118.811 46.6032 118.744 46.6704 118.677C46.7376 118.621 46.8609 118.565 47.0177 118.509C47.1745 118.464 47.2977 118.419 47.3761 118.397C47.4545 118.374 47.5889 118.341 47.7906 118.307C47.981 118.285 48.1042 118.262 48.1714 118.251C48.2386 118.24 48.373 118.217 48.5746 118.195C49.0227 118.139 49.3363 118.094 49.5043 118.049C49.6612 118.004 49.7732 117.948 49.8404 117.859C49.8852 117.803 49.9188 117.668 49.9188 117.444C49.9188 116.862 49.5156 116.571 48.7315 116.571C48.3058 116.571 48.0034 116.649 47.813 116.806C47.6113 116.963 47.4881 117.232 47.4433 117.601H46.2336ZM49.9076 118.699C49.8068 118.755 49.6948 118.8 49.5716 118.845C49.4371 118.889 49.3363 118.912 49.2579 118.923C49.1795 118.934 49.0563 118.945 48.8883 118.968C48.7203 118.99 48.6082 119.013 48.5634 119.013C48.4066 119.035 48.2834 119.057 48.1938 119.08C48.1042 119.102 47.9922 119.125 47.8578 119.169C47.7234 119.214 47.6225 119.27 47.5553 119.337C47.4881 119.405 47.4209 119.483 47.3761 119.595C47.3201 119.707 47.2977 119.83 47.2977 119.976C47.2977 120.256 47.3873 120.469 47.5665 120.614C47.7458 120.771 48.0034 120.838 48.3394 120.838C48.8995 120.838 49.3363 120.693 49.65 120.379C49.818 120.211 49.9076 119.875 49.9076 119.382V118.699ZM57.095 117.5H55.8741C55.7957 116.896 55.3812 116.582 54.6196 116.582C54.2835 116.582 54.0371 116.649 53.8579 116.761C53.6787 116.884 53.589 117.052 53.589 117.254C53.589 117.321 53.589 117.388 53.6002 117.433C53.6114 117.489 53.6338 117.534 53.6675 117.579C53.7011 117.624 53.7347 117.657 53.7571 117.68C53.7795 117.713 53.8355 117.747 53.9027 117.769C53.9699 117.803 54.0147 117.825 54.0595 117.848C54.1043 117.87 54.1715 117.892 54.2723 117.915C54.3619 117.937 54.4403 117.96 54.4963 117.971C54.5524 117.993 54.642 118.016 54.7764 118.038C54.8996 118.061 55.0004 118.083 55.0676 118.094C55.3588 118.161 55.5605 118.217 55.6949 118.251C55.8293 118.285 56.0197 118.352 56.2661 118.453C56.5126 118.553 56.703 118.654 56.8262 118.766C56.9382 118.878 57.0502 119.024 57.151 119.214C57.2519 119.405 57.3079 119.617 57.3079 119.864C57.3079 120.446 57.0726 120.917 56.6246 121.253C56.1653 121.6 55.5493 121.768 54.7876 121.768C53.9587 121.768 53.3314 121.6 52.8946 121.253C52.4465 120.917 52.2113 120.413 52.1889 119.752H53.4098C53.477 120.48 53.9363 120.838 54.81 120.838C55.1796 120.838 55.4821 120.771 55.7061 120.614C55.9301 120.458 56.0533 120.256 56.0533 119.998C56.0533 119.875 56.0197 119.763 55.9637 119.673C55.9077 119.584 55.8181 119.517 55.6949 119.449C55.5605 119.382 55.4372 119.337 55.3252 119.304C55.2132 119.27 55.0564 119.225 54.866 119.181L54.7988 119.169C54.7764 119.169 54.7652 119.158 54.7428 119.158C54.7204 119.158 54.698 119.147 54.6756 119.136C53.8467 118.934 53.3314 118.777 53.1074 118.665C52.5697 118.419 52.3121 117.993 52.3121 117.4C52.3121 116.862 52.5137 116.436 52.9394 116.123C53.3538 115.809 53.9363 115.652 54.6756 115.652C55.3812 115.652 55.9637 115.809 56.4118 116.111C56.8598 116.425 57.095 116.884 57.095 117.5ZM61.1449 115.82V116.75H59.98V119.797C59.98 119.976 59.98 120.11 59.9912 120.178C59.9912 120.245 60.0136 120.323 60.0584 120.413C60.092 120.502 60.1592 120.558 60.2488 120.581C60.3384 120.614 60.4728 120.626 60.6408 120.626C60.8425 120.626 61.0105 120.626 61.1449 120.603V121.611C60.8873 121.645 60.596 121.656 60.2824 121.656C60.0584 121.656 59.8568 121.645 59.6887 121.611C59.5207 121.578 59.3863 121.533 59.2743 121.488C59.1623 121.443 59.0615 121.376 58.9943 121.264C58.9158 121.152 58.8598 121.062 58.815 120.995C58.7702 120.928 58.7478 120.794 58.7254 120.614C58.703 120.435 58.703 120.301 58.703 120.211V119.718V119.651V119.584V119.505V116.75H57.7397V115.82H58.703V114.084H59.98V115.82H61.1449ZM66.3908 115.82V116.672C66.85 115.999 67.4885 115.663 68.3062 115.663C68.9558 115.663 69.4487 115.843 69.7735 116.201C70.0984 116.56 70.2664 117.075 70.2664 117.747V121.6H68.9895V118.24C68.9895 118.016 68.9782 117.825 68.9558 117.668C68.9334 117.512 68.8774 117.355 68.8102 117.198C68.743 117.041 68.631 116.929 68.4742 116.851C68.3174 116.772 68.1158 116.728 67.8693 116.728C66.9284 116.728 66.458 117.321 66.458 118.486V121.6H65.181V115.82H66.3908ZM71.5458 117.601C71.6802 116.302 72.5203 115.641 74.0773 115.641C74.7941 115.641 75.3766 115.787 75.8023 116.067C76.2279 116.358 76.4519 116.795 76.4519 117.388V120.323C76.4519 120.491 76.4631 120.603 76.5079 120.659C76.5527 120.726 76.6312 120.749 76.7544 120.749C76.844 120.749 76.9336 120.749 77.0456 120.726V121.623C76.7096 121.712 76.4407 121.746 76.2167 121.746C75.6678 121.746 75.3542 121.522 75.2758 121.051C74.7829 121.522 74.1109 121.746 73.2484 121.746C72.6435 121.746 72.1731 121.6 71.8258 121.286C71.4674 120.973 71.2994 120.558 71.2994 120.021C71.2994 119.864 71.3106 119.707 71.3554 119.561C71.389 119.427 71.4338 119.304 71.4786 119.192C71.5234 119.091 71.6018 118.99 71.7138 118.901C71.8258 118.811 71.9154 118.744 71.9826 118.677C72.0498 118.621 72.1731 118.565 72.3299 118.509C72.4867 118.464 72.6099 118.419 72.6883 118.397C72.7667 118.374 72.9011 118.341 73.1028 118.307C73.2932 118.285 73.4164 118.262 73.4836 118.251C73.5508 118.24 73.6852 118.217 73.8868 118.195C74.3349 118.139 74.6485 118.094 74.8166 118.049C74.9734 118.004 75.0854 117.948 75.1526 117.859C75.1974 117.803 75.231 117.668 75.231 117.444C75.231 116.862 74.8278 116.571 74.0437 116.571C73.618 116.571 73.3156 116.649 73.1252 116.806C72.9235 116.963 72.8003 117.232 72.7555 117.601H71.5458ZM75.2198 118.699C75.119 118.755 75.007 118.8 74.8838 118.845C74.7493 118.889 74.6485 118.912 74.5701 118.923C74.4917 118.934 74.3685 118.945 74.2005 118.968C74.0325 118.99 73.9205 119.013 73.8756 119.013C73.7188 119.035 73.5956 119.057 73.506 119.08C73.4164 119.102 73.3044 119.125 73.17 119.169C73.0356 119.214 72.9347 119.27 72.8675 119.337C72.8003 119.405 72.7331 119.483 72.6883 119.595C72.6323 119.707 72.6099 119.83 72.6099 119.976C72.6099 120.256 72.6995 120.469 72.8787 120.614C73.058 120.771 73.3156 120.838 73.6516 120.838C74.2117 120.838 74.6485 120.693 74.9622 120.379C75.1302 120.211 75.2198 119.875 75.2198 119.382V118.699ZM79.0469 115.82V116.638C79.5173 115.988 80.1222 115.663 80.8615 115.663C81.2423 115.663 81.5671 115.753 81.8472 115.921C82.1272 116.1 82.34 116.336 82.4744 116.649C82.9337 115.999 83.561 115.663 84.3451 115.663C84.8827 115.663 85.342 115.831 85.7004 116.156C86.0588 116.481 86.2381 116.929 86.2381 117.5V121.6H84.9611V118.049C84.9611 117.646 84.8827 117.321 84.7483 117.086C84.6027 116.862 84.3339 116.739 83.9306 116.739C83.5162 116.739 83.2025 116.873 82.9897 117.131C82.7657 117.388 82.6649 117.747 82.6649 118.206V121.6H81.3879V117.982C81.3879 117.579 81.3207 117.265 81.1975 117.052C81.0743 116.851 80.8167 116.739 80.4358 116.739C79.999 116.739 79.6741 116.884 79.4501 117.164C79.2261 117.444 79.1141 117.814 79.1141 118.273V121.6H77.8371V115.82H79.0469ZM92.7473 119.797C92.6017 120.424 92.2881 120.917 91.8176 121.264C91.3471 121.623 90.7759 121.791 90.1262 121.791C89.2525 121.791 88.558 121.51 88.0428 120.95C87.5275 120.39 87.2811 119.662 87.2811 118.777C87.2811 117.881 87.5387 117.131 88.0652 116.537C88.5916 115.955 89.2637 115.652 90.0814 115.652C90.9215 115.652 91.5936 115.943 92.0864 116.526C92.5793 117.108 92.8257 117.892 92.8257 118.889V119.024H88.558C88.5692 119.606 88.7149 120.066 88.9949 120.379C89.2637 120.693 89.6558 120.85 90.1486 120.85C90.4959 120.85 90.7759 120.771 90.9999 120.603C91.2239 120.435 91.392 120.166 91.5264 119.797H92.7473ZM91.5488 118.173C91.504 117.691 91.3583 117.31 91.0895 117.03C90.8207 116.75 90.4847 116.604 90.0702 116.604C89.6446 116.604 89.3085 116.739 89.0509 117.008C88.7933 117.276 88.6364 117.668 88.5804 118.173H91.5488Z" fill="#0A0909"/>
<path d="M46.1865 133.901H303.815C307.295 133.901 310.116 136.722 310.116 140.202V159.803C310.116 163.283 307.295 166.104 303.815 166.104H46.1865C42.7067 166.104 39.8857 163.283 39.8857 159.803V140.202C39.8857 136.722 42.7067 133.901 46.1865 133.901Z" fill="white"/>
<path d="M46.1865 133.901H303.815C307.295 133.901 310.116 136.722 310.116 140.202V159.803C310.116 163.283 307.295 166.104 303.815 166.104H46.1865C42.7067 166.104 39.8857 163.283 39.8857 159.803V140.202C39.8857 136.722 42.7067 133.901 46.1865 133.901Z" stroke="#01A56D" stroke-width="1.40016"/>
<path d="M51.2716 144.527H53.8591C55.2145 144.527 56.2114 144.841 56.8498 145.468C57.4995 146.095 57.8131 147.092 57.8131 148.448C57.8131 149.792 57.5219 150.8 56.917 151.483C56.3234 152.166 55.3713 152.502 54.0607 152.502H51.2716V144.527ZM52.3133 145.434L52.3245 151.606H53.9263C54.9232 151.606 55.6513 151.36 56.0994 150.867C56.5474 150.374 56.7714 149.613 56.7714 148.571C56.7714 147.484 56.5586 146.689 56.1106 146.185C55.6737 145.692 54.9232 145.434 53.8703 145.434H52.3133ZM61.5219 146.555C62.3956 146.555 63.0677 146.823 63.5605 147.361C64.0422 147.888 64.2886 148.627 64.2886 149.579C64.2886 150.565 64.0422 151.326 63.5605 151.864C63.0677 152.413 62.3844 152.682 61.5107 152.682C60.6258 152.682 59.9313 152.413 59.4385 151.875C58.9344 151.338 58.688 150.598 58.688 149.635C58.688 148.694 58.9344 147.944 59.4497 147.383C59.9537 146.835 60.6482 146.555 61.5219 146.555ZM61.4995 147.361C60.9394 147.361 60.4914 147.563 60.1665 147.966C59.8305 148.38 59.6737 148.929 59.6737 149.613C59.6737 150.329 59.8305 150.878 60.1553 151.282C60.4802 151.685 60.9394 151.875 61.5219 151.875C62.082 151.875 62.5188 151.674 62.8324 151.27C63.1461 150.867 63.3141 150.318 63.3141 149.601C63.3141 148.918 63.1461 148.369 62.8212 147.966C62.4964 147.563 62.0596 147.361 61.4995 147.361Z" fill="#0A0909"/>
<line x1="66.852" y1="141.4" x2="66.852" y2="158.2" stroke="#0A0909" stroke-width="0.7"/>
</svg>
