<svg width="55" height="72" viewBox="0 0 55 72" fill="none" xmlns="http://www.w3.org/2000/svg">
<path d="M15.0391 19.2857L9.45312 19.7143V54.4286H43.8281V19.2857H24.9219L23.2031 21L19.7656 21.8571L16.3281 21L15.0391 19.2857Z" fill="#FEBE4F"/>
<path d="M48.9844 25.7143H43.3984V30L44.6875 30.4286L48.125 30V31.7143L48.5547 39.8571L48.125 45.8571L47.2656 46.2857H43.3984V50.5714H49.4141L51.1328 49.7143L51.9922 48V43.2857V36.4286L51.5625 28.2857L51.1328 26.5714L48.9844 25.7143Z" fill="#FEBE4F"/>
<path d="M44.5957 26.6505V18.6939H24.8086C24.8086 18.6939 24.8086 18.7101 24.7925 18.7101C24.4541 19.3221 24.0352 19.8213 23.5034 20.2724H43.0166V26.6505H44.5957Z" fill="#0A0909"/>
<path d="M43.0176 57.333V49.5858H44.5967V57.333H43.0176Z" fill="#0A0909"/>
<path d="M9.83984 55.0138V20.2724H15.6406C15.3828 19.918 15.1089 19.5798 14.8833 19.2093C14.7705 19.0322 14.6738 18.855 14.5933 18.6939H8.26074V55.0138H9.83984Z" fill="#0A0909"/>
<path d="M41.873 64.0657H10.9678C9.46928 64.0657 8.24463 62.8416 8.24463 61.3438V53.6288H44.5801V61.3438C44.5961 62.8577 43.3716 64.0657 41.873 64.0657Z" fill="#0A0909"/>
<path d="M5.97265 42.773C4.44189 42.773 2.2666 41.4039 2.2666 38.3276C2.2666 36.2337 3.41064 33.995 4.34521 32.191C4.6997 31.4985 5.03808 30.8381 5.23144 30.3388C5.44091 29.8073 5.18311 28.8249 4.89306 27.7135C4.42578 25.8935 3.76514 23.397 4.37744 20.3206C4.90917 17.6309 6.31103 15.6176 8.53466 14.3613C10.2266 13.3949 11.9346 13.1373 12.7241 13.0406C12.7563 13.0083 12.7725 12.9761 12.8047 12.944C13.4653 12.2192 15.0283 10.4958 17.1069 8.96563C19.7495 7.00069 22.3276 6.00209 24.7446 6.00209C27.2905 6.00209 29.7397 6.80741 31.8022 8.35363C33.3652 9.51326 34.1709 10.6891 34.2031 10.7373C34.4448 11.1078 34.3481 11.591 33.9936 11.8326C33.6391 12.0742 33.1396 11.9775 32.8979 11.6232C32.8979 11.6071 32.1889 10.5924 30.8193 9.57771C29.0147 8.25698 26.9844 7.58052 24.7607 7.58052C21.4897 7.58052 17.8643 9.73877 13.9971 14.007C13.852 14.1681 13.7553 14.2647 13.6909 14.3452C13.562 14.4741 13.417 14.5385 13.2559 14.5707C13.1914 14.5868 13.127 14.5868 13.0303 14.6029C9.01802 15.1505 6.61718 17.1799 5.94042 20.6428C5.40868 23.3648 5.97265 25.5713 6.43993 27.3269C6.81054 28.7604 7.11669 29.904 6.72997 30.9187C6.50439 31.4985 6.14989 32.191 5.76318 32.9319C4.90917 34.5748 3.86182 36.6364 3.86182 38.3437C3.86182 40.502 5.29589 41.2107 5.97265 41.2107C7.0039 41.2107 7.77733 40.6147 8.22851 39.4389C8.38964 39.0363 8.84082 38.8269 9.24361 38.988C9.64648 39.1491 9.85591 39.6 9.69478 40.0027C9.30806 40.969 8.74414 41.7099 8.00292 42.1931C7.40673 42.5797 6.71386 42.773 5.97265 42.773Z" fill="#0A0909"/>
<path d="M19.4591 22.6722C17.8156 22.6722 16.3331 22.0119 15.1568 20.7555C14.2867 19.8214 13.8839 18.8872 13.8678 18.855C13.7066 18.4523 13.8839 17.9853 14.2867 17.8242C14.6896 17.6631 15.1568 17.8403 15.318 18.243C15.318 18.243 15.6402 18.9999 16.3331 19.7247C17.2193 20.6428 18.2667 21.1099 19.4591 21.1099C22.424 21.1099 23.568 19.0966 23.5841 19.0805C23.7291 18.8389 23.9869 18.6778 24.2769 18.6778H42.2111C42.5333 17.6148 42.5494 16.4874 42.2271 15.4083C41.8082 13.9103 40.8253 12.6863 39.4556 11.9293C38.1021 11.1723 36.5392 10.9951 35.0406 11.43C34.106 11.7038 33.2521 12.1869 32.5753 12.8634C32.2691 13.1695 31.7697 13.1695 31.4635 12.8474C31.1574 12.5252 31.1574 12.042 31.4796 11.736C32.3497 10.8824 33.4454 10.2381 34.6217 9.91595C36.523 9.36832 38.5211 9.59383 40.2452 10.5603C41.9693 11.5266 43.2262 13.0889 43.7579 14.9895C44.2091 16.584 44.1285 18.243 43.5162 19.7731C43.3873 20.0791 43.0972 20.2724 42.7911 20.2724H24.6959C24.0997 21.0294 22.4722 22.6722 19.4591 22.6722Z" fill="#0A0909"/>
<path d="M17.977 14.3612C17.8641 14.3612 17.7514 14.3128 17.6547 14.2323C17.4613 14.0552 17.4613 13.7491 17.6225 13.5558C19.3788 11.6714 22.102 9.4326 25.0829 9.51318C25.953 9.5292 26.8231 9.69035 27.6288 9.99635C27.8705 10.0929 27.9994 10.3668 27.9188 10.6083C27.8221 10.85 27.5482 10.9788 27.3065 10.8983C26.5815 10.6406 25.8241 10.4795 25.0506 10.4795C22.4242 10.3989 19.9266 12.4767 18.3153 14.2162C18.2348 14.3128 18.1059 14.3612 17.977 14.3612Z" fill="#0A0909"/>
<path d="M48.7856 51.1642H43.8389V49.5858H48.7856C50.0747 49.5858 51.1381 48.5389 51.1381 47.2342V29.0018C51.1381 27.7133 50.0908 26.6503 48.7856 26.6503H43.8389V25.0719H48.7856C50.9448 25.0719 52.7172 26.8436 52.7172 29.0018V47.2342C52.7172 49.4086 50.9448 51.1642 48.7856 51.1642Z" fill="#0A0909"/>
<path d="M47.7705 46.9123H43.0332V29.3241H47.7705C48.5278 29.3241 49.1401 29.9361 49.1401 30.6931V45.5432C49.1563 46.3002 48.5278 46.9123 47.7705 46.9123ZM44.6284 45.3339H47.5772V30.9025H44.6284V45.3339Z" fill="#0A0909"/>
<path d="M14.1741 23.5581H38.7146C39.5525 23.5581 40.2292 24.2345 40.2292 25.072V49.6021C40.2292 50.4396 39.5525 51.1161 38.7146 51.1161H14.1741C13.3362 51.1161 12.6595 50.4396 12.6595 49.6021V25.072C12.6433 24.2345 13.3362 23.5581 14.1741 23.5581Z" fill="white"/>
<path d="M23.1656 27.6169H16.7041V34.0755H23.1656V27.6169ZM21.6508 32.5455H18.2349V29.1148H21.6508V32.5455Z" fill="#0A0909"/>
<path d="M20.6836 30.0812H19.1689V31.5952H20.6836V30.0812Z" fill="#0A0909"/>
<path d="M36.1684 27.6169H29.707V34.0755H36.1684V27.6169ZM34.6538 32.5455H31.2217V29.1148H34.6538V32.5455Z" fill="#0A0909"/>
<path d="M33.6875 30.0812H32.1729V31.5952H33.6875V30.0812Z" fill="#0A0909"/>
<path d="M23.1656 40.5987H16.7041V47.0574H23.1656V40.5987ZM21.6508 45.5434H18.2349V42.1289H21.6508V45.5434Z" fill="#0A0909"/>
<path d="M20.6836 43.079H19.1689V44.593H20.6836V43.079Z" fill="#0A0909"/>
<path d="M19.7329 35.0901H18.2183V36.6041H19.7329V35.0901Z" fill="#0A0909"/>
<path d="M21.2314 38.1343V39.6483H22.7461V38.1343H21.2637V36.6202H19.749V38.1343H21.2314Z" fill="#0A0909"/>
<path d="M28.8696 30.532H27.355V32.0459H28.8696V30.532Z" fill="#0A0909"/>
<path d="M25.8237 29.1307H24.3091V32.046H25.8237V29.1307Z" fill="#0A0909"/>
<path d="M27.3389 27.6169H25.8242V29.1309H27.3389V27.6169Z" fill="#0A0909"/>
<path d="M27.3545 32.0621H25.8237V33.5761H24.3091V35.0901H27.3545V32.0621Z" fill="#0A0909"/>
<path d="M25.8237 39.6483V41.1461H27.3545V42.6279H30.3838V41.0979H27.3545V39.616H25.8237V36.6202H24.3091V39.6483H25.8237Z" fill="#0A0909"/>
<path d="M28.8696 35.0901H27.355V38.1342H28.8696V35.0901Z" fill="#0A0909"/>
<path d="M31.915 39.616H36.1689V36.5719H34.6543V35.0901H31.8828V36.6041H30.4004V38.1181H31.915V39.616ZM31.915 36.6202H34.6543V38.1021H31.915V36.6202Z" fill="#0A0909"/>
<path d="M36.1685 41.0981H34.6538V44.1422H36.1685V41.0981Z" fill="#0A0909"/>
<path d="M30.3842 38.1345H28.8696V39.6485H30.3842V38.1345Z" fill="#0A0909"/>
<path d="M31.8984 42.6278H30.3838V44.1418H31.8984V42.6278Z" fill="#0A0909"/>
<path d="M33.4292 41.0981H31.9146V42.6121H33.4292V41.0981Z" fill="#0A0909"/>
<path d="M33.4292 47.0732V45.6397H34.6538V44.1257H31.9146V47.0732H33.4292Z" fill="#0A0909"/>
<path d="M25.8237 41.1462H24.3091V44.0453H25.8237V41.1462Z" fill="#0A0909"/>
<path d="M27.355 47.0735V45.5434H28.8374V47.0735H30.3521V45.5434H28.8697V44.0294H25.8242V47.0735H27.355Z" fill="#0A0909"/>
<path d="M24.309 35.0901H21.2637V36.6041H24.309V35.0901Z" fill="#0A0909"/>
<path d="M14.8766 59.4216C14.8766 59.7096 14.8055 59.961 14.6634 60.1759C14.5213 60.3907 14.315 60.5576 14.0447 60.6765C13.7788 60.7907 13.4534 60.8479 13.0684 60.8479C12.8988 60.8479 12.7316 60.8364 12.5666 60.8136C12.4061 60.7907 12.2503 60.7588 12.0991 60.7176C11.9524 60.6718 11.8125 60.617 11.6797 60.553V59.5862C11.9134 59.6867 12.1541 59.7804 12.4016 59.8673C12.6536 59.9496 12.9034 59.9908 13.1509 59.9908C13.3205 59.9908 13.4557 59.9679 13.5566 59.9222C13.6619 59.8764 13.7375 59.8147 13.7834 59.737C13.8338 59.6593 13.8591 59.5702 13.8591 59.4696C13.8591 59.3462 13.8155 59.241 13.7284 59.1542C13.6459 59.0673 13.5336 58.9873 13.3916 58.9142C13.2494 58.8364 13.0867 58.7542 12.9034 58.6673C12.7888 58.6125 12.665 58.5484 12.5322 58.4753C12.3992 58.3976 12.2709 58.3039 12.1472 58.1942C12.028 58.0798 11.9294 57.9427 11.8516 57.7828C11.7736 57.6227 11.7347 57.4307 11.7347 57.2068C11.7347 56.9141 11.8011 56.665 11.9341 56.4593C12.0716 56.249 12.2641 56.089 12.5116 55.9793C12.7636 55.8696 13.0592 55.8148 13.3984 55.8148C13.655 55.8148 13.898 55.8444 14.1272 55.9039C14.3609 55.9633 14.6038 56.0479 14.8559 56.1576L14.5191 56.9668C14.2944 56.8753 14.0928 56.8044 13.9141 56.7542C13.7353 56.7039 13.5519 56.6788 13.3641 56.6788C13.2357 56.6788 13.1257 56.6993 13.0341 56.7405C12.9424 56.7816 12.8713 56.8387 12.8209 56.9119C12.775 56.985 12.7522 57.0718 12.7522 57.1725C12.7522 57.2867 12.7866 57.385 12.8553 57.4673C12.9241 57.545 13.0272 57.6204 13.1647 57.6936C13.3022 57.7667 13.4741 57.8536 13.6803 57.9542C13.9324 58.073 14.1455 58.1964 14.3197 58.3245C14.4984 58.4524 14.6359 58.6033 14.7322 58.777C14.8284 58.9507 14.8766 59.1656 14.8766 59.4216ZM17.2125 60.8479C16.8413 60.8479 16.525 60.7816 16.2638 60.649C16.0025 60.5119 15.8031 60.3016 15.6656 60.0182C15.5281 59.7347 15.4594 59.3713 15.4594 58.9279C15.4594 58.4707 15.5373 58.0982 15.6931 57.8102C15.8489 57.5222 16.0644 57.3096 16.3394 57.1725C16.6189 57.0353 16.9398 56.9668 17.3019 56.9668C17.5586 56.9668 17.7808 56.9919 17.9688 57.0422C18.1613 57.0924 18.3286 57.1519 18.4706 57.2205L18.1681 58.009C18.0077 57.945 17.8564 57.8925 17.7144 57.8513C17.5769 57.8102 17.4394 57.7896 17.3019 57.7896C17.1231 57.7896 16.9742 57.833 16.855 57.9199C16.7358 58.0022 16.6464 58.1278 16.5869 58.297C16.5319 58.4616 16.5044 58.6696 16.5044 58.921C16.5044 59.1679 16.5342 59.3736 16.5938 59.5382C16.658 59.6981 16.7496 59.8193 16.8688 59.9016C16.988 59.9793 17.1323 60.0182 17.3019 60.0182C17.5173 60.0182 17.7075 59.9908 17.8725 59.9359C18.0375 59.8764 18.198 59.7964 18.3538 59.6959V60.5668C18.198 60.6673 18.033 60.7382 17.8588 60.7793C17.6892 60.825 17.4738 60.8479 17.2125 60.8479ZM20.7578 56.9599C21.2619 56.9599 21.6469 57.0696 21.9128 57.289C22.1831 57.5038 22.3184 57.8353 22.3184 58.2833V60.7793H21.6034L21.404 60.2719H21.3765C21.2711 60.4044 21.1611 60.5141 21.0465 60.601C20.9365 60.6879 20.8081 60.7496 20.6615 60.7862C20.5194 60.8273 20.343 60.8479 20.1322 60.8479C19.9122 60.8479 19.7128 60.8068 19.534 60.7245C19.3598 60.6376 19.2223 60.5073 19.1215 60.3336C19.0206 60.1553 18.9703 59.9313 18.9703 59.6616C18.9703 59.2639 19.11 58.9713 19.3897 58.7839C19.6692 58.5919 20.0886 58.4867 20.6478 58.4685L21.3009 58.4479V58.2833C21.3009 58.0867 21.2481 57.9427 21.1428 57.8513C21.0419 57.7599 20.8998 57.7142 20.7165 57.7142C20.5331 57.7142 20.3544 57.7416 20.1803 57.7965C20.0061 57.8467 19.8319 57.9107 19.6578 57.9885L19.3209 57.2959C19.5225 57.1907 19.7448 57.1084 19.9878 57.049C20.2353 56.9896 20.4919 56.9599 20.7578 56.9599ZM20.9022 59.0582C20.5722 59.0673 20.343 59.1268 20.2147 59.2365C20.0863 59.3462 20.0222 59.4902 20.0222 59.6685C20.0222 59.8239 20.068 59.9359 20.1597 60.0045C20.2513 60.0684 20.3705 60.1005 20.5172 60.1005C20.7372 60.1005 20.9228 60.0364 21.074 59.9085C21.2253 59.7759 21.3009 59.5907 21.3009 59.353V59.0445L20.9022 59.0582ZM25.4982 56.9668C25.9015 56.9668 26.2246 57.0765 26.4676 57.2959C26.7105 57.5107 26.8319 57.8582 26.8319 58.3382V60.7793H25.8076V58.5919C25.8076 58.3222 25.7594 58.121 25.6632 57.9885C25.5669 57.8513 25.4134 57.7828 25.2026 57.7828C24.8909 57.7828 24.6777 57.8902 24.5632 58.105C24.4486 58.3153 24.3913 58.6193 24.3913 59.017V60.7793H23.3669V57.0353H24.1507L24.2882 57.5153H24.3432C24.4257 57.3873 24.5265 57.2844 24.6457 57.2068C24.7649 57.1245 24.8977 57.065 25.0444 57.0285C25.1911 56.9873 25.3424 56.9668 25.4982 56.9668ZM34.0781 56.9668C34.5043 56.9668 34.8252 57.0765 35.0406 57.2959C35.2606 57.5107 35.3706 57.8582 35.3706 58.3382V60.7793H34.3462V58.5919C34.3462 58.3222 34.3004 58.121 34.2087 57.9885C34.1171 57.8513 33.975 57.7828 33.7825 57.7828C33.5121 57.7828 33.3196 57.8788 33.205 58.0708C33.0904 58.2628 33.0331 58.5393 33.0331 58.9005V60.7793H32.0087V58.5919C32.0087 58.4136 31.9881 58.265 31.9468 58.1462C31.9056 58.0273 31.8437 57.9382 31.7612 57.8788C31.6787 57.8147 31.5734 57.7828 31.445 57.7828C31.2571 57.7828 31.1081 57.8308 30.9981 57.9268C30.8881 58.0228 30.8102 58.1621 30.7643 58.345C30.7185 58.5279 30.6956 58.7518 30.6956 59.017V60.7793H29.6712V57.0353H30.455L30.5925 57.5153H30.6475C30.7254 57.3873 30.8217 57.2844 30.9362 57.2068C31.0509 57.1245 31.1768 57.065 31.3143 57.0285C31.4565 56.9873 31.5985 56.9668 31.7406 56.9668C32.0156 56.9668 32.2493 57.0124 32.4418 57.1039C32.6343 57.1907 32.781 57.3279 32.8818 57.5153H32.9712C33.0859 57.3233 33.244 57.1839 33.4456 57.097C33.6518 57.0101 33.8627 56.9668 34.0781 56.9668ZM37.9723 56.9668C38.3207 56.9668 38.6185 57.033 38.866 57.1656C39.1182 57.2981 39.3129 57.4901 39.4504 57.7416C39.5879 57.993 39.6566 58.3016 39.6566 58.6673V59.161H37.2366C37.2458 59.449 37.3307 59.6753 37.491 59.8399C37.656 60.0045 37.8829 60.0868 38.1716 60.0868C38.4146 60.0868 38.6346 60.0639 38.8316 60.0182C39.0288 59.9679 39.2327 59.8924 39.4435 59.7919V60.5805C39.2602 60.6718 39.0654 60.7382 38.8591 60.7793C38.6575 60.825 38.4123 60.8479 38.1235 60.8479C37.7477 60.8479 37.4154 60.7793 37.1266 60.6422C36.8379 60.5004 36.611 60.2878 36.446 60.0045C36.281 59.721 36.1985 59.3644 36.1985 58.9348C36.1985 58.4959 36.2719 58.1325 36.4185 57.8445C36.5698 57.5518 36.7783 57.3324 37.0441 57.1862C37.31 57.0399 37.6194 56.9668 37.9723 56.9668ZM37.9791 57.6936C37.7821 57.6936 37.6171 57.7576 37.4841 57.8856C37.3558 58.0136 37.2802 58.2124 37.2573 58.4822H38.6941C38.6941 58.3313 38.6666 58.1964 38.6116 58.0776C38.5613 57.9587 38.4833 57.865 38.3779 57.7965C38.2725 57.7279 38.1396 57.6936 37.9791 57.6936ZM41.3467 59.1542H40.5286L40.3567 55.8833H41.5186L41.3467 59.1542ZM40.3429 60.2993C40.3429 60.089 40.4002 59.9428 40.5148 59.8605C40.6294 59.7736 40.7692 59.7302 40.9342 59.7302C41.0945 59.7302 41.232 59.7736 41.3467 59.8605C41.4612 59.9428 41.5186 60.089 41.5186 60.2993C41.5186 60.5004 41.4612 60.6467 41.3467 60.7382C41.232 60.825 41.0945 60.8685 40.9342 60.8685C40.7692 60.8685 40.6294 60.825 40.5148 60.7382C40.4002 60.6467 40.3429 60.5004 40.3429 60.2993Z" fill="white"/>
</svg>
