<svg width="30" height="30" viewBox="0 0 30 30" fill="none" xmlns="http://www.w3.org/2000/svg">
<g clip-path="url(#paint0_angular_35756_28204_clip_path)" data-figma-skip-parse="true"><g transform="matrix(0 0.015 -0.015 0 15 15)"><foreignObject x="-1066.67" y="-1066.67" width="2133.33" height="2133.33"><div xmlns="http://www.w3.org/1999/xhtml" style="background:conic-gradient(from 90deg,rgba(205, 208, 219, 1) 0deg,rgba(205, 208, 219, 0) 360deg);height:100%;width:100%;opacity:1"></div></foreignObject></g></g><path d="M30 15C30 23.2843 23.2843 30 15 30C6.71573 30 0 23.2843 0 15C0 6.71573 6.71573 0 15 0C23.2843 0 30 6.71573 30 15ZM4.98478 15C4.98478 20.5313 9.46875 25.0152 15 25.0152C20.5313 25.0152 25.0152 20.5313 25.0152 15C25.0152 9.46875 20.5313 4.98478 15 4.98478C9.46875 4.98478 4.98478 9.46875 4.98478 15Z" data-figma-gradient-fill="{&#34;type&#34;:&#34;GRADIENT_ANGULAR&#34;,&#34;stops&#34;:[{&#34;color&#34;:{&#34;r&#34;:0.80392158031463623,&#34;g&#34;:0.81568628549575806,&#34;b&#34;:0.85882353782653809,&#34;a&#34;:1.0},&#34;position&#34;:0.0},{&#34;color&#34;:{&#34;r&#34;:0.80392158031463623,&#34;g&#34;:0.81568628549575806,&#34;b&#34;:0.85882353782653809,&#34;a&#34;:0.0},&#34;position&#34;:1.0}],&#34;stopsVar&#34;:[{&#34;color&#34;:{&#34;r&#34;:0.80392158031463623,&#34;g&#34;:0.81568628549575806,&#34;b&#34;:0.85882353782653809,&#34;a&#34;:1.0},&#34;position&#34;:0.0},{&#34;color&#34;:{&#34;r&#34;:0.80392158031463623,&#34;g&#34;:0.81568628549575806,&#34;b&#34;:0.85882353782653809,&#34;a&#34;:0.0},&#34;position&#34;:1.0}],&#34;transform&#34;:{&#34;m00&#34;:1.8369703053475314e-15,&#34;m01&#34;:-30.0,&#34;m02&#34;:30.0,&#34;m10&#34;:30.0,&#34;m11&#34;:1.8369703053475314e-15,&#34;m12&#34;:-1.8369703053475314e-15},&#34;opacity&#34;:1.0,&#34;blendMode&#34;:&#34;NORMAL&#34;,&#34;visible&#34;:true}"/>
<circle cx="15" cy="27.5" r="2.5" fill="#D3D8EB"/>
<defs>
<clipPath id="paint0_angular_35756_28204_clip_path"><path d="M30 15C30 23.2843 23.2843 30 15 30C6.71573 30 0 23.2843 0 15C0 6.71573 6.71573 0 15 0C23.2843 0 30 6.71573 30 15ZM4.98478 15C4.98478 20.5313 9.46875 25.0152 15 25.0152C20.5313 25.0152 25.0152 20.5313 25.0152 15C25.0152 9.46875 20.5313 4.98478 15 4.98478C9.46875 4.98478 4.98478 9.46875 4.98478 15Z"/></clipPath></defs>
</svg>
