<svg width="72" height="72" viewBox="0 0 72 72" fill="none" xmlns="http://www.w3.org/2000/svg">
<path d="M14.9256 6.78403H6.78467V14.925H14.9256V6.78403Z" fill="#0A0909"/>
<path d="M50.4001 0V3.60032H46.7998V7.20064H50.4001V21.6001H54.0004V25.2004H50.4001V28.8007H57.5998V21.6001H68.3999V25.2004H72.0002V0H50.4001ZM68.4017 18.0016H53.9995V3.60032H68.399L68.4017 18.0016Z" fill="#0A0909"/>
<path d="M65.1292 6.78403H56.9883V14.925H65.1292V6.78403Z" fill="#0A0909"/>
<path d="M14.9256 56.9883H6.78467V65.1292H14.9256V56.9883Z" fill="#0A0909"/>
<path d="M54.0002 50.3998H50.3999V54.0002H54.0002V50.3998Z" fill="#0A0909"/>
<path d="M36.0002 68.3997H32.3999V72H36.0002V68.3997Z" fill="#0A0909"/>
<path d="M39.5998 53.9993H35.9995V57.5996H39.5998V53.9993Z" fill="#0A0909"/>
<path d="M39.5998 61.199H35.9995V64.7994H39.5998V61.199Z" fill="#0A0909"/>
<path d="M71.9997 43.1993H68.3994V46.7996H71.9997V43.1993Z" fill="#0A0909"/>
<path d="M3.60032 43.1993H0V46.7996H3.60032V43.1993Z" fill="#0A0909"/>
<path d="M3.60032 25.1995H0V28.7998H3.60032V25.1995Z" fill="#0A0909"/>
<path d="M39.5996 3.60031V7.20063H32.3999V10.8009H43.1999V3.60031H39.5996Z" fill="#0A0909"/>
<path d="M68.3985 28.7998V32.4002H61.2024V36.0005H50.3987V32.4002H46.7984V36.0005H39.5987V39.6008H50.3987V43.2011H39.5987V39.6008H35.9984V43.2011H32.398V39.6008H28.7977V43.2011H25.1992V46.8014H32.3989V50.4017H35.9993V46.8014H43.2008V50.4017H39.6005V54.0021H43.2008V61.2018H46.8011V64.8021H50.4015V61.2018H61.2024V54.0021H64.8027V50.4017H61.2024V43.202H54.0027V39.6017H61.2024V43.202H64.8027V39.6017H68.403V36.0014H72.0034V28.7998H68.3985ZM57.5984 46.8014V57.6015H46.7993V46.8014H57.5984Z" fill="#0A0909"/>
<path d="M46.7993 21.6001H43.199V25.2004H39.5996V32.4001H43.1999V28.7998H46.8003V25.1995H50.4006V21.6001H46.7993Z" fill="#0A0909"/>
<path d="M46.7993 68.3997H39.5996V72H46.7993V68.3997Z" fill="#0A0909"/>
<path d="M32.4001 3.60031H28.7998V7.20063H32.4001V3.60031Z" fill="#0A0909"/>
<path d="M61.1999 28.7998H57.5996V32.4002H61.1999V28.7998Z" fill="#0A0909"/>
<path d="M64.7995 25.1995H61.1992V28.7998H64.7995V25.1995Z" fill="#0A0909"/>
<path d="M17.9997 43.1993H14.3994V46.7996H17.9997V43.1993Z" fill="#0A0909"/>
<path d="M21.6001 68.3996V53.9993H25.2004V46.7996H21.6001V50.3999H10.8V46.7996H3.60032V50.3999H0V72H28.7998V68.3996H21.6001ZM17.9998 68.3996H3.60032V53.9993H18.0016L17.9998 68.3996Z" fill="#0A0909"/>
<path d="M25.2004 21.6001H21.6001V25.2004H25.2004V21.6001Z" fill="#0A0909"/>
<path d="M25.1995 0H0V21.6001H3.60032V25.2004H7.20064V21.6001H10.801V25.2004H14.4013V21.6001H21.601V14.3994H25.2013V10.7991H21.601V3.60032H28.8007V0H25.1995ZM18.0016 18.0016H3.60032V3.60032H18.0016V18.0016Z" fill="#0A0909"/>
<path d="M46.7995 10.8001H43.1992V14.4004H46.7995V10.8001Z" fill="#0A0909"/>
<path d="M39.5998 0H35.9995V3.60032H39.5998V0Z" fill="#0A0909"/>
<path d="M43.1993 21.5992V17.9989H39.5989V14.3995H36.0032V17.9998H28.7998V14.3995H25.1995V21.5992H28.7998V28.7989H18.0016V25.1986H14.4013V28.7989H3.60032V32.3992H10.8V35.9996H0V39.5999H10.8V43.2002H14.4004V39.5999H18.0016V43.2002H21.6019V39.5999H28.8016V35.9996H25.2013V32.4011H32.401V36.0014H39.6008V32.4011H36.0032V28.8008H32.4029V21.601L43.1993 21.5992ZM21.6001 35.9996H14.3994V32.4011H21.5992L21.6001 35.9996Z" fill="#0A0909"/>
<path d="M32.3989 57.5996V50.3998H28.7986V54.0002H25.1992V57.6005H28.7995V61.2008H25.1992V64.8011H32.3989V61.2008H35.9993V57.6005L32.3989 57.5996Z" fill="#0A0909"/>
<path d="M64.8003 64.7994V61.199H61.1999V64.7994H50.3999V68.3996H57.5996V72H61.1999V68.3996H68.4015V72H72.0018V64.7994H64.8003Z" fill="#0A0909"/>
<path d="M68.3996 50.3998V54.0002H64.7993V57.6005H71.999V50.3998H68.3996Z" fill="#0A0909"/>
</svg>
