<svg width="48" height="40" viewBox="0 0 48 40" fill="none" xmlns="http://www.w3.org/2000/svg">
<rect x="6.7999" y="7.728" width="34.4" height="24.544" rx="3.6" stroke="white" stroke-width="0.8"/>
<path d="M37.6006 7.32776C39.8096 7.32787 41.6005 9.11877 41.6006 11.3278V11.5524H6.40039V11.3278C6.40049 9.11871 8.19131 7.32776 10.4004 7.32776H37.6006ZM11.3281 8.73596C10.9393 8.73596 10.624 9.05126 10.624 9.44006C10.6241 9.82882 10.9394 10.1442 11.3281 10.1442C11.7168 10.144 12.0322 9.82872 12.0322 9.44006C12.0322 9.05135 11.7168 8.73612 11.3281 8.73596ZM14.1436 8.73596C13.7547 8.73596 13.4395 9.05126 13.4395 9.44006C13.4395 9.82882 13.7548 10.1442 14.1436 10.1442C14.5323 10.1441 14.8476 9.82878 14.8477 9.44006C14.8477 9.05129 14.5323 8.73602 14.1436 8.73596ZM16.959 8.73596C16.5702 8.73601 16.2549 9.05129 16.2549 9.44006C16.2549 9.82879 16.5703 10.1441 16.959 10.1442C17.3478 10.1442 17.663 9.82882 17.6631 9.44006C17.6631 9.05126 17.3478 8.73596 16.959 8.73596ZM31.7432 8.73596C31.3545 8.73612 31.0391 9.05135 31.0391 9.44006C31.0391 9.82872 31.3545 10.144 31.7432 10.1442H37.375C37.7638 10.1442 38.079 9.82882 38.0791 9.44006C38.0791 9.05125 37.7638 8.73596 37.375 8.73596H31.7432Z" fill="white"/>
<rect x="26.8159" y="17.184" width="9.856" height="1.408" rx="0.704" fill="white"/>
<rect x="26.8159" y="20.704" width="7.04" height="1.408" rx="0.704" fill="white"/>
<rect x="26.8159" y="24.224" width="7.04" height="1.408" rx="0.704" fill="white"/>
<g clip-path="url(#clip0_1_6793)">
<path d="M14.1934 18.8179L13.2175 18.8933C12.946 18.9143 12.7041 19.0566 12.5539 19.2837L11.4285 20.9859C11.3146 21.1581 11.2965 21.3737 11.38 21.5626C11.4636 21.7514 11.6353 21.883 11.8393 21.9146L12.7329 22.053C12.9419 20.9438 13.4422 19.8373 14.1934 18.8179Z" fill="white"/>
<path d="M16.3149 25.6353L16.4533 26.5288C16.485 26.7329 16.6166 26.9046 16.8054 26.9881C16.8839 27.0229 16.9671 27.04 17.0498 27.04C17.1661 27.04 17.2815 27.0062 17.3821 26.9397L19.0843 25.8142C19.3114 25.664 19.4538 25.4222 19.4747 25.1507L19.5501 24.1748C18.5307 24.9259 17.4242 25.4263 16.3149 25.6353Z" fill="white"/>
<path d="M15.9789 25.0159C16.0099 25.0159 16.0411 25.0134 16.0722 25.0082C16.537 24.9305 16.9849 24.7996 17.4122 24.6282L13.7397 20.9558C13.5684 21.3831 13.4375 21.831 13.3598 22.2957C13.3292 22.4789 13.3906 22.6655 13.5219 22.7969L15.5711 24.846C15.6801 24.9551 15.8273 25.0159 15.9789 25.0159Z" fill="white"/>
<path d="M21.694 20.77C22.5927 19.0326 22.626 17.1966 22.579 16.3355C22.5629 16.0405 22.3277 15.8053 22.0326 15.7892C21.8924 15.7815 21.7262 15.776 21.539 15.776C20.5761 15.776 19.0526 15.9218 17.5981 16.6742C16.4422 17.2721 14.9265 18.5885 14.0322 20.3187C14.0428 20.3269 14.0531 20.3357 14.0628 20.3454L18.0228 24.3054C18.0325 24.3151 18.0413 24.3254 18.0495 24.3359C19.7796 23.4417 21.0961 21.9259 21.694 20.77ZM17.8775 18.1573C18.5208 17.514 19.5675 17.5139 20.2109 18.1573C20.5225 18.4689 20.6941 18.8833 20.6941 19.324C20.6941 19.7647 20.5225 20.1791 20.2109 20.4907C19.8893 20.8123 19.4666 20.9732 19.0442 20.9732C18.6216 20.9732 18.1992 20.8124 17.8775 20.4907C17.5658 20.1791 17.3942 19.7647 17.3942 19.324C17.3942 18.8833 17.5658 18.4689 17.8775 18.1573Z" fill="white"/>
<path d="M18.3442 20.024C18.7301 20.41 19.3582 20.41 19.7442 20.024C19.9312 19.837 20.0342 19.5884 20.0342 19.324C20.0342 19.0595 19.9312 18.8109 19.7442 18.624C19.5513 18.431 19.2977 18.3345 19.0442 18.3345C18.7907 18.3345 18.5372 18.431 18.3442 18.624C18.1572 18.8109 18.0542 19.0595 18.0542 19.324C18.0542 19.5884 18.1572 19.8371 18.3442 20.024Z" fill="white"/>
<path d="M11.665 25.0586C11.7494 25.0586 11.8339 25.0264 11.8983 24.9619L12.9757 23.8845C13.1046 23.7556 13.1046 23.5467 12.9757 23.4178C12.8469 23.2889 12.6379 23.2889 12.509 23.4178L11.4316 24.4952C11.3027 24.6241 11.3027 24.833 11.4316 24.9619C11.4961 25.0264 11.5805 25.0586 11.665 25.0586Z" fill="white"/>
<path d="M13.9629 24.4053C13.834 24.2764 13.6251 24.2764 13.4962 24.4053L11.4248 26.4767C11.2959 26.6055 11.2959 26.8145 11.4248 26.9433C11.4892 27.0078 11.5737 27.04 11.6581 27.04C11.7426 27.04 11.8271 27.0078 11.8915 26.9433L13.9629 24.8719C14.0918 24.7431 14.0918 24.5341 13.9629 24.4053Z" fill="white"/>
<path d="M14.4836 25.3926L13.4062 26.47C13.2774 26.5988 13.2774 26.8078 13.4062 26.9366C13.4707 27.0011 13.5551 27.0333 13.6396 27.0333C13.724 27.0333 13.8085 27.0011 13.8729 26.9366L14.9503 25.8592C15.0792 25.7304 15.0792 25.5214 14.9503 25.3926C14.8214 25.2637 14.6125 25.2637 14.4836 25.3926Z" fill="white"/>
</g>
<defs>
<clipPath id="clip0_1_6793">
<rect width="11.264" height="11.264" fill="white" transform="translate(11.3281 15.776)"/>
</clipPath>
</defs>
</svg>
