<svg width="48" height="40" viewBox="0 0 48 40" fill="none" xmlns="http://www.w3.org/2000/svg">
<rect x="6.7999" y="7.728" width="34.4" height="24.544" rx="3.6" stroke="white" stroke-width="0.8"/>
<path d="M37.6006 7.32776C39.8096 7.32787 41.6005 9.11877 41.6006 11.3278V11.5524H6.40039V11.3278C6.40049 9.11871 8.19131 7.32776 10.4004 7.32776H37.6006ZM11.3281 8.73596C10.9393 8.73596 10.624 9.05125 10.624 9.44006C10.6241 9.82882 10.9394 10.1442 11.3281 10.1442C11.7168 10.144 12.0322 9.82872 12.0322 9.44006C12.0322 9.05135 11.7168 8.73612 11.3281 8.73596ZM14.1436 8.73596C13.7547 8.73596 13.4395 9.05125 13.4395 9.44006C13.4395 9.82882 13.7548 10.1442 14.1436 10.1442C14.5323 10.1441 14.8476 9.82878 14.8477 9.44006C14.8477 9.05129 14.5323 8.73602 14.1436 8.73596ZM16.959 8.73596C16.5702 8.73601 16.2549 9.05129 16.2549 9.44006C16.2549 9.82879 16.5703 10.1441 16.959 10.1442C17.3478 10.1442 17.663 9.82882 17.6631 9.44006C17.6631 9.05125 17.3478 8.73596 16.959 8.73596ZM31.7432 8.73596C31.3545 8.73612 31.0391 9.05135 31.0391 9.44006C31.0391 9.82872 31.3545 10.144 31.7432 10.1442H37.375C37.7638 10.1442 38.079 9.82882 38.0791 9.44006C38.0791 9.05125 37.7638 8.73596 37.375 8.73596H31.7432Z" fill="white"/>
<rect x="26.8159" y="17.184" width="9.856" height="1.408" rx="0.704" fill="white"/>
<rect x="26.8159" y="20.704" width="7.04" height="1.408" rx="0.704" fill="white"/>
<rect x="26.8159" y="24.224" width="7.04" height="1.408" rx="0.704" fill="white"/>
<g clip-path="url(#clip0_1_6797)">
<path d="M16.9601 15.776C15.8462 15.776 14.7573 16.1063 13.8312 16.7252C12.905 17.344 12.1831 18.2236 11.7568 19.2527C11.3306 20.2818 11.219 21.4142 11.4363 22.5067C11.6537 23.5993 12.1901 24.6028 12.9777 25.3904C13.7654 26.1781 14.7689 26.7145 15.8614 26.9318C16.9539 27.1491 18.0863 27.0376 19.1154 26.6113C20.1445 26.185 21.0241 25.4632 21.643 24.537C22.2618 23.6108 22.5921 22.5219 22.5921 21.408C22.5921 19.9143 21.9988 18.4818 20.9426 17.4256C19.8863 16.3694 18.4538 15.776 16.9601 15.776ZM18.5623 19.4412C18.5623 19.5472 18.5178 19.5895 18.4141 19.5895C18.2147 19.5895 18.0154 19.5895 17.8168 19.5976C17.6182 19.6058 17.51 19.6962 17.51 19.9037C17.5055 20.126 17.51 20.3438 17.51 20.5706H18.3629C18.4845 20.5706 18.526 20.6121 18.526 20.7344C18.526 21.0308 18.526 21.3287 18.526 21.6281C18.526 21.7489 18.4874 21.7867 18.3652 21.7874H17.5026V24.1988C17.5026 24.3277 17.4626 24.3685 17.3351 24.3685H16.4073C16.2954 24.3685 16.2517 24.3248 16.2517 24.2129V21.7911H15.5151C15.3995 21.7911 15.358 21.7489 15.358 21.6325C15.358 21.3327 15.358 21.033 15.358 20.7336C15.358 20.618 15.4017 20.5743 15.5158 20.5743H16.2517V19.9259C16.2429 19.6346 16.3128 19.3464 16.454 19.0915C16.6007 18.8341 16.8359 18.6387 17.1157 18.5416C17.2974 18.4755 17.4894 18.4424 17.6827 18.4438H18.4111C18.5156 18.4438 18.5593 18.4897 18.5593 18.592C18.563 18.8773 18.563 19.1596 18.5623 19.4412Z" fill="white"/>
</g>
<defs>
<clipPath id="clip0_1_6797">
<rect width="11.264" height="11.264" fill="white" transform="translate(11.3281 15.776)"/>
</clipPath>
</defs>
</svg>
