<svg width="350" height="340" viewBox="0 0 350 340" fill="none" xmlns="http://www.w3.org/2000/svg">
<path d="M0 24C0 10.7452 10.7452 0 24 0H326C339.255 0 350 10.7452 350 24V340H0V24Z" fill="#CCCE65"/>
<g clip-path="url(#clip0_71_3510)">
<g filter="url(#filter0_d_71_3510)">
<rect x="30" y="76" width="290" height="224" rx="6" fill="white" shape-rendering="crispEdges"/>
<path d="M38 90C38 86.6863 40.6863 84 44 84H306C309.314 84 312 86.6863 312 90V198C312 201.314 309.314 204 306 204H44C40.6863 204 38 201.314 38 198V90Z" fill="#CDD0DB" fill-opacity="0.5"/>
<path d="M202.6 119.933L199.067 116.4L175 140.467L150.933 116.4L147.4 119.933L171.467 144L147.4 168.067L150.933 171.6L175 147.533L199.067 171.6L202.6 168.067L178.533 144L202.6 119.933Z" fill="white"/>
<path d="M38 220C38 217.791 39.7909 216 42 216H308C310.209 216 312 217.791 312 220C312 222.209 310.209 224 308 224H42C39.7909 224 38 222.209 38 220Z" fill="#CDD0DB" fill-opacity="0.5"/>
<path d="M38 236C38 233.791 39.7909 232 42 232H308C310.209 232 312 233.791 312 236C312 238.209 310.209 240 308 240H42C39.7909 240 38 238.209 38 236Z" fill="#CDD0DB" fill-opacity="0.5"/>
<path d="M38 258C38 254.686 40.6863 252 44 252H306C309.314 252 312 254.686 312 258V286C312 289.314 309.314 292 306 292H44C40.6863 292 38 289.314 38 286V258Z" fill="#CCCE65"/>
<path opacity="0.3" d="M135 272C135 270.343 136.343 269 138 269H212C213.657 269 215 270.343 215 272C215 273.657 213.657 275 212 275H138C136.343 275 135 273.657 135 272Z" fill="white"/>
</g>
<g filter="url(#filter1_d_71_3510)">
<rect x="30" y="308" width="290" height="56" rx="6" fill="white" shape-rendering="crispEdges"/>
<path d="M38 336C38 324.954 46.9543 316 58 316C69.0457 316 78 324.954 78 336C78 347.046 69.0457 356 58 356C46.9543 356 38 347.046 38 336Z" fill="#CDD0DB" fill-opacity="0.5"/>
<path d="M90 322C90 320.343 91.3431 319 93 319H309C310.657 319 312 320.343 312 322C312 323.657 310.657 325 309 325H93C91.3431 325 90 323.657 90 322Z" fill="#CDD0DB" fill-opacity="0.5"/>
<path d="M90 336C90 334.343 91.3431 333 93 333H309C310.657 333 312 334.343 312 336C312 337.657 310.657 339 309 339H93C91.3431 339 90 337.657 90 336Z" fill="#CDD0DB" fill-opacity="0.5"/>
</g>
</g>
<path d="M30 40C30 28.9543 38.9543 20 50 20H300C311.046 20 320 28.9543 320 40C320 51.0457 311.046 60 300 60H50C38.9543 60 30 51.0457 30 40Z" fill="white" fill-opacity="0.6"/>
<path d="M111.235 31.6338C106.621 31.6338 102.869 35.3859 102.869 39.9998C102.869 44.6137 106.621 48.3658 111.235 48.3658C115.849 48.3658 119.601 44.6137 119.601 39.9998C119.601 35.3859 115.849 31.6338 111.235 31.6338ZM111.235 46.8976C110.779 46.4584 110.005 45.6009 109.361 44.3501C109.943 44.2497 110.562 44.1828 111.235 44.1828C111.909 44.1828 112.528 44.2456 113.109 44.3501C112.465 45.6009 111.691 46.4584 111.235 46.8976ZM111.235 42.9279C110.374 42.9279 109.583 43.0241 108.855 43.1705C108.587 42.4218 108.395 41.5684 108.336 40.6273H114.138C114.076 41.5684 113.887 42.4218 113.62 43.1705C112.892 43.0241 112.101 42.9279 111.239 42.9279H111.235ZM108.336 39.3724C108.399 38.4312 108.587 37.5778 108.855 36.8291C109.583 36.9755 110.374 37.0717 111.235 37.0717C112.097 37.0717 112.888 36.9755 113.615 36.8291C113.883 37.5778 114.076 38.4312 114.134 39.3724H108.332H108.336ZM111.235 35.8168C110.562 35.8168 109.943 35.7541 109.361 35.6495C110.005 34.3988 110.779 33.5412 111.235 33.102C111.691 33.5412 112.465 34.3988 113.109 35.6495C112.528 35.7499 111.909 35.8168 111.235 35.8168ZM112.946 33.1062C114.088 33.3907 115.121 33.9512 115.975 34.7125C115.514 34.9425 114.979 35.1642 114.373 35.3525C113.933 34.428 113.419 33.6751 112.95 33.1062H112.946ZM108.102 35.3525C107.491 35.1642 106.96 34.9425 106.5 34.7125C107.349 33.9512 108.382 33.3907 109.529 33.1062C109.06 33.6751 108.546 34.428 108.106 35.3525H108.102ZM107.621 36.5195C107.337 37.3603 107.14 38.3182 107.082 39.3724H104.158C104.279 37.9836 104.802 36.712 105.609 35.6662C106.165 35.9674 106.839 36.2686 107.621 36.5195ZM107.082 40.6273C107.14 41.6814 107.337 42.6393 107.621 43.4801C106.839 43.7269 106.165 44.0322 105.609 44.3334C104.802 43.2876 104.279 42.016 104.158 40.6273H107.082ZM108.102 44.6471C108.541 45.5716 109.056 46.3245 109.524 46.8934C108.382 46.609 107.349 46.0484 106.496 45.2871C106.956 45.0571 107.491 44.8354 108.098 44.6471H108.102ZM114.368 44.6471C114.979 44.8354 115.51 45.0571 115.97 45.2871C115.121 46.0484 114.088 46.609 112.942 46.8934C113.41 46.3245 113.925 45.5716 114.364 44.6471H114.368ZM114.849 43.4801C115.134 42.6393 115.33 41.6814 115.389 40.6273H118.313C118.192 42.016 117.669 43.2876 116.861 44.3334C116.305 44.0322 115.632 43.731 114.849 43.4801ZM115.389 39.3724C115.33 38.3182 115.134 37.3603 114.849 36.5195C115.632 36.2727 116.305 35.9674 116.861 35.6662C117.669 36.712 118.192 37.9836 118.313 39.3724H115.389Z" fill="#3F3E3E"/>
<path d="M136.032 44H134.903L133.585 38.8424H133.56L132.255 44H131.1L129.017 37.5122H130.197L131.665 42.8204H131.69L132.995 37.5122H134.162L135.518 42.8204H135.543L136.998 37.5122H138.103L136.032 44ZM145.542 44H144.413L143.095 38.8424H143.07L141.765 44H140.61L138.527 37.5122H139.707L141.175 42.8204H141.2L142.505 37.5122H143.672L145.027 42.8204H145.053L146.508 37.5122H147.613L145.542 44ZM155.052 44H153.922L152.605 38.8424H152.58L151.274 44H150.12L148.037 37.5122H149.216L150.685 42.8204H150.71L152.015 37.5122H153.182L154.537 42.8204H154.562L156.018 37.5122H157.122L155.052 44ZM157.689 42.6071H159.082V44H157.689V42.6071ZM160.943 37.5122H161.947V38.4659H161.972C162.457 37.7297 163.156 37.3616 164.068 37.3616C164.469 37.3616 164.833 37.4452 165.159 37.6125C165.486 37.7799 165.716 38.0643 165.849 38.4659C166.067 38.1145 166.351 37.8426 166.703 37.6502C167.063 37.4578 167.456 37.3616 167.882 37.3616C168.209 37.3616 168.502 37.3992 168.761 37.4745C169.029 37.5414 169.254 37.6502 169.439 37.8008C169.631 37.9514 169.777 38.148 169.878 38.3906C169.986 38.6248 170.041 38.9093 170.041 39.2439V44H168.974V39.7459C168.974 39.5451 168.957 39.3569 168.924 39.1812C168.891 39.0055 168.828 38.8549 168.736 38.7294C168.644 38.5956 168.514 38.491 168.347 38.4157C168.188 38.3404 167.979 38.3027 167.719 38.3027C167.192 38.3027 166.778 38.4533 166.477 38.7545C166.176 39.0557 166.025 39.4573 166.025 39.9592V44H164.959V39.7459C164.959 39.5367 164.938 39.3443 164.896 39.1686C164.862 38.9929 164.8 38.8424 164.708 38.7169C164.615 38.583 164.49 38.4826 164.331 38.4157C164.18 38.3404 163.984 38.3027 163.741 38.3027C163.432 38.3027 163.164 38.3655 162.938 38.491C162.721 38.6165 162.541 38.7671 162.399 38.9427C162.265 39.1184 162.164 39.3025 162.097 39.4949C162.039 39.679 162.009 39.8337 162.009 39.9592V44H160.943V37.5122ZM174.189 44.8659C174.063 45.1838 173.938 45.4515 173.812 45.669C173.695 45.8865 173.561 46.0622 173.411 46.1961C173.269 46.3383 173.105 46.4387 172.921 46.4973C172.746 46.5642 172.541 46.5976 172.306 46.5976C172.181 46.5976 172.055 46.5893 171.93 46.5725C171.804 46.5558 171.683 46.5265 171.566 46.4847V45.5059C171.658 45.5477 171.763 45.5812 171.88 45.6063C172.005 45.6397 172.11 45.6565 172.194 45.6565C172.411 45.6565 172.591 45.6021 172.733 45.4933C172.884 45.3929 172.997 45.2465 173.072 45.0541L173.511 43.9624L170.939 37.5122H172.143L174.038 42.8204H174.063L175.883 37.5122H177.012L174.189 44.8659ZM184.341 44H183.212L181.894 38.8424H181.869L180.564 44H179.409L177.326 37.5122H178.506L179.974 42.8204H179.999L181.304 37.5122H182.471L183.826 42.8204H183.852L185.307 37.5122H186.412L184.341 44ZM191.931 40.1349C191.914 39.8839 191.855 39.6455 191.755 39.4196C191.663 39.1937 191.533 39.0013 191.366 38.8424C191.207 38.675 191.015 38.5454 190.789 38.4533C190.571 38.3529 190.329 38.3027 190.061 38.3027C189.785 38.3027 189.534 38.3529 189.308 38.4533C189.09 38.5454 188.902 38.675 188.743 38.8424C188.584 39.0097 188.459 39.2063 188.367 39.4322C188.275 39.6497 188.22 39.8839 188.204 40.1349H191.931ZM192.96 41.942C192.818 42.6698 192.504 43.2178 192.019 43.5859C191.533 43.954 190.923 44.138 190.186 44.138C189.668 44.138 189.216 44.0544 188.831 43.8871C188.455 43.7197 188.137 43.4855 187.877 43.1843C187.618 42.8831 187.421 42.5234 187.288 42.1051C187.162 41.6868 187.091 41.2308 187.074 40.7373C187.074 40.2437 187.15 39.7919 187.3 39.382C187.451 38.972 187.66 38.6165 187.928 38.3153C188.204 38.0141 188.526 37.7799 188.894 37.6125C189.27 37.4452 189.68 37.3616 190.124 37.3616C190.701 37.3616 191.178 37.4829 191.554 37.7255C191.939 37.9597 192.244 38.2609 192.47 38.629C192.705 38.9971 192.864 39.3987 192.947 39.8337C193.039 40.2688 193.077 40.6829 193.06 41.0761H188.204C188.195 41.3605 188.229 41.6324 188.304 41.8918C188.379 42.1427 188.501 42.3686 188.668 42.5694C188.835 42.7618 189.049 42.9166 189.308 43.0337C189.567 43.1508 189.873 43.2094 190.224 43.2094C190.676 43.2094 191.044 43.1048 191.328 42.8957C191.621 42.6865 191.814 42.3686 191.906 41.942H192.96ZM194.204 35.04H195.27V38.3906H195.295C195.471 38.0308 195.747 37.7715 196.124 37.6125C196.5 37.4452 196.914 37.3616 197.366 37.3616C197.868 37.3616 198.303 37.4536 198.671 37.6376C199.047 37.8217 199.357 38.0727 199.6 38.3906C199.851 38.7001 200.039 39.0599 200.164 39.4698C200.29 39.8797 200.353 40.3148 200.353 40.7749C200.353 41.235 200.29 41.6701 200.164 42.08C200.047 42.4899 199.863 42.8497 199.612 43.1592C199.37 43.4604 199.06 43.6988 198.684 43.8745C198.315 44.0502 197.885 44.138 197.391 44.138C197.232 44.138 197.052 44.1213 196.851 44.0878C196.659 44.0544 196.467 44 196.274 43.9247C196.082 43.8494 195.898 43.749 195.722 43.6235C195.555 43.4897 195.412 43.3265 195.295 43.1341H195.27V44H194.204V35.04ZM199.223 40.6996C199.223 40.3984 199.181 40.1056 199.098 39.8212C199.022 39.5284 198.901 39.269 198.734 39.0431C198.575 38.8173 198.366 38.6374 198.106 38.5035C197.855 38.3697 197.558 38.3027 197.215 38.3027C196.856 38.3027 196.55 38.3739 196.299 38.5161C196.048 38.6583 195.843 38.8465 195.684 39.0808C195.525 39.3067 195.408 39.566 195.333 39.8588C195.266 40.1516 195.233 40.4486 195.233 40.7498C195.233 41.0677 195.27 41.3773 195.345 41.6784C195.421 41.9712 195.538 42.2306 195.697 42.4565C195.864 42.6824 196.077 42.8664 196.337 43.0086C196.596 43.1425 196.91 43.2094 197.278 43.2094C197.646 43.2094 197.951 43.1383 198.194 42.9961C198.445 42.8539 198.646 42.6656 198.796 42.4314C198.947 42.1971 199.056 41.9294 199.123 41.6282C199.19 41.3271 199.223 41.0175 199.223 40.6996ZM202.257 41.9545C202.265 42.1888 202.32 42.3895 202.42 42.5569C202.521 42.7158 202.65 42.8455 202.809 42.9459C202.977 43.0379 203.161 43.1048 203.361 43.1467C203.571 43.1885 203.784 43.2094 204.001 43.2094C204.169 43.2094 204.344 43.1969 204.529 43.1718C204.713 43.1467 204.88 43.1007 205.03 43.0337C205.189 42.9668 205.319 42.8706 205.419 42.7451C205.52 42.6112 205.57 42.4439 205.57 42.2431C205.57 41.9671 205.465 41.7579 205.256 41.6157C205.047 41.4735 204.784 41.3605 204.466 41.2769C204.156 41.1848 203.817 41.1054 203.449 41.0384C203.081 40.9631 202.738 40.8627 202.42 40.7373C202.111 40.6034 201.851 40.4193 201.642 40.1851C201.433 39.9508 201.329 39.6246 201.329 39.2063C201.329 38.88 201.4 38.5997 201.542 38.3655C201.692 38.1312 201.881 37.943 202.107 37.8008C202.341 37.6502 202.6 37.5414 202.885 37.4745C203.177 37.3992 203.466 37.3616 203.75 37.3616C204.119 37.3616 204.457 37.395 204.767 37.462C205.076 37.5205 205.348 37.6293 205.583 37.7882C205.825 37.9388 206.018 38.148 206.16 38.4157C206.302 38.675 206.386 39.0013 206.411 39.3945H205.344C205.327 39.1854 205.273 39.0139 205.181 38.88C205.089 38.7378 204.972 38.6248 204.83 38.5412C204.687 38.4575 204.529 38.399 204.353 38.3655C204.185 38.3237 204.014 38.3027 203.838 38.3027C203.679 38.3027 203.516 38.3153 203.349 38.3404C203.19 38.3655 203.044 38.4115 202.91 38.4784C202.776 38.537 202.667 38.6207 202.583 38.7294C202.5 38.8298 202.458 38.9637 202.458 39.131C202.458 39.315 202.521 39.4698 202.646 39.5953C202.78 39.7124 202.947 39.8128 203.148 39.8965C203.349 39.9718 203.575 40.0387 203.826 40.0973C204.077 40.1475 204.328 40.2018 204.579 40.2604C204.846 40.319 205.106 40.3901 205.357 40.4737C205.616 40.5574 205.842 40.6703 206.034 40.8125C206.235 40.9464 206.394 41.1179 206.511 41.3271C206.637 41.5362 206.699 41.7956 206.699 42.1051C206.699 42.4983 206.616 42.8246 206.449 43.0839C206.29 43.3433 206.076 43.5524 205.809 43.7114C205.549 43.8703 205.252 43.9791 204.918 44.0376C204.591 44.1046 204.265 44.138 203.939 44.138C203.579 44.138 203.236 44.1004 202.91 44.0251C202.583 43.9498 202.295 43.8285 202.044 43.6612C201.793 43.4855 201.592 43.2596 201.441 42.9835C201.291 42.6991 201.207 42.3561 201.19 41.9545H202.257ZM209.008 36.3451H207.942V35.04H209.008V36.3451ZM207.942 37.5122H209.008V44H207.942V37.5122ZM212.142 37.5122H213.434V38.4533H212.142V42.4816C212.142 42.6071 212.15 42.7075 212.167 42.7827C212.192 42.858 212.234 42.9166 212.292 42.9584C212.351 43.0003 212.43 43.0295 212.531 43.0463C212.64 43.0546 212.778 43.0588 212.945 43.0588H213.434V44H212.619C212.343 44 212.104 43.9833 211.903 43.9498C211.711 43.908 211.552 43.8369 211.426 43.7365C211.309 43.6361 211.221 43.4939 211.163 43.3098C211.104 43.1258 211.075 42.8831 211.075 42.582V38.4533H209.971V37.5122H211.075V35.5671H212.142V37.5122ZM219.124 40.1349C219.108 39.8839 219.049 39.6455 218.949 39.4196C218.857 39.1937 218.727 39.0013 218.56 38.8424C218.401 38.675 218.208 38.5454 217.982 38.4533C217.765 38.3529 217.522 38.3027 217.255 38.3027C216.979 38.3027 216.728 38.3529 216.502 38.4533C216.284 38.5454 216.096 38.675 215.937 38.8424C215.778 39.0097 215.652 39.2063 215.56 39.4322C215.468 39.6497 215.414 39.8839 215.397 40.1349H219.124ZM220.153 41.942C220.011 42.6698 219.697 43.2178 219.212 43.5859C218.727 43.954 218.116 44.138 217.38 44.138C216.861 44.138 216.41 44.0544 216.025 43.8871C215.648 43.7197 215.33 43.4855 215.071 43.1843C214.812 42.8831 214.615 42.5234 214.481 42.1051C214.356 41.6868 214.285 41.2308 214.268 40.7373C214.268 40.2437 214.343 39.7919 214.494 39.382C214.644 38.972 214.854 38.6165 215.121 38.3153C215.397 38.0141 215.719 37.7799 216.088 37.6125C216.464 37.4452 216.874 37.3616 217.317 37.3616C217.895 37.3616 218.371 37.4829 218.748 37.7255C219.133 37.9597 219.438 38.2609 219.664 38.629C219.898 38.9971 220.057 39.3987 220.141 39.8337C220.233 40.2688 220.271 40.6829 220.254 41.0761H215.397C215.389 41.3605 215.422 41.6324 215.498 41.8918C215.573 42.1427 215.694 42.3686 215.862 42.5694C216.029 42.7618 216.242 42.9166 216.502 43.0337C216.761 43.1508 217.066 43.2094 217.418 43.2094C217.869 43.2094 218.238 43.1048 218.522 42.8957C218.815 42.6865 219.007 42.3686 219.099 41.942H220.153ZM221.598 42.6071H222.991V44H221.598V42.6071ZM229.257 39.5953C229.173 39.1854 228.997 38.8675 228.73 38.6416C228.462 38.4157 228.102 38.3027 227.651 38.3027C227.266 38.3027 226.944 38.3739 226.684 38.5161C226.425 38.6583 226.216 38.8465 226.057 39.0808C225.906 39.315 225.797 39.5869 225.731 39.8965C225.664 40.1976 225.63 40.5114 225.63 40.8376C225.63 41.1388 225.664 41.4316 225.731 41.7161C225.806 42.0005 225.919 42.2557 226.069 42.4816C226.22 42.6991 226.417 42.8748 226.659 43.0086C226.902 43.1425 227.19 43.2094 227.525 43.2094C228.052 43.2094 228.462 43.0714 228.755 42.7953C229.056 42.5192 229.24 42.1302 229.307 41.6282H230.399C230.282 42.4314 229.98 43.0505 229.495 43.4855C229.018 43.9205 228.366 44.138 227.538 44.138C227.044 44.138 226.605 44.0586 226.22 43.8996C225.844 43.7407 225.526 43.5148 225.266 43.222C225.015 42.9292 224.823 42.582 224.689 42.1804C224.564 41.7705 224.501 41.3229 224.501 40.8376C224.501 40.3524 224.564 39.9007 224.689 39.4824C224.814 39.0557 225.003 38.6876 225.254 38.378C225.513 38.0601 225.835 37.8133 226.22 37.6376C226.605 37.4536 227.052 37.3616 227.563 37.3616C227.931 37.3616 228.274 37.4076 228.592 37.4996C228.918 37.5833 229.202 37.7171 229.445 37.9012C229.696 38.0852 229.901 38.3195 230.06 38.6039C230.219 38.88 230.319 39.2105 230.361 39.5953H229.257ZM232.37 40.7624C232.37 41.1556 232.421 41.5069 232.521 41.8165C232.63 42.1176 232.776 42.3728 232.96 42.582C233.144 42.7827 233.358 42.9375 233.6 43.0463C233.851 43.155 234.115 43.2094 234.391 43.2094C234.667 43.2094 234.926 43.155 235.169 43.0463C235.42 42.9375 235.637 42.7827 235.821 42.582C236.005 42.3728 236.148 42.1176 236.248 41.8165C236.357 41.5069 236.411 41.1556 236.411 40.7624C236.411 40.3692 236.357 40.022 236.248 39.7208C236.148 39.4112 236.005 39.1519 235.821 38.9427C235.637 38.7336 235.42 38.5746 235.169 38.4659C234.926 38.3571 234.667 38.3027 234.391 38.3027C234.115 38.3027 233.851 38.3571 233.6 38.4659C233.358 38.5746 233.144 38.7336 232.96 38.9427C232.776 39.1519 232.63 39.4112 232.521 39.7208C232.421 40.022 232.37 40.3692 232.37 40.7624ZM231.241 40.7624C231.241 40.2855 231.308 39.8421 231.442 39.4322C231.576 39.0139 231.776 38.6541 232.044 38.3529C232.312 38.0434 232.642 37.8008 233.035 37.6251C233.429 37.4494 233.88 37.3616 234.391 37.3616C234.909 37.3616 235.361 37.4494 235.746 37.6251C236.139 37.8008 236.47 38.0434 236.737 38.3529C237.005 38.6541 237.206 39.0139 237.34 39.4322C237.474 39.8421 237.541 40.2855 237.541 40.7624C237.541 41.2392 237.474 41.6826 237.34 42.0925C237.206 42.5025 237.005 42.8622 236.737 43.1718C236.47 43.4729 236.139 43.7114 235.746 43.8871C235.361 44.0544 234.909 44.138 234.391 44.138C233.88 44.138 233.429 44.0544 233.035 43.8871C232.642 43.7114 232.312 43.4729 232.044 43.1718C231.776 42.8622 231.576 42.5025 231.442 42.0925C231.308 41.6826 231.241 41.2392 231.241 40.7624ZM238.798 37.5122H239.802V38.4659H239.827C240.312 37.7297 241.011 37.3616 241.923 37.3616C242.324 37.3616 242.688 37.4452 243.015 37.6125C243.341 37.7799 243.571 38.0643 243.705 38.4659C243.922 38.1145 244.207 37.8426 244.558 37.6502C244.918 37.4578 245.311 37.3616 245.738 37.3616C246.064 37.3616 246.357 37.3992 246.616 37.4745C246.884 37.5414 247.11 37.6502 247.294 37.8008C247.486 37.9514 247.633 38.148 247.733 38.3906C247.842 38.6248 247.896 38.9093 247.896 39.2439V44H246.83V39.7459C246.83 39.5451 246.813 39.3569 246.779 39.1812C246.746 39.0055 246.683 38.8549 246.591 38.7294C246.499 38.5956 246.369 38.491 246.202 38.4157C246.043 38.3404 245.834 38.3027 245.575 38.3027C245.048 38.3027 244.634 38.4533 244.332 38.7545C244.031 39.0557 243.881 39.4573 243.881 39.9592V44H242.814V39.7459C242.814 39.5367 242.793 39.3443 242.751 39.1686C242.718 38.9929 242.655 38.8424 242.563 38.7169C242.471 38.583 242.345 38.4826 242.186 38.4157C242.036 38.3404 241.839 38.3027 241.597 38.3027C241.287 38.3027 241.019 38.3655 240.794 38.491C240.576 38.6165 240.396 38.7671 240.254 38.9427C240.12 39.1184 240.02 39.3025 239.953 39.4949C239.894 39.679 239.865 39.8337 239.865 39.9592V44H238.798V37.5122Z" fill="#3F3E3E"/>
<defs>
<filter id="filter0_d_71_3510" x="16" y="66" width="318" height="252" filterUnits="userSpaceOnUse" color-interpolation-filters="sRGB">
<feFlood flood-opacity="0" result="BackgroundImageFix"/>
<feColorMatrix in="SourceAlpha" type="matrix" values="0 0 0 0 0 0 0 0 0 0 0 0 0 0 0 0 0 0 127 0" result="hardAlpha"/>
<feOffset dy="4"/>
<feGaussianBlur stdDeviation="7"/>
<feComposite in2="hardAlpha" operator="out"/>
<feColorMatrix type="matrix" values="0 0 0 0 0.211765 0 0 0 0 0.258824 0 0 0 0 0.54902 0 0 0 0.16 0"/>
<feBlend mode="normal" in2="BackgroundImageFix" result="effect1_dropShadow_71_3510"/>
<feBlend mode="normal" in="SourceGraphic" in2="effect1_dropShadow_71_3510" result="shape"/>
</filter>
<filter id="filter1_d_71_3510" x="16" y="298" width="318" height="84" filterUnits="userSpaceOnUse" color-interpolation-filters="sRGB">
<feFlood flood-opacity="0" result="BackgroundImageFix"/>
<feColorMatrix in="SourceAlpha" type="matrix" values="0 0 0 0 0 0 0 0 0 0 0 0 0 0 0 0 0 0 127 0" result="hardAlpha"/>
<feOffset dy="4"/>
<feGaussianBlur stdDeviation="7"/>
<feComposite in2="hardAlpha" operator="out"/>
<feColorMatrix type="matrix" values="0 0 0 0 0.211765 0 0 0 0 0.258824 0 0 0 0 0.54902 0 0 0 0.16 0"/>
<feBlend mode="normal" in2="BackgroundImageFix" result="effect1_dropShadow_71_3510"/>
<feBlend mode="normal" in="SourceGraphic" in2="effect1_dropShadow_71_3510" result="shape"/>
</filter>
<clipPath id="clip0_71_3510">
<rect width="290" height="264" fill="white" transform="translate(30 76)"/>
</clipPath>
</defs>
</svg>
