<svg width="350" height="340" viewBox="0 0 350 340" fill="none" xmlns="http://www.w3.org/2000/svg">
<path d="M0 24C0 10.7452 10.7452 0 24 0H326C339.255 0 350 10.7452 350 24V340H0V24Z" fill="#7BA2EF"/>
<path d="M132.548 39.01C132.441 38.5033 132.205 38.1233 131.838 37.87C131.478 37.6167 131.048 37.49 130.548 37.49C130.121 37.49 129.755 37.57 129.448 37.73C129.148 37.89 128.898 38.1067 128.698 38.38C128.505 38.6467 128.361 38.9533 128.268 39.3C128.175 39.6467 128.128 40.0067 128.128 40.38C128.128 40.7867 128.175 41.1733 128.268 41.54C128.361 41.9 128.505 42.2167 128.698 42.49C128.898 42.7567 129.151 42.97 129.458 43.13C129.765 43.29 130.131 43.37 130.558 43.37C130.871 43.37 131.148 43.32 131.388 43.22C131.635 43.1133 131.845 42.97 132.018 42.79C132.198 42.6033 132.338 42.3833 132.438 42.13C132.538 41.8767 132.598 41.6033 132.618 41.31H133.568C133.475 42.21 133.165 42.91 132.638 43.41C132.111 43.91 131.391 44.16 130.478 44.16C129.925 44.16 129.441 44.0667 129.028 43.88C128.615 43.6867 128.271 43.4233 127.998 43.09C127.725 42.7567 127.518 42.3633 127.378 41.91C127.245 41.4567 127.178 40.97 127.178 40.45C127.178 39.93 127.251 39.4433 127.398 38.99C127.545 38.53 127.758 38.13 128.038 37.79C128.325 37.45 128.678 37.1833 129.098 36.99C129.525 36.79 130.011 36.69 130.558 36.69C130.931 36.69 131.285 36.74 131.618 36.84C131.951 36.94 132.248 37.0867 132.508 37.28C132.768 37.4733 132.985 37.7167 133.158 38.01C133.331 38.2967 133.445 38.63 133.498 39.01H132.548ZM135.225 41.42C135.225 41.7333 135.265 42.0133 135.345 42.26C135.432 42.5 135.548 42.7033 135.695 42.87C135.842 43.03 136.012 43.1533 136.205 43.24C136.405 43.3267 136.615 43.37 136.835 43.37C137.055 43.37 137.262 43.3267 137.455 43.24C137.655 43.1533 137.828 43.03 137.975 42.87C138.122 42.7033 138.235 42.5 138.315 42.26C138.402 42.0133 138.445 41.7333 138.445 41.42C138.445 41.1067 138.402 40.83 138.315 40.59C138.235 40.3433 138.122 40.1367 137.975 39.97C137.828 39.8033 137.655 39.6767 137.455 39.59C137.262 39.5033 137.055 39.46 136.835 39.46C136.615 39.46 136.405 39.5033 136.205 39.59C136.012 39.6767 135.842 39.8033 135.695 39.97C135.548 40.1367 135.432 40.3433 135.345 40.59C135.265 40.83 135.225 41.1067 135.225 41.42ZM134.325 41.42C134.325 41.04 134.378 40.6867 134.485 40.36C134.592 40.0267 134.752 39.74 134.965 39.5C135.178 39.2533 135.442 39.06 135.755 38.92C136.068 38.78 136.428 38.71 136.835 38.71C137.248 38.71 137.608 38.78 137.915 38.92C138.228 39.06 138.492 39.2533 138.705 39.5C138.918 39.74 139.078 40.0267 139.185 40.36C139.292 40.6867 139.345 41.04 139.345 41.42C139.345 41.8 139.292 42.1533 139.185 42.48C139.078 42.8067 138.918 43.0933 138.705 43.34C138.492 43.58 138.228 43.77 137.915 43.91C137.608 44.0433 137.248 44.11 136.835 44.11C136.428 44.11 136.068 44.0433 135.755 43.91C135.442 43.77 135.178 43.58 134.965 43.34C134.752 43.0933 134.592 42.8067 134.485 42.48C134.378 42.1533 134.325 41.8 134.325 41.42ZM140.347 38.83H141.147V39.65H141.167C141.52 39.0233 142.08 38.71 142.847 38.71C143.187 38.71 143.47 38.7567 143.697 38.85C143.924 38.9433 144.107 39.0733 144.247 39.24C144.387 39.4067 144.484 39.6067 144.537 39.84C144.597 40.0667 144.627 40.32 144.627 40.6V44H143.777V40.5C143.777 40.18 143.684 39.9267 143.497 39.74C143.31 39.5533 143.054 39.46 142.727 39.46C142.467 39.46 142.24 39.5 142.047 39.58C141.86 39.66 141.704 39.7733 141.577 39.92C141.45 40.0667 141.354 40.24 141.287 40.44C141.227 40.6333 141.197 40.8467 141.197 41.08V44H140.347V38.83ZM145.904 38.83H146.704V39.65H146.724C147.077 39.0233 147.637 38.71 148.404 38.71C148.744 38.71 149.027 38.7567 149.254 38.85C149.48 38.9433 149.664 39.0733 149.804 39.24C149.944 39.4067 150.04 39.6067 150.094 39.84C150.154 40.0667 150.184 40.32 150.184 40.6V44H149.334V40.5C149.334 40.18 149.24 39.9267 149.054 39.74C148.867 39.5533 148.61 39.46 148.284 39.46C148.024 39.46 147.797 39.5 147.604 39.58C147.417 39.66 147.26 39.7733 147.134 39.92C147.007 40.0667 146.91 40.24 146.844 40.44C146.784 40.6333 146.754 40.8467 146.754 41.08V44H145.904V38.83ZM155.05 40.92C155.037 40.72 154.99 40.53 154.91 40.35C154.837 40.17 154.734 40.0167 154.6 39.89C154.474 39.7567 154.32 39.6533 154.14 39.58C153.967 39.5 153.774 39.46 153.56 39.46C153.34 39.46 153.14 39.5 152.96 39.58C152.787 39.6533 152.637 39.7567 152.51 39.89C152.384 40.0233 152.284 40.18 152.21 40.36C152.137 40.5333 152.094 40.72 152.08 40.92H155.05ZM155.87 42.36C155.757 42.94 155.507 43.3767 155.12 43.67C154.734 43.9633 154.247 44.11 153.66 44.11C153.247 44.11 152.887 44.0433 152.58 43.91C152.28 43.7767 152.027 43.59 151.82 43.35C151.614 43.11 151.457 42.8233 151.35 42.49C151.25 42.1567 151.194 41.7933 151.18 41.4C151.18 41.0067 151.24 40.6467 151.36 40.32C151.48 39.9933 151.647 39.71 151.86 39.47C152.08 39.23 152.337 39.0433 152.63 38.91C152.93 38.7767 153.257 38.71 153.61 38.71C154.07 38.71 154.45 38.8067 154.75 39C155.057 39.1867 155.3 39.4267 155.48 39.72C155.667 40.0133 155.794 40.3333 155.86 40.68C155.934 41.0267 155.964 41.3567 155.95 41.67H152.08C152.074 41.8967 152.1 42.1133 152.16 42.32C152.22 42.52 152.317 42.7 152.45 42.86C152.584 43.0133 152.754 43.1367 152.96 43.23C153.167 43.3233 153.41 43.37 153.69 43.37C154.05 43.37 154.344 43.2867 154.57 43.12C154.804 42.9533 154.957 42.7 155.03 42.36H155.87ZM160.341 40.49C160.275 40.1633 160.135 39.91 159.921 39.73C159.708 39.55 159.421 39.46 159.061 39.46C158.755 39.46 158.498 39.5167 158.291 39.63C158.085 39.7433 157.918 39.8933 157.791 40.08C157.671 40.2667 157.585 40.4833 157.531 40.73C157.478 40.97 157.451 41.22 157.451 41.48C157.451 41.72 157.478 41.9533 157.531 42.18C157.591 42.4067 157.681 42.61 157.801 42.79C157.921 42.9633 158.078 43.1033 158.271 43.21C158.465 43.3167 158.695 43.37 158.961 43.37C159.381 43.37 159.708 43.26 159.941 43.04C160.181 42.82 160.328 42.51 160.381 42.11H161.251C161.158 42.75 160.918 43.2433 160.531 43.59C160.151 43.9367 159.631 44.11 158.971 44.11C158.578 44.11 158.228 44.0467 157.921 43.92C157.621 43.7933 157.368 43.6133 157.161 43.38C156.961 43.1467 156.808 42.87 156.701 42.55C156.601 42.2233 156.551 41.8667 156.551 41.48C156.551 41.0933 156.601 40.7333 156.701 40.4C156.801 40.06 156.951 39.7667 157.151 39.52C157.358 39.2667 157.615 39.07 157.921 38.93C158.228 38.7833 158.585 38.71 158.991 38.71C159.285 38.71 159.558 38.7467 159.811 38.82C160.071 38.8867 160.298 38.9933 160.491 39.14C160.691 39.2867 160.855 39.4733 160.981 39.7C161.108 39.92 161.188 40.1833 161.221 40.49H160.341ZM163.383 38.83H164.413V39.58H163.383V42.79C163.383 42.89 163.389 42.97 163.403 43.03C163.423 43.09 163.456 43.1367 163.503 43.17C163.549 43.2033 163.613 43.2267 163.693 43.24C163.779 43.2467 163.889 43.25 164.023 43.25H164.413V44H163.763C163.543 44 163.353 43.9867 163.193 43.96C163.039 43.9267 162.913 43.87 162.812 43.79C162.719 43.71 162.649 43.5967 162.603 43.45C162.556 43.3033 162.533 43.11 162.533 42.87V39.58H161.653V38.83H162.533V37.28H163.383V38.83ZM169.32 38.83H170.35V39.58H169.32V42.79C169.32 42.89 169.327 42.97 169.34 43.03C169.36 43.09 169.393 43.1367 169.44 43.17C169.487 43.2033 169.55 43.2267 169.63 43.24C169.717 43.2467 169.827 43.25 169.96 43.25H170.35V44H169.7C169.48 44 169.29 43.9867 169.13 43.96C168.977 43.9267 168.85 43.87 168.75 43.79C168.657 43.71 168.587 43.5967 168.54 43.45C168.493 43.3033 168.47 43.11 168.47 42.87V39.58H167.59V38.83H168.47V37.28H169.32V38.83ZM171.914 41.42C171.914 41.7333 171.954 42.0133 172.034 42.26C172.121 42.5 172.238 42.7033 172.384 42.87C172.531 43.03 172.701 43.1533 172.894 43.24C173.094 43.3267 173.304 43.37 173.524 43.37C173.744 43.37 173.951 43.3267 174.144 43.24C174.344 43.1533 174.518 43.03 174.664 42.87C174.811 42.7033 174.924 42.5 175.004 42.26C175.091 42.0133 175.134 41.7333 175.134 41.42C175.134 41.1067 175.091 40.83 175.004 40.59C174.924 40.3433 174.811 40.1367 174.664 39.97C174.518 39.8033 174.344 39.6767 174.144 39.59C173.951 39.5033 173.744 39.46 173.524 39.46C173.304 39.46 173.094 39.5033 172.894 39.59C172.701 39.6767 172.531 39.8033 172.384 39.97C172.238 40.1367 172.121 40.3433 172.034 40.59C171.954 40.83 171.914 41.1067 171.914 41.42ZM171.014 41.42C171.014 41.04 171.068 40.6867 171.174 40.36C171.281 40.0267 171.441 39.74 171.654 39.5C171.868 39.2533 172.131 39.06 172.444 38.92C172.758 38.78 173.118 38.71 173.524 38.71C173.938 38.71 174.298 38.78 174.604 38.92C174.918 39.06 175.181 39.2533 175.394 39.5C175.608 39.74 175.768 40.0267 175.874 40.36C175.981 40.6867 176.034 41.04 176.034 41.42C176.034 41.8 175.981 42.1533 175.874 42.48C175.768 42.8067 175.608 43.0933 175.394 43.34C175.181 43.58 174.918 43.77 174.604 43.91C174.298 44.0433 173.938 44.11 173.524 44.11C173.118 44.11 172.758 44.0433 172.444 43.91C172.131 43.77 171.868 43.58 171.654 43.34C171.441 43.0933 171.281 42.8067 171.174 42.48C171.068 42.1533 171.014 41.8 171.014 41.42ZM184.4 43.98C184.253 44.0667 184.05 44.11 183.79 44.11C183.57 44.11 183.393 44.05 183.26 43.93C183.133 43.8033 183.07 43.6 183.07 43.32C182.836 43.6 182.563 43.8033 182.25 43.93C181.943 44.05 181.61 44.11 181.25 44.11C181.016 44.11 180.793 44.0833 180.58 44.03C180.373 43.9767 180.193 43.8933 180.04 43.78C179.886 43.6667 179.763 43.52 179.67 43.34C179.583 43.1533 179.54 42.93 179.54 42.67C179.54 42.3767 179.59 42.1367 179.69 41.95C179.79 41.7633 179.92 41.6133 180.08 41.5C180.246 41.38 180.433 41.29 180.64 41.23C180.853 41.17 181.07 41.12 181.29 41.08C181.523 41.0333 181.743 41 181.95 40.98C182.163 40.9533 182.35 40.92 182.51 40.88C182.67 40.8333 182.796 40.77 182.89 40.69C182.983 40.6033 183.03 40.48 183.03 40.32C183.03 40.1333 182.993 39.9833 182.92 39.87C182.853 39.7567 182.763 39.67 182.65 39.61C182.543 39.55 182.42 39.51 182.28 39.49C182.146 39.47 182.013 39.46 181.88 39.46C181.52 39.46 181.22 39.53 180.98 39.67C180.74 39.8033 180.61 40.06 180.59 40.44H179.74C179.753 40.12 179.82 39.85 179.94 39.63C180.06 39.41 180.22 39.2333 180.42 39.1C180.62 38.96 180.846 38.86 181.1 38.8C181.36 38.74 181.636 38.71 181.93 38.71C182.163 38.71 182.393 38.7267 182.62 38.76C182.853 38.7933 183.063 38.8633 183.25 38.97C183.436 39.07 183.586 39.2133 183.7 39.4C183.813 39.5867 183.87 39.83 183.87 40.13V42.79C183.87 42.99 183.88 43.1367 183.9 43.23C183.926 43.3233 184.006 43.37 184.14 43.37C184.213 43.37 184.3 43.3533 184.4 43.32V43.98ZM183.02 41.33C182.913 41.41 182.773 41.47 182.6 41.51C182.426 41.5433 182.243 41.5733 182.05 41.6C181.863 41.62 181.673 41.6467 181.48 41.68C181.286 41.7067 181.113 41.7533 180.96 41.82C180.806 41.8867 180.68 41.9833 180.58 42.11C180.486 42.23 180.44 42.3967 180.44 42.61C180.44 42.75 180.466 42.87 180.52 42.97C180.58 43.0633 180.653 43.14 180.74 43.2C180.833 43.26 180.94 43.3033 181.06 43.33C181.18 43.3567 181.306 43.37 181.44 43.37C181.72 43.37 181.96 43.3333 182.16 43.26C182.36 43.18 182.523 43.0833 182.65 42.97C182.776 42.85 182.87 42.7233 182.93 42.59C182.99 42.45 183.02 42.32 183.02 42.2V41.33ZM187.974 38.83H188.774V39.65H188.794C189.147 39.0233 189.707 38.71 190.474 38.71C190.814 38.71 191.097 38.7567 191.324 38.85C191.551 38.9433 191.734 39.0733 191.874 39.24C192.014 39.4067 192.111 39.6067 192.164 39.84C192.224 40.0667 192.254 40.32 192.254 40.6V44H191.404V40.5C191.404 40.18 191.311 39.9267 191.124 39.74C190.937 39.5533 190.681 39.46 190.354 39.46C190.094 39.46 189.867 39.5 189.674 39.58C189.487 39.66 189.331 39.7733 189.204 39.92C189.077 40.0667 188.981 40.24 188.914 40.44C188.854 40.6333 188.824 40.8467 188.824 41.08V44H187.974V38.83ZM197.121 40.92C197.107 40.72 197.061 40.53 196.981 40.35C196.907 40.17 196.804 40.0167 196.671 39.89C196.544 39.7567 196.391 39.6533 196.211 39.58C196.037 39.5 195.844 39.46 195.631 39.46C195.411 39.46 195.211 39.5 195.031 39.58C194.857 39.6533 194.707 39.7567 194.581 39.89C194.454 40.0233 194.354 40.18 194.281 40.36C194.207 40.5333 194.164 40.72 194.151 40.92H197.121ZM197.941 42.36C197.827 42.94 197.577 43.3767 197.191 43.67C196.804 43.9633 196.317 44.11 195.731 44.11C195.317 44.11 194.957 44.0433 194.651 43.91C194.351 43.7767 194.097 43.59 193.891 43.35C193.684 43.11 193.527 42.8233 193.421 42.49C193.321 42.1567 193.264 41.7933 193.251 41.4C193.251 41.0067 193.311 40.6467 193.431 40.32C193.551 39.9933 193.717 39.71 193.931 39.47C194.151 39.23 194.407 39.0433 194.701 38.91C195.001 38.7767 195.327 38.71 195.681 38.71C196.141 38.71 196.521 38.8067 196.821 39C197.127 39.1867 197.371 39.4267 197.551 39.72C197.737 40.0133 197.864 40.3333 197.931 40.68C198.004 41.0267 198.034 41.3567 198.021 41.67H194.151C194.144 41.8967 194.171 42.1133 194.231 42.32C194.291 42.52 194.387 42.7 194.521 42.86C194.654 43.0133 194.824 43.1367 195.031 43.23C195.237 43.3233 195.481 43.37 195.761 43.37C196.121 43.37 196.414 43.2867 196.641 43.12C196.874 42.9533 197.027 42.7 197.101 42.36H197.941ZM200.082 38.83H201.112V39.58H200.082V42.79C200.082 42.89 200.088 42.97 200.102 43.03C200.122 43.09 200.155 43.1367 200.202 43.17C200.248 43.2033 200.312 43.2267 200.392 43.24C200.478 43.2467 200.588 43.25 200.722 43.25H201.112V44H200.462C200.242 44 200.052 43.9867 199.892 43.96C199.738 43.9267 199.612 43.87 199.512 43.79C199.418 43.71 199.348 43.5967 199.302 43.45C199.255 43.3033 199.232 43.11 199.232 42.87V39.58H198.352V38.83H199.232V37.28H200.082V38.83ZM207.176 44H206.276L205.226 39.89H205.206L204.166 44H203.246L201.586 38.83H202.526L203.696 43.06H203.716L204.756 38.83H205.686L206.766 43.06H206.786L207.946 38.83H208.826L207.176 44ZM210.254 41.42C210.254 41.7333 210.294 42.0133 210.374 42.26C210.461 42.5 210.577 42.7033 210.724 42.87C210.871 43.03 211.041 43.1533 211.234 43.24C211.434 43.3267 211.644 43.37 211.864 43.37C212.084 43.37 212.291 43.3267 212.484 43.24C212.684 43.1533 212.857 43.03 213.004 42.87C213.151 42.7033 213.264 42.5 213.344 42.26C213.431 42.0133 213.474 41.7333 213.474 41.42C213.474 41.1067 213.431 40.83 213.344 40.59C213.264 40.3433 213.151 40.1367 213.004 39.97C212.857 39.8033 212.684 39.6767 212.484 39.59C212.291 39.5033 212.084 39.46 211.864 39.46C211.644 39.46 211.434 39.5033 211.234 39.59C211.041 39.6767 210.871 39.8033 210.724 39.97C210.577 40.1367 210.461 40.3433 210.374 40.59C210.294 40.83 210.254 41.1067 210.254 41.42ZM209.354 41.42C209.354 41.04 209.407 40.6867 209.514 40.36C209.621 40.0267 209.781 39.74 209.994 39.5C210.207 39.2533 210.471 39.06 210.784 38.92C211.097 38.78 211.457 38.71 211.864 38.71C212.277 38.71 212.637 38.78 212.944 38.92C213.257 39.06 213.521 39.2533 213.734 39.5C213.947 39.74 214.107 40.0267 214.214 40.36C214.321 40.6867 214.374 41.04 214.374 41.42C214.374 41.8 214.321 42.1533 214.214 42.48C214.107 42.8067 213.947 43.0933 213.734 43.34C213.521 43.58 213.257 43.77 212.944 43.91C212.637 44.0433 212.277 44.11 211.864 44.11C211.457 44.11 211.097 44.0433 210.784 43.91C210.471 43.77 210.207 43.58 209.994 43.34C209.781 43.0933 209.621 42.8067 209.514 42.48C209.407 42.1533 209.354 41.8 209.354 41.42ZM215.346 38.83H216.146V39.92H216.166C216.373 39.5 216.626 39.19 216.926 38.99C217.226 38.79 217.606 38.6967 218.066 38.71V39.61C217.726 39.61 217.436 39.6567 217.196 39.75C216.956 39.8433 216.763 39.98 216.616 40.16C216.47 40.34 216.363 40.56 216.296 40.82C216.23 41.0733 216.196 41.3667 216.196 41.7V44H215.346V38.83ZM218.756 36.86H219.606V41.09L221.966 38.83H223.106L221.056 40.71L223.256 44H222.176L220.406 41.3L219.606 42.04V44H218.756V36.86Z" fill="white"/>
<path d="M114.244 55.148H117.07V60.08H122.272V55.148H125.098V68H122.272V62.456H117.07V68H114.244V55.148ZM129.584 63.356C129.584 63.728 129.62 64.094 129.692 64.454C129.764 64.802 129.884 65.12 130.052 65.408C130.232 65.684 130.466 65.906 130.754 66.074C131.042 66.242 131.402 66.326 131.834 66.326C132.266 66.326 132.626 66.242 132.914 66.074C133.214 65.906 133.448 65.684 133.616 65.408C133.796 65.12 133.922 64.802 133.994 64.454C134.066 64.094 134.102 63.728 134.102 63.356C134.102 62.984 134.066 62.618 133.994 62.258C133.922 61.898 133.796 61.58 133.616 61.304C133.448 61.028 133.214 60.806 132.914 60.638C132.626 60.458 132.266 60.368 131.834 60.368C131.402 60.368 131.042 60.458 130.754 60.638C130.466 60.806 130.232 61.028 130.052 61.304C129.884 61.58 129.764 61.898 129.692 62.258C129.62 62.618 129.584 62.984 129.584 63.356ZM127.028 63.356C127.028 62.612 127.142 61.94 127.37 61.34C127.598 60.728 127.922 60.212 128.342 59.792C128.762 59.36 129.266 59.03 129.854 58.802C130.442 58.562 131.102 58.442 131.834 58.442C132.566 58.442 133.226 58.562 133.814 58.802C134.414 59.03 134.924 59.36 135.344 59.792C135.764 60.212 136.088 60.728 136.316 61.34C136.544 61.94 136.658 62.612 136.658 63.356C136.658 64.1 136.544 64.772 136.316 65.372C136.088 65.972 135.764 66.488 135.344 66.92C134.924 67.34 134.414 67.664 133.814 67.892C133.226 68.12 132.566 68.234 131.834 68.234C131.102 68.234 130.442 68.12 129.854 67.892C129.266 67.664 128.762 67.34 128.342 66.92C127.922 66.488 127.598 65.972 127.37 65.372C127.142 64.772 127.028 64.1 127.028 63.356ZM138.392 58.694H140.804V59.954H140.84C141.176 59.474 141.578 59.102 142.046 58.838C142.526 58.574 143.072 58.442 143.684 58.442C144.272 58.442 144.806 58.556 145.286 58.784C145.778 59.012 146.15 59.414 146.402 59.99C146.678 59.582 147.05 59.222 147.518 58.91C147.998 58.598 148.562 58.442 149.21 58.442C149.702 58.442 150.158 58.502 150.578 58.622C150.998 58.742 151.358 58.934 151.658 59.198C151.958 59.462 152.192 59.81 152.36 60.242C152.528 60.662 152.612 61.172 152.612 61.772V68H150.056V62.726C150.056 62.414 150.044 62.12 150.02 61.844C149.996 61.568 149.93 61.328 149.822 61.124C149.714 60.92 149.552 60.758 149.336 60.638C149.132 60.518 148.85 60.458 148.49 60.458C148.13 60.458 147.836 60.53 147.608 60.674C147.392 60.806 147.218 60.986 147.086 61.214C146.966 61.43 146.882 61.682 146.834 61.97C146.798 62.246 146.78 62.528 146.78 62.816V68H144.224V62.78C144.224 62.504 144.218 62.234 144.206 61.97C144.194 61.694 144.14 61.442 144.044 61.214C143.96 60.986 143.81 60.806 143.594 60.674C143.39 60.53 143.084 60.458 142.676 60.458C142.556 60.458 142.394 60.488 142.19 60.548C141.998 60.596 141.806 60.698 141.614 60.854C141.434 60.998 141.278 61.214 141.146 61.502C141.014 61.778 140.948 62.144 140.948 62.6V68H138.392V58.694ZM160.896 62.348C160.776 61.7 160.56 61.208 160.248 60.872C159.948 60.536 159.486 60.368 158.862 60.368C158.454 60.368 158.112 60.44 157.836 60.584C157.572 60.716 157.356 60.884 157.188 61.088C157.032 61.292 156.918 61.508 156.846 61.736C156.786 61.964 156.75 62.168 156.738 62.348H160.896ZM156.738 63.968C156.774 64.796 156.984 65.396 157.368 65.768C157.752 66.14 158.304 66.326 159.024 66.326C159.54 66.326 159.984 66.2 160.356 65.948C160.728 65.684 160.956 65.408 161.04 65.12H163.29C162.93 66.236 162.378 67.034 161.634 67.514C160.89 67.994 159.99 68.234 158.934 68.234C158.202 68.234 157.542 68.12 156.954 67.892C156.366 67.652 155.868 67.316 155.46 66.884C155.052 66.452 154.734 65.936 154.506 65.336C154.29 64.736 154.182 64.076 154.182 63.356C154.182 62.66 154.296 62.012 154.524 61.412C154.752 60.812 155.076 60.296 155.496 59.864C155.916 59.42 156.414 59.072 156.99 58.82C157.578 58.568 158.226 58.442 158.934 58.442C159.726 58.442 160.416 58.598 161.004 58.91C161.592 59.21 162.072 59.618 162.444 60.134C162.828 60.65 163.104 61.238 163.272 61.898C163.44 62.558 163.5 63.248 163.452 63.968H156.738ZM165.238 55.148H168.046L173.41 63.77H173.446V55.148H176.092V68H173.266L167.92 59.396H167.884V68H165.238V55.148ZM184.574 62.348C184.454 61.7 184.238 61.208 183.926 60.872C183.626 60.536 183.164 60.368 182.54 60.368C182.132 60.368 181.79 60.44 181.514 60.584C181.25 60.716 181.034 60.884 180.866 61.088C180.71 61.292 180.596 61.508 180.524 61.736C180.464 61.964 180.428 62.168 180.416 62.348H184.574ZM180.416 63.968C180.452 64.796 180.662 65.396 181.046 65.768C181.43 66.14 181.982 66.326 182.702 66.326C183.218 66.326 183.662 66.2 184.034 65.948C184.406 65.684 184.634 65.408 184.718 65.12H186.968C186.608 66.236 186.056 67.034 185.312 67.514C184.568 67.994 183.668 68.234 182.612 68.234C181.88 68.234 181.22 68.12 180.632 67.892C180.044 67.652 179.546 67.316 179.138 66.884C178.73 66.452 178.412 65.936 178.184 65.336C177.968 64.736 177.86 64.076 177.86 63.356C177.86 62.66 177.974 62.012 178.202 61.412C178.43 60.812 178.754 60.296 179.174 59.864C179.594 59.42 180.092 59.072 180.668 58.82C181.256 58.568 181.904 58.442 182.612 58.442C183.404 58.442 184.094 58.598 184.682 58.91C185.27 59.21 185.75 59.618 186.122 60.134C186.506 60.65 186.782 61.238 186.95 61.898C187.118 62.558 187.178 63.248 187.13 63.968H180.416ZM191.886 58.694H193.758V60.404H191.886V65.012C191.886 65.444 191.958 65.732 192.102 65.876C192.246 66.02 192.534 66.092 192.966 66.092C193.11 66.092 193.248 66.086 193.38 66.074C193.512 66.062 193.638 66.044 193.758 66.02V68C193.542 68.036 193.302 68.06 193.038 68.072C192.774 68.084 192.516 68.09 192.264 68.09C191.868 68.09 191.49 68.06 191.13 68C190.782 67.952 190.47 67.85 190.194 67.694C189.93 67.538 189.72 67.316 189.564 67.028C189.408 66.74 189.33 66.362 189.33 65.894V60.404H187.782V58.694H189.33V55.904H191.886V58.694ZM205.612 68H202.984L201.328 61.754H201.292L199.708 68H197.062L194.11 58.694H196.81L198.52 65.012H198.556L200.104 58.694H202.588L204.172 64.994H204.208L205.918 58.694H208.546L205.612 68ZM211.902 63.356C211.902 63.728 211.938 64.094 212.01 64.454C212.082 64.802 212.202 65.12 212.37 65.408C212.55 65.684 212.784 65.906 213.072 66.074C213.36 66.242 213.72 66.326 214.152 66.326C214.584 66.326 214.944 66.242 215.232 66.074C215.532 65.906 215.766 65.684 215.934 65.408C216.114 65.12 216.24 64.802 216.312 64.454C216.384 64.094 216.42 63.728 216.42 63.356C216.42 62.984 216.384 62.618 216.312 62.258C216.24 61.898 216.114 61.58 215.934 61.304C215.766 61.028 215.532 60.806 215.232 60.638C214.944 60.458 214.584 60.368 214.152 60.368C213.72 60.368 213.36 60.458 213.072 60.638C212.784 60.806 212.55 61.028 212.37 61.304C212.202 61.58 212.082 61.898 212.01 62.258C211.938 62.618 211.902 62.984 211.902 63.356ZM209.346 63.356C209.346 62.612 209.46 61.94 209.688 61.34C209.916 60.728 210.24 60.212 210.66 59.792C211.08 59.36 211.584 59.03 212.172 58.802C212.76 58.562 213.42 58.442 214.152 58.442C214.884 58.442 215.544 58.562 216.132 58.802C216.732 59.03 217.242 59.36 217.662 59.792C218.082 60.212 218.406 60.728 218.634 61.34C218.862 61.94 218.976 62.612 218.976 63.356C218.976 64.1 218.862 64.772 218.634 65.372C218.406 65.972 218.082 66.488 217.662 66.92C217.242 67.34 216.732 67.664 216.132 67.892C215.544 68.12 214.884 68.234 214.152 68.234C213.42 68.234 212.76 68.12 212.172 67.892C211.584 67.664 211.08 67.34 210.66 66.92C210.24 66.488 209.916 65.972 209.688 65.372C209.46 64.772 209.346 64.1 209.346 63.356ZM220.638 58.694H223.068V60.422H223.104C223.224 60.134 223.386 59.87 223.59 59.63C223.794 59.378 224.028 59.168 224.292 59C224.556 58.82 224.838 58.682 225.138 58.586C225.438 58.49 225.75 58.442 226.074 58.442C226.242 58.442 226.428 58.472 226.632 58.532V60.908C226.512 60.884 226.368 60.866 226.2 60.854C226.032 60.83 225.87 60.818 225.714 60.818C225.246 60.818 224.85 60.896 224.526 61.052C224.202 61.208 223.938 61.424 223.734 61.7C223.542 61.964 223.404 62.276 223.32 62.636C223.236 62.996 223.194 63.386 223.194 63.806V68H220.638V58.694ZM227.868 55.148H230.424V62.042L233.646 58.694H236.67L233.16 62.114L237.066 68H233.97L231.414 63.842L230.424 64.796V68H227.868V55.148Z" fill="white"/>
<g filter="url(#filter0_d_1_4006)">
<rect x="32" y="98" width="286" height="222" rx="6" fill="white" shape-rendering="crispEdges"/>
<rect x="40" y="106" width="270" height="110" rx="6" fill="#F8F9FC"/>
<path d="M178.374 178.637C178.818 178.195 179.17 177.67 179.41 177.092C179.65 176.514 179.774 175.894 179.774 175.268C179.774 174.642 179.65 174.022 179.41 173.444C179.17 172.866 178.818 172.341 178.374 171.899C177.933 171.454 177.407 171.102 176.829 170.86C176.251 170.619 175.63 170.495 175.004 170.495C174.377 170.494 173.757 170.618 173.178 170.858C172.599 171.098 172.074 171.45 171.632 171.894C171.176 172.334 170.813 172.86 170.563 173.442C170.313 174.024 170.181 174.65 170.176 175.283C170.17 175.916 170.291 176.544 170.531 177.13C170.771 177.716 171.125 178.248 171.572 178.696C172.02 179.144 172.553 179.498 173.139 179.738C173.725 179.977 174.352 180.098 174.986 180.092C175.619 180.087 176.244 179.955 176.826 179.705C177.408 179.456 177.934 179.092 178.374 178.637ZM195.233 159.809C194.606 159.81 193.986 159.687 193.407 159.447C192.829 159.208 192.303 158.856 191.861 158.412C182.565 149.116 167.44 149.118 158.142 158.412C157.247 159.306 156.034 159.809 154.769 159.809C153.504 159.809 152.291 159.306 151.397 158.412C150.502 157.517 150 156.304 150 155.039C150 153.774 150.502 152.561 151.397 151.667C164.412 138.654 185.589 138.654 198.601 151.667C199.269 152.334 199.723 153.183 199.908 154.108C200.092 155.033 199.998 155.992 199.638 156.864C199.277 157.735 198.666 158.48 197.882 159.005C197.098 159.529 196.176 159.809 195.233 159.809ZM164.887 169.923C163.944 169.922 163.022 169.643 162.238 169.119C161.454 168.595 160.843 167.85 160.482 166.979C160.121 166.108 160.027 165.149 160.211 164.224C160.395 163.299 160.849 162.45 161.515 161.783C168.949 154.347 181.051 154.347 188.488 161.783C189.382 162.677 189.885 163.891 189.885 165.155C189.885 166.42 189.382 167.633 188.488 168.528C187.593 169.422 186.38 169.925 185.115 169.925C183.85 169.925 182.637 169.422 181.743 168.528C179.953 166.742 177.528 165.739 174.999 165.739C172.471 165.739 170.046 166.742 168.256 168.528C167.814 168.971 167.289 169.322 166.71 169.562C166.132 169.801 165.512 169.924 164.887 169.923Z" fill="#D3D8EB"/>
<path d="M40 230C40 226.686 42.6863 224 46 224H304C307.314 224 310 226.686 310 230V258C310 261.314 307.314 264 304 264H46C42.6863 264 40 261.314 40 258V230Z" fill="#0A0909"/>
<path d="M159.179 242.012C159.051 241.404 158.767 240.948 158.327 240.644C157.895 240.34 157.379 240.188 156.779 240.188C156.267 240.188 155.827 240.284 155.459 240.476C155.099 240.668 154.799 240.928 154.559 241.256C154.327 241.576 154.155 241.944 154.043 242.36C153.931 242.776 153.875 243.208 153.875 243.656C153.875 244.144 153.931 244.608 154.043 245.048C154.155 245.48 154.327 245.86 154.559 246.188C154.799 246.508 155.103 246.764 155.471 246.956C155.839 247.148 156.279 247.244 156.791 247.244C157.167 247.244 157.499 247.184 157.787 247.064C158.083 246.936 158.335 246.764 158.543 246.548C158.759 246.324 158.927 246.06 159.047 245.756C159.167 245.452 159.239 245.124 159.263 244.772H160.403C160.291 245.852 159.919 246.692 159.287 247.292C158.655 247.892 157.791 248.192 156.695 248.192C156.031 248.192 155.451 248.08 154.955 247.856C154.459 247.624 154.047 247.308 153.719 246.908C153.391 246.508 153.143 246.036 152.975 245.492C152.815 244.948 152.735 244.364 152.735 243.74C152.735 243.116 152.823 242.532 152.999 241.988C153.175 241.436 153.431 240.956 153.767 240.548C154.111 240.14 154.535 239.82 155.039 239.588C155.551 239.348 156.135 239.228 156.791 239.228C157.239 239.228 157.663 239.288 158.063 239.408C158.463 239.528 158.819 239.704 159.131 239.936C159.443 240.168 159.703 240.46 159.911 240.812C160.119 241.156 160.255 241.556 160.319 242.012H159.179ZM162.391 244.904C162.391 245.28 162.439 245.616 162.535 245.912C162.639 246.2 162.779 246.444 162.955 246.644C163.131 246.836 163.335 246.984 163.567 247.088C163.807 247.192 164.059 247.244 164.323 247.244C164.587 247.244 164.835 247.192 165.067 247.088C165.307 246.984 165.515 246.836 165.691 246.644C165.867 246.444 166.003 246.2 166.099 245.912C166.203 245.616 166.255 245.28 166.255 244.904C166.255 244.528 166.203 244.196 166.099 243.908C166.003 243.612 165.867 243.364 165.691 243.164C165.515 242.964 165.307 242.812 165.067 242.708C164.835 242.604 164.587 242.552 164.323 242.552C164.059 242.552 163.807 242.604 163.567 242.708C163.335 242.812 163.131 242.964 162.955 243.164C162.779 243.364 162.639 243.612 162.535 243.908C162.439 244.196 162.391 244.528 162.391 244.904ZM161.311 244.904C161.311 244.448 161.375 244.024 161.503 243.632C161.631 243.232 161.823 242.888 162.079 242.6C162.335 242.304 162.651 242.072 163.027 241.904C163.403 241.736 163.835 241.652 164.323 241.652C164.819 241.652 165.251 241.736 165.619 241.904C165.995 242.072 166.311 242.304 166.567 242.6C166.823 242.888 167.015 243.232 167.143 243.632C167.271 244.024 167.335 244.448 167.335 244.904C167.335 245.36 167.271 245.784 167.143 246.176C167.015 246.568 166.823 246.912 166.567 247.208C166.311 247.496 165.995 247.724 165.619 247.892C165.251 248.052 164.819 248.132 164.323 248.132C163.835 248.132 163.403 248.052 163.027 247.892C162.651 247.724 162.335 247.496 162.079 247.208C161.823 246.912 161.631 246.568 161.503 246.176C161.375 245.784 161.311 245.36 161.311 244.904ZM168.538 241.796H169.498V242.78H169.522C169.946 242.028 170.618 241.652 171.538 241.652C171.946 241.652 172.286 241.708 172.558 241.82C172.83 241.932 173.05 242.088 173.218 242.288C173.386 242.488 173.502 242.728 173.566 243.008C173.638 243.28 173.674 243.584 173.674 243.92V248H172.654V243.8C172.654 243.416 172.542 243.112 172.318 242.888C172.094 242.664 171.786 242.552 171.394 242.552C171.082 242.552 170.81 242.6 170.578 242.696C170.354 242.792 170.166 242.928 170.014 243.104C169.862 243.28 169.746 243.488 169.666 243.728C169.594 243.96 169.558 244.216 169.558 244.496V248H168.538V241.796ZM175.206 241.796H176.166V242.78H176.19C176.614 242.028 177.286 241.652 178.206 241.652C178.614 241.652 178.954 241.708 179.226 241.82C179.498 241.932 179.718 242.088 179.886 242.288C180.054 242.488 180.17 242.728 180.234 243.008C180.306 243.28 180.342 243.584 180.342 243.92V248H179.322V243.8C179.322 243.416 179.21 243.112 178.986 242.888C178.762 242.664 178.454 242.552 178.062 242.552C177.75 242.552 177.478 242.6 177.246 242.696C177.022 242.792 176.834 242.928 176.682 243.104C176.53 243.28 176.414 243.488 176.334 243.728C176.262 243.96 176.226 244.216 176.226 244.496V248H175.206V241.796ZM186.181 244.304C186.165 244.064 186.109 243.836 186.013 243.62C185.925 243.404 185.801 243.22 185.641 243.068C185.489 242.908 185.305 242.784 185.089 242.696C184.881 242.6 184.649 242.552 184.393 242.552C184.129 242.552 183.889 242.6 183.673 242.696C183.465 242.784 183.285 242.908 183.133 243.068C182.981 243.228 182.861 243.416 182.773 243.632C182.685 243.84 182.633 244.064 182.617 244.304H186.181ZM187.165 246.032C187.029 246.728 186.729 247.252 186.265 247.604C185.801 247.956 185.217 248.132 184.513 248.132C184.017 248.132 183.585 248.052 183.217 247.892C182.857 247.732 182.553 247.508 182.305 247.22C182.057 246.932 181.869 246.588 181.741 246.188C181.621 245.788 181.553 245.352 181.537 244.88C181.537 244.408 181.609 243.976 181.753 243.584C181.897 243.192 182.097 242.852 182.353 242.564C182.617 242.276 182.925 242.052 183.277 241.892C183.637 241.732 184.029 241.652 184.453 241.652C185.005 241.652 185.461 241.768 185.821 242C186.189 242.224 186.481 242.512 186.697 242.864C186.921 243.216 187.073 243.6 187.153 244.016C187.241 244.432 187.277 244.828 187.261 245.204H182.617C182.609 245.476 182.641 245.736 182.713 245.984C182.785 246.224 182.901 246.44 183.061 246.632C183.221 246.816 183.425 246.964 183.673 247.076C183.921 247.188 184.213 247.244 184.549 247.244C184.981 247.244 185.333 247.144 185.605 246.944C185.885 246.744 186.069 246.44 186.157 246.032H187.165ZM192.531 243.788C192.451 243.396 192.283 243.092 192.027 242.876C191.771 242.66 191.427 242.552 190.995 242.552C190.627 242.552 190.319 242.62 190.071 242.756C189.823 242.892 189.623 243.072 189.471 243.296C189.327 243.52 189.223 243.78 189.159 244.076C189.095 244.364 189.063 244.664 189.063 244.976C189.063 245.264 189.095 245.544 189.159 245.816C189.231 246.088 189.339 246.332 189.483 246.548C189.627 246.756 189.815 246.924 190.047 247.052C190.279 247.18 190.555 247.244 190.875 247.244C191.379 247.244 191.771 247.112 192.051 246.848C192.339 246.584 192.515 246.212 192.579 245.732H193.623C193.511 246.5 193.223 247.092 192.759 247.508C192.303 247.924 191.679 248.132 190.887 248.132C190.415 248.132 189.995 248.056 189.627 247.904C189.267 247.752 188.963 247.536 188.715 247.256C188.475 246.976 188.291 246.644 188.163 246.26C188.043 245.868 187.983 245.44 187.983 244.976C187.983 244.512 188.043 244.08 188.163 243.68C188.283 243.272 188.463 242.92 188.703 242.624C188.951 242.32 189.259 242.084 189.627 241.916C189.995 241.74 190.423 241.652 190.911 241.652C191.263 241.652 191.591 241.696 191.895 241.784C192.207 241.864 192.479 241.992 192.711 242.168C192.951 242.344 193.147 242.568 193.299 242.84C193.451 243.104 193.547 243.42 193.587 243.788H192.531ZM196.18 241.796H197.416V242.696H196.18V246.548C196.18 246.668 196.188 246.764 196.204 246.836C196.228 246.908 196.268 246.964 196.324 247.004C196.38 247.044 196.456 247.072 196.552 247.088C196.656 247.096 196.788 247.1 196.948 247.1H197.416V248H196.636C196.372 248 196.144 247.984 195.952 247.952C195.768 247.912 195.616 247.844 195.496 247.748C195.384 247.652 195.3 247.516 195.244 247.34C195.188 247.164 195.16 246.932 195.16 246.644V242.696H194.104V241.796H195.16V239.936H196.18V241.796Z" fill="white"/>
<path d="M46 272.5H304C307.038 272.5 309.5 274.962 309.5 278V306C309.5 309.038 307.038 311.5 304 311.5H46C42.9624 311.5 40.5 309.038 40.5 306V278C40.5 274.962 42.9624 272.5 46 272.5Z" stroke="#0A0909"/>
<path d="M166.632 290.012C166.504 289.404 166.22 288.948 165.78 288.644C165.348 288.34 164.832 288.188 164.232 288.188C163.72 288.188 163.28 288.284 162.912 288.476C162.552 288.668 162.252 288.928 162.012 289.256C161.78 289.576 161.608 289.944 161.496 290.36C161.384 290.776 161.328 291.208 161.328 291.656C161.328 292.144 161.384 292.608 161.496 293.048C161.608 293.48 161.78 293.86 162.012 294.188C162.252 294.508 162.556 294.764 162.924 294.956C163.292 295.148 163.732 295.244 164.244 295.244C164.62 295.244 164.952 295.184 165.24 295.064C165.536 294.936 165.788 294.764 165.996 294.548C166.212 294.324 166.38 294.06 166.5 293.756C166.62 293.452 166.692 293.124 166.716 292.772H167.856C167.744 293.852 167.372 294.692 166.74 295.292C166.108 295.892 165.244 296.192 164.148 296.192C163.484 296.192 162.904 296.08 162.408 295.856C161.912 295.624 161.5 295.308 161.172 294.908C160.844 294.508 160.596 294.036 160.428 293.492C160.268 292.948 160.188 292.364 160.188 291.74C160.188 291.116 160.276 290.532 160.452 289.988C160.628 289.436 160.884 288.956 161.22 288.548C161.564 288.14 161.988 287.82 162.492 287.588C163.004 287.348 163.588 287.228 164.244 287.228C164.692 287.228 165.116 287.288 165.516 287.408C165.916 287.528 166.272 287.704 166.584 287.936C166.896 288.168 167.156 288.46 167.364 288.812C167.572 289.156 167.708 289.556 167.772 290.012H166.632ZM169.16 287.432H170.18V296H169.16V287.432ZM172.504 292.904C172.504 293.28 172.552 293.616 172.648 293.912C172.752 294.2 172.892 294.444 173.068 294.644C173.244 294.836 173.448 294.984 173.68 295.088C173.92 295.192 174.172 295.244 174.436 295.244C174.7 295.244 174.948 295.192 175.18 295.088C175.42 294.984 175.628 294.836 175.804 294.644C175.98 294.444 176.116 294.2 176.212 293.912C176.316 293.616 176.368 293.28 176.368 292.904C176.368 292.528 176.316 292.196 176.212 291.908C176.116 291.612 175.98 291.364 175.804 291.164C175.628 290.964 175.42 290.812 175.18 290.708C174.948 290.604 174.7 290.552 174.436 290.552C174.172 290.552 173.92 290.604 173.68 290.708C173.448 290.812 173.244 290.964 173.068 291.164C172.892 291.364 172.752 291.612 172.648 291.908C172.552 292.196 172.504 292.528 172.504 292.904ZM171.424 292.904C171.424 292.448 171.488 292.024 171.616 291.632C171.744 291.232 171.936 290.888 172.192 290.6C172.448 290.304 172.764 290.072 173.14 289.904C173.516 289.736 173.948 289.652 174.436 289.652C174.932 289.652 175.364 289.736 175.732 289.904C176.108 290.072 176.424 290.304 176.68 290.6C176.936 290.888 177.128 291.232 177.256 291.632C177.384 292.024 177.448 292.448 177.448 292.904C177.448 293.36 177.384 293.784 177.256 294.176C177.128 294.568 176.936 294.912 176.68 295.208C176.424 295.496 176.108 295.724 175.732 295.892C175.364 296.052 174.932 296.132 174.436 296.132C173.948 296.132 173.516 296.052 173.14 295.892C172.764 295.724 172.448 295.496 172.192 295.208C171.936 294.912 171.744 294.568 171.616 294.176C171.488 293.784 171.424 293.36 171.424 292.904ZM179.275 294.044C179.283 294.268 179.335 294.46 179.431 294.62C179.527 294.772 179.651 294.896 179.803 294.992C179.963 295.08 180.139 295.144 180.331 295.184C180.531 295.224 180.735 295.244 180.943 295.244C181.103 295.244 181.271 295.232 181.447 295.208C181.623 295.184 181.783 295.14 181.927 295.076C182.079 295.012 182.203 294.92 182.299 294.8C182.395 294.672 182.443 294.512 182.443 294.32C182.443 294.056 182.343 293.856 182.143 293.72C181.943 293.584 181.691 293.476 181.387 293.396C181.091 293.308 180.767 293.232 180.415 293.168C180.063 293.096 179.735 293 179.431 292.88C179.135 292.752 178.887 292.576 178.687 292.352C178.487 292.128 178.387 291.816 178.387 291.416C178.387 291.104 178.455 290.836 178.591 290.612C178.735 290.388 178.915 290.208 179.131 290.072C179.355 289.928 179.603 289.824 179.875 289.76C180.155 289.688 180.431 289.652 180.703 289.652C181.055 289.652 181.379 289.684 181.675 289.748C181.971 289.804 182.231 289.908 182.455 290.06C182.687 290.204 182.871 290.404 183.007 290.66C183.143 290.908 183.223 291.22 183.247 291.596H182.227C182.211 291.396 182.159 291.232 182.071 291.104C181.983 290.968 181.871 290.86 181.735 290.78C181.599 290.7 181.447 290.644 181.279 290.612C181.119 290.572 180.955 290.552 180.787 290.552C180.635 290.552 180.479 290.564 180.319 290.588C180.167 290.612 180.027 290.656 179.899 290.72C179.771 290.776 179.667 290.856 179.587 290.96C179.507 291.056 179.467 291.184 179.467 291.344C179.467 291.52 179.527 291.668 179.647 291.788C179.775 291.9 179.935 291.996 180.127 292.076C180.319 292.148 180.535 292.212 180.775 292.268C181.015 292.316 181.255 292.368 181.495 292.424C181.751 292.48 181.999 292.548 182.239 292.628C182.487 292.708 182.703 292.816 182.887 292.952C183.079 293.08 183.231 293.244 183.343 293.444C183.463 293.644 183.523 293.892 183.523 294.188C183.523 294.564 183.443 294.876 183.283 295.124C183.131 295.372 182.927 295.572 182.671 295.724C182.423 295.876 182.139 295.98 181.819 296.036C181.507 296.1 181.195 296.132 180.883 296.132C180.539 296.132 180.211 296.096 179.899 296.024C179.587 295.952 179.311 295.836 179.071 295.676C178.831 295.508 178.639 295.292 178.495 295.028C178.351 294.756 178.271 294.428 178.255 294.044H179.275ZM188.959 292.304C188.943 292.064 188.887 291.836 188.791 291.62C188.703 291.404 188.579 291.22 188.419 291.068C188.267 290.908 188.083 290.784 187.867 290.696C187.659 290.6 187.427 290.552 187.171 290.552C186.907 290.552 186.667 290.6 186.451 290.696C186.243 290.784 186.063 290.908 185.911 291.068C185.759 291.228 185.639 291.416 185.551 291.632C185.463 291.84 185.411 292.064 185.395 292.304H188.959ZM189.943 294.032C189.807 294.728 189.507 295.252 189.043 295.604C188.579 295.956 187.995 296.132 187.291 296.132C186.795 296.132 186.363 296.052 185.995 295.892C185.635 295.732 185.331 295.508 185.083 295.22C184.835 294.932 184.647 294.588 184.519 294.188C184.399 293.788 184.331 293.352 184.315 292.88C184.315 292.408 184.387 291.976 184.531 291.584C184.675 291.192 184.875 290.852 185.131 290.564C185.395 290.276 185.703 290.052 186.055 289.892C186.415 289.732 186.807 289.652 187.231 289.652C187.783 289.652 188.239 289.768 188.599 290C188.967 290.224 189.259 290.512 189.475 290.864C189.699 291.216 189.851 291.6 189.931 292.016C190.019 292.432 190.055 292.828 190.039 293.204H185.395C185.387 293.476 185.419 293.736 185.491 293.984C185.563 294.224 185.679 294.44 185.839 294.632C185.999 294.816 186.203 294.964 186.451 295.076C186.699 295.188 186.991 295.244 187.327 295.244C187.759 295.244 188.111 295.144 188.383 294.944C188.663 294.744 188.847 294.44 188.935 294.032H189.943Z" fill="#0A0909"/>
</g>
<defs>
<filter id="filter0_d_1_4006" x="18" y="88" width="314" height="250" filterUnits="userSpaceOnUse" color-interpolation-filters="sRGB">
<feFlood flood-opacity="0" result="BackgroundImageFix"/>
<feColorMatrix in="SourceAlpha" type="matrix" values="0 0 0 0 0 0 0 0 0 0 0 0 0 0 0 0 0 0 127 0" result="hardAlpha"/>
<feOffset dy="4"/>
<feGaussianBlur stdDeviation="7"/>
<feComposite in2="hardAlpha" operator="out"/>
<feColorMatrix type="matrix" values="0 0 0 0 0.211765 0 0 0 0 0.258824 0 0 0 0 0.54902 0 0 0 0.16 0"/>
<feBlend mode="normal" in2="BackgroundImageFix" result="effect1_dropShadow_1_4006"/>
<feBlend mode="normal" in="SourceGraphic" in2="effect1_dropShadow_1_4006" result="shape"/>
</filter>
</defs>
</svg>
