<svg width="48" height="40" viewBox="0 0 48 40" fill="none" xmlns="http://www.w3.org/2000/svg">
<path d="M33.229 6.78992C35.438 6.79013 37.229 8.58091 37.229 10.7899V27.3729L37.2241 27.579C37.1453 29.1323 36.1793 30.4506 34.8237 31.0409C34.9601 30.7039 35.0534 30.3449 35.0933 29.9696C35.9008 29.3886 36.4292 28.4436 36.4292 27.3729V10.7899C36.4292 9.02274 34.9961 7.58993 33.229 7.58972H17.2935C16.1911 7.58972 15.2177 8.14662 14.6421 8.995C14.2706 9.04499 13.9154 9.14618 13.5835 9.29089C14.1522 7.88471 15.4975 6.87547 17.0874 6.7948L17.2935 6.78992H33.229Z" fill="white"/>
<rect x="11.7281" y="9.19315" width="23.136" height="23.7829" rx="3.6" stroke="white" stroke-width="0.8"/>
<path d="M30.3362 18.592C29.1716 18.592 28.2242 17.6445 28.2242 16.48C28.2242 15.3154 29.1716 14.368 30.3362 14.368C31.5007 14.368 32.4482 15.3154 32.4482 16.48C32.4482 17.6445 31.5007 18.592 30.3362 18.592Z" fill="white"/>
<path d="M15.889 26.6333C16.1642 26.158 16.5804 25.8855 17.0312 25.8855H17.0322C17.4829 25.8859 17.8987 26.1588 18.1729 26.6342L18.1766 26.6406C18.1848 26.6552 18.193 26.6699 18.2014 26.6848L21.5072 20.9243C21.8438 20.3375 22.3476 20.0006 22.8893 20H22.8908C23.4325 20 23.9372 20.3364 24.276 20.9243C24.276 20.9243 25.3546 22.8048 26.0474 24.0121C26.1552 23.8246 26.2372 23.6816 26.2394 23.678C26.5757 23.0909 27.0796 22.7538 27.6216 22.7533H27.6226C28.1646 22.7533 28.6692 23.0901 29.007 23.6777L31.7198 28.4055L31.7441 28.448H14.8481C15.1914 27.8527 15.6214 27.1024 15.889 26.6333Z" fill="white"/>
</svg>
