<svg width="48" height="40" viewBox="0 0 48 40" fill="none" xmlns="http://www.w3.org/2000/svg">
<path d="M30.1758 12.7204C31.5012 12.7204 32.5761 13.7944 32.5762 15.1198V24.7204C32.576 26.0457 31.5011 27.1198 30.1758 27.1198H9.37598C8.05062 27.1198 6.9758 26.0457 6.97559 24.7204V15.1198C6.97569 13.7944 8.05056 12.7204 9.37598 12.7204H30.1758ZM11.6992 16.7204C11.4674 16.7204 11.2873 16.7797 11.1592 16.8991C11.0371 17.0187 10.9756 17.1954 10.9756 17.4284V22.403C10.9756 22.63 11.0372 22.8059 11.1592 22.9314C11.2812 23.0569 11.4585 23.1198 11.6904 23.1198C11.9222 23.1198 12.096 23.0568 12.2119 22.9314C12.3338 22.8059 12.3945 22.6299 12.3945 22.403V20.7624H13.9238C14.644 20.7624 15.1992 20.5829 15.5898 20.2243C15.9803 19.8658 16.1757 19.3703 16.1758 18.737C16.1758 18.1036 15.9805 17.6101 15.5898 17.2575C15.1992 16.8992 14.6439 16.7204 13.9238 16.7204H11.6992ZM24.8867 16.7204C24.6487 16.7204 24.4651 16.7824 24.3369 16.9079C24.2088 17.0334 24.1455 17.213 24.1455 17.446V22.3855C24.1456 22.6241 24.2063 22.806 24.3281 22.9314C24.4563 23.0568 24.6363 23.1198 24.8682 23.1198C25.3319 23.1198 25.5643 22.8752 25.5645 22.3855V20.4314H27.8164C27.9993 20.4313 28.1397 20.3833 28.2373 20.2878C28.3349 20.1923 28.3837 20.0576 28.3838 19.8845C28.3838 19.7113 28.3349 19.5796 28.2373 19.49C28.1397 19.3944 27.9994 19.3465 27.8164 19.3464H25.5645V17.8044H28.0176C28.2006 17.8044 28.3381 17.7602 28.4297 17.6706C28.5273 17.575 28.5762 17.4368 28.5762 17.2575C28.5761 17.0844 28.5273 16.9526 28.4297 16.863C28.3381 16.7675 28.2006 16.7204 28.0176 16.7204H24.8867ZM17.7969 16.7204C17.5591 16.7204 17.3762 16.7827 17.248 16.9079C17.1199 17.0334 17.0557 17.213 17.0557 17.446V22.3132C17.0557 22.5463 17.1199 22.7258 17.248 22.8513C17.3762 22.9766 17.5591 23.0398 17.7969 23.0398H19.582C20.1373 23.0398 20.6285 22.9701 21.0557 22.8327C21.4829 22.6893 21.8438 22.4835 22.1367 22.2146C22.4295 21.9457 22.6522 21.6165 22.8047 21.2282C22.9632 20.8341 23.0429 20.3833 23.043 19.8757C23.043 18.8659 22.7408 18.0884 22.1367 17.5446C21.5386 16.9949 20.6867 16.7204 19.582 16.7204H17.7969ZM19.5 17.8581C20.1834 17.8582 20.6964 18.0255 21.0381 18.3601C21.3859 18.6887 21.5596 19.1945 21.5596 19.8757C21.5595 20.2159 21.517 20.5145 21.4316 20.7712C21.3462 21.0222 21.2178 21.2318 21.0469 21.3991C20.8761 21.5664 20.6624 21.6915 20.4062 21.7751C20.15 21.8588 19.8478 21.9011 19.5 21.9011H18.4746V17.8581H19.5ZM13.6855 17.8044C14.0516 17.8044 14.3294 17.8825 14.5186 18.0378C14.7139 18.1932 14.8115 18.4263 14.8115 18.737C14.8115 19.0477 14.7138 19.2837 14.5186 19.445C14.3294 19.6062 14.0516 19.6872 13.6855 19.6872H12.3945V17.8044H13.6855Z" fill="white"/>
<path d="M31.9678 6.62393C34.1769 6.62393 35.9677 8.41484 35.9678 10.6239V29.3759C35.9678 31.585 34.1769 33.3759 31.9678 33.3759H16.0322C13.8231 33.3759 12.0322 31.585 12.0322 29.3759V27.12H12.832V29.3759C12.832 31.1432 14.2649 32.5761 16.0322 32.5761H31.9678C33.7351 32.5761 35.168 31.1432 35.168 29.3759V10.6239C35.1679 8.85666 33.7351 7.42374 31.9678 7.42374H16.0322C14.2649 7.42374 12.8321 8.85666 12.832 10.6239V12.7206H12.0322V10.6239C12.0323 8.48394 13.7128 6.73604 15.8262 6.62881L16.0322 6.62393H31.9678Z" fill="white"/>
</svg>
