<svg width="48" height="40" viewBox="0 0 48 40" fill="none" xmlns="http://www.w3.org/2000/svg">
<rect x="6.7999" y="7.728" width="34.4" height="24.544" rx="3.6" stroke="white" stroke-width="0.8"/>
<rect x="26.1118" y="15.776" width="9.856" height="1.408" rx="0.704" fill="white"/>
<rect x="26.1118" y="19.296" width="9.856" height="1.408" rx="0.704" fill="white"/>
<rect x="26.1118" y="22.816" width="9.856" height="1.408" rx="0.704" fill="white"/>
<path d="M21.8878 17.4632V14.6232C21.8878 14.4823 21.7813 14.368 21.6496 14.368H17.3118H12.9741C12.8424 14.368 12.7358 14.4823 12.7358 14.6232V17.4632C12.7358 17.6044 12.8424 17.7186 12.9741 17.7186H14.239C14.3704 17.7186 14.4769 17.6044 14.4769 17.4632V16.4903C14.4769 16.3491 14.5837 16.2349 14.7152 16.2349H16.2029C16.3346 16.2349 16.4412 16.3491 16.4412 16.4903V23.5098C16.4412 23.651 16.3346 23.7652 16.2029 23.7652H15.5523C15.4206 23.7652 15.3141 23.8794 15.3141 24.0206V25.3769C15.3141 25.5178 15.4206 25.632 15.5523 25.632H17.3118H19.0714C19.2031 25.632 19.3096 25.5178 19.3096 25.3769V24.0206C19.3096 23.8794 19.2031 23.7652 19.0714 23.7652H18.4207C18.2891 23.7652 18.1825 23.651 18.1825 23.5098V16.4903C18.1825 16.3491 18.2891 16.2349 18.4207 16.2349H19.9085C20.0399 16.2349 20.1467 16.3491 20.1467 16.4903V17.4632C20.1467 17.6044 20.2533 17.7186 20.3847 17.7186H21.6496C21.7813 17.7186 21.8878 17.6044 21.8878 17.4632Z" fill="white"/>
</svg>
