<svg width="48" height="40" viewBox="0 0 48 40" fill="none" xmlns="http://www.w3.org/2000/svg">
<rect x="22.9918" y="7.02396" width="12.576" height="12.576" rx="3.6" stroke="white" stroke-width="0.8"/>
<g clip-path="url(#clip0_1_6781)">
<path d="M27.0067 12.3882H26.0974C25.9719 12.3882 25.8701 12.49 25.8701 12.6155V16.2526C25.8701 16.3782 25.9719 16.48 26.0974 16.48H27.0067C27.1323 16.48 27.2341 16.3782 27.2341 16.2526V12.6155C27.2341 12.49 27.1323 12.3882 27.0067 12.3882Z" fill="white"/>
<path d="M32.685 12.9907C32.6449 12.6381 32.3155 12.3882 31.9606 12.3882H30.1883C30.339 12.1185 30.4198 11.3557 30.4162 11.0441C30.4103 10.5283 29.9831 10.1149 29.4673 10.1149H29.2797C29.1541 10.1149 29.0524 10.2166 29.0524 10.3423C29.0524 10.8679 28.8477 11.8167 28.4617 12.2028C28.2019 12.4626 27.9797 12.5568 27.6885 12.7023V16.1133C28.1344 16.2619 28.7006 16.48 29.5636 16.48H31.0506C31.5406 16.48 31.9222 16.0262 31.7323 15.5467C32.0216 15.4679 32.2349 15.2026 32.2349 14.8887C32.2349 14.8001 32.2178 14.7153 32.187 14.6374C32.6744 14.5046 32.8539 13.9027 32.5155 13.5248C32.6398 13.3859 32.7084 13.196 32.685 12.9907Z" fill="white"/>
</g>
<path d="M20.7036 15.0717C22.9127 15.0717 24.7035 16.8627 24.7036 19.0717V23.0395C24.7036 25.2486 22.9128 27.0395 20.7036 27.0395H16.7358C14.5267 27.0395 12.7358 25.2486 12.7358 23.0395V19.0717C12.736 16.8627 14.5268 15.0717 16.7358 15.0717H20.7036ZM20.1177 18.2348C19.7519 18.2348 19.4165 18.3505 19.1216 18.5786C18.973 18.6936 18.838 18.8343 18.7192 18.9985C18.6005 18.8343 18.4656 18.6936 18.3169 18.5786C18.0222 18.3506 17.6874 18.2349 17.3218 18.2348C16.8325 18.2348 16.3822 18.4308 16.0542 18.7866C15.7302 19.1381 15.5513 19.6186 15.5513 20.1391C15.5514 20.6748 15.7516 21.1649 16.1802 21.6821C16.5637 22.1448 17.1151 22.6147 17.7534 23.1586C17.9713 23.3443 18.2177 23.5555 18.4741 23.7797C18.5418 23.839 18.6291 23.8715 18.7192 23.8715C18.8094 23.8715 18.8967 23.8389 18.9644 23.7797C19.2209 23.5554 19.468 23.3445 19.686 23.1586C20.3243 22.6148 20.8757 22.1449 21.2593 21.6821C21.6879 21.1649 21.8872 20.674 21.8872 20.1381C21.8871 19.6179 21.709 19.138 21.3853 18.7866C21.0573 18.4309 20.6069 18.2348 20.1177 18.2348Z" fill="white"/>
<rect x="21.5841" y="23.216" width="9.76" height="9.76" rx="3.6" stroke="white" stroke-width="0.8"/>
<g clip-path="url(#clip1_1_6781)">
<path d="M28.5467 28.8425H28.036C28.0157 28.8425 27.9992 28.826 27.9992 28.8058V27.386C27.9992 27.3658 28.0157 27.3493 28.036 27.3493H28.5467C28.6577 27.3493 28.7643 27.3033 28.8391 27.223C28.913 27.1436 28.9493 27.0404 28.9414 26.9325C28.9266 26.7309 28.7562 26.573 28.5535 26.573H28.036C28.0157 26.573 27.9992 26.5566 27.9992 26.5363V26.027C27.9992 25.9161 27.9531 25.8097 27.8726 25.7351C27.7931 25.6614 27.6897 25.625 27.5816 25.633C27.3795 25.6479 27.2213 25.8179 27.2213 26.0201V26.5363C27.2213 26.5566 27.2048 26.573 27.1846 26.573H25.762C25.7417 26.573 25.7252 26.5566 25.7252 26.5363V26.027C25.7252 25.9161 25.6791 25.8097 25.5986 25.7351C25.519 25.6614 25.4158 25.625 25.3076 25.633C25.1056 25.6479 24.9474 25.8179 24.9474 26.0201V26.5363C24.9474 26.5566 24.9309 26.573 24.9106 26.573H24.4007C24.2896 26.573 24.183 26.619 24.1083 26.6994C24.0343 26.7788 23.998 26.8819 24.006 26.9899C24.0208 27.1914 24.1912 27.3493 24.3938 27.3493H24.9106C24.9309 27.3493 24.9474 27.3658 24.9474 27.386V28.8058C24.9474 28.826 24.9309 28.8425 24.9106 28.8425H24.4007C24.2896 28.8425 24.183 28.8886 24.1083 28.9689C24.0343 29.0483 23.998 29.1515 24.006 29.2595C24.0208 29.461 24.1912 29.6189 24.3938 29.6189H24.9106C24.9309 29.6189 24.9474 29.6354 24.9474 29.6556V30.1649C24.9474 30.2758 24.9935 30.3821 25.074 30.4568C25.1536 30.5306 25.2569 30.5668 25.3651 30.5589C25.567 30.5441 25.7252 30.374 25.7252 30.1717V29.6556C25.7252 29.6354 25.7417 29.6189 25.762 29.6189H27.1846C27.2048 29.6189 27.2213 29.6354 27.2213 29.6556V30.1649C27.2213 30.2758 27.2676 30.3822 27.348 30.4568C27.4203 30.5238 27.5124 30.56 27.6098 30.56C27.6195 30.56 27.6292 30.5596 27.6391 30.5589C27.841 30.5441 27.9992 30.374 27.9992 30.1717V29.6556C27.9992 29.6354 28.0157 29.6189 28.036 29.6189H28.5535C28.7562 29.6189 28.9266 29.461 28.9414 29.2595C28.9493 29.1515 28.913 29.0483 28.8391 28.9689C28.7643 28.8886 28.6577 28.8425 28.5467 28.8425ZM27.2213 28.8058C27.2213 28.826 27.2048 28.8425 27.1846 28.8425H25.762C25.7417 28.8425 25.7252 28.826 25.7252 28.8058V27.386C25.7252 27.3658 25.7417 27.3493 25.762 27.3493H27.1846C27.2048 27.3493 27.2213 27.3658 27.2213 27.386V28.8058Z" fill="white"/>
</g>
<defs>
<clipPath id="clip0_1_6781">
<rect width="7.744" height="7.744" fill="white" transform="translate(25.4077 8.73596)"/>
</clipPath>
<clipPath id="clip1_1_6781">
<rect width="4.928" height="4.928" fill="white" transform="translate(24 25.632)"/>
</clipPath>
</defs>
</svg>
