<svg width="48" height="40" viewBox="0 0 48 40" fill="none" xmlns="http://www.w3.org/2000/svg">
<rect x="12.4317" y="7.02402" width="23.136" height="25.952" rx="3.6" stroke="white" stroke-width="0.8"/>
<g clip-path="url(#clip0_1_6769)">
<path d="M23.9396 16.3254C24.4986 16.3254 24.9827 16.1249 25.3783 15.7293C25.7738 15.3338 25.9744 14.8498 25.9744 14.2907C25.9744 13.7317 25.7738 13.2477 25.3782 12.852C24.9826 12.4565 24.4986 12.256 23.9396 12.256C23.3804 12.256 22.8965 12.4565 22.5009 12.8521C22.1054 13.2476 21.9048 13.7317 21.9048 14.2907C21.9048 14.8498 22.1054 15.3338 22.501 15.7294C22.8966 16.1249 23.3806 16.3254 23.9396 16.3254Z" fill="white"/>
<path d="M27.4999 18.7521C27.4885 18.5875 27.4654 18.4079 27.4314 18.2183C27.3971 18.0273 27.353 17.8467 27.3001 17.6816C27.2455 17.511 27.1713 17.3425 27.0795 17.1811C26.9843 17.0135 26.8724 16.8676 26.7468 16.7475C26.6155 16.6219 26.4548 16.5209 26.2689 16.4472C26.0836 16.3739 25.8784 16.3368 25.6588 16.3368C25.5725 16.3368 25.4891 16.3722 25.3281 16.477C25.2289 16.5417 25.113 16.6165 24.9836 16.6991C24.8729 16.7697 24.723 16.8357 24.5378 16.8955C24.3571 16.954 24.1737 16.9836 23.9927 16.9836C23.8116 16.9836 23.6282 16.954 23.4474 16.8955C23.2624 16.8358 23.1125 16.7697 23.002 16.6992C22.8738 16.6173 22.7577 16.5425 22.6571 16.477C22.4963 16.3721 22.4128 16.3367 22.3265 16.3367C22.1069 16.3367 21.9017 16.3739 21.7165 16.4473C21.5307 16.5208 21.3699 16.6218 21.2385 16.7476C21.113 16.8677 21.0011 17.0136 20.9059 17.1811C20.8142 17.3425 20.74 17.5109 20.6853 17.6817C20.6325 17.8467 20.5884 18.0273 20.5541 18.2183C20.5201 18.4077 20.497 18.5873 20.4856 18.7523C20.4744 18.9139 20.4688 19.0817 20.4688 19.2512C20.4688 19.6921 20.6089 20.0492 20.8854 20.3124C21.1584 20.5723 21.5197 20.7041 21.959 20.7041H26.0267C26.466 20.7041 26.8272 20.5723 27.1003 20.3124C27.3768 20.0493 27.517 19.6923 27.517 19.2511C27.5169 19.0809 27.5112 18.913 27.4999 18.7521Z" fill="white"/>
</g>
<rect x="19.0718" y="22.816" width="9.856" height="1.408" rx="0.704" fill="white"/>
<rect x="20.48" y="26.336" width="7.04" height="1.408" rx="0.704" fill="white"/>
<defs>
<clipPath id="clip0_1_6769">
<rect width="8.448" height="8.448" fill="white" transform="translate(19.7759 12.256)"/>
</clipPath>
</defs>
</svg>
