<svg width="48" height="40" viewBox="0 0 48 40" fill="none" xmlns="http://www.w3.org/2000/svg">
<rect x="6.7999" y="7.728" width="34.4" height="24.544" rx="3.6" stroke="white" stroke-width="0.8"/>
<path d="M37.6006 32.6307C39.8096 32.6306 41.6005 30.8397 41.6006 28.6307V28.1581H6.40039V28.6307C6.40049 30.8398 8.19131 32.6307 10.4004 32.6307H37.6006ZM11.3281 31.1395C10.9394 31.1395 10.6241 30.806 10.624 30.3944C10.6241 29.9828 10.9394 29.6493 11.3281 29.6493C11.7167 29.6495 12.0321 29.9829 12.0322 30.3944C12.0321 30.8059 11.7167 31.1394 11.3281 31.1395ZM15.5928 31.1395C15.1811 31.1395 14.8477 30.8061 14.8477 30.3944C14.8477 29.9827 15.1811 29.6493 15.5928 29.6493H37.334C37.7456 29.6494 38.0791 29.9828 38.0791 30.3944C38.0791 30.806 37.7456 31.1395 37.334 31.1395H15.5928Z" fill="white"/>
<rect x="28.4585" y="13.2913" width="9.856" height="1.49082" rx="0.745412" fill="white"/>
<rect x="28.4585" y="17.0183" width="7.04" height="1.49082" rx="0.745412" fill="white"/>
<rect x="28.4585" y="20.7454" width="7.04" height="1.49082" rx="0.745412" fill="white"/>
<path d="M23.8071 11.8011C24.6908 11.8011 25.4077 12.517 25.4077 13.4007V22.1273C25.4077 23.0109 24.6908 23.7269 23.8071 23.7269H12.2231C11.3397 23.7267 10.6235 23.0108 10.6235 22.1273V13.4007C10.6235 12.5172 11.3397 11.8013 12.2231 11.8011H23.8071ZM17.6499 15.2308C17.1168 14.9049 16.4321 15.2886 16.4321 15.9134V18.8694C16.4321 19.4942 17.1168 19.8779 17.6499 19.5521L20.0679 18.0735C20.5781 17.7616 20.5782 17.0203 20.0679 16.7083L17.6499 15.2308Z" fill="white"/>
</svg>
