<svg width="48" height="40" viewBox="0 0 48 40" fill="none" xmlns="http://www.w3.org/2000/svg">
<rect x="6.08317" y="7.21665" width="35.8333" height="25.5667" rx="3.75" stroke="white" stroke-width="0.833333"/>
<path d="M38.167 6.80045C40.4681 6.80045 42.3339 8.66537 42.334 10.9665V11.1999H5.66699V10.9665C5.6671 8.66536 7.53286 6.80045 9.83398 6.80045H38.167ZM10.7998 8.26627C10.3949 8.26627 10.0666 8.59481 10.0664 8.99966C10.0664 9.40467 10.3948 9.73306 10.7998 9.73306C11.2048 9.73303 11.5332 9.40465 11.5332 8.99966C11.533 8.59483 11.2047 8.2663 10.7998 8.26627ZM13.7334 8.26627C13.3285 8.26627 13.0002 8.59481 13 8.99966C13 9.40467 13.3284 9.73306 13.7334 9.73306C14.1383 9.73289 14.4668 9.40456 14.4668 8.99966C14.4666 8.59491 14.1381 8.26644 13.7334 8.26627ZM16.666 8.26627C16.2613 8.26648 15.9328 8.59493 15.9326 8.99966C15.9326 9.40454 16.2612 9.73285 16.666 9.73306C17.071 9.73306 17.3994 9.40467 17.3994 8.99966C17.3992 8.59481 17.0709 8.26627 16.666 8.26627ZM32.0664 8.26627C31.6615 8.26627 31.3332 8.59481 31.333 8.99966C31.333 9.40467 31.6614 9.73306 32.0664 9.73306H37.9326C38.3376 9.73306 38.666 9.40467 38.666 8.99966C38.6658 8.5948 38.3375 8.26627 37.9326 8.26627H32.0664Z" fill="white"/>
<rect x="33.0939" y="16.75" width="5.27778" height="8.94444" rx="1.25" fill="white" stroke="white" stroke-width="0.833333"/>
<rect x="25.1496" y="16.75" width="5.27778" height="8.94444" rx="1.25" fill="white" stroke="white" stroke-width="0.833333"/>
<rect x="10.0664" y="17.8" width="10.2667" height="1.46667" rx="0.733333" fill="white"/>
<rect x="10.0664" y="21.4666" width="7.33333" height="1.46667" rx="0.733333" fill="white"/>
<g clip-path="url(#clip0_1_6765)">
<path d="M26.8323 33.0834L24.7892 31.0402L26.2468 30.1983C26.3607 30.1325 26.427 30.0075 26.4175 29.8763C26.4081 29.745 26.3245 29.6308 26.2023 29.5821L19.7025 26.9893C19.5751 26.9384 19.4296 26.9684 19.3325 27.0654C19.2355 27.1624 19.2055 27.3079 19.2564 27.4353L21.8488 33.9359C21.8975 34.0581 22.0117 34.1417 22.143 34.1512C22.2742 34.1607 22.3993 34.0944 22.465 33.9805L23.3069 32.5229L25.3499 34.5661C25.4142 34.6305 25.5016 34.6667 25.5926 34.6667C25.6837 34.6667 25.771 34.6305 25.8354 34.5661L26.8324 33.5689C26.9664 33.4349 26.9664 33.2175 26.8323 33.0834Z" fill="white"/>
<path d="M18.174 25.4215C18.0399 25.2875 17.8226 25.2875 17.6884 25.4215C17.5544 25.5556 17.5544 25.773 17.6884 25.9071L18.4513 26.67C18.5183 26.737 18.6062 26.7705 18.6941 26.7705C18.7819 26.7705 18.8698 26.737 18.9368 26.67C19.0709 26.5359 19.0709 26.3185 18.9368 26.1844L18.174 25.4215Z" fill="white"/>
<path d="M18.4326 27.7951C18.4326 27.6055 18.2789 27.4517 18.0892 27.4517H17.0104C16.8208 27.4517 16.667 27.6055 16.667 27.7951C16.667 27.9847 16.8207 28.1384 17.0104 28.1384H18.0892C18.2789 28.1384 18.4326 27.9847 18.4326 27.7951Z" fill="white"/>
<path d="M18.2932 28.8547L17.5302 29.6177C17.3962 29.7518 17.3962 29.9691 17.5302 30.1032C17.5973 30.1702 17.6852 30.2038 17.773 30.2038C17.8608 30.2038 17.9487 30.1702 18.0158 30.1032L18.7787 29.3403C18.9128 29.2062 18.9128 28.9888 18.7787 28.8547C18.6447 28.7207 18.4274 28.7207 18.2932 28.8547Z" fill="white"/>
<path d="M20.0616 26.1656C20.2512 26.1656 20.405 26.0119 20.405 25.8223V24.7433C20.405 24.5537 20.2512 24.4 20.0616 24.4C19.872 24.4 19.7183 24.5537 19.7183 24.7433V25.8223C19.7183 26.0119 19.872 26.1656 20.0616 26.1656Z" fill="white"/>
<path d="M21.3638 26.6125C21.4518 26.6125 21.5396 26.579 21.6066 26.512L22.3695 25.7491C22.5035 25.615 22.5035 25.3976 22.3695 25.2635C22.2354 25.1295 22.018 25.1295 21.8839 25.2635L21.1211 26.0264C20.987 26.1605 20.987 26.3779 21.1211 26.512C21.1881 26.579 21.276 26.6125 21.3638 26.6125Z" fill="white"/>
</g>
<defs>
<clipPath id="clip0_1_6765">
<rect width="10.2667" height="10.2667" fill="white" transform="translate(16.6665 24.4)"/>
</clipPath>
</defs>
</svg>
