<svg width="48" height="40" viewBox="0 0 48 40" fill="none" xmlns="http://www.w3.org/2000/svg">
<path d="M35.3994 16.9426C35.6743 16.6678 36.1196 16.6679 36.3945 16.9426C36.6695 17.2176 36.6695 17.6628 36.3945 17.9377L31.5527 22.7805H29.5615L35.3994 16.9426Z" fill="white"/>
<path d="M11.1226 16.9424C11.3975 16.6675 11.8437 16.6675 12.1187 16.9424L17.9565 22.7812H15.9663L11.1226 17.9385C10.8476 17.6635 10.8476 17.2173 11.1226 16.9424Z" fill="white"/>
<g clip-path="url(#clip0_1_6801)">
<path d="M24.0269 17.1985C24.7536 17.1985 25.3428 16.6093 25.3428 15.8826C25.3428 15.1558 24.7536 14.5667 24.0269 14.5667C23.3001 14.5667 22.7109 15.1558 22.7109 15.8826C22.7109 16.6093 23.3001 17.1985 24.0269 17.1985Z" fill="white"/>
<path d="M27.1717 12.7122C27.1522 12.6921 27.1315 12.6742 27.1115 12.6558L27.0524 12.5999C27.0426 12.5896 27.0317 12.582 27.0193 12.5722C25.3177 11.0263 22.7135 11.0876 21.0895 12.7116L20.8991 12.9026L20.6355 13.1662C20.3143 13.4873 20.316 14.0108 20.6376 14.3324C20.9598 14.6552 21.4833 14.6557 21.8038 14.3346L22.2584 13.88C23.2912 12.8478 24.9711 12.8478 26.0033 13.8795L26.3315 14.1973C26.6493 14.5152 27.1679 14.5147 27.4874 14.1946C27.642 14.0406 27.7271 13.835 27.7277 13.6164C27.7282 13.3989 27.6441 13.1933 27.4895 13.0398L27.1717 12.7122Z" fill="white"/>
<path d="M29.4136 11.0854L29.1403 10.812C29.1392 10.8109 29.1386 10.8093 29.1365 10.8088L28.9206 10.5918C28.8826 10.5544 28.8414 10.5218 28.798 10.4936C26.0246 8.05866 21.8061 8.13352 19.1211 10.7165C19.1081 10.7285 19.0935 10.7366 19.0804 10.7496L18.5868 11.2438C18.2939 11.5361 18.2956 12.0119 18.5901 12.3064C18.8841 12.6004 19.3598 12.6026 19.6527 12.3091L20.1463 11.816C20.1496 11.8117 20.1523 11.8079 20.1555 11.8052C22.3269 9.70763 25.7713 9.69462 27.9599 11.7623L28.3483 12.1513C28.6407 12.4436 29.1175 12.4425 29.4115 12.1485C29.7049 11.854 29.706 11.3778 29.4136 11.0854Z" fill="white"/>
</g>
<rect x="10.3199" y="22.5121" width="27.36" height="7.648" rx="2.8" stroke="white" stroke-width="0.8"/>
<circle cx="14.848" cy="26.336" r="0.704" fill="white"/>
<circle cx="17.664" cy="26.336" r="0.704" fill="white"/>
<circle cx="20.4799" cy="26.336" r="0.704" fill="white"/>
<rect x="27.52" y="25.632" width="7.04" height="1.408" rx="0.704" fill="white"/>
<rect x="35.2637" y="29.856" width="2.816" height="1.408" rx="0.704" transform="rotate(90 35.2637 29.856)" fill="white"/>
<rect x="14.144" y="29.856" width="2.816" height="1.408" rx="0.704" transform="rotate(90 14.144 29.856)" fill="white"/>
<defs>
<clipPath id="clip0_1_6801">
<rect width="11.264" height="11.264" fill="white" transform="translate(18.3682 7.328)"/>
</clipPath>
</defs>
</svg>
