<svg width="335" height="404" viewBox="0 0 335 404" fill="none" xmlns="http://www.w3.org/2000/svg">
<g filter="url(#filter0_d_0_2581)">
<rect x="28.1791" y="26.4179" width="278.269" height="347.313" rx="12" fill="white" shape-rendering="crispEdges"/>
<path d="M57.4334 56.5662C57.284 55.8569 56.9527 55.3249 56.4394 54.9702C55.9354 54.6156 55.3334 54.4382 54.6334 54.4382C54.036 54.4382 53.5227 54.5502 53.0934 54.7742C52.6734 54.9982 52.3234 55.3016 52.0434 55.6842C51.7727 56.0576 51.572 56.4869 51.4414 56.9722C51.3107 57.4576 51.2454 57.9616 51.2454 58.4842C51.2454 59.0536 51.3107 59.5949 51.4414 60.1082C51.572 60.6122 51.7727 61.0556 52.0434 61.4382C52.3234 61.8116 52.678 62.1102 53.1074 62.3342C53.5367 62.5582 54.05 62.6702 54.6474 62.6702C55.086 62.6702 55.4734 62.6002 55.8094 62.4602C56.1547 62.3109 56.4487 62.1102 56.6914 61.8582C56.9434 61.5969 57.1394 61.2889 57.2794 60.9342C57.4194 60.5796 57.5034 60.1969 57.5314 59.7862H58.8614C58.7307 61.0462 58.2967 62.0262 57.5594 62.7262C56.822 63.4262 55.814 63.7762 54.5354 63.7762C53.7607 63.7762 53.084 63.6456 52.5054 63.3842C51.9267 63.1136 51.446 62.7449 51.0634 62.2782C50.6807 61.8116 50.3914 61.2609 50.1954 60.6262C50.0087 59.9916 49.9154 59.3102 49.9154 58.5822C49.9154 57.8542 50.018 57.1729 50.2234 56.5382C50.4287 55.8942 50.7274 55.3342 51.1194 54.8582C51.5207 54.3822 52.0154 54.0089 52.6034 53.7382C53.2007 53.4582 53.882 53.3182 54.6474 53.3182C55.17 53.3182 55.6647 53.3882 56.1314 53.5282C56.598 53.6682 57.0134 53.8736 57.3774 54.1442C57.7414 54.4149 58.0447 54.7556 58.2874 55.1662C58.53 55.5676 58.6887 56.0342 58.7634 56.5662H57.4334ZM66.3049 63.5522H65.1849V62.4042H65.1569C64.9049 62.8522 64.5829 63.1836 64.1909 63.3982C63.7989 63.6036 63.3369 63.7062 62.8049 63.7062C62.3289 63.7062 61.9322 63.6456 61.6149 63.5242C61.2975 63.3936 61.0409 63.2116 60.8449 62.9782C60.6489 62.7449 60.5089 62.4696 60.4249 62.1522C60.3502 61.8256 60.3129 61.4662 60.3129 61.0742V56.3142H61.5029V61.2142C61.5029 61.6622 61.6335 62.0169 61.8949 62.2782C62.1562 62.5396 62.5155 62.6702 62.9729 62.6702C63.3369 62.6702 63.6495 62.6142 63.9109 62.5022C64.1815 62.3902 64.4055 62.2316 64.5829 62.0262C64.7602 61.8209 64.8909 61.5829 64.9749 61.3122C65.0682 61.0322 65.1149 60.7289 65.1149 60.4022V56.3142H66.3049V63.5522ZM68.8202 61.2702C68.8295 61.5316 68.8902 61.7556 69.0022 61.9422C69.1142 62.1196 69.2588 62.2642 69.4362 62.3762C69.6228 62.4789 69.8282 62.5536 70.0522 62.6002C70.2855 62.6469 70.5235 62.6702 70.7662 62.6702C70.9528 62.6702 71.1488 62.6562 71.3542 62.6282C71.5595 62.6002 71.7462 62.5489 71.9142 62.4742C72.0915 62.3996 72.2362 62.2922 72.3482 62.1522C72.4602 62.0029 72.5162 61.8162 72.5162 61.5922C72.5162 61.2842 72.3995 61.0509 72.1662 60.8922C71.9328 60.7336 71.6388 60.6076 71.2842 60.5142C70.9388 60.4116 70.5608 60.3229 70.1502 60.2482C69.7395 60.1642 69.3568 60.0522 69.0022 59.9122C68.6568 59.7629 68.3675 59.5576 68.1342 59.2962C67.9008 59.0349 67.7842 58.6709 67.7842 58.2042C67.7842 57.8402 67.8635 57.5276 68.0222 57.2662C68.1902 57.0049 68.4002 56.7949 68.6522 56.6362C68.9135 56.4682 69.2028 56.3469 69.5202 56.2722C69.8468 56.1882 70.1688 56.1462 70.4862 56.1462C70.8968 56.1462 71.2748 56.1836 71.6202 56.2582C71.9655 56.3236 72.2688 56.4449 72.5302 56.6222C72.8008 56.7902 73.0155 57.0236 73.1742 57.3222C73.3328 57.6116 73.4262 57.9756 73.4542 58.4142H72.2642C72.2455 58.1809 72.1848 57.9896 72.0822 57.8402C71.9795 57.6816 71.8488 57.5556 71.6902 57.4622C71.5315 57.3689 71.3542 57.3036 71.1582 57.2662C70.9715 57.2196 70.7802 57.1962 70.5842 57.1962C70.4068 57.1962 70.2248 57.2102 70.0382 57.2382C69.8608 57.2662 69.6975 57.3176 69.5482 57.3922C69.3988 57.4576 69.2775 57.5509 69.1842 57.6722C69.0908 57.7842 69.0442 57.9336 69.0442 58.1202C69.0442 58.3256 69.1142 58.4982 69.2542 58.6382C69.4035 58.7689 69.5902 58.8809 69.8142 58.9742C70.0382 59.0582 70.2902 59.1329 70.5702 59.1982C70.8502 59.2542 71.1302 59.3149 71.4102 59.3802C71.7088 59.4456 71.9982 59.5249 72.2782 59.6182C72.5675 59.7116 72.8195 59.8376 73.0342 59.9962C73.2582 60.1456 73.4355 60.3369 73.5662 60.5702C73.7062 60.8036 73.7762 61.0929 73.7762 61.4382C73.7762 61.8769 73.6828 62.2409 73.4962 62.5302C73.3188 62.8196 73.0808 63.0529 72.7822 63.2302C72.4928 63.4076 72.1615 63.5289 71.7882 63.5942C71.4242 63.6689 71.0602 63.7062 70.6962 63.7062C70.2948 63.7062 69.9122 63.6642 69.5482 63.5802C69.1842 63.4962 68.8622 63.3609 68.5822 63.1742C68.3022 62.9782 68.0782 62.7262 67.9102 62.4182C67.7422 62.1009 67.6488 61.7182 67.6302 61.2702H68.8202ZM76.7442 56.3142H78.1862V57.3642H76.7442V61.8582C76.7442 61.9982 76.7535 62.1102 76.7722 62.1942C76.8002 62.2782 76.8468 62.3436 76.9122 62.3902C76.9775 62.4369 77.0662 62.4696 77.1782 62.4882C77.2995 62.4976 77.4535 62.5022 77.6402 62.5022H78.1862V63.5522H77.2762C76.9682 63.5522 76.7022 63.5336 76.4782 63.4962C76.2635 63.4496 76.0862 63.3702 75.9462 63.2582C75.8155 63.1462 75.7175 62.9876 75.6522 62.7822C75.5868 62.5769 75.5542 62.3062 75.5542 61.9702V57.3642H74.3222V56.3142H75.5542V54.1442H76.7442V56.3142ZM80.3762 59.9402C80.3762 60.3789 80.4322 60.7709 80.5442 61.1162C80.6655 61.4522 80.8288 61.7369 81.0342 61.9702C81.2395 62.1942 81.4775 62.3669 81.7482 62.4882C82.0282 62.6096 82.3222 62.6702 82.6302 62.6702C82.9382 62.6702 83.2275 62.6096 83.4982 62.4882C83.7782 62.3669 84.0208 62.1942 84.2262 61.9702C84.4315 61.7369 84.5902 61.4522 84.7022 61.1162C84.8235 60.7709 84.8842 60.3789 84.8842 59.9402C84.8842 59.5016 84.8235 59.1142 84.7022 58.7782C84.5902 58.4329 84.4315 58.1436 84.2262 57.9102C84.0208 57.6769 83.7782 57.4996 83.4982 57.3782C83.2275 57.2569 82.9382 57.1962 82.6302 57.1962C82.3222 57.1962 82.0282 57.2569 81.7482 57.3782C81.4775 57.4996 81.2395 57.6769 81.0342 57.9102C80.8288 58.1436 80.6655 58.4329 80.5442 58.7782C80.4322 59.1142 80.3762 59.5016 80.3762 59.9402ZM79.1162 59.9402C79.1162 59.4082 79.1908 58.9136 79.3402 58.4562C79.4895 57.9896 79.7135 57.5882 80.0122 57.2522C80.3108 56.9069 80.6795 56.6362 81.1182 56.4402C81.5568 56.2442 82.0608 56.1462 82.6302 56.1462C83.2088 56.1462 83.7128 56.2442 84.1422 56.4402C84.5808 56.6362 84.9495 56.9069 85.2482 57.2522C85.5468 57.5882 85.7708 57.9896 85.9202 58.4562C86.0695 58.9136 86.1442 59.4082 86.1442 59.9402C86.1442 60.4722 86.0695 60.9669 85.9202 61.4242C85.7708 61.8816 85.5468 62.2829 85.2482 62.6282C84.9495 62.9642 84.5808 63.2302 84.1422 63.4262C83.7128 63.6129 83.2088 63.7062 82.6302 63.7062C82.0608 63.7062 81.5568 63.6129 81.1182 63.4262C80.6795 63.2302 80.3108 62.9642 80.0122 62.6282C79.7135 62.2829 79.4895 61.8816 79.3402 61.4242C79.1908 60.9669 79.1162 60.4722 79.1162 59.9402ZM87.5472 56.3142H88.6672V57.3782H88.6952C89.2366 56.5569 90.0159 56.1462 91.0332 56.1462C91.4812 56.1462 91.8872 56.2396 92.2512 56.4262C92.6152 56.6129 92.8719 56.9302 93.0212 57.3782C93.2639 56.9862 93.5812 56.6829 93.9732 56.4682C94.3746 56.2536 94.8132 56.1462 95.2892 56.1462C95.6532 56.1462 95.9799 56.1882 96.2692 56.2722C96.5679 56.3469 96.8199 56.4682 97.0252 56.6362C97.2399 56.8042 97.4032 57.0236 97.5152 57.2942C97.6366 57.5556 97.6972 57.8729 97.6972 58.2462V63.5522H96.5072V58.8062C96.5072 58.5822 96.4886 58.3722 96.4512 58.1762C96.4139 57.9802 96.3439 57.8122 96.2412 57.6722C96.1386 57.5229 95.9939 57.4062 95.8072 57.3222C95.6299 57.2382 95.3966 57.1962 95.1072 57.1962C94.5192 57.1962 94.0572 57.3642 93.7212 57.7002C93.3852 58.0362 93.2172 58.4842 93.2172 59.0442V63.5522H92.0272V58.8062C92.0272 58.5729 92.0039 58.3582 91.9572 58.1622C91.9199 57.9662 91.8499 57.7982 91.7472 57.6582C91.6446 57.5089 91.5046 57.3969 91.3272 57.3222C91.1592 57.2382 90.9399 57.1962 90.6692 57.1962C90.3239 57.1962 90.0252 57.2662 89.7732 57.4062C89.5306 57.5462 89.3299 57.7142 89.1712 57.9102C89.0219 58.1062 88.9099 58.3116 88.8352 58.5262C88.7699 58.7316 88.7372 58.9042 88.7372 59.0442V63.5522H87.5472V56.3142ZM100.743 55.0122H99.5528V53.5562H100.743V55.0122ZM99.5528 56.3142H100.743V63.5522H99.5528V56.3142ZM101.998 62.6422L106.366 57.3642H102.278V56.3142H107.906V57.1262L103.482 62.5022H108.102V63.5522H101.998V62.6422ZM114.339 59.2402C114.32 58.9602 114.255 58.6942 114.143 58.4422C114.04 58.1902 113.896 57.9756 113.709 57.7982C113.532 57.6116 113.317 57.4669 113.065 57.3642C112.822 57.2522 112.552 57.1962 112.253 57.1962C111.945 57.1962 111.665 57.2522 111.413 57.3642C111.17 57.4669 110.96 57.6116 110.783 57.7982C110.606 57.9849 110.466 58.2042 110.363 58.4562C110.26 58.6989 110.2 58.9602 110.181 59.2402H114.339ZM115.487 61.2562C115.328 62.0682 114.978 62.6796 114.437 63.0902C113.896 63.5009 113.214 63.7062 112.393 63.7062C111.814 63.7062 111.31 63.6129 110.881 63.4262C110.461 63.2396 110.106 62.9782 109.817 62.6422C109.528 62.3062 109.308 61.9049 109.159 61.4382C109.019 60.9716 108.94 60.4629 108.921 59.9122C108.921 59.3616 109.005 58.8576 109.173 58.4002C109.341 57.9429 109.574 57.5462 109.873 57.2102C110.181 56.8742 110.54 56.6129 110.951 56.4262C111.371 56.2396 111.828 56.1462 112.323 56.1462C112.967 56.1462 113.499 56.2816 113.919 56.5522C114.348 56.8136 114.689 57.1496 114.941 57.5602C115.202 57.9709 115.38 58.4189 115.473 58.9042C115.576 59.3896 115.618 59.8516 115.599 60.2902H110.181C110.172 60.6076 110.209 60.9109 110.293 61.2002C110.377 61.4802 110.512 61.7322 110.699 61.9562C110.886 62.1709 111.124 62.3436 111.413 62.4742C111.702 62.6049 112.043 62.6702 112.435 62.6702C112.939 62.6702 113.35 62.5536 113.667 62.3202C113.994 62.0869 114.208 61.7322 114.311 61.2562H115.487Z" fill="#0A0909"/>
<path d="M258.504 57.0321H253.943C253.103 57.0321 252.423 57.7127 252.423 58.5522C252.423 59.3918 253.103 60.0724 253.943 60.0724H258.504C259.344 60.0724 260.024 59.3918 260.024 58.5522C260.024 57.7127 259.344 57.0321 258.504 57.0321Z" fill="#D3D8EB"/>
<path d="M269.628 57.0321H265.067C264.227 57.0321 263.547 57.7127 263.547 58.5522C263.547 59.3918 264.227 60.0724 265.067 60.0724H269.628C270.468 60.0724 271.148 59.3918 271.148 58.5522C271.148 57.7127 270.468 57.0321 269.628 57.0321Z" fill="#D3D8EB"/>
<path d="M283.793 57.0321H276.191C275.352 57.0321 274.671 57.7127 274.671 58.5522C274.671 59.3918 275.352 60.0724 276.191 60.0724H283.793C284.633 60.0724 285.313 59.3918 285.313 58.5522C285.313 57.7127 284.633 57.0321 283.793 57.0321Z" fill="#BFD166"/>
<path d="M54.7134 102.239L55.8534 103.151C56.1894 102.815 56.4374 102.407 56.5974 101.927C56.7574 101.439 56.8374 100.931 56.8374 100.403C56.8374 99.9706 56.7814 99.5466 56.6694 99.1306C56.5574 98.7066 56.3814 98.3266 56.1414 97.9906C55.9014 97.6546 55.5934 97.3866 55.2174 97.1866C54.8414 96.9786 54.3934 96.8746 53.8734 96.8746C53.3534 96.8746 52.9054 96.9786 52.5294 97.1866C52.1534 97.3866 51.8454 97.6546 51.6054 97.9906C51.3654 98.3266 51.1894 98.7066 51.0774 99.1306C50.9654 99.5466 50.9094 99.9706 50.9094 100.403C50.9094 100.835 50.9654 101.263 51.0774 101.687C51.1894 102.103 51.3654 102.479 51.6054 102.815C51.8454 103.151 52.1534 103.423 52.5294 103.631C52.9054 103.831 53.3534 103.931 53.8734 103.931C54.2814 103.931 54.6774 103.851 55.0614 103.691L54.1134 102.935L54.7134 102.239ZM57.2334 105.419L55.9254 104.375C55.3494 104.711 54.6654 104.879 53.8734 104.879C53.1934 104.879 52.5974 104.759 52.0854 104.519C51.5734 104.271 51.1454 103.939 50.8014 103.523C50.4574 103.107 50.1974 102.631 50.0214 102.095C49.8534 101.551 49.7694 100.987 49.7694 100.403C49.7694 99.8186 49.8534 99.2586 50.0214 98.7226C50.1974 98.1786 50.4574 97.6986 50.8014 97.2826C51.1454 96.8666 51.5734 96.5346 52.0854 96.2866C52.5974 96.0386 53.1934 95.9146 53.8734 95.9146C54.5534 95.9146 55.1494 96.0386 55.6614 96.2866C56.1734 96.5346 56.6014 96.8666 56.9454 97.2826C57.2894 97.6986 57.5454 98.1786 57.7134 98.7226C57.8894 99.2586 57.9774 99.8186 57.9774 100.403C57.9774 101.059 57.8694 101.683 57.6534 102.275C57.4374 102.867 57.1134 103.379 56.6814 103.811L57.8094 104.699L57.2334 105.419ZM59.3665 96.1186H63.3985C64.2145 96.1186 64.8505 96.3186 65.3065 96.7186C65.7705 97.1186 66.0025 97.6666 66.0025 98.3626C66.0025 98.8826 65.8825 99.3386 65.6425 99.7306C65.4105 100.123 65.0345 100.391 64.5145 100.535V100.559C64.7625 100.607 64.9625 100.687 65.1145 100.799C65.2745 100.911 65.3985 101.047 65.4865 101.207C65.5825 101.359 65.6505 101.531 65.6905 101.723C65.7385 101.915 65.7745 102.115 65.7985 102.323C65.8145 102.531 65.8265 102.743 65.8345 102.959C65.8425 103.175 65.8625 103.387 65.8945 103.595C65.9265 103.803 65.9705 104.003 66.0265 104.195C66.0905 104.379 66.1825 104.543 66.3025 104.687H65.0305C64.9505 104.599 64.8945 104.479 64.8625 104.327C64.8385 104.175 64.8225 104.007 64.8145 103.823C64.8065 103.631 64.7985 103.427 64.7905 103.211C64.7825 102.995 64.7585 102.783 64.7185 102.575C64.6865 102.367 64.6465 102.171 64.5985 101.987C64.5505 101.795 64.4745 101.631 64.3705 101.495C64.2665 101.351 64.1305 101.239 63.9625 101.159C63.7945 101.071 63.5705 101.027 63.2905 101.027H60.5065V104.687H59.3665V96.1186ZM62.8825 100.067C63.1465 100.067 63.3985 100.047 63.6385 100.007C63.8785 99.9666 64.0865 99.8906 64.2625 99.7786C64.4465 99.6586 64.5905 99.5026 64.6945 99.3106C64.8065 99.1106 64.8625 98.8546 64.8625 98.5426C64.8625 98.1106 64.7425 97.7586 64.5025 97.4866C64.2625 97.2146 63.8745 97.0786 63.3385 97.0786H60.5065V100.067H62.8825ZM74.9652 100.475C74.8852 100.083 74.7172 99.7786 74.4612 99.5626C74.2052 99.3466 73.8612 99.2386 73.4292 99.2386C73.0612 99.2386 72.7532 99.3066 72.5052 99.4426C72.2572 99.5786 72.0572 99.7586 71.9052 99.9826C71.7612 100.207 71.6572 100.467 71.5932 100.763C71.5292 101.051 71.4972 101.351 71.4972 101.663C71.4972 101.951 71.5292 102.231 71.5932 102.503C71.6652 102.775 71.7732 103.019 71.9172 103.235C72.0612 103.443 72.2492 103.611 72.4812 103.739C72.7132 103.867 72.9892 103.931 73.3092 103.931C73.8132 103.931 74.2052 103.799 74.4852 103.535C74.7732 103.271 74.9492 102.899 75.0132 102.419H76.0572C75.9452 103.187 75.6572 103.779 75.1932 104.195C74.7372 104.611 74.1132 104.819 73.3212 104.819C72.8492 104.819 72.4292 104.743 72.0612 104.591C71.7012 104.439 71.3972 104.223 71.1492 103.943C70.9092 103.663 70.7252 103.331 70.5972 102.947C70.4772 102.555 70.4172 102.127 70.4172 101.663C70.4172 101.199 70.4772 100.767 70.5972 100.367C70.7172 99.9586 70.8972 99.6066 71.1372 99.3106C71.3852 99.0066 71.6932 98.7706 72.0612 98.6026C72.4292 98.4266 72.8572 98.3386 73.3452 98.3386C73.6972 98.3386 74.0252 98.3826 74.3292 98.4706C74.6412 98.5506 74.9132 98.6786 75.1452 98.8546C75.3852 99.0306 75.5812 99.2546 75.7332 99.5266C75.8852 99.7906 75.9812 100.107 76.0212 100.475H74.9652ZM77.9425 101.591C77.9425 101.967 77.9905 102.303 78.0865 102.599C78.1905 102.887 78.3305 103.131 78.5065 103.331C78.6825 103.523 78.8865 103.671 79.1185 103.775C79.3585 103.879 79.6105 103.931 79.8745 103.931C80.1385 103.931 80.3865 103.879 80.6185 103.775C80.8585 103.671 81.0665 103.523 81.2425 103.331C81.4185 103.131 81.5545 102.887 81.6505 102.599C81.7545 102.303 81.8065 101.967 81.8065 101.591C81.8065 101.215 81.7545 100.883 81.6505 100.595C81.5545 100.299 81.4185 100.051 81.2425 99.8506C81.0665 99.6506 80.8585 99.4986 80.6185 99.3946C80.3865 99.2906 80.1385 99.2386 79.8745 99.2386C79.6105 99.2386 79.3585 99.2906 79.1185 99.3946C78.8865 99.4986 78.6825 99.6506 78.5065 99.8506C78.3305 100.051 78.1905 100.299 78.0865 100.595C77.9905 100.883 77.9425 101.215 77.9425 101.591ZM76.8625 101.591C76.8625 101.135 76.9265 100.711 77.0545 100.319C77.1825 99.9186 77.3745 99.5746 77.6305 99.2866C77.8865 98.9906 78.2025 98.7586 78.5785 98.5906C78.9545 98.4226 79.3865 98.3386 79.8745 98.3386C80.3705 98.3386 80.8025 98.4226 81.1705 98.5906C81.5465 98.7586 81.8625 98.9906 82.1185 99.2866C82.3745 99.5746 82.5665 99.9186 82.6945 100.319C82.8225 100.711 82.8865 101.135 82.8865 101.591C82.8865 102.047 82.8225 102.471 82.6945 102.863C82.5665 103.255 82.3745 103.599 82.1185 103.895C81.8625 104.183 81.5465 104.411 81.1705 104.579C80.8025 104.739 80.3705 104.819 79.8745 104.819C79.3865 104.819 78.9545 104.739 78.5785 104.579C78.2025 104.411 77.8865 104.183 77.6305 103.895C77.3745 103.599 77.1825 103.255 77.0545 102.863C76.9265 102.471 76.8625 102.047 76.8625 101.591ZM84.8332 101.639C84.8332 101.927 84.8692 102.211 84.9412 102.491C85.0212 102.763 85.1372 103.007 85.2892 103.223C85.4492 103.439 85.6492 103.611 85.8892 103.739C86.1372 103.867 86.4252 103.931 86.7532 103.931C87.0972 103.931 87.3892 103.863 87.6292 103.727C87.8692 103.591 88.0652 103.415 88.2172 103.199C88.3692 102.975 88.4772 102.723 88.5412 102.443C88.6132 102.163 88.6492 101.879 88.6492 101.591C88.6492 101.287 88.6132 100.995 88.5412 100.715C88.4692 100.427 88.3532 100.175 88.1932 99.9586C88.0412 99.7426 87.8412 99.5706 87.5932 99.4426C87.3452 99.3066 87.0452 99.2386 86.6932 99.2386C86.3492 99.2386 86.0572 99.3066 85.8172 99.4426C85.5772 99.5786 85.3852 99.7586 85.2412 99.9826C85.0972 100.207 84.9932 100.463 84.9292 100.751C84.8652 101.039 84.8332 101.335 84.8332 101.639ZM89.6332 104.687H88.6132V103.847H88.5892C88.4212 104.191 88.1572 104.439 87.7972 104.591C87.4372 104.743 87.0412 104.819 86.6092 104.819C86.1292 104.819 85.7092 104.731 85.3492 104.555C84.9972 104.379 84.7012 104.143 84.4612 103.847C84.2292 103.551 84.0532 103.207 83.9332 102.815C83.8132 102.423 83.7532 102.007 83.7532 101.567C83.7532 101.127 83.8092 100.711 83.9212 100.319C84.0412 99.9266 84.2172 99.5866 84.4492 99.2986C84.6892 99.0026 84.9852 98.7706 85.3372 98.6026C85.6972 98.4266 86.1132 98.3386 86.5852 98.3386C86.7452 98.3386 86.9172 98.3546 87.1012 98.3866C87.2852 98.4186 87.4692 98.4746 87.6532 98.5546C87.8372 98.6266 88.0092 98.7266 88.1692 98.8546C88.3372 98.9746 88.4772 99.1266 88.5892 99.3106H88.6132V96.1186H89.6332V104.687ZM95.5104 100.991C95.4944 100.751 95.4384 100.523 95.3424 100.307C95.2544 100.091 95.1304 99.9066 94.9704 99.7546C94.8184 99.5946 94.6344 99.4706 94.4184 99.3826C94.2104 99.2866 93.9784 99.2386 93.7224 99.2386C93.4584 99.2386 93.2184 99.2866 93.0024 99.3826C92.7944 99.4706 92.6144 99.5946 92.4624 99.7546C92.3104 99.9146 92.1904 100.103 92.1024 100.319C92.0144 100.527 91.9624 100.751 91.9464 100.991H95.5104ZM96.4944 102.719C96.3584 103.415 96.0584 103.939 95.5944 104.291C95.1304 104.643 94.5464 104.819 93.8424 104.819C93.3464 104.819 92.9144 104.739 92.5464 104.579C92.1864 104.419 91.8824 104.195 91.6344 103.907C91.3864 103.619 91.1984 103.275 91.0704 102.875C90.9504 102.475 90.8824 102.039 90.8664 101.567C90.8664 101.095 90.9384 100.663 91.0824 100.271C91.2264 99.8786 91.4264 99.5386 91.6824 99.2506C91.9464 98.9626 92.2544 98.7386 92.6064 98.5786C92.9664 98.4186 93.3584 98.3386 93.7824 98.3386C94.3344 98.3386 94.7904 98.4546 95.1504 98.6866C95.5184 98.9106 95.8104 99.1986 96.0264 99.5506C96.2504 99.9026 96.4024 100.287 96.4824 100.703C96.5704 101.119 96.6064 101.515 96.5904 101.891H91.9464C91.9384 102.163 91.9704 102.423 92.0424 102.671C92.1144 102.911 92.2304 103.127 92.3904 103.319C92.5504 103.503 92.7544 103.651 93.0024 103.763C93.2504 103.875 93.5424 103.931 93.8784 103.931C94.3104 103.931 94.6624 103.831 94.9344 103.631C95.2144 103.431 95.3984 103.127 95.4864 102.719H96.4944ZM101.024 98.4826H102.044V99.3226H102.068C102.236 98.9786 102.5 98.7306 102.86 98.5786C103.22 98.4186 103.616 98.3386 104.048 98.3386C104.528 98.3386 104.944 98.4266 105.296 98.6026C105.656 98.7786 105.952 99.0186 106.184 99.3226C106.424 99.6186 106.604 99.9626 106.724 100.355C106.844 100.747 106.904 101.163 106.904 101.603C106.904 102.043 106.844 102.459 106.724 102.851C106.612 103.243 106.436 103.587 106.196 103.883C105.964 104.171 105.668 104.399 105.308 104.567C104.956 104.735 104.544 104.819 104.072 104.819C103.92 104.819 103.748 104.803 103.556 104.771C103.372 104.739 103.188 104.687 103.004 104.615C102.82 104.543 102.644 104.447 102.476 104.327C102.316 104.199 102.18 104.043 102.068 103.859H102.044V107.051H101.024V98.4826ZM105.824 101.531C105.824 101.243 105.784 100.963 105.704 100.691C105.632 100.411 105.516 100.163 105.356 99.9466C105.204 99.7306 105.004 99.5586 104.756 99.4306C104.516 99.3026 104.232 99.2386 103.904 99.2386C103.56 99.2386 103.268 99.3066 103.028 99.4426C102.788 99.5786 102.592 99.7586 102.44 99.9826C102.288 100.199 102.176 100.447 102.104 100.727C102.04 101.007 102.008 101.291 102.008 101.579C102.008 101.883 102.044 102.179 102.116 102.467C102.188 102.747 102.3 102.995 102.452 103.211C102.612 103.427 102.816 103.603 103.064 103.739C103.312 103.867 103.612 103.931 103.964 103.931C104.316 103.931 104.608 103.863 104.84 103.727C105.08 103.591 105.272 103.411 105.416 103.187C105.56 102.963 105.664 102.707 105.728 102.419C105.792 102.131 105.824 101.835 105.824 101.531ZM113.597 104.663C113.421 104.767 113.177 104.819 112.865 104.819C112.601 104.819 112.389 104.747 112.229 104.603C112.077 104.451 112.001 104.207 112.001 103.871C111.721 104.207 111.393 104.451 111.017 104.603C110.649 104.747 110.249 104.819 109.817 104.819C109.537 104.819 109.269 104.787 109.013 104.723C108.765 104.659 108.549 104.559 108.365 104.423C108.181 104.287 108.033 104.111 107.921 103.895C107.817 103.671 107.765 103.403 107.765 103.091C107.765 102.739 107.825 102.451 107.945 102.227C108.065 102.003 108.221 101.823 108.413 101.687C108.613 101.543 108.837 101.435 109.085 101.363C109.341 101.291 109.601 101.231 109.865 101.183C110.145 101.127 110.409 101.087 110.657 101.063C110.913 101.031 111.137 100.991 111.329 100.943C111.521 100.887 111.673 100.811 111.785 100.715C111.897 100.611 111.953 100.463 111.953 100.271C111.953 100.047 111.909 99.8666 111.821 99.7306C111.741 99.5946 111.633 99.4906 111.497 99.4186C111.369 99.3466 111.221 99.2986 111.053 99.2746C110.893 99.2506 110.733 99.2386 110.573 99.2386C110.141 99.2386 109.781 99.3226 109.493 99.4906C109.205 99.6506 109.049 99.9586 109.025 100.415H108.005C108.021 100.031 108.101 99.7066 108.245 99.4426C108.389 99.1786 108.581 98.9666 108.821 98.8066C109.061 98.6386 109.333 98.5186 109.637 98.4466C109.949 98.3746 110.281 98.3386 110.633 98.3386C110.913 98.3386 111.189 98.3586 111.461 98.3986C111.741 98.4386 111.993 98.5226 112.217 98.6506C112.441 98.7706 112.621 98.9426 112.757 99.1666C112.893 99.3906 112.961 99.6826 112.961 100.043V103.235C112.961 103.475 112.973 103.651 112.997 103.763C113.029 103.875 113.125 103.931 113.285 103.931C113.373 103.931 113.477 103.911 113.597 103.871V104.663ZM111.941 101.483C111.813 101.579 111.645 101.651 111.437 101.699C111.229 101.739 111.009 101.775 110.777 101.807C110.553 101.831 110.325 101.863 110.093 101.903C109.861 101.935 109.653 101.991 109.469 102.071C109.285 102.151 109.133 102.267 109.013 102.419C108.901 102.563 108.845 102.763 108.845 103.019C108.845 103.187 108.877 103.331 108.941 103.451C109.013 103.563 109.101 103.655 109.205 103.727C109.317 103.799 109.445 103.851 109.589 103.883C109.733 103.915 109.885 103.931 110.045 103.931C110.381 103.931 110.669 103.887 110.909 103.799C111.149 103.703 111.345 103.587 111.497 103.451C111.649 103.307 111.761 103.155 111.833 102.995C111.905 102.827 111.941 102.671 111.941 102.527V101.483ZM115.962 98.4826H117.198V99.3826H115.962V103.235C115.962 103.355 115.97 103.451 115.986 103.523C116.01 103.595 116.05 103.651 116.106 103.691C116.162 103.731 116.238 103.759 116.334 103.775C116.438 103.783 116.57 103.787 116.73 103.787H117.198V104.687H116.418C116.154 104.687 115.926 104.671 115.734 104.639C115.55 104.599 115.398 104.531 115.278 104.435C115.166 104.339 115.082 104.203 115.026 104.027C114.97 103.851 114.942 103.619 114.942 103.331V99.3826H113.886V98.4826H114.942V96.6226H115.962V98.4826ZM119.747 98.4826H120.983V99.3826H119.747V103.235C119.747 103.355 119.755 103.451 119.771 103.523C119.795 103.595 119.835 103.651 119.891 103.691C119.947 103.731 120.023 103.759 120.119 103.775C120.223 103.783 120.355 103.787 120.515 103.787H120.983V104.687H120.203C119.939 104.687 119.711 104.671 119.519 104.639C119.335 104.599 119.183 104.531 119.063 104.435C118.951 104.339 118.867 104.203 118.811 104.027C118.755 103.851 118.727 103.619 118.727 103.331V99.3826H117.671V98.4826H118.727V96.6226H119.747V98.4826ZM126.425 100.991C126.409 100.751 126.353 100.523 126.257 100.307C126.169 100.091 126.045 99.9066 125.885 99.7546C125.733 99.5946 125.549 99.4706 125.333 99.3826C125.125 99.2866 124.893 99.2386 124.637 99.2386C124.373 99.2386 124.133 99.2866 123.917 99.3826C123.709 99.4706 123.529 99.5946 123.377 99.7546C123.225 99.9146 123.105 100.103 123.017 100.319C122.929 100.527 122.877 100.751 122.861 100.991H126.425ZM127.409 102.719C127.273 103.415 126.973 103.939 126.509 104.291C126.045 104.643 125.461 104.819 124.757 104.819C124.261 104.819 123.829 104.739 123.461 104.579C123.101 104.419 122.797 104.195 122.549 103.907C122.301 103.619 122.113 103.275 121.985 102.875C121.865 102.475 121.797 102.039 121.781 101.567C121.781 101.095 121.853 100.663 121.997 100.271C122.141 99.8786 122.341 99.5386 122.597 99.2506C122.861 98.9626 123.169 98.7386 123.521 98.5786C123.881 98.4186 124.273 98.3386 124.697 98.3386C125.249 98.3386 125.705 98.4546 126.065 98.6866C126.433 98.9106 126.725 99.1986 126.941 99.5506C127.165 99.9026 127.317 100.287 127.397 100.703C127.485 101.119 127.521 101.515 127.505 101.891H122.861C122.853 102.163 122.885 102.423 122.957 102.671C123.029 102.911 123.145 103.127 123.305 103.319C123.465 103.503 123.669 103.651 123.917 103.763C124.165 103.875 124.457 103.931 124.793 103.931C125.225 103.931 125.577 103.831 125.849 103.631C126.129 103.431 126.313 103.127 126.401 102.719H127.409ZM128.526 98.4826H129.486V99.7906H129.51C129.758 99.2866 130.062 98.9146 130.422 98.6746C130.782 98.4346 131.238 98.3226 131.79 98.3386V99.4186C131.382 99.4186 131.034 99.4746 130.746 99.5866C130.458 99.6986 130.226 99.8626 130.05 100.079C129.874 100.295 129.746 100.559 129.666 100.871C129.586 101.175 129.546 101.527 129.546 101.927V104.687H128.526V98.4826ZM132.769 98.4826H133.729V99.4666H133.753C134.177 98.7146 134.849 98.3386 135.769 98.3386C136.177 98.3386 136.517 98.3946 136.789 98.5066C137.061 98.6186 137.281 98.7746 137.449 98.9746C137.617 99.1746 137.733 99.4146 137.797 99.6946C137.869 99.9666 137.905 100.271 137.905 100.607V104.687H136.885V100.487C136.885 100.103 136.773 99.7986 136.549 99.5746C136.325 99.3506 136.017 99.2386 135.625 99.2386C135.313 99.2386 135.041 99.2866 134.809 99.3826C134.585 99.4786 134.397 99.6146 134.245 99.7906C134.093 99.9666 133.977 100.175 133.897 100.415C133.825 100.647 133.789 100.903 133.789 101.183V104.687H132.769V98.4826Z" fill="#0A0909"/>
<g clip-path="url(#clip0_0_2581)">
<mask id="mask0_0_2581" style="mask-type:luminance" maskUnits="userSpaceOnUse" x="49" y="114" width="312" height="45">
<path d="M360.164 114.209H49.3134V158.239H360.164V114.209Z" fill="white"/>
</mask>
<g mask="url(#mask0_0_2581)">
<path d="M55.1134 114.5H87.5903C90.6331 114.5 93.0998 116.964 93.0998 120.003V152.446C93.0998 155.486 90.6331 157.95 87.5903 157.95H55.1134C52.0706 157.95 49.6039 155.486 49.6039 152.446V120.003C49.6039 116.964 52.0706 114.5 55.1134 114.5Z" fill="white"/>
<path d="M55.1134 114.5H87.5903C90.6331 114.5 93.0998 116.964 93.0998 120.003V152.446C93.0998 155.486 90.6331 157.95 87.5903 157.95H55.1134C52.0706 157.95 49.6039 155.486 49.6039 152.446V120.003C49.6039 116.964 52.0706 114.5 55.1134 114.5Z" stroke="#CDD0DB" stroke-width="0.880597"/>
<path d="M80.9207 125.797H79.1808C78.7004 125.797 78.3109 126.186 78.3109 126.666V128.404C78.3109 128.884 78.7004 129.273 79.1808 129.273H80.9207C81.4011 129.273 81.7906 128.884 81.7906 128.404V126.666C81.7906 126.186 81.4011 125.797 80.9207 125.797Z" fill="#0A0909"/>
<path d="M61.7821 132.749H63.522C63.7527 132.749 63.974 132.657 64.1371 132.495C64.3003 132.332 64.3919 132.11 64.3919 131.88V129.273H67.0017C67.2324 129.273 67.4537 129.181 67.6168 129.018C67.7799 128.856 67.8716 128.634 67.8716 128.404V126.666C67.8716 126.435 67.7799 126.214 67.6168 126.051C67.4537 125.888 67.2324 125.797 67.0017 125.797H61.7821C61.5514 125.797 61.3301 125.888 61.167 126.051C61.0039 126.214 60.9122 126.435 60.9122 126.666V131.88C60.9122 132.11 61.0039 132.332 61.167 132.495C61.3301 132.657 61.5514 132.749 61.7821 132.749Z" fill="#0A0909"/>
<path d="M74.8309 140.57C74.8309 140.339 74.7393 140.118 74.5761 139.955C74.413 139.792 74.1917 139.701 73.961 139.701H71.3512V137.094C71.3512 136.863 71.2596 136.642 71.0965 136.479C70.9333 136.316 70.712 136.225 70.4813 136.225H67.8716V133.618C67.8716 133.387 67.7799 133.166 67.6168 133.003C67.4537 132.84 67.2324 132.749 67.0017 132.749H65.2618C65.0311 132.749 64.8098 132.84 64.6467 133.003C64.4835 133.166 64.3919 133.387 64.3919 133.618V136.225H61.7821C61.5514 136.225 61.3301 136.316 61.167 136.479C61.0039 136.642 60.9122 136.863 60.9122 137.094V145.784C60.9122 146.014 61.0039 146.236 61.167 146.398C61.3301 146.561 61.5514 146.653 61.7821 146.653H70.4813C70.712 146.653 70.9333 146.561 71.0965 146.398C71.2596 146.236 71.3512 146.014 71.3512 145.784V143.177H73.961C74.1917 143.177 74.413 143.085 74.5761 142.922C74.7393 142.759 74.8309 142.538 74.8309 142.308V140.57ZM67.8716 143.177H64.3919V139.701H67.8716V143.177Z" fill="#0A0909"/>
<path d="M80.9216 132.749H74.8321V126.666C74.8321 126.435 74.7405 126.214 74.5774 126.051C74.4142 125.888 74.1929 125.797 73.9622 125.797H72.2224C71.9917 125.797 71.7704 125.888 71.6072 126.051C71.4441 126.214 71.3525 126.435 71.3525 126.666V129.273H68.7427C68.512 129.273 68.2907 129.365 68.1276 129.527C67.9644 129.69 67.8728 129.912 67.8728 130.142V131.88C67.8728 132.11 67.9644 132.332 68.1276 132.495C68.2907 132.657 68.512 132.749 68.7427 132.749H71.3525V135.356C71.3525 135.587 71.4441 135.808 71.6072 135.971C71.7704 136.134 71.9917 136.225 72.2224 136.225H74.8321V138.832C74.8321 139.063 74.9238 139.284 75.0869 139.447C75.2501 139.61 75.4714 139.701 75.7021 139.701H78.3118V143.177H75.7021C75.4714 143.177 75.2501 143.269 75.0869 143.432C74.9238 143.595 74.8321 143.816 74.8321 144.046V145.784C74.8321 146.015 74.9238 146.236 75.0869 146.399C75.2501 146.562 75.4714 146.653 75.7021 146.653H80.9216C81.1523 146.653 81.3736 146.562 81.5367 146.399C81.6999 146.236 81.7915 146.015 81.7915 145.784V133.618C81.7915 133.388 81.6999 133.166 81.5367 133.004C81.3736 132.841 81.1523 132.749 80.9216 132.749Z" fill="#0A0909"/>
<path d="M108.469 114.5H140.946C143.988 114.5 146.455 116.964 146.455 120.003V152.446C146.455 155.486 143.988 157.95 140.946 157.95H108.469C105.426 157.95 102.959 155.486 102.959 152.446V120.003C102.959 116.964 105.426 114.5 108.469 114.5Z" fill="white"/>
<path d="M108.469 114.5H140.946C143.988 114.5 146.455 116.964 146.455 120.003V152.446C146.455 155.486 143.988 157.95 140.946 157.95H108.469C105.426 157.95 102.959 155.486 102.959 152.446V120.003C102.959 116.964 105.426 114.5 108.469 114.5Z" stroke="#CDD0DB" stroke-width="0.880597"/>
<path d="M119.487 136.225C120.448 136.225 121.227 135.447 121.227 134.487C121.227 133.527 120.448 132.749 119.487 132.749C118.526 132.749 117.747 133.527 117.747 134.487C117.747 135.447 118.526 136.225 119.487 136.225Z" fill="#0A0909"/>
<path d="M122.966 139.701C123.927 139.701 124.706 138.923 124.706 137.963C124.706 137.003 123.927 136.225 122.966 136.225C122.005 136.225 121.226 137.003 121.226 137.963C121.226 138.923 122.005 139.701 122.966 139.701Z" fill="#0A0909"/>
<path d="M119.487 139.701C120.448 139.701 121.227 138.923 121.227 137.963C121.227 137.003 120.448 136.225 119.487 136.225C118.526 136.225 117.747 137.003 117.747 137.963C117.747 138.923 118.526 139.701 119.487 139.701Z" fill="#0A0909"/>
<path d="M116.007 139.701C116.968 139.701 117.747 138.923 117.747 137.963C117.747 137.003 116.968 136.225 116.007 136.225C115.046 136.225 114.267 137.003 114.267 137.963C114.267 138.923 115.046 139.701 116.007 139.701Z" fill="#0A0909"/>
<path d="M122.966 146.653C123.927 146.653 124.706 145.875 124.706 144.915C124.706 143.955 123.927 143.177 122.966 143.177C122.005 143.177 121.226 143.955 121.226 144.915C121.226 145.875 122.005 146.653 122.966 146.653Z" fill="#0A0909"/>
<path d="M119.487 146.653C120.448 146.653 121.227 145.875 121.227 144.915C121.227 143.955 120.448 143.177 119.487 143.177C118.526 143.177 117.747 143.955 117.747 144.915C117.747 145.875 118.526 146.653 119.487 146.653Z" fill="#0A0909"/>
<path d="M116.007 146.653C116.968 146.653 117.747 145.875 117.747 144.915C117.747 143.955 116.968 143.177 116.007 143.177C115.046 143.177 114.267 143.955 114.267 144.915C114.267 145.875 115.046 146.653 116.007 146.653Z" fill="#0A0909"/>
<path d="M122.966 143.177C123.927 143.177 124.706 142.399 124.706 141.439C124.706 140.479 123.927 139.701 122.966 139.701C122.005 139.701 121.226 140.479 121.226 141.439C121.226 142.399 122.005 143.177 122.966 143.177Z" fill="#0A0909"/>
<path d="M116.007 143.177C116.968 143.177 117.747 142.399 117.747 141.439C117.747 140.479 116.968 139.701 116.007 139.701C115.046 139.701 114.267 140.479 114.267 141.439C114.267 142.399 115.046 143.177 116.007 143.177Z" fill="#0A0909"/>
<path d="M122.966 132.749C123.927 132.749 124.706 131.971 124.706 131.011C124.706 130.051 123.927 129.273 122.966 129.273C122.005 129.273 121.226 130.051 121.226 131.011C121.226 131.971 122.005 132.749 122.966 132.749Z" fill="#0A0909"/>
<path d="M126.447 129.273C127.408 129.273 128.187 128.495 128.187 127.535C128.187 126.575 127.408 125.797 126.447 125.797C125.486 125.797 124.707 126.575 124.707 127.535C124.707 128.495 125.486 129.273 126.447 129.273Z" fill="#0A0909"/>
<path d="M126.447 132.749C127.408 132.749 128.187 131.971 128.187 131.011C128.187 130.051 127.408 129.273 126.447 129.273C125.486 129.273 124.707 130.051 124.707 131.011C124.707 131.971 125.486 132.749 126.447 132.749Z" fill="#0A0909"/>
<path d="M126.447 136.225C127.408 136.225 128.187 135.447 128.187 134.487C128.187 133.527 127.408 132.749 126.447 132.749C125.486 132.749 124.707 133.527 124.707 134.487C124.707 135.447 125.486 136.225 126.447 136.225Z" fill="#0A0909"/>
<path d="M129.927 136.225C130.888 136.225 131.666 135.447 131.666 134.487C131.666 133.527 130.888 132.749 129.927 132.749C128.966 132.749 128.187 133.527 128.187 134.487C128.187 135.447 128.966 136.225 129.927 136.225Z" fill="#0A0909"/>
<path d="M133.406 129.273C134.367 129.273 135.146 128.495 135.146 127.535C135.146 126.575 134.367 125.797 133.406 125.797C132.445 125.797 131.666 126.575 131.666 127.535C131.666 128.495 132.445 129.273 133.406 129.273Z" fill="#0A0909"/>
<path d="M133.406 136.225C134.367 136.225 135.146 135.447 135.146 134.487C135.146 133.527 134.367 132.749 133.406 132.749C132.445 132.749 131.666 133.527 131.666 134.487C131.666 135.447 132.445 136.225 133.406 136.225Z" fill="#0A0909"/>
<path d="M133.406 139.701C134.367 139.701 135.146 138.923 135.146 137.963C135.146 137.003 134.367 136.225 133.406 136.225C132.445 136.225 131.666 137.003 131.666 137.963C131.666 138.923 132.445 139.701 133.406 139.701Z" fill="#0A0909"/>
<path d="M116.007 132.749C116.968 132.749 117.747 131.971 117.747 131.011C117.747 130.051 116.968 129.273 116.007 129.273C115.046 129.273 114.267 130.051 114.267 131.011C114.267 131.971 115.046 132.749 116.007 132.749Z" fill="#0A0909"/>
<path d="M116.007 129.273C116.968 129.273 117.747 128.495 117.747 127.535C117.747 126.575 116.968 125.797 116.007 125.797C115.046 125.797 114.267 126.575 114.267 127.535C114.267 128.495 115.046 129.273 116.007 129.273Z" fill="#0A0909"/>
<path d="M119.487 129.273C120.448 129.273 121.227 128.495 121.227 127.535C121.227 126.575 120.448 125.797 119.487 125.797C118.526 125.797 117.747 126.575 117.747 127.535C117.747 128.495 118.526 129.273 119.487 129.273Z" fill="#0A0909"/>
<path d="M126.447 143.177C127.408 143.177 128.187 142.399 128.187 141.439C128.187 140.479 127.408 139.701 126.447 139.701C125.486 139.701 124.707 140.479 124.707 141.439C124.707 142.399 125.486 143.177 126.447 143.177Z" fill="#0A0909"/>
<path d="M129.927 139.701C130.888 139.701 131.666 138.923 131.666 137.963C131.666 137.003 130.888 136.225 129.927 136.225C128.966 136.225 128.187 137.003 128.187 137.963C128.187 138.923 128.966 139.701 129.927 139.701Z" fill="#0A0909"/>
<path d="M133.406 143.177C134.367 143.177 135.146 142.399 135.146 141.439C135.146 140.479 134.367 139.701 133.406 139.701C132.445 139.701 131.666 140.479 131.666 141.439C131.666 142.399 132.445 143.177 133.406 143.177Z" fill="#0A0909"/>
<path d="M133.406 146.653C134.367 146.653 135.146 145.875 135.146 144.915C135.146 143.955 134.367 143.177 133.406 143.177C132.445 143.177 131.666 143.955 131.666 144.915C131.666 145.875 132.445 146.653 133.406 146.653Z" fill="#0A0909"/>
<path d="M129.927 146.653C130.888 146.653 131.666 145.875 131.666 144.915C131.666 143.955 130.888 143.177 129.927 143.177C128.966 143.177 128.187 143.955 128.187 144.915C128.187 145.875 128.966 146.653 129.927 146.653Z" fill="#0A0909"/>
<path d="M161.824 114.5H194.301C197.344 114.5 199.81 116.964 199.81 120.003V152.446C199.81 155.486 197.344 157.95 194.301 157.95H161.824C158.781 157.95 156.314 155.486 156.314 152.446V120.003C156.314 116.964 158.781 114.5 161.824 114.5Z" fill="white"/>
<path d="M161.824 114.5H194.301C197.344 114.5 199.81 116.964 199.81 120.003V152.446C199.81 155.486 197.344 157.95 194.301 157.95H161.824C158.781 157.95 156.314 155.486 156.314 152.446V120.003C156.314 116.964 158.781 114.5 161.824 114.5Z" stroke="#CDD0DB" stroke-width="0.880597"/>
<path d="M181.541 132.749V125.797H178.931C178.7 125.797 178.479 125.888 178.316 126.051C178.153 126.214 178.061 126.435 178.061 126.666V129.273H175.451C175.221 129.273 175 129.365 174.836 129.527C174.673 129.69 174.582 129.912 174.582 130.142V132.749H178.061V136.225H181.541V139.701H185.021V143.177H182.411C182.18 143.177 181.959 143.269 181.795 143.432C181.633 143.595 181.541 143.816 181.541 144.046V146.653H187.63C187.861 146.653 188.082 146.562 188.246 146.399C188.409 146.236 188.5 146.015 188.5 145.784V132.749H181.541Z" fill="#0A0909"/>
<path d="M185.891 125.797C185.66 125.797 185.44 125.888 185.276 126.051C185.113 126.214 185.021 126.435 185.021 126.666V129.273H187.631C187.862 129.273 188.083 129.181 188.246 129.018C188.409 128.856 188.501 128.634 188.501 128.404V125.797H185.891Z" fill="#0A0909"/>
<path d="M171.102 131.88V129.273H173.712C173.943 129.273 174.164 129.181 174.327 129.018C174.49 128.856 174.582 128.634 174.582 128.404V125.797H168.493C168.262 125.797 168.041 125.888 167.877 126.051C167.714 126.214 167.623 126.435 167.623 126.666V132.749H170.232C170.463 132.749 170.684 132.657 170.848 132.495C171.011 132.332 171.102 132.11 171.102 131.88Z" fill="#0A0909"/>
<path d="M178.062 136.225H174.582V132.749H171.972C171.741 132.749 171.52 132.84 171.357 133.003C171.194 133.166 171.102 133.387 171.102 133.618V136.225H168.493C168.262 136.225 168.041 136.316 167.877 136.479C167.714 136.642 167.623 136.863 167.623 137.094V146.653H177.192C177.423 146.653 177.644 146.561 177.807 146.398C177.97 146.236 178.062 146.014 178.062 145.784V143.177H180.671C180.902 143.177 181.123 143.085 181.287 142.922C181.45 142.759 181.541 142.538 181.541 142.308V139.701H178.062V136.225ZM174.582 143.177H171.102V139.701H174.582V143.177Z" fill="#0A0909"/>
<path d="M215.179 114.5H247.656C250.699 114.5 253.165 116.964 253.165 120.003V152.446C253.165 155.486 250.699 157.95 247.656 157.95H215.179C212.136 157.95 209.67 155.486 209.67 152.446V120.003C209.67 116.964 212.136 114.5 215.179 114.5Z" fill="white"/>
<path d="M215.179 114.5H247.656C250.699 114.5 253.165 116.964 253.165 120.003V152.446C253.165 155.486 250.699 157.95 247.656 157.95H215.179C212.136 157.95 209.67 155.486 209.67 152.446V120.003C209.67 116.964 212.136 114.5 215.179 114.5Z" stroke="#CDD0DB" stroke-width="0.880597"/>
<path d="M234.857 132.749C234.896 132.606 234.896 125.797 234.896 125.797H234.026C233.334 125.797 232.67 126.072 232.181 126.561C231.691 127.049 231.416 127.713 231.416 128.404V129.273H230.547C229.855 129.273 229.191 129.548 228.701 130.037C228.212 130.525 227.937 131.189 227.937 131.88V132.749H231.416V136.225H234.896V139.701H238.376V143.177H237.506C236.814 143.177 236.15 143.452 235.66 143.941C235.171 144.43 234.896 145.093 234.896 145.784V146.653H239.246C239.938 146.653 240.602 146.379 241.091 145.89C241.581 145.401 241.855 144.738 241.855 144.046V132.749H234.857Z" fill="#0A0909"/>
<path d="M240.986 125.797C240.294 125.797 239.63 126.072 239.141 126.561C238.651 127.049 238.377 127.713 238.377 128.404V129.273H239.247C239.938 129.273 240.602 128.998 241.092 128.509C241.581 128.021 241.856 127.357 241.856 126.666V125.797H240.986Z" fill="#0A0909"/>
<path d="M224.458 130.142V129.273H225.327C226.019 129.273 226.683 128.998 227.173 128.509C227.662 128.021 227.937 127.357 227.937 126.666V125.797H223.588C222.896 125.797 222.232 126.072 221.742 126.561C221.253 127.049 220.978 127.713 220.978 128.404V132.749H221.848C222.54 132.749 223.204 132.474 223.693 131.985C224.183 131.497 224.458 130.833 224.458 130.142Z" fill="#0A0909"/>
<path d="M231.417 136.225H227.937V132.749H227.067C226.375 132.749 225.711 133.024 225.222 133.512C224.732 134.001 224.458 134.664 224.458 135.356V136.225H223.588C222.896 136.225 222.232 136.5 221.742 136.988C221.253 137.477 220.978 138.14 220.978 138.832V146.653H228.807C229.499 146.653 230.163 146.378 230.653 145.889C231.142 145.401 231.417 144.737 231.417 144.046V143.177H232.287C232.979 143.177 233.643 142.902 234.132 142.413C234.622 141.924 234.897 141.261 234.897 140.57V139.701H231.417V136.225ZM224.458 143.177V139.701H227.937V143.177H224.458Z" fill="#0A0909"/>
<path d="M268.533 114.5H301.009C304.052 114.5 306.519 116.964 306.519 120.003V152.446C306.519 155.486 304.052 157.95 301.009 157.95H268.533C265.49 157.95 263.023 155.486 263.023 152.446V120.003C263.023 116.964 265.49 114.5 268.533 114.5Z" fill="white"/>
<path d="M268.533 114.5H301.009C304.052 114.5 306.519 116.964 306.519 120.003V152.446C306.519 155.486 304.052 157.95 301.009 157.95H268.533C265.49 157.95 263.023 155.486 263.023 152.446V120.003C263.023 116.964 265.49 114.5 268.533 114.5Z" stroke="#CDD0DB" stroke-width="0.880597"/>
<path d="M288.251 132.749V125.797H284.772V129.273H281.292V132.749H284.772V136.225H288.251V139.701H291.731V143.177H288.251V146.653H295.211V132.749H288.251Z" fill="#0A0909"/>
<path d="M281.292 129.273V125.797H274.333V132.749H277.813V129.273H281.292Z" fill="#0A0909"/>
<path d="M284.772 139.701V136.225H281.292V132.749H277.813V136.225H274.333V146.653H284.772V143.177H288.252V139.701H284.772ZM281.292 143.177H277.813V139.701H281.292V143.177Z" fill="#0A0909"/>
</g>
</g>
<rect x="49.3134" y="165.284" width="236" height="3.52236" rx="1.76118" fill="#F5F6FB"/>
<rect x="49.3134" y="165.284" width="22.6243" height="3.52239" rx="1.76119" fill="#D3D8EB"/>
<path d="M50.2374 202.417H51.4494L55.9614 209.365H55.9854V202.417H57.0654V210.985H55.8174L51.3414 204.109H51.3174V210.985H50.2374V202.417ZM64.2375 210.961C64.0615 211.065 63.8175 211.117 63.5055 211.117C63.2415 211.117 63.0295 211.045 62.8695 210.901C62.7175 210.749 62.6415 210.505 62.6415 210.169C62.3615 210.505 62.0335 210.749 61.6575 210.901C61.2895 211.045 60.8895 211.117 60.4575 211.117C60.1775 211.117 59.9095 211.085 59.6535 211.021C59.4055 210.957 59.1895 210.857 59.0055 210.721C58.8215 210.585 58.6735 210.409 58.5615 210.193C58.4575 209.969 58.4055 209.701 58.4055 209.389C58.4055 209.037 58.4655 208.749 58.5855 208.525C58.7055 208.301 58.8615 208.121 59.0535 207.985C59.2535 207.841 59.4775 207.733 59.7255 207.661C59.9815 207.589 60.2415 207.529 60.5055 207.481C60.7855 207.425 61.0495 207.385 61.2975 207.361C61.5535 207.329 61.7775 207.289 61.9695 207.241C62.1615 207.185 62.3135 207.109 62.4255 207.013C62.5375 206.909 62.5935 206.761 62.5935 206.569C62.5935 206.345 62.5495 206.165 62.4615 206.029C62.3815 205.893 62.2735 205.789 62.1375 205.717C62.0095 205.645 61.8615 205.597 61.6935 205.573C61.5335 205.549 61.3735 205.537 61.2135 205.537C60.7815 205.537 60.4215 205.621 60.1335 205.789C59.8455 205.949 59.6895 206.257 59.6655 206.713H58.6455C58.6615 206.329 58.7415 206.005 58.8855 205.741C59.0295 205.477 59.2215 205.265 59.4615 205.105C59.7015 204.937 59.9735 204.817 60.2775 204.745C60.5895 204.673 60.9215 204.637 61.2735 204.637C61.5535 204.637 61.8295 204.657 62.1015 204.697C62.3815 204.737 62.6335 204.821 62.8575 204.949C63.0815 205.069 63.2615 205.241 63.3975 205.465C63.5335 205.689 63.6015 205.981 63.6015 206.341V209.533C63.6015 209.773 63.6135 209.949 63.6375 210.061C63.6695 210.173 63.7655 210.229 63.9255 210.229C64.0135 210.229 64.1175 210.209 64.2375 210.169V210.961ZM62.5815 207.781C62.4535 207.877 62.2855 207.949 62.0775 207.997C61.8695 208.037 61.6495 208.073 61.4175 208.105C61.1935 208.129 60.9655 208.161 60.7335 208.201C60.5015 208.233 60.2935 208.289 60.1095 208.369C59.9255 208.449 59.7735 208.565 59.6535 208.717C59.5415 208.861 59.4855 209.061 59.4855 209.317C59.4855 209.485 59.5175 209.629 59.5815 209.749C59.6535 209.861 59.7415 209.953 59.8455 210.025C59.9575 210.097 60.0855 210.149 60.2295 210.181C60.3735 210.213 60.5255 210.229 60.6855 210.229C61.0215 210.229 61.3095 210.185 61.5495 210.097C61.7895 210.001 61.9855 209.885 62.1375 209.749C62.2895 209.605 62.4015 209.453 62.4735 209.293C62.5455 209.125 62.5815 208.969 62.5815 208.825V207.781ZM65.1868 204.781H66.1468V205.693H66.1708C66.6348 204.989 67.3028 204.637 68.1748 204.637C68.5588 204.637 68.9068 204.717 69.2188 204.877C69.5308 205.037 69.7508 205.309 69.8788 205.693C70.0868 205.357 70.3588 205.097 70.6948 204.913C71.0388 204.729 71.4148 204.637 71.8228 204.637C72.1348 204.637 72.4148 204.673 72.6628 204.745C72.9188 204.809 73.1348 204.913 73.3108 205.057C73.4948 205.201 73.6348 205.389 73.7308 205.621C73.8348 205.845 73.8868 206.117 73.8868 206.437V210.985H72.8668V206.917C72.8668 206.725 72.8508 206.545 72.8188 206.377C72.7868 206.209 72.7268 206.065 72.6388 205.945C72.5508 205.817 72.4268 205.717 72.2668 205.645C72.1148 205.573 71.9148 205.537 71.6668 205.537C71.1628 205.537 70.7668 205.681 70.4788 205.969C70.1908 206.257 70.0468 206.641 70.0468 207.121V210.985H69.0268V206.917C69.0268 206.717 69.0068 206.533 68.9668 206.365C68.9348 206.197 68.8748 206.053 68.7868 205.933C68.6988 205.805 68.5788 205.709 68.4268 205.645C68.2828 205.573 68.0948 205.537 67.8628 205.537C67.5668 205.537 67.3108 205.597 67.0948 205.717C66.8868 205.837 66.7148 205.981 66.5788 206.149C66.4508 206.317 66.3548 206.493 66.2908 206.677C66.2348 206.853 66.2068 207.001 66.2068 207.121V210.985H65.1868V204.781ZM79.7253 207.289C79.7093 207.049 79.6533 206.821 79.5573 206.605C79.4693 206.389 79.3453 206.205 79.1853 206.053C79.0333 205.893 78.8493 205.769 78.6333 205.681C78.4253 205.585 78.1933 205.537 77.9373 205.537C77.6733 205.537 77.4333 205.585 77.2173 205.681C77.0093 205.769 76.8293 205.893 76.6773 206.053C76.5253 206.213 76.4053 206.401 76.3173 206.617C76.2293 206.825 76.1773 207.049 76.1613 207.289H79.7253ZM80.7093 209.017C80.5733 209.713 80.2733 210.237 79.8093 210.589C79.3453 210.941 78.7613 211.117 78.0573 211.117C77.5613 211.117 77.1293 211.037 76.7613 210.877C76.4013 210.717 76.0973 210.493 75.8493 210.205C75.6013 209.917 75.4133 209.573 75.2853 209.173C75.1653 208.773 75.0973 208.337 75.0813 207.865C75.0813 207.393 75.1533 206.961 75.2973 206.569C75.4413 206.177 75.6413 205.837 75.8973 205.549C76.1613 205.261 76.4693 205.037 76.8213 204.877C77.1813 204.717 77.5733 204.637 77.9973 204.637C78.5493 204.637 79.0053 204.753 79.3653 204.985C79.7333 205.209 80.0253 205.497 80.2413 205.849C80.4653 206.201 80.6173 206.585 80.6973 207.001C80.7853 207.417 80.8213 207.813 80.8053 208.189H76.1613C76.1533 208.461 76.1853 208.721 76.2573 208.969C76.3293 209.209 76.4453 209.425 76.6053 209.617C76.7653 209.801 76.9693 209.949 77.2173 210.061C77.4653 210.173 77.7573 210.229 78.0933 210.229C78.5253 210.229 78.8773 210.129 79.1493 209.929C79.4293 209.729 79.6133 209.425 79.7013 209.017H80.7093ZM87.6384 211.813C87.5184 212.117 87.3984 212.373 87.2784 212.581C87.1664 212.789 87.0384 212.957 86.8944 213.085C86.7584 213.221 86.6024 213.317 86.4264 213.373C86.2584 213.437 86.0624 213.469 85.8384 213.469C85.7184 213.469 85.5984 213.461 85.4784 213.445C85.3584 213.429 85.2424 213.401 85.1304 213.361V212.425C85.2184 212.465 85.3184 212.497 85.4304 212.521C85.5504 212.553 85.6504 212.569 85.7304 212.569C85.9384 212.569 86.1104 212.517 86.2464 212.413C86.3904 212.317 86.4984 212.177 86.5704 211.993L86.9904 210.949L84.5304 204.781H85.6824L87.4944 209.857H87.5184L89.2584 204.781H90.3384L87.6384 211.813ZM91.9464 207.889C91.9464 208.265 91.9944 208.601 92.0904 208.897C92.1944 209.185 92.3344 209.429 92.5104 209.629C92.6864 209.821 92.8904 209.969 93.1224 210.073C93.3624 210.177 93.6144 210.229 93.8784 210.229C94.1424 210.229 94.3904 210.177 94.6224 210.073C94.8624 209.969 95.0704 209.821 95.2464 209.629C95.4224 209.429 95.5584 209.185 95.6544 208.897C95.7584 208.601 95.8104 208.265 95.8104 207.889C95.8104 207.513 95.7584 207.181 95.6544 206.893C95.5584 206.597 95.4224 206.349 95.2464 206.149C95.0704 205.949 94.8624 205.797 94.6224 205.693C94.3904 205.589 94.1424 205.537 93.8784 205.537C93.6144 205.537 93.3624 205.589 93.1224 205.693C92.8904 205.797 92.6864 205.949 92.5104 206.149C92.3344 206.349 92.1944 206.597 92.0904 206.893C91.9944 207.181 91.9464 207.513 91.9464 207.889ZM90.8664 207.889C90.8664 207.433 90.9304 207.009 91.0584 206.617C91.1864 206.217 91.3784 205.873 91.6344 205.585C91.8904 205.289 92.2064 205.057 92.5824 204.889C92.9584 204.721 93.3904 204.637 93.8784 204.637C94.3744 204.637 94.8064 204.721 95.1744 204.889C95.5504 205.057 95.8664 205.289 96.1224 205.585C96.3784 205.873 96.5704 206.217 96.6984 206.617C96.8264 207.009 96.8904 207.433 96.8904 207.889C96.8904 208.345 96.8264 208.769 96.6984 209.161C96.5704 209.553 96.3784 209.897 96.1224 210.193C95.8664 210.481 95.5504 210.709 95.1744 210.877C94.8064 211.037 94.3744 211.117 93.8784 211.117C93.3904 211.117 92.9584 211.037 92.5824 210.877C92.2064 210.709 91.8904 210.481 91.6344 210.193C91.3784 209.897 91.1864 209.553 91.0584 209.161C90.9304 208.769 90.8664 208.345 90.8664 207.889ZM103.229 210.985H102.269V210.001H102.245C102.029 210.385 101.753 210.669 101.417 210.853C101.081 211.029 100.685 211.117 100.229 211.117C99.8211 211.117 99.4811 211.065 99.2091 210.961C98.9371 210.849 98.7171 210.693 98.5491 210.493C98.3811 210.293 98.2611 210.057 98.1891 209.785C98.1251 209.505 98.0931 209.197 98.0931 208.861V204.781H99.1131V208.981C99.1131 209.365 99.2251 209.669 99.4491 209.893C99.6731 210.117 99.9811 210.229 100.373 210.229C100.685 210.229 100.953 210.181 101.177 210.085C101.409 209.989 101.601 209.853 101.753 209.677C101.905 209.501 102.017 209.297 102.089 209.065C102.169 208.825 102.209 208.565 102.209 208.285V204.781H103.229V210.985ZM104.725 204.781H105.685V206.089H105.709C105.957 205.585 106.261 205.213 106.621 204.973C106.981 204.733 107.437 204.621 107.989 204.637V205.717C107.581 205.717 107.233 205.773 106.945 205.885C106.657 205.997 106.425 206.161 106.249 206.377C106.073 206.593 105.945 206.857 105.865 207.169C105.785 207.473 105.745 207.825 105.745 208.225V210.985H104.725V204.781ZM116.729 208.537L117.869 209.449C118.205 209.113 118.453 208.705 118.613 208.225C118.773 207.737 118.853 207.229 118.853 206.701C118.853 206.269 118.797 205.845 118.685 205.429C118.573 205.005 118.397 204.625 118.157 204.289C117.917 203.953 117.609 203.685 117.233 203.485C116.857 203.277 116.409 203.173 115.889 203.173C115.369 203.173 114.921 203.277 114.545 203.485C114.169 203.685 113.861 203.953 113.621 204.289C113.381 204.625 113.205 205.005 113.093 205.429C112.981 205.845 112.925 206.269 112.925 206.701C112.925 207.133 112.981 207.561 113.093 207.985C113.205 208.401 113.381 208.777 113.621 209.113C113.861 209.449 114.169 209.721 114.545 209.929C114.921 210.129 115.369 210.229 115.889 210.229C116.297 210.229 116.693 210.149 117.077 209.989L116.129 209.233L116.729 208.537ZM119.249 211.717L117.941 210.673C117.365 211.009 116.681 211.177 115.889 211.177C115.209 211.177 114.613 211.057 114.101 210.817C113.589 210.569 113.161 210.237 112.817 209.821C112.473 209.405 112.213 208.929 112.037 208.393C111.869 207.849 111.785 207.285 111.785 206.701C111.785 206.117 111.869 205.557 112.037 205.021C112.213 204.477 112.473 203.997 112.817 203.581C113.161 203.165 113.589 202.833 114.101 202.585C114.613 202.337 115.209 202.213 115.889 202.213C116.569 202.213 117.165 202.337 117.677 202.585C118.189 202.833 118.617 203.165 118.961 203.581C119.305 203.997 119.561 204.477 119.729 205.021C119.905 205.557 119.993 206.117 119.993 206.701C119.993 207.357 119.885 207.981 119.669 208.573C119.453 209.165 119.129 209.677 118.697 210.109L119.825 210.997L119.249 211.717ZM121.382 202.417H125.414C126.23 202.417 126.866 202.617 127.322 203.017C127.786 203.417 128.018 203.965 128.018 204.661C128.018 205.181 127.898 205.637 127.658 206.029C127.426 206.421 127.05 206.689 126.53 206.833V206.857C126.778 206.905 126.978 206.985 127.13 207.097C127.29 207.209 127.414 207.345 127.502 207.505C127.598 207.657 127.666 207.829 127.706 208.021C127.754 208.213 127.79 208.413 127.814 208.621C127.83 208.829 127.842 209.041 127.85 209.257C127.858 209.473 127.878 209.685 127.91 209.893C127.942 210.101 127.986 210.301 128.042 210.493C128.106 210.677 128.198 210.841 128.318 210.985H127.046C126.966 210.897 126.91 210.777 126.878 210.625C126.854 210.473 126.838 210.305 126.83 210.121C126.822 209.929 126.814 209.725 126.806 209.509C126.798 209.293 126.774 209.081 126.734 208.873C126.702 208.665 126.662 208.469 126.614 208.285C126.566 208.093 126.49 207.929 126.386 207.793C126.282 207.649 126.146 207.537 125.978 207.457C125.81 207.369 125.586 207.325 125.306 207.325H122.522V210.985H121.382V202.417ZM124.898 206.365C125.162 206.365 125.414 206.345 125.654 206.305C125.894 206.265 126.102 206.189 126.278 206.077C126.462 205.957 126.606 205.801 126.71 205.609C126.822 205.409 126.878 205.153 126.878 204.841C126.878 204.409 126.758 204.057 126.518 203.785C126.278 203.513 125.89 203.377 125.354 203.377H122.522V206.365H124.898ZM136.981 206.773C136.901 206.381 136.733 206.077 136.477 205.861C136.221 205.645 135.877 205.537 135.445 205.537C135.077 205.537 134.769 205.605 134.521 205.741C134.273 205.877 134.073 206.057 133.921 206.281C133.777 206.505 133.673 206.765 133.609 207.061C133.545 207.349 133.513 207.649 133.513 207.961C133.513 208.249 133.545 208.529 133.609 208.801C133.681 209.073 133.789 209.317 133.933 209.533C134.077 209.741 134.265 209.909 134.497 210.037C134.729 210.165 135.005 210.229 135.325 210.229C135.829 210.229 136.221 210.097 136.501 209.833C136.789 209.569 136.965 209.197 137.029 208.717H138.073C137.961 209.485 137.673 210.077 137.209 210.493C136.753 210.909 136.129 211.117 135.337 211.117C134.865 211.117 134.445 211.041 134.077 210.889C133.717 210.737 133.413 210.521 133.165 210.241C132.925 209.961 132.741 209.629 132.613 209.245C132.493 208.853 132.433 208.425 132.433 207.961C132.433 207.497 132.493 207.065 132.613 206.665C132.733 206.257 132.913 205.905 133.153 205.609C133.401 205.305 133.709 205.069 134.077 204.901C134.445 204.725 134.873 204.637 135.361 204.637C135.713 204.637 136.041 204.681 136.345 204.769C136.657 204.849 136.929 204.977 137.161 205.153C137.401 205.329 137.597 205.553 137.749 205.825C137.901 206.089 137.997 206.405 138.037 206.773H136.981ZM139.958 207.889C139.958 208.265 140.006 208.601 140.102 208.897C140.206 209.185 140.346 209.429 140.522 209.629C140.698 209.821 140.902 209.969 141.134 210.073C141.374 210.177 141.626 210.229 141.89 210.229C142.154 210.229 142.402 210.177 142.634 210.073C142.874 209.969 143.082 209.821 143.258 209.629C143.434 209.429 143.57 209.185 143.666 208.897C143.77 208.601 143.822 208.265 143.822 207.889C143.822 207.513 143.77 207.181 143.666 206.893C143.57 206.597 143.434 206.349 143.258 206.149C143.082 205.949 142.874 205.797 142.634 205.693C142.402 205.589 142.154 205.537 141.89 205.537C141.626 205.537 141.374 205.589 141.134 205.693C140.902 205.797 140.698 205.949 140.522 206.149C140.346 206.349 140.206 206.597 140.102 206.893C140.006 207.181 139.958 207.513 139.958 207.889ZM138.878 207.889C138.878 207.433 138.942 207.009 139.07 206.617C139.198 206.217 139.39 205.873 139.646 205.585C139.902 205.289 140.218 205.057 140.594 204.889C140.97 204.721 141.402 204.637 141.89 204.637C142.386 204.637 142.818 204.721 143.186 204.889C143.562 205.057 143.878 205.289 144.134 205.585C144.39 205.873 144.582 206.217 144.71 206.617C144.838 207.009 144.902 207.433 144.902 207.889C144.902 208.345 144.838 208.769 144.71 209.161C144.582 209.553 144.39 209.897 144.134 210.193C143.878 210.481 143.562 210.709 143.186 210.877C142.818 211.037 142.386 211.117 141.89 211.117C141.402 211.117 140.97 211.037 140.594 210.877C140.218 210.709 139.902 210.481 139.646 210.193C139.39 209.897 139.198 209.553 139.07 209.161C138.942 208.769 138.878 208.345 138.878 207.889ZM146.849 207.937C146.849 208.225 146.885 208.509 146.957 208.789C147.037 209.061 147.153 209.305 147.305 209.521C147.465 209.737 147.665 209.909 147.905 210.037C148.153 210.165 148.441 210.229 148.769 210.229C149.113 210.229 149.405 210.161 149.645 210.025C149.885 209.889 150.081 209.713 150.233 209.497C150.385 209.273 150.493 209.021 150.557 208.741C150.629 208.461 150.665 208.177 150.665 207.889C150.665 207.585 150.629 207.293 150.557 207.013C150.485 206.725 150.369 206.473 150.209 206.257C150.057 206.041 149.857 205.869 149.609 205.741C149.361 205.605 149.061 205.537 148.709 205.537C148.365 205.537 148.073 205.605 147.833 205.741C147.593 205.877 147.401 206.057 147.257 206.281C147.113 206.505 147.009 206.761 146.945 207.049C146.881 207.337 146.849 207.633 146.849 207.937ZM151.649 210.985H150.629V210.145H150.605C150.437 210.489 150.173 210.737 149.813 210.889C149.453 211.041 149.057 211.117 148.625 211.117C148.145 211.117 147.725 211.029 147.365 210.853C147.013 210.677 146.717 210.441 146.477 210.145C146.245 209.849 146.069 209.505 145.949 209.113C145.829 208.721 145.769 208.305 145.769 207.865C145.769 207.425 145.825 207.009 145.937 206.617C146.057 206.225 146.233 205.885 146.465 205.597C146.705 205.301 147.001 205.069 147.353 204.901C147.713 204.725 148.129 204.637 148.601 204.637C148.761 204.637 148.933 204.653 149.117 204.685C149.301 204.717 149.485 204.773 149.669 204.853C149.853 204.925 150.025 205.025 150.185 205.153C150.353 205.273 150.493 205.425 150.605 205.609H150.629V202.417H151.649V210.985ZM157.526 207.289C157.51 207.049 157.454 206.821 157.358 206.605C157.27 206.389 157.146 206.205 156.986 206.053C156.834 205.893 156.65 205.769 156.434 205.681C156.226 205.585 155.994 205.537 155.738 205.537C155.474 205.537 155.234 205.585 155.018 205.681C154.81 205.769 154.63 205.893 154.478 206.053C154.326 206.213 154.206 206.401 154.118 206.617C154.03 206.825 153.978 207.049 153.962 207.289H157.526ZM158.51 209.017C158.374 209.713 158.074 210.237 157.61 210.589C157.146 210.941 156.562 211.117 155.858 211.117C155.362 211.117 154.93 211.037 154.562 210.877C154.202 210.717 153.898 210.493 153.65 210.205C153.402 209.917 153.214 209.573 153.086 209.173C152.966 208.773 152.898 208.337 152.882 207.865C152.882 207.393 152.954 206.961 153.098 206.569C153.242 206.177 153.442 205.837 153.698 205.549C153.962 205.261 154.27 205.037 154.622 204.877C154.982 204.717 155.374 204.637 155.798 204.637C156.35 204.637 156.806 204.753 157.166 204.985C157.534 205.209 157.826 205.497 158.042 205.849C158.266 206.201 158.418 206.585 158.498 207.001C158.586 207.417 158.622 207.813 158.606 208.189H153.962C153.954 208.461 153.986 208.721 154.058 208.969C154.13 209.209 154.246 209.425 154.406 209.617C154.566 209.801 154.77 209.949 155.018 210.061C155.266 210.173 155.558 210.229 155.894 210.229C156.326 210.229 156.678 210.129 156.95 209.929C157.23 209.729 157.414 209.425 157.502 209.017H158.51Z" fill="#0A0909"/>
<rect x="49.7537" y="220.948" width="235.119" height="37.9701" rx="6.60448" stroke="#D3D8EB" stroke-width="0.880597"/>
<path d="M67.5946 238.826L67.267 240.516H68.7147V241.224H67.1296L66.6964 243.433H65.9461L66.3794 241.224H64.8682L64.4561 243.433H63.7164L64.118 241.224H62.7865V240.516H64.2554L64.5935 238.826H63.1775V238.128H64.7203L65.143 235.888H65.9038L65.4811 238.128H67.0028L67.4255 235.888H68.1546L67.732 238.128H69.074V238.826H67.5946ZM65.0056 240.516H66.5167L66.8443 238.826H65.3332L65.0056 240.516ZM74.8805 239.65C74.8805 240.263 74.8347 240.809 74.7431 241.288C74.6515 241.767 74.5036 242.175 74.2993 242.513C74.102 242.845 73.8414 243.098 73.5173 243.274C73.2003 243.45 72.8164 243.538 72.3655 243.538C71.8019 243.538 71.3334 243.383 70.9601 243.074C70.5937 242.764 70.319 242.32 70.1358 241.742C69.9597 241.157 69.8716 240.46 69.8716 239.65C69.8716 238.833 69.9527 238.135 70.1147 237.557C70.2838 236.98 70.5515 236.539 70.9178 236.237C71.2841 235.927 71.7667 235.772 72.3655 235.772C72.9291 235.772 73.3975 235.927 73.7709 236.237C74.1443 236.539 74.4226 236.98 74.6057 237.557C74.7889 238.135 74.8805 238.833 74.8805 239.65ZM70.8015 239.65C70.8015 240.34 70.8509 240.914 70.9495 241.372C71.0552 241.83 71.2207 242.175 71.4461 242.408C71.6786 242.633 71.9851 242.746 72.3655 242.746C72.7459 242.746 73.0488 242.633 73.2743 242.408C73.5067 242.182 73.6758 241.841 73.7815 241.383C73.8872 240.918 73.94 240.34 73.94 239.65C73.94 238.959 73.8872 238.389 73.7815 237.938C73.6758 237.48 73.5067 237.138 73.2743 236.913C73.0488 236.68 72.7459 236.564 72.3655 236.564C71.9851 236.564 71.6786 236.68 71.4461 236.913C71.2207 237.138 71.0552 237.48 70.9495 237.938C70.8509 238.389 70.8015 238.959 70.8015 239.65ZM80.9277 239.65C80.9277 240.263 80.8819 240.809 80.7903 241.288C80.6987 241.767 80.5508 242.175 80.3465 242.513C80.1492 242.845 79.8886 243.098 79.5645 243.274C79.2475 243.45 78.8636 243.538 78.4127 243.538C77.8491 243.538 77.3806 243.383 77.0073 243.074C76.6409 242.764 76.3662 242.32 76.183 241.742C76.0069 241.157 75.9189 240.46 75.9189 239.65C75.9189 238.833 75.9999 238.135 76.1619 237.557C76.331 236.98 76.5987 236.539 76.965 236.237C77.3313 235.927 77.8139 235.772 78.4127 235.772C78.9763 235.772 79.4448 235.927 79.8181 236.237C80.1915 236.539 80.4698 236.98 80.6529 237.557C80.8361 238.135 80.9277 238.833 80.9277 239.65ZM76.8488 239.65C76.8488 240.34 76.8981 240.914 76.9967 241.372C77.1024 241.83 77.2679 242.175 77.4934 242.408C77.7258 242.633 78.0323 242.746 78.4127 242.746C78.7931 242.746 79.0961 242.633 79.3215 242.408C79.554 242.182 79.723 241.841 79.8287 241.383C79.9344 240.918 79.9872 240.34 79.9872 239.65C79.9872 238.959 79.9344 238.389 79.8287 237.938C79.723 237.48 79.554 237.138 79.3215 236.913C79.0961 236.68 78.7931 236.564 78.4127 236.564C78.0323 236.564 77.7258 236.68 77.4934 236.913C77.2679 237.138 77.1024 237.48 76.9967 237.938C76.8981 238.389 76.8488 238.959 76.8488 239.65ZM86.9749 239.65C86.9749 240.263 86.9291 240.809 86.8375 241.288C86.746 241.767 86.598 242.175 86.3937 242.513C86.1965 242.845 85.9358 243.098 85.6118 243.274C85.2947 243.45 84.9108 243.538 84.4599 243.538C83.8964 243.538 83.4279 243.383 83.0545 243.074C82.6882 242.764 82.4134 242.32 82.2303 241.742C82.0541 241.157 81.9661 240.46 81.9661 239.65C81.9661 238.833 82.0471 238.135 82.2091 237.557C82.3782 236.98 82.6459 236.539 83.0122 236.237C83.3786 235.927 83.8611 235.772 84.4599 235.772C85.0235 235.772 85.492 235.927 85.8654 236.237C86.2387 236.539 86.517 236.98 86.7002 237.557C86.8833 238.135 86.9749 238.833 86.9749 239.65ZM82.896 239.65C82.896 240.34 82.9453 240.914 83.0439 241.372C83.1496 241.83 83.3152 242.175 83.5406 242.408C83.7731 242.633 84.0795 242.746 84.4599 242.746C84.8404 242.746 85.1433 242.633 85.3687 242.408C85.6012 242.182 85.7703 241.841 85.8759 241.383C85.9816 240.918 86.0344 240.34 86.0344 239.65C86.0344 238.959 85.9816 238.389 85.8759 237.938C85.7703 237.48 85.6012 237.138 85.3687 236.913C85.1433 236.68 84.8404 236.564 84.4599 236.564C84.0795 236.564 83.7731 236.68 83.5406 236.913C83.3152 237.138 83.1496 237.48 83.0439 237.938C82.9453 238.389 82.896 238.959 82.896 239.65ZM93.0221 239.65C93.0221 240.263 92.9764 240.809 92.8848 241.288C92.7932 241.767 92.6452 242.175 92.4409 242.513C92.2437 242.845 91.983 243.098 91.659 243.274C91.342 243.45 90.958 243.538 90.5072 243.538C89.9436 243.538 89.4751 243.383 89.1017 243.074C88.7354 242.764 88.4607 242.32 88.2775 241.742C88.1014 241.157 88.0133 240.46 88.0133 239.65C88.0133 238.833 88.0943 238.135 88.2564 237.557C88.4254 236.98 88.6931 236.539 89.0595 236.237C89.4258 235.927 89.9084 235.772 90.5072 235.772C91.0707 235.772 91.5392 235.927 91.9126 236.237C92.286 236.539 92.5642 236.98 92.7474 237.557C92.9306 238.135 93.0221 238.833 93.0221 239.65ZM88.9432 239.65C88.9432 240.34 88.9925 240.914 89.0912 241.372C89.1968 241.83 89.3624 242.175 89.5878 242.408C89.8203 242.633 90.1267 242.746 90.5072 242.746C90.8876 242.746 91.1905 242.633 91.4159 242.408C91.6484 242.182 91.8175 241.841 91.9232 241.383C92.0288 240.918 92.0817 240.34 92.0817 239.65C92.0817 238.959 92.0288 238.389 91.9232 237.938C91.8175 237.48 91.6484 237.138 91.4159 236.913C91.1905 236.68 90.8876 236.564 90.5072 236.564C90.1267 236.564 89.8203 236.68 89.5878 236.913C89.3624 237.138 89.1968 237.48 89.0912 237.938C88.9925 238.389 88.9432 238.959 88.9432 239.65ZM99.0694 239.65C99.0694 240.263 99.0236 240.809 98.932 241.288C98.8404 241.767 98.6925 242.175 98.4882 242.513C98.2909 242.845 98.0303 243.098 97.7062 243.274C97.3892 243.45 97.0052 243.538 96.5544 243.538C95.9908 243.538 95.5223 243.383 95.1489 243.074C94.7826 242.764 94.5079 242.32 94.3247 241.742C94.1486 241.157 94.0605 240.46 94.0605 239.65C94.0605 238.833 94.1415 238.135 94.3036 237.557C94.4727 236.98 94.7404 236.539 95.1067 236.237C95.473 235.927 95.9556 235.772 96.5544 235.772C97.118 235.772 97.5864 235.927 97.9598 236.237C98.3332 236.539 98.6115 236.98 98.7946 237.557C98.9778 238.135 99.0694 238.833 99.0694 239.65ZM94.9904 239.65C94.9904 240.34 95.0398 240.914 95.1384 241.372C95.2441 241.83 95.4096 242.175 95.635 242.408C95.8675 242.633 96.174 242.746 96.5544 242.746C96.9348 242.746 97.2377 242.633 97.4632 242.408C97.6956 242.182 97.8647 241.841 97.9704 241.383C98.0761 240.918 98.1289 240.34 98.1289 239.65C98.1289 238.959 98.0761 238.389 97.9704 237.938C97.8647 237.48 97.6956 237.138 97.4632 236.913C97.2377 236.68 96.9348 236.564 96.5544 236.564C96.174 236.564 95.8675 236.68 95.635 236.913C95.4096 237.138 95.2441 237.48 95.1384 237.938C95.0398 238.389 94.9904 238.959 94.9904 239.65ZM105.117 239.65C105.117 240.263 105.071 240.809 104.979 241.288C104.888 241.767 104.74 242.175 104.535 242.513C104.338 242.845 104.077 243.098 103.753 243.274C103.436 243.45 103.052 243.538 102.602 243.538C102.038 243.538 101.57 243.383 101.196 243.074C100.83 242.764 100.555 242.32 100.372 241.742C100.196 241.157 100.108 240.46 100.108 239.65C100.108 238.833 100.189 238.135 100.351 237.557C100.52 236.98 100.788 236.539 101.154 236.237C101.52 235.927 102.003 235.772 102.602 235.772C103.165 235.772 103.634 235.927 104.007 236.237C104.38 236.539 104.659 236.98 104.842 237.557C105.025 238.135 105.117 238.833 105.117 239.65ZM101.038 239.65C101.038 240.34 101.087 240.914 101.186 241.372C101.291 241.83 101.457 242.175 101.682 242.408C101.915 242.633 102.221 242.746 102.602 242.746C102.982 242.746 103.285 242.633 103.51 242.408C103.743 242.182 103.912 241.841 104.018 241.383C104.123 240.918 104.176 240.34 104.176 239.65C104.176 238.959 104.123 238.389 104.018 237.938C103.912 237.48 103.743 237.138 103.51 236.913C103.285 236.68 102.982 236.564 102.602 236.564C102.221 236.564 101.915 236.68 101.682 236.913C101.457 237.138 101.291 237.48 101.186 237.938C101.087 238.389 101.038 238.959 101.038 239.65Z" fill="#0A0909"/>
<rect x="254.492" y="231.127" width="17.6119" height="17.6119" rx="3.52239" fill="#0A0909"/>
<path d="M56.2734 298.34C56.1454 297.732 55.8614 297.276 55.4214 296.972C54.9894 296.668 54.4734 296.516 53.8734 296.516C53.3614 296.516 52.9214 296.612 52.5534 296.804C52.1934 296.996 51.8934 297.256 51.6534 297.584C51.4214 297.904 51.2494 298.272 51.1374 298.688C51.0254 299.104 50.9694 299.536 50.9694 299.984C50.9694 300.472 51.0254 300.936 51.1374 301.376C51.2494 301.808 51.4214 302.188 51.6534 302.516C51.8934 302.836 52.1974 303.092 52.5654 303.284C52.9334 303.476 53.3734 303.572 53.8854 303.572C54.2614 303.572 54.5934 303.512 54.8814 303.392C55.1774 303.264 55.4294 303.092 55.6374 302.876C55.8534 302.652 56.0214 302.388 56.1414 302.084C56.2614 301.78 56.3334 301.452 56.3574 301.1H57.4974C57.3854 302.18 57.0134 303.02 56.3814 303.62C55.7494 304.22 54.8854 304.52 53.7894 304.52C53.1254 304.52 52.5454 304.408 52.0494 304.184C51.5534 303.952 51.1414 303.636 50.8134 303.236C50.4854 302.836 50.2374 302.364 50.0694 301.82C49.9094 301.276 49.8294 300.692 49.8294 300.068C49.8294 299.444 49.9174 298.86 50.0934 298.316C50.2694 297.764 50.5254 297.284 50.8614 296.876C51.2054 296.468 51.6294 296.148 52.1334 295.916C52.6454 295.676 53.2294 295.556 53.8854 295.556C54.3334 295.556 54.7574 295.616 55.1574 295.736C55.5574 295.856 55.9134 296.032 56.2254 296.264C56.5374 296.496 56.7974 296.788 57.0054 297.14C57.2134 297.484 57.3494 297.884 57.4134 298.34H56.2734ZM58.7415 295.76H59.7615V299.036H59.7855C59.8655 298.844 59.9775 298.684 60.1215 298.556C60.2655 298.42 60.4255 298.312 60.6015 298.232C60.7855 298.144 60.9735 298.08 61.1655 298.04C61.3655 298 61.5575 297.98 61.7415 297.98C62.1495 297.98 62.4895 298.036 62.7615 298.148C63.0335 298.26 63.2535 298.416 63.4215 298.616C63.5895 298.816 63.7055 299.056 63.7695 299.336C63.8415 299.608 63.8775 299.912 63.8775 300.248V304.328H62.8575V300.128C62.8575 299.744 62.7455 299.44 62.5215 299.216C62.2975 298.992 61.9895 298.88 61.5975 298.88C61.2855 298.88 61.0135 298.928 60.7815 299.024C60.5575 299.12 60.3695 299.256 60.2175 299.432C60.0655 299.608 59.9495 299.816 59.8695 300.056C59.7975 300.288 59.7615 300.544 59.7615 300.824V304.328H58.7415V295.76ZM66.1535 301.232C66.1535 301.608 66.2015 301.944 66.2975 302.24C66.4015 302.528 66.5415 302.772 66.7175 302.972C66.8935 303.164 67.0975 303.312 67.3295 303.416C67.5695 303.52 67.8215 303.572 68.0855 303.572C68.3495 303.572 68.5975 303.52 68.8295 303.416C69.0695 303.312 69.2775 303.164 69.4535 302.972C69.6295 302.772 69.7655 302.528 69.8615 302.24C69.9655 301.944 70.0175 301.608 70.0175 301.232C70.0175 300.856 69.9655 300.524 69.8615 300.236C69.7655 299.94 69.6295 299.692 69.4535 299.492C69.2775 299.292 69.0695 299.14 68.8295 299.036C68.5975 298.932 68.3495 298.88 68.0855 298.88C67.8215 298.88 67.5695 298.932 67.3295 299.036C67.0975 299.14 66.8935 299.292 66.7175 299.492C66.5415 299.692 66.4015 299.94 66.2975 300.236C66.2015 300.524 66.1535 300.856 66.1535 301.232ZM65.0735 301.232C65.0735 300.776 65.1375 300.352 65.2655 299.96C65.3935 299.56 65.5855 299.216 65.8415 298.928C66.0975 298.632 66.4135 298.4 66.7895 298.232C67.1655 298.064 67.5975 297.98 68.0855 297.98C68.5815 297.98 69.0135 298.064 69.3815 298.232C69.7575 298.4 70.0735 298.632 70.3295 298.928C70.5855 299.216 70.7775 299.56 70.9055 299.96C71.0335 300.352 71.0975 300.776 71.0975 301.232C71.0975 301.688 71.0335 302.112 70.9055 302.504C70.7775 302.896 70.5855 303.24 70.3295 303.536C70.0735 303.824 69.7575 304.052 69.3815 304.22C69.0135 304.38 68.5815 304.46 68.0855 304.46C67.5975 304.46 67.1655 304.38 66.7895 304.22C66.4135 304.052 66.0975 303.824 65.8415 303.536C65.5855 303.24 65.3935 302.896 65.2655 302.504C65.1375 302.112 65.0735 301.688 65.0735 301.232ZM73.0441 301.232C73.0441 301.608 73.0921 301.944 73.1881 302.24C73.2921 302.528 73.4321 302.772 73.6081 302.972C73.7841 303.164 73.9881 303.312 74.2201 303.416C74.4601 303.52 74.7121 303.572 74.9761 303.572C75.2401 303.572 75.4881 303.52 75.7201 303.416C75.9601 303.312 76.1681 303.164 76.3441 302.972C76.5201 302.772 76.6561 302.528 76.7521 302.24C76.8561 301.944 76.9081 301.608 76.9081 301.232C76.9081 300.856 76.8561 300.524 76.7521 300.236C76.6561 299.94 76.5201 299.692 76.3441 299.492C76.1681 299.292 75.9601 299.14 75.7201 299.036C75.4881 298.932 75.2401 298.88 74.9761 298.88C74.7121 298.88 74.4601 298.932 74.2201 299.036C73.9881 299.14 73.7841 299.292 73.6081 299.492C73.4321 299.692 73.2921 299.94 73.1881 300.236C73.0921 300.524 73.0441 300.856 73.0441 301.232ZM71.9641 301.232C71.9641 300.776 72.0281 300.352 72.1561 299.96C72.2841 299.56 72.4761 299.216 72.7321 298.928C72.9881 298.632 73.3041 298.4 73.6801 298.232C74.0561 298.064 74.4881 297.98 74.9761 297.98C75.4721 297.98 75.9041 298.064 76.2721 298.232C76.6481 298.4 76.9641 298.632 77.2201 298.928C77.4761 299.216 77.6681 299.56 77.7961 299.96C77.9241 300.352 77.9881 300.776 77.9881 301.232C77.9881 301.688 77.9241 302.112 77.7961 302.504C77.6681 302.896 77.4761 303.24 77.2201 303.536C76.9641 303.824 76.6481 304.052 76.2721 304.22C75.9041 304.38 75.4721 304.46 74.9761 304.46C74.4881 304.46 74.0561 304.38 73.6801 304.22C73.3041 304.052 72.9881 303.824 72.7321 303.536C72.4761 303.24 72.2841 302.896 72.1561 302.504C72.0281 302.112 71.9641 301.688 71.9641 301.232ZM79.8147 302.372C79.8227 302.596 79.8747 302.788 79.9707 302.948C80.0667 303.1 80.1907 303.224 80.3427 303.32C80.5027 303.408 80.6787 303.472 80.8707 303.512C81.0707 303.552 81.2747 303.572 81.4827 303.572C81.6427 303.572 81.8107 303.56 81.9867 303.536C82.1627 303.512 82.3227 303.468 82.4667 303.404C82.6187 303.34 82.7427 303.248 82.8387 303.128C82.9347 303 82.9827 302.84 82.9827 302.648C82.9827 302.384 82.8827 302.184 82.6827 302.048C82.4827 301.912 82.2307 301.804 81.9267 301.724C81.6307 301.636 81.3067 301.56 80.9547 301.496C80.6027 301.424 80.2747 301.328 79.9707 301.208C79.6747 301.08 79.4267 300.904 79.2267 300.68C79.0267 300.456 78.9267 300.144 78.9267 299.744C78.9267 299.432 78.9947 299.164 79.1307 298.94C79.2747 298.716 79.4547 298.536 79.6707 298.4C79.8947 298.256 80.1427 298.152 80.4147 298.088C80.6947 298.016 80.9707 297.98 81.2427 297.98C81.5947 297.98 81.9187 298.012 82.2147 298.076C82.5107 298.132 82.7707 298.236 82.9947 298.388C83.2267 298.532 83.4107 298.732 83.5467 298.988C83.6827 299.236 83.7627 299.548 83.7867 299.924H82.7667C82.7507 299.724 82.6987 299.56 82.6107 299.432C82.5227 299.296 82.4107 299.188 82.2747 299.108C82.1387 299.028 81.9867 298.972 81.8187 298.94C81.6587 298.9 81.4947 298.88 81.3267 298.88C81.1747 298.88 81.0187 298.892 80.8587 298.916C80.7067 298.94 80.5667 298.984 80.4387 299.048C80.3107 299.104 80.2067 299.184 80.1267 299.288C80.0467 299.384 80.0067 299.512 80.0067 299.672C80.0067 299.848 80.0667 299.996 80.1867 300.116C80.3147 300.228 80.4747 300.324 80.6667 300.404C80.8587 300.476 81.0747 300.54 81.3147 300.596C81.5547 300.644 81.7947 300.696 82.0347 300.752C82.2907 300.808 82.5387 300.876 82.7787 300.956C83.0267 301.036 83.2427 301.144 83.4267 301.28C83.6187 301.408 83.7707 301.572 83.8827 301.772C84.0027 301.972 84.0627 302.22 84.0627 302.516C84.0627 302.892 83.9827 303.204 83.8227 303.452C83.6707 303.7 83.4667 303.9 83.2107 304.052C82.9627 304.204 82.6787 304.308 82.3587 304.364C82.0467 304.428 81.7347 304.46 81.4227 304.46C81.0787 304.46 80.7507 304.424 80.4387 304.352C80.1267 304.28 79.8507 304.164 79.6107 304.004C79.3707 303.836 79.1787 303.62 79.0347 303.356C78.8907 303.084 78.8107 302.756 78.7947 302.372H79.8147ZM89.4987 300.632C89.4827 300.392 89.4267 300.164 89.3307 299.948C89.2427 299.732 89.1187 299.548 88.9587 299.396C88.8067 299.236 88.6227 299.112 88.4067 299.024C88.1987 298.928 87.9667 298.88 87.7107 298.88C87.4467 298.88 87.2067 298.928 86.9907 299.024C86.7827 299.112 86.6027 299.236 86.4507 299.396C86.2987 299.556 86.1787 299.744 86.0907 299.96C86.0027 300.168 85.9507 300.392 85.9347 300.632H89.4987ZM90.4827 302.36C90.3467 303.056 90.0467 303.58 89.5827 303.932C89.1187 304.284 88.5347 304.46 87.8307 304.46C87.3347 304.46 86.9027 304.38 86.5347 304.22C86.1747 304.06 85.8707 303.836 85.6227 303.548C85.3747 303.26 85.1867 302.916 85.0587 302.516C84.9387 302.116 84.8707 301.68 84.8547 301.208C84.8547 300.736 84.9267 300.304 85.0707 299.912C85.2147 299.52 85.4147 299.18 85.6707 298.892C85.9347 298.604 86.2427 298.38 86.5947 298.22C86.9547 298.06 87.3467 297.98 87.7707 297.98C88.3227 297.98 88.7787 298.096 89.1387 298.328C89.5067 298.552 89.7987 298.84 90.0147 299.192C90.2387 299.544 90.3907 299.928 90.4707 300.344C90.5587 300.76 90.5947 301.156 90.5787 301.532H85.9347C85.9267 301.804 85.9587 302.064 86.0307 302.312C86.1027 302.552 86.2187 302.768 86.3787 302.96C86.5387 303.144 86.7427 303.292 86.9907 303.404C87.2387 303.516 87.5307 303.572 87.8667 303.572C88.2987 303.572 88.6507 303.472 88.9227 303.272C89.2027 303.072 89.3867 302.768 89.4747 302.36H90.4827ZM97.4119 305.156C97.2919 305.46 97.1719 305.716 97.0519 305.924C96.9399 306.132 96.8119 306.3 96.6679 306.428C96.5319 306.564 96.3759 306.66 96.1999 306.716C96.0319 306.78 95.8359 306.812 95.6119 306.812C95.4919 306.812 95.3719 306.804 95.2519 306.788C95.1319 306.772 95.0159 306.744 94.9039 306.704V305.768C94.9919 305.808 95.0919 305.84 95.2039 305.864C95.3239 305.896 95.4239 305.912 95.5039 305.912C95.7119 305.912 95.8839 305.86 96.0199 305.756C96.1639 305.66 96.2719 305.52 96.3439 305.336L96.7639 304.292L94.3039 298.124H95.4559L97.2679 303.2H97.2919L99.0319 298.124H100.112L97.4119 305.156ZM101.72 301.232C101.72 301.608 101.768 301.944 101.864 302.24C101.968 302.528 102.108 302.772 102.284 302.972C102.46 303.164 102.664 303.312 102.896 303.416C103.136 303.52 103.388 303.572 103.652 303.572C103.916 303.572 104.164 303.52 104.396 303.416C104.636 303.312 104.844 303.164 105.02 302.972C105.196 302.772 105.332 302.528 105.428 302.24C105.532 301.944 105.584 301.608 105.584 301.232C105.584 300.856 105.532 300.524 105.428 300.236C105.332 299.94 105.196 299.692 105.02 299.492C104.844 299.292 104.636 299.14 104.396 299.036C104.164 298.932 103.916 298.88 103.652 298.88C103.388 298.88 103.136 298.932 102.896 299.036C102.664 299.14 102.46 299.292 102.284 299.492C102.108 299.692 101.968 299.94 101.864 300.236C101.768 300.524 101.72 300.856 101.72 301.232ZM100.64 301.232C100.64 300.776 100.704 300.352 100.832 299.96C100.96 299.56 101.152 299.216 101.408 298.928C101.664 298.632 101.98 298.4 102.356 298.232C102.732 298.064 103.164 297.98 103.652 297.98C104.148 297.98 104.58 298.064 104.948 298.232C105.324 298.4 105.64 298.632 105.896 298.928C106.152 299.216 106.344 299.56 106.472 299.96C106.6 300.352 106.664 300.776 106.664 301.232C106.664 301.688 106.6 302.112 106.472 302.504C106.344 302.896 106.152 303.24 105.896 303.536C105.64 303.824 105.324 304.052 104.948 304.22C104.58 304.38 104.148 304.46 103.652 304.46C103.164 304.46 102.732 304.38 102.356 304.22C101.98 304.052 101.664 303.824 101.408 303.536C101.152 303.24 100.96 302.896 100.832 302.504C100.704 302.112 100.64 301.688 100.64 301.232ZM113.003 304.328H112.043V303.344H112.019C111.803 303.728 111.527 304.012 111.191 304.196C110.855 304.372 110.459 304.46 110.003 304.46C109.595 304.46 109.255 304.408 108.983 304.304C108.711 304.192 108.491 304.036 108.323 303.836C108.155 303.636 108.035 303.4 107.963 303.128C107.899 302.848 107.867 302.54 107.867 302.204V298.124H108.887V302.324C108.887 302.708 108.999 303.012 109.223 303.236C109.447 303.46 109.755 303.572 110.147 303.572C110.459 303.572 110.727 303.524 110.951 303.428C111.183 303.332 111.375 303.196 111.527 303.02C111.679 302.844 111.791 302.64 111.863 302.408C111.943 302.168 111.983 301.908 111.983 301.628V298.124H113.003V304.328ZM114.498 298.124H115.458V299.432H115.482C115.73 298.928 116.034 298.556 116.394 298.316C116.754 298.076 117.21 297.964 117.762 297.98V299.06C117.354 299.06 117.006 299.116 116.718 299.228C116.43 299.34 116.198 299.504 116.022 299.72C115.846 299.936 115.718 300.2 115.638 300.512C115.558 300.816 115.518 301.168 115.518 301.568V304.328H114.498V298.124ZM126.082 300.116C126.002 299.724 125.834 299.42 125.578 299.204C125.322 298.988 124.978 298.88 124.546 298.88C124.178 298.88 123.87 298.948 123.622 299.084C123.374 299.22 123.174 299.4 123.022 299.624C122.878 299.848 122.774 300.108 122.71 300.404C122.646 300.692 122.614 300.992 122.614 301.304C122.614 301.592 122.646 301.872 122.71 302.144C122.782 302.416 122.89 302.66 123.034 302.876C123.178 303.084 123.366 303.252 123.598 303.38C123.83 303.508 124.106 303.572 124.426 303.572C124.93 303.572 125.322 303.44 125.602 303.176C125.89 302.912 126.066 302.54 126.13 302.06H127.174C127.062 302.828 126.774 303.42 126.31 303.836C125.854 304.252 125.23 304.46 124.438 304.46C123.966 304.46 123.546 304.384 123.178 304.232C122.818 304.08 122.514 303.864 122.266 303.584C122.026 303.304 121.842 302.972 121.714 302.588C121.594 302.196 121.534 301.768 121.534 301.304C121.534 300.84 121.594 300.408 121.714 300.008C121.834 299.6 122.014 299.248 122.254 298.952C122.502 298.648 122.81 298.412 123.178 298.244C123.546 298.068 123.974 297.98 124.462 297.98C124.814 297.98 125.142 298.024 125.446 298.112C125.758 298.192 126.03 298.32 126.262 298.496C126.502 298.672 126.698 298.896 126.85 299.168C127.002 299.432 127.098 299.748 127.138 300.116H126.082ZM129.06 301.232C129.06 301.608 129.108 301.944 129.204 302.24C129.308 302.528 129.448 302.772 129.624 302.972C129.8 303.164 130.004 303.312 130.236 303.416C130.476 303.52 130.728 303.572 130.992 303.572C131.256 303.572 131.504 303.52 131.736 303.416C131.976 303.312 132.184 303.164 132.36 302.972C132.536 302.772 132.672 302.528 132.768 302.24C132.872 301.944 132.924 301.608 132.924 301.232C132.924 300.856 132.872 300.524 132.768 300.236C132.672 299.94 132.536 299.692 132.36 299.492C132.184 299.292 131.976 299.14 131.736 299.036C131.504 298.932 131.256 298.88 130.992 298.88C130.728 298.88 130.476 298.932 130.236 299.036C130.004 299.14 129.8 299.292 129.624 299.492C129.448 299.692 129.308 299.94 129.204 300.236C129.108 300.524 129.06 300.856 129.06 301.232ZM127.98 301.232C127.98 300.776 128.044 300.352 128.172 299.96C128.3 299.56 128.492 299.216 128.748 298.928C129.004 298.632 129.32 298.4 129.696 298.232C130.072 298.064 130.504 297.98 130.992 297.98C131.488 297.98 131.92 298.064 132.288 298.232C132.664 298.4 132.98 298.632 133.236 298.928C133.492 299.216 133.684 299.56 133.812 299.96C133.94 300.352 134.004 300.776 134.004 301.232C134.004 301.688 133.94 302.112 133.812 302.504C133.684 302.896 133.492 303.24 133.236 303.536C132.98 303.824 132.664 304.052 132.288 304.22C131.92 304.38 131.488 304.46 130.992 304.46C130.504 304.46 130.072 304.38 129.696 304.22C129.32 304.052 129.004 303.824 128.748 303.536C128.492 303.24 128.3 302.896 128.172 302.504C128.044 302.112 127.98 301.688 127.98 301.232ZM135.266 295.76H136.286V304.328H135.266V295.76ZM138.611 301.232C138.611 301.608 138.659 301.944 138.755 302.24C138.859 302.528 138.999 302.772 139.175 302.972C139.351 303.164 139.555 303.312 139.787 303.416C140.027 303.52 140.279 303.572 140.543 303.572C140.807 303.572 141.055 303.52 141.287 303.416C141.527 303.312 141.735 303.164 141.911 302.972C142.087 302.772 142.223 302.528 142.319 302.24C142.423 301.944 142.475 301.608 142.475 301.232C142.475 300.856 142.423 300.524 142.319 300.236C142.223 299.94 142.087 299.692 141.911 299.492C141.735 299.292 141.527 299.14 141.287 299.036C141.055 298.932 140.807 298.88 140.543 298.88C140.279 298.88 140.027 298.932 139.787 299.036C139.555 299.14 139.351 299.292 139.175 299.492C138.999 299.692 138.859 299.94 138.755 300.236C138.659 300.524 138.611 300.856 138.611 301.232ZM137.531 301.232C137.531 300.776 137.595 300.352 137.723 299.96C137.851 299.56 138.043 299.216 138.299 298.928C138.555 298.632 138.871 298.4 139.247 298.232C139.623 298.064 140.055 297.98 140.543 297.98C141.039 297.98 141.471 298.064 141.839 298.232C142.215 298.4 142.531 298.632 142.787 298.928C143.043 299.216 143.235 299.56 143.363 299.96C143.491 300.352 143.555 300.776 143.555 301.232C143.555 301.688 143.491 302.112 143.363 302.504C143.235 302.896 143.043 303.24 142.787 303.536C142.531 303.824 142.215 304.052 141.839 304.22C141.471 304.38 141.039 304.46 140.543 304.46C140.055 304.46 139.623 304.38 139.247 304.22C138.871 304.052 138.555 303.824 138.299 303.536C138.043 303.24 137.851 302.896 137.723 302.504C137.595 302.112 137.531 301.688 137.531 301.232ZM144.721 298.124H145.681V299.432H145.705C145.953 298.928 146.257 298.556 146.617 298.316C146.977 298.076 147.433 297.964 147.985 297.98V299.06C147.577 299.06 147.229 299.116 146.941 299.228C146.653 299.34 146.421 299.504 146.245 299.72C146.069 299.936 145.941 300.2 145.861 300.512C145.781 300.816 145.741 301.168 145.741 301.568V304.328H144.721V298.124ZM152.717 302.372C152.725 302.596 152.777 302.788 152.873 302.948C152.969 303.1 153.093 303.224 153.245 303.32C153.405 303.408 153.581 303.472 153.773 303.512C153.973 303.552 154.177 303.572 154.385 303.572C154.545 303.572 154.713 303.56 154.889 303.536C155.065 303.512 155.225 303.468 155.369 303.404C155.521 303.34 155.645 303.248 155.741 303.128C155.837 303 155.885 302.84 155.885 302.648C155.885 302.384 155.785 302.184 155.585 302.048C155.385 301.912 155.133 301.804 154.829 301.724C154.533 301.636 154.209 301.56 153.857 301.496C153.505 301.424 153.177 301.328 152.873 301.208C152.577 301.08 152.329 300.904 152.129 300.68C151.929 300.456 151.829 300.144 151.829 299.744C151.829 299.432 151.897 299.164 152.033 298.94C152.177 298.716 152.357 298.536 152.573 298.4C152.797 298.256 153.045 298.152 153.317 298.088C153.597 298.016 153.873 297.98 154.145 297.98C154.497 297.98 154.821 298.012 155.117 298.076C155.413 298.132 155.673 298.236 155.897 298.388C156.129 298.532 156.313 298.732 156.449 298.988C156.585 299.236 156.665 299.548 156.689 299.924H155.669C155.653 299.724 155.601 299.56 155.513 299.432C155.425 299.296 155.313 299.188 155.177 299.108C155.041 299.028 154.889 298.972 154.721 298.94C154.561 298.9 154.397 298.88 154.229 298.88C154.077 298.88 153.921 298.892 153.761 298.916C153.609 298.94 153.469 298.984 153.341 299.048C153.213 299.104 153.109 299.184 153.029 299.288C152.949 299.384 152.909 299.512 152.909 299.672C152.909 299.848 152.969 299.996 153.089 300.116C153.217 300.228 153.377 300.324 153.569 300.404C153.761 300.476 153.977 300.54 154.217 300.596C154.457 300.644 154.697 300.696 154.937 300.752C155.193 300.808 155.441 300.876 155.681 300.956C155.929 301.036 156.145 301.144 156.329 301.28C156.521 301.408 156.673 301.572 156.785 301.772C156.905 301.972 156.965 302.22 156.965 302.516C156.965 302.892 156.885 303.204 156.725 303.452C156.573 303.7 156.369 303.9 156.113 304.052C155.865 304.204 155.581 304.308 155.261 304.364C154.949 304.428 154.637 304.46 154.325 304.46C153.981 304.46 153.653 304.424 153.341 304.352C153.029 304.28 152.753 304.164 152.513 304.004C152.273 303.836 152.081 303.62 151.937 303.356C151.793 303.084 151.713 302.756 151.697 302.372H152.717ZM162.305 300.116C162.225 299.724 162.057 299.42 161.801 299.204C161.545 298.988 161.201 298.88 160.769 298.88C160.401 298.88 160.093 298.948 159.845 299.084C159.597 299.22 159.397 299.4 159.245 299.624C159.101 299.848 158.997 300.108 158.933 300.404C158.869 300.692 158.837 300.992 158.837 301.304C158.837 301.592 158.869 301.872 158.933 302.144C159.005 302.416 159.113 302.66 159.257 302.876C159.401 303.084 159.589 303.252 159.821 303.38C160.053 303.508 160.329 303.572 160.649 303.572C161.153 303.572 161.545 303.44 161.825 303.176C162.113 302.912 162.289 302.54 162.353 302.06H163.397C163.285 302.828 162.997 303.42 162.533 303.836C162.077 304.252 161.453 304.46 160.661 304.46C160.189 304.46 159.769 304.384 159.401 304.232C159.041 304.08 158.737 303.864 158.489 303.584C158.249 303.304 158.065 302.972 157.937 302.588C157.817 302.196 157.757 301.768 157.757 301.304C157.757 300.84 157.817 300.408 157.937 300.008C158.057 299.6 158.237 299.248 158.477 298.952C158.725 298.648 159.033 298.412 159.401 298.244C159.769 298.068 160.197 297.98 160.685 297.98C161.037 297.98 161.365 298.024 161.669 298.112C161.981 298.192 162.253 298.32 162.485 298.496C162.725 298.672 162.921 298.896 163.073 299.168C163.225 299.432 163.321 299.748 163.361 300.116H162.305ZM164.538 295.76H165.558V299.036H165.582C165.662 298.844 165.774 298.684 165.918 298.556C166.062 298.42 166.222 298.312 166.398 298.232C166.582 298.144 166.77 298.08 166.962 298.04C167.162 298 167.354 297.98 167.538 297.98C167.946 297.98 168.286 298.036 168.558 298.148C168.83 298.26 169.05 298.416 169.218 298.616C169.386 298.816 169.502 299.056 169.566 299.336C169.638 299.608 169.674 299.912 169.674 300.248V304.328H168.654V300.128C168.654 299.744 168.542 299.44 168.318 299.216C168.094 298.992 167.786 298.88 167.394 298.88C167.082 298.88 166.81 298.928 166.578 299.024C166.354 299.12 166.166 299.256 166.014 299.432C165.862 299.608 165.746 299.816 165.666 300.056C165.594 300.288 165.558 300.544 165.558 300.824V304.328H164.538V295.76ZM175.514 300.632C175.498 300.392 175.442 300.164 175.346 299.948C175.258 299.732 175.134 299.548 174.974 299.396C174.822 299.236 174.638 299.112 174.422 299.024C174.214 298.928 173.982 298.88 173.726 298.88C173.462 298.88 173.222 298.928 173.006 299.024C172.798 299.112 172.618 299.236 172.466 299.396C172.314 299.556 172.194 299.744 172.106 299.96C172.018 300.168 171.966 300.392 171.95 300.632H175.514ZM176.498 302.36C176.362 303.056 176.062 303.58 175.598 303.932C175.134 304.284 174.55 304.46 173.846 304.46C173.35 304.46 172.918 304.38 172.55 304.22C172.19 304.06 171.886 303.836 171.638 303.548C171.39 303.26 171.202 302.916 171.074 302.516C170.954 302.116 170.886 301.68 170.87 301.208C170.87 300.736 170.942 300.304 171.086 299.912C171.23 299.52 171.43 299.18 171.686 298.892C171.95 298.604 172.258 298.38 172.61 298.22C172.97 298.06 173.362 297.98 173.786 297.98C174.338 297.98 174.794 298.096 175.154 298.328C175.522 298.552 175.814 298.84 176.03 299.192C176.254 299.544 176.406 299.928 176.486 300.344C176.574 300.76 176.61 301.156 176.594 301.532H171.95C171.942 301.804 171.974 302.064 172.046 302.312C172.118 302.552 172.234 302.768 172.394 302.96C172.554 303.144 172.758 303.292 173.006 303.404C173.254 303.516 173.546 303.572 173.882 303.572C174.314 303.572 174.666 303.472 174.938 303.272C175.218 303.072 175.402 302.768 175.49 302.36H176.498ZM177.652 298.124H178.612V299.036H178.636C179.1 298.332 179.768 297.98 180.64 297.98C181.024 297.98 181.372 298.06 181.684 298.22C181.996 298.38 182.216 298.652 182.344 299.036C182.552 298.7 182.824 298.44 183.16 298.256C183.504 298.072 183.88 297.98 184.288 297.98C184.6 297.98 184.88 298.016 185.128 298.088C185.384 298.152 185.6 298.256 185.776 298.4C185.96 298.544 186.1 298.732 186.196 298.964C186.3 299.188 186.352 299.46 186.352 299.78V304.328H185.332V300.26C185.332 300.068 185.316 299.888 185.284 299.72C185.252 299.552 185.192 299.408 185.104 299.288C185.016 299.16 184.892 299.06 184.732 298.988C184.58 298.916 184.38 298.88 184.132 298.88C183.628 298.88 183.232 299.024 182.944 299.312C182.656 299.6 182.512 299.984 182.512 300.464V304.328H181.492V300.26C181.492 300.06 181.472 299.876 181.432 299.708C181.4 299.54 181.34 299.396 181.252 299.276C181.164 299.148 181.044 299.052 180.892 298.988C180.748 298.916 180.56 298.88 180.328 298.88C180.032 298.88 179.776 298.94 179.56 299.06C179.352 299.18 179.18 299.324 179.044 299.492C178.916 299.66 178.82 299.836 178.756 300.02C178.7 300.196 178.672 300.344 178.672 300.464V304.328H177.652V298.124ZM192.19 300.632C192.174 300.392 192.118 300.164 192.022 299.948C191.934 299.732 191.81 299.548 191.65 299.396C191.498 299.236 191.314 299.112 191.098 299.024C190.89 298.928 190.658 298.88 190.402 298.88C190.138 298.88 189.898 298.928 189.682 299.024C189.474 299.112 189.294 299.236 189.142 299.396C188.99 299.556 188.87 299.744 188.782 299.96C188.694 300.168 188.642 300.392 188.626 300.632H192.19ZM193.174 302.36C193.038 303.056 192.738 303.58 192.274 303.932C191.81 304.284 191.226 304.46 190.522 304.46C190.026 304.46 189.594 304.38 189.226 304.22C188.866 304.06 188.562 303.836 188.314 303.548C188.066 303.26 187.878 302.916 187.75 302.516C187.63 302.116 187.562 301.68 187.546 301.208C187.546 300.736 187.618 300.304 187.762 299.912C187.906 299.52 188.106 299.18 188.362 298.892C188.626 298.604 188.934 298.38 189.286 298.22C189.646 298.06 190.038 297.98 190.462 297.98C191.014 297.98 191.47 298.096 191.83 298.328C192.198 298.552 192.49 298.84 192.706 299.192C192.93 299.544 193.082 299.928 193.162 300.344C193.25 300.76 193.286 301.156 193.27 301.532H188.626C188.618 301.804 188.65 302.064 188.722 302.312C188.794 302.552 188.91 302.768 189.07 302.96C189.23 303.144 189.434 303.292 189.682 303.404C189.93 303.516 190.222 303.572 190.558 303.572C190.99 303.572 191.342 303.472 191.614 303.272C191.894 303.072 192.078 302.768 192.166 302.36H193.174Z" fill="#0A0909"/>
<g clip-path="url(#clip1_0_2581)">
<mask id="mask1_0_2581" style="mask-type:luminance" maskUnits="userSpaceOnUse" x="49" y="313" width="484" height="30">
<path d="M532.761 313.851H49.3134V342.03H532.761V313.851Z" fill="white"/>
</mask>
<g mask="url(#mask1_0_2581)">
<path d="M55.1776 314.145H104.461C107.539 314.145 110.035 316.642 110.035 319.722V336.16C110.035 339.24 107.539 341.737 104.461 341.737H55.1776C52.0993 341.737 49.6039 339.24 49.6039 336.16V319.722C49.6039 316.642 52.0993 314.145 55.1776 314.145Z" fill="white"/>
<path d="M55.1776 314.145H104.461C107.539 314.145 110.035 316.642 110.035 319.722V336.16C110.035 339.24 107.539 341.737 104.461 341.737H55.1776C52.0993 341.737 49.6039 339.24 49.6039 336.16V319.722C49.6039 316.642 52.0993 314.145 55.1776 314.145Z" stroke="#CDD0DB" stroke-width="0.880597"/>
<path d="M54.0034 322.07C54.0034 320.125 55.5795 318.548 57.5237 318.548H73.9515C75.8957 318.548 77.4718 320.125 77.4718 322.07V333.812C77.4718 335.757 75.8957 337.334 73.9515 337.334H57.5237C55.5795 337.334 54.0034 335.757 54.0034 333.812V322.07Z" fill="#BFD166"/>
<path d="M85.6897 318.841H102.117C103.9 318.841 105.344 320.287 105.344 322.07V333.811C105.344 335.595 103.9 337.04 102.117 337.04H85.6897C83.9075 337.04 82.4628 335.595 82.4628 333.811V322.07C82.4628 320.287 83.9075 318.841 85.6897 318.841Z" fill="white" stroke="#CDD0DB" stroke-width="0.880597"/>
<path d="M125.586 314.145H174.869C177.948 314.145 180.443 316.642 180.443 319.722V336.16C180.443 339.24 177.948 341.737 174.869 341.737H125.586C122.507 341.737 120.012 339.24 120.012 336.16V319.722C120.012 316.642 122.507 314.145 125.586 314.145Z" fill="white"/>
<path d="M125.586 314.145H174.869C177.948 314.145 180.443 316.642 180.443 319.722V336.16C180.443 339.24 177.948 341.737 174.869 341.737H125.586C122.507 341.737 120.012 339.24 120.012 336.16V319.722C120.012 316.642 122.507 314.145 125.586 314.145Z" stroke="#CDD0DB" stroke-width="0.880597"/>
<path d="M124.411 322.07C124.411 320.125 125.987 318.548 127.932 318.548H144.36C146.304 318.548 147.88 320.125 147.88 322.07V333.812C147.88 335.757 146.304 337.334 144.36 337.334H127.932C125.987 337.334 124.411 335.757 124.411 333.812V322.07Z" fill="#ECEDF1"/>
<path d="M152.57 322.07C152.57 320.125 154.146 318.548 156.09 318.548H172.518C174.463 318.548 176.038 320.125 176.038 322.07V333.812C176.038 335.757 174.463 337.334 172.518 337.334H156.09C154.146 337.334 152.57 335.757 152.57 333.812V322.07Z" fill="#232321"/>
<path d="M195.987 314.145H245.271C248.349 314.145 250.844 316.642 250.844 319.722V336.16C250.844 339.24 248.349 341.737 245.271 341.737H195.987C192.909 341.737 190.413 339.24 190.413 336.16V319.722C190.413 316.642 192.909 314.145 195.987 314.145Z" fill="white"/>
<path d="M195.987 314.145H245.271C248.349 314.145 250.844 316.642 250.844 319.722V336.16C250.844 339.24 248.349 341.737 245.271 341.737H195.987C192.909 341.737 190.413 339.24 190.413 336.16V319.722C190.413 316.642 192.909 314.145 195.987 314.145Z" stroke="#CDD0DB" stroke-width="0.880597"/>
<path d="M194.813 322.07C194.813 320.125 196.389 318.548 198.333 318.548H214.761C216.705 318.548 218.281 320.125 218.281 322.07V333.812C218.281 335.757 216.705 337.334 214.761 337.334H198.333C196.389 337.334 194.813 335.757 194.813 333.812V322.07Z" fill="#ECECF0"/>
<path d="M222.975 322.07C222.975 320.125 224.551 318.548 226.495 318.548H242.923C244.867 318.548 246.443 320.125 246.443 322.07V333.812C246.443 335.757 244.867 337.334 242.923 337.334H226.495C224.551 337.334 222.975 335.757 222.975 333.812V322.07Z" fill="#BFD166"/>
<path d="M266.394 314.145H315.677C318.756 314.145 321.251 316.642 321.251 319.722V336.16C321.251 339.24 318.756 341.737 315.677 341.737H266.394C263.315 341.737 260.82 339.24 260.82 336.16V319.722C260.82 316.642 263.315 314.145 266.394 314.145Z" fill="white"/>
<path d="M266.394 314.145H315.677C318.756 314.145 321.251 316.642 321.251 319.722V336.16C321.251 339.24 318.756 341.737 315.677 341.737H266.394C263.315 341.737 260.82 339.24 260.82 336.16V319.722C260.82 316.642 263.315 314.145 266.394 314.145Z" stroke="#CDD0DB" stroke-width="0.880597"/>
<path d="M265.219 322.07C265.219 320.125 266.795 318.548 268.74 318.548H285.167C287.112 318.548 288.688 320.125 288.688 322.07V333.812C288.688 335.757 287.112 337.334 285.167 337.334H268.74C266.795 337.334 265.219 335.757 265.219 333.812V322.07Z" fill="#DAEBF6"/>
</g>
</g>
<rect x="49.3134" y="349.075" width="236" height="3.52236" rx="1.76118" fill="#F5F6FB"/>
<rect x="49.3134" y="349.075" width="22.6243" height="3.52239" rx="1.76119" fill="#D3D8EB"/>
</g>
<defs>
<filter id="filter0_d_0_2581" x="-2.28882e-05" y="1.43051e-06" width="334.627" height="403.672" filterUnits="userSpaceOnUse" color-interpolation-filters="sRGB">
<feFlood flood-opacity="0" result="BackgroundImageFix"/>
<feColorMatrix in="SourceAlpha" type="matrix" values="0 0 0 0 0 0 0 0 0 0 0 0 0 0 0 0 0 0 127 0" result="hardAlpha"/>
<feOffset dy="1.76119"/>
<feGaussianBlur stdDeviation="14.0896"/>
<feComposite in2="hardAlpha" operator="out"/>
<feColorMatrix type="matrix" values="0 0 0 0 0.247059 0 0 0 0 0.282353 0 0 0 0 0.403922 0 0 0 0.08 0"/>
<feBlend mode="normal" in2="BackgroundImageFix" result="effect1_dropShadow_0_2581"/>
<feBlend mode="normal" in="SourceGraphic" in2="effect1_dropShadow_0_2581" result="shape"/>
</filter>
<clipPath id="clip0_0_2581">
<rect width="236" height="44.0298" fill="white" transform="translate(49.3134 114.209)"/>
</clipPath>
<clipPath id="clip1_0_2581">
<rect width="236" height="28.1791" fill="white" transform="translate(49.3134 313.851)"/>
</clipPath>
</defs>
</svg>
