<svg width="279" height="348" viewBox="0 0 279 348" fill="none" xmlns="http://www.w3.org/2000/svg">
<rect width="278.269" height="347.313" rx="12" fill="white"/>
<path d="M29.2543 30.1483C29.1049 29.439 28.7736 28.907 28.2603 28.5523C27.7563 28.1977 27.1543 28.0203 26.4543 28.0203C25.8569 28.0203 25.3436 28.1323 24.9143 28.3563C24.4943 28.5803 24.1443 28.8837 23.8643 29.2663C23.5936 29.6397 23.3929 30.069 23.2623 30.5543C23.1316 31.0397 23.0663 31.5437 23.0663 32.0663C23.0663 32.6357 23.1316 33.177 23.2623 33.6903C23.3929 34.1943 23.5936 34.6377 23.8643 35.0203C24.1443 35.3937 24.4989 35.6923 24.9283 35.9163C25.3576 36.1403 25.8709 36.2523 26.4683 36.2523C26.9069 36.2523 27.2943 36.1823 27.6303 36.0423C27.9756 35.893 28.2696 35.6923 28.5123 35.4403C28.7643 35.179 28.9603 34.871 29.1003 34.5163C29.2403 34.1617 29.3243 33.779 29.3523 33.3683H30.6823C30.5516 34.6283 30.1176 35.6083 29.3803 36.3083C28.6429 37.0083 27.6349 37.3583 26.3563 37.3583C25.5816 37.3583 24.9049 37.2277 24.3263 36.9663C23.7476 36.6957 23.2669 36.327 22.8843 35.8603C22.5016 35.3937 22.2123 34.843 22.0163 34.2083C21.8296 33.5737 21.7363 32.8923 21.7363 32.1643C21.7363 31.4363 21.8389 30.755 22.0443 30.1203C22.2496 29.4763 22.5483 28.9163 22.9403 28.4403C23.3416 27.9643 23.8363 27.591 24.4243 27.3203C25.0216 27.0403 25.7029 26.9003 26.4683 26.9003C26.9909 26.9003 27.4856 26.9703 27.9523 27.1103C28.4189 27.2503 28.8343 27.4557 29.1983 27.7263C29.5623 27.997 29.8656 28.3377 30.1083 28.7483C30.3509 29.1497 30.5096 29.6163 30.5843 30.1483H29.2543ZM38.1258 37.1343H37.0058V35.9863H36.9778C36.7258 36.4343 36.4038 36.7657 36.0118 36.9803C35.6198 37.1857 35.1578 37.2883 34.6258 37.2883C34.1498 37.2883 33.7531 37.2277 33.4358 37.1063C33.1185 36.9757 32.8618 36.7937 32.6658 36.5603C32.4698 36.327 32.3298 36.0517 32.2458 35.7343C32.1711 35.4077 32.1338 35.0483 32.1338 34.6563V29.8963H33.3238V34.7963C33.3238 35.2443 33.4545 35.599 33.7158 35.8603C33.9771 36.1217 34.3365 36.2523 34.7938 36.2523C35.1578 36.2523 35.4705 36.1963 35.7318 36.0843C36.0025 35.9723 36.2265 35.8137 36.4038 35.6083C36.5811 35.403 36.7118 35.165 36.7958 34.8943C36.8891 34.6143 36.9358 34.311 36.9358 33.9843V29.8963H38.1258V37.1343ZM40.6411 34.8523C40.6504 35.1137 40.7111 35.3377 40.8231 35.5243C40.9351 35.7017 41.0798 35.8463 41.2571 35.9583C41.4438 36.061 41.6491 36.1357 41.8731 36.1823C42.1064 36.229 42.3444 36.2523 42.5871 36.2523C42.7738 36.2523 42.9698 36.2383 43.1751 36.2103C43.3804 36.1823 43.5671 36.131 43.7351 36.0563C43.9124 35.9817 44.0571 35.8743 44.1691 35.7343C44.2811 35.585 44.3371 35.3983 44.3371 35.1743C44.3371 34.8663 44.2204 34.633 43.9871 34.4743C43.7538 34.3157 43.4598 34.1897 43.1051 34.0963C42.7598 33.9937 42.3818 33.905 41.9711 33.8303C41.5604 33.7463 41.1778 33.6343 40.8231 33.4943C40.4778 33.345 40.1884 33.1397 39.9551 32.8783C39.7218 32.617 39.6051 32.253 39.6051 31.7863C39.6051 31.4223 39.6844 31.1097 39.8431 30.8483C40.0111 30.587 40.2211 30.377 40.4731 30.2183C40.7344 30.0503 41.0238 29.929 41.3411 29.8543C41.6678 29.7703 41.9898 29.7283 42.3071 29.7283C42.7178 29.7283 43.0958 29.7657 43.4411 29.8403C43.7864 29.9057 44.0898 30.027 44.3511 30.2043C44.6218 30.3723 44.8364 30.6057 44.9951 30.9043C45.1538 31.1937 45.2471 31.5577 45.2751 31.9963H44.0851C44.0664 31.763 44.0058 31.5717 43.9031 31.4223C43.8004 31.2637 43.6698 31.1377 43.5111 31.0443C43.3524 30.951 43.1751 30.8857 42.9791 30.8483C42.7924 30.8017 42.6011 30.7783 42.4051 30.7783C42.2278 30.7783 42.0458 30.7923 41.8591 30.8203C41.6818 30.8483 41.5184 30.8997 41.3691 30.9743C41.2198 31.0397 41.0984 31.133 41.0051 31.2543C40.9118 31.3663 40.8651 31.5157 40.8651 31.7023C40.8651 31.9077 40.9351 32.0803 41.0751 32.2203C41.2244 32.351 41.4111 32.463 41.6351 32.5563C41.8591 32.6403 42.1111 32.715 42.3911 32.7803C42.6711 32.8363 42.9511 32.897 43.2311 32.9623C43.5298 33.0277 43.8191 33.107 44.0991 33.2003C44.3884 33.2937 44.6404 33.4197 44.8551 33.5783C45.0791 33.7277 45.2564 33.919 45.3871 34.1523C45.5271 34.3857 45.5971 34.675 45.5971 35.0203C45.5971 35.459 45.5038 35.823 45.3171 36.1123C45.1398 36.4017 44.9018 36.635 44.6031 36.8123C44.3138 36.9897 43.9824 37.111 43.6091 37.1763C43.2451 37.251 42.8811 37.2883 42.5171 37.2883C42.1158 37.2883 41.7331 37.2463 41.3691 37.1623C41.0051 37.0783 40.6831 36.943 40.4031 36.7563C40.1231 36.5603 39.8991 36.3083 39.7311 36.0003C39.5631 35.683 39.4698 35.3003 39.4511 34.8523H40.6411ZM48.5651 29.8963H50.0071V30.9463H48.5651V35.4403C48.5651 35.5803 48.5744 35.6923 48.5931 35.7763C48.6211 35.8603 48.6678 35.9257 48.7331 35.9723C48.7984 36.019 48.8871 36.0517 48.9991 36.0703C49.1204 36.0797 49.2744 36.0843 49.4611 36.0843H50.0071V37.1343H49.0971C48.7891 37.1343 48.5231 37.1157 48.2991 37.0783C48.0844 37.0317 47.9071 36.9523 47.7671 36.8403C47.6364 36.7283 47.5384 36.5697 47.4731 36.3643C47.4078 36.159 47.3751 35.8883 47.3751 35.5523V30.9463H46.1431V29.8963H47.3751V27.7263H48.5651V29.8963ZM52.1971 33.5223C52.1971 33.961 52.2531 34.353 52.3651 34.6983C52.4864 35.0343 52.6498 35.319 52.8551 35.5523C53.0604 35.7763 53.2984 35.949 53.5691 36.0703C53.8491 36.1917 54.1431 36.2523 54.4511 36.2523C54.7591 36.2523 55.0484 36.1917 55.3191 36.0703C55.5991 35.949 55.8418 35.7763 56.0471 35.5523C56.2524 35.319 56.4111 35.0343 56.5231 34.6983C56.6444 34.353 56.7051 33.961 56.7051 33.5223C56.7051 33.0837 56.6444 32.6963 56.5231 32.3603C56.4111 32.015 56.2524 31.7257 56.0471 31.4923C55.8418 31.259 55.5991 31.0817 55.3191 30.9603C55.0484 30.839 54.7591 30.7783 54.4511 30.7783C54.1431 30.7783 53.8491 30.839 53.5691 30.9603C53.2984 31.0817 53.0604 31.259 52.8551 31.4923C52.6498 31.7257 52.4864 32.015 52.3651 32.3603C52.2531 32.6963 52.1971 33.0837 52.1971 33.5223ZM50.9371 33.5223C50.9371 32.9903 51.0118 32.4957 51.1611 32.0383C51.3104 31.5717 51.5344 31.1703 51.8331 30.8343C52.1318 30.489 52.5004 30.2183 52.9391 30.0223C53.3778 29.8263 53.8818 29.7283 54.4511 29.7283C55.0298 29.7283 55.5338 29.8263 55.9631 30.0223C56.4018 30.2183 56.7704 30.489 57.0691 30.8343C57.3678 31.1703 57.5918 31.5717 57.7411 32.0383C57.8904 32.4957 57.9651 32.9903 57.9651 33.5223C57.9651 34.0543 57.8904 34.549 57.7411 35.0063C57.5918 35.4637 57.3678 35.865 57.0691 36.2103C56.7704 36.5463 56.4018 36.8123 55.9631 37.0083C55.5338 37.195 55.0298 37.2883 54.4511 37.2883C53.8818 37.2883 53.3778 37.195 52.9391 37.0083C52.5004 36.8123 52.1318 36.5463 51.8331 36.2103C51.5344 35.865 51.3104 35.4637 51.1611 35.0063C51.0118 34.549 50.9371 34.0543 50.9371 33.5223ZM59.3682 29.8963H60.4882V30.9603H60.5162C61.0575 30.139 61.8368 29.7283 62.8542 29.7283C63.3022 29.7283 63.7082 29.8217 64.0722 30.0083C64.4362 30.195 64.6928 30.5123 64.8422 30.9603C65.0848 30.5683 65.4022 30.265 65.7942 30.0503C66.1955 29.8357 66.6342 29.7283 67.1102 29.7283C67.4742 29.7283 67.8008 29.7703 68.0902 29.8543C68.3888 29.929 68.6408 30.0503 68.8462 30.2183C69.0608 30.3863 69.2242 30.6057 69.3362 30.8763C69.4575 31.1377 69.5182 31.455 69.5182 31.8283V37.1343H68.3282V32.3883C68.3282 32.1643 68.3095 31.9543 68.2722 31.7583C68.2348 31.5623 68.1648 31.3943 68.0622 31.2543C67.9595 31.105 67.8148 30.9883 67.6282 30.9043C67.4508 30.8203 67.2175 30.7783 66.9282 30.7783C66.3402 30.7783 65.8782 30.9463 65.5422 31.2823C65.2062 31.6183 65.0382 32.0663 65.0382 32.6263V37.1343H63.8482V32.3883C63.8482 32.155 63.8248 31.9403 63.7782 31.7443C63.7408 31.5483 63.6708 31.3803 63.5682 31.2403C63.4655 31.091 63.3255 30.979 63.1482 30.9043C62.9802 30.8203 62.7608 30.7783 62.4902 30.7783C62.1448 30.7783 61.8462 30.8483 61.5942 30.9883C61.3515 31.1283 61.1508 31.2963 60.9922 31.4923C60.8428 31.6883 60.7308 31.8937 60.6562 32.1083C60.5908 32.3137 60.5582 32.4863 60.5582 32.6263V37.1343H59.3682V29.8963ZM72.5637 28.5943H71.3737V27.1383H72.5637V28.5943ZM71.3737 29.8963H72.5637V37.1343H71.3737V29.8963ZM73.8192 36.2243L78.1872 30.9463H74.0992V29.8963H79.7272V30.7083L75.3032 36.0843H79.9232V37.1343H73.8192V36.2243ZM86.1598 32.8223C86.1411 32.5423 86.0758 32.2763 85.9638 32.0243C85.8611 31.7723 85.7165 31.5577 85.5298 31.3803C85.3525 31.1937 85.1378 31.049 84.8858 30.9463C84.6431 30.8343 84.3725 30.7783 84.0738 30.7783C83.7658 30.7783 83.4858 30.8343 83.2338 30.9463C82.9911 31.049 82.7811 31.1937 82.6038 31.3803C82.4265 31.567 82.2865 31.7863 82.1838 32.0383C82.0811 32.281 82.0205 32.5423 82.0018 32.8223H86.1598ZM87.3078 34.8383C87.1491 35.6503 86.7991 36.2617 86.2578 36.6723C85.7165 37.083 85.0351 37.2883 84.2138 37.2883C83.6351 37.2883 83.1311 37.195 82.7018 37.0083C82.2818 36.8217 81.9271 36.5603 81.6378 36.2243C81.3485 35.8883 81.1291 35.487 80.9798 35.0203C80.8398 34.5537 80.7605 34.045 80.7418 33.4943C80.7418 32.9437 80.8258 32.4397 80.9938 31.9823C81.1618 31.525 81.3951 31.1283 81.6938 30.7923C82.0018 30.4563 82.3611 30.195 82.7718 30.0083C83.1918 29.8217 83.6491 29.7283 84.1438 29.7283C84.7878 29.7283 85.3198 29.8637 85.7398 30.1343C86.1691 30.3957 86.5098 30.7317 86.7618 31.1423C87.0231 31.553 87.2005 32.001 87.2938 32.4863C87.3965 32.9717 87.4385 33.4337 87.4198 33.8723H82.0018C81.9925 34.1897 82.0298 34.493 82.1138 34.7823C82.1978 35.0623 82.3331 35.3143 82.5198 35.5383C82.7065 35.753 82.9445 35.9257 83.2338 36.0563C83.5231 36.187 83.8638 36.2523 84.2558 36.2523C84.7598 36.2523 85.1705 36.1357 85.4878 35.9023C85.8145 35.669 86.0291 35.3143 86.1318 34.8383H87.3078Z" fill="#0A0909"/>
<path d="M230.325 30.6142H225.764C224.924 30.6142 224.244 31.2948 224.244 32.1343C224.244 32.9739 224.924 33.6545 225.764 33.6545H230.325C231.165 33.6545 231.845 32.9739 231.845 32.1343C231.845 31.2948 231.165 30.6142 230.325 30.6142Z" fill="#D3D8EB"/>
<path d="M241.449 30.6142H236.888C236.048 30.6142 235.368 31.2948 235.368 32.1343C235.368 32.9739 236.048 33.6545 236.888 33.6545H241.449C242.289 33.6545 242.969 32.9739 242.969 32.1343C242.969 31.2948 242.289 30.6142 241.449 30.6142Z" fill="#D3D8EB"/>
<path d="M255.614 30.6142H248.012C247.173 30.6142 246.492 31.2948 246.492 32.1343C246.492 32.9739 247.173 33.6545 248.012 33.6545H255.614C256.454 33.6545 257.134 32.9739 257.134 32.1343C257.134 31.2948 256.454 30.6142 255.614 30.6142Z" fill="#BFD166"/>
<path d="M26.5343 75.8206L27.6743 76.7326C28.0103 76.3966 28.2583 75.9886 28.4183 75.5086C28.5783 75.0206 28.6583 74.5126 28.6583 73.9846C28.6583 73.5526 28.6023 73.1286 28.4903 72.7126C28.3783 72.2886 28.2023 71.9086 27.9623 71.5726C27.7223 71.2366 27.4143 70.9686 27.0383 70.7686C26.6623 70.5606 26.2143 70.4566 25.6943 70.4566C25.1743 70.4566 24.7263 70.5606 24.3503 70.7686C23.9743 70.9686 23.6663 71.2366 23.4263 71.5726C23.1863 71.9086 23.0103 72.2886 22.8983 72.7126C22.7863 73.1286 22.7303 73.5526 22.7303 73.9846C22.7303 74.4166 22.7863 74.8446 22.8983 75.2686C23.0103 75.6846 23.1863 76.0606 23.4263 76.3966C23.6663 76.7326 23.9743 77.0046 24.3503 77.2126C24.7263 77.4126 25.1743 77.5126 25.6943 77.5126C26.1023 77.5126 26.4983 77.4326 26.8823 77.2726L25.9343 76.5166L26.5343 75.8206ZM29.0543 79.0006L27.7463 77.9566C27.1703 78.2926 26.4863 78.4606 25.6943 78.4606C25.0143 78.4606 24.4183 78.3406 23.9063 78.1006C23.3943 77.8526 22.9663 77.5206 22.6223 77.1046C22.2783 76.6886 22.0183 76.2126 21.8423 75.6766C21.6743 75.1326 21.5903 74.5686 21.5903 73.9846C21.5903 73.4006 21.6743 72.8406 21.8423 72.3046C22.0183 71.7606 22.2783 71.2806 22.6223 70.8646C22.9663 70.4486 23.3943 70.1166 23.9063 69.8686C24.4183 69.6206 25.0143 69.4966 25.6943 69.4966C26.3743 69.4966 26.9703 69.6206 27.4823 69.8686C27.9943 70.1166 28.4223 70.4486 28.7663 70.8646C29.1103 71.2806 29.3663 71.7606 29.5343 72.3046C29.7103 72.8406 29.7983 73.4006 29.7983 73.9846C29.7983 74.6406 29.6903 75.2646 29.4743 75.8566C29.2583 76.4486 28.9343 76.9606 28.5023 77.3926L29.6303 78.2806L29.0543 79.0006ZM31.1875 69.7006H35.2195C36.0355 69.7006 36.6715 69.9006 37.1275 70.3006C37.5915 70.7006 37.8235 71.2486 37.8235 71.9446C37.8235 72.4646 37.7035 72.9206 37.4635 73.3126C37.2315 73.7046 36.8555 73.9726 36.3355 74.1166V74.1406C36.5835 74.1886 36.7835 74.2686 36.9355 74.3806C37.0955 74.4926 37.2195 74.6286 37.3075 74.7886C37.4035 74.9406 37.4715 75.1126 37.5115 75.3046C37.5595 75.4966 37.5955 75.6966 37.6195 75.9046C37.6355 76.1126 37.6475 76.3246 37.6555 76.5406C37.6635 76.7566 37.6835 76.9686 37.7155 77.1766C37.7475 77.3846 37.7915 77.5846 37.8475 77.7766C37.9115 77.9606 38.0035 78.1246 38.1235 78.2686H36.8515C36.7715 78.1806 36.7155 78.0606 36.6835 77.9086C36.6595 77.7566 36.6435 77.5886 36.6355 77.4046C36.6275 77.2126 36.6195 77.0086 36.6115 76.7926C36.6035 76.5766 36.5795 76.3646 36.5395 76.1566C36.5075 75.9486 36.4675 75.7526 36.4195 75.5686C36.3715 75.3766 36.2955 75.2126 36.1915 75.0766C36.0875 74.9326 35.9515 74.8206 35.7835 74.7406C35.6155 74.6526 35.3915 74.6086 35.1115 74.6086H32.3275V78.2686H31.1875V69.7006ZM34.7035 73.6486C34.9675 73.6486 35.2195 73.6286 35.4595 73.5886C35.6995 73.5486 35.9075 73.4726 36.0835 73.3606C36.2675 73.2406 36.4115 73.0846 36.5155 72.8926C36.6275 72.6926 36.6835 72.4366 36.6835 72.1246C36.6835 71.6926 36.5635 71.3406 36.3235 71.0686C36.0835 70.7966 35.6955 70.6606 35.1595 70.6606H32.3275V73.6486H34.7035ZM46.7862 74.0566C46.7062 73.6646 46.5382 73.3606 46.2822 73.1446C46.0262 72.9286 45.6822 72.8206 45.2502 72.8206C44.8822 72.8206 44.5742 72.8886 44.3262 73.0246C44.0782 73.1606 43.8782 73.3406 43.7262 73.5646C43.5822 73.7886 43.4782 74.0486 43.4142 74.3446C43.3502 74.6326 43.3182 74.9326 43.3182 75.2446C43.3182 75.5326 43.3502 75.8126 43.4142 76.0846C43.4862 76.3566 43.5942 76.6006 43.7382 76.8166C43.8822 77.0246 44.0702 77.1926 44.3022 77.3206C44.5342 77.4486 44.8102 77.5126 45.1302 77.5126C45.6342 77.5126 46.0262 77.3806 46.3062 77.1166C46.5942 76.8526 46.7702 76.4806 46.8342 76.0006H47.8782C47.7662 76.7686 47.4782 77.3606 47.0142 77.7766C46.5582 78.1926 45.9342 78.4006 45.1422 78.4006C44.6702 78.4006 44.2502 78.3246 43.8822 78.1726C43.5222 78.0206 43.2182 77.8046 42.9702 77.5246C42.7302 77.2446 42.5462 76.9126 42.4182 76.5286C42.2982 76.1366 42.2382 75.7086 42.2382 75.2446C42.2382 74.7806 42.2982 74.3486 42.4182 73.9486C42.5382 73.5406 42.7182 73.1886 42.9582 72.8926C43.2062 72.5886 43.5142 72.3526 43.8822 72.1846C44.2502 72.0086 44.6782 71.9206 45.1662 71.9206C45.5182 71.9206 45.8462 71.9646 46.1502 72.0526C46.4622 72.1326 46.7342 72.2606 46.9662 72.4366C47.2062 72.6126 47.4022 72.8366 47.5542 73.1086C47.7062 73.3726 47.8022 73.6886 47.8422 74.0566H46.7862ZM49.7635 75.1726C49.7635 75.5486 49.8115 75.8846 49.9075 76.1806C50.0115 76.4686 50.1515 76.7126 50.3275 76.9126C50.5035 77.1046 50.7075 77.2526 50.9395 77.3566C51.1795 77.4606 51.4315 77.5126 51.6955 77.5126C51.9595 77.5126 52.2075 77.4606 52.4395 77.3566C52.6795 77.2526 52.8875 77.1046 53.0635 76.9126C53.2395 76.7126 53.3755 76.4686 53.4715 76.1806C53.5755 75.8846 53.6275 75.5486 53.6275 75.1726C53.6275 74.7966 53.5755 74.4646 53.4715 74.1766C53.3755 73.8806 53.2395 73.6326 53.0635 73.4326C52.8875 73.2326 52.6795 73.0806 52.4395 72.9766C52.2075 72.8726 51.9595 72.8206 51.6955 72.8206C51.4315 72.8206 51.1795 72.8726 50.9395 72.9766C50.7075 73.0806 50.5035 73.2326 50.3275 73.4326C50.1515 73.6326 50.0115 73.8806 49.9075 74.1766C49.8115 74.4646 49.7635 74.7966 49.7635 75.1726ZM48.6835 75.1726C48.6835 74.7166 48.7475 74.2926 48.8755 73.9006C49.0035 73.5006 49.1955 73.1566 49.4515 72.8686C49.7075 72.5726 50.0235 72.3406 50.3995 72.1726C50.7755 72.0046 51.2075 71.9206 51.6955 71.9206C52.1915 71.9206 52.6235 72.0046 52.9915 72.1726C53.3675 72.3406 53.6835 72.5726 53.9395 72.8686C54.1955 73.1566 54.3875 73.5006 54.5155 73.9006C54.6435 74.2926 54.7075 74.7166 54.7075 75.1726C54.7075 75.6286 54.6435 76.0526 54.5155 76.4446C54.3875 76.8366 54.1955 77.1806 53.9395 77.4766C53.6835 77.7646 53.3675 77.9926 52.9915 78.1606C52.6235 78.3206 52.1915 78.4006 51.6955 78.4006C51.2075 78.4006 50.7755 78.3206 50.3995 78.1606C50.0235 77.9926 49.7075 77.7646 49.4515 77.4766C49.1955 77.1806 49.0035 76.8366 48.8755 76.4446C48.7475 76.0526 48.6835 75.6286 48.6835 75.1726ZM56.6541 75.2206C56.6541 75.5086 56.6901 75.7926 56.7621 76.0726C56.8421 76.3446 56.9581 76.5886 57.1101 76.8046C57.2701 77.0206 57.4701 77.1926 57.7101 77.3206C57.9581 77.4486 58.2461 77.5126 58.5741 77.5126C58.9181 77.5126 59.2101 77.4446 59.4501 77.3086C59.6901 77.1726 59.8861 76.9966 60.0381 76.7806C60.1901 76.5566 60.2981 76.3046 60.3621 76.0246C60.4341 75.7446 60.4701 75.4606 60.4701 75.1726C60.4701 74.8686 60.4341 74.5766 60.3621 74.2966C60.2901 74.0086 60.1741 73.7566 60.0141 73.5406C59.8621 73.3246 59.6621 73.1526 59.4141 73.0246C59.1661 72.8886 58.8661 72.8206 58.5141 72.8206C58.1701 72.8206 57.8781 72.8886 57.6381 73.0246C57.3981 73.1606 57.2061 73.3406 57.0621 73.5646C56.9181 73.7886 56.8141 74.0446 56.7501 74.3326C56.6861 74.6206 56.6541 74.9166 56.6541 75.2206ZM61.4541 78.2686H60.4341V77.4286H60.4101C60.2421 77.7726 59.9781 78.0206 59.6181 78.1726C59.2581 78.3246 58.8621 78.4006 58.4301 78.4006C57.9501 78.4006 57.5301 78.3126 57.1701 78.1366C56.8181 77.9606 56.5221 77.7246 56.2821 77.4286C56.0501 77.1326 55.8741 76.7886 55.7541 76.3966C55.6341 76.0046 55.5741 75.5886 55.5741 75.1486C55.5741 74.7086 55.6301 74.2926 55.7421 73.9006C55.8621 73.5086 56.0381 73.1686 56.2701 72.8806C56.5101 72.5846 56.8061 72.3526 57.1581 72.1846C57.5181 72.0086 57.9341 71.9206 58.4061 71.9206C58.5661 71.9206 58.7381 71.9366 58.9221 71.9686C59.1061 72.0006 59.2901 72.0566 59.4741 72.1366C59.6581 72.2086 59.8301 72.3086 59.9901 72.4366C60.1581 72.5566 60.2981 72.7086 60.4101 72.8926H60.4341V69.7006H61.4541V78.2686ZM67.3314 74.5726C67.3154 74.3326 67.2594 74.1046 67.1634 73.8886C67.0754 73.6726 66.9514 73.4886 66.7914 73.3366C66.6394 73.1766 66.4554 73.0526 66.2394 72.9646C66.0314 72.8686 65.7994 72.8206 65.5434 72.8206C65.2794 72.8206 65.0394 72.8686 64.8234 72.9646C64.6154 73.0526 64.4354 73.1766 64.2834 73.3366C64.1314 73.4966 64.0114 73.6846 63.9234 73.9006C63.8354 74.1086 63.7834 74.3326 63.7674 74.5726H67.3314ZM68.3154 76.3006C68.1794 76.9966 67.8794 77.5206 67.4154 77.8726C66.9514 78.2246 66.3674 78.4006 65.6634 78.4006C65.1674 78.4006 64.7354 78.3206 64.3674 78.1606C64.0074 78.0006 63.7034 77.7766 63.4554 77.4886C63.2074 77.2006 63.0194 76.8566 62.8914 76.4566C62.7714 76.0566 62.7034 75.6206 62.6874 75.1486C62.6874 74.6766 62.7594 74.2446 62.9034 73.8526C63.0474 73.4606 63.2474 73.1206 63.5034 72.8326C63.7674 72.5446 64.0754 72.3206 64.4274 72.1606C64.7874 72.0006 65.1794 71.9206 65.6034 71.9206C66.1554 71.9206 66.6114 72.0366 66.9714 72.2686C67.3394 72.4926 67.6314 72.7806 67.8474 73.1326C68.0714 73.4846 68.2234 73.8686 68.3034 74.2846C68.3914 74.7006 68.4274 75.0966 68.4114 75.4726H63.7674C63.7594 75.7446 63.7914 76.0046 63.8634 76.2526C63.9354 76.4926 64.0514 76.7086 64.2114 76.9006C64.3714 77.0846 64.5754 77.2326 64.8234 77.3446C65.0714 77.4566 65.3634 77.5126 65.6994 77.5126C66.1314 77.5126 66.4834 77.4126 66.7554 77.2126C67.0354 77.0126 67.2194 76.7086 67.3074 76.3006H68.3154ZM72.8445 72.0646H73.8645V72.9046H73.8885C74.0565 72.5606 74.3205 72.3126 74.6805 72.1606C75.0405 72.0006 75.4365 71.9206 75.8685 71.9206C76.3485 71.9206 76.7645 72.0086 77.1165 72.1846C77.4765 72.3606 77.7725 72.6006 78.0045 72.9046C78.2445 73.2006 78.4245 73.5446 78.5445 73.9366C78.6645 74.3286 78.7245 74.7446 78.7245 75.1846C78.7245 75.6246 78.6645 76.0406 78.5445 76.4326C78.4325 76.8246 78.2565 77.1686 78.0165 77.4646C77.7845 77.7526 77.4885 77.9806 77.1285 78.1486C76.7765 78.3166 76.3645 78.4006 75.8925 78.4006C75.7405 78.4006 75.5685 78.3846 75.3765 78.3526C75.1925 78.3206 75.0085 78.2686 74.8245 78.1966C74.6405 78.1246 74.4645 78.0286 74.2965 77.9086C74.1365 77.7806 74.0005 77.6246 73.8885 77.4406H73.8645V80.6326H72.8445V72.0646ZM77.6445 75.1126C77.6445 74.8246 77.6045 74.5446 77.5245 74.2726C77.4525 73.9926 77.3365 73.7446 77.1765 73.5286C77.0245 73.3126 76.8245 73.1406 76.5765 73.0126C76.3365 72.8846 76.0525 72.8206 75.7245 72.8206C75.3805 72.8206 75.0885 72.8886 74.8485 73.0246C74.6085 73.1606 74.4125 73.3406 74.2605 73.5646C74.1085 73.7806 73.9965 74.0286 73.9245 74.3086C73.8605 74.5886 73.8285 74.8726 73.8285 75.1606C73.8285 75.4646 73.8645 75.7606 73.9365 76.0486C74.0085 76.3286 74.1205 76.5766 74.2725 76.7926C74.4325 77.0086 74.6365 77.1846 74.8845 77.3206C75.1325 77.4486 75.4325 77.5126 75.7845 77.5126C76.1365 77.5126 76.4285 77.4446 76.6605 77.3086C76.9005 77.1726 77.0925 76.9926 77.2365 76.7686C77.3805 76.5446 77.4845 76.2886 77.5485 76.0006C77.6125 75.7126 77.6445 75.4166 77.6445 75.1126ZM85.4178 78.2446C85.2418 78.3486 84.9978 78.4006 84.6858 78.4006C84.4218 78.4006 84.2098 78.3286 84.0498 78.1846C83.8978 78.0326 83.8218 77.7886 83.8218 77.4526C83.5418 77.7886 83.2138 78.0326 82.8378 78.1846C82.4698 78.3286 82.0698 78.4006 81.6378 78.4006C81.3578 78.4006 81.0898 78.3686 80.8338 78.3046C80.5858 78.2406 80.3698 78.1406 80.1858 78.0046C80.0018 77.8686 79.8538 77.6926 79.7418 77.4766C79.6378 77.2526 79.5858 76.9846 79.5858 76.6726C79.5858 76.3206 79.6458 76.0326 79.7658 75.8086C79.8858 75.5846 80.0418 75.4046 80.2338 75.2686C80.4338 75.1246 80.6578 75.0166 80.9058 74.9446C81.1618 74.8726 81.4218 74.8126 81.6858 74.7646C81.9658 74.7086 82.2298 74.6686 82.4778 74.6446C82.7338 74.6126 82.9578 74.5726 83.1498 74.5246C83.3418 74.4686 83.4938 74.3926 83.6058 74.2966C83.7178 74.1926 83.7738 74.0446 83.7738 73.8526C83.7738 73.6286 83.7298 73.4486 83.6418 73.3126C83.5618 73.1766 83.4538 73.0726 83.3178 73.0006C83.1898 72.9286 83.0418 72.8806 82.8738 72.8566C82.7138 72.8326 82.5538 72.8206 82.3938 72.8206C81.9618 72.8206 81.6018 72.9046 81.3138 73.0726C81.0258 73.2326 80.8698 73.5406 80.8458 73.9966H79.8258C79.8418 73.6126 79.9218 73.2886 80.0658 73.0246C80.2098 72.7606 80.4018 72.5486 80.6418 72.3886C80.8818 72.2206 81.1538 72.1006 81.4578 72.0286C81.7698 71.9566 82.1018 71.9206 82.4538 71.9206C82.7338 71.9206 83.0098 71.9406 83.2818 71.9806C83.5618 72.0206 83.8138 72.1046 84.0378 72.2326C84.2618 72.3526 84.4418 72.5246 84.5778 72.7486C84.7138 72.9726 84.7818 73.2646 84.7818 73.6246V76.8166C84.7818 77.0566 84.7938 77.2326 84.8178 77.3446C84.8498 77.4566 84.9458 77.5126 85.1058 77.5126C85.1938 77.5126 85.2978 77.4926 85.4178 77.4526V78.2446ZM83.7618 75.0646C83.6338 75.1606 83.4658 75.2326 83.2578 75.2806C83.0498 75.3206 82.8298 75.3566 82.5978 75.3886C82.3738 75.4126 82.1458 75.4446 81.9138 75.4846C81.6818 75.5166 81.4738 75.5726 81.2898 75.6526C81.1058 75.7326 80.9538 75.8486 80.8338 76.0006C80.7218 76.1446 80.6658 76.3446 80.6658 76.6006C80.6658 76.7686 80.6978 76.9126 80.7618 77.0326C80.8338 77.1446 80.9218 77.2366 81.0258 77.3086C81.1378 77.3806 81.2658 77.4326 81.4098 77.4646C81.5538 77.4966 81.7058 77.5126 81.8658 77.5126C82.2018 77.5126 82.4898 77.4686 82.7298 77.3806C82.9698 77.2846 83.1658 77.1686 83.3178 77.0326C83.4698 76.8886 83.5818 76.7366 83.6538 76.5766C83.7258 76.4086 83.7618 76.2526 83.7618 76.1086V75.0646ZM87.7831 72.0646H89.0191V72.9646H87.7831V76.8166C87.7831 76.9366 87.7911 77.0326 87.8071 77.1046C87.8311 77.1766 87.8711 77.2326 87.9271 77.2726C87.9831 77.3126 88.0591 77.3406 88.1551 77.3566C88.2591 77.3646 88.3911 77.3686 88.5511 77.3686H89.0191V78.2686H88.2391C87.9751 78.2686 87.7471 78.2526 87.5551 78.2206C87.3711 78.1806 87.2191 78.1126 87.0991 78.0166C86.9871 77.9206 86.9031 77.7846 86.8471 77.6086C86.7911 77.4326 86.7631 77.2006 86.7631 76.9126V72.9646H85.7071V72.0646H86.7631V70.2046H87.7831V72.0646ZM91.5683 72.0646H92.8043V72.9646H91.5683V76.8166C91.5683 76.9366 91.5763 77.0326 91.5923 77.1046C91.6163 77.1766 91.6563 77.2326 91.7123 77.2726C91.7683 77.3126 91.8443 77.3406 91.9403 77.3566C92.0443 77.3646 92.1763 77.3686 92.3363 77.3686H92.8043V78.2686H92.0243C91.7603 78.2686 91.5323 78.2526 91.3403 78.2206C91.1563 78.1806 91.0043 78.1126 90.8843 78.0166C90.7723 77.9206 90.6883 77.7846 90.6323 77.6086C90.5763 77.4326 90.5483 77.2006 90.5483 76.9126V72.9646H89.4923V72.0646H90.5483V70.2046H91.5683V72.0646ZM98.2454 74.5726C98.2294 74.3326 98.1734 74.1046 98.0774 73.8886C97.9894 73.6726 97.8654 73.4886 97.7054 73.3366C97.5534 73.1766 97.3694 73.0526 97.1534 72.9646C96.9454 72.8686 96.7134 72.8206 96.4574 72.8206C96.1934 72.8206 95.9534 72.8686 95.7374 72.9646C95.5294 73.0526 95.3494 73.1766 95.1974 73.3366C95.0454 73.4966 94.9254 73.6846 94.8374 73.9006C94.7494 74.1086 94.6974 74.3326 94.6814 74.5726H98.2454ZM99.2294 76.3006C99.0934 76.9966 98.7934 77.5206 98.3294 77.8726C97.8654 78.2246 97.2814 78.4006 96.5774 78.4006C96.0814 78.4006 95.6494 78.3206 95.2814 78.1606C94.9214 78.0006 94.6174 77.7766 94.3694 77.4886C94.1214 77.2006 93.9334 76.8566 93.8054 76.4566C93.6854 76.0566 93.6174 75.6206 93.6014 75.1486C93.6014 74.6766 93.6734 74.2446 93.8174 73.8526C93.9614 73.4606 94.1614 73.1206 94.4174 72.8326C94.6814 72.5446 94.9894 72.3206 95.3414 72.1606C95.7014 72.0006 96.0934 71.9206 96.5174 71.9206C97.0694 71.9206 97.5254 72.0366 97.8854 72.2686C98.2534 72.4926 98.5454 72.7806 98.7614 73.1326C98.9854 73.4846 99.1374 73.8686 99.2174 74.2846C99.3054 74.7006 99.3414 75.0966 99.3254 75.4726H94.6814C94.6734 75.7446 94.7054 76.0046 94.7774 76.2526C94.8494 76.4926 94.9654 76.7086 95.1254 76.9006C95.2854 77.0846 95.4894 77.2326 95.7374 77.3446C95.9854 77.4566 96.2774 77.5126 96.6134 77.5126C97.0454 77.5126 97.3974 77.4126 97.6694 77.2126C97.9494 77.0126 98.1334 76.7086 98.2214 76.3006H99.2294ZM100.347 72.0646H101.307V73.3726H101.331C101.579 72.8686 101.883 72.4966 102.243 72.2566C102.603 72.0166 103.059 71.9046 103.611 71.9206V73.0006C103.203 73.0006 102.855 73.0566 102.567 73.1686C102.279 73.2806 102.047 73.4446 101.871 73.6606C101.695 73.8766 101.567 74.1406 101.487 74.4526C101.407 74.7566 101.367 75.1086 101.367 75.5086V78.2686H100.347V72.0646ZM104.59 72.0646H105.55V73.0486H105.574C105.998 72.2966 106.67 71.9206 107.59 71.9206C107.998 71.9206 108.338 71.9766 108.61 72.0886C108.882 72.2006 109.102 72.3566 109.27 72.5566C109.438 72.7566 109.554 72.9966 109.618 73.2766C109.69 73.5486 109.726 73.8526 109.726 74.1886V78.2686H108.706V74.0686C108.706 73.6846 108.594 73.3806 108.37 73.1566C108.146 72.9326 107.838 72.8206 107.446 72.8206C107.134 72.8206 106.862 72.8686 106.63 72.9646C106.406 73.0606 106.218 73.1966 106.066 73.3726C105.914 73.5486 105.798 73.7566 105.718 73.9966C105.646 74.2286 105.61 74.4846 105.61 74.7646V78.2686H104.59V72.0646Z" fill="#0A0909"/>
<g clip-path="url(#clip0_0_2581)">
<mask id="mask0_0_2581" style="mask-type:luminance" maskUnits="userSpaceOnUse" x="21" y="87" width="311" height="45">
<path d="M331.985 87.7912H21.1343V131.821H331.985V87.7912Z" fill="white"/>
</mask>
<g mask="url(#mask0_0_2581)">
<path d="M26.9343 88.0818H59.4112C62.454 88.0818 64.9207 90.5459 64.9207 93.5855V126.029C64.9207 129.068 62.454 131.532 59.4112 131.532H26.9343C23.8915 131.532 21.4248 129.068 21.4248 126.029V93.5855C21.4248 90.5459 23.8915 88.0818 26.9343 88.0818Z" fill="white"/>
<path d="M26.9343 88.0818H59.4112C62.454 88.0818 64.9207 90.5459 64.9207 93.5855V126.029C64.9207 129.068 62.454 131.532 59.4112 131.532H26.9343C23.8915 131.532 21.4248 129.068 21.4248 126.029V93.5855C21.4248 90.5459 23.8915 88.0818 26.9343 88.0818Z" stroke="#CDD0DB" stroke-width="0.880597"/>
<path d="M52.7416 99.379H51.0018C50.5213 99.379 50.1318 99.7681 50.1318 100.248V101.986C50.1318 102.466 50.5213 102.855 51.0018 102.855H52.7416C53.222 102.855 53.6115 102.466 53.6115 101.986V100.248C53.6115 99.7681 53.222 99.379 52.7416 99.379Z" fill="#0A0909"/>
<path d="M33.6031 106.331H35.3429C35.5736 106.331 35.7949 106.24 35.9581 106.077C36.1212 105.914 36.2128 105.693 36.2128 105.462V102.855H38.8226C39.0533 102.855 39.2746 102.764 39.4377 102.601C39.6009 102.438 39.6925 102.217 39.6925 101.986V100.248C39.6925 100.018 39.6009 99.7965 39.4377 99.6335C39.2746 99.4706 39.0533 99.379 38.8226 99.379H33.6031C33.3724 99.379 33.1511 99.4706 32.9879 99.6335C32.8248 99.7965 32.7332 100.018 32.7332 100.248V105.462C32.7332 105.693 32.8248 105.914 32.9879 106.077C33.1511 106.24 33.3724 106.331 33.6031 106.331Z" fill="#0A0909"/>
<path d="M46.6518 114.152C46.6518 113.922 46.5602 113.7 46.3971 113.538C46.2339 113.375 46.0126 113.283 45.7819 113.283H43.1722V110.676C43.1722 110.446 43.0805 110.224 42.9174 110.061C42.7543 109.899 42.533 109.807 42.3023 109.807H39.6925V107.2C39.6925 106.969 39.6009 106.748 39.4377 106.585C39.2746 106.422 39.0533 106.331 38.8226 106.331H37.0827C36.852 106.331 36.6307 106.422 36.4676 106.585C36.3045 106.748 36.2128 106.969 36.2128 107.2V109.807H33.6031C33.3724 109.807 33.1511 109.899 32.9879 110.061C32.8248 110.224 32.7332 110.446 32.7332 110.676V119.366C32.7332 119.597 32.8248 119.818 32.9879 119.981C33.1511 120.144 33.3724 120.235 33.6031 120.235H42.3023C42.533 120.235 42.7543 120.144 42.9174 119.981C43.0805 119.818 43.1722 119.597 43.1722 119.366V116.759H45.7819C46.0126 116.759 46.2339 116.668 46.3971 116.505C46.5602 116.342 46.6518 116.121 46.6518 115.89V114.152ZM39.6925 116.759H36.2128V113.283H39.6925V116.759Z" fill="#0A0909"/>
<path d="M52.7425 106.331H46.6531V100.248C46.6531 100.018 46.5614 99.7965 46.3983 99.6335C46.2352 99.4706 46.0139 99.379 45.7832 99.379H44.0433C43.8126 99.379 43.5913 99.4706 43.4282 99.6335C43.265 99.7965 43.1734 100.018 43.1734 100.248V102.855H40.5636C40.3329 102.855 40.1116 102.947 39.9485 103.11C39.7854 103.273 39.6937 103.494 39.6937 103.724V105.462C39.6937 105.693 39.7854 105.914 39.9485 106.077C40.1116 106.24 40.3329 106.331 40.5636 106.331H43.1734V108.938C43.1734 109.169 43.265 109.39 43.4282 109.553C43.5913 109.716 43.8126 109.807 44.0433 109.807H46.6531V112.414C46.6531 112.645 46.7447 112.866 46.9078 113.029C47.071 113.192 47.2923 113.283 47.523 113.283H50.1327V116.759H47.523C47.2923 116.759 47.071 116.851 46.9078 117.014C46.7447 117.177 46.6531 117.398 46.6531 117.628V119.366C46.6531 119.597 46.7447 119.818 46.9078 119.981C47.071 120.144 47.2923 120.235 47.523 120.235H52.7425C52.9732 120.235 53.1945 120.144 53.3576 119.981C53.5208 119.818 53.6124 119.597 53.6124 119.366V107.2C53.6124 106.97 53.5208 106.749 53.3576 106.586C53.1945 106.423 52.9732 106.331 52.7425 106.331Z" fill="#0A0909"/>
<path d="M80.2895 88.0818H112.766C115.809 88.0818 118.276 90.5459 118.276 93.5855V126.029C118.276 129.068 115.809 131.532 112.766 131.532H80.2895C77.2467 131.532 74.78 129.068 74.78 126.029V93.5855C74.78 90.5459 77.2467 88.0818 80.2895 88.0818Z" fill="white"/>
<path d="M80.2895 88.0818H112.766C115.809 88.0818 118.276 90.5459 118.276 93.5855V126.029C118.276 129.068 115.809 131.532 112.766 131.532H80.2895C77.2467 131.532 74.78 129.068 74.78 126.029V93.5855C74.78 90.5459 77.2467 88.0818 80.2895 88.0818Z" stroke="#CDD0DB" stroke-width="0.880597"/>
<path d="M91.3077 109.807C92.2687 109.807 93.0475 109.029 93.0475 108.069C93.0475 107.109 92.2687 106.331 91.3077 106.331C90.3467 106.331 89.5679 107.109 89.5679 108.069C89.5679 109.029 90.3467 109.807 91.3077 109.807Z" fill="#0A0909"/>
<path d="M94.7871 113.283C95.748 113.283 96.5269 112.505 96.5269 111.545C96.5269 110.585 95.748 109.807 94.7871 109.807C93.8261 109.807 93.0472 110.585 93.0472 111.545C93.0472 112.505 93.8261 113.283 94.7871 113.283Z" fill="#0A0909"/>
<path d="M91.3077 113.283C92.2687 113.283 93.0475 112.505 93.0475 111.545C93.0475 110.585 92.2687 109.807 91.3077 109.807C90.3467 109.807 89.5679 110.585 89.5679 111.545C89.5679 112.505 90.3467 113.283 91.3077 113.283Z" fill="#0A0909"/>
<path d="M87.8282 113.283C88.7892 113.283 89.5681 112.505 89.5681 111.545C89.5681 110.585 88.7892 109.807 87.8282 109.807C86.8672 109.807 86.0884 110.585 86.0884 111.545C86.0884 112.505 86.8672 113.283 87.8282 113.283Z" fill="#0A0909"/>
<path d="M94.7871 120.235C95.748 120.235 96.5269 119.457 96.5269 118.497C96.5269 117.537 95.748 116.759 94.7871 116.759C93.8261 116.759 93.0472 117.537 93.0472 118.497C93.0472 119.457 93.8261 120.235 94.7871 120.235Z" fill="#0A0909"/>
<path d="M91.3077 120.235C92.2687 120.235 93.0475 119.457 93.0475 118.497C93.0475 117.537 92.2687 116.759 91.3077 116.759C90.3467 116.759 89.5679 117.537 89.5679 118.497C89.5679 119.457 90.3467 120.235 91.3077 120.235Z" fill="#0A0909"/>
<path d="M87.8282 120.235C88.7892 120.235 89.5681 119.457 89.5681 118.497C89.5681 117.537 88.7892 116.759 87.8282 116.759C86.8672 116.759 86.0884 117.537 86.0884 118.497C86.0884 119.457 86.8672 120.235 87.8282 120.235Z" fill="#0A0909"/>
<path d="M94.7871 116.759C95.748 116.759 96.5269 115.981 96.5269 115.021C96.5269 114.061 95.748 113.283 94.7871 113.283C93.8261 113.283 93.0472 114.061 93.0472 115.021C93.0472 115.981 93.8261 116.759 94.7871 116.759Z" fill="#0A0909"/>
<path d="M87.8282 116.759C88.7892 116.759 89.5681 115.981 89.5681 115.021C89.5681 114.061 88.7892 113.283 87.8282 113.283C86.8672 113.283 86.0884 114.061 86.0884 115.021C86.0884 115.981 86.8672 116.759 87.8282 116.759Z" fill="#0A0909"/>
<path d="M94.7871 106.331C95.748 106.331 96.5269 105.553 96.5269 104.593C96.5269 103.633 95.748 102.855 94.7871 102.855C93.8261 102.855 93.0472 103.633 93.0472 104.593C93.0472 105.553 93.8261 106.331 94.7871 106.331Z" fill="#0A0909"/>
<path d="M98.2682 102.855C99.2291 102.855 100.008 102.077 100.008 101.117C100.008 100.157 99.2291 99.379 98.2682 99.379C97.3072 99.379 96.5283 100.157 96.5283 101.117C96.5283 102.077 97.3072 102.855 98.2682 102.855Z" fill="#0A0909"/>
<path d="M98.2682 106.331C99.2291 106.331 100.008 105.553 100.008 104.593C100.008 103.633 99.2291 102.855 98.2682 102.855C97.3072 102.855 96.5283 103.633 96.5283 104.593C96.5283 105.553 97.3072 106.331 98.2682 106.331Z" fill="#0A0909"/>
<path d="M98.2682 109.807C99.2291 109.807 100.008 109.029 100.008 108.069C100.008 107.109 99.2291 106.331 98.2682 106.331C97.3072 106.331 96.5283 107.109 96.5283 108.069C96.5283 109.029 97.3072 109.807 98.2682 109.807Z" fill="#0A0909"/>
<path d="M101.748 109.807C102.708 109.807 103.487 109.029 103.487 108.069C103.487 107.109 102.708 106.331 101.748 106.331C100.787 106.331 100.008 107.109 100.008 108.069C100.008 109.029 100.787 109.807 101.748 109.807Z" fill="#0A0909"/>
<path d="M105.227 102.855C106.188 102.855 106.967 102.077 106.967 101.117C106.967 100.157 106.188 99.379 105.227 99.379C104.266 99.379 103.487 100.157 103.487 101.117C103.487 102.077 104.266 102.855 105.227 102.855Z" fill="#0A0909"/>
<path d="M105.227 109.807C106.188 109.807 106.967 109.029 106.967 108.069C106.967 107.109 106.188 106.331 105.227 106.331C104.266 106.331 103.487 107.109 103.487 108.069C103.487 109.029 104.266 109.807 105.227 109.807Z" fill="#0A0909"/>
<path d="M105.227 113.283C106.188 113.283 106.967 112.505 106.967 111.545C106.967 110.585 106.188 109.807 105.227 109.807C104.266 109.807 103.487 110.585 103.487 111.545C103.487 112.505 104.266 113.283 105.227 113.283Z" fill="#0A0909"/>
<path d="M87.8282 106.331C88.7892 106.331 89.5681 105.553 89.5681 104.593C89.5681 103.633 88.7892 102.855 87.8282 102.855C86.8672 102.855 86.0884 103.633 86.0884 104.593C86.0884 105.553 86.8672 106.331 87.8282 106.331Z" fill="#0A0909"/>
<path d="M87.8282 102.855C88.7892 102.855 89.5681 102.077 89.5681 101.117C89.5681 100.157 88.7892 99.379 87.8282 99.379C86.8672 99.379 86.0884 100.157 86.0884 101.117C86.0884 102.077 86.8672 102.855 87.8282 102.855Z" fill="#0A0909"/>
<path d="M91.3077 102.855C92.2687 102.855 93.0475 102.077 93.0475 101.117C93.0475 100.157 92.2687 99.379 91.3077 99.379C90.3467 99.379 89.5679 100.157 89.5679 101.117C89.5679 102.077 90.3467 102.855 91.3077 102.855Z" fill="#0A0909"/>
<path d="M98.2682 116.759C99.2291 116.759 100.008 115.981 100.008 115.021C100.008 114.061 99.2291 113.283 98.2682 113.283C97.3072 113.283 96.5283 114.061 96.5283 115.021C96.5283 115.981 97.3072 116.759 98.2682 116.759Z" fill="#0A0909"/>
<path d="M101.748 113.283C102.708 113.283 103.487 112.505 103.487 111.545C103.487 110.585 102.708 109.807 101.748 109.807C100.787 109.807 100.008 110.585 100.008 111.545C100.008 112.505 100.787 113.283 101.748 113.283Z" fill="#0A0909"/>
<path d="M105.227 116.759C106.188 116.759 106.967 115.981 106.967 115.021C106.967 114.061 106.188 113.283 105.227 113.283C104.266 113.283 103.487 114.061 103.487 115.021C103.487 115.981 104.266 116.759 105.227 116.759Z" fill="#0A0909"/>
<path d="M105.227 120.235C106.188 120.235 106.967 119.457 106.967 118.497C106.967 117.537 106.188 116.759 105.227 116.759C104.266 116.759 103.487 117.537 103.487 118.497C103.487 119.457 104.266 120.235 105.227 120.235Z" fill="#0A0909"/>
<path d="M101.748 120.235C102.708 120.235 103.487 119.457 103.487 118.497C103.487 117.537 102.708 116.759 101.748 116.759C100.787 116.759 100.008 117.537 100.008 118.497C100.008 119.457 100.787 120.235 101.748 120.235Z" fill="#0A0909"/>
<path d="M133.645 88.0818H166.122C169.165 88.0818 171.631 90.5459 171.631 93.5855V126.029C171.631 129.068 169.165 131.532 166.122 131.532H133.645C130.602 131.532 128.135 129.068 128.135 126.029V93.5855C128.135 90.5459 130.602 88.0818 133.645 88.0818Z" fill="white"/>
<path d="M133.645 88.0818H166.122C169.165 88.0818 171.631 90.5459 171.631 93.5855V126.029C171.631 129.068 169.165 131.532 166.122 131.532H133.645C130.602 131.532 128.135 129.068 128.135 126.029V93.5855C128.135 90.5459 130.602 88.0818 133.645 88.0818Z" stroke="#CDD0DB" stroke-width="0.880597"/>
<path d="M153.362 106.331V99.379H150.752C150.521 99.379 150.3 99.4706 150.137 99.6335C149.974 99.7965 149.882 100.018 149.882 100.248V102.855H147.272C147.042 102.855 146.821 102.947 146.657 103.11C146.494 103.273 146.402 103.494 146.402 103.724V106.331H149.882V109.807H153.362V113.283H156.841V116.759H154.232C154.001 116.759 153.78 116.851 153.616 117.014C153.453 117.177 153.362 117.398 153.362 117.628V120.235H159.451C159.682 120.235 159.903 120.144 160.067 119.981C160.23 119.818 160.321 119.597 160.321 119.366V106.331H153.362Z" fill="#0A0909"/>
<path d="M157.712 99.379C157.481 99.379 157.26 99.4706 157.097 99.6335C156.934 99.7965 156.842 100.018 156.842 100.248V102.855H159.452C159.683 102.855 159.904 102.764 160.067 102.601C160.23 102.438 160.322 102.217 160.322 101.986V99.379H157.712Z" fill="#0A0909"/>
<path d="M142.923 105.462V102.855H145.533C145.764 102.855 145.985 102.764 146.148 102.601C146.311 102.438 146.403 102.217 146.403 101.986V99.379H140.314C140.083 99.379 139.862 99.4706 139.698 99.6335C139.535 99.7965 139.444 100.018 139.444 100.248V106.331H142.053C142.284 106.331 142.505 106.24 142.669 106.077C142.832 105.914 142.923 105.693 142.923 105.462Z" fill="#0A0909"/>
<path d="M149.883 109.807H146.403V106.331H143.793C143.562 106.331 143.341 106.422 143.178 106.585C143.015 106.748 142.923 106.969 142.923 107.2V109.807H140.314C140.083 109.807 139.862 109.899 139.698 110.061C139.535 110.224 139.444 110.446 139.444 110.676V120.235H149.013C149.244 120.235 149.464 120.144 149.628 119.981C149.791 119.818 149.883 119.597 149.883 119.366V116.759H152.492C152.723 116.759 152.944 116.668 153.108 116.505C153.271 116.342 153.362 116.121 153.362 115.89V113.283H149.883V109.807ZM146.403 116.759H142.923V113.283H146.403V116.759Z" fill="#0A0909"/>
<path d="M187 88.0818H219.477C222.52 88.0818 224.986 90.5459 224.986 93.5855V126.029C224.986 129.068 222.52 131.532 219.477 131.532H187C183.957 131.532 181.49 129.068 181.49 126.029V93.5855C181.49 90.5459 183.957 88.0818 187 88.0818Z" fill="white"/>
<path d="M187 88.0818H219.477C222.52 88.0818 224.986 90.5459 224.986 93.5855V126.029C224.986 129.068 222.52 131.532 219.477 131.532H187C183.957 131.532 181.49 129.068 181.49 126.029V93.5855C181.49 90.5459 183.957 88.0818 187 88.0818Z" stroke="#CDD0DB" stroke-width="0.880597"/>
<path d="M206.678 106.331C206.717 106.188 206.717 99.379 206.717 99.379H205.847C205.155 99.379 204.491 99.6537 204.002 100.143C203.512 100.632 203.237 101.295 203.237 101.986V102.855H202.367C201.676 102.855 201.012 103.13 200.522 103.619C200.033 104.108 199.758 104.771 199.758 105.462V106.331H203.237V109.807H206.717V113.283H210.197V116.759H209.327C208.635 116.759 207.971 117.034 207.481 117.523C206.992 118.012 206.717 118.675 206.717 119.366V120.235H211.067C211.758 120.235 212.423 119.961 212.912 119.472C213.401 118.983 213.676 118.32 213.676 117.628V106.331H206.678Z" fill="#0A0909"/>
<path d="M212.807 99.379C212.115 99.379 211.451 99.6537 210.962 100.143C210.472 100.632 210.198 101.295 210.198 101.986V102.855H211.067C211.759 102.855 212.423 102.58 212.913 102.091C213.402 101.603 213.677 100.939 213.677 100.248V99.379H212.807Z" fill="#0A0909"/>
<path d="M196.279 103.724V102.855H197.148C197.84 102.855 198.504 102.58 198.994 102.091C199.483 101.603 199.758 100.939 199.758 100.248V99.379H195.409C194.717 99.379 194.053 99.6537 193.563 100.143C193.074 100.632 192.799 101.295 192.799 101.986V106.331H193.669C194.361 106.331 195.025 106.056 195.514 105.568C196.004 105.079 196.279 104.416 196.279 103.724Z" fill="#0A0909"/>
<path d="M203.238 109.807H199.758V106.331H198.888C198.196 106.331 197.532 106.606 197.043 107.095C196.553 107.583 196.279 108.247 196.279 108.938V109.807H195.409C194.717 109.807 194.053 110.082 193.563 110.571C193.074 111.059 192.799 111.723 192.799 112.414V120.235H200.628C201.32 120.235 201.984 119.96 202.473 119.472C202.963 118.983 203.238 118.32 203.238 117.628V116.759H204.108C204.8 116.759 205.464 116.484 205.953 115.995C206.443 115.507 206.718 114.843 206.718 114.152V113.283H203.238V109.807ZM196.279 116.759V113.283H199.758V116.759H196.279Z" fill="#0A0909"/>
<path d="M240.353 88.0818H272.83C275.873 88.0818 278.34 90.5459 278.34 93.5855V126.029C278.34 129.068 275.873 131.532 272.83 131.532H240.353C237.311 131.532 234.844 129.068 234.844 126.029V93.5855C234.844 90.5459 237.311 88.0818 240.353 88.0818Z" fill="white"/>
<path d="M240.353 88.0818H272.83C275.873 88.0818 278.34 90.5459 278.34 93.5855V126.029C278.34 129.068 275.873 131.532 272.83 131.532H240.353C237.311 131.532 234.844 129.068 234.844 126.029V93.5855C234.844 90.5459 237.311 88.0818 240.353 88.0818Z" stroke="#CDD0DB" stroke-width="0.880597"/>
<path d="M260.072 106.331V99.379H256.593V102.855H253.113V106.331H256.593V109.807H260.072V113.283H263.552V116.759H260.072V120.235H267.032V106.331H260.072Z" fill="#0A0909"/>
<path d="M253.113 102.855V99.379H246.154V106.331H249.634V102.855H253.113Z" fill="#0A0909"/>
<path d="M256.593 113.283V109.807H253.113V106.331H249.634V109.807H246.154V120.235H256.593V116.759H260.073V113.283H256.593ZM253.113 116.759H249.634V113.283H253.113V116.759Z" fill="#0A0909"/>
</g>
</g>
<rect x="21.1343" y="138.866" width="236" height="3.52236" rx="1.76118" fill="#F5F6FB"/>
<rect x="21.1343" y="138.866" width="22.6243" height="3.52239" rx="1.76119" fill="#D3D8EB"/>
<path d="M22.0583 175.999H23.2703L27.7823 182.947H27.8063V175.999H28.8863V184.567H27.6383L23.1623 177.691H23.1383V184.567H22.0583V175.999ZM36.0584 184.543C35.8824 184.647 35.6384 184.699 35.3264 184.699C35.0624 184.699 34.8504 184.627 34.6904 184.483C34.5384 184.331 34.4624 184.087 34.4624 183.751C34.1824 184.087 33.8544 184.331 33.4784 184.483C33.1104 184.627 32.7104 184.699 32.2784 184.699C31.9984 184.699 31.7304 184.667 31.4744 184.603C31.2264 184.539 31.0104 184.439 30.8264 184.303C30.6424 184.167 30.4944 183.991 30.3824 183.775C30.2784 183.551 30.2264 183.283 30.2264 182.971C30.2264 182.619 30.2864 182.331 30.4064 182.107C30.5264 181.883 30.6824 181.703 30.8744 181.567C31.0744 181.423 31.2984 181.315 31.5464 181.243C31.8024 181.171 32.0624 181.111 32.3264 181.063C32.6064 181.007 32.8704 180.967 33.1184 180.943C33.3744 180.911 33.5984 180.871 33.7904 180.823C33.9824 180.767 34.1344 180.691 34.2464 180.595C34.3584 180.491 34.4144 180.343 34.4144 180.151C34.4144 179.927 34.3704 179.747 34.2824 179.611C34.2024 179.475 34.0944 179.371 33.9584 179.299C33.8304 179.227 33.6824 179.179 33.5144 179.155C33.3544 179.131 33.1944 179.119 33.0344 179.119C32.6024 179.119 32.2424 179.203 31.9544 179.371C31.6664 179.531 31.5104 179.839 31.4864 180.295H30.4664C30.4824 179.911 30.5624 179.587 30.7064 179.323C30.8504 179.059 31.0424 178.847 31.2824 178.687C31.5224 178.519 31.7944 178.399 32.0984 178.327C32.4104 178.255 32.7424 178.219 33.0944 178.219C33.3744 178.219 33.6504 178.239 33.9224 178.279C34.2024 178.319 34.4544 178.403 34.6784 178.531C34.9024 178.651 35.0824 178.823 35.2184 179.047C35.3544 179.271 35.4224 179.563 35.4224 179.923V183.115C35.4224 183.355 35.4344 183.531 35.4584 183.643C35.4904 183.755 35.5864 183.811 35.7464 183.811C35.8344 183.811 35.9384 183.791 36.0584 183.751V184.543ZM34.4024 181.363C34.2744 181.459 34.1064 181.531 33.8984 181.579C33.6904 181.619 33.4704 181.655 33.2384 181.687C33.0144 181.711 32.7864 181.743 32.5544 181.783C32.3224 181.815 32.1144 181.871 31.9304 181.951C31.7464 182.031 31.5944 182.147 31.4744 182.299C31.3624 182.443 31.3064 182.643 31.3064 182.899C31.3064 183.067 31.3384 183.211 31.4024 183.331C31.4744 183.443 31.5624 183.535 31.6664 183.607C31.7784 183.679 31.9064 183.731 32.0504 183.763C32.1944 183.795 32.3464 183.811 32.5064 183.811C32.8424 183.811 33.1304 183.767 33.3704 183.679C33.6104 183.583 33.8064 183.467 33.9584 183.331C34.1104 183.187 34.2224 183.035 34.2944 182.875C34.3664 182.707 34.4024 182.551 34.4024 182.407V181.363ZM37.0077 178.363H37.9677V179.275H37.9917C38.4557 178.571 39.1237 178.219 39.9957 178.219C40.3797 178.219 40.7277 178.299 41.0397 178.459C41.3517 178.619 41.5717 178.891 41.6997 179.275C41.9077 178.939 42.1797 178.679 42.5157 178.495C42.8597 178.311 43.2357 178.219 43.6437 178.219C43.9557 178.219 44.2357 178.255 44.4837 178.327C44.7397 178.391 44.9557 178.495 45.1317 178.639C45.3157 178.783 45.4557 178.971 45.5517 179.203C45.6557 179.427 45.7077 179.699 45.7077 180.019V184.567H44.6877V180.499C44.6877 180.307 44.6717 180.127 44.6397 179.959C44.6077 179.791 44.5477 179.647 44.4597 179.527C44.3717 179.399 44.2477 179.299 44.0877 179.227C43.9357 179.155 43.7357 179.119 43.4877 179.119C42.9837 179.119 42.5877 179.263 42.2997 179.551C42.0117 179.839 41.8677 180.223 41.8677 180.703V184.567H40.8477V180.499C40.8477 180.299 40.8277 180.115 40.7877 179.947C40.7557 179.779 40.6957 179.635 40.6077 179.515C40.5197 179.387 40.3997 179.291 40.2477 179.227C40.1037 179.155 39.9157 179.119 39.6837 179.119C39.3877 179.119 39.1317 179.179 38.9157 179.299C38.7077 179.419 38.5357 179.563 38.3997 179.731C38.2717 179.899 38.1757 180.075 38.1117 180.259C38.0557 180.435 38.0277 180.583 38.0277 180.703V184.567H37.0077V178.363ZM51.5462 180.871C51.5302 180.631 51.4742 180.403 51.3782 180.187C51.2902 179.971 51.1662 179.787 51.0062 179.635C50.8542 179.475 50.6702 179.351 50.4542 179.263C50.2462 179.167 50.0142 179.119 49.7582 179.119C49.4942 179.119 49.2542 179.167 49.0382 179.263C48.8302 179.351 48.6502 179.475 48.4982 179.635C48.3462 179.795 48.2262 179.983 48.1382 180.199C48.0502 180.407 47.9982 180.631 47.9822 180.871H51.5462ZM52.5302 182.599C52.3942 183.295 52.0942 183.819 51.6302 184.171C51.1662 184.523 50.5822 184.699 49.8782 184.699C49.3822 184.699 48.9502 184.619 48.5822 184.459C48.2222 184.299 47.9182 184.075 47.6702 183.787C47.4222 183.499 47.2342 183.155 47.1062 182.755C46.9862 182.355 46.9182 181.919 46.9022 181.447C46.9022 180.975 46.9742 180.543 47.1182 180.151C47.2622 179.759 47.4622 179.419 47.7182 179.131C47.9822 178.843 48.2902 178.619 48.6422 178.459C49.0022 178.299 49.3942 178.219 49.8182 178.219C50.3702 178.219 50.8262 178.335 51.1862 178.567C51.5542 178.791 51.8462 179.079 52.0622 179.431C52.2862 179.783 52.4382 180.167 52.5182 180.583C52.6062 180.999 52.6422 181.395 52.6262 181.771H47.9822C47.9742 182.043 48.0062 182.303 48.0782 182.551C48.1502 182.791 48.2662 183.007 48.4262 183.199C48.5862 183.383 48.7902 183.531 49.0382 183.643C49.2862 183.755 49.5782 183.811 49.9142 183.811C50.3462 183.811 50.6982 183.711 50.9702 183.511C51.2502 183.311 51.4342 183.007 51.5222 182.599H52.5302ZM59.4594 185.395C59.3394 185.699 59.2194 185.955 59.0994 186.163C58.9874 186.371 58.8594 186.539 58.7154 186.667C58.5794 186.803 58.4234 186.899 58.2474 186.955C58.0794 187.019 57.8834 187.051 57.6594 187.051C57.5394 187.051 57.4194 187.043 57.2994 187.027C57.1794 187.011 57.0634 186.983 56.9514 186.943V186.007C57.0394 186.047 57.1394 186.079 57.2514 186.103C57.3714 186.135 57.4714 186.151 57.5514 186.151C57.7594 186.151 57.9314 186.099 58.0674 185.995C58.2114 185.899 58.3194 185.759 58.3914 185.575L58.8114 184.531L56.3514 178.363H57.5034L59.3154 183.439H59.3394L61.0794 178.363H62.1594L59.4594 185.395ZM63.7674 181.471C63.7674 181.847 63.8154 182.183 63.9114 182.479C64.0154 182.767 64.1554 183.011 64.3314 183.211C64.5074 183.403 64.7114 183.551 64.9434 183.655C65.1834 183.759 65.4354 183.811 65.6994 183.811C65.9634 183.811 66.2114 183.759 66.4434 183.655C66.6834 183.551 66.8914 183.403 67.0674 183.211C67.2434 183.011 67.3794 182.767 67.4754 182.479C67.5794 182.183 67.6314 181.847 67.6314 181.471C67.6314 181.095 67.5794 180.763 67.4754 180.475C67.3794 180.179 67.2434 179.931 67.0674 179.731C66.8914 179.531 66.6834 179.379 66.4434 179.275C66.2114 179.171 65.9634 179.119 65.6994 179.119C65.4354 179.119 65.1834 179.171 64.9434 179.275C64.7114 179.379 64.5074 179.531 64.3314 179.731C64.1554 179.931 64.0154 180.179 63.9114 180.475C63.8154 180.763 63.7674 181.095 63.7674 181.471ZM62.6874 181.471C62.6874 181.015 62.7514 180.591 62.8794 180.199C63.0074 179.799 63.1994 179.455 63.4554 179.167C63.7114 178.871 64.0274 178.639 64.4034 178.471C64.7794 178.303 65.2114 178.219 65.6994 178.219C66.1954 178.219 66.6274 178.303 66.9954 178.471C67.3714 178.639 67.6874 178.871 67.9434 179.167C68.1994 179.455 68.3914 179.799 68.5194 180.199C68.6474 180.591 68.7114 181.015 68.7114 181.471C68.7114 181.927 68.6474 182.351 68.5194 182.743C68.3914 183.135 68.1994 183.479 67.9434 183.775C67.6874 184.063 67.3714 184.291 66.9954 184.459C66.6274 184.619 66.1954 184.699 65.6994 184.699C65.2114 184.699 64.7794 184.619 64.4034 184.459C64.0274 184.291 63.7114 184.063 63.4554 183.775C63.1994 183.479 63.0074 183.135 62.8794 182.743C62.7514 182.351 62.6874 181.927 62.6874 181.471ZM75.05 184.567H74.09V183.583H74.066C73.85 183.967 73.574 184.251 73.238 184.435C72.902 184.611 72.506 184.699 72.05 184.699C71.642 184.699 71.302 184.647 71.03 184.543C70.758 184.431 70.538 184.275 70.37 184.075C70.202 183.875 70.082 183.639 70.01 183.367C69.946 183.087 69.914 182.779 69.914 182.443V178.363H70.934V182.563C70.934 182.947 71.046 183.251 71.27 183.475C71.494 183.699 71.802 183.811 72.194 183.811C72.506 183.811 72.774 183.763 72.998 183.667C73.23 183.571 73.422 183.435 73.574 183.259C73.726 183.083 73.838 182.879 73.91 182.647C73.99 182.407 74.03 182.147 74.03 181.867V178.363H75.05V184.567ZM76.546 178.363H77.506V179.671H77.53C77.778 179.167 78.082 178.795 78.442 178.555C78.802 178.315 79.258 178.203 79.81 178.219V179.299C79.402 179.299 79.054 179.355 78.766 179.467C78.478 179.579 78.246 179.743 78.07 179.959C77.894 180.175 77.766 180.439 77.686 180.751C77.606 181.055 77.566 181.407 77.566 181.807V184.567H76.546V178.363ZM88.5499 182.119L89.6899 183.031C90.0259 182.695 90.2739 182.287 90.4339 181.807C90.5939 181.319 90.6739 180.811 90.6739 180.283C90.6739 179.851 90.6179 179.427 90.5059 179.011C90.3939 178.587 90.2179 178.207 89.9779 177.871C89.7379 177.535 89.4299 177.267 89.0539 177.067C88.6779 176.859 88.2299 176.755 87.7099 176.755C87.1899 176.755 86.7419 176.859 86.3659 177.067C85.9899 177.267 85.6819 177.535 85.4419 177.871C85.2019 178.207 85.0259 178.587 84.9139 179.011C84.8019 179.427 84.7459 179.851 84.7459 180.283C84.7459 180.715 84.8019 181.143 84.9139 181.567C85.0259 181.983 85.2019 182.359 85.4419 182.695C85.6819 183.031 85.9899 183.303 86.3659 183.511C86.7419 183.711 87.1899 183.811 87.7099 183.811C88.1179 183.811 88.5139 183.731 88.8979 183.571L87.9499 182.815L88.5499 182.119ZM91.0699 185.299L89.7619 184.255C89.1859 184.591 88.5019 184.759 87.7099 184.759C87.0299 184.759 86.4339 184.639 85.9219 184.399C85.4099 184.151 84.9819 183.819 84.6379 183.403C84.2939 182.987 84.0339 182.511 83.8579 181.975C83.6899 181.431 83.6059 180.867 83.6059 180.283C83.6059 179.699 83.6899 179.139 83.8579 178.603C84.0339 178.059 84.2939 177.579 84.6379 177.163C84.9819 176.747 85.4099 176.415 85.9219 176.167C86.4339 175.919 87.0299 175.795 87.7099 175.795C88.3899 175.795 88.9859 175.919 89.4979 176.167C90.0099 176.415 90.4379 176.747 90.7819 177.163C91.1259 177.579 91.3819 178.059 91.5499 178.603C91.7259 179.139 91.8139 179.699 91.8139 180.283C91.8139 180.939 91.7059 181.563 91.4899 182.155C91.2739 182.747 90.9499 183.259 90.5179 183.691L91.6459 184.579L91.0699 185.299ZM93.2031 175.999H97.2351C98.0511 175.999 98.6871 176.199 99.1431 176.599C99.6071 176.999 99.8391 177.547 99.8391 178.243C99.8391 178.763 99.7191 179.219 99.4791 179.611C99.2471 180.003 98.8711 180.271 98.3511 180.415V180.439C98.5991 180.487 98.7991 180.567 98.9511 180.679C99.1111 180.791 99.2351 180.927 99.3231 181.087C99.4191 181.239 99.4871 181.411 99.5271 181.603C99.5751 181.795 99.6111 181.995 99.6351 182.203C99.6511 182.411 99.6631 182.623 99.6711 182.839C99.6791 183.055 99.6991 183.267 99.7311 183.475C99.7631 183.683 99.8071 183.883 99.8631 184.075C99.9271 184.259 100.019 184.423 100.139 184.567H98.8671C98.7871 184.479 98.7311 184.359 98.6991 184.207C98.6751 184.055 98.6591 183.887 98.6511 183.703C98.6431 183.511 98.6351 183.307 98.6271 183.091C98.6191 182.875 98.5951 182.663 98.5551 182.455C98.5231 182.247 98.4831 182.051 98.4351 181.867C98.3871 181.675 98.3111 181.511 98.2071 181.375C98.1031 181.231 97.9671 181.119 97.7991 181.039C97.6311 180.951 97.4071 180.907 97.1271 180.907H94.3431V184.567H93.2031V175.999ZM96.7191 179.947C96.9831 179.947 97.2351 179.927 97.4751 179.887C97.7151 179.847 97.9231 179.771 98.0991 179.659C98.2831 179.539 98.4271 179.383 98.5311 179.191C98.6431 178.991 98.6991 178.735 98.6991 178.423C98.6991 177.991 98.5791 177.639 98.3391 177.367C98.0991 177.095 97.7111 176.959 97.1751 176.959H94.3431V179.947H96.7191ZM108.802 180.355C108.722 179.963 108.554 179.659 108.298 179.443C108.042 179.227 107.698 179.119 107.266 179.119C106.898 179.119 106.59 179.187 106.342 179.323C106.094 179.459 105.894 179.639 105.742 179.863C105.598 180.087 105.494 180.347 105.43 180.643C105.366 180.931 105.334 181.231 105.334 181.543C105.334 181.831 105.366 182.111 105.43 182.383C105.502 182.655 105.61 182.899 105.754 183.115C105.898 183.323 106.086 183.491 106.318 183.619C106.55 183.747 106.826 183.811 107.146 183.811C107.65 183.811 108.042 183.679 108.322 183.415C108.61 183.151 108.786 182.779 108.85 182.299H109.894C109.782 183.067 109.494 183.659 109.03 184.075C108.574 184.491 107.95 184.699 107.158 184.699C106.686 184.699 106.266 184.623 105.898 184.471C105.538 184.319 105.234 184.103 104.986 183.823C104.746 183.543 104.562 183.211 104.434 182.827C104.314 182.435 104.254 182.007 104.254 181.543C104.254 181.079 104.314 180.647 104.434 180.247C104.554 179.839 104.734 179.487 104.974 179.191C105.222 178.887 105.53 178.651 105.898 178.483C106.266 178.307 106.694 178.219 107.182 178.219C107.534 178.219 107.862 178.263 108.166 178.351C108.478 178.431 108.75 178.559 108.982 178.735C109.222 178.911 109.418 179.135 109.57 179.407C109.722 179.671 109.818 179.987 109.858 180.355H108.802ZM111.779 181.471C111.779 181.847 111.827 182.183 111.923 182.479C112.027 182.767 112.167 183.011 112.343 183.211C112.519 183.403 112.723 183.551 112.955 183.655C113.195 183.759 113.447 183.811 113.711 183.811C113.975 183.811 114.223 183.759 114.455 183.655C114.695 183.551 114.903 183.403 115.079 183.211C115.255 183.011 115.391 182.767 115.487 182.479C115.591 182.183 115.643 181.847 115.643 181.471C115.643 181.095 115.591 180.763 115.487 180.475C115.391 180.179 115.255 179.931 115.079 179.731C114.903 179.531 114.695 179.379 114.455 179.275C114.223 179.171 113.975 179.119 113.711 179.119C113.447 179.119 113.195 179.171 112.955 179.275C112.723 179.379 112.519 179.531 112.343 179.731C112.167 179.931 112.027 180.179 111.923 180.475C111.827 180.763 111.779 181.095 111.779 181.471ZM110.699 181.471C110.699 181.015 110.763 180.591 110.891 180.199C111.019 179.799 111.211 179.455 111.467 179.167C111.723 178.871 112.039 178.639 112.415 178.471C112.791 178.303 113.223 178.219 113.711 178.219C114.207 178.219 114.639 178.303 115.007 178.471C115.383 178.639 115.699 178.871 115.955 179.167C116.211 179.455 116.403 179.799 116.531 180.199C116.659 180.591 116.723 181.015 116.723 181.471C116.723 181.927 116.659 182.351 116.531 182.743C116.403 183.135 116.211 183.479 115.955 183.775C115.699 184.063 115.383 184.291 115.007 184.459C114.639 184.619 114.207 184.699 113.711 184.699C113.223 184.699 112.791 184.619 112.415 184.459C112.039 184.291 111.723 184.063 111.467 183.775C111.211 183.479 111.019 183.135 110.891 182.743C110.763 182.351 110.699 181.927 110.699 181.471ZM118.67 181.519C118.67 181.807 118.706 182.091 118.778 182.371C118.858 182.643 118.974 182.887 119.126 183.103C119.286 183.319 119.486 183.491 119.726 183.619C119.974 183.747 120.262 183.811 120.59 183.811C120.934 183.811 121.226 183.743 121.466 183.607C121.706 183.471 121.902 183.295 122.054 183.079C122.206 182.855 122.314 182.603 122.378 182.323C122.45 182.043 122.486 181.759 122.486 181.471C122.486 181.167 122.45 180.875 122.378 180.595C122.306 180.307 122.19 180.055 122.03 179.839C121.878 179.623 121.678 179.451 121.43 179.323C121.182 179.187 120.882 179.119 120.53 179.119C120.186 179.119 119.894 179.187 119.654 179.323C119.414 179.459 119.222 179.639 119.078 179.863C118.934 180.087 118.83 180.343 118.766 180.631C118.702 180.919 118.67 181.215 118.67 181.519ZM123.47 184.567H122.45V183.727H122.426C122.258 184.071 121.994 184.319 121.634 184.471C121.274 184.623 120.878 184.699 120.446 184.699C119.966 184.699 119.546 184.611 119.186 184.435C118.834 184.259 118.538 184.023 118.298 183.727C118.066 183.431 117.89 183.087 117.77 182.695C117.65 182.303 117.59 181.887 117.59 181.447C117.59 181.007 117.646 180.591 117.758 180.199C117.878 179.807 118.054 179.467 118.286 179.179C118.526 178.883 118.822 178.651 119.174 178.483C119.534 178.307 119.95 178.219 120.422 178.219C120.582 178.219 120.754 178.235 120.938 178.267C121.122 178.299 121.306 178.355 121.49 178.435C121.674 178.507 121.846 178.607 122.006 178.735C122.174 178.855 122.314 179.007 122.426 179.191H122.45V175.999H123.47V184.567ZM129.347 180.871C129.331 180.631 129.275 180.403 129.179 180.187C129.091 179.971 128.967 179.787 128.807 179.635C128.655 179.475 128.471 179.351 128.255 179.263C128.047 179.167 127.815 179.119 127.559 179.119C127.295 179.119 127.055 179.167 126.839 179.263C126.631 179.351 126.451 179.475 126.299 179.635C126.147 179.795 126.027 179.983 125.939 180.199C125.851 180.407 125.799 180.631 125.783 180.871H129.347ZM130.331 182.599C130.195 183.295 129.895 183.819 129.431 184.171C128.967 184.523 128.383 184.699 127.679 184.699C127.183 184.699 126.751 184.619 126.383 184.459C126.023 184.299 125.719 184.075 125.471 183.787C125.223 183.499 125.035 183.155 124.907 182.755C124.787 182.355 124.719 181.919 124.703 181.447C124.703 180.975 124.775 180.543 124.919 180.151C125.063 179.759 125.263 179.419 125.519 179.131C125.783 178.843 126.091 178.619 126.443 178.459C126.803 178.299 127.195 178.219 127.619 178.219C128.171 178.219 128.627 178.335 128.987 178.567C129.355 178.791 129.647 179.079 129.863 179.431C130.087 179.783 130.239 180.167 130.319 180.583C130.407 180.999 130.443 181.395 130.427 181.771H125.783C125.775 182.043 125.807 182.303 125.879 182.551C125.951 182.791 126.067 183.007 126.227 183.199C126.387 183.383 126.591 183.531 126.839 183.643C127.087 183.755 127.379 183.811 127.715 183.811C128.147 183.811 128.499 183.711 128.771 183.511C129.051 183.311 129.235 183.007 129.323 182.599H130.331Z" fill="#0A0909"/>
<rect x="21.5746" y="194.53" width="235.119" height="37.9701" rx="6.60448" stroke="#D3D8EB" stroke-width="0.880597"/>
<path d="M39.4155 212.408L39.0879 214.098H40.5356V214.806H38.9505L38.5173 217.015H37.767L38.2003 214.806H36.6892L36.2771 217.015H35.5374L35.9389 214.806H34.6074V214.098H36.0763L36.4144 212.408H34.9984V211.71H36.5412L36.9639 209.47H37.7248L37.3021 211.71H38.8237L39.2464 209.47H39.9756L39.5529 211.71H40.8949V212.408H39.4155ZM36.8265 214.098H38.3376L38.6652 212.408H37.1541L36.8265 214.098ZM46.7014 213.232C46.7014 213.845 46.6556 214.391 46.564 214.87C46.4724 215.349 46.3245 215.757 46.1202 216.096C45.9229 216.427 45.6623 216.68 45.3382 216.856C45.0212 217.033 44.6373 217.121 44.1864 217.121C43.6228 217.121 43.1543 216.966 42.781 216.656C42.4146 216.346 42.1399 215.902 41.9567 215.324C41.7806 214.739 41.6926 214.042 41.6926 213.232C41.6926 212.415 41.7736 211.717 41.9356 211.14C42.1047 210.562 42.3724 210.122 42.7387 209.819C43.105 209.509 43.5876 209.354 44.1864 209.354C44.75 209.354 45.2185 209.509 45.5918 209.819C45.9652 210.122 46.2435 210.562 46.4266 211.14C46.6098 211.717 46.7014 212.415 46.7014 213.232ZM42.6225 213.232C42.6225 213.922 42.6718 214.496 42.7704 214.954C42.8761 215.412 43.0416 215.757 43.2671 215.99C43.4995 216.215 43.806 216.328 44.1864 216.328C44.5668 216.328 44.8698 216.215 45.0952 215.99C45.3277 215.764 45.4967 215.423 45.6024 214.965C45.7081 214.5 45.7609 213.922 45.7609 213.232C45.7609 212.541 45.7081 211.971 45.6024 211.52C45.4967 211.062 45.3277 210.72 45.0952 210.495C44.8698 210.262 44.5668 210.146 44.1864 210.146C43.806 210.146 43.4995 210.262 43.2671 210.495C43.0416 210.72 42.8761 211.062 42.7704 211.52C42.6718 211.971 42.6225 212.541 42.6225 213.232ZM52.7486 213.232C52.7486 213.845 52.7028 214.391 52.6112 214.87C52.5197 215.349 52.3717 215.757 52.1674 216.096C51.9702 216.427 51.7095 216.68 51.3855 216.856C51.0684 217.033 50.6845 217.121 50.2336 217.121C49.6701 217.121 49.2016 216.966 48.8282 216.656C48.4619 216.346 48.1871 215.902 48.004 215.324C47.8278 214.739 47.7398 214.042 47.7398 213.232C47.7398 212.415 47.8208 211.717 47.9828 211.14C48.1519 210.562 48.4196 210.122 48.7859 209.819C49.1523 209.509 49.6348 209.354 50.2336 209.354C50.7972 209.354 51.2657 209.509 51.6391 209.819C52.0124 210.122 52.2907 210.562 52.4739 211.14C52.657 211.717 52.7486 212.415 52.7486 213.232ZM48.6697 213.232C48.6697 213.922 48.719 214.496 48.8176 214.954C48.9233 215.412 49.0889 215.757 49.3143 215.99C49.5468 216.215 49.8532 216.328 50.2336 216.328C50.614 216.328 50.917 216.215 51.1424 215.99C51.3749 215.764 51.544 215.423 51.6496 214.965C51.7553 214.5 51.8081 213.922 51.8081 213.232C51.8081 212.541 51.7553 211.971 51.6496 211.52C51.544 211.062 51.3749 210.72 51.1424 210.495C50.917 210.262 50.614 210.146 50.2336 210.146C49.8532 210.146 49.5468 210.262 49.3143 210.495C49.0889 210.72 48.9233 211.062 48.8176 211.52C48.719 211.971 48.6697 212.541 48.6697 213.232ZM58.7958 213.232C58.7958 213.845 58.75 214.391 58.6585 214.87C58.5669 215.349 58.4189 215.757 58.2146 216.096C58.0174 216.427 57.7567 216.68 57.4327 216.856C57.1157 217.033 56.7317 217.121 56.2809 217.121C55.7173 217.121 55.2488 216.966 54.8754 216.656C54.5091 216.346 54.2343 215.902 54.0512 215.324C53.8751 214.739 53.787 214.042 53.787 213.232C53.787 212.415 53.868 211.717 54.0301 211.14C54.1991 210.562 54.4668 210.122 54.8332 209.819C55.1995 209.509 55.6821 209.354 56.2809 209.354C56.8444 209.354 57.3129 209.509 57.6863 209.819C58.0597 210.122 58.3379 210.562 58.5211 211.14C58.7043 211.717 58.7958 212.415 58.7958 213.232ZM54.7169 213.232C54.7169 213.922 54.7662 214.496 54.8649 214.954C54.9705 215.412 55.1361 215.757 55.3615 215.99C55.594 216.215 55.9004 216.328 56.2809 216.328C56.6613 216.328 56.9642 216.215 57.1896 215.99C57.4221 215.764 57.5912 215.423 57.6969 214.965C57.8025 214.5 57.8554 213.922 57.8554 213.232C57.8554 212.541 57.8025 211.971 57.6969 211.52C57.5912 211.062 57.4221 210.72 57.1896 210.495C56.9642 210.262 56.6613 210.146 56.2809 210.146C55.9004 210.146 55.594 210.262 55.3615 210.495C55.1361 210.72 54.9705 211.062 54.8649 211.52C54.7662 211.971 54.7169 212.541 54.7169 213.232ZM64.8431 213.232C64.8431 213.845 64.7973 214.391 64.7057 214.87C64.6141 215.349 64.4662 215.757 64.2619 216.096C64.0646 216.427 63.804 216.68 63.4799 216.856C63.1629 217.033 62.7789 217.121 62.3281 217.121C61.7645 217.121 61.296 216.966 60.9226 216.656C60.5563 216.346 60.2816 215.902 60.0984 215.324C59.9223 214.739 59.8342 214.042 59.8342 213.232C59.8342 212.415 59.9152 211.717 60.0773 211.14C60.2463 210.562 60.5141 210.122 60.8804 209.819C61.2467 209.509 61.7293 209.354 62.3281 209.354C62.8917 209.354 63.3601 209.509 63.7335 209.819C64.1069 210.122 64.3852 210.562 64.5683 211.14C64.7515 211.717 64.8431 212.415 64.8431 213.232ZM60.7641 213.232C60.7641 213.922 60.8135 214.496 60.9121 214.954C61.0178 215.412 61.1833 215.757 61.4087 215.99C61.6412 216.215 61.9477 216.328 62.3281 216.328C62.7085 216.328 63.0114 216.215 63.2369 215.99C63.4693 215.764 63.6384 215.423 63.7441 214.965C63.8498 214.5 63.9026 213.922 63.9026 213.232C63.9026 212.541 63.8498 211.971 63.7441 211.52C63.6384 211.062 63.4693 210.72 63.2369 210.495C63.0114 210.262 62.7085 210.146 62.3281 210.146C61.9477 210.146 61.6412 210.262 61.4087 210.495C61.1833 210.72 61.0178 211.062 60.9121 211.52C60.8135 211.971 60.7641 212.541 60.7641 213.232ZM70.8903 213.232C70.8903 213.845 70.8445 214.391 70.7529 214.87C70.6613 215.349 70.5134 215.757 70.3091 216.096C70.1118 216.427 69.8512 216.68 69.5271 216.856C69.2101 217.033 68.8262 217.121 68.3753 217.121C67.8117 217.121 67.3432 216.966 66.9699 216.656C66.6035 216.346 66.3288 215.902 66.1456 215.324C65.9695 214.739 65.8815 214.042 65.8815 213.232C65.8815 212.415 65.9625 211.717 66.1245 211.14C66.2936 210.562 66.5613 210.122 66.9276 209.819C67.2939 209.509 67.7765 209.354 68.3753 209.354C68.9389 209.354 69.4074 209.509 69.7807 209.819C70.1541 210.122 70.4324 210.562 70.6155 211.14C70.7987 211.717 70.8903 212.415 70.8903 213.232ZM66.8114 213.232C66.8114 213.922 66.8607 214.496 66.9593 214.954C67.065 215.412 67.2305 215.757 67.456 215.99C67.6884 216.215 67.9949 216.328 68.3753 216.328C68.7557 216.328 69.0586 216.215 69.2841 215.99C69.5166 215.764 69.6856 215.423 69.7913 214.965C69.897 214.5 69.9498 213.922 69.9498 213.232C69.9498 212.541 69.897 211.971 69.7913 211.52C69.6856 211.062 69.5166 210.72 69.2841 210.495C69.0586 210.262 68.7557 210.146 68.3753 210.146C67.9949 210.146 67.6884 210.262 67.456 210.495C67.2305 210.72 67.065 211.062 66.9593 211.52C66.8607 211.971 66.8114 212.541 66.8114 213.232ZM76.9375 213.232C76.9375 213.845 76.8917 214.391 76.8001 214.87C76.7086 215.349 76.5606 215.757 76.3563 216.096C76.1591 216.427 75.8984 216.68 75.5744 216.856C75.2573 217.033 74.8734 217.121 74.4225 217.121C73.8589 217.121 73.3905 216.966 73.0171 216.656C72.6508 216.346 72.376 215.902 72.1929 215.324C72.0167 214.739 71.9287 214.042 71.9287 213.232C71.9287 212.415 72.0097 211.717 72.1717 211.14C72.3408 210.562 72.6085 210.122 72.9748 209.819C73.3412 209.509 73.8237 209.354 74.4225 209.354C74.9861 209.354 75.4546 209.509 75.828 209.819C76.2013 210.122 76.4796 210.562 76.6628 211.14C76.8459 211.717 76.9375 212.415 76.9375 213.232ZM72.8586 213.232C72.8586 213.922 72.9079 214.496 73.0065 214.954C73.1122 215.412 73.2778 215.757 73.5032 215.99C73.7357 216.215 74.0421 216.328 74.4225 216.328C74.8029 216.328 75.1059 216.215 75.3313 215.99C75.5638 215.764 75.7329 215.423 75.8385 214.965C75.9442 214.5 75.997 213.922 75.997 213.232C75.997 212.541 75.9442 211.971 75.8385 211.52C75.7329 211.062 75.5638 210.72 75.3313 210.495C75.1059 210.262 74.8029 210.146 74.4225 210.146C74.0421 210.146 73.7357 210.262 73.5032 210.495C73.2778 210.72 73.1122 211.062 73.0065 211.52C72.9079 211.971 72.8586 212.541 72.8586 213.232Z" fill="#0A0909"/>
<rect x="226.313" y="204.709" width="17.6119" height="17.6119" rx="3.52239" fill="#0A0909"/>
<path d="M28.0943 271.922C27.9663 271.314 27.6823 270.858 27.2423 270.554C26.8103 270.25 26.2943 270.098 25.6943 270.098C25.1823 270.098 24.7423 270.194 24.3743 270.386C24.0143 270.578 23.7143 270.838 23.4743 271.166C23.2423 271.486 23.0703 271.854 22.9583 272.27C22.8463 272.686 22.7903 273.118 22.7903 273.566C22.7903 274.054 22.8463 274.518 22.9583 274.958C23.0703 275.39 23.2423 275.77 23.4743 276.098C23.7143 276.418 24.0183 276.674 24.3863 276.866C24.7543 277.058 25.1943 277.154 25.7063 277.154C26.0823 277.154 26.4143 277.094 26.7023 276.974C26.9983 276.846 27.2503 276.674 27.4583 276.458C27.6743 276.234 27.8423 275.97 27.9623 275.666C28.0823 275.362 28.1543 275.034 28.1783 274.682H29.3183C29.2063 275.762 28.8343 276.602 28.2023 277.202C27.5703 277.802 26.7063 278.102 25.6103 278.102C24.9463 278.102 24.3663 277.99 23.8703 277.766C23.3743 277.534 22.9623 277.218 22.6343 276.818C22.3063 276.418 22.0583 275.946 21.8903 275.402C21.7303 274.858 21.6503 274.274 21.6503 273.65C21.6503 273.026 21.7383 272.442 21.9143 271.898C22.0903 271.346 22.3463 270.866 22.6823 270.458C23.0263 270.05 23.4503 269.73 23.9543 269.498C24.4663 269.258 25.0503 269.138 25.7063 269.138C26.1543 269.138 26.5783 269.198 26.9783 269.318C27.3783 269.438 27.7343 269.614 28.0463 269.846C28.3583 270.078 28.6183 270.37 28.8263 270.722C29.0343 271.066 29.1703 271.466 29.2343 271.922H28.0943ZM30.5624 269.342H31.5824V272.618H31.6064C31.6864 272.426 31.7984 272.266 31.9424 272.138C32.0864 272.002 32.2464 271.894 32.4224 271.814C32.6064 271.726 32.7944 271.662 32.9864 271.622C33.1864 271.582 33.3784 271.562 33.5624 271.562C33.9704 271.562 34.3104 271.618 34.5824 271.73C34.8544 271.842 35.0744 271.998 35.2424 272.198C35.4104 272.398 35.5264 272.638 35.5904 272.918C35.6624 273.19 35.6984 273.494 35.6984 273.83V277.91H34.6784V273.71C34.6784 273.326 34.5664 273.022 34.3424 272.798C34.1184 272.574 33.8104 272.462 33.4184 272.462C33.1064 272.462 32.8344 272.51 32.6024 272.606C32.3784 272.702 32.1904 272.838 32.0384 273.014C31.8864 273.19 31.7704 273.398 31.6904 273.638C31.6184 273.87 31.5824 274.126 31.5824 274.406V277.91H30.5624V269.342ZM37.9744 274.814C37.9744 275.19 38.0224 275.526 38.1184 275.822C38.2224 276.11 38.3624 276.354 38.5384 276.554C38.7144 276.746 38.9184 276.894 39.1504 276.998C39.3904 277.102 39.6424 277.154 39.9064 277.154C40.1704 277.154 40.4184 277.102 40.6504 276.998C40.8904 276.894 41.0984 276.746 41.2744 276.554C41.4504 276.354 41.5864 276.11 41.6824 275.822C41.7864 275.526 41.8384 275.19 41.8384 274.814C41.8384 274.438 41.7864 274.106 41.6824 273.818C41.5864 273.522 41.4504 273.274 41.2744 273.074C41.0984 272.874 40.8904 272.722 40.6504 272.618C40.4184 272.514 40.1704 272.462 39.9064 272.462C39.6424 272.462 39.3904 272.514 39.1504 272.618C38.9184 272.722 38.7144 272.874 38.5384 273.074C38.3624 273.274 38.2224 273.522 38.1184 273.818C38.0224 274.106 37.9744 274.438 37.9744 274.814ZM36.8944 274.814C36.8944 274.358 36.9584 273.934 37.0864 273.542C37.2144 273.142 37.4064 272.798 37.6624 272.51C37.9184 272.214 38.2344 271.982 38.6104 271.814C38.9864 271.646 39.4184 271.562 39.9064 271.562C40.4024 271.562 40.8344 271.646 41.2024 271.814C41.5784 271.982 41.8944 272.214 42.1504 272.51C42.4064 272.798 42.5984 273.142 42.7264 273.542C42.8544 273.934 42.9184 274.358 42.9184 274.814C42.9184 275.27 42.8544 275.694 42.7264 276.086C42.5984 276.478 42.4064 276.822 42.1504 277.118C41.8944 277.406 41.5784 277.634 41.2024 277.802C40.8344 277.962 40.4024 278.042 39.9064 278.042C39.4184 278.042 38.9864 277.962 38.6104 277.802C38.2344 277.634 37.9184 277.406 37.6624 277.118C37.4064 276.822 37.2144 276.478 37.0864 276.086C36.9584 275.694 36.8944 275.27 36.8944 274.814ZM44.865 274.814C44.865 275.19 44.913 275.526 45.009 275.822C45.113 276.11 45.253 276.354 45.429 276.554C45.605 276.746 45.809 276.894 46.041 276.998C46.281 277.102 46.533 277.154 46.797 277.154C47.061 277.154 47.309 277.102 47.541 276.998C47.781 276.894 47.989 276.746 48.165 276.554C48.341 276.354 48.477 276.11 48.573 275.822C48.677 275.526 48.729 275.19 48.729 274.814C48.729 274.438 48.677 274.106 48.573 273.818C48.477 273.522 48.341 273.274 48.165 273.074C47.989 272.874 47.781 272.722 47.541 272.618C47.309 272.514 47.061 272.462 46.797 272.462C46.533 272.462 46.281 272.514 46.041 272.618C45.809 272.722 45.605 272.874 45.429 273.074C45.253 273.274 45.113 273.522 45.009 273.818C44.913 274.106 44.865 274.438 44.865 274.814ZM43.785 274.814C43.785 274.358 43.849 273.934 43.977 273.542C44.105 273.142 44.297 272.798 44.553 272.51C44.809 272.214 45.125 271.982 45.501 271.814C45.877 271.646 46.309 271.562 46.797 271.562C47.293 271.562 47.725 271.646 48.093 271.814C48.469 271.982 48.785 272.214 49.041 272.51C49.297 272.798 49.489 273.142 49.617 273.542C49.745 273.934 49.809 274.358 49.809 274.814C49.809 275.27 49.745 275.694 49.617 276.086C49.489 276.478 49.297 276.822 49.041 277.118C48.785 277.406 48.469 277.634 48.093 277.802C47.725 277.962 47.293 278.042 46.797 278.042C46.309 278.042 45.877 277.962 45.501 277.802C45.125 277.634 44.809 277.406 44.553 277.118C44.297 276.822 44.105 276.478 43.977 276.086C43.849 275.694 43.785 275.27 43.785 274.814ZM51.6357 275.954C51.6437 276.178 51.6957 276.37 51.7917 276.53C51.8877 276.682 52.0117 276.806 52.1637 276.902C52.3237 276.99 52.4997 277.054 52.6917 277.094C52.8917 277.134 53.0957 277.154 53.3037 277.154C53.4637 277.154 53.6317 277.142 53.8077 277.118C53.9837 277.094 54.1437 277.05 54.2877 276.986C54.4397 276.922 54.5637 276.83 54.6597 276.71C54.7557 276.582 54.8037 276.422 54.8037 276.23C54.8037 275.966 54.7037 275.766 54.5037 275.63C54.3037 275.494 54.0517 275.386 53.7477 275.306C53.4517 275.218 53.1277 275.142 52.7757 275.078C52.4237 275.006 52.0957 274.91 51.7917 274.79C51.4957 274.662 51.2477 274.486 51.0477 274.262C50.8477 274.038 50.7477 273.726 50.7477 273.326C50.7477 273.014 50.8157 272.746 50.9517 272.522C51.0957 272.298 51.2757 272.118 51.4917 271.982C51.7157 271.838 51.9637 271.734 52.2357 271.67C52.5157 271.598 52.7917 271.562 53.0637 271.562C53.4157 271.562 53.7397 271.594 54.0357 271.658C54.3317 271.714 54.5917 271.818 54.8157 271.97C55.0477 272.114 55.2317 272.314 55.3677 272.57C55.5037 272.818 55.5837 273.13 55.6077 273.506H54.5877C54.5717 273.306 54.5197 273.142 54.4317 273.014C54.3437 272.878 54.2317 272.77 54.0957 272.69C53.9597 272.61 53.8077 272.554 53.6397 272.522C53.4797 272.482 53.3157 272.462 53.1477 272.462C52.9957 272.462 52.8397 272.474 52.6797 272.498C52.5277 272.522 52.3877 272.566 52.2597 272.63C52.1317 272.686 52.0277 272.766 51.9477 272.87C51.8677 272.966 51.8277 273.094 51.8277 273.254C51.8277 273.43 51.8877 273.578 52.0077 273.698C52.1357 273.81 52.2957 273.906 52.4877 273.986C52.6797 274.058 52.8957 274.122 53.1357 274.178C53.3757 274.226 53.6157 274.278 53.8557 274.334C54.1117 274.39 54.3597 274.458 54.5997 274.538C54.8477 274.618 55.0637 274.726 55.2477 274.862C55.4397 274.99 55.5917 275.154 55.7037 275.354C55.8237 275.554 55.8837 275.802 55.8837 276.098C55.8837 276.474 55.8037 276.786 55.6437 277.034C55.4917 277.282 55.2877 277.482 55.0317 277.634C54.7837 277.786 54.4997 277.89 54.1797 277.946C53.8677 278.01 53.5557 278.042 53.2437 278.042C52.8997 278.042 52.5717 278.006 52.2597 277.934C51.9477 277.862 51.6717 277.746 51.4317 277.586C51.1917 277.418 50.9997 277.202 50.8557 276.938C50.7117 276.666 50.6317 276.338 50.6157 275.954H51.6357ZM61.3197 274.214C61.3037 273.974 61.2477 273.746 61.1517 273.53C61.0637 273.314 60.9397 273.13 60.7797 272.978C60.6277 272.818 60.4437 272.694 60.2277 272.606C60.0197 272.51 59.7877 272.462 59.5317 272.462C59.2677 272.462 59.0277 272.51 58.8117 272.606C58.6037 272.694 58.4237 272.818 58.2717 272.978C58.1197 273.138 57.9997 273.326 57.9117 273.542C57.8237 273.75 57.7717 273.974 57.7557 274.214H61.3197ZM62.3037 275.942C62.1677 276.638 61.8677 277.162 61.4037 277.514C60.9397 277.866 60.3557 278.042 59.6517 278.042C59.1557 278.042 58.7237 277.962 58.3557 277.802C57.9957 277.642 57.6917 277.418 57.4437 277.13C57.1957 276.842 57.0077 276.498 56.8797 276.098C56.7597 275.698 56.6917 275.262 56.6757 274.79C56.6757 274.318 56.7477 273.886 56.8917 273.494C57.0357 273.102 57.2357 272.762 57.4917 272.474C57.7557 272.186 58.0637 271.962 58.4157 271.802C58.7757 271.642 59.1677 271.562 59.5917 271.562C60.1437 271.562 60.5997 271.678 60.9597 271.91C61.3277 272.134 61.6197 272.422 61.8357 272.774C62.0597 273.126 62.2117 273.51 62.2917 273.926C62.3797 274.342 62.4157 274.738 62.3997 275.114H57.7557C57.7477 275.386 57.7797 275.646 57.8517 275.894C57.9237 276.134 58.0397 276.35 58.1997 276.542C58.3597 276.726 58.5637 276.874 58.8117 276.986C59.0597 277.098 59.3517 277.154 59.6877 277.154C60.1197 277.154 60.4717 277.054 60.7437 276.854C61.0237 276.654 61.2077 276.35 61.2957 275.942H62.3037ZM69.2328 278.738C69.1128 279.042 68.9928 279.298 68.8728 279.506C68.7608 279.714 68.6328 279.882 68.4888 280.01C68.3528 280.146 68.1968 280.242 68.0208 280.298C67.8528 280.362 67.6568 280.394 67.4328 280.394C67.3128 280.394 67.1928 280.386 67.0728 280.37C66.9528 280.354 66.8368 280.326 66.7248 280.286V279.35C66.8128 279.39 66.9128 279.422 67.0248 279.446C67.1448 279.478 67.2448 279.494 67.3248 279.494C67.5328 279.494 67.7048 279.442 67.8408 279.338C67.9848 279.242 68.0928 279.102 68.1648 278.918L68.5848 277.874L66.1248 271.706H67.2768L69.0888 276.782H69.1128L70.8528 271.706H71.9328L69.2328 278.738ZM73.5408 274.814C73.5408 275.19 73.5888 275.526 73.6848 275.822C73.7888 276.11 73.9288 276.354 74.1048 276.554C74.2808 276.746 74.4848 276.894 74.7168 276.998C74.9568 277.102 75.2088 277.154 75.4728 277.154C75.7368 277.154 75.9848 277.102 76.2168 276.998C76.4568 276.894 76.6648 276.746 76.8408 276.554C77.0168 276.354 77.1528 276.11 77.2488 275.822C77.3528 275.526 77.4048 275.19 77.4048 274.814C77.4048 274.438 77.3528 274.106 77.2488 273.818C77.1528 273.522 77.0168 273.274 76.8408 273.074C76.6648 272.874 76.4568 272.722 76.2168 272.618C75.9848 272.514 75.7368 272.462 75.4728 272.462C75.2088 272.462 74.9568 272.514 74.7168 272.618C74.4848 272.722 74.2808 272.874 74.1048 273.074C73.9288 273.274 73.7888 273.522 73.6848 273.818C73.5888 274.106 73.5408 274.438 73.5408 274.814ZM72.4608 274.814C72.4608 274.358 72.5248 273.934 72.6528 273.542C72.7808 273.142 72.9728 272.798 73.2288 272.51C73.4848 272.214 73.8008 271.982 74.1768 271.814C74.5528 271.646 74.9848 271.562 75.4728 271.562C75.9688 271.562 76.4008 271.646 76.7688 271.814C77.1448 271.982 77.4608 272.214 77.7168 272.51C77.9728 272.798 78.1648 273.142 78.2928 273.542C78.4208 273.934 78.4848 274.358 78.4848 274.814C78.4848 275.27 78.4208 275.694 78.2928 276.086C78.1648 276.478 77.9728 276.822 77.7168 277.118C77.4608 277.406 77.1448 277.634 76.7688 277.802C76.4008 277.962 75.9688 278.042 75.4728 278.042C74.9848 278.042 74.5528 277.962 74.1768 277.802C73.8008 277.634 73.4848 277.406 73.2288 277.118C72.9728 276.822 72.7808 276.478 72.6528 276.086C72.5248 275.694 72.4608 275.27 72.4608 274.814ZM84.8234 277.91H83.8634V276.926H83.8394C83.6234 277.31 83.3474 277.594 83.0114 277.778C82.6754 277.954 82.2794 278.042 81.8234 278.042C81.4154 278.042 81.0754 277.99 80.8034 277.886C80.5314 277.774 80.3114 277.618 80.1434 277.418C79.9754 277.218 79.8554 276.982 79.7834 276.71C79.7194 276.43 79.6874 276.122 79.6874 275.786V271.706H80.7074V275.906C80.7074 276.29 80.8194 276.594 81.0434 276.818C81.2674 277.042 81.5754 277.154 81.9674 277.154C82.2794 277.154 82.5474 277.106 82.7714 277.01C83.0034 276.914 83.1954 276.778 83.3474 276.602C83.4994 276.426 83.6114 276.222 83.6834 275.99C83.7634 275.75 83.8034 275.49 83.8034 275.21V271.706H84.8234V277.91ZM86.3194 271.706H87.2794V273.014H87.3034C87.5514 272.51 87.8554 272.138 88.2154 271.898C88.5754 271.658 89.0314 271.546 89.5834 271.562V272.642C89.1754 272.642 88.8274 272.698 88.5394 272.81C88.2514 272.922 88.0194 273.086 87.8434 273.302C87.6674 273.518 87.5394 273.782 87.4594 274.094C87.3794 274.398 87.3394 274.75 87.3394 275.15V277.91H86.3194V271.706ZM97.9033 273.698C97.8233 273.306 97.6553 273.002 97.3993 272.786C97.1433 272.57 96.7993 272.462 96.3673 272.462C95.9993 272.462 95.6913 272.53 95.4433 272.666C95.1953 272.802 94.9953 272.982 94.8433 273.206C94.6993 273.43 94.5953 273.69 94.5313 273.986C94.4673 274.274 94.4353 274.574 94.4353 274.886C94.4353 275.174 94.4673 275.454 94.5313 275.726C94.6033 275.998 94.7113 276.242 94.8553 276.458C94.9993 276.666 95.1873 276.834 95.4193 276.962C95.6513 277.09 95.9273 277.154 96.2473 277.154C96.7513 277.154 97.1433 277.022 97.4233 276.758C97.7113 276.494 97.8873 276.122 97.9513 275.642H98.9953C98.8833 276.41 98.5953 277.002 98.1313 277.418C97.6753 277.834 97.0513 278.042 96.2593 278.042C95.7873 278.042 95.3673 277.966 94.9993 277.814C94.6393 277.662 94.3353 277.446 94.0873 277.166C93.8473 276.886 93.6633 276.554 93.5353 276.17C93.4153 275.778 93.3553 275.35 93.3553 274.886C93.3553 274.422 93.4153 273.99 93.5353 273.59C93.6553 273.182 93.8353 272.83 94.0753 272.534C94.3233 272.23 94.6313 271.994 94.9993 271.826C95.3673 271.65 95.7953 271.562 96.2833 271.562C96.6353 271.562 96.9633 271.606 97.2673 271.694C97.5793 271.774 97.8513 271.902 98.0833 272.078C98.3233 272.254 98.5193 272.478 98.6713 272.75C98.8233 273.014 98.9193 273.33 98.9593 273.698H97.9033ZM100.881 274.814C100.881 275.19 100.929 275.526 101.025 275.822C101.129 276.11 101.269 276.354 101.445 276.554C101.621 276.746 101.825 276.894 102.057 276.998C102.297 277.102 102.549 277.154 102.813 277.154C103.077 277.154 103.325 277.102 103.557 276.998C103.797 276.894 104.005 276.746 104.181 276.554C104.357 276.354 104.493 276.11 104.589 275.822C104.693 275.526 104.745 275.19 104.745 274.814C104.745 274.438 104.693 274.106 104.589 273.818C104.493 273.522 104.357 273.274 104.181 273.074C104.005 272.874 103.797 272.722 103.557 272.618C103.325 272.514 103.077 272.462 102.813 272.462C102.549 272.462 102.297 272.514 102.057 272.618C101.825 272.722 101.621 272.874 101.445 273.074C101.269 273.274 101.129 273.522 101.025 273.818C100.929 274.106 100.881 274.438 100.881 274.814ZM99.8007 274.814C99.8007 274.358 99.8647 273.934 99.9927 273.542C100.121 273.142 100.313 272.798 100.569 272.51C100.825 272.214 101.141 271.982 101.517 271.814C101.893 271.646 102.325 271.562 102.813 271.562C103.309 271.562 103.741 271.646 104.109 271.814C104.485 271.982 104.801 272.214 105.057 272.51C105.313 272.798 105.505 273.142 105.633 273.542C105.761 273.934 105.825 274.358 105.825 274.814C105.825 275.27 105.761 275.694 105.633 276.086C105.505 276.478 105.313 276.822 105.057 277.118C104.801 277.406 104.485 277.634 104.109 277.802C103.741 277.962 103.309 278.042 102.813 278.042C102.325 278.042 101.893 277.962 101.517 277.802C101.141 277.634 100.825 277.406 100.569 277.118C100.313 276.822 100.121 276.478 99.9927 276.086C99.8647 275.694 99.8007 275.27 99.8007 274.814ZM107.087 269.342H108.107V277.91H107.087V269.342ZM110.431 274.814C110.431 275.19 110.479 275.526 110.575 275.822C110.679 276.11 110.819 276.354 110.995 276.554C111.171 276.746 111.375 276.894 111.607 276.998C111.847 277.102 112.099 277.154 112.363 277.154C112.627 277.154 112.875 277.102 113.107 276.998C113.347 276.894 113.555 276.746 113.731 276.554C113.907 276.354 114.043 276.11 114.139 275.822C114.243 275.526 114.295 275.19 114.295 274.814C114.295 274.438 114.243 274.106 114.139 273.818C114.043 273.522 113.907 273.274 113.731 273.074C113.555 272.874 113.347 272.722 113.107 272.618C112.875 272.514 112.627 272.462 112.363 272.462C112.099 272.462 111.847 272.514 111.607 272.618C111.375 272.722 111.171 272.874 110.995 273.074C110.819 273.274 110.679 273.522 110.575 273.818C110.479 274.106 110.431 274.438 110.431 274.814ZM109.351 274.814C109.351 274.358 109.415 273.934 109.543 273.542C109.671 273.142 109.863 272.798 110.119 272.51C110.375 272.214 110.691 271.982 111.067 271.814C111.443 271.646 111.875 271.562 112.363 271.562C112.859 271.562 113.291 271.646 113.659 271.814C114.035 271.982 114.351 272.214 114.607 272.51C114.863 272.798 115.055 273.142 115.183 273.542C115.311 273.934 115.375 274.358 115.375 274.814C115.375 275.27 115.311 275.694 115.183 276.086C115.055 276.478 114.863 276.822 114.607 277.118C114.351 277.406 114.035 277.634 113.659 277.802C113.291 277.962 112.859 278.042 112.363 278.042C111.875 278.042 111.443 277.962 111.067 277.802C110.691 277.634 110.375 277.406 110.119 277.118C109.863 276.822 109.671 276.478 109.543 276.086C109.415 275.694 109.351 275.27 109.351 274.814ZM116.542 271.706H117.502V273.014H117.526C117.774 272.51 118.078 272.138 118.438 271.898C118.798 271.658 119.254 271.546 119.806 271.562V272.642C119.398 272.642 119.05 272.698 118.762 272.81C118.474 272.922 118.242 273.086 118.066 273.302C117.89 273.518 117.762 273.782 117.682 274.094C117.602 274.398 117.562 274.75 117.562 275.15V277.91H116.542V271.706ZM124.538 275.954C124.546 276.178 124.598 276.37 124.694 276.53C124.79 276.682 124.914 276.806 125.066 276.902C125.226 276.99 125.402 277.054 125.594 277.094C125.794 277.134 125.998 277.154 126.206 277.154C126.366 277.154 126.534 277.142 126.71 277.118C126.886 277.094 127.046 277.05 127.19 276.986C127.342 276.922 127.466 276.83 127.562 276.71C127.658 276.582 127.706 276.422 127.706 276.23C127.706 275.966 127.606 275.766 127.406 275.63C127.206 275.494 126.954 275.386 126.65 275.306C126.354 275.218 126.03 275.142 125.678 275.078C125.326 275.006 124.998 274.91 124.694 274.79C124.398 274.662 124.15 274.486 123.95 274.262C123.75 274.038 123.65 273.726 123.65 273.326C123.65 273.014 123.718 272.746 123.854 272.522C123.998 272.298 124.178 272.118 124.394 271.982C124.618 271.838 124.866 271.734 125.138 271.67C125.418 271.598 125.694 271.562 125.966 271.562C126.318 271.562 126.642 271.594 126.938 271.658C127.234 271.714 127.494 271.818 127.718 271.97C127.95 272.114 128.134 272.314 128.27 272.57C128.406 272.818 128.486 273.13 128.51 273.506H127.49C127.474 273.306 127.422 273.142 127.334 273.014C127.246 272.878 127.134 272.77 126.998 272.69C126.862 272.61 126.71 272.554 126.542 272.522C126.382 272.482 126.218 272.462 126.05 272.462C125.898 272.462 125.742 272.474 125.582 272.498C125.43 272.522 125.29 272.566 125.162 272.63C125.034 272.686 124.93 272.766 124.85 272.87C124.77 272.966 124.73 273.094 124.73 273.254C124.73 273.43 124.79 273.578 124.91 273.698C125.038 273.81 125.198 273.906 125.39 273.986C125.582 274.058 125.798 274.122 126.038 274.178C126.278 274.226 126.518 274.278 126.758 274.334C127.014 274.39 127.262 274.458 127.502 274.538C127.75 274.618 127.966 274.726 128.15 274.862C128.342 274.99 128.494 275.154 128.606 275.354C128.726 275.554 128.786 275.802 128.786 276.098C128.786 276.474 128.706 276.786 128.546 277.034C128.394 277.282 128.19 277.482 127.934 277.634C127.686 277.786 127.402 277.89 127.082 277.946C126.77 278.01 126.458 278.042 126.146 278.042C125.802 278.042 125.474 278.006 125.162 277.934C124.85 277.862 124.574 277.746 124.334 277.586C124.094 277.418 123.902 277.202 123.758 276.938C123.614 276.666 123.534 276.338 123.518 275.954H124.538ZM134.126 273.698C134.046 273.306 133.878 273.002 133.622 272.786C133.366 272.57 133.022 272.462 132.59 272.462C132.222 272.462 131.914 272.53 131.666 272.666C131.418 272.802 131.218 272.982 131.066 273.206C130.922 273.43 130.818 273.69 130.754 273.986C130.69 274.274 130.658 274.574 130.658 274.886C130.658 275.174 130.69 275.454 130.754 275.726C130.826 275.998 130.934 276.242 131.078 276.458C131.222 276.666 131.41 276.834 131.642 276.962C131.874 277.09 132.15 277.154 132.47 277.154C132.974 277.154 133.366 277.022 133.646 276.758C133.934 276.494 134.11 276.122 134.174 275.642H135.218C135.106 276.41 134.818 277.002 134.354 277.418C133.898 277.834 133.274 278.042 132.482 278.042C132.01 278.042 131.59 277.966 131.222 277.814C130.862 277.662 130.558 277.446 130.31 277.166C130.07 276.886 129.886 276.554 129.758 276.17C129.638 275.778 129.578 275.35 129.578 274.886C129.578 274.422 129.638 273.99 129.758 273.59C129.878 273.182 130.058 272.83 130.298 272.534C130.546 272.23 130.854 271.994 131.222 271.826C131.59 271.65 132.018 271.562 132.506 271.562C132.858 271.562 133.186 271.606 133.49 271.694C133.802 271.774 134.074 271.902 134.306 272.078C134.546 272.254 134.742 272.478 134.894 272.75C135.046 273.014 135.142 273.33 135.182 273.698H134.126ZM136.359 269.342H137.379V272.618H137.403C137.483 272.426 137.595 272.266 137.739 272.138C137.883 272.002 138.043 271.894 138.219 271.814C138.403 271.726 138.591 271.662 138.783 271.622C138.983 271.582 139.175 271.562 139.359 271.562C139.767 271.562 140.107 271.618 140.379 271.73C140.651 271.842 140.871 271.998 141.039 272.198C141.207 272.398 141.323 272.638 141.387 272.918C141.459 273.19 141.495 273.494 141.495 273.83V277.91H140.475V273.71C140.475 273.326 140.363 273.022 140.139 272.798C139.915 272.574 139.607 272.462 139.215 272.462C138.903 272.462 138.631 272.51 138.399 272.606C138.175 272.702 137.987 272.838 137.835 273.014C137.683 273.19 137.567 273.398 137.487 273.638C137.415 273.87 137.379 274.126 137.379 274.406V277.91H136.359V269.342ZM147.335 274.214C147.319 273.974 147.263 273.746 147.167 273.53C147.079 273.314 146.955 273.13 146.795 272.978C146.643 272.818 146.459 272.694 146.243 272.606C146.035 272.51 145.803 272.462 145.547 272.462C145.283 272.462 145.043 272.51 144.827 272.606C144.619 272.694 144.439 272.818 144.287 272.978C144.135 273.138 144.015 273.326 143.927 273.542C143.839 273.75 143.787 273.974 143.771 274.214H147.335ZM148.319 275.942C148.183 276.638 147.883 277.162 147.419 277.514C146.955 277.866 146.371 278.042 145.667 278.042C145.171 278.042 144.739 277.962 144.371 277.802C144.011 277.642 143.707 277.418 143.459 277.13C143.211 276.842 143.023 276.498 142.895 276.098C142.775 275.698 142.707 275.262 142.691 274.79C142.691 274.318 142.763 273.886 142.907 273.494C143.051 273.102 143.251 272.762 143.507 272.474C143.771 272.186 144.079 271.962 144.431 271.802C144.791 271.642 145.183 271.562 145.607 271.562C146.159 271.562 146.615 271.678 146.975 271.91C147.343 272.134 147.635 272.422 147.851 272.774C148.075 273.126 148.227 273.51 148.307 273.926C148.395 274.342 148.431 274.738 148.415 275.114H143.771C143.763 275.386 143.795 275.646 143.867 275.894C143.939 276.134 144.055 276.35 144.215 276.542C144.375 276.726 144.579 276.874 144.827 276.986C145.075 277.098 145.367 277.154 145.703 277.154C146.135 277.154 146.487 277.054 146.759 276.854C147.039 276.654 147.223 276.35 147.311 275.942H148.319ZM149.473 271.706H150.433V272.618H150.457C150.921 271.914 151.589 271.562 152.461 271.562C152.845 271.562 153.193 271.642 153.505 271.802C153.817 271.962 154.037 272.234 154.165 272.618C154.373 272.282 154.645 272.022 154.981 271.838C155.325 271.654 155.701 271.562 156.109 271.562C156.421 271.562 156.701 271.598 156.949 271.67C157.205 271.734 157.421 271.838 157.597 271.982C157.781 272.126 157.921 272.314 158.017 272.546C158.121 272.77 158.173 273.042 158.173 273.362V277.91H157.153V273.842C157.153 273.65 157.137 273.47 157.105 273.302C157.073 273.134 157.013 272.99 156.925 272.87C156.837 272.742 156.713 272.642 156.553 272.57C156.401 272.498 156.201 272.462 155.953 272.462C155.449 272.462 155.053 272.606 154.765 272.894C154.477 273.182 154.333 273.566 154.333 274.046V277.91H153.313V273.842C153.313 273.642 153.293 273.458 153.253 273.29C153.221 273.122 153.161 272.978 153.073 272.858C152.985 272.73 152.865 272.634 152.713 272.57C152.569 272.498 152.381 272.462 152.149 272.462C151.853 272.462 151.597 272.522 151.381 272.642C151.173 272.762 151.001 272.906 150.865 273.074C150.737 273.242 150.641 273.418 150.577 273.602C150.521 273.778 150.493 273.926 150.493 274.046V277.91H149.473V271.706ZM164.011 274.214C163.995 273.974 163.939 273.746 163.843 273.53C163.755 273.314 163.631 273.13 163.471 272.978C163.319 272.818 163.135 272.694 162.919 272.606C162.711 272.51 162.479 272.462 162.223 272.462C161.959 272.462 161.719 272.51 161.503 272.606C161.295 272.694 161.115 272.818 160.963 272.978C160.811 273.138 160.691 273.326 160.603 273.542C160.515 273.75 160.463 273.974 160.447 274.214H164.011ZM164.995 275.942C164.859 276.638 164.559 277.162 164.095 277.514C163.631 277.866 163.047 278.042 162.343 278.042C161.847 278.042 161.415 277.962 161.047 277.802C160.687 277.642 160.383 277.418 160.135 277.13C159.887 276.842 159.699 276.498 159.571 276.098C159.451 275.698 159.383 275.262 159.367 274.79C159.367 274.318 159.439 273.886 159.583 273.494C159.727 273.102 159.927 272.762 160.183 272.474C160.447 272.186 160.755 271.962 161.107 271.802C161.467 271.642 161.859 271.562 162.283 271.562C162.835 271.562 163.291 271.678 163.651 271.91C164.019 272.134 164.311 272.422 164.527 272.774C164.751 273.126 164.903 273.51 164.983 273.926C165.071 274.342 165.107 274.738 165.091 275.114H160.447C160.439 275.386 160.471 275.646 160.543 275.894C160.615 276.134 160.731 276.35 160.891 276.542C161.051 276.726 161.255 276.874 161.503 276.986C161.751 277.098 162.043 277.154 162.379 277.154C162.811 277.154 163.163 277.054 163.435 276.854C163.715 276.654 163.899 276.35 163.987 275.942H164.995Z" fill="#0A0909"/>
<g clip-path="url(#clip1_0_2581)">
<mask id="mask1_0_2581" style="mask-type:luminance" maskUnits="userSpaceOnUse" x="21" y="287" width="484" height="29">
<path d="M504.582 287.433H21.1343V315.612H504.582V287.433Z" fill="white"/>
</mask>
<g mask="url(#mask1_0_2581)">
<path d="M26.9985 287.727H76.282C79.3603 287.727 81.8558 290.224 81.8558 293.304V309.742C81.8558 312.822 79.3603 315.319 76.282 315.319H26.9985C23.9203 315.319 21.4248 312.822 21.4248 309.742V293.304C21.4248 290.224 23.9202 287.727 26.9985 287.727Z" fill="white"/>
<path d="M26.9985 287.727H76.282C79.3603 287.727 81.8558 290.224 81.8558 293.304V309.742C81.8558 312.822 79.3603 315.319 76.282 315.319H26.9985C23.9203 315.319 21.4248 312.822 21.4248 309.742V293.304C21.4248 290.224 23.9202 287.727 26.9985 287.727Z" stroke="#CDD0DB" stroke-width="0.880597"/>
<path d="M25.8243 295.652C25.8243 293.707 27.4004 292.13 29.3446 292.13H45.7724C47.7166 292.13 49.2927 293.707 49.2927 295.652V307.394C49.2927 309.339 47.7166 310.916 45.7724 310.916H29.3446C27.4004 310.916 25.8243 309.339 25.8243 307.394V295.652Z" fill="#BFD166"/>
<path d="M57.5106 292.423H73.9384C75.7206 292.423 77.1653 293.869 77.1653 295.652V307.393C77.1653 309.177 75.7206 310.622 73.9384 310.622H57.5106C55.7284 310.622 54.2837 309.177 54.2837 307.393V295.652C54.2837 293.869 55.7284 292.423 57.5106 292.423Z" fill="white" stroke="#CDD0DB" stroke-width="0.880597"/>
<path d="M97.4066 287.727H146.69C149.769 287.727 152.264 290.224 152.264 293.304V309.742C152.264 312.822 149.769 315.319 146.69 315.319H97.4066C94.3282 315.319 91.8329 312.822 91.8329 309.742V293.304C91.8329 290.224 94.3282 287.727 97.4066 287.727Z" fill="white"/>
<path d="M97.4066 287.727H146.69C149.769 287.727 152.264 290.224 152.264 293.304V309.742C152.264 312.822 149.769 315.319 146.69 315.319H97.4066C94.3282 315.319 91.8329 312.822 91.8329 309.742V293.304C91.8329 290.224 94.3282 287.727 97.4066 287.727Z" stroke="#CDD0DB" stroke-width="0.880597"/>
<path d="M96.2324 295.652C96.2324 293.707 97.8083 292.13 99.7527 292.13H116.181C118.125 292.13 119.701 293.707 119.701 295.652V307.394C119.701 309.339 118.125 310.916 116.181 310.916H99.7527C97.8083 310.916 96.2324 309.339 96.2324 307.394V295.652Z" fill="#ECEDF1"/>
<path d="M124.391 295.652C124.391 293.707 125.967 292.13 127.911 292.13H144.339C146.283 292.13 147.859 293.707 147.859 295.652V307.394C147.859 309.339 146.283 310.916 144.339 310.916H127.911C125.967 310.916 124.391 309.339 124.391 307.394V295.652Z" fill="#232321"/>
<path d="M167.808 287.727H217.091C220.17 287.727 222.665 290.224 222.665 293.304V309.742C222.665 312.822 220.17 315.319 217.091 315.319H167.808C164.73 315.319 162.234 312.822 162.234 309.742V293.304C162.234 290.224 164.73 287.727 167.808 287.727Z" fill="white"/>
<path d="M167.808 287.727H217.091C220.17 287.727 222.665 290.224 222.665 293.304V309.742C222.665 312.822 220.17 315.319 217.091 315.319H167.808C164.73 315.319 162.234 312.822 162.234 309.742V293.304C162.234 290.224 164.73 287.727 167.808 287.727Z" stroke="#CDD0DB" stroke-width="0.880597"/>
<path d="M166.634 295.652C166.634 293.707 168.21 292.13 170.154 292.13H186.582C188.526 292.13 190.102 293.707 190.102 295.652V307.394C190.102 309.339 188.526 310.916 186.582 310.916H170.154C168.21 310.916 166.634 309.339 166.634 307.394V295.652Z" fill="#ECECF0"/>
<path d="M194.796 295.652C194.796 293.707 196.372 292.13 198.316 292.13H214.744C216.688 292.13 218.264 293.707 218.264 295.652V307.394C218.264 309.339 216.688 310.916 214.744 310.916H198.316C196.372 310.916 194.796 309.339 194.796 307.394V295.652Z" fill="#BFD166"/>
<path d="M238.214 287.727H287.498C290.576 287.727 293.072 290.224 293.072 293.304V309.742C293.072 312.822 290.576 315.319 287.498 315.319H238.214C235.136 315.319 232.641 312.822 232.641 309.742V293.304C232.641 290.224 235.136 287.727 238.214 287.727Z" fill="white"/>
<path d="M238.214 287.727H287.498C290.576 287.727 293.072 290.224 293.072 293.304V309.742C293.072 312.822 290.576 315.319 287.498 315.319H238.214C235.136 315.319 232.641 312.822 232.641 309.742V293.304C232.641 290.224 235.136 287.727 238.214 287.727Z" stroke="#CDD0DB" stroke-width="0.880597"/>
<path d="M237.04 295.652C237.04 293.707 238.616 292.13 240.561 292.13H256.988C258.933 292.13 260.509 293.707 260.509 295.652V307.394C260.509 309.339 258.933 310.916 256.988 310.916H240.561C238.616 310.916 237.04 309.339 237.04 307.394V295.652Z" fill="#DAEBF6"/>
</g>
</g>
<rect x="21.1343" y="322.657" width="236" height="3.52236" rx="1.76118" fill="#F5F6FB"/>
<rect x="21.1343" y="322.657" width="22.6243" height="3.52239" rx="1.76119" fill="#D3D8EB"/>
<defs>
<clipPath id="clip0_0_2581">
<rect width="236" height="44.0298" fill="white" transform="translate(21.1343 87.791)"/>
</clipPath>
<clipPath id="clip1_0_2581">
<rect width="236" height="28.1791" fill="white" transform="translate(21.1343 287.433)"/>
</clipPath>
</defs>
</svg>
