<svg width="180" height="180" viewBox="0 0 180 180" fill="none" xmlns="http://www.w3.org/2000/svg">
<path d="M168.889 0H11.1111C4.97461 0 0 4.97461 0 11.1111V168.889C0 175.025 4.97461 180 11.1111 180H168.889C175.025 180 180 175.025 180 168.889V11.1111C180 4.97461 175.025 0 168.889 0Z" fill="white"/>
<path d="M66.1042 26.4016H26.3987V66.1072H66.1042V26.4016ZM58.1631 58.1661H34.3398V34.3427H58.1631V58.1661Z" fill="#0A0909"/>
<path d="M42.9744 42.9755H50.34V50.3411H42.9744V42.9755Z" fill="#0A0909"/>
<path d="M113.752 26.4016V66.1072H153.458V26.4016H113.752ZM145.517 58.1661H121.693V34.3427H145.517V58.1661Z" fill="#0A0909"/>
<path d="M137.804 42.9755H129.518V50.3411H137.804V42.9755Z" fill="#0A0909"/>
<path d="M26.3987 153.461H66.1042V113.755H26.3987V153.461ZM34.3398 121.696H58.1631V145.519H34.3398V121.696Z" fill="#0A0909"/>
<path d="M50.34 129.521H42.9744V137.807H50.34V129.521Z" fill="#0A0909"/>
<path d="M106.501 26.4017H89.9278V33.7672H106.501V26.4017Z" fill="#0A0909"/>
<path d="M89.9303 58.1667H97.8714V50.2256H105.812V42.2845H81.9891V34.3434H74.048V50.2256H89.9303V58.1667Z" fill="#0A0909"/>
<path d="M82.5631 58.6255H74.277V65.9911H82.5631V58.6255Z" fill="#0A0909"/>
<path d="M105.812 66.1084H97.8714V74.0495H74.048V81.9906H105.812V66.1084Z" fill="#0A0909"/>
<path d="M34.3389 97.8717H42.28V89.9306H34.3389V74.0483H26.3978V105.813H34.3389V97.8717Z" fill="#0A0909"/>
<path d="M50.3355 74.2782H42.9699V82.5643H50.3355V74.2782Z" fill="#0A0909"/>
<path d="M74.0444 105.813H89.9267V97.8717H81.9855V89.9306H66.1033V74.0483H58.1622V89.9306H50.2211V105.813H58.1622V97.8717H74.0444V105.813Z" fill="#0A0909"/>
<path d="M106.5 89.9318H97.2926V106.505H106.5V89.9318Z" fill="#0A0909"/>
<path d="M97.8714 113.755H74.048V121.696H89.9303V145.52H74.048V153.461H97.8714V145.52H113.754V137.578H97.8714V113.755Z" fill="#0A0909"/>
<path d="M82.5631 129.521H74.277V137.807H82.5631V129.521Z" fill="#0A0909"/>
<path d="M113.867 113.869H106.502V129.521H113.867V113.869Z" fill="#0A0909"/>
<path d="M145.514 129.637H121.691V153.46H129.632V137.578H145.514V129.637Z" fill="#0A0909"/>
<path d="M153.456 146.093H137.803V153.459H153.456V146.093Z" fill="#0A0909"/>
<path d="M153.455 113.869H146.089V122.155H153.455V113.869Z" fill="#0A0909"/>
<path d="M121.69 121.695H129.632V97.8716H113.749V105.813H121.69V121.695Z" fill="#0A0909"/>
<path d="M137.573 81.9895H129.632V74.0483H121.69V81.9895H113.749V89.9306H145.514V81.9895H153.455V74.0483H137.573V81.9895Z" fill="#0A0909"/>
<path d="M153.456 97.2965H137.803V106.504H153.456V97.2965Z" fill="#0A0909"/>
<path d="M166.154 166.846V110.077L13.8461 110.077V166.846H166.154Z" fill="url(#paint0_linear_0_2698)"/>
<path d="M165.122 110.337H14.3257" stroke="#FF909D" stroke-width="2.76923" stroke-linecap="round"/>
<path d="M14.3236 27.2005V13.3544" stroke="#3F3E3E" stroke-width="2.76923" stroke-linecap="round"/>
<path d="M14.3236 13.3544H28.1698" stroke="#3F3E3E" stroke-width="2.76923" stroke-linecap="round"/>
<path d="M14.3236 151.615V165.462" stroke="#3F3E3E" stroke-width="2.76923" stroke-linecap="round"/>
<path d="M14.3236 165.461H28.1698" stroke="#3F3E3E" stroke-width="2.76923" stroke-linecap="round"/>
<path d="M165.462 27.2005V13.3544" stroke="#3F3E3E" stroke-width="2.76923" stroke-linecap="round"/>
<path d="M165.462 13.3544H151.615" stroke="#3F3E3E" stroke-width="2.76923" stroke-linecap="round"/>
<path d="M165.462 151.615V165.462" stroke="#3F3E3E" stroke-width="2.76923" stroke-linecap="round"/>
<path d="M165.462 165.461H151.615" stroke="#3F3E3E" stroke-width="2.76923" stroke-linecap="round"/>
<defs>
<linearGradient id="paint0_linear_0_2698" x1="116.349" y1="110.077" x2="117.632" y2="187.1" gradientUnits="userSpaceOnUse">
<stop stop-color="white"/>
<stop offset="1" stop-color="white" stop-opacity="0"/>
</linearGradient>
</defs>
</svg>
