<svg width="24" height="24" viewBox="0 0 24 24" fill="none" xmlns="http://www.w3.org/2000/svg">
<path d="M6.48998 21.5898C6.22998 21.5898 5.97498 21.5098 5.75498 21.3498C5.36498 21.0698 5.17498 20.5998 5.25498 20.1248L6.19498 14.6348L2.20998 10.7498C1.86498 10.4148 1.74498 9.92477 1.89498 9.46977C2.04498 9.01477 2.42998 8.68977 2.90498 8.61977L8.41498 7.81977L10.88 2.82977C11.09 2.39977 11.52 2.13477 12 2.13477C12.48 2.13477 12.91 2.39977 13.12 2.82977L15.585 7.81977L21.095 8.61977C21.57 8.68977 21.955 9.01477 22.105 9.46977C22.255 9.92477 22.13 10.4148 21.79 10.7498L17.805 14.6348L18.745 20.1198C18.825 20.5948 18.635 21.0598 18.245 21.3448C17.855 21.6248 17.355 21.6598 16.93 21.4398L12 18.8498L7.06998 21.4398C6.88498 21.5348 6.68498 21.5848 6.48498 21.5848L6.48998 21.5898Z" fill="#FEBE4F"/>
</svg>
