<svg width="592" height="480" viewBox="0 0 592 480" fill="none" xmlns="http://www.w3.org/2000/svg">
<circle cx="339" cy="236" r="206" fill="url(#paint0_linear_37984_58788)" fill-opacity="0.1"/>
<circle cx="339" cy="236" r="127" fill="url(#paint1_linear_37984_58788)" fill-opacity="0.1"/>
<path d="M175 152C175 143.163 182.163 136 191 136H347C355.837 136 363 143.163 363 152V308C363 316.837 355.837 324 347 324H191C182.163 324 175 316.837 175 308V152Z" fill="white"/>
<g clip-path="url(#clip0_37984_58788)">
<path d="M274.833 270.833V265H268.999V259.167H274.833V265H280.666V259.167V253.333V247.5H274.833V253.333H268.999H263.166V247.5H268.999H274.833V241.667V235.833H268.999V241.667H263.166V235.833H257.333V241.667V247.5V253.333H251.499H245.666V259.167V265V270.833H251.499V265V259.167H257.333H263.166V265V270.833H268.999V276.667H274.833V282.5H280.666V276.667H286.499V270.833H280.666H274.833Z" fill="#0A0909"/>
<path d="M251.5 270.833V276.667H257.333H263.167V270.833H257.333H251.5Z" fill="#0A0909"/>
<path d="M304 259.167V253.333H298.167V259.167H292.333V265H286.5V270.833H292.333V276.667H298.167H304V270.833H298.167V265H304H309.833V259.167H304Z" fill="#0A0909"/>
<path d="M315.667 253.333H309.834V259.167H315.667V253.333Z" fill="#0A0909"/>
<path d="M309.833 247.5H304V253.333H309.833V247.5Z" fill="#0A0909"/>
<path d="M298.167 253.333V247.5H292.333H286.5V253.333V259.167H292.333V253.333H298.167Z" fill="#0A0909"/>
<path d="M233.999 247.5V241.667H228.166V247.5V253.333H233.999V247.5Z" fill="#0A0909"/>
<path d="M222.333 253.333V247.5V241.667H216.499V247.5H210.666V253.333H216.499H222.333Z" fill="#0A0909"/>
<path d="M204.833 247.5H199V253.333H204.833V247.5Z" fill="#0A0909"/>
<path d="M251.5 247.5V241.667V235.833H257.333V230H251.5H245.667V224.167H239.833H234V230H239.833V235.833H245.667V241.667H239.833V247.5V253.333H245.667V247.5H251.5Z" fill="#0A0909"/>
<path d="M204.833 235.833H199V241.667H204.833V235.833Z" fill="#0A0909"/>
<path d="M309.834 224.167V218.333H304.001H298.167V224.167H304.001V230H298.167H292.334V235.833H298.167V241.667H304.001V235.833H309.834V241.667H315.667V235.833V230H309.834V224.167Z" fill="#0A0909"/>
<path d="M286.499 224.167H280.666V230V235.833V241.667H286.499V235.833V230H292.333V224.167H286.499Z" fill="#0A0909"/>
<path d="M269.001 230V224.167H263.167V218.333H257.334V224.167V230H263.167H269.001Z" fill="#0A0909"/>
<path d="M274.833 218.333H280.667V212.5H274.833H269V218.333V224.167H274.833V218.333Z" fill="#0A0909"/>
<path d="M239.834 218.333H245.667V224.167H251.501V218.333V212.5H245.667V206.667H239.834V212.5H234.001H228.167V206.667H222.334V212.5V218.333H228.167V224.167H234.001V218.333H239.834Z" fill="#0A0909"/>
<path d="M216.5 212.5H210.667V218.333H204.833V224.167H199V230H204.833V235.833H210.667V230V224.167H216.5V230V235.833H222.333H228.167V230H222.333V224.167V218.333H216.5V212.5Z" fill="#0A0909"/>
<path d="M315.667 206.667H309.834V212.5H315.667V206.667Z" fill="#0A0909"/>
<path d="M298.167 206.667H292.333V212.5H286.5V218.333H292.333H298.167V212.5V206.667Z" fill="#0A0909"/>
<path d="M263.167 206.667H257.334V212.5H263.167V206.667Z" fill="#0A0909"/>
<path d="M204.833 206.667H199V212.5H204.833V206.667Z" fill="#0A0909"/>
<path d="M286.499 200.833V195H280.666V200.833V206.667H286.499H292.333V200.833H286.499Z" fill="#0A0909"/>
<path d="M263.166 200.833V206.667H268.999H274.833V200.833V195V189.167V183.333H268.999V189.167H263.166V195H268.999V200.833H263.166Z" fill="#0A0909"/>
<path d="M251.499 200.833H257.333V195H251.499H245.666V200.833V206.667H251.499V200.833Z" fill="#0A0909"/>
<path d="M292.333 189.167H286.5V195H292.333V189.167Z" fill="#0A0909"/>
<path d="M251.499 189.167H257.333V183.333H263.166V177.5H268.999V171.667H263.166H257.333V177.5H251.499V171.667H245.666V177.5V183.333H251.499V189.167Z" fill="#0A0909"/>
<path d="M286.501 177.5H292.334V171.667H286.501H280.667H274.834V177.5H280.667V183.333V189.167H286.501V183.333V177.5Z" fill="#0A0909"/>
<path d="M321.501 276.667V270.833H315.667V265H309.834V270.833V276.667V282.5H315.667V276.667H321.501Z" fill="#0A0909"/>
<path d="M315.666 218.333V224.167V230H321.499V235.833H315.666V241.667H321.499H327.333V235.833V230V224.167H321.499V218.333V212.5H315.666V218.333Z" fill="#0A0909"/>
<path d="M321.499 259.167H327.333V253.333V247.5H321.499H315.666V253.333H321.499V259.167Z" fill="#0A0909"/>
<path d="M327.333 206.667H321.5V212.5H327.333V206.667Z" fill="#0A0909"/>
<path d="M303.999 282.5H298.166V288.333H303.999V282.5Z" fill="#0A0909"/>
<path d="M286.499 282.5H280.666V288.333H286.499V282.5Z" fill="#0A0909"/>
<path d="M245.666 288.333V294.167V300H251.499V294.167V288.333V282.5H245.666V288.333Z" fill="#0A0909"/>
<path d="M321.499 282.5H315.666V288.333H321.499V282.5Z" fill="#0A0909"/>
<path d="M315.667 288.333H309.834V294.167H315.667V288.333Z" fill="#0A0909"/>
<path d="M327.333 276.667H321.5V282.5H327.333V276.667Z" fill="#0A0909"/>
<path d="M292.334 294.167V300H298.167H304.001V294.167H298.167V288.333H292.334V294.167Z" fill="#0A0909"/>
<path d="M269.001 288.333V282.5H263.167V288.333H257.334V294.167H263.167V300H269.001H274.834V294.167H269.001V288.333Z" fill="#0A0909"/>
<path d="M286.499 294.167H280.666V300H286.499V294.167Z" fill="#0A0909"/>
<path d="M321.499 300H327.333V294.167H321.499H315.666V300H321.499Z" fill="#0A0909"/>
<path d="M338.999 294.167H333.166V300H338.999V294.167Z" fill="#0A0909"/>
<path d="M333.167 259.167H327.334V265V270.833V276.667H333.167V282.5H327.334V288.333H333.167H339.001V282.5V276.667V270.833H333.167V265H339.001V259.167V253.333H333.167V259.167Z" fill="#0A0909"/>
<path d="M333.166 241.667V247.5H338.999V241.667V235.833H333.166V241.667Z" fill="#0A0909"/>
<path d="M333.167 212.5H327.334V218.333H333.167V224.167V230H339.001V224.167V218.333V212.5V206.667H333.167V212.5Z" fill="#0A0909"/>
<path d="M280.667 165.833H286.5V160H280.667H274.833H269V165.833H274.833H280.667Z" fill="#0A0909"/>
<path d="M257.333 165.833V160H251.499H245.666V165.833H251.499V171.667H257.333V165.833Z" fill="#0A0909"/>
<path d="M216.499 270.833H210.666V276.667V282.5V288.333H216.499H222.333H228.166V282.5V276.667V270.833H222.333H216.499Z" fill="#48BA75"/>
<path d="M228.167 259.167H199V300H239.833V259.167H228.167ZM234 270.833V294.167H204.833V265H234V270.833Z" fill="#0A0909"/>
<path d="M315.667 171.667H309.834V177.5V183.333V189.167H315.667H321.501H327.334V183.333V177.5V171.667H321.501H315.667Z" fill="#48BA75"/>
<path d="M333.166 160H298.166V200.833H338.999V160H333.166ZM333.166 171.667V195H303.999V165.833H333.166V171.667Z" fill="#0A0909"/>
<path d="M222.333 189.167H228.166V183.333V177.5V171.667H222.333H216.499H210.666V177.5V183.333V189.167H216.499H222.333Z" fill="#48BA75"/>
<path d="M210.667 200.833H239.833V160H199V200.833H210.667ZM204.833 189.167V165.833H234V195H204.833V189.167Z" fill="#0A0909"/>
<path d="M246 230C246 217.297 256.297 207 269 207C281.703 207 292 217.297 292 230C292 242.703 281.703 253 269 253C256.297 253 246 242.703 246 230Z" fill="white"/>
<path d="M276.251 222.748L276.834 222.488L276.734 222.265L276.511 222.165L276.251 222.748ZM264.399 229.935L263.836 229.632L263.417 230.412L264.289 230.564L264.399 229.935ZM269.064 234.6L268.435 234.71L268.587 235.582L269.366 235.163L269.064 234.6ZM270.43 233.643C270.113 233.488 269.73 233.619 269.575 233.936C269.42 234.253 269.551 234.636 269.868 234.791L270.149 234.217L270.43 233.643ZM272.099 237.667L271.469 237.771L271.639 238.801L272.479 238.181L272.099 237.667ZM273.821 231.576C273.633 231.278 273.238 231.188 272.94 231.377C272.642 231.565 272.552 231.959 272.741 232.258L273.281 231.917L273.821 231.576ZM264.208 229.197C264.363 229.514 264.746 229.645 265.063 229.49C265.38 229.334 265.511 228.952 265.356 228.635L264.782 228.916L264.208 229.197ZM261.332 226.965L260.818 226.586C260.686 226.764 260.656 226.999 260.74 227.205C260.823 227.411 261.008 227.559 261.228 227.596L261.332 226.965ZM266.741 226.324C267.039 226.512 267.434 226.423 267.622 226.124C267.811 225.826 267.721 225.431 267.423 225.243L267.082 225.783L266.741 226.324ZM264.355 232.932C264.604 232.682 264.604 232.278 264.355 232.028C264.105 231.779 263.701 231.779 263.451 232.028L263.903 232.48L264.355 232.932ZM263.249 235.75L262.643 235.952L262.744 236.255L263.047 236.356L263.249 235.75ZM266.971 235.548C267.22 235.298 267.22 234.894 266.971 234.644C266.721 234.395 266.317 234.395 266.067 234.644L266.519 235.096L266.971 235.548ZM276.251 222.748L276.511 222.165C273.983 221.036 268.275 221.359 263.836 229.632L264.399 229.935L264.962 230.237C269.165 222.403 274.218 222.54 275.99 223.332L276.251 222.748ZM264.399 229.935L264.289 230.564C264.635 230.624 265.774 231.024 266.875 232.124L267.326 231.672L267.778 231.221C266.499 229.941 265.123 229.412 264.508 229.305L264.399 229.935ZM276.251 222.748L275.667 223.009C276.459 224.781 276.596 229.834 268.762 234.037L269.064 234.6L269.366 235.163C277.64 230.724 277.963 225.016 276.834 222.488L276.251 222.748ZM269.064 234.6L269.694 234.491C269.587 233.876 269.058 232.5 267.778 231.221L267.326 231.672L266.875 232.124C267.975 233.225 268.375 234.364 268.435 234.71L269.064 234.6ZM270.149 234.217L269.868 234.791C271.098 235.393 271.243 236.407 271.469 237.771L272.099 237.667L272.729 237.562C272.522 236.309 272.332 234.574 270.43 233.643L270.149 234.217ZM272.099 237.667C272.479 238.181 272.479 238.18 272.479 238.18C272.479 238.18 272.48 238.18 272.48 238.18C272.48 238.179 272.481 238.179 272.481 238.179C272.482 238.178 272.484 238.177 272.485 238.176C272.488 238.174 272.492 238.171 272.496 238.168C272.505 238.161 272.517 238.152 272.531 238.14C272.561 238.117 272.601 238.085 272.65 238.043C272.748 237.96 272.882 237.839 273.034 237.684C273.337 237.376 273.723 236.922 274.038 236.345C274.682 235.164 275.019 233.474 273.821 231.576L273.281 231.917L272.741 232.258C273.641 233.685 273.387 234.869 272.916 235.733C272.673 236.177 272.37 236.537 272.123 236.788C272.001 236.912 271.895 237.007 271.822 237.069C271.785 237.101 271.757 237.123 271.739 237.137C271.73 237.144 271.724 237.149 271.721 237.152C271.719 237.153 271.718 237.154 271.718 237.154C271.718 237.154 271.718 237.154 271.718 237.154C271.718 237.154 271.718 237.154 271.718 237.154C271.719 237.154 271.719 237.153 271.719 237.153C271.719 237.153 271.719 237.153 272.099 237.667ZM264.782 228.916L265.356 228.635C264.425 226.733 262.69 226.543 261.437 226.335L261.332 226.965L261.228 227.596C262.591 227.822 263.606 227.966 264.208 229.197L264.782 228.916ZM261.332 226.965C261.846 227.345 261.846 227.345 261.845 227.346C261.845 227.346 261.845 227.346 261.845 227.346C261.845 227.346 261.845 227.346 261.845 227.347C261.845 227.347 261.845 227.347 261.845 227.347C261.845 227.346 261.846 227.345 261.847 227.344C261.85 227.34 261.854 227.334 261.861 227.325C261.876 227.307 261.898 227.279 261.929 227.242C261.992 227.169 262.087 227.063 262.211 226.941C262.462 226.695 262.822 226.391 263.266 226.148C264.129 225.677 265.314 225.423 266.741 226.324L267.082 225.783L267.423 225.243C265.525 224.045 263.834 224.382 262.654 225.027C262.077 225.342 261.623 225.727 261.315 226.03C261.16 226.183 261.039 226.317 260.956 226.415C260.914 226.464 260.882 226.504 260.859 226.533C260.847 226.548 260.838 226.56 260.831 226.568C260.828 226.573 260.825 226.576 260.823 226.579C260.822 226.581 260.821 226.582 260.82 226.583C260.82 226.584 260.819 226.584 260.819 226.584C260.819 226.585 260.819 226.585 260.819 226.585C260.818 226.585 260.818 226.586 261.332 226.965ZM263.903 232.48L263.451 232.028C262.894 232.586 262.023 234.093 262.643 235.952L263.249 235.75L263.855 235.548C263.428 234.268 264.04 233.247 264.355 232.932L263.903 232.48ZM266.519 235.096L266.067 234.644C265.753 234.959 264.731 235.571 263.451 235.144L263.249 235.75L263.047 236.356C264.906 236.976 266.413 236.105 266.971 235.548L266.519 235.096ZM273.514 226.976H274.153C274.153 225.8 273.2 224.847 272.023 224.847V225.485V226.124C272.494 226.124 272.875 226.506 272.875 226.976H273.514ZM272.023 225.485V224.847C270.847 224.847 269.894 225.8 269.894 226.976H270.533H271.172C271.172 226.506 271.553 226.124 272.023 226.124V225.485ZM270.533 226.976H269.894C269.894 228.152 270.847 229.106 272.023 229.106V228.467V227.828C271.553 227.828 271.172 227.447 271.172 226.976H270.533ZM272.023 228.467V229.106C273.2 229.106 274.153 228.152 274.153 226.976H273.514H272.875C272.875 227.447 272.494 227.828 272.023 227.828V228.467Z" fill="#48BA75"/>
<circle cx="269" cy="230" r="17.25" stroke="#48BA75" stroke-width="1.27778" stroke-dasharray="2.56 2.56"/>
</g>
<path d="M355.856 124.642C354.67 124.656 354.714 121.932 356.01 113.036C357.388 103.62 358.035 101.593 359.378 102.063C361.218 102.732 357.773 124.571 355.856 124.642Z" fill="#48BA75"/>
<path d="M394.981 139.009C394.768 142.552 394.133 142.971 386.217 144.816C378.042 146.729 376.481 146.788 375.995 145.286C375.126 142.558 377.128 141.358 387.122 138.486C394.495 136.372 395.138 136.394 394.981 139.009Z" fill="#48BA75"/>
<path d="M388.631 113.355C388.512 115.905 387.95 116.803 384.749 119.625C375.224 127.959 369.081 134.668 369.413 129.71C369.534 127.686 371.145 125.953 381.963 115.834C387.97 110.268 388.768 109.943 388.631 113.355Z" fill="#48BA75"/>
<g filter="url(#filter0_d_37984_58788)">
<path d="M135.672 206.086H133.186C132.5 206.086 131.943 206.642 131.943 207.329V209.815C131.943 210.501 132.5 211.057 133.186 211.057H135.672C136.358 211.057 136.915 210.501 136.915 209.815V207.329C136.915 206.642 136.358 206.086 135.672 206.086Z" fill="#0A0909"/>
<path d="M108.329 216.029H110.815C111.144 216.029 111.46 215.898 111.693 215.665C111.926 215.432 112.057 215.116 112.057 214.786V211.057H115.786C116.116 211.057 116.432 210.926 116.665 210.693C116.898 210.46 117.029 210.144 117.029 209.815V207.329C117.029 206.999 116.898 206.683 116.665 206.45C116.432 206.217 116.116 206.086 115.786 206.086H108.329C107.999 206.086 107.683 206.217 107.45 206.45C107.217 206.683 107.086 206.999 107.086 207.329V214.786C107.086 215.116 107.217 215.432 107.45 215.665C107.683 215.898 107.999 216.029 108.329 216.029Z" fill="#0A0909"/>
<path d="M126.972 227.215C126.972 226.885 126.841 226.569 126.608 226.336C126.375 226.103 126.058 225.972 125.729 225.972H122V222.243C122 221.913 121.869 221.597 121.636 221.364C121.403 221.131 121.087 221 120.757 221H117.029V217.272C117.029 216.942 116.898 216.626 116.665 216.393C116.432 216.16 116.116 216.029 115.786 216.029H113.3C112.971 216.029 112.654 216.16 112.421 216.393C112.188 216.626 112.057 216.942 112.057 217.272V221H108.329C107.999 221 107.683 221.131 107.45 221.364C107.217 221.597 107.086 221.913 107.086 222.243V234.672C107.086 235.001 107.217 235.317 107.45 235.551C107.683 235.784 107.999 235.915 108.329 235.915H120.757C121.087 235.915 121.403 235.784 121.636 235.551C121.869 235.317 122 235.001 122 234.672V230.943H125.729C126.058 230.943 126.375 230.812 126.608 230.579C126.841 230.346 126.972 230.03 126.972 229.7V227.215ZM117.029 230.943H112.057V225.972H117.029V230.943Z" fill="#0A0909"/>
<path d="M135.67 216.029H126.97V207.329C126.97 206.999 126.839 206.683 126.606 206.45C126.373 206.217 126.057 206.086 125.727 206.086H123.242C122.912 206.086 122.596 206.217 122.363 206.45C122.13 206.683 121.999 206.999 121.999 207.329V211.057H118.27C117.941 211.057 117.624 211.188 117.391 211.421C117.158 211.654 117.027 211.971 117.027 212.3V214.786C117.027 215.116 117.158 215.432 117.391 215.665C117.624 215.898 117.941 216.029 118.27 216.029H121.999V219.757C121.999 220.087 122.13 220.403 122.363 220.636C122.596 220.869 122.912 221 123.242 221H126.97V224.729C126.97 225.058 127.101 225.375 127.334 225.608C127.567 225.841 127.883 225.972 128.213 225.972H131.942V230.943H128.213C127.883 230.943 127.567 231.074 127.334 231.307C127.101 231.54 126.97 231.856 126.97 232.186V234.672C126.97 235.001 127.101 235.317 127.334 235.55C127.567 235.784 127.883 235.915 128.213 235.915H135.67C136 235.915 136.316 235.784 136.549 235.55C136.782 235.317 136.913 235.001 136.913 234.672V217.272C136.913 216.942 136.782 216.626 136.549 216.393C136.316 216.16 136 216.029 135.67 216.029Z" fill="#0A0909"/>
</g>
<path d="M474 175.91C467.877 175.91 462.003 178.342 457.673 182.673C453.343 187.003 450.91 192.876 450.91 199C450.91 205.124 453.343 210.997 457.673 215.327C462.003 219.658 467.877 222.09 474 222.09C480.124 222.09 485.997 219.658 490.328 215.327C494.658 210.997 497.091 205.124 497.091 199C497.091 192.876 494.658 187.003 490.328 182.673C485.997 178.342 480.124 175.91 474 175.91Z" fill="#039BE5"/>
<path d="M477.127 205.12H483.102L484.04 199.05H477.125V195.732C477.125 193.21 477.949 190.974 480.308 190.974H484.099V185.677C483.433 185.587 482.024 185.39 479.363 185.39C473.805 185.39 470.547 188.325 470.547 195.011V199.05H464.834V205.12H470.547V221.805C471.678 221.975 472.824 222.09 474.001 222.09C475.064 222.09 476.102 221.993 477.127 221.855V205.12Z" fill="white"/>
<circle cx="80.9934" cy="127.994" r="20.8313" fill="url(#paint2_radial_37984_58788)"/>
<path d="M80.9991 134.058C77.6596 134.058 74.9414 131.34 74.9414 128C74.9414 124.66 77.6596 121.942 80.9991 121.942C84.3386 121.942 87.0568 124.66 87.0568 128C87.0568 131.34 84.3386 134.058 80.9991 134.058ZM80.9991 123.673C78.6132 123.673 76.6722 125.614 76.6722 128C76.6722 130.386 78.6132 132.327 80.9991 132.327C83.385 132.327 85.326 130.386 85.326 128C85.326 125.614 83.385 123.673 80.9991 123.673Z" fill="white"/>
<path d="M87.4895 122.808C88.2064 122.808 88.7876 122.227 88.7876 121.51C88.7876 120.793 88.2064 120.212 87.4895 120.212C86.7726 120.212 86.1914 120.793 86.1914 121.51C86.1914 122.227 86.7726 122.808 87.4895 122.808Z" fill="white"/>
<path d="M86.1923 139.25H75.8077C72.4682 139.25 69.75 136.533 69.75 133.192V122.808C69.75 119.467 72.4682 116.75 75.8077 116.75H86.1923C89.5318 116.75 92.25 119.467 92.25 122.808V133.192C92.25 136.533 89.5318 139.25 86.1923 139.25ZM75.8077 118.481C73.4218 118.481 71.4808 120.422 71.4808 122.808V133.192C71.4808 135.578 73.4218 137.519 75.8077 137.519H86.1923C88.5782 137.519 90.5192 135.578 90.5192 133.192V122.808C90.5192 120.422 88.5782 118.481 86.1923 118.481H75.8077Z" fill="white"/>
<g clip-path="url(#clip1_37984_58788)">
<path d="M42.665 285C33.4615 285 26 292.461 26 301.665C26 310.869 33.4615 318.33 42.665 318.33C51.8685 318.33 59.33 310.869 59.33 301.665C59.33 292.461 51.8685 285 42.665 285Z" fill="black"/>
<path d="M44.5222 300.198L50.4785 293H49.0671L43.8951 299.25L39.7644 293H35L41.2465 302.451L35 310H36.4115L41.8732 303.4L46.2356 310H51L44.5218 300.198H44.5222ZM36.9201 294.105H39.0882L49.0677 308.946H46.8997L36.9201 294.105Z" fill="white"/>
</g>
<path d="M411.899 325C413.943 325 415.599 323.344 415.599 321.3C415.599 319.257 413.943 317.6 411.899 317.6C409.856 317.6 408.199 319.257 408.199 321.3C408.199 323.344 409.856 325 411.899 325Z" fill="#0A0909"/>
<path d="M419.3 332.4C421.343 332.4 423 330.743 423 328.7C423 326.657 421.343 325 419.3 325C417.256 325 415.6 326.657 415.6 328.7C415.6 330.743 417.256 332.4 419.3 332.4Z" fill="#0A0909"/>
<path d="M411.899 332.4C413.943 332.4 415.599 330.743 415.599 328.7C415.599 326.657 413.943 325 411.899 325C409.856 325 408.199 326.657 408.199 328.7C408.199 330.743 409.856 332.4 411.899 332.4Z" fill="#0A0909"/>
<path d="M404.501 332.4C406.544 332.4 408.201 330.743 408.201 328.7C408.201 326.657 406.544 325 404.501 325C402.457 325 400.801 326.657 400.801 328.7C400.801 330.743 402.457 332.4 404.501 332.4Z" fill="#0A0909"/>
<path d="M419.3 347.2C421.343 347.2 423 345.543 423 343.5C423 341.456 421.343 339.8 419.3 339.8C417.256 339.8 415.6 341.456 415.6 343.5C415.6 345.543 417.256 347.2 419.3 347.2Z" fill="#0A0909"/>
<path d="M411.899 347.2C413.943 347.2 415.599 345.543 415.599 343.5C415.599 341.456 413.943 339.8 411.899 339.8C409.856 339.8 408.199 341.456 408.199 343.5C408.199 345.543 409.856 347.2 411.899 347.2Z" fill="#0A0909"/>
<path d="M404.501 347.2C406.544 347.2 408.201 345.543 408.201 343.5C408.201 341.456 406.544 339.8 404.501 339.8C402.457 339.8 400.801 341.456 400.801 343.5C400.801 345.543 402.457 347.2 404.501 347.2Z" fill="#0A0909"/>
<path d="M419.3 339.8C421.343 339.8 423 338.143 423 336.1C423 334.056 421.343 332.4 419.3 332.4C417.256 332.4 415.6 334.056 415.6 336.1C415.6 338.143 417.256 339.8 419.3 339.8Z" fill="#0A0909"/>
<path d="M404.501 339.8C406.544 339.8 408.201 338.143 408.201 336.1C408.201 334.056 406.544 332.4 404.501 332.4C402.457 332.4 400.801 334.056 400.801 336.1C400.801 338.143 402.457 339.8 404.501 339.8Z" fill="#0A0909"/>
<path d="M419.3 317.6C421.343 317.6 423 315.944 423 313.9C423 311.857 421.343 310.2 419.3 310.2C417.256 310.2 415.6 311.857 415.6 313.9C415.6 315.944 417.256 317.6 419.3 317.6Z" fill="#0A0909"/>
<path d="M426.7 310.2C428.743 310.2 430.4 308.543 430.4 306.5C430.4 304.456 428.743 302.8 426.7 302.8C424.657 302.8 423 304.456 423 306.5C423 308.543 424.657 310.2 426.7 310.2Z" fill="#0A0909"/>
<path d="M426.7 317.6C428.743 317.6 430.4 315.944 430.4 313.9C430.4 311.857 428.743 310.2 426.7 310.2C424.657 310.2 423 311.857 423 313.9C423 315.944 424.657 317.6 426.7 317.6Z" fill="#0A0909"/>
<path d="M426.7 325C428.743 325 430.4 323.344 430.4 321.3C430.4 319.257 428.743 317.6 426.7 317.6C424.657 317.6 423 319.257 423 321.3C423 323.344 424.657 325 426.7 325Z" fill="#0A0909"/>
<path d="M434.1 325C436.144 325 437.8 323.344 437.8 321.3C437.8 319.257 436.144 317.6 434.1 317.6C432.057 317.6 430.4 319.257 430.4 321.3C430.4 323.344 432.057 325 434.1 325Z" fill="#0A0909"/>
<path d="M441.501 310.2C443.544 310.2 445.201 308.543 445.201 306.5C445.201 304.456 443.544 302.8 441.501 302.8C439.457 302.8 437.801 304.456 437.801 306.5C437.801 308.543 439.457 310.2 441.501 310.2Z" fill="#0A0909"/>
<path d="M441.501 325C443.544 325 445.201 323.344 445.201 321.3C445.201 319.257 443.544 317.6 441.501 317.6C439.457 317.6 437.801 319.257 437.801 321.3C437.801 323.344 439.457 325 441.501 325Z" fill="#0A0909"/>
<path d="M441.501 332.4C443.544 332.4 445.201 330.743 445.201 328.7C445.201 326.657 443.544 325 441.501 325C439.457 325 437.801 326.657 437.801 328.7C437.801 330.743 439.457 332.4 441.501 332.4Z" fill="#0A0909"/>
<path d="M404.501 317.6C406.544 317.6 408.201 315.944 408.201 313.9C408.201 311.857 406.544 310.2 404.501 310.2C402.457 310.2 400.801 311.857 400.801 313.9C400.801 315.944 402.457 317.6 404.501 317.6Z" fill="#0A0909"/>
<path d="M404.501 310.2C406.544 310.2 408.201 308.543 408.201 306.5C408.201 304.456 406.544 302.8 404.501 302.8C402.457 302.8 400.801 304.456 400.801 306.5C400.801 308.543 402.457 310.2 404.501 310.2Z" fill="#0A0909"/>
<path d="M411.899 310.2C413.943 310.2 415.599 308.543 415.599 306.5C415.599 304.456 413.943 302.8 411.899 302.8C409.856 302.8 408.199 304.456 408.199 306.5C408.199 308.543 409.856 310.2 411.899 310.2Z" fill="#0A0909"/>
<path d="M426.7 339.8C428.743 339.8 430.4 338.143 430.4 336.1C430.4 334.056 428.743 332.4 426.7 332.4C424.657 332.4 423 334.056 423 336.1C423 338.143 424.657 339.8 426.7 339.8Z" fill="#0A0909"/>
<path d="M434.1 332.4C436.144 332.4 437.8 330.743 437.8 328.7C437.8 326.657 436.144 325 434.1 325C432.057 325 430.4 326.657 430.4 328.7C430.4 330.743 432.057 332.4 434.1 332.4Z" fill="#0A0909"/>
<path d="M441.501 339.8C443.544 339.8 445.201 338.143 445.201 336.1C445.201 334.056 443.544 332.4 441.501 332.4C439.457 332.4 437.801 334.056 437.801 336.1C437.801 338.143 439.457 339.8 441.501 339.8Z" fill="#0A0909"/>
<path d="M441.501 347.2C443.544 347.2 445.201 345.543 445.201 343.5C445.201 341.456 443.544 339.8 441.501 339.8C439.457 339.8 437.801 341.456 437.801 343.5C437.801 345.543 439.457 347.2 441.501 347.2Z" fill="#0A0909"/>
<path d="M434.1 347.2C436.144 347.2 437.8 345.543 437.8 343.5C437.8 341.456 436.144 339.8 434.1 339.8C432.057 339.8 430.4 341.456 430.4 343.5C430.4 345.543 432.057 347.2 434.1 347.2Z" fill="#0A0909"/>
<defs>
<filter id="filter0_d_37984_58788" x="66.4857" y="167.143" width="111.029" height="111.029" filterUnits="userSpaceOnUse" color-interpolation-filters="sRGB">
<feFlood flood-opacity="0" result="BackgroundImageFix"/>
<feColorMatrix in="SourceAlpha" type="matrix" values="0 0 0 0 0 0 0 0 0 0 0 0 0 0 0 0 0 0 127 0" result="hardAlpha"/>
<feOffset dy="1.65714"/>
<feGaussianBlur stdDeviation="13.2571"/>
<feComposite in2="hardAlpha" operator="out"/>
<feColorMatrix type="matrix" values="0 0 0 0 0.247059 0 0 0 0 0.282353 0 0 0 0 0.403922 0 0 0 0.08 0"/>
<feBlend mode="normal" in2="BackgroundImageFix" result="effect1_dropShadow_37984_58788"/>
<feBlend mode="normal" in="SourceGraphic" in2="effect1_dropShadow_37984_58788" result="shape"/>
</filter>
<linearGradient id="paint0_linear_37984_58788" x1="339" y1="30" x2="339" y2="442" gradientUnits="userSpaceOnUse">
<stop stop-color="#01A56D"/>
<stop offset="1" stop-color="#F7F9FC"/>
</linearGradient>
<linearGradient id="paint1_linear_37984_58788" x1="339" y1="109" x2="339" y2="363" gradientUnits="userSpaceOnUse">
<stop stop-color="#01A56D"/>
<stop offset="1" stop-color="#F7F9FC"/>
</linearGradient>
<radialGradient id="paint2_radial_37984_58788" cx="0" cy="0" r="1" gradientUnits="userSpaceOnUse" gradientTransform="translate(75.6501 148.855) scale(51.9338 51.9338)">
<stop stop-color="#FFDD55"/>
<stop offset="0.328" stop-color="#FF543F"/>
<stop offset="0.348" stop-color="#FC5245"/>
<stop offset="0.504" stop-color="#E64771"/>
<stop offset="0.643" stop-color="#D53E91"/>
<stop offset="0.761" stop-color="#CC39A4"/>
<stop offset="0.841" stop-color="#C837AB"/>
</radialGradient>
<clipPath id="clip0_37984_58788">
<rect width="140" height="140" fill="white" transform="translate(199 160)"/>
</clipPath>
<clipPath id="clip1_37984_58788">
<rect width="33.33" height="33.33" fill="white" transform="translate(26 285)"/>
</clipPath>
</defs>
</svg>
