<svg width="350" height="207" viewBox="0 0 350 207" fill="none" xmlns="http://www.w3.org/2000/svg">
<path d="M109.199 37.8001C109.199 31.6145 114.214 26.6001 120.399 26.6001H229.599C235.785 26.6001 240.799 31.6145 240.799 37.8001V147C240.799 153.186 235.785 158.2 229.599 158.2H120.399C114.214 158.2 109.199 153.186 109.199 147V37.8001Z" fill="white"/>
<g clip-path="url(#clip0_37984_59355)">
<path d="M179.083 120.983V116.9H174.999V112.817H179.083V116.9H183.166V112.817V108.733V104.65H179.083V108.733H174.999H170.916V104.65H174.999H179.083V100.567V96.4834H174.999V100.567H170.916V96.4834H166.833V100.567V104.65V108.733H162.749H158.666V112.817V116.9V120.983H162.749V116.9V112.817H166.833H170.916V116.9V120.983H174.999V125.067H179.083V129.15H183.166V125.067H187.249V120.983H183.166H179.083Z" fill="#0A0909"/>
<path d="M162.75 120.983V125.067H166.833H170.917V120.983H166.833H162.75Z" fill="#0A0909"/>
<path d="M199.5 112.817V108.733H195.417V112.817H191.333V116.9H187.25V120.983H191.333V125.067H195.417H199.5V120.983H195.417V116.9H199.5H203.583V112.817H199.5Z" fill="#0A0909"/>
<path d="M207.667 108.733H203.584V112.817H207.667V108.733Z" fill="#0A0909"/>
<path d="M203.583 104.65H199.5V108.733H203.583V104.65Z" fill="#0A0909"/>
<path d="M195.417 108.733V104.65H191.333H187.25V108.733V112.817H191.333V108.733H195.417Z" fill="#0A0909"/>
<path d="M150.499 104.65V100.566H146.416V104.65V108.733H150.499V104.65Z" fill="#0A0909"/>
<path d="M142.333 108.733V104.65V100.566H138.249V104.65H134.166V108.733H138.249H142.333Z" fill="#0A0909"/>
<path d="M130.083 104.65H126V108.733H130.083V104.65Z" fill="#0A0909"/>
<path d="M162.75 104.65V100.566V96.4831H166.833V92.3997H162.75H158.667V88.3164H154.583H150.5V92.3997H154.583V96.4831H158.667V100.566H154.583V104.65V108.733H158.667V104.65H162.75Z" fill="#0A0909"/>
<path d="M130.083 96.4834H126V100.567H130.083V96.4834Z" fill="#0A0909"/>
<path d="M203.584 88.3167V84.2334H199.501H195.417V88.3167H199.501V92.4001H195.417H191.334V96.4834H195.417V100.567H199.501V96.4834H203.584V100.567H207.667V96.4834V92.4001H203.584V88.3167Z" fill="#0A0909"/>
<path d="M187.249 88.3164H183.166V92.3997V96.4831V100.566H187.249V96.4831V92.3997H191.333V88.3164H187.249Z" fill="#0A0909"/>
<path d="M175.001 92.4001V88.3167H170.917V84.2334H166.834V88.3167V92.4001H170.917H175.001Z" fill="#0A0909"/>
<path d="M179.083 84.2332H183.167V80.1499H179.083H175V84.2332V88.3166H179.083V84.2332Z" fill="#0A0909"/>
<path d="M154.584 84.2331H158.667V88.3164H162.751V84.2331V80.1497H158.667V76.0664H154.584V80.1497H150.501H146.417V76.0664H142.334V80.1497V84.2331H146.417V88.3164H150.501V84.2331H154.584Z" fill="#0A0909"/>
<path d="M138.25 80.1499H134.167V84.2332H130.083V88.3166H126V92.3999H130.083V96.4832H134.167V92.3999V88.3166H138.25V92.3999V96.4832H142.333H146.417V92.3999H142.333V88.3166V84.2332H138.25V80.1499Z" fill="#0A0909"/>
<path d="M207.667 76.0664H203.584V80.1497H207.667V76.0664Z" fill="#0A0909"/>
<path d="M195.417 76.0664H191.333V80.1497H187.25V84.2331H191.333H195.417V80.1497V76.0664Z" fill="#0A0909"/>
<path d="M170.917 76.0664H166.834V80.1497H170.917V76.0664Z" fill="#0A0909"/>
<path d="M130.083 76.0664H126V80.1497H130.083V76.0664Z" fill="#0A0909"/>
<path d="M187.249 71.9832V67.8999H183.166V71.9832V76.0666H187.249H191.333V71.9832H187.249Z" fill="#0A0909"/>
<path d="M170.916 71.9834V76.0667H174.999H179.083V71.9834V67.9001V63.8167V59.7334H174.999V63.8167H170.916V67.9001H174.999V71.9834H170.916Z" fill="#0A0909"/>
<path d="M162.749 71.9832H166.833V67.8999H162.749H158.666V71.9832V76.0666H162.749V71.9832Z" fill="#0A0909"/>
<path d="M191.333 63.8164H187.25V67.8997H191.333V63.8164Z" fill="#0A0909"/>
<path d="M162.749 63.8164H166.833V59.7331H170.916V55.6497H174.999V51.5664H170.916H166.833V55.6497H162.749V51.5664H158.666V55.6497V59.7331H162.749V63.8164Z" fill="#0A0909"/>
<path d="M187.251 55.6497H191.334V51.5664H187.251H183.167H179.084V55.6497H183.167V59.7331V63.8164H187.251V59.7331V55.6497Z" fill="#0A0909"/>
<path d="M211.751 125.067V120.983H207.667V116.9H203.584V120.983V125.067V129.15H207.667V125.067H211.751Z" fill="#0A0909"/>
<path d="M207.666 84.2332V88.3166V92.3999H211.749V96.4832H207.666V100.567H211.749H215.833V96.4832V92.3999V88.3166H211.749V84.2332V80.1499H207.666V84.2332Z" fill="#0A0909"/>
<path d="M211.749 112.817H215.833V108.733V104.65H211.749H207.666V108.733H211.749V112.817Z" fill="#0A0909"/>
<path d="M215.833 76.0664H211.75V80.1497H215.833V76.0664Z" fill="#0A0909"/>
<path d="M199.499 129.15H195.416V133.233H199.499V129.15Z" fill="#0A0909"/>
<path d="M187.249 129.15H183.166V133.233H187.249V129.15Z" fill="#0A0909"/>
<path d="M158.666 133.233V137.317V141.4H162.749V137.317V133.233V129.15H158.666V133.233Z" fill="#0A0909"/>
<path d="M211.749 129.15H207.666V133.233H211.749V129.15Z" fill="#0A0909"/>
<path d="M207.667 133.233H203.584V137.317H207.667V133.233Z" fill="#0A0909"/>
<path d="M215.833 125.066H211.75V129.15H215.833V125.066Z" fill="#0A0909"/>
<path d="M191.334 137.317V141.4H195.417H199.501V137.317H195.417V133.233H191.334V137.317Z" fill="#0A0909"/>
<path d="M175.001 133.233V129.15H170.917V133.233H166.834V137.317H170.917V141.4H175.001H179.084V137.317H175.001V133.233Z" fill="#0A0909"/>
<path d="M187.249 137.316H183.166V141.4H187.249V137.316Z" fill="#0A0909"/>
<path d="M211.749 141.4H215.833V137.316H211.749H207.666V141.4H211.749Z" fill="#0A0909"/>
<path d="M223.999 137.316H219.916V141.4H223.999V137.316Z" fill="#0A0909"/>
<path d="M219.917 112.817H215.834V116.9V120.983V125.067H219.917V129.15H215.834V133.233H219.917H224.001V129.15V125.067V120.983H219.917V116.9H224.001V112.817V108.733H219.917V112.817Z" fill="#0A0909"/>
<path d="M219.916 100.567V104.65H223.999V100.567V96.4834H219.916V100.567Z" fill="#0A0909"/>
<path d="M219.917 80.1497H215.834V84.2331H219.917V88.3164V92.3997H224.001V88.3164V84.2331V80.1497V76.0664H219.917V80.1497Z" fill="#0A0909"/>
<path d="M183.167 47.4832H187.25V43.3999H183.167H179.083H175V47.4832H179.083H183.167Z" fill="#0A0909"/>
<path d="M166.833 47.4832V43.3999H162.749H158.666V47.4832H162.749V51.5666H166.833V47.4832Z" fill="#0A0909"/>
<path d="M138.249 120.983H134.166V125.067V129.15V133.233H138.249H142.333H146.416V129.15V125.067V120.983H142.333H138.249Z" fill="#48BA75"/>
<path d="M146.417 112.816H126V141.4H154.583V112.816H146.417ZM150.5 120.983V137.316H130.083V116.9H150.5V120.983Z" fill="#0A0909"/>
<path d="M207.667 51.5664H203.584V55.6497V59.7331V63.8164H207.667H211.751H215.834V59.7331V55.6497V51.5664H211.751H207.667Z" fill="#48BA75"/>
<path d="M219.916 43.3999H195.416V71.9832H223.999V43.3999H219.916ZM219.916 51.5666V67.8999H199.499V47.4832H219.916V51.5666Z" fill="#0A0909"/>
<path d="M142.333 63.8164H146.416V59.7331V55.6497V51.5664H142.333H138.249H134.166V55.6497V59.7331V63.8164H138.249H142.333Z" fill="#48BA75"/>
<path d="M134.167 71.9832H154.583V43.3999H126V71.9832H134.167ZM130.083 63.8166V47.4832H150.5V67.8999H130.083V63.8166Z" fill="#0A0909"/>
<path d="M158.9 92.3998C158.9 83.508 166.109 76.2998 175 76.2998C183.892 76.2998 191.1 83.508 191.1 92.3998C191.1 101.292 183.892 108.5 175 108.5C166.109 108.5 158.9 101.292 158.9 92.3998Z" fill="white"/>
<path d="M180.078 87.3236L180.486 87.1412L180.416 86.985L180.26 86.9152L180.078 87.3236ZM171.781 92.3539L171.387 92.1425L171.094 92.6884L171.705 92.7946L171.781 92.3539ZM175.047 95.6199L174.607 95.6965L174.713 96.3069L175.259 96.014L175.047 95.6199ZM176.003 94.9499C175.781 94.8413 175.513 94.9331 175.405 95.1549C175.296 95.3768 175.388 95.6446 175.61 95.7532L175.806 95.3516L176.003 94.9499ZM177.172 97.7665L176.73 97.8397L176.85 98.5605L177.438 98.1262L177.172 97.7665ZM178.377 93.5029C178.245 93.294 177.969 93.2315 177.76 93.3633C177.551 93.4951 177.489 93.7713 177.621 93.9802L177.999 93.7416L178.377 93.5029ZM171.648 91.8374C171.757 92.0592 172.025 92.151 172.246 92.0424C172.468 91.9338 172.56 91.6659 172.451 91.4441L172.05 91.6407L171.648 91.8374ZM169.635 90.2755L169.275 90.0097C169.183 90.1349 169.162 90.2992 169.22 90.4435C169.279 90.5878 169.408 90.6913 169.562 90.7167L169.635 90.2755ZM173.421 89.8264C173.63 89.9582 173.906 89.8957 174.038 89.6868C174.17 89.4779 174.107 89.2017 173.898 89.0699L173.66 89.4481L173.421 89.8264ZM171.751 94.4521C171.925 94.2774 171.925 93.9943 171.751 93.8196C171.576 93.645 171.293 93.645 171.118 93.8196L171.434 94.1359L171.751 94.4521ZM170.977 96.4249L170.552 96.5663L170.623 96.7785L170.835 96.8492L170.977 96.4249ZM173.582 96.2833C173.757 96.1087 173.757 95.8255 173.582 95.6509C173.407 95.4762 173.124 95.4762 172.949 95.6509L173.266 95.9671L173.582 96.2833ZM180.078 87.3236L180.26 86.9152C178.491 86.1249 174.495 86.3508 171.387 92.1425L171.781 92.3539L172.176 92.5654C175.118 87.0819 178.655 87.1778 179.895 87.7319L180.078 87.3236ZM171.781 92.3539L171.705 92.7946C171.947 92.8366 172.744 93.1164 173.515 93.8867L173.831 93.5705L174.147 93.2542C173.252 92.3586 172.288 91.9882 171.858 91.9133L171.781 92.3539ZM180.078 87.3236L179.669 87.5059C180.223 88.7466 180.319 92.2837 174.836 95.2258L175.047 95.6199L175.259 96.014C181.05 92.9065 181.276 88.9108 180.486 87.1412L180.078 87.3236ZM175.047 95.6199L175.488 95.5433C175.413 95.113 175.043 94.1498 174.147 93.2542L173.831 93.5705L173.515 93.8867C174.285 94.657 174.565 95.4546 174.607 95.6965L175.047 95.6199ZM175.806 95.3516L175.61 95.7532C176.471 96.1748 176.572 96.885 176.73 97.8397L177.172 97.7665L177.613 97.6934C177.467 96.8161 177.335 95.6017 176.003 94.9499L175.806 95.3516ZM177.172 97.7665C177.438 98.1262 177.438 98.126 177.438 98.1259C177.438 98.1258 177.438 98.1257 177.438 98.1256C177.439 98.1254 177.439 98.1251 177.439 98.1248C177.44 98.1243 177.441 98.1236 177.442 98.1229C177.444 98.1214 177.446 98.1194 177.45 98.1171C177.456 98.1123 177.464 98.1059 177.474 98.0979C177.495 98.0817 177.523 98.0589 177.557 98.0297C177.626 97.9714 177.72 97.887 177.826 97.7786C178.038 97.563 178.308 97.2453 178.529 96.8412C178.98 96.0148 179.216 94.8317 178.377 93.5029L177.999 93.7416L177.621 93.9802C178.251 94.9791 178.073 95.8084 177.744 96.4126C177.574 96.7238 177.361 96.9759 177.189 97.1513C177.103 97.2384 177.029 97.3048 176.978 97.3484C176.952 97.3701 176.932 97.3861 176.92 97.396C176.914 97.4009 176.909 97.4043 176.907 97.4061C176.906 97.407 176.905 97.4076 176.905 97.4077C176.905 97.4078 176.905 97.4077 176.905 97.4076C176.905 97.4075 176.905 97.4074 176.905 97.4073C176.905 97.4073 176.905 97.4072 176.905 97.4071C176.906 97.407 176.906 97.4069 177.172 97.7665ZM172.05 91.6407L172.451 91.4441C171.8 90.1126 170.585 89.9798 169.708 89.8343L169.635 90.2755L169.562 90.7167C170.516 90.875 171.227 90.9763 171.648 91.8374L172.05 91.6407ZM169.635 90.2755C169.994 90.5414 169.994 90.5415 169.994 90.5417C169.994 90.5417 169.994 90.5419 169.994 90.5419C169.994 90.5421 169.994 90.5422 169.994 90.5423C169.994 90.5425 169.994 90.5425 169.994 90.5424C169.994 90.5423 169.994 90.5416 169.995 90.5404C169.997 90.538 170 90.5335 170.005 90.5273C170.015 90.5148 170.031 90.4951 170.053 90.4695C170.097 90.4182 170.163 90.3442 170.25 90.2585C170.425 90.0859 170.677 89.8735 170.989 89.7036C171.593 89.3738 172.422 89.1961 173.421 89.8264L173.66 89.4481L173.898 89.0699C172.57 88.2315 171.386 88.4674 170.56 88.9185C170.156 89.1391 169.838 89.4088 169.623 89.6209C169.514 89.7276 169.43 89.8214 169.372 89.89C169.342 89.9243 169.32 89.9525 169.303 89.9729C169.295 89.9831 169.289 89.9914 169.284 89.9976C169.282 90.0007 169.28 90.0033 169.278 90.0053C169.278 90.0063 169.277 90.0072 169.276 90.0079C169.276 90.0083 169.276 90.0086 169.276 90.0089C169.276 90.009 169.275 90.0092 169.275 90.0093C169.275 90.0095 169.275 90.0097 169.635 90.2755ZM171.434 94.1359L171.118 93.8196C170.728 94.2098 170.119 95.265 170.552 96.5663L170.977 96.4249L171.401 96.2835C171.102 95.3874 171.53 94.6723 171.751 94.4521L171.434 94.1359ZM173.266 95.9671L172.949 95.6509C172.729 95.8711 172.014 96.2993 171.118 96.0006L170.977 96.4249L170.835 96.8492C172.137 97.283 173.192 96.6735 173.582 96.2833L173.266 95.9671ZM178.162 90.2831H178.609C178.609 89.4597 177.942 88.7923 177.119 88.7923V89.2395V89.6868C177.448 89.6868 177.715 89.9537 177.715 90.2831H178.162ZM177.119 89.2395V88.7923C176.295 88.7923 175.628 89.4597 175.628 90.2831H176.075H176.522C176.522 89.9537 176.789 89.6868 177.119 89.6868V89.2395ZM176.075 90.2831H175.628C175.628 91.1064 176.295 91.7738 177.119 91.7738V91.3266V90.8794C176.789 90.8794 176.522 90.6124 176.522 90.2831H176.075ZM177.119 91.3266V91.7738C177.942 91.7738 178.609 91.1064 178.609 90.2831H178.162H177.715C177.715 90.6124 177.448 90.8794 177.119 90.8794V91.3266Z" fill="#48BA75"/>
<circle cx="175.001" cy="92.4002" r="12.075" stroke="#48BA75" stroke-width="0.894445" stroke-dasharray="1.79 1.79"/>
</g>
<path d="M235.798 18.6495C234.968 18.659 234.999 16.7525 235.906 10.5251C236.871 3.93367 237.324 2.51469 238.264 2.84374C239.552 3.31216 237.141 18.5997 235.798 18.6495Z" fill="#48BA75"/>
<path d="M263.186 28.7063C263.037 31.1864 262.593 31.4799 257.051 32.771C251.329 34.1107 250.236 34.1517 249.896 33.1001C249.287 31.1908 250.689 30.3505 257.684 28.3405C262.846 26.8605 263.296 26.8757 263.186 28.7063Z" fill="#48BA75"/>
<path d="M258.742 10.7484C258.659 12.5332 258.266 13.1615 256.025 15.1368C249.358 20.9711 245.058 25.6675 245.29 22.1968C245.375 20.7795 246.502 19.5671 254.075 12.4833C258.279 8.58712 258.838 8.35995 258.742 10.7484Z" fill="#48BA75"/>
<g filter="url(#filter0_d_37984_59355)">
<path d="M81.6705 75.6597H79.9305C79.4501 75.6597 79.0605 76.0492 79.0605 76.5297V78.2697C79.0605 78.7502 79.4501 79.1397 79.9305 79.1397H81.6705C82.151 79.1397 82.5405 78.7502 82.5405 78.2697V76.5297C82.5405 76.0492 82.151 75.6597 81.6705 75.6597Z" fill="#0A0909"/>
<path d="M62.5321 82.6197H64.2721C64.5028 82.6197 64.7241 82.528 64.8873 82.3649C65.0504 82.2017 65.1421 81.9804 65.1421 81.7497V79.1397H67.7521C67.9828 79.1397 68.2041 79.048 68.3673 78.8849C68.5304 78.7217 68.6221 78.5004 68.6221 78.2697V76.5297C68.6221 76.2989 68.5304 76.0776 68.3673 75.9145C68.2041 75.7513 67.9828 75.6597 67.7521 75.6597H62.5321C62.3014 75.6597 62.0801 75.7513 61.9169 75.9145C61.7538 76.0776 61.6621 76.2989 61.6621 76.5297V81.7497C61.6621 81.9804 61.7538 82.2017 61.9169 82.3649C62.0801 82.528 62.3014 82.6197 62.5321 82.6197Z" fill="#0A0909"/>
<path d="M75.5821 90.4496C75.5821 90.2189 75.4904 89.9976 75.3273 89.8344C75.1641 89.6713 74.9428 89.5796 74.7121 89.5796H72.1021V86.9696C72.1021 86.7389 72.0104 86.5176 71.8473 86.3544C71.6841 86.1913 71.4628 86.0996 71.2321 86.0996H68.6221V83.4896C68.6221 83.2589 68.5304 83.0376 68.3673 82.8744C68.2041 82.7113 67.9828 82.6196 67.7521 82.6196H66.0121C65.7814 82.6196 65.5601 82.7113 65.3969 82.8744C65.2338 83.0376 65.1421 83.2589 65.1421 83.4896V86.0996H62.5321C62.3014 86.0996 62.0801 86.1913 61.9169 86.3544C61.7538 86.5176 61.6621 86.7389 61.6621 86.9696V95.6696C61.6621 95.9004 61.7538 96.1217 61.9169 96.2848C62.0801 96.448 62.3014 96.5396 62.5321 96.5396H71.2321C71.4628 96.5396 71.6841 96.448 71.8473 96.2848C72.0104 96.1217 72.1021 95.9004 72.1021 95.6696V93.0596H74.7121C74.9428 93.0596 75.1641 92.968 75.3273 92.8048C75.4904 92.6417 75.5821 92.4204 75.5821 92.1896V90.4496ZM68.6221 93.0596H65.1421V89.5796H68.6221V93.0596Z" fill="#0A0909"/>
<path d="M81.6711 82.6197H75.5811V76.5297C75.5811 76.2989 75.4894 76.0776 75.3263 75.9145C75.1631 75.7513 74.9418 75.6597 74.7111 75.6597H72.9711C72.7404 75.6597 72.5191 75.7513 72.3559 75.9145C72.1928 76.0776 72.1011 76.2989 72.1011 76.5297V79.1397H69.4911C69.2604 79.1397 69.0391 79.2313 68.8759 79.3945C68.7128 79.5576 68.6211 79.7789 68.6211 80.0097V81.7497C68.6211 81.9804 68.7128 82.2017 68.8759 82.3649C69.0391 82.528 69.2604 82.6197 69.4911 82.6197H72.1011V85.2297C72.1011 85.4604 72.1928 85.6817 72.3559 85.8449C72.5191 86.008 72.7404 86.0997 72.9711 86.0997H75.5811V88.7097C75.5811 88.9404 75.6728 89.1617 75.8359 89.3249C75.9991 89.488 76.2204 89.5797 76.4511 89.5797H79.0611V93.0597H76.4511C76.2204 93.0597 75.9991 93.1513 75.8359 93.3145C75.6728 93.4776 75.5811 93.6989 75.5811 93.9297V95.6697C75.5811 95.9004 75.6728 96.1217 75.8359 96.2849C75.9991 96.448 76.2204 96.5397 76.4511 96.5397H81.6711C81.9018 96.5397 82.1231 96.448 82.2863 96.2849C82.4494 96.1217 82.5411 95.9004 82.5411 95.6697V83.4897C82.5411 83.2589 82.4494 83.0376 82.2863 82.8745C82.1231 82.7113 81.9018 82.6197 81.6711 82.6197Z" fill="#0A0909"/>
</g>
<path d="M318.501 54.5366C314.214 54.5366 310.103 56.2395 307.072 59.2707C304.041 62.3019 302.338 66.4131 302.338 70.6998C302.338 74.9866 304.041 79.0977 307.072 82.1289C310.103 85.1601 314.214 86.863 318.501 86.863C322.788 86.863 326.899 85.1601 329.93 82.1289C332.961 79.0977 334.664 74.9866 334.664 70.6998C334.664 66.4131 332.961 62.3019 329.93 59.2707C326.899 56.2395 322.788 54.5366 318.501 54.5366Z" fill="#039BE5"/>
<path d="M320.689 74.9839H324.872L325.528 70.7347H320.688V68.4123C320.688 66.6471 321.265 65.0818 322.916 65.0818H325.569V61.3736C325.103 61.3107 324.117 61.1729 322.254 61.1729C318.364 61.1729 316.083 63.2273 316.083 67.9078V70.7347H312.084V74.9839H316.083V86.6631C316.875 86.7822 317.677 86.863 318.501 86.863C319.245 86.863 319.972 86.7949 320.689 86.6979V74.9839Z" fill="white"/>
<circle cx="43.3963" cy="20.9959" r="14.5819" fill="url(#paint0_radial_37984_59355)"/>
<path d="M43.4005 25.2405C41.0629 25.2405 39.1602 23.3384 39.1602 21.0002C39.1602 18.6619 41.0629 16.7598 43.4005 16.7598C45.7382 16.7598 47.6409 18.6619 47.6409 21.0002C47.6409 23.3384 45.7382 25.2405 43.4005 25.2405ZM43.4005 17.9713C41.7304 17.9713 40.3717 19.33 40.3717 21.0002C40.3717 22.6703 41.7304 24.029 43.4005 24.029C45.0706 24.029 46.4294 22.6703 46.4294 21.0002C46.4294 19.33 45.0706 17.9713 43.4005 17.9713Z" fill="white"/>
<path d="M47.9438 17.3656C48.4456 17.3656 48.8525 16.9588 48.8525 16.457C48.8525 15.9552 48.4456 15.5483 47.9438 15.5483C47.442 15.5483 47.0352 15.9552 47.0352 16.457C47.0352 16.9588 47.442 17.3656 47.9438 17.3656Z" fill="white"/>
<path d="M47.035 28.875H39.7658C37.4281 28.875 35.5254 26.9729 35.5254 24.6346V17.3654C35.5254 15.0271 37.4281 13.125 39.7658 13.125H47.035C49.3727 13.125 51.2754 15.0271 51.2754 17.3654V24.6346C51.2754 26.9729 49.3727 28.875 47.035 28.875ZM39.7658 14.3365C38.0957 14.3365 36.7369 15.6953 36.7369 17.3654V24.6346C36.7369 26.3047 38.0957 27.6635 39.7658 27.6635H47.035C48.7051 27.6635 50.0639 26.3047 50.0639 24.6346V17.3654C50.0639 15.6953 48.7051 14.3365 47.035 14.3365H39.7658Z" fill="white"/>
<g clip-path="url(#clip1_37984_59355)">
<path d="M16.5659 130.9C10.1234 130.9 4.90039 136.123 4.90039 142.565C4.90039 149.008 10.1234 154.231 16.5659 154.231C23.0083 154.231 28.2314 149.008 28.2314 142.565C28.2314 136.123 23.0083 130.9 16.5659 130.9Z" fill="black"/>
<path d="M17.8667 141.539L22.0361 136.5H21.0481L17.4278 140.875L14.5362 136.5H11.2012L15.5738 143.116L11.2012 148.4H12.1893L16.0124 143.78L19.0661 148.4H22.4012L17.8664 141.539H17.8667ZM12.5453 137.273H14.0629L21.0486 147.662H19.5309L12.5453 137.273Z" fill="white"/>
</g>
<path d="M275.029 181.1C276.46 181.1 277.619 179.94 277.619 178.51C277.619 177.08 276.46 175.92 275.029 175.92C273.599 175.92 272.439 177.08 272.439 178.51C272.439 179.94 273.599 181.1 275.029 181.1Z" fill="#0A0909"/>
<path d="M280.211 186.28C281.642 186.28 282.801 185.12 282.801 183.69C282.801 182.259 281.642 181.1 280.211 181.1C278.781 181.1 277.621 182.259 277.621 183.69C277.621 185.12 278.781 186.28 280.211 186.28Z" fill="#0A0909"/>
<path d="M275.029 186.28C276.46 186.28 277.619 185.12 277.619 183.69C277.619 182.259 276.46 181.1 275.029 181.1C273.599 181.1 272.439 182.259 272.439 183.69C272.439 185.12 273.599 186.28 275.029 186.28Z" fill="#0A0909"/>
<path d="M269.85 186.28C271.28 186.28 272.44 185.12 272.44 183.69C272.44 182.259 271.28 181.1 269.85 181.1C268.419 181.1 267.26 182.259 267.26 183.69C267.26 185.12 268.419 186.28 269.85 186.28Z" fill="#0A0909"/>
<path d="M280.211 196.639C281.642 196.639 282.801 195.48 282.801 194.049C282.801 192.619 281.642 191.459 280.211 191.459C278.781 191.459 277.621 192.619 277.621 194.049C277.621 195.48 278.781 196.639 280.211 196.639Z" fill="#0A0909"/>
<path d="M275.029 196.639C276.46 196.639 277.619 195.48 277.619 194.049C277.619 192.619 276.46 191.459 275.029 191.459C273.599 191.459 272.439 192.619 272.439 194.049C272.439 195.48 273.599 196.639 275.029 196.639Z" fill="#0A0909"/>
<path d="M269.85 196.639C271.28 196.639 272.44 195.48 272.44 194.049C272.44 192.619 271.28 191.459 269.85 191.459C268.419 191.459 267.26 192.619 267.26 194.049C267.26 195.48 268.419 196.639 269.85 196.639Z" fill="#0A0909"/>
<path d="M280.211 191.46C281.642 191.46 282.801 190.3 282.801 188.87C282.801 187.439 281.642 186.28 280.211 186.28C278.781 186.28 277.621 187.439 277.621 188.87C277.621 190.3 278.781 191.46 280.211 191.46Z" fill="#0A0909"/>
<path d="M269.85 191.46C271.28 191.46 272.44 190.3 272.44 188.87C272.44 187.439 271.28 186.28 269.85 186.28C268.419 186.28 267.26 187.439 267.26 188.87C267.26 190.3 268.419 191.46 269.85 191.46Z" fill="#0A0909"/>
<path d="M280.211 175.92C281.642 175.92 282.801 174.76 282.801 173.33C282.801 171.899 281.642 170.74 280.211 170.74C278.781 170.74 277.621 171.899 277.621 173.33C277.621 174.76 278.781 175.92 280.211 175.92Z" fill="#0A0909"/>
<path d="M285.391 170.74C286.821 170.74 287.981 169.58 287.981 168.15C287.981 166.719 286.821 165.56 285.391 165.56C283.96 165.56 282.801 166.719 282.801 168.15C282.801 169.58 283.96 170.74 285.391 170.74Z" fill="#0A0909"/>
<path d="M285.391 175.92C286.821 175.92 287.981 174.76 287.981 173.33C287.981 171.899 286.821 170.74 285.391 170.74C283.96 170.74 282.801 171.899 282.801 173.33C282.801 174.76 283.96 175.92 285.391 175.92Z" fill="#0A0909"/>
<path d="M285.391 181.1C286.821 181.1 287.981 179.94 287.981 178.51C287.981 177.08 286.821 175.92 285.391 175.92C283.96 175.92 282.801 177.08 282.801 178.51C282.801 179.94 283.96 181.1 285.391 181.1Z" fill="#0A0909"/>
<path d="M290.57 181.1C292.001 181.1 293.16 179.94 293.16 178.51C293.16 177.08 292.001 175.92 290.57 175.92C289.14 175.92 287.98 177.08 287.98 178.51C287.98 179.94 289.14 181.1 290.57 181.1Z" fill="#0A0909"/>
<path d="M295.75 170.74C297.181 170.74 298.34 169.58 298.34 168.15C298.34 166.719 297.181 165.56 295.75 165.56C294.32 165.56 293.16 166.719 293.16 168.15C293.16 169.58 294.32 170.74 295.75 170.74Z" fill="#0A0909"/>
<path d="M295.75 181.1C297.181 181.1 298.34 179.94 298.34 178.51C298.34 177.08 297.181 175.92 295.75 175.92C294.32 175.92 293.16 177.08 293.16 178.51C293.16 179.94 294.32 181.1 295.75 181.1Z" fill="#0A0909"/>
<path d="M295.75 186.28C297.181 186.28 298.34 185.12 298.34 183.69C298.34 182.259 297.181 181.1 295.75 181.1C294.32 181.1 293.16 182.259 293.16 183.69C293.16 185.12 294.32 186.28 295.75 186.28Z" fill="#0A0909"/>
<path d="M269.85 175.92C271.28 175.92 272.44 174.76 272.44 173.33C272.44 171.899 271.28 170.74 269.85 170.74C268.419 170.74 267.26 171.899 267.26 173.33C267.26 174.76 268.419 175.92 269.85 175.92Z" fill="#0A0909"/>
<path d="M269.85 170.74C271.28 170.74 272.44 169.58 272.44 168.15C272.44 166.719 271.28 165.56 269.85 165.56C268.419 165.56 267.26 166.719 267.26 168.15C267.26 169.58 268.419 170.74 269.85 170.74Z" fill="#0A0909"/>
<path d="M275.029 170.74C276.46 170.74 277.619 169.58 277.619 168.15C277.619 166.719 276.46 165.56 275.029 165.56C273.599 165.56 272.439 166.719 272.439 168.15C272.439 169.58 273.599 170.74 275.029 170.74Z" fill="#0A0909"/>
<path d="M285.391 191.46C286.821 191.46 287.981 190.3 287.981 188.87C287.981 187.439 286.821 186.28 285.391 186.28C283.96 186.28 282.801 187.439 282.801 188.87C282.801 190.3 283.96 191.46 285.391 191.46Z" fill="#0A0909"/>
<path d="M290.57 186.28C292.001 186.28 293.16 185.12 293.16 183.69C293.16 182.259 292.001 181.1 290.57 181.1C289.14 181.1 287.98 182.259 287.98 183.69C287.98 185.12 289.14 186.28 290.57 186.28Z" fill="#0A0909"/>
<path d="M295.75 191.46C297.181 191.46 298.34 190.3 298.34 188.87C298.34 187.439 297.181 186.28 295.75 186.28C294.32 186.28 293.16 187.439 293.16 188.87C293.16 190.3 294.32 191.46 295.75 191.46Z" fill="#0A0909"/>
<path d="M295.75 196.639C297.181 196.639 298.34 195.48 298.34 194.049C298.34 192.619 297.181 191.459 295.75 191.459C294.32 191.459 293.16 192.619 293.16 194.049C293.16 195.48 294.32 196.639 295.75 196.639Z" fill="#0A0909"/>
<path d="M290.57 196.639C292.001 196.639 293.16 195.48 293.16 194.049C293.16 192.619 292.001 191.459 290.57 191.459C289.14 191.459 287.98 192.619 287.98 194.049C287.98 195.48 289.14 196.639 290.57 196.639Z" fill="#0A0909"/>
<defs>
<filter id="filter0_d_37984_59355" x="33.2408" y="48.3998" width="77.7196" height="77.7201" filterUnits="userSpaceOnUse" color-interpolation-filters="sRGB">
<feFlood flood-opacity="0" result="BackgroundImageFix"/>
<feColorMatrix in="SourceAlpha" type="matrix" values="0 0 0 0 0 0 0 0 0 0 0 0 0 0 0 0 0 0 127 0" result="hardAlpha"/>
<feOffset dy="1.16"/>
<feGaussianBlur stdDeviation="9.28"/>
<feComposite in2="hardAlpha" operator="out"/>
<feColorMatrix type="matrix" values="0 0 0 0 0.247059 0 0 0 0 0.282353 0 0 0 0 0.403922 0 0 0 0.08 0"/>
<feBlend mode="normal" in2="BackgroundImageFix" result="effect1_dropShadow_37984_59355"/>
<feBlend mode="normal" in="SourceGraphic" in2="effect1_dropShadow_37984_59355" result="shape"/>
</filter>
<radialGradient id="paint0_radial_37984_59355" cx="0" cy="0" r="1" gradientUnits="userSpaceOnUse" gradientTransform="translate(39.656 35.5989) scale(36.3537 36.3537)">
<stop stop-color="#FFDD55"/>
<stop offset="0.328" stop-color="#FF543F"/>
<stop offset="0.348" stop-color="#FC5245"/>
<stop offset="0.504" stop-color="#E64771"/>
<stop offset="0.643" stop-color="#D53E91"/>
<stop offset="0.761" stop-color="#CC39A4"/>
<stop offset="0.841" stop-color="#C837AB"/>
</radialGradient>
<clipPath id="clip0_37984_59355">
<rect width="98" height="98" fill="white" transform="translate(126 43.3999)"/>
</clipPath>
<clipPath id="clip1_37984_59355">
<rect width="23.331" height="23.331" fill="white" transform="translate(4.90039 130.9)"/>
</clipPath>
</defs>
</svg>
