<svg width="600" height="400" viewBox="0 0 600 400" fill="none" xmlns="http://www.w3.org/2000/svg">
<g clip-path="url(#clip0_37887_129088)">
<path d="M70.5343 400L69.9306 399.603C69.3834 399.238 68.8361 398.873 68.2888 398.508L67.8703 398.222L68.321 397.564L68.7395 397.849C69.2868 398.215 69.8341 398.58 70.3813 398.945L70.985 399.341L70.5343 400ZM557.956 399.952L557.393 399.389C557.828 398.968 558.254 398.54 558.673 398.111L559.252 398.667C558.826 399.095 558.399 399.532 557.956 399.96V399.952ZM65.2064 396.429C64.3211 395.826 63.4358 395.223 62.5585 394.612L63.0173 393.961C63.8945 394.564 64.7798 395.167 65.6571 395.77L65.1983 396.421L65.2064 396.429ZM561.473 396.358L560.886 395.818C561.618 395.048 562.334 394.263 563.051 393.477L563.654 394.009C562.938 394.802 562.214 395.58 561.481 396.358H561.473ZM59.9268 392.787C59.0495 392.168 58.1803 391.557 57.3111 390.93L57.7859 390.287C58.6552 390.906 59.5244 391.525 60.4016 392.136L59.9348 392.779L59.9268 392.787ZM565.771 391.604L565.159 391.088C565.86 390.287 566.544 389.477 567.22 388.66L567.839 389.16C567.155 389.977 566.471 390.795 565.771 391.604ZM54.7115 389.049C53.8504 388.414 52.9892 387.779 52.1281 387.144L52.611 386.51C53.4641 387.144 54.3252 387.779 55.1864 388.414L54.7035 389.049H54.7115ZM569.86 386.684L569.224 386.192C569.884 385.359 570.536 384.526 571.179 383.677L571.823 384.153C571.179 385.002 570.528 385.843 569.86 386.676V386.684ZM49.5688 385.2C48.7156 384.55 47.8706 383.891 47.0336 383.232L47.5326 382.613C48.3696 383.272 49.2146 383.923 50.0597 384.573L49.5688 385.2ZM573.731 381.59L573.079 381.129C573.707 380.272 574.318 379.407 574.922 378.534L575.59 378.979C574.986 379.852 574.367 380.725 573.739 381.59H573.731ZM44.5306 381.233C43.7016 380.558 42.8727 379.883 42.0518 379.193L42.5749 378.59C43.3958 379.272 44.2167 379.947 45.0457 380.621L44.5386 381.233H44.5306ZM39.6051 377.122C38.7922 376.424 37.9874 375.717 37.1906 375.011L37.7299 374.424C38.5266 375.13 39.3234 375.836 40.1282 376.527L39.5971 377.122H39.6051ZM577.369 376.328L576.692 375.9C577.28 375.011 577.851 374.122 578.415 373.226L579.099 373.646C578.535 374.551 577.956 375.44 577.369 376.336V376.328ZM34.8164 372.853C34.0277 372.123 33.2551 371.392 32.4825 370.654L33.0458 370.083C33.8104 370.821 34.583 371.551 35.3637 372.273L34.8164 372.853ZM580.773 370.916L580.081 370.512C580.62 369.599 581.159 368.686 581.682 367.766L582.383 368.155C581.859 369.083 581.32 370.004 580.773 370.916ZM30.1968 368.401C29.4403 367.647 28.6918 366.877 27.9594 366.107L28.5469 365.56C29.2793 366.33 30.0197 367.083 30.7762 367.837L30.2048 368.393L30.1968 368.401ZM583.92 365.361L583.211 364.988C583.711 364.06 584.201 363.116 584.684 362.171L585.401 362.528C584.918 363.481 584.427 364.417 583.928 365.361H583.92ZM25.7703 363.766C25.0459 362.981 24.3377 362.179 23.6375 361.378L24.2492 360.862C24.9494 361.664 25.6496 362.457 26.3658 363.243L25.7703 363.774V363.766ZM586.809 359.672L586.085 359.33C586.543 358.378 586.986 357.418 587.421 356.45L588.153 356.767C587.718 357.735 587.268 358.704 586.809 359.664V359.672ZM21.5691 358.934C20.8931 358.108 20.217 357.283 19.5651 356.442L20.2009 355.958C20.8528 356.791 21.5208 357.616 22.1969 358.434L21.5691 358.934ZM17.6175 353.895C16.9817 353.038 16.362 352.173 15.7503 351.3L16.4102 350.847C17.0139 351.712 17.6336 352.577 18.2694 353.426L17.6175 353.895ZM589.425 353.847L588.684 353.545C589.095 352.569 589.489 351.593 589.875 350.609L590.624 350.895C590.238 351.887 589.835 352.871 589.425 353.847ZM13.9636 348.641C13.3841 347.753 12.8127 346.84 12.2654 345.927L12.9576 345.523C13.4968 346.427 14.0682 347.332 14.6396 348.213L13.9636 348.641ZM591.751 347.911L590.994 347.641C591.356 346.65 591.71 345.65 592.048 344.65L592.813 344.904C592.475 345.912 592.121 346.911 591.751 347.911ZM10.6719 343.158C10.1568 342.229 9.64977 341.277 9.17493 340.333L9.89122 339.976C10.3661 340.912 10.865 341.856 11.3721 342.777L10.6638 343.158H10.6719ZM593.795 341.872L593.022 341.642C593.336 340.634 593.642 339.619 593.932 338.611L594.704 338.825C594.415 339.849 594.109 340.865 593.787 341.88L593.795 341.872ZM7.78259 337.452C7.33994 336.492 6.90534 335.516 6.48684 334.532L7.22727 334.23C7.63773 335.207 8.07233 336.175 8.50693 337.127L7.77454 337.46L7.78259 337.452ZM595.557 335.746L594.777 335.548C595.042 334.524 595.3 333.5 595.541 332.477L596.322 332.659C596.081 333.691 595.823 334.722 595.549 335.754L595.557 335.746ZM5.2957 331.564C4.91744 330.58 4.55527 329.564 4.21725 328.557L4.98182 328.303C5.31985 329.302 5.68202 330.302 6.05223 331.278L5.2957 331.556V331.564ZM597.022 329.548L596.233 329.39C596.451 328.358 596.66 327.319 596.853 326.287L597.642 326.43C597.449 327.469 597.239 328.517 597.022 329.556V329.548ZM3.25951 325.517C2.96173 324.501 2.672 323.462 2.41445 322.438L3.19513 322.248C3.45267 323.264 3.73436 324.287 4.04019 325.295L3.26756 325.517H3.25951ZM598.197 323.287L597.4 323.16C597.569 322.121 597.73 321.073 597.875 320.026L598.672 320.137C598.527 321.184 598.366 322.24 598.197 323.287ZM1.68207 319.335C1.46477 318.304 1.25552 317.248 1.07846 316.201L1.87523 316.066C2.05229 317.106 2.25349 318.145 2.47079 319.169L1.68207 319.335ZM599.074 316.979L598.278 316.891C598.398 315.844 598.511 314.796 598.608 313.741L599.412 313.812C599.316 314.868 599.203 315.923 599.082 316.979H599.074ZM0.603614 313.043C0.466795 311.987 0.35412 310.916 0.26559 309.868L1.07041 309.805C1.15894 310.844 1.27161 311.9 1.40843 312.947L0.611662 313.051L0.603614 313.043ZM599.67 310.638L598.865 310.583C598.938 309.527 599.002 308.48 599.05 307.424L599.855 307.464C599.807 308.519 599.742 309.583 599.67 310.638ZM0.0563386 306.686C0.0160977 305.742 0 304.79 0 303.861V303.496H0.804818V303.861C0.804818 304.782 0.820916 305.726 0.861157 306.655L0.0563386 306.686ZM599.96 304.282L599.155 304.266C599.179 303.21 599.195 302.155 599.195 301.1H600C600 302.163 599.984 303.218 599.96 304.282ZM0.901397 300.338L0.0965789 300.298C0.152916 299.235 0.233398 298.164 0.346072 297.116L1.15089 297.195C1.04626 298.235 0.957734 299.29 0.909445 300.338H0.901397ZM599.163 297.933C599.139 296.878 599.099 295.823 599.058 294.767L599.863 294.735C599.911 295.799 599.944 296.854 599.968 297.918L599.163 297.933ZM1.54525 294.069L0.748481 293.95C0.909445 292.902 1.1026 291.839 1.3199 290.807L2.10862 290.966C1.89132 291.99 1.70621 293.029 1.54525 294.069ZM598.873 291.609C598.801 290.553 598.72 289.506 598.624 288.45L599.429 288.379C599.525 289.434 599.614 290.49 599.686 291.553L598.881 291.609H598.873ZM2.84101 287.895L2.06034 287.689C2.33397 286.657 2.6398 285.625 2.96978 284.626L3.73436 284.872C3.41243 285.863 3.1066 286.879 2.83296 287.895H2.84101ZM598.294 285.308C598.173 284.26 598.044 283.213 597.899 282.166L598.696 282.062C598.841 283.11 598.978 284.165 599.099 285.221L598.302 285.308H598.294ZM4.81281 281.904L4.06433 281.618C4.45869 280.626 4.8772 279.634 5.31985 278.674L6.05223 278.999C5.61763 279.944 5.19913 280.92 4.81281 281.904ZM597.425 279.039C597.256 277.999 597.078 276.96 596.885 275.92L597.674 275.777C597.867 276.817 598.052 277.864 598.221 278.912L597.425 279.039ZM7.46066 276.174L6.75243 275.801C7.25141 274.865 7.79064 273.928 8.34597 273.024L9.03811 273.436C8.49083 274.333 7.95965 275.254 7.46871 276.174H7.46066ZM596.266 272.81C596.048 271.778 595.823 270.746 595.582 269.715L596.362 269.54C596.604 270.572 596.837 271.611 597.054 272.651L596.266 272.81ZM10.7604 270.786L10.1005 270.334C10.7121 269.461 11.3479 268.588 11.9998 267.755L12.6356 268.239C11.9918 269.064 11.364 269.921 10.7604 270.786ZM594.825 266.644C594.559 265.62 594.286 264.604 593.996 263.588L594.769 263.374C595.058 264.398 595.34 265.422 595.606 266.453L594.825 266.652V266.644ZM14.6557 265.795L14.0441 265.279C14.7362 264.477 15.4686 263.676 16.2171 262.906L16.8046 263.454C16.0722 264.215 15.3479 265.009 14.6638 265.802L14.6557 265.795ZM19.05 261.216L18.4947 260.644C19.2593 259.922 20.0641 259.2 20.885 258.494L21.4162 259.089C20.6114 259.779 19.8146 260.494 19.0581 261.216H19.05ZM593.087 260.549C592.773 259.541 592.451 258.534 592.113 257.534L592.877 257.288C593.215 258.295 593.545 259.303 593.859 260.319L593.087 260.549ZM23.8629 257.073L23.3639 256.454C24.2009 255.796 25.062 255.145 25.9312 254.518L26.4061 255.161C25.5449 255.78 24.6918 256.431 23.8629 257.073ZM591.066 254.542C590.704 253.55 590.334 252.558 589.948 251.574L590.696 251.288C591.083 252.28 591.461 253.272 591.815 254.272L591.058 254.542H591.066ZM29.0298 253.344L28.5791 252.685C29.4563 252.106 30.3658 251.519 31.2913 250.947L31.7179 251.622C30.8004 252.185 29.899 252.764 29.0298 253.344ZM34.4623 249.987L34.0599 249.305C34.9854 248.773 35.9271 248.249 36.8768 247.741L37.2631 248.44C36.3214 248.947 35.3879 249.463 34.4704 249.987H34.4623ZM588.765 248.63C588.354 247.654 587.936 246.686 587.509 245.718L588.25 245.4C588.684 246.376 589.103 247.352 589.513 248.328L588.773 248.63H588.765ZM40.096 246.964L39.7258 246.257C40.6836 245.773 41.6413 245.305 42.6151 244.845L42.9612 245.559C41.9954 246.019 41.0377 246.487 40.088 246.964H40.096ZM45.8746 244.21L45.5366 243.488C46.5104 243.051 47.4923 242.615 48.4823 242.194L48.8042 242.924C47.8223 243.345 46.8404 243.781 45.8746 244.218V244.21ZM586.181 242.837C585.731 241.885 585.264 240.933 584.789 239.98L585.513 239.631C585.988 240.583 586.455 241.544 586.914 242.504L586.181 242.837ZM51.7659 241.678L51.452 240.948C52.442 240.544 53.4399 240.139 54.4379 239.742L54.7357 240.48C53.7377 240.877 52.7478 241.274 51.7579 241.678H51.7659ZM57.7296 239.306L57.4399 238.568C58.4378 238.187 59.4358 237.806 60.4418 237.433L60.7235 238.179C59.7256 238.552 58.7195 238.933 57.7296 239.314V239.306ZM583.34 237.147C582.849 236.211 582.342 235.275 581.835 234.346L582.543 233.965C583.059 234.902 583.566 235.838 584.057 236.782L583.34 237.147ZM63.7336 237.06L63.4519 236.314C64.4579 235.949 65.4639 235.584 66.4699 235.219L66.7436 235.965C65.7375 236.33 64.7315 236.695 63.7255 237.06H63.7336ZM69.7697 234.886L69.4961 234.14L72.5222 233.061L72.7958 233.806L69.7697 234.886ZM75.8219 232.735L75.5483 231.989L78.5744 230.91L78.848 231.656L75.8219 232.735ZM580.282 231.569C579.759 230.648 579.22 229.728 578.68 228.815L579.372 228.418C579.92 229.339 580.451 230.259 580.982 231.18L580.282 231.569ZM81.8822 230.561L81.6005 229.815C82.6065 229.45 83.6126 229.077 84.6186 228.712L84.9003 229.458C83.8942 229.831 82.8882 230.196 81.8742 230.561H81.8822ZM87.9183 228.323L87.6286 227.585C88.6346 227.204 89.6326 226.823 90.6306 226.434L90.9284 227.172C89.9304 227.561 88.9244 227.95 87.9183 228.331V228.323ZM577.039 226.085C576.483 225.181 575.928 224.276 575.356 223.379L576.041 222.959C576.612 223.863 577.167 224.768 577.723 225.673L577.03 226.085H577.039ZM93.9303 225.982L93.6245 225.244C94.6225 224.839 95.6124 224.435 96.6023 224.022L96.9162 224.752C95.9263 225.165 94.9283 225.577 93.9303 225.982ZM99.8779 223.482L99.548 222.76C100.53 222.332 101.504 221.895 102.469 221.443L102.807 222.165C101.834 222.609 100.852 223.054 99.8699 223.482H99.8779ZM105.729 220.784L105.375 220.07C106.341 219.602 107.29 219.126 108.24 218.642L108.61 219.348C107.661 219.84 106.695 220.316 105.729 220.784ZM573.642 220.689C573.071 219.8 572.483 218.904 571.904 218.015L572.58 217.586C573.167 218.475 573.747 219.372 574.326 220.268L573.65 220.697L573.642 220.689ZM111.451 217.84L111.065 217.142C112.007 216.626 112.932 216.11 113.858 215.571L114.268 216.253C113.343 216.793 112.409 217.316 111.459 217.832L111.451 217.84ZM570.141 215.356C569.554 214.476 568.958 213.595 568.355 212.714L569.023 212.269C569.626 213.15 570.222 214.031 570.809 214.92L570.141 215.356ZM117.021 214.595L116.586 213.928C117.503 213.349 118.397 212.754 119.242 212.166L119.709 212.817C118.856 213.412 117.954 214.015 117.021 214.603V214.595ZM122.3 210.897L121.801 210.278C122.654 209.611 123.475 208.921 124.24 208.238L124.779 208.825C124.006 209.516 123.169 210.214 122.3 210.897ZM566.552 210.087C565.948 209.214 565.345 208.341 564.733 207.469L565.393 207.016C566.004 207.889 566.608 208.762 567.212 209.643L566.544 210.087H566.552ZM144.497 209.222H144.199V208.429H144.497C145.463 208.429 146.437 208.413 147.402 208.381L147.435 209.175C146.453 209.206 145.479 209.222 144.497 209.222ZM140.964 209.151C139.885 209.103 138.799 209.04 137.737 208.952L137.801 208.159C138.855 208.246 139.934 208.31 140.996 208.357L140.964 209.151ZM150.67 209.008L150.614 208.214C151.668 208.143 152.738 208.048 153.809 207.929L153.897 208.714C152.827 208.825 151.74 208.929 150.678 209L150.67 209.008ZM134.517 208.627C133.93 208.556 133.342 208.476 132.755 208.397C132.28 208.333 131.797 208.262 131.314 208.183L131.443 207.397C131.918 207.476 132.393 207.548 132.867 207.611C133.447 207.691 134.034 207.77 134.614 207.841L134.517 208.627ZM157.092 208.318L156.98 207.532C158.026 207.381 159.088 207.215 160.143 207.024L160.288 207.802C159.225 207.992 158.155 208.159 157.1 208.31L157.092 208.318ZM128.135 207.572C127.515 207.437 126.896 207.286 126.284 207.127L125.616 206.953C124.57 206.659 123.556 206.35 122.59 206.008L122.864 205.262C123.829 205.604 124.851 205.921 125.906 206.207L125.729 206.834L126.091 206.461C126.397 206.151 126.703 205.834 126.992 205.516L127.588 206.048C127.443 206.207 127.29 206.365 127.145 206.524C127.531 206.619 127.918 206.707 128.304 206.794L128.127 207.572H128.135ZM163.459 207.191L163.29 206.413C164.336 206.191 165.374 205.953 166.412 205.699L166.605 206.469C165.559 206.723 164.513 206.969 163.459 207.191ZM169.72 205.643L169.503 204.882C170.533 204.596 171.555 204.286 172.569 203.969L172.811 204.723C171.78 205.048 170.75 205.35 169.72 205.643ZM562.906 204.85C562.294 203.977 561.683 203.112 561.071 202.239L561.731 201.787C562.343 202.652 562.954 203.525 563.566 204.397L562.906 204.85ZM119.58 204.802C118.566 204.342 117.592 203.85 116.691 203.318L117.101 202.636C117.986 203.152 118.936 203.636 119.918 204.08L119.58 204.802ZM175.877 203.715L175.611 202.969C176.617 202.62 177.623 202.255 178.621 201.874L178.911 202.612C177.905 202.993 176.899 203.358 175.885 203.715H175.877ZM129.68 203.588L129.036 203.112C129.688 202.255 130.276 201.382 130.799 200.509L131.491 200.914C130.96 201.81 130.348 202.707 129.68 203.588ZM113.978 201.525C113.093 200.858 112.272 200.136 111.524 199.39L112.095 198.835C112.811 199.557 113.608 200.255 114.461 200.898L113.97 201.525H113.978ZM181.905 201.43L181.591 200.699C182.573 200.295 183.555 199.874 184.529 199.438L184.859 200.16C183.877 200.596 182.887 201.017 181.897 201.43H181.905ZM559.228 199.636L557.385 197.033L558.045 196.581L559.888 199.184L559.228 199.636ZM187.788 198.811L187.434 198.097C188.392 197.636 189.35 197.168 190.299 196.684L190.669 197.39C189.712 197.874 188.754 198.351 187.78 198.819L187.788 198.811ZM132.956 198.025L132.216 197.716C132.626 196.74 132.964 195.748 133.213 194.764L133.994 194.954C133.737 195.978 133.391 197.009 132.956 198.017V198.025ZM109.423 196.906C108.803 196.025 108.272 195.065 107.846 194.05L108.586 193.748C108.988 194.716 109.496 195.629 110.083 196.454L109.423 196.906ZM193.527 195.883L193.14 195.184C194.074 194.676 195.007 194.153 195.933 193.621L196.335 194.303C195.402 194.835 194.468 195.359 193.527 195.875V195.883ZM555.55 194.43L553.715 191.82L554.375 191.367L556.21 193.978L555.55 194.43ZM199.104 192.677L198.685 192.002C199.595 191.447 200.496 190.883 201.398 190.312L201.832 190.978C200.931 191.558 200.021 192.129 199.104 192.685V192.677ZM134.517 191.764L133.712 191.709C133.737 191.423 133.745 191.129 133.745 190.844C133.745 190.121 133.68 189.376 133.552 188.638L134.348 188.503C134.485 189.288 134.549 190.074 134.549 190.836C134.549 191.145 134.541 191.447 134.517 191.756V191.764ZM106.904 190.931C106.695 189.883 106.59 188.812 106.59 187.741L107.395 187.693C107.395 188.757 107.492 189.772 107.693 190.772L106.904 190.923V190.931ZM204.512 189.209L204.054 188.55C204.939 187.955 205.816 187.344 206.685 186.733L207.152 187.376C206.275 187.995 205.398 188.606 204.512 189.209ZM551.896 189.209C551.292 188.336 550.689 187.463 550.085 186.59L550.753 186.146C551.357 187.019 551.96 187.892 552.564 188.764L551.896 189.209ZM132.715 185.67C132.336 184.725 131.861 183.789 131.306 182.9L131.99 182.48C132.578 183.408 133.077 184.384 133.463 185.376L132.715 185.662V185.67ZM209.76 185.487L209.277 184.852C210.13 184.217 210.983 183.567 211.82 182.916L212.319 183.535C211.474 184.194 210.621 184.844 209.76 185.487ZM107.717 184.63L106.928 184.463C107.162 183.376 107.508 182.337 107.958 181.369L108.691 181.702C108.264 182.614 107.934 183.598 107.717 184.63ZM548.29 183.948C547.695 183.067 547.099 182.186 546.512 181.305L547.188 180.869C547.775 181.749 548.363 182.63 548.958 183.511L548.29 183.948ZM214.83 181.527L214.315 180.916C215.144 180.242 215.957 179.559 216.77 178.869L217.301 179.472C216.488 180.17 215.667 180.853 214.838 181.535L214.83 181.527ZM129.415 180.416C128.707 179.639 127.934 178.924 127.121 178.298L127.62 177.671C128.473 178.329 129.278 179.075 130.018 179.885L129.415 180.416ZM110.341 179.115L109.721 178.607C110.437 177.758 111.266 177.02 112.184 176.409L112.634 177.068C111.781 177.631 111.009 178.321 110.341 179.115ZM544.757 178.647C544.178 177.758 543.598 176.861 543.035 175.972L543.719 175.552C544.29 176.441 544.862 177.329 545.441 178.218L544.765 178.647H544.757ZM219.715 177.353L219.176 176.766C219.973 176.052 220.762 175.338 221.534 174.608L222.09 175.187C221.309 175.917 220.52 176.639 219.715 177.353ZM124.481 176.631C123.523 176.155 122.542 175.798 121.56 175.56L121.753 174.79C122.799 175.044 123.837 175.425 124.851 175.925L124.489 176.631H124.481ZM115.419 175.734L115.169 174.98C116.232 174.647 117.334 174.457 118.445 174.433L118.469 175.227C117.431 175.25 116.409 175.425 115.419 175.742V175.734ZM541.337 173.274C540.773 172.37 540.226 171.465 539.679 170.56L540.371 170.156C540.918 171.06 541.466 171.965 542.029 172.862L541.345 173.274H541.337ZM224.407 172.973L223.844 172.409C224.319 171.941 224.794 171.481 225.261 171.013C225.542 170.727 225.824 170.441 226.106 170.156L226.685 170.711C226.403 170.997 226.122 171.283 225.84 171.568C225.373 172.036 224.898 172.513 224.415 172.973H224.407ZM228.906 168.394L228.319 167.854C229.051 167.085 229.776 166.307 230.492 165.521L231.087 166.053C230.363 166.839 229.639 167.624 228.906 168.394ZM538.061 167.823C537.53 166.902 536.999 165.982 536.484 165.061L537.184 164.68C537.699 165.601 538.222 166.521 538.753 167.434L538.053 167.831L538.061 167.823ZM233.236 163.672L232.633 163.149C233.341 162.355 234.033 161.554 234.725 160.744L235.337 161.26C234.645 162.069 233.945 162.871 233.236 163.672ZM534.947 162.268C534.448 161.331 533.949 160.395 533.474 159.451L534.19 159.094C534.673 160.03 535.156 160.966 535.663 161.903L534.955 162.276L534.947 162.268ZM237.405 158.816L236.786 158.316C237.47 157.499 238.138 156.681 238.806 155.856L239.433 156.348C238.765 157.173 238.089 157.998 237.405 158.816ZM532.057 156.602C531.59 155.642 531.14 154.681 530.705 153.721L531.438 153.396C531.872 154.356 532.323 155.308 532.782 156.261L532.057 156.602ZM241.429 153.848L240.794 153.364C241.453 152.531 242.105 151.69 242.749 150.849L243.393 151.325C242.741 152.166 242.089 153.007 241.429 153.848ZM529.417 150.809C528.999 149.833 528.596 148.849 528.21 147.865L528.959 147.579C529.345 148.555 529.747 149.531 530.158 150.507L529.417 150.817V150.809ZM245.317 148.777L244.673 148.309C245.309 147.46 245.944 146.603 246.564 145.746L247.216 146.206C246.588 147.063 245.952 147.92 245.317 148.777ZM527.075 144.881C526.713 143.881 526.367 142.881 526.029 141.874L526.794 141.628C527.124 142.627 527.47 143.627 527.832 144.619L527.075 144.889V144.881ZM249.091 143.627L248.431 143.167C249.051 142.302 249.663 141.437 250.274 140.572L250.934 141.024C250.323 141.897 249.711 142.762 249.091 143.627ZM525.079 138.826C524.774 137.811 524.492 136.779 524.226 135.755L525.007 135.557C525.273 136.581 525.554 137.596 525.852 138.604L525.079 138.826ZM252.761 138.398L252.093 137.953C252.697 137.08 253.292 136.2 253.888 135.327L254.556 135.771C253.96 136.652 253.357 137.533 252.753 138.406L252.761 138.398ZM256.343 133.121L255.675 132.684C256.262 131.803 256.85 130.915 257.437 130.034L258.113 130.47C257.526 131.359 256.938 132.24 256.351 133.129L256.343 133.121ZM523.478 132.652C523.244 131.605 523.027 130.55 522.834 129.526L523.623 129.383C523.816 130.407 524.025 131.446 524.259 132.486L523.47 132.66L523.478 132.652ZM522.544 128.462V127.907C522.399 127.074 522.271 126.241 522.15 125.399L522.947 125.288C523.076 126.193 523.212 127.09 523.365 127.986L523.446 128.447H522.536L522.544 128.462ZM524.79 128.407L524.75 127.613C525.812 127.566 526.882 127.486 527.937 127.375L528.025 128.161C526.955 128.272 525.868 128.359 524.79 128.407ZM519.301 128.383C518.23 128.328 517.144 128.24 516.074 128.121L516.162 127.336C517.216 127.455 518.287 127.542 519.349 127.598L519.309 128.391L519.301 128.383ZM259.86 127.796L259.184 127.367C259.763 126.479 260.343 125.59 260.914 124.693L261.59 125.122C261.011 126.01 260.431 126.907 259.852 127.796H259.86ZM531.236 127.717L531.1 126.931C532.146 126.756 533.2 126.542 534.23 126.304L534.415 127.074C533.369 127.32 532.299 127.534 531.236 127.709V127.717ZM512.862 127.669C511.8 127.486 510.73 127.272 509.683 127.034L509.868 126.264C510.899 126.502 511.953 126.717 512.999 126.891L512.862 127.677V127.669ZM537.546 126.248L537.313 125.487C538.327 125.177 539.341 124.836 540.331 124.463L540.62 125.201C539.614 125.582 538.584 125.931 537.554 126.241L537.546 126.248ZM506.553 126.209C505.514 125.907 504.484 125.566 503.478 125.201L503.752 124.455C504.742 124.812 505.764 125.145 506.786 125.447L506.553 126.209ZM500.468 124.011C499.478 123.582 498.496 123.114 497.547 122.63L497.917 121.924C498.85 122.408 499.824 122.86 500.79 123.289L500.468 124.011ZM543.606 123.971L543.268 123.249C544.234 122.804 545.192 122.328 546.109 121.828L546.496 122.527C545.562 123.035 544.588 123.527 543.598 123.979L543.606 123.971ZM263.32 122.439L262.636 122.019C263.208 121.122 263.779 120.233 264.351 119.337L265.035 119.757C264.463 120.654 263.892 121.551 263.32 122.447V122.439ZM521.78 122.233C521.683 121.162 521.611 120.083 521.562 119.043L522.367 119.011C522.407 120.035 522.48 121.098 522.576 122.154L521.772 122.225L521.78 122.233ZM494.714 121.051C493.788 120.495 492.879 119.9 492.001 119.289L492.468 118.638C493.321 119.241 494.223 119.821 495.132 120.368L494.714 121.043V121.051ZM549.272 120.821L548.814 120.17C549.675 119.575 550.52 118.932 551.325 118.249L551.848 118.853C551.019 119.551 550.158 120.217 549.272 120.821ZM489.426 117.345C488.678 116.734 487.945 116.099 487.245 115.44L487.004 115.21L487.567 114.639L487.808 114.869C488.492 115.512 489.217 116.139 489.949 116.734L489.434 117.345H489.426ZM266.741 117.059L266.057 116.639L267.763 113.948L268.447 114.369L266.741 117.059ZM554.206 116.639L553.626 116.091C554.359 115.329 555.059 114.528 555.695 113.71L556.331 114.194C555.679 115.036 554.962 115.853 554.214 116.639H554.206ZM522.335 115.861L521.53 115.845C521.554 114.758 521.611 113.687 521.707 112.647L522.512 112.718C522.424 113.734 522.359 114.798 522.343 115.861H522.335ZM484.742 112.917C484.026 112.139 483.317 111.322 482.633 110.489L483.261 109.989C483.929 110.814 484.629 111.615 485.338 112.377L484.742 112.909V112.917ZM270.153 111.671L269.469 111.25L271.175 108.552L271.86 108.973L270.153 111.663V111.671ZM558.166 111.536L557.473 111.131C558.029 110.219 558.512 109.282 558.914 108.354L559.654 108.663C559.244 109.624 558.737 110.592 558.166 111.536ZM522.914 109.6L522.118 109.465C522.303 108.394 522.528 107.338 522.794 106.33L523.574 106.529C523.309 107.513 523.092 108.544 522.914 109.6ZM480.686 107.941C480.074 107.084 479.47 106.195 478.891 105.291L479.575 104.87C480.146 105.767 480.742 106.648 481.346 107.489L480.686 107.949V107.941ZM273.558 106.291L272.874 105.87L274.588 103.18L275.272 103.601L273.566 106.291H273.558ZM560.693 105.592L559.912 105.402C560.17 104.37 560.322 103.339 560.363 102.347L561.168 102.378C561.127 103.426 560.966 104.505 560.693 105.592ZM524.532 103.545L523.776 103.267C524.162 102.251 524.605 101.26 525.088 100.323L525.804 100.68C525.337 101.593 524.902 102.553 524.532 103.545ZM477.233 102.545C476.718 101.648 476.211 100.696 475.72 99.7281L476.436 99.371C476.927 100.331 477.426 101.267 477.933 102.156L477.233 102.545ZM276.986 100.91L276.31 100.49C276.882 99.5932 277.461 98.7044 278.041 97.8077L278.717 98.2362C278.137 99.125 277.566 100.022 276.994 100.918L276.986 100.91ZM560.129 99.2837C559.928 98.2759 559.598 97.2998 559.147 96.3714L559.872 96.0301C560.347 97.0141 560.701 98.0537 560.918 99.125L560.129 99.2758V99.2837ZM527.413 97.9981L526.745 97.5538C527.357 96.665 528.033 95.8079 528.749 95.0065L529.353 95.5302C528.661 96.2999 528.009 97.1252 527.413 97.9902V97.9981ZM474.328 96.8396C473.901 95.9111 473.466 94.9271 473.04 93.9114L473.78 93.6098C474.199 94.6176 474.633 95.5937 475.052 96.5142L474.32 96.8396H474.328ZM280.447 95.5619L279.771 95.1334C280.35 94.2446 280.938 93.3559 281.525 92.4671L282.201 92.9035C281.614 93.7923 281.034 94.6732 280.455 95.5699L280.447 95.5619ZM557.481 93.7844C556.83 92.9988 556.065 92.2925 555.22 91.6815L555.695 91.0387C556.596 91.6894 557.401 92.4433 558.101 93.2765L557.481 93.7844ZM531.631 93.3876L531.132 92.7686C531.969 92.11 532.878 91.499 533.852 90.9593L534.246 91.6497C533.313 92.1735 532.435 92.7528 531.631 93.3876ZM471.857 90.9435C471.479 89.9515 471.108 88.9517 470.746 87.9518L471.503 87.6899C471.857 88.6898 472.227 89.6817 472.605 90.6657L471.849 90.9514L471.857 90.9435ZM537.095 90.3166L536.806 89.5786C537.82 89.1897 538.866 88.8644 539.928 88.6184L540.113 89.3881C539.091 89.6262 538.069 89.9436 537.095 90.3166ZM283.964 90.2531L283.296 89.8166C283.884 88.9358 284.479 88.0549 285.083 87.1741L285.751 87.6185C285.155 88.4993 284.56 89.3722 283.972 90.2531H283.964ZM552.5 90.1579C551.566 89.7611 550.56 89.4437 549.514 89.2135L549.683 88.4359C550.785 88.6739 551.84 89.0072 552.822 89.4278L552.5 90.1579ZM543.236 88.8802L543.156 88.0867C544.25 87.9835 545.353 87.9597 546.431 88.0153L546.391 88.8088C545.353 88.7533 544.29 88.785 543.236 88.8802ZM287.545 84.9918L286.877 84.5395C287.481 83.6666 288.093 82.7937 288.712 81.9287L289.372 82.3811C288.761 83.246 288.149 84.1189 287.545 84.9839V84.9918ZM469.692 84.9363C469.354 83.9286 469.024 82.9207 468.694 81.9049L469.458 81.6669C469.788 82.6747 470.118 83.6825 470.456 84.6824L469.692 84.9363ZM291.223 79.802L290.572 79.3418C291.191 78.4768 291.819 77.6197 292.455 76.7627L293.107 77.2309C292.479 78.0879 291.851 78.945 291.231 79.802H291.223ZM467.728 78.8736C467.406 77.8657 467.092 76.85 466.778 75.8342L467.551 75.6041C467.865 76.6199 468.179 77.6277 468.501 78.6355L467.728 78.8736ZM295.014 74.6757L294.37 74.1995C295.014 73.3504 295.658 72.5013 296.31 71.6602L296.946 72.1442C296.294 72.9854 295.65 73.8266 295.006 74.6757H295.014ZM465.837 72.8029C465.523 71.7951 465.201 70.7793 464.879 69.7715L465.652 69.5335C465.974 70.5413 466.288 71.557 466.609 72.5648L465.837 72.7949V72.8029ZM298.918 69.6445L298.282 69.1525C298.942 68.3193 299.618 67.4861 300.286 66.6608L300.913 67.1607C300.237 67.986 299.577 68.8113 298.918 69.6445ZM463.905 66.7481C463.575 65.7403 463.237 64.7404 462.891 63.7405L463.656 63.4866C464.002 64.4865 464.34 65.4943 464.678 66.5021L463.913 66.7481H463.905ZM302.95 64.7087L302.33 64.2008C303.014 63.3834 303.706 62.574 304.406 61.7646L305.018 62.2804C304.326 63.0819 303.634 63.8913 302.95 64.7087ZM461.821 60.7647C461.451 59.7728 461.08 58.7888 460.686 57.8048L461.434 57.5111C461.829 58.4951 462.207 59.4871 462.577 60.487L461.821 60.7568V60.7647ZM307.119 59.8918L306.515 59.3681C307.223 58.5745 307.94 57.7809 308.664 56.9953L309.259 57.527C308.543 58.3047 307.827 59.0982 307.119 59.8918ZM311.44 55.2019L310.853 54.6623C311.593 53.8846 312.334 53.1228 313.082 52.361L313.662 52.9165C312.913 53.6704 312.173 54.4401 311.44 55.2098V55.2019ZM459.479 54.8845C459.052 53.9005 458.609 52.9323 458.167 52.0039L458.891 51.6627C459.334 52.5991 459.785 53.5751 460.211 54.5671L459.471 54.8766L459.479 54.8845ZM315.923 50.6549L315.36 50.0914C316.125 49.3455 316.897 48.6075 317.67 47.8695L318.225 48.4409C317.452 49.1709 316.68 49.9089 315.923 50.6469V50.6549ZM456.75 49.1709C456.251 48.2266 455.736 47.2981 455.213 46.4014L455.913 46.0046C456.445 46.9014 456.968 47.8457 457.467 48.8059L456.75 49.1709ZM320.575 46.2824L320.028 45.6952C320.825 44.981 321.621 44.2668 322.426 43.5684L322.957 44.1636C322.153 44.8619 321.356 45.5682 320.567 46.2824H320.575ZM453.539 43.7113C452.96 42.8225 452.348 41.9496 451.728 41.1084L452.38 40.6402C453.008 41.4893 453.628 42.3781 454.215 43.2748L453.539 43.7033V43.7113ZM325.396 42.1004L324.881 41.4973C325.702 40.8148 326.531 40.1403 327.376 39.4737L327.883 40.0927C327.046 40.7513 326.225 41.4259 325.404 42.1083L325.396 42.1004ZM449.773 38.6167C449.105 37.8073 448.396 37.0137 447.672 36.244L448.26 35.7043C448.992 36.482 449.708 37.2914 450.392 38.1088L449.773 38.6087V38.6167ZM330.394 38.1326L329.903 37.5057C330.756 36.8629 331.617 36.2202 332.486 35.5932L332.961 36.236C332.1 36.8629 331.239 37.4898 330.394 38.1326ZM335.577 34.395L335.118 33.7443C336.004 33.1412 336.889 32.546 337.79 31.9588L338.233 32.6254C337.34 33.2047 336.454 33.7919 335.577 34.395ZM445.443 33.9982C444.678 33.2761 443.889 32.5619 443.077 31.8794L443.6 31.2763C444.421 31.9667 445.225 32.6968 445.998 33.4269L445.443 33.9982ZM340.929 30.9272L340.502 30.2526C341.412 29.6972 342.337 29.1496 343.263 28.61L343.665 29.2924C342.74 29.8241 341.83 30.3717 340.921 30.9272H340.929ZM440.598 29.8876C439.761 29.2528 438.891 28.6259 438.014 28.0307L438.473 27.38C439.358 27.9831 440.244 28.61 441.097 29.2607L440.606 29.8876H440.598ZM346.458 27.7371L346.072 27.0388C347.013 26.5309 347.963 26.031 348.921 25.5469L349.291 26.2531C348.341 26.7372 347.4 27.2292 346.466 27.7371H346.458ZM435.326 26.3166C434.425 25.7691 433.491 25.2374 432.558 24.7375L432.944 24.0391C433.886 24.547 434.827 25.0866 435.745 25.6421L435.326 26.3166ZM352.156 24.8486L351.81 24.1344C352.776 23.6741 353.75 23.2376 354.74 22.8012L355.07 23.5233C354.096 23.9518 353.122 24.3962 352.164 24.8486H352.156ZM429.717 23.2932C428.759 22.8329 427.777 22.3965 426.803 21.9759L427.125 21.2458C428.115 21.6664 429.105 22.1108 430.071 22.579L429.717 23.2932ZM358.007 22.2854L357.701 21.5474C358.691 21.1506 359.705 20.7618 360.719 20.4047L360.993 21.1506C359.987 21.5077 358.981 21.8965 358.007 22.2854ZM423.833 20.7935C422.843 20.4205 421.821 20.0634 420.815 19.7381L421.065 18.9842C422.087 19.3175 423.117 19.6746 424.115 20.0555L423.833 20.8014V20.7935ZM364.027 20.1269L363.778 19.3731C364.792 19.0477 365.83 18.7382 366.868 18.4446L367.094 19.2064C366.063 19.5 365.033 19.8095 364.027 20.1269ZM417.749 18.8017C416.727 18.516 415.681 18.2383 414.65 17.9923L414.844 17.2225C415.89 17.4765 416.936 17.7463 417.974 18.0399L417.749 18.8017ZM370.192 18.3811L369.999 17.6114C371.045 17.3574 372.092 17.1114 373.146 16.8892L373.315 17.6669C372.269 17.8891 371.23 18.1272 370.192 18.3811ZM411.52 17.3098C410.481 17.1035 409.419 16.913 408.365 16.7385L408.493 15.9528C409.556 16.1274 410.626 16.3179 411.681 16.5321L411.52 17.3098ZM376.462 17.0638L376.317 16.2861C377.363 16.1036 378.442 15.929 379.504 15.7783L379.617 16.5639C378.554 16.7147 377.5 16.8813 376.454 17.0718L376.462 17.0638ZM405.194 16.2782C404.147 16.1433 403.069 16.0322 402.007 15.937L402.079 15.1434C403.158 15.2386 404.236 15.3577 405.298 15.4926L405.194 16.2782ZM382.804 16.1512L382.715 15.3656C383.786 15.2466 384.856 15.1434 385.934 15.0641L385.999 15.8576C384.936 15.937 383.866 16.0401 382.804 16.1592V16.1512ZM398.812 15.7068C397.757 15.6513 396.679 15.6037 395.608 15.5878L395.624 14.7943C396.703 14.8181 397.789 14.8577 398.86 14.9212L398.812 15.7148V15.7068ZM389.194 15.6592L389.162 14.8657C390.24 14.8181 391.319 14.7863 392.397 14.7784V15.5719C391.335 15.5878 390.272 15.6116 389.202 15.6592H389.194Z" fill="#84868E"/>
<path d="M22.7277 168.739L22.6328 167.828C22.6565 168.414 22.6565 169.001 22.6328 169.587C22.6644 169.302 22.696 169.025 22.7277 168.739Z" fill="#F2AC6D"/>
<path d="M434.149 194.755C437.952 205.309 446.133 210.321 446.133 210.321L452.655 201.376L443.844 183.99L438.655 180.963C436.511 183.826 435.59 185.682 433.273 192.057C433.273 192.057 433.912 194.087 434.149 194.755Z" fill="#FFB699"/>
<path d="M543.083 374.425L535.239 362.554L523.848 370.877L533.534 381.166C533.534 381.166 536.188 383.315 540.265 381.687C544.296 380.077 543.083 374.425 543.083 374.425Z" fill="#FFC9AE"/>
<path d="M518.103 398.542L535.669 398.56L551.147 382.299C551.822 381.595 551.813 380.47 551.119 379.775L544.416 372.998C543.914 372.486 543.03 372.715 542.856 373.41C541.251 379.803 534.547 379.62 531.866 379.281C531.218 379.199 530.616 379.601 530.434 380.232C529.786 382.537 528.291 387.65 527.324 388.948C525.564 391.317 523.192 392.579 521.095 393.667C516.872 395.862 518.094 398.533 518.094 398.533L518.103 398.542Z" fill="#1A2A48"/>
<path d="M412.643 172.365C411.329 169.64 412.223 170.985 410.554 168.268C409.806 167.052 409.031 166.494 410.098 166.439C409.843 165.269 410.198 164.847 411.329 164.994C411.293 163.869 411.858 163.594 412.643 163.722C412.734 161.034 415.224 163.677 415.826 164.354C417.285 166.027 417.248 169.073 417.248 169.073L433.273 192.037C435.59 185.662 436.511 183.815 438.645 180.943L443.835 183.971L452.855 201.777C452.855 201.777 448.277 212.047 438.937 214.635C435.59 215.568 423.596 216.812 419.346 203.313C415.342 190.619 412.643 172.347 412.643 172.347V172.365Z" fill="#FFC9AE"/>
<path d="M447.529 210.321L452.655 201.376L443.844 183.99L438.655 180.963C436.511 183.826 435.59 185.682 433.273 192.057C436.01 198.294 440.086 204.065 447.529 210.321Z" fill="#FFB899"/>
<path d="M433.782 194.818C433.526 193.464 432.314 192.422 432.305 192.404L432.788 191.836C432.843 191.882 434.21 193.062 434.52 194.681L433.791 194.818H433.782Z" fill="#1F2056"/>
<path d="M462.046 389.864L461.416 372.569H447.781L450.271 389.864H462.046Z" fill="#FFC9AE"/>
<path d="M428.957 398.725H465.047C465.375 398.716 465.631 398.405 465.558 398.085L463.46 386.744C463.278 385.857 462.256 385.446 461.499 385.949C457.067 388.903 452.443 387.705 450.19 385.848C449.524 385.299 448.539 385.354 447.91 385.939C446.998 386.772 445.648 387.851 444.152 388.5C440.823 389.945 430.097 393.219 428.656 395.359C428.282 395.917 428.364 397.436 428.437 398.268C428.465 398.542 428.684 398.743 428.957 398.743V398.725Z" fill="#1A2A48"/>
<path d="M468.114 376.493C460.125 378.469 450.329 378.926 442.376 376.868C442.376 376.868 433.885 322.215 434.952 299.992C435.91 279.972 447.803 222.951 447.803 222.951L479.707 223.39L466.391 309.092L468.114 376.493Z" fill="#01A56D"/>
<path d="M505.025 178.741C510.078 176.72 511.117 169.815 509.64 167.931C508.436 166.395 506.083 165.745 505.572 163.861C505.07 162.014 506.694 160.249 506.73 158.337C506.776 156.069 504.651 154.414 502.672 153.317C500.692 152.219 498.431 151.03 497.792 148.854C497.126 146.586 498.549 144.125 498.002 141.821C497.135 138.208 492.229 137.23 490.341 134.029C489.483 132.575 489.885 130.069 488.927 128.688C486.811 125.633 484.157 126.402 482.233 122.908C479.022 117.064 460.015 114.064 454.853 130.151C454.223 132.117 451.779 132.977 450.794 134.797C448.824 138.455 451.998 143.385 449.955 146.997C449.18 148.36 447.711 149.411 447.574 150.975C447.511 151.707 447.757 152.42 447.812 153.152C447.985 155.685 445.869 157.706 444.665 159.938C443.042 162.938 443.069 166.742 444.629 169.769C446.188 172.796 449.216 175 452.554 175.668C457.908 176.747 463.307 174.077 468.771 174.049C472.236 174.031 475.638 175.083 479.104 175.147C483.455 175.22 487.878 173.748 492.083 174.854C496.461 176.016 502.79 179.61 505.016 178.723L505.025 178.741Z" fill="#1A2A48"/>
<path d="M462.512 267.919L466.388 309.092L469.909 286.466L462.512 267.919Z" fill="black" fill-opacity="0.15"/>
<path d="M471.67 309.842C465.897 287.106 454.223 222.43 454.223 222.43L496.925 219.613L505.425 304.465L540.321 357.755C535.414 363.809 530.197 369.736 520.939 374.034C520.939 374.034 476.285 328.023 471.67 309.833V309.842Z" fill="#01A56D"/>
<path d="M450.676 236.002C470.394 254.687 499.617 246.428 499.617 246.428L498.258 232.874L478.165 233.341L456.312 233.844L450.676 236.002Z" fill="black" fill-opacity="0.15"/>
<path d="M503.84 239.412C467.467 252.6 440.297 229.928 440.297 229.928L450.457 179.674L463.262 162.316C463.262 162.316 469.747 168.635 478.12 161.255L495.047 167.977L503.84 239.403V239.412Z" fill="white"/>
<path d="M509.866 200.745C502.597 189.002 491.57 181.521 491.461 181.447L491.935 180.743C492.045 180.816 503.217 188.389 510.596 200.297L509.875 200.745H509.866Z" fill="#34244E"/>
<path d="M474.835 243.782C474.99 244.697 477.78 243.874 477.78 244.615C477.78 245.072 472.345 246.764 472.937 247.706C473.321 248.328 476.476 246.846 476.558 247.248C476.631 247.614 472.372 248.62 472.901 249.562C473.448 250.55 477.489 247.852 477.717 248.318C477.826 248.556 472.883 250.55 473.33 251.309C473.932 252.324 477.689 249.617 477.999 250.065C478.154 250.285 476.659 250.998 475.82 251.538C475.354 251.839 475.519 252.26 475.893 252.233C479.76 251.913 484.448 247.001 485.059 246.755C524.915 230.741 512.648 190.492 512.648 190.492L491.005 192.577C491.005 192.577 501.348 224.001 482.678 240.206C482.058 240.746 480.334 242.255 479.541 242.42C478.802 242.575 474.679 242.904 474.835 243.773V243.782Z" fill="#FFC9AE"/>
<path d="M432.707 185.564C432.707 185.564 439.584 171.644 449.936 165.636C455.071 162.654 468.824 161.164 468.824 161.164C468.824 161.164 489.373 158.658 499.305 166.422C516.215 179.629 517.665 195.826 517.665 195.826C517.665 195.826 506.483 206.279 492.054 206.279L446.479 205.255C437.231 198.176 432.707 185.564 432.707 185.564Z" fill="white"/>
<path d="M493.841 210.274C502.798 209.744 510.322 205.372 514.39 202.473C514.344 201.092 514.244 199.803 514.125 198.614C509.966 201.531 502.478 205.775 493.613 206.232L493.841 210.274Z" fill="#FFB899"/>
<path d="M478.307 162.071C477.103 156.382 477.112 150.209 478.289 143.56L466.395 149.175L463.148 162.089C463.148 162.089 468.502 169.479 478.307 162.071Z" fill="#FFC9AE"/>
<path d="M464.309 157.341C472.18 155.933 474.578 150.08 474.578 150.08L465.777 151.488L464.309 157.341Z" fill="#1A2A48"/>
<path d="M460.489 129.293C457.735 135.347 455.363 154.425 463.845 155.257C472.711 156.126 477.791 145.801 477.791 145.801C477.791 145.801 481.986 147.776 483.363 143.935C484.604 140.469 480.572 138.484 478.995 139.856C478.995 139.856 481.585 131.305 476.952 127.71C472.318 124.107 463.481 122.735 460.498 129.293H460.489Z" fill="#FFC9AE"/>
<path d="M479.616 139.472C479.616 139.472 468.033 137.066 464.822 128.25C464.822 128.25 461.338 134.121 457.407 135.521C457.407 135.521 455.775 122.36 467.34 120.906C478.904 119.461 483.665 130.948 482.461 134.944C481.695 137.505 479.616 139.472 479.616 139.472Z" fill="#1A2A48"/>
<path d="M491.545 208.364C491.025 195.139 486.592 184.045 486.547 183.926L487.185 183.67C487.231 183.78 491.709 194.983 492.229 208.336L491.545 208.364Z" fill="#1A2A48"/>
<path d="M449.25 184.289L444.41 205.395L445.077 205.549L449.917 184.443L449.25 184.289Z" fill="#1A2A48"/>
<path d="M468.889 299.479C466.837 290.159 464.247 277.419 461.191 261.616L461.866 261.488C464.913 277.291 467.503 290.031 469.555 299.332L468.889 299.479Z" fill="white"/>
<path d="M548.805 380.456L535.172 394.692L535.665 395.167L549.298 380.931L548.805 380.456Z" fill="#1A2A48"/>
<path d="M462.083 395.599H442.93V396.285H462.083V395.599Z" fill="#1A2A48"/>
<path d="M440.56 393.795C438.937 393.292 437.742 391.271 437.688 391.189L438.28 390.841C438.28 390.841 439.392 392.716 440.76 393.137L440.56 393.795Z" fill="#1A2A48"/>
<path d="M443.514 392.295C441.645 391.984 441.061 390.347 441.016 389.524L441.699 389.488C441.699 389.561 441.836 391.326 443.623 391.619L443.514 392.295Z" fill="#1A2A48"/>
<path d="M529.449 391.994C527.451 391.994 526.056 390.622 525.992 390.558L526.476 390.073C526.476 390.073 528.017 391.583 530.023 391.262L530.133 391.939C529.896 391.976 529.668 391.994 529.449 391.994Z" fill="#1A2A48"/>
<path d="M530.971 389.433C528.992 389.433 527.906 388.271 527.852 388.217L528.353 387.75C528.399 387.805 529.566 389.012 531.664 388.692L531.764 389.369C531.482 389.415 531.217 389.433 530.971 389.433Z" fill="#1A2A48"/>
<path d="M417.696 168.942C417.409 168.157 417.438 166.729 417.113 165.454C416.732 163.968 415.881 162.928 415.368 161.482C415.03 160.525 414.779 159.542 414.632 158.539C414.578 158.166 414.146 157.987 413.857 158.225C413.348 158.652 413.067 159.268 412.958 160.109C412.892 160.675 412.82 161.451 412.781 161.99C412.76 162.255 412.466 162.393 412.256 162.233C411.322 161.552 409.19 160.16 407.164 160.048C405.291 159.948 400.193 160.18 400.25 161.373C400.28 161.926 400.934 162.178 401.46 162.314C405.217 163.279 407.61 165.931 410.543 168.516C412.077 169.866 414.22 174.794 414.22 174.794L420.001 173.696C420.001 173.696 417.986 169.75 417.689 168.943L417.696 168.942Z" fill="#FFC9AE"/>
<path d="M287.907 35.6868V369.342C287.907 370.846 287.763 372.325 287.487 373.751C286.82 377.182 285.397 380.339 283.393 383.04C279.221 388.675 272.536 392.327 265 392.327H131.881C124.345 392.327 117.66 388.675 113.488 383.04C111.484 380.339 110.061 377.182 109.394 373.751C109.116 372.325 108.969 370.846 108.969 369.342V35.6868C108.969 35.4021 108.974 35.115 108.989 34.8303C108.992 34.7185 108.997 34.599 109.002 34.4847C109.622 22.3465 119.628 12.7015 131.881 12.7015H265C277.247 12.7015 287.254 22.3465 287.879 34.4847C287.884 34.599 287.889 34.7185 287.892 34.8303C287.902 35.115 287.907 35.4021 287.907 35.6868Z" fill="white"/>
<path d="M264.921 12.7016C277.574 12.7016 287.831 22.9921 287.831 35.6868V369.342C287.831 382.036 277.574 392.327 264.921 392.327H131.805C119.152 392.327 108.895 382.036 108.895 369.342V35.6868C108.895 22.9921 119.152 12.7016 131.805 12.7016H264.921ZM264.921 6.89685H131.805C115.98 6.89685 103.109 19.8127 103.109 35.6868V369.342C103.109 385.218 115.983 398.132 131.805 398.132H264.921C280.746 398.132 293.617 385.216 293.617 369.342V35.6868C293.617 19.8101 280.743 6.89685 264.921 6.89685Z" fill="#1F4168"/>
<path d="M264.92 14.1527C276.755 14.1527 286.384 23.8129 286.384 35.6868V369.342C286.384 381.215 276.755 390.876 264.92 390.876H131.805C119.97 390.876 110.341 381.215 110.341 369.342V35.6868C110.341 23.8129 119.97 14.1527 131.805 14.1527H264.92ZM264.92 12.7015H131.805C119.151 12.7015 108.895 22.992 108.895 35.6868V369.342C108.895 382.036 119.151 392.327 131.805 392.327H264.92C277.574 392.327 287.83 382.036 287.83 369.342V35.6868C287.83 22.992 277.574 12.7015 264.92 12.7015Z" fill="#1B1A2E"/>
<path d="M270.904 21.2308H259.176V26.9949H270.904V21.2308Z" fill="#1F4168"/>
<path d="M258.713 22.3566H256.938V25.8689H258.713V22.3566Z" fill="#1F4168"/>
<path d="M137.815 24.1127H136.047V26.9948H137.815V24.1127Z" fill="#1F4168"/>
<path d="M134.542 23.1522H132.773V26.9949H134.542V23.1522Z" fill="#1F4168"/>
<path d="M131.268 22.1915H129.5V26.9949H131.268V22.1915Z" fill="#1F4168"/>
<path d="M127.991 21.2308H126.223V26.9949H127.991V21.2308Z" fill="#1F4168"/>
<path d="M231.184 27.0482H166.976C165.375 27.0482 164.078 25.747 164.078 24.1408C164.078 22.5345 165.375 21.2333 166.976 21.2333H231.184C232.785 21.2333 234.082 22.5345 234.082 24.1408C234.082 25.747 232.785 27.0482 231.184 27.0482Z" fill="#F0F2F5"/>
<path d="M226.679 383.421H172.165C171.955 383.421 171.785 383.251 171.785 383.04C171.785 382.829 171.955 382.659 172.165 382.659H226.679C226.889 382.659 227.059 382.829 227.059 383.04C227.059 383.251 226.889 383.421 226.679 383.421Z" fill="#1F4168"/>
<path d="M268.908 55.396H127.815C125.561 55.396 123.734 53.561 123.734 51.2991L123.742 43.5552C123.742 41.2958 125.571 39.4659 127.823 39.4659H268.9C271.152 39.4659 272.979 41.2958 272.981 43.5552L272.989 51.2991C272.989 53.561 271.163 55.396 268.908 55.396Z" fill="#F0F2F5"/>
<path d="M264.164 43.9416C264.164 44.3812 263.809 44.7371 263.371 44.7371C262.933 44.7371 262.578 44.3812 262.578 43.9416C262.578 43.5019 262.933 43.1461 263.371 43.1461C263.809 43.1461 264.164 43.5019 264.164 43.9416Z" fill="#D2D9E1"/>
<path d="M264.164 47.4311C264.164 47.8707 263.809 48.2265 263.371 48.2265C262.933 48.2265 262.578 47.8707 262.578 47.4311C262.578 46.9914 262.933 46.6356 263.371 46.6356C263.809 46.6356 264.164 46.9914 264.164 47.4311Z" fill="#D2D9E1"/>
<path d="M264.164 50.9204C264.164 51.3601 263.809 51.7159 263.371 51.7159C262.933 51.7159 262.578 51.3601 262.578 50.9204C262.578 50.4807 262.933 50.1249 263.371 50.1249C263.809 50.1249 264.164 50.4807 264.164 50.9204Z" fill="#D2D9E1"/>
<path d="M133.897 50.1503C135.394 50.1503 136.607 48.9329 136.607 47.431C136.607 45.9291 135.394 44.7115 133.897 44.7115C132.4 44.7115 131.188 45.9291 131.188 47.431C131.188 48.9329 132.4 50.1503 133.897 50.1503Z" fill="#D2D9E1"/>
<path d="M247.248 230.044V220.139H242.592V229.479H237.938V234.151H243.152C245.414 234.151 247.248 232.311 247.248 230.041V230.044Z" fill="#1F4168"/>
<path d="M237.938 210.799H242.592V215.471H247.248V206.131H242.592V201.459H237.938V210.799Z" fill="#1F4168"/>
<path d="M233.285 178.106V182.777H237.939V196.788H242.595V201.459H247.251V196.788V192.117H242.595V187.448H247.251V178.106H237.939H233.285Z" fill="#1F4168"/>
<path d="M233.285 196.788H223.976V192.117H219.32V196.788H214.664V192.117H210.008V206.128H205.352V201.457H191.386V206.128H186.73V210.799H191.386V220.139H196.042V206.128H200.698V210.799H210.008V215.471H200.698V220.142H205.354V229.482H210.01V234.153H219.32V229.482H214.664V224.811H223.973V229.482H228.629V234.153H233.285V229.482H237.941V215.471H233.285V201.459H237.941V196.788H233.285ZM223.973 220.142H214.664V215.471H223.973V220.142ZM214.664 210.799V201.459H219.32V206.131H223.976V201.459H228.632V210.799H214.666H214.664ZM233.285 224.811H228.629V220.139H233.285V224.811Z" fill="#1F4168"/>
<path d="M233.285 187.448H228.629V192.119H233.285V187.448Z" fill="#1F4168"/>
<path d="M214.663 136.072V168.766H247.249V140.181C247.249 137.912 245.415 136.072 243.153 136.072H214.66H214.663ZM242.593 164.094H219.316V140.74H242.593V164.094Z" fill="#1F4168"/>
<path d="M237.938 145.412H223.973V159.423H237.938V145.412Z" fill="#1F4168"/>
<path d="M210.008 164.094H205.352V168.766H210.008V164.094Z" fill="#1F4168"/>
<path d="M196.044 150.083H200.7V154.754H205.356V159.426H210.012V150.086H205.356V145.414H210.012V136.074H186.734V145.414H191.39V154.754H196.046V150.083H196.044ZM196.044 140.741H200.7V145.412H196.044V140.741Z" fill="#1F4168"/>
<path d="M186.73 234.153H200.698V229.482H196.042V224.811H191.386V220.142H186.73V234.153Z" fill="#1F4168"/>
<path d="M153.586 234.153H182.079V201.459H149.492V230.044C149.492 232.313 151.326 234.153 153.588 234.153H153.586ZM154.146 206.131H177.423V229.484H154.146V206.131Z" fill="#1F4168"/>
<path d="M182.078 173.434H172.766V178.106H182.078V173.434Z" fill="#1F4168"/>
<path d="M196.043 196.788V192.117H191.387V182.777H200.699V192.117H205.352V187.448H214.664V182.777H223.974V187.448H228.63V182.777V178.106H223.974V173.434H210.008V182.777H205.352V178.106V168.766H200.699V159.423H196.043V168.766H191.387V154.752H186.731V192.117H172.766V196.788H186.731V201.459H191.387V196.788H196.043Z" fill="#1F4168"/>
<path d="M172.762 210.799H158.797V224.811H172.762V210.799Z" fill="#1F4168"/>
<path d="M149.492 173.434V182.777H158.802V178.106H163.458V173.434H149.492Z" fill="#1F4168"/>
<path d="M168.111 187.448H182.079V182.777H172.767V178.106H163.458V192.117H158.802V192.191H154.032V187.519H149.492V196.788H168.111V187.448Z" fill="#1F4168"/>
<path d="M182.078 136.072H153.584C151.322 136.072 149.488 137.912 149.488 140.181V168.766H182.075V136.072H182.078ZM177.422 164.094H154.144V140.74H177.422V164.094Z" fill="#1F4168"/>
<path d="M172.762 145.412H158.797V159.423H172.762V145.412Z" fill="#1F4168"/>
<path d="M258.139 146.81C257.44 146.81 256.873 146.24 256.873 145.539V129.38C256.873 127.814 255.604 126.541 254.043 126.541H237.661C236.962 126.541 236.395 125.972 236.395 125.27C236.395 124.569 236.962 124 237.661 124H254.043C256.999 124 259.406 126.412 259.406 129.38V145.539C259.406 146.24 258.838 146.81 258.139 146.81Z" fill="#1F4168"/>
<path d="M138.661 146.81C137.962 146.81 137.395 146.24 137.395 145.539V129.38C137.395 126.414 139.799 124 142.757 124H159.139C159.838 124 160.406 124.569 160.406 125.27C160.406 125.972 159.838 126.541 159.139 126.541H142.757C141.197 126.541 139.928 127.814 139.928 129.38V145.539C139.928 146.24 139.36 146.81 138.661 146.81Z" fill="#1F4168"/>
<path d="M254.043 246.274H237.661C236.962 246.274 236.395 245.704 236.395 245.003C236.395 244.301 236.962 243.732 237.661 243.732H254.043C255.604 243.732 256.873 242.459 256.873 240.893V224.734C256.873 224.033 257.44 223.464 258.139 223.464C258.838 223.464 259.406 224.033 259.406 224.734V240.893C259.406 243.859 256.999 246.274 254.043 246.274Z" fill="#1F4168"/>
<path d="M262.168 112.763C266.619 112.763 270.242 116.398 270.242 120.864V257.717H125.763V120.864C125.763 116.398 129.386 112.763 133.837 112.763H262.17M262.168 112H133.835C128.955 112 125 115.968 125 120.864V258.48H271V120.864C271 115.968 267.045 112 262.165 112H262.168Z" fill="#1F4168"/>
<path d="M159.139 246.274H142.757C139.801 246.274 137.395 243.862 137.395 240.893V224.734C137.395 224.033 137.962 223.464 138.661 223.464C139.36 223.464 139.928 224.033 139.928 224.734V240.893C139.928 242.459 141.197 243.732 142.757 243.732H159.139C159.838 243.732 160.406 244.301 160.406 245.003C160.406 245.704 159.838 246.274 159.139 246.274Z" fill="#1F4168"/>
<path d="M207.681 257.037L199.444 247.126C198.687 246.214 197.316 246.211 196.553 247.121L188.248 257.042C187.886 257.475 187.359 257.722 186.804 257.722H125V286.509C125 291.531 128.955 295.601 133.835 295.601H262.165C267.045 295.601 271 291.531 271 286.509V257.722H209.127C208.57 257.722 208.043 257.472 207.681 257.037Z" fill="#1F4168"/>
<path d="M247.248 230.044V220.139H242.592V229.479H237.938V234.151H243.152C245.414 234.151 247.248 232.311 247.248 230.041V230.044Z" fill="#547BA8"/>
<path d="M237.938 210.799H242.592V215.471H247.248V206.131H242.592V201.459H237.938V210.799Z" fill="#547BA8"/>
<path d="M242.595 187.448V192.119H247.251V201.459H242.595V196.788H237.941V185.207H247.251V187.448H242.595Z" fill="#547BA8"/>
<path d="M237.942 201.459V196.788H223.975V192.119H219.321V196.788H214.665V192.119H210.009V206.131H205.356V201.459H191.388V206.131H186.734V210.802H191.388V220.142H196.044V206.131H200.7V210.802H210.009V215.471H200.7V220.142H205.356V229.482H210.009V234.153H219.321V229.482H214.665V224.813H223.975V229.482H228.631V234.153H233.287V229.482H237.942V215.471H233.287V201.459H237.942ZM223.975 220.142H214.665V215.471H223.975V220.142ZM214.665 210.802V201.459H219.321V206.131H223.975V201.459H228.631V210.802H214.665ZM233.287 224.813H228.631V220.142H233.287V224.813Z" fill="#547BA8"/>
<path d="M233.285 187.448H228.629V192.119H233.285V187.448Z" fill="#547BA8"/>
<path d="M186.73 234.153H200.698V229.482H196.042V224.811H191.386V220.142H186.73V234.153Z" fill="#547BA8"/>
<path d="M149.492 201.459V230.044C149.492 232.313 151.326 234.153 153.588 234.153H182.079V201.459H149.492ZM177.423 229.482H154.146V206.131H177.423V229.482Z" fill="#547BA8"/>
<path d="M191.387 192.119H196.043V196.788H191.387V201.459H186.734V196.788H172.766V192.119H186.734V185.207H191.387V192.119Z" fill="#547BA8"/>
<path d="M200.699 185.207H214.665V187.448H205.355V192.119H200.699V185.207Z" fill="#547BA8"/>
<path d="M228.629 185.207H223.973V187.446H228.629V185.207Z" fill="#1B1A2E"/>
<path d="M172.762 210.799H158.797V224.811H172.762V210.799Z" fill="#547BA8"/>
<path d="M182.079 185.207V187.448H168.111V196.788H149.492V187.519H154.032V192.191H158.802V192.119H163.458V185.207H182.079Z" fill="#547BA8"/>
<path d="M252.331 185.207H146.414V187.568H252.331V185.207Z" fill="white"/>
<path d="M258.137 184.825H138.66V185.588H258.137V184.825Z" fill="#1F4168"/>
<path d="M331.975 388.057L331.25 370.38L346.952 370.438L344.855 388.105L331.975 388.057Z" fill="#FFC9AE"/>
<path d="M367.191 399.473H328.627C328.274 399.464 328.007 399.12 328.083 398.756L330.324 386.08C330.524 385.086 331.611 384.627 332.412 385.181C337.15 388.479 342.089 387.141 344.501 385.066C345.216 384.455 346.264 384.512 346.941 385.162C347.914 386.099 349.353 387.303 350.955 388.03C354.511 389.646 365.971 393.307 367.515 395.697C367.915 396.319 367.83 398.02 367.744 398.948C367.715 399.254 367.477 399.473 367.191 399.473Z" fill="#1A2A48"/>
<path d="M303.172 362.781L317.94 353.087L325.939 366.634L309.741 373.89L303.172 362.781Z" fill="#FFC9AE"/>
<path d="M310.522 398.946L290.749 365.744C290.567 365.438 290.72 365.036 291.073 364.912L304.029 360.342C304.982 360.008 305.936 360.706 305.869 361.681C305.469 367.455 309.158 371.011 312.171 372.025C313.058 372.321 313.544 373.258 313.334 374.176C313.038 375.485 312.743 377.35 312.943 379.099C313.382 382.99 316.137 394.73 314.879 397.282C314.554 397.942 312.095 398.745 311.265 399.147C310.989 399.28 310.674 399.185 310.531 398.936L310.522 398.946Z" fill="#1A2A48"/>
<path d="M376.345 308.597C371.607 337.534 323.385 375.267 323.385 375.267C312.64 364.77 311.706 363.183 308.617 350.861L340.899 302.938L329.906 220.35L368.489 220.771C368.489 220.771 379.93 286.676 376.336 308.597H376.345Z" fill="#1A2A48"/>
<path d="M317.938 369.809C319.263 371.205 321.494 373.423 323.381 375.277L330.255 369.226L328.186 322.364L317.938 369.809Z" fill="#1A2A48"/>
<path d="M362.651 308.235C362.975 324.372 352.793 377.716 352.793 377.716C344.203 380.861 336.223 381.301 324.411 377.716L328.854 309.86C328.854 309.86 318.548 275.196 316.688 267.233C310.768 241.871 315.926 222.12 315.926 222.12L349.313 223.105C349.313 223.105 362.393 295.712 362.641 308.235H362.651Z" fill="#1A2A48"/>
<path d="M319.855 230.867C323.555 233.181 327.702 234.863 332.001 236.077C338.723 237.961 345.816 238.687 352.099 238.85C361.852 239.089 369.669 237.98 371.185 237.741C369.698 227.665 368.497 220.772 368.497 220.772L356.017 220.638L347.484 223.057L330.896 227.741L319.855 230.867Z" fill="#1A2A48"/>
<path d="M312.016 232.262C312.016 232.262 350.894 242.328 373.88 231.124L366.577 158.364L349.464 146.252L330.854 145.841L314.456 153.116L312.016 232.262Z" fill="#01A56D"/>
<path d="M389.888 189.58C389.888 189.58 380.641 165.9 371.393 155.164C364.815 147.526 349.961 146.245 349.961 146.245L366.836 187.286C366.836 187.286 378.19 185.966 389.888 189.58Z" fill="#01A56D"/>
<path d="M347.044 182.855H356.149C356.874 182.855 357.484 182.301 357.579 181.555L361.126 159.978C361.24 159.08 360.573 158.277 359.696 158.277H350.591C349.866 158.277 349.256 158.831 349.161 159.577L345.614 181.154C345.5 182.052 346.167 182.855 347.044 182.855Z" fill="#1A2A48"/>
<path d="M367.819 173.561L367.109 173.646L369.898 196.853L370.608 196.767L367.819 173.561Z" fill="#1A2A48"/>
<path d="M390.864 203.916C390.826 204.079 390.788 204.232 390.75 204.385C389.272 209.977 384.429 213.218 379.529 212.167C376.535 211.536 373.475 212.071 370.643 207.205C364.437 196.546 361.205 180.227 361.205 180.227C358.288 181.278 357.115 179.251 355.513 179.022C353.902 178.793 350.985 180.274 350.899 178.879C350.823 177.473 355.408 176.909 355.408 176.909C355.408 176.909 353.359 176.45 351.662 176.479C350.451 176.508 349.555 176.374 349.64 175.733C349.764 174.749 352.663 174.519 352.663 174.519L355.485 173.869C355.485 173.869 352.949 173.152 351.766 173.42C350.584 173.687 348.735 173.716 348.62 172.846C348.515 171.986 351.099 171.603 351.938 171.269C352.777 170.925 355.046 171.144 355.046 171.144C355.046 171.144 353.53 170.284 352.558 170.265C351.776 170.246 350.003 170.638 349.831 169.825C349.659 168.974 353.32 167.732 354.455 167.961C355.599 168.19 360.566 170.858 361.472 171.709C362.072 172.273 382.322 189.968 384.429 192.31C390.216 198.744 390.292 200.943 390.845 203.916H390.864Z" fill="#FFC9AE"/>
<path d="M368.952 152.723C379.906 167.12 406.687 205.675 386.389 213.256C366.454 220.703 360.391 188.448 360.391 188.448C366.664 187.1 370.125 184.414 371.555 180.772L368.952 152.723Z" fill="#01A56D"/>
<path d="M315.938 238.754L323.288 246.345C326.587 245.283 328.607 242.855 329.799 240.704L323.746 231.995L315.938 238.744V238.754Z" fill="#FFC9AE"/>
<path d="M319.569 247.387C320.942 247.387 322.239 247.186 323.44 246.794C326.243 245.886 328.588 243.859 330.218 240.934C331.429 238.773 331.811 236.918 331.83 236.832L330.895 236.641C330.895 236.641 330.524 238.438 329.389 240.465C327.854 243.218 325.757 245.044 323.144 245.886C321.705 246.354 320.113 246.517 318.397 246.383L318.32 247.339C318.74 247.377 319.159 247.396 319.569 247.396V247.387Z" fill="white"/>
<path d="M294.135 208.075C296.871 223.533 316.53 242.863 316.53 242.863C321.564 241.037 325.654 237.997 328.943 233.954C328.943 233.954 317.159 209.767 316.644 200.733C315.92 187.942 325.377 159.597 328.914 149.502C329.677 147.361 330.154 146.042 330.22 145.86C330.22 145.85 330.22 145.841 330.22 145.841C330.22 145.841 330.144 145.85 330.001 145.87H329.972C329.553 145.936 328.647 146.08 327.379 146.338C322.679 147.313 313.031 149.942 305.032 156.127C295.165 163.775 291.847 195.265 294.125 208.075H294.135Z" fill="#01A56D"/>
<path d="M326.664 146.329C326.664 146.329 334.272 157.515 343.577 157.543C352.596 157.572 351.976 146.406 351.976 146.406L338.905 144.79L330.516 145.717C330.516 145.717 327.932 146.071 326.664 146.329Z" fill="white"/>
<path d="M350.021 148.749L347.942 136.684L333.337 125.614L329.914 147.63C329.914 147.63 345.883 164.303 350.03 148.749H350.021Z" fill="#FFC9AE"/>
<path d="M349.391 145.164C340.468 145.26 337.141 137.736 337.141 137.736L348.324 138.921L349.391 145.164Z" fill="#1A2A48"/>
<path d="M359.506 119.849C357.599 130.098 355.034 144.638 345.033 142.535C334.098 140.231 333.202 128.989 333.335 120.71C333.402 116.551 336.539 109.763 345.939 110.194C357.685 110.729 360.278 115.71 359.506 119.849Z" fill="#FFC9AE"/>
<path d="M331.41 124.398C332.869 128.843 337.817 127.237 339.037 126.31C340.658 125.076 341.812 121.53 342.565 121.147C345.492 119.646 355.331 125.009 360.364 122.581C364.759 120.459 365.732 110.373 359.077 106.788C350.916 102.4 336.358 109.962 336.358 109.962C336.358 109.962 326.005 107.878 331.41 124.407V124.398Z" fill="#1A2A48"/>
<path d="M336.177 126.025C336.463 123.836 334.356 121.991 332.421 122.88C331.82 123.157 331.277 123.645 330.905 124.457C329.379 127.774 331.649 130.929 335.557 130.776L336.177 126.025Z" fill="#FFC9AE"/>
<path d="M327.674 234.135C327.569 233.963 317.396 216.574 317.158 203.859C316.881 189.376 319.417 179.854 319.446 179.759L320.132 179.95C320.104 180.046 317.596 189.481 317.873 203.849C318.111 216.382 328.188 233.6 328.293 233.772L327.683 234.135H327.674Z" fill="#1A2A48"/>
<path d="M372.955 179.879L372.508 180.438L385.99 191.285L386.437 190.725L372.955 179.879Z" fill="#1A2A48"/>
<path d="M371.794 211.881C371.727 211.804 365.091 204.386 360.82 188.363L361.507 188.181C365.73 204.013 372.251 211.326 372.318 211.403L371.794 211.89V211.881Z" fill="#1A2A48"/>
<path d="M359.957 337.829L359.251 337.723C361.377 323.47 362.397 313.547 362.292 308.241C362.159 301.511 358.25 277.105 354.999 257.813L354.961 257.593L359.318 254.486L359.728 255.069L355.733 257.918C358.984 277.2 362.864 301.482 362.998 308.222C363.103 313.575 362.083 323.537 359.947 337.829H359.957Z" fill="white"/>
<path d="M318.474 189.014L317.816 188.736C319.027 185.821 321.22 181.901 321.239 181.863L321.859 182.216C321.859 182.216 319.666 186.136 318.465 189.014H318.474Z" fill="#1A2A48"/>
<path d="M321.372 168.621C320.428 158.219 313.115 154.3 313.039 154.262L313.363 153.621C313.439 153.659 321.095 157.741 322.077 168.554L321.362 168.621H321.372Z" fill="#1A2A48"/>
<path d="M355.568 396.442H330.98V397.159H355.568V396.442Z" fill="#30282B"/>
<path d="M350.076 391.529L349.848 390.85C349.848 390.85 352.02 390.105 351.916 388.651L352.63 388.604C352.773 390.602 350.191 391.491 350.076 391.529Z" fill="#30282B"/>
<path d="M353.159 392.856L352.863 392.206C352.863 392.206 354.97 391.221 354.97 389.845H355.685C355.685 391.68 353.264 392.808 353.159 392.856Z" fill="#30282B"/>
<path d="M295.441 366.592L294.828 366.961L307.507 388.086L308.119 387.716L295.441 366.592Z" fill="#30282B"/>
<path d="M312.057 381.529C310.76 381.529 309.559 380.505 309.492 380.457L309.959 379.912C309.959 379.912 311.723 381.385 312.905 380.553L313.315 381.136C312.915 381.423 312.486 381.529 312.066 381.529H312.057Z" fill="#30282B"/>
<path d="M312.616 384.704C311.31 384.704 310.013 383.824 309.938 383.776L310.338 383.183C310.338 383.183 312.264 384.484 313.436 383.776L313.808 384.388C313.436 384.618 313.017 384.704 312.607 384.704H312.616Z" fill="#30282B"/>
<path d="M395.43 59.194C392.911 59.194 390.871 61.2979 390.871 63.8954V99.588L395.104 93.1383H426.574C429.093 93.1383 431.133 91.0343 431.133 88.4369V63.8954C431.133 61.2979 429.093 59.194 426.574 59.194H395.43Z" fill="#1F4168"/>
<path d="M408.444 83.2728L402 77.6027L404.094 75.4376L408.364 79.1977L417.825 70.2301L420 72.3195L408.444 83.2728Z" fill="white"/>
<path d="M576.657 398.03H42.2266V399.999H576.657V398.03Z" fill="#1A2A48"/>
<path d="M169.637 283.676C169.504 283.676 169.39 283.636 169.293 283.558C169.197 283.49 169.107 283.401 169.022 283.288L168.282 282.329C167.643 282.61 166.884 282.75 166.005 282.75C164.439 282.75 163.228 282.368 162.373 281.606C161.518 280.831 161.066 279.67 161.018 278.122C161.006 277.785 161 277.308 161 276.691C161 276.074 161.006 275.603 161.018 275.278C161.066 273.752 161.53 272.596 162.409 271.811C163.301 271.025 164.499 270.633 166.005 270.633C167.511 270.633 168.703 271.025 169.583 271.811C170.462 272.596 170.926 273.752 170.974 275.278C170.998 275.928 171.01 276.4 171.01 276.691C171.01 276.972 170.998 277.449 170.974 278.122C170.926 279.67 170.486 280.82 169.655 281.572L170.865 283.154C170.902 283.221 170.92 283.283 170.92 283.339C170.92 283.429 170.883 283.507 170.811 283.575C170.739 283.642 170.655 283.676 170.558 283.676H169.637ZM166.005 281.353C166.969 281.353 167.74 281.084 168.318 280.545C168.896 279.996 169.203 279.16 169.239 278.038C169.263 277.365 169.275 276.916 169.275 276.691C169.275 276.445 169.263 275.996 169.239 275.345C169.203 274.223 168.896 273.387 168.318 272.837C167.74 272.288 166.969 272.013 166.005 272.013C165.041 272.013 164.264 272.288 163.674 272.837C163.096 273.387 162.789 274.223 162.753 275.345C162.741 275.67 162.735 276.119 162.735 276.691C162.735 277.252 162.741 277.701 162.753 278.038C162.789 279.16 163.096 279.996 163.674 280.545C164.252 281.084 165.029 281.353 166.005 281.353Z" fill="white"/>
<path d="M174.077 282.582C173.957 282.582 173.86 282.548 173.788 282.481C173.716 282.402 173.68 282.307 173.68 282.195V271.205C173.68 271.082 173.716 270.986 173.788 270.919C173.86 270.84 173.957 270.801 174.077 270.801H178.486C179.859 270.801 180.931 271.104 181.702 271.71C182.485 272.305 182.876 273.174 182.876 274.318C182.876 275.171 182.648 275.872 182.19 276.422C181.732 276.972 181.094 277.353 180.275 277.566L183.057 282.06C183.093 282.127 183.111 282.189 183.111 282.245C183.111 282.335 183.075 282.413 183.003 282.481C182.931 282.548 182.846 282.582 182.75 282.582H181.955C181.774 282.582 181.63 282.542 181.521 282.464C181.425 282.385 181.335 282.273 181.25 282.127L178.594 277.819H175.378V282.195C175.378 282.307 175.336 282.402 175.252 282.481C175.167 282.548 175.065 282.582 174.944 282.582H174.077ZM178.414 276.439C180.232 276.439 181.142 275.726 181.142 274.302C181.142 272.877 180.232 272.164 178.414 272.164H175.378V276.439H178.414Z" fill="white"/>
<path d="M194.464 282.75C192.862 282.75 191.64 282.346 190.797 281.538C189.965 280.719 189.52 279.603 189.459 278.189C189.447 277.886 189.441 277.393 189.441 276.708C189.441 276.013 189.447 275.508 189.459 275.194C189.52 273.78 189.965 272.669 190.797 271.861C191.64 271.042 192.862 270.633 194.464 270.633C195.537 270.633 196.446 270.812 197.193 271.171C197.94 271.519 198.5 271.979 198.873 272.551C199.259 273.124 199.469 273.735 199.506 274.386C199.506 274.487 199.463 274.571 199.379 274.638C199.307 274.694 199.216 274.722 199.108 274.722H198.205C198.084 274.722 197.988 274.694 197.916 274.638C197.843 274.582 197.789 274.487 197.753 274.352C197.548 273.488 197.175 272.882 196.633 272.535C196.103 272.187 195.38 272.013 194.464 272.013C192.369 272.013 191.278 273.101 191.194 275.278C191.182 275.581 191.176 276.046 191.176 276.675C191.176 277.303 191.182 277.78 191.194 278.105C191.278 280.27 192.369 281.353 194.464 281.353C195.368 281.353 196.091 281.179 196.633 280.831C197.175 280.484 197.548 279.883 197.753 279.031C197.789 278.896 197.843 278.801 197.916 278.745C197.988 278.688 198.084 278.66 198.205 278.66H199.108C199.216 278.66 199.307 278.694 199.379 278.761C199.463 278.817 199.506 278.896 199.506 278.997C199.469 279.648 199.259 280.259 198.873 280.831C198.5 281.404 197.94 281.869 197.193 282.228C196.446 282.576 195.537 282.75 194.464 282.75Z" fill="white"/>
<path d="M206.482 282.75C204.916 282.75 203.705 282.368 202.85 281.606C201.995 280.831 201.543 279.67 201.495 278.122C201.483 277.785 201.477 277.308 201.477 276.691C201.477 276.074 201.483 275.603 201.495 275.278C201.543 273.752 202.007 272.596 202.886 271.811C203.777 271.025 204.976 270.633 206.482 270.633C207.987 270.633 209.18 271.025 210.059 271.811C210.939 272.596 211.402 273.752 211.451 275.278C211.475 275.928 211.487 276.4 211.487 276.691C211.487 276.972 211.475 277.449 211.451 278.122C211.402 279.67 210.951 280.831 210.095 281.606C209.252 282.368 208.048 282.75 206.482 282.75ZM206.482 281.353C207.445 281.353 208.216 281.084 208.795 280.545C209.373 279.996 209.686 279.16 209.734 278.038C209.758 277.365 209.77 276.916 209.77 276.691C209.77 276.445 209.758 275.996 209.734 275.345C209.686 274.223 209.373 273.387 208.795 272.837C208.216 272.288 207.445 272.013 206.482 272.013C205.518 272.013 204.741 272.288 204.151 272.837C203.573 273.387 203.266 274.223 203.229 275.345C203.217 275.67 203.211 276.119 203.211 276.691C203.211 277.252 203.217 277.701 203.229 278.038C203.266 279.16 203.573 279.996 204.151 280.545C204.729 281.084 205.506 281.353 206.482 281.353Z" fill="white"/>
<path d="M214.554 282.582C214.433 282.582 214.337 282.548 214.265 282.481C214.192 282.402 214.156 282.307 214.156 282.195V271.205C214.156 271.082 214.192 270.986 214.265 270.919C214.337 270.84 214.433 270.801 214.554 270.801H218.637C220.456 270.801 221.769 271.183 222.576 271.945C223.383 272.697 223.799 273.836 223.823 275.362C223.835 275.687 223.841 276.125 223.841 276.675C223.841 277.224 223.835 277.667 223.823 278.004C223.799 279.07 223.612 279.939 223.263 280.613C222.926 281.275 222.39 281.768 221.655 282.094C220.92 282.419 219.944 282.582 218.728 282.582H214.554ZM218.637 281.185C219.481 281.185 220.149 281.078 220.643 280.865C221.149 280.641 221.51 280.298 221.727 279.838C221.956 279.367 222.082 278.733 222.107 277.937C222.131 277.264 222.143 276.843 222.143 276.675C222.143 276.495 222.131 276.08 222.107 275.429C222.082 274.307 221.793 273.488 221.239 272.972C220.697 272.445 219.8 272.181 218.547 272.181H215.855V281.185H218.637Z" fill="white"/>
<path d="M226.996 282.582C226.875 282.582 226.779 282.548 226.707 282.481C226.634 282.402 226.598 282.307 226.598 282.195V271.205C226.598 271.082 226.634 270.986 226.707 270.919C226.779 270.84 226.875 270.801 226.996 270.801H234.422C234.554 270.801 234.657 270.84 234.729 270.919C234.813 270.986 234.855 271.082 234.855 271.205V271.811C234.855 271.923 234.813 272.013 234.729 272.08C234.657 272.147 234.554 272.181 234.422 272.181H228.26V275.934H234.024C234.157 275.934 234.259 275.973 234.331 276.052C234.416 276.119 234.458 276.215 234.458 276.338V276.91C234.458 277.022 234.416 277.118 234.331 277.196C234.259 277.264 234.157 277.297 234.024 277.297H228.26V281.185H234.566C234.699 281.185 234.801 281.224 234.874 281.303C234.958 281.37 235 281.465 235 281.589V282.195C235 282.307 234.958 282.402 234.874 282.481C234.789 282.548 234.687 282.582 234.566 282.582H226.996Z" fill="white"/>
</g>
<defs>
<clipPath id="clip0_37887_129088">
<rect width="600" height="400" fill="white"/>
</clipPath>
</defs>
</svg>
