<svg width="100" height="80" viewBox="0 0 100 80" fill="none" xmlns="http://www.w3.org/2000/svg">
<rect x="6" y="14" width="22" height="16.6667" rx="4" fill="#CDD0DB" fill-opacity="0.5"/>
<path d="M17 17C14.2425 17 12 19.2425 12 22C12 24.7575 14.2425 27 17 27C19.7575 27 22 24.7575 22 22C22 19.2425 19.7575 17 17 17ZM17.4425 24.7275C17.32 24.85 17.16 24.91 17 24.91C16.84 24.91 16.68 24.85 16.5575 24.7275L14.415 22.585L14.945 22.055L16.625 23.735V19H17.375V23.735L19.055 22.055L19.585 22.585L17.4425 24.7275Z" fill="#0A0909"/>
<rect x="6" y="34.6666" width="22" height="16.6667" rx="4" fill="#CDD0DB" fill-opacity="0.5"/>
<path d="M20.625 40.4166H20.5V38.1666H13.5V40.4166H13.375C12.6175 40.4166 12 41.0341 12 41.7916V44.7916C12 45.1366 12.28 45.4166 12.625 45.4166H13.5V47.1666H20.5V45.4166H21.375C21.72 45.4166 22 45.1366 22 44.7916V41.7916C22 41.0341 21.3825 40.4166 20.625 40.4166ZM14.25 38.9166H19.75V40.4166H14.25V38.9166ZM19.75 46.4166H14.25V44.1666H19.75V46.4166ZM20.5 42.6666H19.75V41.9166H20.5V42.6666Z" fill="#0A0909"/>
<rect x="6" y="55.3334" width="22" height="16.6667" rx="4" fill="#CDD0DB" fill-opacity="0.5"/>
<path d="M19.375 65.0834C18.915 65.0834 18.5 65.2759 18.2025 65.5859L15.1775 63.8109C15.225 63.6609 15.25 63.4984 15.25 63.3334C15.25 63.1684 15.225 63.0084 15.1775 62.8584L18.2025 61.0834C18.4975 61.3909 18.9125 61.5859 19.375 61.5859C20.27 61.5859 21 60.8559 21 59.9609C21 59.0659 20.27 58.3359 19.375 58.3359C18.48 58.3359 17.75 59.0659 17.75 59.9609C17.75 60.1259 17.775 60.2884 17.8225 60.4384L14.7975 62.2134C14.5025 61.9034 14.085 61.7109 13.625 61.7109C12.73 61.7109 12 62.4409 12 63.3359C12 64.2309 12.73 64.9609 13.625 64.9609C14.085 64.9609 14.5 64.7684 14.7975 64.4584L17.8225 66.2334C17.775 66.3834 17.75 66.5434 17.75 66.7084C17.75 67.6034 18.48 68.3334 19.375 68.3334C20.27 68.3334 21 67.6034 21 66.7084C21 65.8134 20.27 65.0834 19.375 65.0834Z" fill="#0A0909"/>
<rect x="36" y="14" width="58" height="58" rx="4" fill="#BFD166" stroke="#0A0909" stroke-width="2" stroke-linecap="round" stroke-dasharray="7 9"/>
<g clip-path="url(#clip0_0_2808)">
<rect width="32" height="32" transform="translate(49 27)" fill="#BFD166"/>
<path d="M69.7999 27V38.2H80.9999V27H69.7999ZM77.7999 35H72.9999V30.2H77.7999V35Z" fill="#0A0909"/>
<path d="M55.4 41.4H49V44.6H55.4V41.4Z" fill="#0A0909"/>
<path d="M63.4 41.4H58.6V44.6H63.4V41.4Z" fill="#0A0909"/>
<path d="M66.6 38.2H63.4V41.4H66.6V38.2Z" fill="#0A0909"/>
<path d="M60.2 33.4V27H49V38.2H60.2H63.4V33.4H60.2ZM57 35H52.2V30.2H57V35Z" fill="#0A0909"/>
<path d="M66.6 27H63.4V33.4H66.6V27Z" fill="#0A0909"/>
<path d="M71.4 44.6H74.5999V49.4H77.7999V41.4H66.6V44.6H68.1999V47.8H71.4V44.6Z" fill="#0A0909"/>
<path d="M68.2 47.7999H65V52.5999H68.2V47.7999Z" fill="#0A0909"/>
<path d="M80.9999 49.4H77.7999V52.6H80.9999V49.4Z" fill="#0A0909"/>
<path d="M71.4 52.6H68.2V55.8H65V59H71.4V55.8H74.6V59H79.4V55.8H77.8V52.6H74.6H71.4Z" fill="#0A0909"/>
<path d="M60.2 52.5999V47.7999H49V58.9999H60.2V55.7999H65V52.5999H60.2ZM57 55.7999H52.2V50.9999H57V55.7999Z" fill="#0A0909"/>
</g>
<defs>
<clipPath id="clip0_0_2808">
<rect width="32" height="32" fill="white" transform="translate(49 27)"/>
</clipPath>
</defs>
</svg>
