<svg width="100" height="80" viewBox="0 0 100 80" fill="none" xmlns="http://www.w3.org/2000/svg">
<rect x="12" y="14" width="28" height="32" rx="4" fill="#CDD0DB" fill-opacity="0.5"/>
<rect x="12" y="54" width="28" height="18" rx="4" fill="#CDD0DB" fill-opacity="0.5"/>
<path d="M17 21C17 20.4477 17.4477 20 18 20H20.4545C21.0068 20 21.4545 20.4477 21.4545 21C21.4545 21.5523 21.0068 22 20.4545 22H18C17.4477 22 17 21.5523 17 21Z" fill="#0A0909"/>
<path d="M23.6818 21C23.6818 20.4477 24.1295 20 24.6818 20H33.8182C34.3705 20 34.8182 20.4477 34.8182 21C34.8182 21.5523 34.3705 22 33.8182 22H24.6818C24.1295 22 23.6818 21.5523 23.6818 21Z" fill="#0A0909"/>
<path d="M17 27C17 26.4477 17.4477 26 18 26H20.4545C21.0068 26 21.4545 26.4477 21.4545 27C21.4545 27.5523 21.0068 28 20.4545 28H18C17.4477 28 17 27.5523 17 27Z" fill="#0A0909"/>
<path d="M23.6818 27C23.6818 26.4477 24.1295 26 24.6818 26H33.8182C34.3705 26 34.8182 26.4477 34.8182 27C34.8182 27.5523 34.3705 28 33.8182 28H24.6818C24.1295 28 23.6818 27.5523 23.6818 27Z" fill="#0A0909"/>
<path d="M17 33C17 32.4477 17.4477 32 18 32H20.4545C21.0068 32 21.4545 32.4477 21.4545 33C21.4545 33.5523 21.0068 34 20.4545 34H18C17.4477 34 17 33.5523 17 33Z" fill="#0A0909"/>
<path d="M23.6818 33C23.6818 32.4477 24.1295 32 24.6818 32H33.8182C34.3705 32 34.8182 32.4477 34.8182 33C34.8182 33.5523 34.3705 34 33.8182 34H24.6818C24.1295 34 23.6818 33.5523 23.6818 33Z" fill="#0A0909"/>
<path d="M17 39C17 38.4477 17.4477 38 18 38H20.4545C21.0068 38 21.4545 38.4477 21.4545 39C21.4545 39.5523 21.0068 40 20.4545 40H18C17.4477 40 17 39.5523 17 39Z" fill="#0A0909"/>
<path d="M23.6818 39C23.6818 38.4477 24.1295 38 24.6818 38H33.8182C34.3705 38 34.8182 38.4477 34.8182 39C34.8182 39.5523 34.3705 40 33.8182 40H24.6818C24.1295 40 23.6818 39.5523 23.6818 39Z" fill="#0A0909"/>
<path d="M17.0001 63C17.0001 62.4477 17.4478 62 18.0001 62H33.8182C34.3705 62 34.8182 62.4477 34.8182 63C34.8182 63.5523 34.3705 64 33.8182 64H18.0001C17.4478 64 17.0001 63.5523 17.0001 63Z" fill="#0A0909"/>
<rect x="50" y="14" width="38" height="58" rx="4" fill="#BFD166" stroke="#0A0909" stroke-width="2" stroke-linecap="round" stroke-dasharray="7 9"/>
<path d="M60 56C60 54.8954 60.8954 54 62 54H78C79.1046 54 80 54.8954 80 56C80 57.1046 79.1046 58 78 58H62C60.8954 58 60 57.1046 60 56Z" fill="white"/>
<path d="M65.4083 44.9917C65.1917 44.9917 64.9792 44.925 64.7958 44.7917C64.4708 44.5583 64.3125 44.1667 64.3792 43.7708L65.1625 39.1958L61.8417 35.9583C61.5542 35.6792 61.4542 35.2708 61.5792 34.8917C61.7042 34.5125 62.025 34.2417 62.4208 34.1833L67.0125 33.5167L69.0667 29.3583C69.2417 29 69.6 28.7792 70 28.7792C70.4 28.7792 70.7583 29 70.9333 29.3583L72.9875 33.5167L77.5792 34.1833C77.975 34.2417 78.2958 34.5125 78.4208 34.8917C78.5458 35.2708 78.4417 35.6792 78.1583 35.9583L74.8375 39.1958L75.6208 43.7667C75.6875 44.1625 75.5292 44.55 75.2042 44.7875C74.8792 45.0208 74.4625 45.05 74.1083 44.8667L70 42.7083L65.8917 44.8667C65.7375 44.9458 65.5708 44.9875 65.4042 44.9875L65.4083 44.9917Z" fill="white"/>
</svg>
