<svg width="100" height="80" viewBox="0 0 100 80" fill="none" xmlns="http://www.w3.org/2000/svg">
<rect x="14" y="14" width="70" height="24" rx="4" fill="#BFD166" stroke="#0A0909" stroke-width="2" stroke-linecap="round" stroke-dasharray="7 9"/>
<path d="M23 26C23 25.4477 23.4477 25 24 25H46C46.5523 25 47 25.4477 47 26C47 26.5523 46.5523 27 46 27H24C23.4477 27 23 26.5523 23 26Z" fill="#0A0909"/>
<rect x="14" y="48" width="70" height="24" rx="4" fill="#CDD0DB" fill-opacity="0.5"/>
<path d="M23 60C23 59.4477 23.4477 59 24 59H40C40.5523 59 41 59.4477 41 60C41 60.5523 40.5523 61 40 61H24C23.4477 61 23 60.5523 23 60Z" fill="#0A0909"/>
<path d="M43 60C43 59.4477 43.4477 59 44 59H52C52.5523 59 53 59.4477 53 60C53 60.5523 52.5523 61 52 61H44C43.4477 61 43 60.5523 43 60Z" fill="#0A0909"/>
</svg>
