<svg width="46" height="32" viewBox="0 0 46 32" fill="none" xmlns="http://www.w3.org/2000/svg">
<g clip-path="url(#clip0_0_2746)">
<path d="M30.0709 20.9091L20.7117 4.50198L27.4354 0.606384L39.0736 20.9091H30.0709Z" fill="#79809A"/>
<path d="M5.14185 18.6103L11.8656 14.6884L15.4231 20.9091H6.44658L5.14185 18.6103Z" fill="#79809A"/>
<path d="M18.337 31.3763H20.2506V23.5676H18.337V31.3763Z" fill="#79809A"/>
<path d="M42.318 31.5605C40.1782 31.5605 38.8909 30.4462 38.8213 28.8757H40.8393C40.8393 29.3671 41.1437 30.0865 42.4485 30.1128C43.3183 30.1128 43.7271 29.5952 43.7271 29.2091C43.6749 28.595 42.9094 28.5423 42.0918 28.4107C41.2742 28.2791 40.5783 28.1299 40.0738 27.8667C39.4302 27.5333 38.9953 26.8139 38.9953 25.9891C38.9953 24.5941 40.1956 23.4886 42.1962 23.4886C44.1359 23.4886 45.3624 24.5151 45.4928 26.0418H43.5444C43.527 25.6294 43.4487 24.9801 42.3006 24.9801C41.5264 24.9801 41.0132 25.1381 40.9697 25.6821C40.9697 26.4805 42.5789 26.4278 43.8315 26.7612C45.0318 27.0683 45.7973 27.8229 45.7973 28.8757C45.7973 30.8148 44.2403 31.5605 42.318 31.5605Z" fill="#79809A"/>
<path d="M13.0224 11.6439L19.7461 7.73077L27.2875 20.9091H20.2506V22.8393H18.337V20.9003L13.0224 11.6439Z" fill="#79809A"/>
<path d="M13.1964 31.5605C10.9696 31.5605 9.1604 29.7268 9.1604 27.507C9.1604 25.2609 10.9696 23.4886 13.1964 23.4886C14.0401 23.4886 14.8055 23.7167 15.4753 24.1817V20.9091H17.3889V31.3763H15.4753V30.8586C14.8055 31.2973 14.0401 31.5605 13.1964 31.5605ZM10.9957 27.507C10.9957 28.7178 12.0221 29.7268 13.2486 29.7268C14.4489 29.7268 15.4753 28.7178 15.4753 27.507C15.4753 26.2962 14.4489 25.2609 13.2486 25.2609C12.0221 25.2609 10.9957 26.2962 10.9957 27.507Z" fill="#79809A"/>
<path d="M27.3397 20.9091H29.2272V31.3763H27.3397V30.8586C26.696 31.2973 25.9045 31.5605 25.0347 31.5605C22.834 31.5605 21.0248 29.7268 21.0248 27.507C21.0248 25.2609 22.834 23.4886 25.0347 23.4886C25.9045 23.4886 26.6699 23.7167 27.3397 24.1817V20.9091ZM22.8862 27.507C22.8862 28.7178 23.9126 29.7268 25.0868 29.7268C26.3133 29.7268 27.3397 28.7178 27.3397 27.507C27.3397 26.2962 26.3133 25.2609 25.0868 25.2609C23.9126 25.2609 22.8862 26.2962 22.8862 27.507Z" fill="#79809A"/>
<path d="M33.8807 31.5605C31.6888 31.5605 29.8708 29.7268 29.8708 27.507C29.8708 25.2609 31.6888 23.4886 33.8807 23.4886C34.7245 23.4886 35.516 23.7167 36.1597 24.1817V23.5588H38.0733V31.3763H36.1597V30.8586C35.516 31.2973 34.7506 31.5605 33.8807 31.5605ZM31.7323 27.507C31.7323 28.7178 32.7587 29.7268 33.959 29.7268C35.1594 29.7268 36.1597 28.7178 36.1597 27.507C36.1597 26.2962 35.1594 25.2609 33.959 25.2609C32.7587 25.2609 31.7323 26.2962 31.7323 27.507Z" fill="#79809A"/>
<path d="M2.12356 27.507C2.12356 28.7178 3.14995 29.7268 4.35031 29.7268C5.57675 29.7268 6.60314 28.7178 6.60314 27.507C6.60314 26.2962 5.57675 25.2609 4.35031 25.2609C3.14995 25.2609 2.12356 26.2962 2.12356 27.507ZM4.29811 31.5605C2.09747 31.5605 0.279541 29.7268 0.279541 27.507C0.279541 25.2609 2.09747 23.4886 4.29811 23.4886C5.14184 23.4886 5.93338 23.7167 6.60314 24.1817V23.5588H8.49065V31.3763H6.60314V30.8586C5.95947 31.2973 5.16794 31.5605 4.29811 31.5605Z" fill="#79809A"/>
</g>
<defs>
<clipPath id="clip0_0_2746">
<rect width="46" height="32" fill="white"/>
</clipPath>
</defs>
</svg>
