<svg width="208" height="32" viewBox="0 0 208 32" fill="none" xmlns="http://www.w3.org/2000/svg">
<g clip-path="url(#clip0_35834_337955)">
<path d="M38.6252 28.5922L20.0508 19.6571V0L38.6252 28.5922ZM40.102 32L20.0508 23.5429V32H40.102Z" fill="#79809A"/>
<path d="M1.47656 28.5922L20.051 0V19.6571L1.47656 28.5922Z" fill="#79809A"/>
<path d="M0 32.0001H20.0512V23.543L0 32.0001Z" fill="#79809A"/>
<path d="M41.7245 26.1406C42.4525 26.1406 43.0557 26.7224 43.0557 27.4497C43.0557 28.177 42.4733 28.7796 41.7453 28.7796C41.0173 28.7796 40.4141 28.1978 40.4141 27.4705C40.4141 26.7224 40.9965 26.1406 41.7245 26.1406ZM41.7245 28.5718C42.3485 28.5718 42.8477 28.0731 42.8477 27.4497C42.8477 26.8263 42.3485 26.3276 41.7245 26.3276C41.1005 26.3276 40.6013 26.8263 40.6013 27.4497C40.6013 28.0731 41.1005 28.5718 41.7245 28.5718ZM41.4333 28.2185H41.2461V26.7017H41.8285C42.1821 26.7017 42.3069 26.8471 42.3069 27.1172C42.3277 27.3458 42.1405 27.5328 41.9325 27.5536L42.3901 28.2185H42.1821L41.7245 27.5536H41.4541L41.4333 28.2185ZM41.4333 27.3666H41.6829C41.8909 27.3666 42.1197 27.3458 42.1197 27.0965C42.1197 26.9095 41.9325 26.8471 41.7869 26.8471H41.4541V27.3666H41.4333Z" fill="#79809A"/>
<path d="M55.7656 28.5918H64.772C74.0488 28.5918 79.5608 23.7918 79.5608 15.8334C79.5608 7.87492 74.0488 3.0957 64.772 3.0957H55.7656V28.5918ZM61.4648 7.52168H64.772C70.7832 7.52168 73.7992 10.4931 73.7992 15.8334C73.7992 21.1736 70.7832 24.1451 64.772 24.1451H61.4648V7.52168Z" fill="#79809A"/>
<path d="M98.9466 17.5373H109.783V13.1113H98.9466V7.52168H111.198V3.0957H93.2266V28.5918H111.593V24.1658H98.9466V17.5373Z" fill="#79809A"/>
<path d="M144.083 24.1658H133.079V3.0957H127.359V28.5918H144.083V24.1658Z" fill="#79809A"/>
<path d="M174.866 3.0957H151.965V7.52168H160.534V28.5918H166.275V7.52168H174.866V3.0957Z" fill="#79809A"/>
<path d="M208.001 28.5922H202.032L199.536 22.213H189.156L186.66 28.5922H181.086L191.756 2.99219H197.518L208.001 28.5922ZM197.913 17.9324L194.356 8.87271L190.779 17.9324H197.913Z" fill="#79809A"/>
</g>
<defs>
<clipPath id="clip0_35834_337955">
<rect width="208" height="32" fill="white"/>
</clipPath>
</defs>
</svg>
