<svg width="170" height="24" viewBox="0 0 170 24" fill="none" xmlns="http://www.w3.org/2000/svg">
<path d="M29.8917 0L24.4588 7.37319H54.0671C55.5546 7.37319 55.5404 7.92459 54.8108 8.91428C54.0671 9.91811 52.8275 11.6713 52.0767 12.6892C51.6942 13.2053 50.9858 14.1526 53.2879 14.1526H65.4004L68.9775 9.27481C71.2017 6.26332 69.1758 0 61.2212 0H29.8917ZM80.92 0L70.4721 14.1526H108.651L119.085 0H103.488L97.5163 8.10133H90.5392L96.5317 0H80.9271H80.92ZM124.164 0L113.723 14.1526H130.255L140.682 0H124.171H124.164ZM33.1783 9.18998L22.27 23.9929H48.8608C57.6442 23.9929 62.5458 18.0265 64.0546 15.9623H45.9212C43.6121 15.9623 44.3204 15.0221 44.7029 14.499C45.4608 13.4881 46.7075 11.7561 47.4513 10.7523C48.1879 9.76259 48.2092 9.19705 46.7075 9.19705H33.1783V9.18998ZM0 15.9694V17.6801H24.0692L25.3158 15.9694H0ZM69.1475 15.9694L63.2258 24H78.8304L84.7521 15.9694H69.1475ZM91.7079 15.9694L85.7863 24H101.391L107.312 15.9694H91.7079ZM112.377 15.9694C112.377 15.9694 111.251 17.5246 110.691 18.2739C108.736 20.9178 110.458 24 116.854 24H141.915L147.822 15.9694H112.377ZM150.684 15.9694L149.43 17.6801H170V15.9694H150.684ZM0 19.1364V20.833H21.7317L22.9925 19.1364H0ZM148.346 19.1364L147.107 20.833H170V19.1364H148.346ZM0 22.2963V23.9929H19.4083L20.655 22.2963H0ZM146.023 22.2963L144.769 23.9929H170V22.2963H146.023Z" fill="#79809A"/>
</svg>
