<svg width="76" height="32" viewBox="0 0 76 32" fill="none" xmlns="http://www.w3.org/2000/svg">
<g clip-path="url(#clip0_35834_337951)">
<path d="M65.3791 13.9773C64.1089 14.2707 60.7543 14.4337 60.7543 14.4337L60.3418 15.7597C60.3418 15.7597 62.0028 15.6184 63.2187 15.738C63.2187 15.738 63.6095 15.7054 63.6529 16.1727C63.6746 16.651 63.6204 17.1509 63.6204 17.1509C63.6204 17.1509 63.5878 17.4444 63.1861 17.5205C62.7193 17.5966 59.571 17.7378 59.571 17.7378L59.0607 19.4551C59.0607 19.4551 58.8762 19.8464 59.2996 19.7377C59.6904 19.629 62.9907 18.9986 63.4249 19.0856C63.8809 19.1943 64.402 19.8246 64.25 20.3898C64.0763 21.0745 60.776 23.1831 58.7784 23.0418C58.7784 23.0418 57.7254 23.107 56.846 21.6832C55.9992 20.3246 57.1391 17.7705 57.1391 17.7705C57.1391 17.7705 56.6289 16.5749 57.0089 16.1401C57.0089 16.1401 57.226 15.9554 57.8774 15.901L58.6916 14.2272C58.6916 14.2272 57.7688 14.2816 57.226 13.6077C56.7266 12.9556 56.6832 12.673 57.074 12.4991C57.4865 12.2817 61.308 11.597 63.9352 11.684C63.9352 11.684 64.858 11.5753 65.6722 13.173C65.6722 13.173 66.0413 13.8251 65.3899 13.9773M55.4781 20.4116C55.1524 21.205 54.2514 22.0419 53.1657 21.531C52.0584 21.0093 50.3105 17.4444 50.3105 17.4444C50.3105 17.4444 49.6591 16.1184 49.5289 16.1619C49.5289 16.1619 49.3877 15.901 49.3117 17.3574C49.2032 18.803 49.3335 21.618 48.7364 22.0636C48.1935 22.4983 47.5422 22.3136 47.1731 21.8028C46.8691 21.2919 46.7388 20.0638 46.9125 17.9226C47.1079 15.7815 47.5964 13.499 48.2153 12.7926C48.8666 12.0752 49.3877 12.5969 49.5832 12.7926C49.5832 12.7926 50.4191 13.5534 51.8304 15.8032L52.0692 16.2162C52.0692 16.2162 53.3503 18.3574 53.4806 18.3465C53.4806 18.3465 53.5891 18.4552 53.676 18.3682C53.8063 18.3356 53.7628 17.64 53.7628 17.64C53.7628 17.64 53.524 15.325 52.3298 11.4122C52.3298 11.4122 52.1561 10.9123 52.2755 10.4341C52.3841 9.99931 52.8509 10.2167 52.8509 10.2167C52.8509 10.2167 54.653 11.0862 55.5324 14.0207C56.4009 16.9553 55.8147 19.6181 55.489 20.4116M46.6411 12.8795C46.4674 13.1838 46.3914 13.6077 45.6423 13.7273C45.6423 13.7273 38.3686 14.2381 38.0103 14.7489C38.0103 14.7489 37.7715 15.0533 38.1623 15.1293C38.5749 15.2163 40.225 15.4337 41.0067 15.4771C41.8535 15.4771 44.6978 15.4989 45.74 16.7814C45.74 16.7814 46.3371 17.39 46.3154 18.7704C46.2937 20.1833 46.044 20.6833 45.4903 21.1941C44.9149 21.6723 39.9862 23.8895 36.8053 20.4985C36.8053 20.4985 35.3505 18.8682 37.3155 17.6292C37.3155 17.6292 38.7268 16.7597 42.342 17.7705C42.342 17.7705 43.4276 18.1617 43.3842 18.5639C43.3191 18.9986 42.4831 19.4334 41.2672 19.4116C40.0947 19.379 39.2262 18.8138 39.3999 18.9117C39.5628 18.966 38.1297 18.2161 37.6846 18.7269C37.2504 19.2051 37.3589 19.4877 37.7932 19.7812C38.8788 20.4116 43.1454 20.1833 44.4155 18.7595C44.4155 18.7595 44.9258 18.1835 44.155 17.7161C43.3951 17.2814 41.1804 17.0096 40.3227 16.977C39.5085 16.9336 36.4579 16.977 36.0019 16.1836C36.0019 16.1836 35.5677 15.6184 36.0453 14.0751C36.5447 12.4448 40.0947 11.8144 41.6363 11.684C41.6363 11.684 45.8703 11.5101 46.6628 12.3796C46.6628 12.3796 46.7714 12.5752 46.6411 12.8687M34.634 22.4331C34.1238 22.8135 33.0381 22.6505 32.7233 22.2158C32.4193 21.8354 32.3108 20.3355 32.365 17.977C32.441 15.5641 32.4736 12.6078 33.0164 12.1296C33.5592 11.6622 33.8849 12.0752 34.1021 12.3904C34.3192 12.7165 34.6014 13.0752 34.6449 13.8251C34.71 14.5859 34.8946 18.4987 34.8946 18.4987C34.8946 18.4987 35.1334 22.0636 34.6449 22.4331M35.7196 9.71672C34.2215 10.2276 33.201 10.0645 32.3325 9.68411C31.9525 10.3688 31.7245 10.5753 31.4423 10.6188C31.008 10.6623 30.628 9.9667 30.5738 9.74933C30.4869 9.5863 30.2806 9.29284 30.5303 8.62985C29.6835 7.86904 29.6184 6.84738 29.7704 6.16265C29.9658 5.35836 31.3988 2.33685 35.7414 1.97818C35.7414 1.97818 37.8692 1.82602 38.2383 2.95637H38.3034C38.3034 2.95637 40.3661 2.95637 40.3227 4.80405C40.3227 6.65174 38.0429 8.95591 35.7196 9.74933M37.6521 4.45625C36.2842 4.67363 34.178 6.49958 33.1684 8.01033C34.7209 8.29292 37.4349 8.18423 38.6508 5.7279C38.6508 5.7279 39.2262 4.18454 37.6521 4.45625ZM31.6485 5.65182C31.2143 6.35828 31.1926 6.78216 31.3988 7.06475C31.9091 6.30394 32.8102 5.10838 34.1672 4.17367C33.125 4.28236 32.2456 4.7171 31.6485 5.65182ZM68.636 22.3571C67.6372 24.8134 66.7904 27.3023 66.3019 31.0303C66.3019 31.0303 66.1933 31.7585 65.5962 31.5194C64.9991 31.302 64.022 30.3238 63.8049 28.9435C63.5878 27.1393 64.3912 24.0961 66.0305 20.5963C65.5528 19.8355 65.2162 18.7052 65.4876 17.1183C65.4876 17.1183 65.9219 14.1838 68.8531 11.5318C68.8531 11.5318 69.2005 11.2383 69.3959 11.3362C69.6348 11.4448 69.5371 12.3796 69.3416 12.8578C69.1679 13.3143 67.8652 15.575 67.8652 15.575C67.8652 15.575 67.051 17.1183 67.2789 18.3248C68.8205 15.9554 72.3271 11.1514 74.4984 12.673C75.8771 13.6512 75.8771 16.8031 74.8458 18.6291C74.0316 20.0746 71.73 23.0635 68.6577 22.3679M73.1739 14.9772C72.3705 15.8467 70.9375 17.4987 69.8085 19.7377C71.0027 19.6073 72.1643 18.9443 72.5225 18.6073C73.0979 18.0965 74.4224 16.7162 74.2161 14.8902C74.2161 14.8902 74.0858 13.9338 73.1739 14.9772ZM24.5376 23.6396C20.6945 24.8134 17.0685 24.27 15.0927 23.7483C15.0384 24.5525 14.9515 24.8895 14.8212 25.0199C14.6693 25.1938 13.4099 25.9111 12.7151 24.8895C12.4111 24.4004 12.2592 23.52 12.1723 22.7157C7.72122 20.6941 5.65852 17.7161 5.59339 17.6074C5.48482 17.4987 4.47519 16.4445 5.48482 15.1402C6.42932 13.9664 9.55594 12.7817 12.3569 12.3143C12.4654 9.92323 12.726 8.07554 13.0625 7.26039C13.4642 6.2822 13.9745 7.1517 14.4304 7.80382C14.7995 8.29292 15.0275 10.3906 15.0492 12.0644C16.8731 11.9774 17.9804 12.1078 20.0106 12.4991C22.6812 12.9556 24.4617 14.3251 24.3205 15.8684C24.1902 17.39 22.8006 18.0204 22.2578 18.0639C21.715 18.1074 20.8465 17.7052 20.8465 17.7052C20.2385 17.4227 20.7922 17.1618 21.4979 16.8575C22.2795 16.4771 22.1058 16.0967 22.1058 16.0967C21.8236 15.2272 18.3604 14.6511 14.919 14.6511C14.919 16.5532 14.995 19.7051 15.0492 21.5419C17.4593 21.9984 19.2615 21.9006 19.2615 21.9006C19.2615 21.9006 28.0551 21.6506 28.3048 16.0315C28.5762 10.4015 19.5112 5.01056 12.8345 3.31504C6.16877 1.56517 2.39077 2.80421 2.06509 2.96724C1.70683 3.14114 2.03252 3.20635 2.03252 3.20635C2.03252 3.20635 2.39077 3.26069 3.04215 3.47807C3.69353 3.69544 3.17243 4.02151 3.17243 4.02151C2.03252 4.41278 0.762328 4.18454 0.512633 3.66284C0.262938 3.15201 0.675477 2.68465 1.16401 1.99992C1.61998 1.29345 2.14108 1.31519 2.14108 1.31519C10.3919 -1.56502 20.4665 3.59762 20.4665 3.59762C29.8898 8.35813 31.4965 13.9555 31.3228 16.1293C31.1709 18.2704 30.3458 21.8897 24.5376 23.6504M6.40761 15.8684C5.47397 16.3032 6.12534 16.9988 6.12534 16.9988C7.88407 18.8791 10.0336 20.0638 12.0963 20.8028C12.3352 17.5422 12.3134 16.3793 12.3134 14.7381C9.12169 14.9554 7.27611 15.4771 6.40761 15.8684Z" fill="#79809A"/>
</g>
<defs>
<clipPath id="clip0_35834_337951">
<rect width="76" height="32" fill="white"/>
</clipPath>
</defs>
</svg>
