<svg width="70" height="32" viewBox="0 0 70 32" fill="none" xmlns="http://www.w3.org/2000/svg">
<g clip-path="url(#clip0_35834_337967)">
<path d="M56.3007 7.33105L59.0975 10.4268L61.79 7.33105H67.5395L61.9206 13.6773L67.6165 20.0754H61.6351L58.8646 16.9551L56.1195 20.0754H50.3438L55.9899 13.7037L50.3438 7.33105H56.3007Z" fill="#79809A"/>
<path d="M50.3441 7.33099V11.637H43.9495V15.5883H50.3441V20.0753H39.25V0H50.3441V4.47481H43.9495V7.33099H50.3441Z" fill="#79809A"/>
<path d="M34.5708 0V8.21577H34.5192C33.4823 7.01972 32.1882 6.60374 30.6865 6.60374C27.6099 6.60374 25.2921 8.70532 24.4788 11.4823C23.55 8.42234 21.157 6.54621 17.6089 6.54621C14.7276 6.54621 12.4521 7.84507 11.265 9.96174V7.33099H5.30898V4.47481H11.8088V0H0V20.0753H5.30898V11.637H10.6011C10.4433 12.2567 10.3588 12.9207 10.3588 13.6216C10.3588 17.8087 13.5443 20.7479 17.6089 20.7479C21.0274 20.7479 23.2804 19.1359 24.4713 16.1976H19.9211C19.306 17.0814 18.8392 17.3427 17.6089 17.3427C16.1824 17.3427 14.9521 16.0929 14.9521 14.6111H24.2168C24.6187 17.937 27.1985 20.8054 30.7382 20.8054C32.2652 20.8054 33.6636 20.0508 34.5182 18.7774H34.5699V20.0772H39.2496V0H34.5708ZM15.1005 11.6964C15.3954 10.4211 16.3805 9.58821 17.6099 9.58821C18.9632 9.58821 19.8976 10.3956 20.1437 11.6964C20.247 11.6964 15.1005 11.6964 15.1005 11.6964ZM31.7299 17.0192C30.0047 17.0192 28.9322 15.4043 28.9322 13.7187C28.9322 11.9171 29.8648 10.1843 31.7299 10.1843C33.6636 10.1843 34.4337 11.9171 34.4337 13.7187C34.4337 15.427 33.6176 17.0192 31.7299 17.0192Z" fill="#79809A"/>
<path d="M39.252 30.1132V22.9189H43.2095V23.4557H39.9047V26.1081H43.0696V26.6448H39.9047V29.5746H43.357V30.1122L39.252 30.1132Z" fill="#79809A"/>
<path d="M43.8281 30.1135L45.7581 27.5299L43.9277 25.0859H44.6696L46.1638 27.0828L47.6279 25.0859H48.3698L46.5103 27.5299L48.4487 30.1135H47.6974L46.0943 27.9761L44.571 30.1135H43.8281Z" fill="#79809A"/>
<path d="M49.7042 31.9997H49.1004V26.5864C49.1004 26.0893 49.1004 25.5837 49.0703 25.0856H49.6648L49.6845 25.8412C50.0592 25.2441 50.5542 24.9668 51.297 24.9668C52.84 24.9668 53.5021 26.2477 53.5021 27.5985C53.5021 28.9511 52.84 30.2321 51.297 30.2321C50.6039 30.2321 50.0602 29.9642 49.7042 29.3869V31.9997ZM52.8598 27.5985C52.8598 26.526 52.4137 25.4724 51.2275 25.4724C50.1099 25.4724 49.7042 26.3968 49.7042 27.5985C49.7042 28.8011 50.1099 29.7246 51.2275 29.7246C52.4146 29.7246 52.8598 28.6719 52.8598 27.5985Z" fill="#79809A"/>
<path d="M56.6067 25.5516C55.6074 25.5516 55.2599 26.3968 55.2599 27.2702V30.1132H54.6561V26.5647C54.6561 26.078 54.6467 25.5827 54.627 25.0856H55.2224L55.2609 25.811C55.5576 25.2356 56.0535 24.9668 56.7156 24.9668C56.8048 24.9668 56.9034 24.9762 56.9927 24.9866V25.5931C56.8537 25.5714 56.7447 25.5516 56.6067 25.5516Z" fill="#79809A"/>
<path d="M57.7311 27.7079C57.7311 28.8398 58.2646 29.7736 59.3624 29.7736C60.2123 29.7736 60.6087 29.2077 60.7571 28.6417H61.3309C61.0632 29.6944 60.4199 30.2321 59.2826 30.2321C57.7593 30.2321 57.0859 29.0992 57.0859 27.689C57.0859 26.2487 57.7884 24.9668 59.3615 24.9668C60.9543 24.9668 61.3797 26.3666 61.3797 27.7079H57.7311ZM57.7499 27.2514H60.7373C60.7373 26.2675 60.2734 25.4233 59.323 25.4233C58.4627 25.4224 57.8682 26.078 57.7499 27.2514Z" fill="#79809A"/>
<path d="M63.7369 30.2321C62.7085 30.2321 61.9375 29.7444 61.9375 28.6417H62.5414C62.5414 29.3963 63.0354 29.7736 63.7679 29.7736C64.4507 29.7736 64.9841 29.4454 64.9841 28.7719C64.9841 28.1654 64.3614 28.006 63.7087 27.8173C62.918 27.5891 62.0568 27.34 62.0568 26.3666C62.0568 25.2847 62.9565 24.9668 63.7979 24.9668C64.7662 24.9668 65.4893 25.3432 65.5185 26.3864H64.9146C64.8855 25.7912 64.46 25.4535 63.8167 25.4535C63.3124 25.4535 62.6991 25.6516 62.6991 26.3072C62.6991 26.9042 63.3124 27.0731 63.9651 27.2514C64.7578 27.4693 65.6274 27.7079 65.6274 28.6823C65.6265 29.8142 64.7568 30.2321 63.7369 30.2321Z" fill="#79809A"/>
<path d="M67.9214 30.2321C66.8921 30.2321 66.1211 29.7444 66.1211 28.6417H66.725C66.725 29.3963 67.219 29.7736 67.9524 29.7736C68.6352 29.7736 69.1686 29.4454 69.1686 28.7719C69.1686 28.1654 68.545 28.006 67.8923 27.8173C67.1016 27.5891 66.2413 27.34 66.2413 26.3666C66.2413 25.2847 67.141 24.9668 67.9825 24.9668C68.9507 24.9668 69.6739 25.3432 69.703 26.3864H69.0991C69.07 25.7912 68.6446 25.4535 68.0013 25.4535C67.4969 25.4535 66.8837 25.6516 66.8837 26.3072C66.8837 26.9042 67.4969 27.0731 68.1506 27.2514C68.9423 27.4693 69.8129 27.7079 69.8129 28.6823C69.811 29.8142 68.9404 30.2321 67.9214 30.2321Z" fill="#79809A"/>
</g>
<defs>
<clipPath id="clip0_35834_337967">
<rect width="70" height="32" fill="white"/>
</clipPath>
</defs>
</svg>
