<svg width="133" height="24" viewBox="0 0 133 24" fill="none" xmlns="http://www.w3.org/2000/svg">
<g clip-path="url(#clip0_0_2762)">
<path d="M72.3568 22.3852H89.5198V20.2944H75.2991V13.6041H85.9805V11.4886H75.2991V5.32482H89.5198V3.24164H72.3568V22.3852Z" fill="#79809A"/>
<path d="M81.2759 0.147095L78.9523 2.75057L86.2468 0.147095H81.2759Z" fill="#79809A"/>
<path d="M118.332 20.2944V3.24164H115.65V22.3852H133V20.2944H118.332Z" fill="#79809A"/>
<path d="M100.641 3.24164L90.8809 22.3852H94.1799L96.6768 17.4303H108.382L110.901 22.3852H114.166L104.398 3.24164H100.641ZM97.9122 15.0307L102.511 5.8869L107.164 15.0307H97.9122Z" fill="#79809A"/>
<path d="M63.0437 14.3803C67.4411 13.21 67.8684 9.94681 67.8461 8.7802C67.5836 5.3603 65.2732 3.24164 61.1218 3.24164H49.0238V22.3852H51.7817V14.3547H59.6578L65.4521 22.3852H68.9282C68.9282 22.3852 64.7584 16.9806 63.0437 14.3803ZM60.7453 12.0928H51.7817V5.50753H61.0576C63.1933 5.50753 64.3946 6.50187 64.8274 7.76498C65.1136 8.63081 64.9301 9.76741 64.4565 10.5412C63.6812 11.8206 62.2086 12.0928 60.7453 12.0928Z" fill="#79809A"/>
<path d="M32.45 0C24.6648 0 19.3586 5.4744 19.3586 12.1003C19.3586 19.0757 25.2201 24 32.45 24C39.6751 24 45.5342 19.146 45.5342 12.1003C45.5342 5.4744 40.1623 0 32.45 0ZM32.3566 21.6237C26.9704 21.6237 22.5325 17.3069 22.5325 12.1068C22.5325 6.91375 26.7609 2.39025 32.5654 2.39025C38.226 2.39025 42.3871 6.91375 42.3871 12.1068C42.3871 17.3068 37.7404 21.6237 32.3566 21.6237Z" fill="#79809A"/>
<path d="M12.4127 10.014H14.4027L18.0148 3.24164H15.1081L12.4127 10.014Z" fill="#79809A"/>
<path d="M2.68411 20.2944V3.24164H0V22.3852H17.3497V20.2944H2.68411Z" fill="#79809A"/>
</g>
<defs>
<clipPath id="clip0_0_2762">
<rect width="133" height="24" fill="white"/>
</clipPath>
</defs>
</svg>
