<svg width="101" height="32" viewBox="0 0 101 32" fill="none" xmlns="http://www.w3.org/2000/svg">
<g clip-path="url(#clip0_0_2757)">
<path d="M17.972 31.9059V26.7018H19.1174V31.9059L17.972 31.9059ZM24.9727 31.9059L22.4444 28.5987V31.9076H21.314V26.7018H22.3702L24.8094 29.9067V26.7018H25.9398V31.9059L24.9727 31.9059ZM30.059 27.7575V31.9059H28.9137V27.7575H27.3294V26.7018H31.6434V27.7575H30.059ZM33.0296 31.9059V26.7018H36.9574V27.7195H34.1618V28.7554H36.6158V29.7731H34.1618V30.8865H36.9888V31.9043L33.0296 31.9059ZM42.0503 31.9059L40.9281 30.2416H40.0287V31.9076H38.8833V26.7018H41.2582C42.486 26.7018 43.222 27.3484 43.222 28.4189V28.4338C43.2562 29.1613 42.7994 29.8218 42.1064 30.047L43.3788 31.9059H42.0503ZM42.0734 28.4783C42.0734 27.9835 41.7318 27.7344 41.174 27.7344H40.0353V29.2288H41.1905C41.7483 29.2288 42.0685 28.9319 42.0685 28.4931L42.0734 28.4783ZM48.7705 31.9059L46.2488 28.5971V31.9059H45.1183V26.7018H46.1745L48.6137 29.9067V26.7018H49.7441V31.9059L48.7705 31.9059ZM55.4543 31.9059L54.979 30.7381H52.7725L52.2972 31.9059H51.1288L53.36 26.6639H54.4162L56.6475 31.9059H55.4543ZM53.8733 28.0412L53.1818 29.7286H54.5647L53.8733 28.0412ZM59.6494 27.7591V31.9076H58.5041V27.7575H56.9198V26.7018H61.2337V27.7575L59.6494 27.7591ZM62.7421 31.9076V26.7018H63.8874V31.9059L62.7421 31.9076ZM68.4423 31.9966C66.8382 31.9999 65.683 30.7991 65.683 29.3195V29.3047C65.683 27.8202 66.8514 26.6127 68.4572 26.6127C70.0629 26.6127 71.2165 27.8103 71.2165 29.2898V29.3047C71.2182 30.7843 70.0514 31.9999 68.444 31.9999L68.4423 31.9966ZM70.0184 29.3047C70.0485 28.4316 69.3647 27.6994 68.4911 27.6693C68.4749 27.6688 68.4586 27.6685 68.4423 27.6684C67.5198 27.6684 66.8795 28.3975 66.8795 29.2898V29.3047C66.8494 30.1778 67.5332 30.91 68.4067 30.94C68.423 30.9406 68.4393 30.9409 68.4555 30.941C69.3781 30.941 70.0184 30.2119 70.0184 29.3195V29.3047ZM76.7402 31.9059L74.2185 28.5971V31.9059H73.0929V26.7018H74.1492L76.5884 29.9067V26.7018H77.7188V31.9059L76.7402 31.9059ZM83.424 31.9059L82.9487 30.7381H80.7521L80.2768 31.9059H79.1084L81.3396 26.6639H82.3958L84.6271 31.9059H83.424ZM81.8562 28.0412L81.1647 29.7286H82.5477L81.8562 28.0412ZM85.9209 31.9076V26.7018H87.0663V30.8651H89.6622V31.9059L85.9209 31.9076Z" fill="#79809A"/>
<path d="M53.9228 10.0817C53.3146 9.76326 52.6419 9.58727 51.9556 9.56705C50.5858 9.56705 49.8102 10.5567 49.6072 10.8866V21.4961H45.4533V6.62604H49.2589L49.4966 8.18315C49.6616 7.91263 50.6518 6.30604 52.6157 6.30604C53.0606 6.31183 53.5017 6.38809 53.9227 6.53202V10.0817H53.9228ZM63.7802 6.53201C63.3592 6.38813 62.918 6.31185 62.4731 6.30602C60.5076 6.30602 59.524 7.91263 59.354 8.18313L59.1163 6.62602H55.3107V21.4977H59.4646V10.8866C59.6742 10.5485 60.4416 9.56704 61.813 9.56704C62.4993 9.58727 63.172 9.76326 63.7802 10.0817L63.7802 6.53201ZM42.9085 10.8949V21.4977H39.0962L38.8586 19.9472C38.5962 20.2013 37.3733 21.8178 34.8532 21.8178C32.4768 21.8178 30.8364 20.0033 30.8364 17.5604C30.8364 12.2986 37.0449 11.558 38.7579 11.3848V10.9625C38.7579 10.1015 38.0351 9.20746 36.1174 9.20746C34.0908 9.20746 32.5296 10.3275 32.249 10.527V7.46065C33.8682 6.68484 35.6437 6.28986 37.4393 6.30602C41.2582 6.30274 42.9085 8.04622 42.9085 10.8949ZM38.7546 14.2912C37.4344 14.2912 35.0232 14.7448 35.0232 16.8264C35.0232 17.8821 35.7461 18.6409 36.6521 18.6409C37.8304 18.6409 38.7546 17.7963 38.7546 15.8945L38.7546 14.2912ZM15.9587 2.21697L19.6933 10.2268L18.2279 13.3609L11.9979 6.10352e-05L7.25153 2.21201L10.9829 10.2104C10.6908 10.8339 10.2221 11.8483 9.46297 13.4631C7.75654 17.1101 6.43627 18.1312 4.09776 18.1312C3.45465 18.1196 2.81788 18.002 2.21309 17.7831L0 22.5237C1.12108 22.9903 2.32075 23.2394 3.535 23.2578C6.3026 23.2578 8.3358 21.4598 10.1033 17.6693L12.2817 13.0013L16.2425 21.5027H22.0187L19.5168 16.1419L20.9823 13.0079L24.943 21.5093H30.7192L20.705 6.10352e-05L15.9587 2.21697ZM98.8925 6.62768V1.70728L94.7386 3.64377V6.62769H93.4085V9.21408H94.7403V21.4994H98.8941V9.21241H101V6.62603L98.8925 6.62768ZM65.3348 21.4994H69.4886V6.62603H65.3348V21.4994ZM90.0715 1.70562L85.9176 3.64212V6.62603H84.5858V9.21242H85.9176V21.4978H90.0715V9.21241H92.179V6.62603H90.0715V1.70562ZM83.6154 12.838V15.2842C83.6154 18.8289 81.8826 21.8194 77.6264 21.8194C73.3702 21.8194 71.6374 18.8503 71.6374 15.2842V12.8396C71.6374 9.28004 73.3702 6.30437 77.6264 6.30437C81.8826 6.30437 83.6154 9.29489 83.6154 12.8396V12.838ZM79.4285 12.2491C79.4285 10.471 78.9962 9.20911 77.6264 9.20911C76.2566 9.20911 75.8242 10.471 75.8242 12.2491V15.878C75.8242 17.6561 76.2484 18.918 77.6264 18.918C79.0044 18.918 79.4285 17.6561 79.4285 15.878V12.2491Z" fill="#79809A"/>
</g>
<defs>
<clipPath id="clip0_0_2757">
<rect width="101" height="32" fill="white"/>
</clipPath>
</defs>
</svg>
