<svg width="116" height="32" viewBox="0 0 116 32" fill="none" xmlns="http://www.w3.org/2000/svg">
<g clip-path="url(#clip0_0_2744)">
<path d="M20.201 1.53077C19.9158 1.87784 19.7546 2.26538 19.7546 2.93928V21.4686H19.6523C19.6523 21.4686 9.5529 3.38759 9.0647 2.55173C8.71908 1.95881 8.33313 1.55099 7.82478 1.24441C7.31642 0.959527 6.7879 0.775881 5.77263 0.775881H2.44024C1.66691 0.775881 1.18016 1.04051 0.834538 1.44977C0.549394 1.79539 0.386658 2.1844 0.386658 2.85685V29.1215C0.386658 29.7954 0.549394 30.183 0.834538 30.53C1.18016 30.9378 1.66691 31.2025 2.44024 31.2025H4.32965C5.10154 31.2025 5.58974 30.9378 5.93536 30.53C6.21906 30.183 6.3818 29.7954 6.3818 29.1215V10.1425H6.48403C6.48403 10.1425 16.9694 28.7947 17.3971 29.4888C17.9861 30.4678 18.9812 31.2025 20.404 31.2025H23.6356C24.4075 31.2025 24.8957 30.9378 25.2413 30.53C25.525 30.183 25.6878 29.7954 25.6878 29.1215V5.42809H68.1404C68.5682 5.42809 68.8922 5.30661 69.137 5.1027C69.4005 4.85686 69.5229 4.53003 69.5229 4.04124V2.24516C69.5229 1.75491 69.4005 1.42807 69.137 1.18367C68.8922 0.979767 68.5682 0.856861 68.1404 0.856861H21.8067C21.0348 0.856861 20.5466 1.12296 20.201 1.53077ZM38.7351 8.55028C31.6829 8.55028 27.7197 14.0817 27.7197 19.9183C27.7197 26.1425 31.9681 31.6118 38.7754 31.6118C42.1697 31.6118 45.5021 30.3261 47.4117 28.06C48.2455 27.081 48.9166 25.713 48.9166 24.8771C48.9166 24.5908 48.8547 24.3464 48.6934 24.1627C48.5306 23.9588 48.2858 23.8359 47.8595 23.8359H44.5876C43.9367 23.8359 43.4903 24.0803 43.1648 24.5705C42.21 25.9791 40.8275 26.7137 38.7956 26.7137C35.7469 26.7137 33.7768 24.3869 33.6342 21.8359H47.7789C48.4082 21.8359 48.8546 21.6927 49.16 21.3876C49.5056 21.0608 49.6683 20.5908 49.6683 19.713C49.6683 17.0405 48.8345 14.2654 47.0876 12.1425C45.299 9.9993 42.5758 8.55028 38.7351 8.55028ZM60.5396 8.55028C54.9722 8.55028 51.3143 11.2039 51.3143 15.4483C51.3143 16.9581 51.863 18.183 52.7573 19.1418C53.7942 20.2654 55.2775 21.0405 57.4319 21.5915L62.0848 22.7744C63.3651 23.1012 64.5028 23.4888 64.5028 24.611C64.5028 26.3464 62.6738 26.9378 60.7239 26.9378C59.7677 26.9378 58.7726 26.7542 57.959 26.3464C57.3901 26.06 56.9034 25.6522 56.5577 25.1012C56.2524 24.6313 56.1516 24.2842 55.6836 24.0196C55.3985 23.8561 55.0528 23.8359 54.5862 23.8359H52.0661C51.5174 23.8359 51.2539 23.9993 51.071 24.2235C50.8881 24.4476 50.8261 24.7744 50.8261 25.1012C50.8261 25.9169 51.1113 26.9378 51.7824 27.8561C53.3261 29.9371 56.5577 31.6118 60.6822 31.6118C64.7476 31.6118 70.3769 29.9169 70.3769 24.4476C70.3769 23.0405 69.9694 21.8359 69.2176 20.8569C68.2629 19.6117 66.902 18.7542 64.5849 18.1627L59.9722 16.9783C58.0612 16.4895 57.1669 16.1425 57.1669 14.9581C57.1669 13.8156 58.1836 12.8973 60.5396 12.8973C61.9221 12.8973 63.1822 13.2039 63.9959 14.0615C64.6655 14.7759 64.5445 15.1432 65.073 15.4281C65.3971 15.5915 65.7629 15.5915 66.3331 15.5915H68.6287C68.9944 15.5915 69.2594 15.5308 69.461 15.3051C69.6252 15.1215 69.726 14.8366 69.726 14.3666C69.726 13.3052 69.0348 11.9386 67.8164 10.8973C66.1906 9.48882 63.6301 8.55028 60.5396 8.55028ZM73.201 9.32685H72.0633C71.637 9.32685 71.3116 9.44834 71.0682 9.65224C70.8032 9.89808 70.6808 10.2249 70.6808 10.7137V12.1222C70.6808 12.6125 70.8032 12.9379 71.0682 13.1837C71.3116 13.3876 71.637 13.5105 72.0633 13.5105H73.201V23.6927C73.201 26.3044 73.9124 27.9371 75.2329 29.2444C76.4527 30.4476 78.0383 31.2025 80.8018 31.2025H82.5285C82.9562 31.2025 83.2802 31.081 83.525 30.8771C83.7886 30.6313 83.9513 30.3044 83.9513 29.8156V28.0398C83.9513 27.5496 83.7886 27.2242 83.525 26.9783C83.2802 26.7744 82.9562 26.6515 82.5285 26.6515H82.2851C81.1878 26.6515 80.436 26.3666 79.9277 25.8764C79.3185 25.3052 79.0132 24.4273 79.0132 23.2849V13.5105H82.7128C83.1391 13.5105 83.4645 13.3876 83.7079 13.1837C83.9715 12.9379 84.0939 12.6125 84.0939 12.1222V10.7137C84.0939 10.2249 83.9715 9.89808 83.7079 9.65224C83.4645 9.44834 83.1391 9.32685 82.7128 9.32685H79.0334V2.67321C79.0334 2.14248 78.8706 1.7549 78.6273 1.44977C78.322 1.08245 77.8957 0.856861 77.2664 0.856861H74.9694C74.3386 0.856861 73.9124 1.08245 73.6071 1.44977C73.3637 1.7549 73.201 2.14248 73.201 2.67321V9.32685ZM85.6391 29.3861C85.6391 29.9169 85.8004 30.3044 86.0452 30.611C86.3491 30.9783 86.7768 31.2025 87.4061 31.2025H89.824C90.4548 31.2025 90.8811 30.9783 91.1864 30.611C91.4297 30.3044 91.5925 29.9169 91.5925 29.3861V2.67465C91.5925 2.14393 91.4297 1.75635 91.1864 1.44977C90.8811 1.08245 90.4548 0.856861 89.824 0.856861H87.4061C86.7768 0.856861 86.3491 1.08245 86.0452 1.44977C85.8004 1.75635 85.6391 2.14393 85.6391 2.67465V29.3861ZM33.6746 17.4888C33.9381 14.9783 35.8491 13.1012 38.7552 13.1012C41.6009 13.1012 43.5709 14.9783 43.8359 17.4888H33.6746ZM113.602 5.42809C114.028 5.42809 114.353 5.30661 114.597 5.1027C114.862 4.85686 114.984 4.53003 114.984 4.04124V2.14247C114.984 1.40783 114.841 1.04053 114.597 0.775881C114.373 0.530041 114.008 0.388306 113.602 0.388306C113.276 0.388306 112.952 0.428832 112.403 0.489548L96.1849 2.10199C95.7184 2.1425 95.4951 2.28565 95.3324 2.4693C95.1495 2.67321 95.0674 2.93928 95.0674 3.30659V4.36663C95.0674 4.77588 95.1495 4.95953 95.2921 5.12294C95.4735 5.32684 95.7385 5.42809 96.1043 5.42809H113.602ZM104.64 8.55028C97.5876 8.55028 93.6245 14.0817 93.6245 19.9183C93.6245 26.1425 97.8728 31.6118 104.68 31.6118C108.074 31.6118 111.407 30.3261 113.316 28.06C114.15 27.081 114.821 25.713 114.821 24.8771C114.821 24.5908 114.759 24.3464 114.597 24.1627C114.435 23.9588 114.191 23.8359 113.764 23.8359H110.492C109.841 23.8359 109.395 24.0803 109.07 24.5705C108.115 25.9791 106.732 26.7137 104.7 26.7137C101.652 26.7137 99.6801 24.3869 99.5389 21.8359H113.724C114.353 21.8359 114.801 21.6927 115.105 21.3876C115.451 21.0608 115.613 20.5908 115.613 19.713C115.613 17.0405 114.78 14.2654 113.033 12.1425C111.244 9.9993 108.481 8.55028 104.64 8.55028ZM99.5793 17.4888C99.8442 14.9783 101.754 13.1012 104.66 13.1012C107.506 13.1012 109.476 14.9783 109.741 17.4888H99.5793Z" fill="#79809A"/>
</g>
<defs>
<clipPath id="clip0_0_2744">
<rect width="116" height="32" fill="white"/>
</clipPath>
</defs>
</svg>
