<svg width="246" height="32" viewBox="0 0 246 32" fill="none" xmlns="http://www.w3.org/2000/svg">
<g clip-path="url(#clip0_35834_337953)">
<path d="M106.057 20.8212H122.287L113.714 6.95452L97.9531 31.9999H90.786L109.955 1.95186C110.373 1.35226 110.928 0.861696 111.574 0.521268C112.22 0.180839 112.938 0.000456909 113.668 -0.00476606C114.398 -0.00998903 115.119 0.160099 115.77 0.491248C116.421 0.822398 116.983 1.30497 117.409 1.89852L136.632 31.9999H129.464L126.089 26.3999H109.667L106.089 20.8212M180.56 26.3999V0.298523H174.469V28.9705C174.468 29.369 174.547 29.7635 174.703 30.1302C174.858 30.4969 175.087 30.8281 175.374 31.1039C175.662 31.3993 176.007 31.6337 176.387 31.7931C176.768 31.9526 177.176 32.0337 177.589 32.0319H205.277L208.887 26.4319H180.528M79.8492 21.7385C82.6877 21.7385 85.4099 20.6091 87.417 18.5987C89.4242 16.5883 90.5518 13.8616 90.5518 11.0185C90.5518 8.1754 89.4242 5.44873 87.417 3.43834C85.4099 1.42795 82.6877 0.298523 79.8492 0.298523H53.2258V31.9999H59.3066V5.90919H79.4764C80.835 5.90919 82.1379 6.44974 83.0985 7.41193C84.0591 8.37411 84.5988 9.67912 84.5988 11.0399C84.5988 12.4006 84.0591 13.7056 83.0985 14.6678C82.1379 15.63 80.835 16.1705 79.4764 16.1705H62.3203L80.4881 31.9999H89.3164L77.1123 21.7385H79.8492ZM15.8253 31.9999H34.2167C38.3413 31.8927 42.2609 30.1762 45.1403 27.2163C48.0197 24.2564 49.6311 20.2872 49.6311 16.1545C49.6311 12.0219 48.0197 8.05262 45.1403 5.09273C42.2609 2.13284 38.3413 0.416387 34.2167 0.30919H15.8253C13.7133 0.254299 11.6117 0.623554 9.64443 1.39518C7.67718 2.1668 5.8841 3.32517 4.37094 4.80198C2.85778 6.27878 1.65517 8.04412 0.834028 9.99389C0.0128878 11.9437 -0.410156 14.0384 -0.410156 16.1545C-0.410156 18.2707 0.0128878 20.3654 0.834028 22.3152C1.65517 24.2649 2.85778 26.0303 4.37094 27.5071C5.8841 28.9839 7.67718 30.1422 9.64443 30.9139C11.6117 31.6855 13.7133 32.0547 15.8253 31.9999ZM33.8014 26.4212H16.2299C13.5714 26.3353 11.0505 25.2171 9.20028 23.3031C7.35003 21.3891 6.31552 18.8294 6.31552 16.1652C6.31552 13.501 7.35003 10.9412 9.20028 9.02724C11.0505 7.11325 13.5714 5.99508 16.2299 5.90919H33.8014C35.1738 5.86485 36.5411 6.09732 37.8221 6.59278C39.1031 7.08823 40.2715 7.83657 41.258 8.7933C42.2445 9.75004 43.0289 10.8957 43.5646 12.1621C44.1003 13.4285 44.3763 14.7898 44.3763 16.1652C44.3763 17.5406 44.1003 18.9019 43.5646 20.1683C43.0289 21.4347 42.2445 22.5803 41.258 23.5371C40.2715 24.4938 39.1031 25.2421 37.8221 25.7376C36.5411 26.2331 35.1738 26.4655 33.8014 26.4212ZM149.336 31.9999H168.111L171.668 26.4212H149.751C148.379 26.4655 147.012 26.2331 145.731 25.7376C144.45 25.2421 143.281 24.4938 142.295 23.5371C141.308 22.5803 140.524 21.4347 139.988 20.1683C139.453 18.9019 139.177 17.5406 139.177 16.1652C139.177 14.7898 139.453 13.4285 139.988 12.1621C140.524 10.8957 141.308 9.75004 142.295 8.7933C143.281 7.83657 144.45 7.08823 145.731 6.59278C147.012 6.09732 148.379 5.86485 149.751 5.90919H167.589L171.189 0.30919H149.336C147.224 0.254299 145.123 0.623554 143.155 1.39518C141.188 2.1668 139.395 3.32517 137.882 4.80198C136.369 6.27878 135.166 8.04412 134.345 9.99389C133.524 11.9437 133.101 14.0384 133.101 16.1545C133.101 18.2707 133.524 20.3654 134.345 22.3152C135.166 24.2649 136.369 26.0303 137.882 27.5071C139.395 28.9839 141.188 30.1422 143.155 30.9139C145.123 31.6855 147.224 32.0547 149.336 31.9999ZM223.743 26.4212C221.512 26.422 219.341 25.6932 217.561 24.3455C215.782 22.9978 214.49 21.1049 213.882 18.9545H239.888L243.466 13.3652H213.882C214.488 11.2139 215.78 9.31999 217.56 7.97202C219.34 6.62406 221.511 5.89592 223.743 5.89852H241.592L245.159 0.298523H223.328C219.203 0.405721 215.284 2.12217 212.404 5.08206C209.525 8.04195 207.913 12.0112 207.913 16.1439C207.913 20.2765 209.525 24.2458 212.404 27.2057C215.284 30.1655 219.203 31.882 223.328 31.9892H242.103L245.67 26.4105H223.733" fill="#79809A"/>
</g>
<defs>
<clipPath id="clip0_35834_337953">
<rect width="246" height="32" fill="white"/>
</clipPath>
</defs>
</svg>
