<svg width="194" height="32" viewBox="0 0 194 32" fill="none" xmlns="http://www.w3.org/2000/svg">
<g clip-path="url(#clip0_35834_337947)">
<path d="M76.5687 4.59053H56.9206V8.92651H64.1748V27.4103H69.3222V8.92651H76.5764V4.59053M95.7846 19.6625C95.3885 20.6588 94.7439 21.5377 93.9119 22.2156C93.08 22.8936 92.0882 23.3482 91.0308 23.5364C90.6385 23.6064 90.2409 23.6425 89.8424 23.6442C89.4333 23.6442 89.032 23.6057 88.6462 23.5364C87.5896 23.3484 86.5988 22.8938 85.7681 22.2157C84.9373 21.5376 84.2943 20.6587 83.9001 19.6625C83.4404 18.4947 83.2048 17.2512 83.2055 15.9966C83.2058 14.7445 83.4414 13.5037 83.9001 12.3383C84.2938 11.3411 84.9366 10.461 85.7673 9.78157C86.598 9.10218 87.5891 8.64611 88.6462 8.45672C89.4369 8.31072 90.2478 8.31072 91.0385 8.45672C92.0948 8.64538 93.0853 9.10029 93.9159 9.77828C94.7466 10.4563 95.3898 11.3348 95.7846 12.3306C96.706 14.6881 96.706 17.305 95.7846 19.6625ZM89.8424 3.90509C86.628 3.90509 83.5452 5.17942 81.2723 7.44773C78.9994 9.71604 77.7224 12.7925 77.7224 16.0004C77.7224 19.2083 78.9994 22.2848 81.2723 24.5531C83.5452 26.8214 86.628 28.0957 89.8424 28.0957C93.0568 28.0957 96.1395 26.8214 98.4124 24.5531C100.685 22.2848 101.962 19.2083 101.962 16.0004C101.962 12.7925 100.685 9.71604 98.4124 7.44773C96.1395 5.17942 93.0568 3.90509 89.8424 3.90509ZM102.036 4.59824H108.101L113.758 14.4023L119.415 4.59053H125.473L116.328 18.9694V27.4103H111.188V18.9694L102.036 4.59053M137.689 23.6442C138.091 23.6442 138.492 23.6057 138.878 23.5364C139.934 23.3484 140.925 22.8938 141.756 22.2157C142.587 21.5376 143.23 20.6587 143.624 19.6625C144.551 17.3087 144.551 14.6921 143.624 12.3383C143.23 11.3421 142.587 10.4632 141.756 9.78512C140.925 9.10704 139.934 8.65239 138.878 8.46442C138.087 8.32282 137.276 8.32282 136.485 8.46442C135.43 8.6536 134.441 9.1088 133.612 9.7868C132.782 10.4648 132.14 11.3431 131.747 12.3383C131.288 13.5036 131.053 14.7445 131.052 15.9966C131.052 17.2904 131.299 18.5304 131.747 19.6625C132.141 20.6591 132.783 21.5384 133.614 22.2166C134.445 22.8947 135.436 23.3491 136.493 23.5364C136.888 23.6073 137.288 23.6434 137.689 23.6442ZM125.573 15.9966C125.573 12.7897 126.85 9.71419 129.122 7.4466C131.394 5.17901 134.476 3.90509 137.689 3.90509C140.903 3.90509 143.984 5.17901 146.257 7.4466C148.529 9.71419 149.805 12.7897 149.805 15.9966C149.805 19.2034 148.529 22.2789 146.257 24.5465C143.984 26.8141 140.903 28.088 137.689 28.088C134.476 28.088 131.394 26.8141 129.122 24.5465C126.85 22.2789 125.573 19.2034 125.573 15.9966ZM184.896 18.384L181.531 9.3655L178.158 18.3763H184.896M186.385 22.3734H176.661L174.786 27.3949H169.06L178.321 4.57513H184.726L193.987 27.3949H188.276L186.385 22.3734ZM170.572 4.59053H150.924V8.92651H158.179V27.4103H163.326V8.92651H170.565V4.59053M35.9297 1.57152C32.348 0.487868 28.6211 -0.0419802 24.8786 0.000402094C21.1362 -0.0419802 17.4093 0.487868 13.8275 1.57152C5.64726 4.19775 0.0136719 9.65046 0.0136719 15.9349C0.0136719 24.784 11.1265 32.0004 24.8786 32.0004C38.5999 32.0004 49.7436 24.8148 49.7436 15.9349C49.7436 9.65046 44.1254 4.19775 35.9297 1.57152ZM24.8786 25.1075C22.8258 25.1075 21.1512 21.1027 21.0586 16.0274C22.2779 16.1583 23.559 16.1891 24.8786 16.1891C26.1906 16.1891 27.4793 16.1275 28.7064 16.0351C28.6061 21.095 26.9314 25.1075 24.8786 25.1075ZM21.3133 12.0919C21.8535 8.52603 23.2426 6.03073 24.8786 6.03073C26.4838 6.03073 27.8652 8.52603 28.444 12.0842C26.0719 12.2958 23.6858 12.2984 21.3133 12.0919ZM30.628 11.7992C29.7945 6.25407 27.5411 2.24926 24.8786 2.24926C22.2162 2.24926 19.9627 6.22327 19.1293 11.7992C14.0822 10.9982 10.5477 9.23458 10.5477 7.14745C10.5477 4.32868 16.9762 2.04902 24.8786 2.04902C32.7811 2.04902 39.2173 4.32868 39.2173 7.14745C39.2173 9.22688 35.6828 11.029 30.6357 11.7992H30.628ZM3.64078 15.3573C3.64078 12.631 4.70575 10.0972 6.53474 7.8868C6.50387 8.04083 6.50387 8.21027 6.50387 8.33349C6.50387 11.7684 11.6436 14.6488 18.8052 15.7424V16.5126C18.8052 22.8586 20.5801 28.2497 23.0188 30.1058C12.1606 29.4666 3.64849 23.1128 3.64849 15.3573H3.64078ZM26.7462 30.1443C29.1848 28.2805 30.9521 22.8894 30.9521 16.5434V15.7732C38.1137 14.7181 43.2534 11.7992 43.2534 8.372C43.2534 8.21027 43.2534 8.04854 43.2225 7.91761C45.0454 9.98584 46.0713 12.634 46.1165 15.3881C46.1165 23.1128 37.6044 29.4666 26.7462 30.1366V30.1443Z" fill="#79809A"/>
</g>
<defs>
<clipPath id="clip0_35834_337947">
<rect width="194" height="32" fill="white"/>
</clipPath>
</defs>
</svg>
